<svg width="36" height="22" viewBox="0 0 36 22" fill="none" xmlns="http://www.w3.org/2000/svg">
<path fill-rule="evenodd" clip-rule="evenodd" d="M17.9182 1.14258H20.5172V17.5788H13.5141C12.9943 15.6451 11.3892 14.1948 8.55599 14.1948C5.72277 14.1948 4.11767 15.6451 3.59786 17.5788H2.84386C2.84386 17.5788 2.84386 17.5788 2.84386 17.0953C2.84386 16.1285 1.80426 14.6783 0.764648 14.1948V1.14258L17.9182 1.14258Z" stroke="black" stroke-miterlimit="2.61313" stroke-linecap="round" stroke-linejoin="round"/>
<path fill-rule="evenodd" clip-rule="evenodd" d="M8.56191 16.3838C10.1213 16.3838 11.1609 17.3506 11.1609 18.8009C11.1609 20.2511 10.1213 21.218 8.56191 21.218C7.0025 21.218 5.96289 20.2511 5.96289 18.8009C5.96289 17.3506 7.0025 16.3838 8.56191 16.3838Z" stroke="black" stroke-miterlimit="2.61313" stroke-linecap="round" stroke-linejoin="round"/>
<path fill-rule="evenodd" clip-rule="evenodd" d="M29.3197 16.3838C30.8791 16.3838 31.9187 17.3506 31.9187 18.8009C31.9187 20.2511 30.8791 21.218 29.3197 21.218C27.7603 21.218 26.7207 20.2511 26.7207 18.8009C26.7207 17.3506 27.7603 16.3838 29.3197 16.3838Z" stroke="black" stroke-miterlimit="2.61313" stroke-linecap="round" stroke-linejoin="round"/>
<path fill-rule="evenodd" clip-rule="evenodd" d="M23.9505 5.26562H30.1881L34.8663 10.5832V17.8345H34.0552C33.5354 15.9008 31.9303 14.4506 29.1485 14.4506C26.2639 14.4506 24.6588 15.9008 24.139 17.8345H23.4307V5.26562H23.9505Z" stroke="black" stroke-miterlimit="2.61313" stroke-linecap="round" stroke-linejoin="round"/>
<path d="M34.9033 11L23.9033 11" stroke="black"/>
<path d="M25.9033 5L25.9033 11" stroke="black"/>
<path d="M16.2843 1.14258H0.981445V12.3246H16.2843V1.14258Z" stroke="black" stroke-miterlimit="2.61313" stroke-linecap="round" stroke-linejoin="round"/>
<path d="M8.89399 8.30537C8.94513 8.31077 9.01283 8.31202 9.06584 8.31202C9.09278 8.31202 9.11647 8.3117 9.13312 8.31137L9.15243 8.31091L9.15749 8.31075L9.15846 8.31071C9.49251 8.30531 9.81536 8.23682 10.1214 8.11604L10.1214 8.11605L10.1223 8.11569C10.4503 7.97907 10.7349 7.79502 10.9865 7.56374L10.9869 7.56337C11.2333 7.33183 11.4361 7.05799 11.5841 6.74198C11.7324 6.4253 11.8093 6.08733 11.8093 5.72342C11.8093 5.35952 11.7324 5.02155 11.5841 4.70487C11.4363 4.38919 11.239 4.11528 10.9869 3.87832L10.9869 3.87831C10.7402 3.64651 10.45 3.46248 10.1223 3.32599L10.1219 3.32584C9.79864 3.19422 9.45345 3.12578 9.09743 3.12578C8.7413 3.12578 8.4015 3.19426 8.07835 3.32584C7.75569 3.45722 7.46529 3.64138 7.21848 3.87851C6.96651 4.11543 6.76927 4.38928 6.62149 4.70487C6.47317 5.0216 6.39629 5.36474 6.39629 5.72342C6.39629 6.08715 6.47311 6.43016 6.61594 6.74162L6.61593 6.74162L6.61641 6.74262C6.76944 7.05774 6.96655 7.33151 7.21331 7.56337C7.45998 7.79514 7.7501 7.97912 8.07233 8.11557L8.07232 8.11558L8.07324 8.11595C8.33582 8.22108 8.60409 8.28426 8.89399 8.30537ZM8.89399 8.30537C8.89371 8.30534 8.89343 8.30531 8.89315 8.30528L8.89846 8.25557L8.89484 8.30543C8.89456 8.30541 8.89428 8.30539 8.89399 8.30537ZM10.5655 6.67944C10.5064 6.97399 10.4149 7.22721 10.2859 7.43908C10.1622 7.65095 10.0009 7.82148 9.80189 7.94034C9.6083 8.0592 9.37168 8.12121 9.09743 8.12121C8.82855 8.12121 8.59194 8.06436 8.39834 7.93517L10.5655 6.67944ZM10.5655 6.67944C10.6247 6.39005 10.6569 6.06966 10.6569 5.71826M10.5655 6.67944L10.6569 5.71826M10.6569 5.71826C10.6569 5.37203 10.6247 5.05163 10.5655 4.75708L10.6569 5.71826ZM9.77625 7.89742L9.77625 7.89741L9.77573 7.89773C9.5913 8.01096 9.36409 8.07121 9.09743 8.07121C8.83544 8.07121 8.6093 8.01584 8.4261 7.89358L8.42613 7.89353L8.42399 7.89225C8.23313 7.77824 8.07751 7.61421 7.95754 7.4087L7.95755 7.4087L7.95707 7.4079C7.83175 7.20217 7.74206 6.95478 7.68375 6.66442C7.62528 6.37327 7.59331 6.05618 7.59331 5.71826C7.59331 5.3805 7.62525 5.06355 7.68367 4.77252C7.74738 4.48187 7.83722 4.23379 7.95781 4.02219C8.07739 3.81234 8.23289 3.65306 8.42479 3.53344L8.4248 3.53344L8.42532 3.53311C8.60934 3.41521 8.83614 3.35497 9.10281 3.35497C9.36899 3.35497 9.59069 3.415 9.78056 3.53328C9.96693 3.65274 10.123 3.8174 10.2485 4.02345C10.3738 4.22901 10.4634 4.48135 10.5163 4.76621L10.5163 4.76621L10.5165 4.76692C10.5749 5.05805 10.6069 5.37514 10.6069 5.71826C10.6069 6.06661 10.5749 6.38363 10.5165 6.66942L10.5165 6.66959C10.4582 6.95994 10.3685 7.20734 10.2432 7.41307L10.2432 7.41306L10.2427 7.41387C10.1227 7.61937 9.9671 7.78341 9.77625 7.89742Z" fill="black" stroke="black" stroke-width="0.1" stroke-linecap="round" stroke-linejoin="round"/>
<path d="M11.7595 8.84793C11.7871 8.84793 11.8095 8.82555 11.8095 8.79793V7.7334C11.8095 7.70578 11.7871 7.6834 11.7595 7.6834C11.3817 7.6834 11.0308 7.75711 10.7018 7.89938C10.3738 8.04121 10.0888 8.2307 9.84732 8.47327C9.60644 8.71527 9.41487 8.99407 9.27266 9.30419L9.27265 9.30418L9.27213 9.30538C9.14588 9.60078 9.08012 9.91179 9.06917 10.2328L9.06914 10.2328V10.2345V10.2345V10.2345V10.2345V10.2345V10.2346V10.2346V10.2346V10.2346V10.2346V10.2346V10.2346V10.2346V10.2346V10.2346V10.2346V10.2346V10.2346V10.2346V10.2347V10.2347V10.2347V10.2347V10.2347V10.2347V10.2347V10.2347V10.2347V10.2348V10.2348V10.2348V10.2348V10.2348V10.2348V10.2349V10.2349V10.2349V10.2349V10.2349V10.235V10.235V10.235V10.235V10.235V10.2351V10.2351V10.2351V10.2351V10.2351V10.2352V10.2352V10.2352V10.2352V10.2353V10.2353V10.2353V10.2354V10.2354V10.2354V10.2354V10.2355V10.2355V10.2355V10.2356V10.2356V10.2356V10.2356V10.2357V10.2357V10.2357V10.2358V10.2358V10.2359V10.2359V10.2359V10.236V10.236V10.236V10.2361V10.2361V10.2361V10.2362V10.2362V10.2363V10.2363V10.2363V10.2364V10.2364V10.2365V10.2365V10.2366V10.2366V10.2366V10.2367V10.2367V10.2368V10.2368V10.2369V10.2369V10.237V10.237V10.2371V10.2371V10.2371V10.2372V10.2372V10.2373V10.2373V10.2374V10.2374V10.2375V10.2376V10.2376V10.2377V10.2377V10.2378V10.2378V10.2379V10.2379V10.238V10.238V10.2381V10.2382V10.2382V10.2383V10.2383V10.2384V10.2384V10.2385V10.2386V10.2386V10.2387V10.2388V10.2388V10.2389V10.2389V10.239V10.2391V10.2391V10.2392V10.2393V10.2393V10.2394V10.2395V10.2395V10.2396V10.2397V10.2397V10.2398V10.2399V10.2399V10.24V10.2401V10.2401V10.2402V10.2403V10.2404V10.2404V10.2405V10.2406V10.2407V10.2407V10.2408V10.2409V10.241V10.241V10.2411V10.2412V10.2413V10.2413V10.2414V10.2415V10.2416V10.2417V10.2417V10.2418V10.2419V10.242V10.2421V10.2421V10.2422V10.2423V10.2424V10.2425V10.2426V10.2426V10.2427V10.2428V10.2429V10.243V10.2431V10.2432V10.2432V10.2433V10.2434V10.2435V10.2436V10.2437V10.2438V10.2439V10.244V10.2441V10.2441V10.2442V10.2443V10.2444V10.2445V10.2446V10.2447V10.2448V10.2449V10.245V10.2451V10.2452V10.2453V10.2454V10.2455V10.2456V10.2457V10.2458V10.2459V10.246V10.2461V10.2462V10.2463V10.2464V10.2465V10.2466V10.2467V10.2468V10.2469V10.247V10.2471V10.2472V10.2473V10.2474V10.2475V10.2476V10.2477V10.2478V10.248V10.2481V10.2482V10.2483V10.2484V10.2485V10.2486V10.2487V10.2488V10.2489V10.2491V10.2492V10.2493V10.2494V10.2495V10.2496V10.2497V10.2499V10.25V10.2501V10.2502V10.2503V10.2504V10.2505V10.2507V10.2508V10.2509V10.251V10.2511V10.2513V10.2514V10.2515V10.2516V10.2517V10.2519V10.252V10.2521V10.2522V10.2524V10.2525V10.2526V10.2527V10.2529V10.253V10.2531V10.2532V10.2534V10.2535V10.2536V10.2537V10.2539V10.254V10.2541V10.2543V10.2544V10.2545V10.2547V10.2548V10.2549V10.2551V10.2552V10.2553V10.2554V10.2556V10.2557V10.2559V10.256V10.2561V10.2563V10.2564V10.2565V10.2567V10.2568V10.2569V10.2571V10.2572V10.2574V10.2575V10.2576V10.2578V10.2579V10.2581V10.2582V10.2583V10.2585V10.2586V10.2588V10.2589V10.2591V10.2592V10.2593V10.2595V10.2596V10.2598V10.2599V10.2601V10.2602V10.2604V10.2605V10.2607V10.2608V10.261V10.2611V10.2613V10.2614V10.2616V10.2617V10.2619V10.262V10.2622V10.2623V10.2625V10.2626V10.2628V10.2629V10.2631V10.2632V10.2634V10.2636V10.2637V10.2639V10.264V10.2642V10.2643V10.2645V10.2647V10.2648V10.265V10.2651V10.2653V10.2654V10.2656V10.2658V10.2659V10.2661V10.2663V10.2664V10.2666V10.2667V10.2669V10.2671V10.2672V10.2674V10.2676V10.2677V10.2679V10.2681V10.2682V10.2684V10.2686V10.2687V10.2689V10.2691V10.2692V10.2694V10.2696V10.2697V10.2699V10.2701V10.2703V10.2704V10.2706V10.2708V10.271V10.2711V10.2713V10.2715V10.2716V10.2718V10.272V10.2722V10.2723V10.2725V10.2727V10.2729V10.2731V10.2732V10.2734V10.2736V10.2738V10.2739V10.2741V10.2743V10.2745V10.2747V10.2749V10.275V10.2752V10.2754V10.2756V10.2758V10.2759V10.2761V10.2763V10.2765V10.2767V10.2769V10.2771V10.2772V10.2774V10.2776V10.2778V10.278V10.2782V10.2784V10.2786V10.2787V10.2789V10.2791V10.2793V10.2795V10.2797V10.2799V10.2801V10.2803V10.2805V10.2807V10.2808V10.281V10.2812V10.2814V10.2816V10.2818V10.282V10.2822V10.2824V10.2826V10.2828V10.283V10.2832V10.2834V10.2836V10.2838V10.284V10.2842V10.2844V10.2846V10.2848V10.285V10.2852V10.2854V10.2856V10.2858V10.286V10.2862V10.2864V10.2866V10.2868V10.287V10.2872V10.2874V10.2876V10.2878V10.288V10.2882V10.2884V10.2887V10.2889V10.2891V10.2893V10.2895V10.2897V10.2899V10.2901V10.2903V10.2905V10.2907V10.291V10.2912V10.2914C9.06914 10.319 9.09153 10.3414 9.11914 10.3414H9.26433C9.29195 10.3414 9.31433 10.319 9.31433 10.2914C9.31433 10.0415 9.37668 9.82402 9.49419 9.64727C9.61257 9.46921 9.78335 9.31931 9.99808 9.19842C10.2191 9.08219 10.4776 8.99085 10.774 8.93491C11.0718 8.8787 11.4021 8.84793 11.7595 8.84793Z" fill="black" stroke="black" stroke-width="0.1" stroke-linecap="round" stroke-linejoin="round"/>
</svg>
