<svg width="106" height="106" viewbox="0 0 106 106" fill="none" xmlns="http://www.w3.org/2000/svg">
<path d="M21.2 29.2577H84.7596" stroke="#008763" stroke-width="1.2" stroke-miterlimit="2.61313" stroke-linecap="round" stroke-linejoin="round"></path>
<path fill-rule="evenodd" clip-rule="evenodd" d="M68.2924 20.0222H68.3142C69.5122 20.0222 70.4924 21.0242 70.4924 22.2222V36.2715C70.4924 37.4695 69.5122 38.4715 68.3142 38.4715H68.2924C67.0944 38.4715 66.1142 37.4695 66.1142 36.2715V22.2222C66.1142 21.0242 67.0944 20.0222 68.2924 20.0222Z" fill="white" stroke="#008763" stroke-width="1.2" stroke-miterlimit="2.61313" stroke-linecap="round" stroke-linejoin="round"></path>
<path d="M21.2 45.0931H84.7596" stroke="#008763" stroke-width="1.2" stroke-miterlimit="2.61313" stroke-linecap="round" stroke-linejoin="round"></path>
<path fill-rule="evenodd" clip-rule="evenodd" d="M31.6119 35.8794C32.8099 35.8794 33.8119 36.8596 33.8119 38.0576V52.1069C33.8119 53.3049 32.8099 54.3069 31.6119 54.3069C30.4139 54.3069 29.4119 53.3049 29.4119 52.1069V38.0576C29.4119 36.8596 30.4139 35.8794 31.6119 35.8794Z" fill="white" stroke="#008763" stroke-width="1.2" stroke-miterlimit="2.61313" stroke-linecap="round" stroke-linejoin="round"></path>
<path d="M21.2 60.9286H84.7596" stroke="#008763" stroke-width="1.2" stroke-miterlimit="2.61313" stroke-linecap="round" stroke-linejoin="round"></path>
<path fill-rule="evenodd" clip-rule="evenodd" d="M58.752 51.7148C59.9718 51.7148 60.952 52.695 60.952 53.9148V67.9423C60.952 69.1621 59.9718 70.1423 58.752 70.1423C57.554 70.1423 56.5739 69.1621 56.5739 67.9423V53.9148C56.5739 52.695 57.554 51.7148 58.752 51.7148Z" fill="white" stroke="#008763" stroke-width="1.2" stroke-miterlimit="2.61313" stroke-linecap="round" stroke-linejoin="round"></path>
<path d="M21.2 76.764H84.7596" stroke="#008763" stroke-width="1.2" stroke-miterlimit="2.61313" stroke-linecap="round" stroke-linejoin="round"></path>
<path fill-rule="evenodd" clip-rule="evenodd" d="M75.5896 67.5503C76.7876 67.5503 77.7677 68.5305 77.7677 69.7503V83.7778C77.7677 84.9976 76.7876 85.9778 75.5896 85.9778C74.3698 85.9778 73.3896 84.9976 73.3896 83.7778V69.7503C73.3896 68.5305 74.3698 67.5503 75.5896 67.5503Z" fill="white" stroke="#008763" stroke-width="1.2" stroke-miterlimit="2.61313" stroke-linecap="round" stroke-linejoin="round"></path>
</svg>