<svg width="32" height="24" viewbox="0 0 32 24" fill="none" xmlns="http://www.w3.org/2000/svg">
                          <path d="M5.82586 10.8156L5.82793 10.8175L8.70667 13.355C9.15104 13.8918 9.90244 13.775 10.3422 13.3829L15.4229 8.85409C15.6574 8.64505 15.8087 8.37519 15.8315 8.08029C15.8541 7.78637 15.7441 7.50277 15.5256 7.30495L14.9389 6.75444C14.7144 6.4903 14.3868 6.39431 14.1194 6.39431C13.8082 6.39431 13.5317 6.5176 13.3013 6.72299L13.634 7.09623L13.3013 6.72299L9.58596 10.0348L8.07515 8.71127C7.87568 8.47283 7.59351 8.34953 7.29828 8.34953C6.9954 8.34953 6.70807 8.47701 6.47832 8.67988L5.86282 9.20109C5.59163 9.37823 5.42495 9.66294 5.42495 9.98896C5.42495 10.3151 5.59029 10.6056 5.82586 10.8156ZM3.35773 4.61546C3.35773 4.4691 3.40816 4.37815 3.4746 4.31893C3.54639 4.25494 3.67861 4.19238 3.89328 4.19238H17.3555C17.5702 4.19238 17.7024 4.25494 17.7742 4.31893C17.8406 4.37815 17.8911 4.4691 17.8911 4.61546V17.5385V17.5418V17.545V17.5483V17.5515V17.5548V17.558V17.5612V17.5644V17.5676V17.5709V17.5741V17.5773V17.5805V17.5837V17.5869V17.59V17.5932V17.5964V17.5996V17.6027V17.6059V17.6091V17.6122V17.6154V17.6185V17.6217V17.6248V17.6279V17.6311V17.6342V17.6373V17.6404V17.6435V17.6466V17.6497V17.6528V17.6559V17.659V17.6621V17.6652V17.6682V17.6713V17.6744V17.6774V17.6805V17.6835V17.6866V17.6896V17.6927V17.6957V17.6987V17.7017V17.7048V17.7078V17.7108V17.7138V17.7168V17.7198V17.7228V17.7257V17.7287V17.7317V17.7347V17.7376V17.7406V17.7435V17.7465V17.7494V17.7524V17.7553V17.7582V17.7612V17.7641V17.767V17.7699V17.7728V17.7757V17.7786V17.7815V17.7844V17.7873V17.7902V17.793V17.7959V17.7988V17.8016V17.8045V17.8073V17.8102V17.813V17.8158V17.8187V17.8215V17.8243V17.8271V17.8299V17.8327V17.8355V17.8383V17.8411V17.8439V17.8467V17.8494V17.8522V17.855V17.8577V17.8605V17.8632V17.866V17.8687V17.8714V17.8741V17.8769V17.8796V17.8823V17.885V17.8877V17.8904V17.8931V17.8958V17.8984V17.9011V17.9038V17.9064V17.9091V17.9117V17.9144V17.917V17.9197V17.9223V17.9249V17.9275V17.9302V17.9328V17.9354V17.938V17.9406V17.9431V17.9457V17.9483V17.9509V17.9534V17.956V17.9586V17.9611V17.9616H13.6217C13.1763 16.3211 11.4983 15.1058 9.58884 15.1058C7.67935 15.1058 6.00136 16.3211 5.55594 17.9616H3.89328C3.67861 17.9616 3.54639 17.8991 3.4746 17.8351C3.40816 17.7758 3.35773 17.6849 3.35773 17.5385V4.61546ZM7.69412 18.9232C7.69412 18.0799 8.49471 17.2885 9.58884 17.2885C10.683 17.2885 11.4836 18.0799 11.4836 18.9232C11.4836 19.7664 10.683 20.5578 9.58884 20.5578C8.49471 20.5578 7.69412 19.7664 7.69412 18.9232Z" stroke="black"></path>
                          <path d="M20.3479 17.8408C20.2377 17.7517 20.1855 17.6305 20.1855 17.5386V8.30784C20.1855 8.16148 20.2359 8.07054 20.3024 8.01131C20.3742 7.94732 20.5064 7.88477 20.7211 7.88477H25.3811C25.6428 7.88477 25.8021 7.94647 25.9505 8.04918C26.1181 8.16521 26.2738 8.33225 26.5225 8.59921C26.534 8.61157 26.5457 8.62415 26.5576 8.63695L28.8127 11.3937L28.8127 11.3937L28.8141 11.3953L28.8141 11.3954L28.8143 11.3956L28.8143 11.3957L28.8145 11.3958L28.8148 11.3963L28.8198 11.4024C28.8245 11.4082 28.832 11.4177 28.842 11.4304C28.8619 11.4558 28.8913 11.4942 28.927 11.5433C28.9989 11.6419 29.0944 11.7811 29.1893 11.9425C29.3915 12.2864 29.5411 12.6497 29.5411 12.9232V17.5386C29.5411 17.685 29.4906 17.7759 29.4242 17.8351C29.3524 17.8991 29.2202 17.9617 29.0055 17.9617H28.3834C27.9439 16.2409 26.2501 15.1059 24.3455 15.1059C22.4832 15.1059 20.8412 16.2618 20.3479 17.8408ZM23.407 9.82692H22.907V10.3269V12.8367V13.3367H23.407H25.8557H26.3557V12.8367C26.3557 12.5905 26.228 12.3648 26.1493 12.236C26.0581 12.0868 25.9417 11.9302 25.8437 11.7983L25.8363 11.7885L25.8135 11.7578L25.7863 11.7309L24.179 10.1442L24.1612 10.1266L24.1418 10.111L23.907 10.4018V10.4018C24.1418 10.1109 24.1417 10.1109 24.1416 10.1108L24.1414 10.1107L24.1411 10.1103L24.1402 10.1097L24.1383 10.1081L24.1333 10.1042L24.1195 10.0936C24.1086 10.0853 24.0941 10.0747 24.0766 10.0625C24.0419 10.0384 23.9931 10.0066 23.934 9.97444C23.829 9.91718 23.6351 9.82692 23.407 9.82692ZM25.3608 12.8831C25.3608 12.8831 25.3606 12.8824 25.3602 12.8811L25.3608 12.8831ZM22.4508 18.9232C22.4508 18.08 23.2514 17.2886 24.3455 17.2886C25.4396 17.2886 26.2402 18.08 26.2402 18.9232C26.2402 19.7665 25.4396 20.5578 24.3455 20.5578C23.2514 20.5578 22.4508 19.7665 22.4508 18.9232Z" stroke="black"></path>
                        </svg>