<svg width="89" height="85" viewbox="0 0 89 85" fill="none" xmlns="http://www.w3.org/2000/svg">
<g clip-path="url(#clip0_1238_1116)">
<path d="M32.097 28.0992C32.9035 28.0992 33.5573 27.4454 33.5573 26.6389C33.5573 25.8324 32.9035 25.1785 32.097 25.1785C31.2904 25.1785 30.6366 25.8324 30.6366 26.6389C30.6366 27.4454 31.2904 28.0992 32.097 28.0992Z" fill="#008763"></path>
<path d="M31.094 26.4842C31.4051 26.4842 31.6573 26.232 31.6573 25.9209C31.6573 25.6098 31.4051 25.3576 31.094 25.3576C30.7829 25.3576 30.5308 25.6098 30.5308 25.9209C30.5308 26.232 30.7829 26.4842 31.094 26.4842Z" fill="white"></path>
<path fill-rule="evenodd" clip-rule="evenodd" d="M37.9251 28.4668C39.5732 28.2269 35.5364 25.8069 35.3487 25.6713C34.4516 25.035 33.2729 24.6386 32.0107 24.576C29.1526 24.43 27.9426 25.6087 25.8981 27.2151C25.8981 27.2151 26.6595 27.1108 27.4836 28.0183C28.3077 28.9258 31.4787 30.0107 34.2325 29.3431C36.9863 28.6755 37.946 28.4773 37.946 28.4773L37.9251 28.4668Z" stroke="#008763" stroke-miterlimit="2.61313" stroke-linecap="round" stroke-linejoin="round"></path>
<mask id="mask0_1238_1116" style="mask-type:alpha" maskunits="userSpaceOnUse" x="28" y="23" width="8" height="7">
<path d="M32.0974 29.2889C33.5607 29.2889 34.7469 28.1026 34.7469 26.6394C34.7469 25.1761 33.5607 23.9899 32.0974 23.9899C30.6341 23.9899 29.4479 25.1761 29.4479 26.6394C29.4479 28.1026 30.6341 29.2889 32.0974 29.2889Z" stroke="black" stroke-miterlimit="2.61313" stroke-linecap="round" stroke-linejoin="round"></path>
</mask>
<g mask="url(#mask0_1238_1116)">
<path fill-rule="evenodd" clip-rule="evenodd" d="M37.925 28.4665C39.5731 28.2266 35.5363 25.8066 35.3485 25.671C34.4515 25.0347 33.2727 24.6383 32.0106 24.5757C29.1525 24.4297 27.9424 25.6084 25.8979 27.2148C25.8979 27.2148 26.6594 27.1105 27.4835 28.018C28.3075 28.9255 31.4786 30.0103 34.2324 29.3427C36.9862 28.6751 37.9459 28.4769 37.9459 28.4769L37.925 28.4665Z" fill="#008763" stroke="#008763" stroke-miterlimit="2.61313" stroke-linecap="round" stroke-linejoin="round"></path>
</g>
<path d="M37.543 27.4219C37.543 27.4219 37.0319 27.9539 37.2405 28.5694" stroke="#008763" stroke-miterlimit="2.61313" stroke-linecap="round" stroke-linejoin="round"></path>
<path d="M38.1597 26.6719C38.1597 26.6719 36.2925 23.4174 31.9115 23.3756C27.5304 23.3339 25.3607 26.0043 25.3607 26.0043" stroke="#008763" stroke-miterlimit="2.61313" stroke-linecap="round" stroke-linejoin="round"></path>
<path fill-rule="evenodd" clip-rule="evenodd" d="M38.7073 22.0291C38.7073 22.0291 39.4897 21.0173 37.2366 19.8385C37.2366 19.8385 29.0377 17.4081 27.1288 17.648C25.2199 17.8879 22.2262 20.2766 22.2262 20.2766C22.2262 20.2766 25.5642 18.9936 29.3819 20.0054C33.1997 21.0173 38.3214 22.4359 38.7073 22.0291V22.0291Z" stroke="#008763" stroke-miterlimit="2.61313" stroke-linecap="round" stroke-linejoin="round"></path>
<path d="M45.2519 45.6054C45.2519 45.6054 44.1775 45.6367 43.7499 45.1465C43.3118 44.6562 42.2165 44.2181 41.3507 44.2807" stroke="#008763" stroke-miterlimit="2.61313" stroke-linecap="round" stroke-linejoin="round"></path>
<path d="M40.1034 41.8483C40.1034 41.8483 38.6535 44.8837 41.6681 45.3844" stroke="#008763" stroke-miterlimit="2.61313" stroke-linecap="round" stroke-linejoin="round"></path>
<path d="M40.6749 25.5123C40.6749 25.5123 43.2827 27.828 42.7611 34.2014" stroke="#008763" stroke-miterlimit="2.61313" stroke-linecap="round" stroke-linejoin="round"></path>
<path fill-rule="evenodd" clip-rule="evenodd" d="M45.4128 51.4227C45.4128 51.4227 43.2849 50.3796 41.7828 51.2454C40.2807 52.1112 35.9935 54.26 35.9935 54.26C35.9935 54.26 37.9024 60.1118 45.4128 60.1118C52.9232 60.1118 54.8321 54.26 54.8321 54.26C54.8321 54.26 50.5449 52.1216 49.0428 51.2454C47.5408 50.3796 45.4128 51.4227 45.4128 51.4227V51.4227Z" stroke="#008763" stroke-miterlimit="2.61313" stroke-linecap="round" stroke-linejoin="round"></path>
<path d="M45.4086 54.9813C45.4086 54.9813 44.8766 54.95 44.2091 54.6788C43.5415 54.4076 40.2139 54.272 38.5971 54.6475C36.9803 55.023 36.4796 54.1259 34.748 54.1259" stroke="#008763" stroke-miterlimit="2.61313" stroke-linecap="round" stroke-linejoin="round"></path>
<path d="M15.241 25.6792C15.241 25.6792 18.7041 40.2411 20.5504 47.8245C22.4071 55.4079 22.8661 56.6805 26.9134 60.4983C30.9711 64.316 38.7422 71.5031 45.3973 71.5031" stroke="#008763" stroke-miterlimit="2.61313" stroke-linecap="round" stroke-linejoin="round"></path>
<path d="M12.7406 23.6764C12.7406 23.6764 10.5084 23.7077 11.2594 26.9518C12.0105 30.1959 14.733 34.8794 15.0772 38.353C15.4214 41.8265 16.7879 42.8488 19.2914 42.6297" stroke="#008763" stroke-miterlimit="2.61313" stroke-linecap="round" stroke-linejoin="round"></path>
<path d="M13.3114 28.5059C13.3114 28.5059 13.6765 26.9413 14.4171 27.4628C15.1577 27.9844 16.7015 32.0942 16.7015 32.0942C16.7015 32.0942 15.7106 34.1805 16.2634 34.8167C16.8163 35.453 17.8802 36.7465 17.8802 36.7465" stroke="#008763" stroke-miterlimit="2.61313" stroke-linecap="round" stroke-linejoin="round"></path>
<path d="M58.7196 28.0992C59.5262 28.0992 60.18 27.4454 60.18 26.6389C60.18 25.8324 59.5262 25.1785 58.7196 25.1785C57.9131 25.1785 57.2593 25.8324 57.2593 26.6389C57.2593 27.4454 57.9131 28.0992 58.7196 28.0992Z" fill="#008763"></path>
<path d="M57.7085 26.4842C58.0196 26.4842 58.2718 26.232 58.2718 25.9209C58.2718 25.6098 58.0196 25.3576 57.7085 25.3576C57.3975 25.3576 57.1453 25.6098 57.1453 25.9209C57.1453 26.232 57.3975 26.4842 57.7085 26.4842Z" fill="white"></path>
<path fill-rule="evenodd" clip-rule="evenodd" d="M52.8829 28.4668C51.2348 28.2269 55.2716 25.8069 55.4594 25.6713C56.3565 25.035 57.5352 24.6386 58.7973 24.576C61.6555 24.43 62.8655 25.6087 64.91 27.2151C64.91 27.2151 64.1485 27.1108 63.3244 28.0183C62.5004 28.9258 59.3293 30.0107 56.5755 29.3431C53.8217 28.6755 52.8621 28.4773 52.8621 28.4773L52.8829 28.4668Z" stroke="#008763" stroke-miterlimit="2.61313" stroke-linecap="round" stroke-linejoin="round"></path>
<mask id="mask1_1238_1116" style="mask-type:alpha" maskunits="userSpaceOnUse" x="55" y="23" width="7" height="7">
<path d="M58.7202 29.2889C60.1835 29.2889 61.3697 28.1026 61.3697 26.6394C61.3697 25.1761 60.1835 23.9899 58.7202 23.9899C57.2569 23.9899 56.0707 25.1761 56.0707 26.6394C56.0707 28.1026 57.2569 29.2889 58.7202 29.2889Z" stroke="black" stroke-miterlimit="2.61313" stroke-linecap="round" stroke-linejoin="round"></path>
</mask>
<g mask="url(#mask1_1238_1116)">
<path fill-rule="evenodd" clip-rule="evenodd" d="M52.8829 28.4665C51.2348 28.2266 55.2716 25.8066 55.4594 25.671C56.3565 25.0347 57.5352 24.6383 58.7973 24.5757C61.6555 24.4297 62.8655 25.6084 64.91 27.2148C64.91 27.2148 64.1485 27.1105 63.3244 28.018C62.5004 28.9255 59.3293 30.0103 56.5755 29.3427C53.8217 28.6751 52.8621 28.4769 52.8621 28.4769L52.8829 28.4665Z" fill="#008763" stroke="#008763" stroke-miterlimit="2.61313" stroke-linecap="round" stroke-linejoin="round"></path>
</g>
<path d="M53.27 27.4219C53.27 27.4219 53.7812 27.9539 53.5725 28.5694" stroke="#008763" stroke-miterlimit="2.61313" stroke-linecap="round" stroke-linejoin="round"></path>
<path d="M52.6431 26.6719C52.6431 26.6719 54.5102 23.4174 58.8913 23.3756C63.2724 23.3339 65.442 26.0043 65.442 26.0043" stroke="#008763" stroke-miterlimit="2.61313" stroke-linecap="round" stroke-linejoin="round"></path>
<path fill-rule="evenodd" clip-rule="evenodd" d="M52.0988 22.0291C52.0988 22.0291 51.3165 21.0173 53.5696 19.8385C53.5696 19.8385 61.7684 17.4081 63.6773 17.648C65.5862 17.8879 68.5799 20.2766 68.5799 20.2766C68.5799 20.2766 65.242 18.9936 61.4242 20.0054C57.6064 21.0173 52.4848 22.4359 52.0988 22.0291V22.0291Z" stroke="#008763" stroke-miterlimit="2.61313" stroke-linecap="round" stroke-linejoin="round"></path>
<path d="M45.5599 45.6054C45.5599 45.6054 46.6343 45.6367 47.062 45.1465C47.5001 44.6562 48.5954 44.2181 49.4612 44.2807" stroke="#008763" stroke-miterlimit="2.61313" stroke-linecap="round" stroke-linejoin="round"></path>
<path d="M50.7151 41.8483C50.7151 41.8483 52.165 44.8837 49.1504 45.3844" stroke="#008763" stroke-miterlimit="2.61313" stroke-linecap="round" stroke-linejoin="round"></path>
<path d="M50.1331 25.5123C50.1331 25.5123 47.5253 27.828 48.0469 34.2014" stroke="#008763" stroke-miterlimit="2.61313" stroke-linecap="round" stroke-linejoin="round"></path>
<path d="M45.4053 54.9813C45.4053 54.9813 45.9373 54.95 46.6049 54.6788C47.2724 54.4076 50.6 54.272 52.2168 54.6475C53.8336 55.023 54.3343 54.1259 56.0659 54.1259" stroke="#008763" stroke-miterlimit="2.61313" stroke-linecap="round" stroke-linejoin="round"></path>
<path d="M75.5698 25.6792C75.5698 25.6792 72.1066 40.2411 70.2603 47.8245C68.4036 55.4079 67.9446 56.6805 63.8974 60.4983C59.8397 64.316 52.0685 71.5031 45.4135 71.5031" stroke="#008763" stroke-miterlimit="2.61313" stroke-linecap="round" stroke-linejoin="round"></path>
<path d="M78.0739 23.6764C78.0739 23.6764 80.3062 23.7077 79.5551 26.9518C78.8041 30.1959 76.0816 34.8794 75.7374 38.353C75.3931 41.8265 74.0267 42.8488 71.5232 42.6297" stroke="#008763" stroke-miterlimit="2.61313" stroke-linecap="round" stroke-linejoin="round"></path>
<path d="M77.4924 28.5059C77.4924 28.5059 77.1273 26.9413 76.3867 27.4628C75.6461 27.9844 74.1023 32.0942 74.1023 32.0942C74.1023 32.0942 75.0933 34.1805 74.5404 34.8167C73.9876 35.453 72.9236 36.7465 72.9236 36.7465" stroke="#008763" stroke-miterlimit="2.61313" stroke-linecap="round" stroke-linejoin="round"></path>
<path fill-rule="evenodd" clip-rule="evenodd" d="M15.6805 59.914C20.8544 59.914 25.0477 54.8653 25.0477 48.6379C25.0477 54.8653 29.241 59.914 34.4148 59.914C29.241 59.914 25.0477 64.9626 25.0477 71.19C25.0477 64.9626 20.8544 59.914 15.6805 59.914Z" fill="#FFFAF1" stroke="#008763" stroke-miterlimit="2.61313" stroke-linecap="round" stroke-linejoin="round"></path>
<path fill-rule="evenodd" clip-rule="evenodd" d="M4.70581 51.9453C7.40747 51.9453 9.598 49.1393 9.598 45.6866C9.598 49.1393 11.7885 51.9453 14.4902 51.9453C11.7885 51.9453 9.598 54.7513 9.598 58.204C9.598 54.7513 7.40747 51.9453 4.70581 51.9453Z" fill="#FFFAF1" stroke="#008763" stroke-miterlimit="2.61313" stroke-linecap="round" stroke-linejoin="round"></path>
<path fill-rule="evenodd" clip-rule="evenodd" d="M62.0869 38.6064C64.536 38.6064 66.5217 36.1593 66.5217 33.1482C66.5217 36.1593 68.5074 38.6064 70.9565 38.6064C68.5074 38.6064 66.5217 41.0535 66.5217 44.0646C66.5217 41.0535 64.536 38.6064 62.0869 38.6064Z" fill="#FFFAF1" stroke="#008763" stroke-miterlimit="2.61313" stroke-linecap="round" stroke-linejoin="round"></path>
</g>
<defs>
<clippath id="clip0_1238_1116">
<rect width="88.6956" height="85" fill="white"></rect>
</clippath>
</defs>
</svg>