<svg width="112" height="112" viewbox="0 0 112 112" fill="none" xmlns="http://www.w3.org/2000/svg">
<path d="M66.3162 83.3149C63.4061 84.7931 60.1111 85.6245 56.6159 85.6245C44.7138 85.6245 35.0597 75.9704 35.0597 64.0683C35.0597 63.5602 35.0751 63.0675 35.1059 62.5747C35.1059 62.5747 33.6893 53.2902 56.6159 19.9242C77.8488 50.8266 78.2029 61.0812 78.1413 62.4208" stroke="#008763" stroke-width="1.2" stroke-miterlimit="2.61313" stroke-linecap="round" stroke-linejoin="round"></path>
<path d="M57.9247 75.8472C50.1952 75.8472 43.9439 69.5805 43.9439 61.8665" stroke="#008763" stroke-width="1.2" stroke-miterlimit="2.61313" stroke-linecap="round" stroke-linejoin="round"></path>
<path d="M27.7614 42.8507C34.3943 42.8507 39.7713 37.4737 39.7713 30.8408C39.7713 24.2079 34.3943 18.8309 27.7614 18.8309C21.1285 18.8309 15.7515 24.2079 15.7515 30.8408C15.7515 37.4737 21.1285 42.8507 27.7614 42.8507Z" stroke="#008763" stroke-width="1.2" stroke-miterlimit="2.61313" stroke-linecap="round" stroke-linejoin="round"></path>
<path d="M28.2541 36.6918C24.7589 36.6918 21.9104 33.8587 21.9104 30.3481" stroke="#008763" stroke-width="1.2" stroke-miterlimit="2.61313" stroke-linecap="round" stroke-linejoin="round"></path>
<path d="M80.7589 93.1691C89.3136 93.1691 96.2486 86.2341 96.2486 77.6794C96.2486 69.1247 89.3136 62.1897 80.7589 62.1897C72.2042 62.1897 65.2692 69.1247 65.2692 77.6794C65.2692 86.2341 72.2042 93.1691 80.7589 93.1691Z" stroke="#008763" stroke-width="1.2" stroke-miterlimit="2.61313" stroke-linecap="round" stroke-linejoin="round"></path>
<path fill-rule="evenodd" clip-rule="evenodd" d="M80.066 71.7669V70.8585C80.066 70.4581 80.2816 70.2272 80.6819 70.2272H80.8051C81.1746 70.2272 81.4056 70.4119 81.4056 70.7815V71.7207C82.2524 71.7823 83.0531 72.0748 83.746 72.5522C84.0693 72.7677 84.0847 73.0757 83.9307 73.399L83.7152 73.7993C83.4996 74.1689 83.1763 74.1997 82.8375 73.9841C82.237 73.5992 81.5596 73.3528 80.8359 73.3528C79.912 73.3528 78.865 73.8917 78.865 74.9234C78.865 77.079 84.4543 76.6632 84.4543 80.3432C84.4543 82.1601 83.1301 83.3765 81.4056 83.6074V84.4851C81.4056 84.87 81.2054 85.1164 80.8051 85.1164H80.6819C80.3124 85.1164 80.066 84.9316 80.066 84.5467V83.6074C79.0498 83.4996 78.1106 83.0993 77.3099 82.468C77.002 82.2217 76.9712 81.8983 77.2175 81.5904L77.4793 81.2208C77.7256 80.8821 78.0336 80.8821 78.3723 81.0977C79.0652 81.6212 79.9121 81.9599 80.7897 81.9599C81.7597 81.9599 82.6836 81.4364 82.6836 80.374C82.6836 78.1106 77.0943 78.4493 77.0943 74.9387C77.0943 73.2142 78.4493 71.9979 80.0814 71.7207L80.066 71.7669Z" fill="#008763"></path>
<path d="M91.4908 82.16C89.7355 86.3635 85.5937 89.3044 80.7589 89.3044" stroke="#008763" stroke-width="1.2" stroke-miterlimit="2.61313" stroke-linecap="round" stroke-linejoin="round"></path>
<path d="M88.2266 68.7644C89.3044 69.6728 90.2128 70.7661 90.9211 71.9978" stroke="#008763" stroke-width="1.2" stroke-miterlimit="2.61313" stroke-linecap="round" stroke-linejoin="round"></path>
</svg>