<svg class="american-x-logo payments-logo" xmlns="http://www.w3.org/2000/svg" width="500px" height="322px" version="1.0" style="shape-rendering:geometricPrecision; text-rendering:geometricPrecision; image-rendering:optimizeQuality; fill-rule:evenodd; clip-rule:evenodd" viewbox="0 0 937.594 603.985" xml:space="preserve" xmlns:xlink="http://www.w3.org/1999/xlink" xmlns:xodm="http://www.corel.com/coreldraw/odm/2003">
 <defs>
  <style type="text/css">
   
    .american-x-logo .fil0 {fill:#006FCF}
    .american-x-logo .fil1 {fill:white}
   
  </style>
 </defs>
 <g id="Layer_x0020_1">
  <metadata id="CorelCorpID_0Corel-Layer"></metadata>
  <path class="fil0" d="M41.428 0l854.738 0c22.786,0 41.428,18.643 41.428,41.428l0 521.129c0,22.786 -18.642,41.428 -41.428,41.428l-854.738 0c-22.785,0 -41.428,-18.642 -41.428,-41.428l0 -521.129c0,-22.785 18.643,-41.428 41.428,-41.428z"></path>
  <g id="_2348373646368">
   <path class="fil1" d="M300.961 290.61l-39.876 0.236 -0.152 0.269 -42.004 -0.058 0 0.167 -30.628 -0.162 0.008 0.126 -67.511 -0.221 -8.794 -20.398 -17.821 -0.001c-3.791,8.965 -8.821,17.507 -18.829,19.935l-2.551 0.619 -64.791 -0.225 24.48 -55.677c3.771,-8.376 7.494,-16.774 11.148,-25.202 7.311,-16.863 15.037,-33.545 22.261,-50.445l5.612 -13.128 53.949 -0.007 4.628 2.358c7.544,3.844 10.466,9.425 13.284,16.66l5.855 13.206 0.044 -32.246 78.781 0.107 5.423 13.599c1.044,2.617 2.052,5.248 3.035,7.888l7.562 -21.167 57.023 -0.155 0 -0.263 118.964 0.087 6.026 -0.051c15.684,-0.134 31.367,-0.022 47.051,-0.022 14.929,0 28.447,0.224 40.841,6.497l0 -6.15 70.141 -0.333 -0.026 12.44c12.508,-8.241 28.222,-12.365 45.402,-12.456 10.479,-0.056 20.96,-0.404 31.434,0.091l17.529 0.829 0.415 -0.937 61.611 0.105 6.178 11.068c2.583,4.627 4.322,9.451 6.491,14.241 0.918,2.027 1.834,4.056 2.747,6.085 -0.005,-4.334 0.065,-8.825 0.545,-12.584l2.418 -18.928 61.92 0.118 6.325 6.35c1.845,1.852 3.278,3.768 4.622,5.757l0.018 -12.311 69.965 0.414 -0.07 144.491 -66.183 -0.377 -9.321 -14.051 -0.043 14.431 -63.76 0.004 -0.045 -0.139 -35.155 -0.052 -5.291 -13.93c-0.759,-1.998 -1.602,-4.245 -2.5,-6.529l-18.333 0.021c-1.338,3.542 -2.829,7.025 -4.829,10.255l-6.342 10.238 -54.84 0.013c-10.862,0.83 -23.898,-0.577 -33.882,-3.66 -6.461,-1.996 -12.215,-4.797 -17.279,-8.253l-0.024 11.573 -29.474 0 0.082 0.337 -27.483 0c-9.191,0 -18.381,-0.032 -27.566,0.002 -8.055,0.077 -14.036,-0.573 -20.447,-6.213l-1.074 -0.945 -3.301 -3.785 -0.057 10.941 -47.337 0 -0.001 0.008 -15.297 -0.008 -7.367 0 0 -0.003 -103.534 -0.05 0 -0.444zm343.125 -65.743l5.013 -11.303c-2.29,-0.051 -4.578,-0.119 -6.852,-0.169 -3.956,-0.087 -11.101,-0.429 -14.883,0.418 -3.359,0.751 -2.152,7.89 -0.795,10.429 3.394,1.106 13.133,0.758 17.517,0.625zm-475.797 232.379c-0.461,-0.062 -0.921,-0.139 -1.38,-0.231l-12.195 -1.348 -3.241 -10.63c-1.534,-3.147 -2.417,-6.724 -2.623,-10.499l-0.033 -0.608 0.043 -23.133c0.024,-12.419 -0.12,-24.853 -0.17,-37.272 -0.032,-8.279 -0.057,-16.559 -0.02,-24.837 0.024,-5.192 -0.09,-10.877 0.352,-16.037l1.288 -15.052 14.575 -3.974c5.085,-1.386 14.33,-1.131 19.725,-1.191 9.676,-0.109 19.356,-0.129 29.032,-0.122 9.769,0.007 19.542,0.042 29.311,0.157 3.867,0.046 9.692,-0.079 14.657,0.404l40.186 -0.088 1.877 0.33c8.505,1.49 16.467,9.884 23.671,18.614l4.862 -5.615 0.13 -0.144c3.87,-4.312 5.95,-7.661 11.602,-10.529 7.213,-3.661 13.253,-2.685 20.778,-2.685 7.944,0 15.869,-0.309 23.814,0.079l3.327 0.162c10.478,-0.871 23.135,-0.354 33.664,-0.334 7.001,0.013 14.004,0.047 21.004,0.135 4.326,0.054 9.135,-0.015 13.427,0.406 6.658,0.653 12.939,2.353 18.66,4.964l0 -4.022 20.314 -1.242c19.318,-1.181 40.015,-0.152 59.494,-0.148 11.485,0.003 22.488,2.613 31.804,7.77l1.629 -7.772 124.948 -0.298 0.046 5.337c0.564,-0.244 1.136,-0.478 1.713,-0.706 15.887,-6.246 43.836,-4.331 61.43,-4.331 6.97,0 13.952,-0.532 20.909,0.239l20.591 2.285 -0.048 0.708c12.913,-4.106 25.86,-3.232 39.309,-3.232 12.833,0 25.673,-0.578 38.502,0.081l21.345 1.098 -0.84 21.357c-0.243,6.193 -7.96,23.321 -12.206,31.153 2.22,2.141 4.258,4.53 6.077,7.177 8.433,12.262 10.339,28.714 6.794,42.976 -4.326,17.397 -16.358,31.013 -33.34,37.001 -13.491,4.757 -27.038,3.854 -41.016,3.854 -12.568,0 -25.17,0.686 -37.725,-0.136l-20.184 -1.321 -0.005 -2.553c-7.072,2.742 -14.817,4.133 -22.846,4.133 -18.592,0 -37.217,0.384 -55.802,-0.043l-3.928 -0.09 -79.991 -0.065 0.023 0.198 -24.301 0c-8.958,0 -17.915,-0.008 -26.872,0 -14.157,0.011 -19.089,-3.458 -25.456,-10.669l-0.023 3.864 -14.28 5.09c-6.778,2.417 -29.048,2.083 -36.805,1.225l-19.255 -2.129 -0.001 -36.193c-0.678,0.315 -1.365,0.617 -2.062,0.906 -10.067,4.18 -21.113,4.823 -31.882,4.675 -0.945,-0.013 -1.949,-0.043 -2.992,-0.083l-0.105 33.194 -28.289 -0.004 0.013 0.124 -60.028 0 -1.783 -0.301c-10.211,-1.719 -18.07,-12.262 -24.726,-20.333 -4.061,4.976 -9.06,11.192 -12.995,14.522 -8.252,6.98 -15.723,6.126 -25.223,5.989 -8.018,0 -16.032,0.155 -24.05,-0.042l-2.766 -0.068c-1.848,0.2 -3.803,0.26 -5.889,0.239l-82.611 -0.108 -0.939 -0.228z"></path>
  </g>
  <g id="_2348373644256">
   <path class="fil0" d="M778.116 269.599l26.413 -0.002 0.191 -63.489c1.872,1.27 4.252,5.67 5.49,7.541l36.905 55.633 32.907 0.188 0.049 -101.23 -26.72 -0.158 -0.085 61.136 -1.574 -1.523c-0.436,-0.602 -0.794,-1.277 -1.247,-1.97l-33.421 -50.063c-1.501,-2.258 -3.538,-5.81 -5.243,-7.521l-33.877 -0.065c-0.744,5.831 -0.314,99.884 0.212,101.523zm-351.962 -0.125l26.823 0 0.184 -35.118c1.935,-0.646 4.19,-0.348 6.221,-0.367 5.452,-0.053 4.23,0.671 11.63,9.161 4.485,5.145 8.13,9.432 12.802,14.721l9.404 10.783c1.46,1.284 3.635,0.83 6.075,0.822 9.214,-0.034 18.434,-0.002 27.649,-0.002 -0.687,-2.838 -32.189,-34.458 -32.527,-36.717 2.367,-1.134 8.335,-1.472 15.485,-7.298 3.271,-2.665 7.687,-8.17 9.464,-13.94 4.533,-14.722 -0.208,-27.098 -8.613,-34.72 -9.689,-8.787 -21.423,-8.727 -37.613,-8.727 -15.61,0 -31.262,-0.112 -46.866,0.021l-0.118 101.381zm27.094 -58.089l-0.095 -19.007c0.001,-2.145 7.243,-1.279 11.267,-1.279 6.007,0 19.27,-0.814 24.044,1.538 6.997,3.447 10.521,19.016 -9.359,18.972 -5.907,-0.013 -21.032,0.738 -25.857,-0.224zm-103.088 -20.212l58.148 -0.08 0.092 -22.957 -85.691 -0.063 -0.095 101.358 85.641 0.042c0.354,-2.62 0.738,-24.879 -0.511,-22.722l-2.957 -0.285c-1.229,0.004 -2.46,0.022 -3.691,0.022 -13.174,0.004 -41.27,0.603 -50.95,-0.035l-0.205 -15.785 56.955 -0.159 0.236 -23.422 -57.07 -0.176 0.098 -15.738zm-309.056 78.206l29.15 0.101c1.485,-0.36 8.149,-18.019 9.293,-20.546l46.688 0.003 8.814 20.444 30.209 0.098c-0.151,-2.382 -29.757,-68.419 -33.3,-76.399l-8.457 -19.075c-0.784,-1.755 -1.567,-5.085 -3.231,-5.933l-34.477 0.004c-7.187,16.813 -14.795,33.224 -22.306,50.548 -3.638,8.391 -7.53,17.17 -11.268,25.476l-11.115 25.279zm48.026 -42.649c0.019,-2.028 12.759,-32.093 13.924,-33.637 1.916,4.349 13.695,31.697 13.8,33.565l-2.091 0.017 -23.861 -0.01 -1.772 0.065zm559.233 42.744l29.43 -0.006c3.307,-5.34 5.574,-15.806 8.834,-20.48l46.573 -0.054c1.787,2.617 7.56,17.049 8.869,20.497l30.215 0.045c-0.168,-2.22 -34.202,-78.486 -38.836,-88.716 -1.863,-4.115 -3.667,-9.028 -5.674,-12.624l-34.839 -0.059 -33.553 75.662c-1.9,4.208 -10.822,23.423 -11.019,25.735zm47.582 -42.904c0.022,-0.252 12.436,-31.321 13.968,-32.948l1.272 2.113c0.294,0.663 0.511,1.236 0.792,1.925 0.63,1.541 1.182,2.809 1.751,4.19 1.192,2.891 2.255,5.501 3.516,8.422 1.15,2.662 6.422,14.445 6.665,16.399l-27.964 -0.101zm-60.499 42.765c1.603,-3.549 10.176,-20.412 10.342,-22.874 -11.908,0.251 -24.789,1.155 -32.887,-5.269 -12.498,-9.915 -15.026,-42.953 9.742,-48.491 9.184,-2.054 26.466,-0.274 37.123,-0.818l0.143 -23.747c-9.768,-0.461 -20.565,-0.119 -30.298,-0.067 -25.466,0.137 -47.547,10.893 -51.976,39.316 -4.112,26.384 5.222,51.782 29.869,59.395 7.309,2.258 19.055,3.635 27.942,2.555zm-73.005 -101.146l-26.829 0.127 0.004 100.821 26.613 0 0.212 -100.948zm-288.77 31.767c0.22,-1.752 0.405,-1.412 0.981,-2.788 1.187,1.239 1.015,2.233 0.987,4.384l-0.018 67.575 25.937 -0.154 0.164 -100.654 -42.39 0.115 -22.522 63.045 -11.811 -31.419c-3.866,-10.736 -7.505,-21.621 -11.615,-31.924l-42.508 -0.058 -0.137 101.257 26.584 0.141 0.091 -72.087c2.246,2.822 23.592,65.807 26.999,72.042l23.88 0.034c1.47,-2.611 25.066,-67.455 25.378,-69.509z"></path>
   <path class="fil0" d="M564.676 398.776c7.951,-0.803 16.942,-7.486 20.172,-12.052 14.048,-19.862 5.674,-52.328 -30.433,-52.335 -13.352,-0.003 -47.124,-0.567 -58.169,0.108l0.003 101.087c3.801,0.421 25.07,0.647 27.165,-0.1l0.207 -35.193c8.322,-0.079 8.93,-0.923 11.532,2.219l19.215 22.083c10.487,12.224 7.895,11.357 16.05,11.35 8.963,-0.008 17.927,0 26.89,0 -0.196,-1.675 -14.661,-16.609 -16.224,-18.328 -1.977,-2.175 -15.904,-16.072 -16.408,-18.839zm-41.141 -41.299c8.44,0 16.878,0.021 25.316,0.005 7.998,-0.014 15.112,1.845 15.126,10.22 0.014,8.459 -6.993,10.105 -15.126,10.09 -8.409,-0.015 -16.82,-0.001 -25.413,-0.001l0.097 -20.314zm82.47 78.256l85.024 0.068c0.069,-0.115 0.13,-0.272 0.161,-0.371 0.032,-0.098 0.112,-0.254 0.147,-0.379l0.261 -2.165c0.063,-3.982 0.165,-18.564 -0.329,-20.462l-58.503 -0.004 0.024 -15.55 57.273 -0.089 -0.171 -23.457 -57.146 -0.013 0.245 -15.536c7.311,0 55.626,0.496 58.56,-0.305l-0.199 -23.33 -85.922 0.205c-0.869,4.148 -0.158,81.324 -0.257,95.765 -0.028,4.036 -0.633,4.683 0.832,5.623zm178.061 -78.309c1.041,-1.604 10.391,-22.092 10.448,-22.927 -5.144,-0.571 -13.078,-0.108 -18.524,-0.108 -14.254,0 -42.724,-1.412 -53.514,2.831 -15.34,6.031 -22.151,20.678 -19.009,36.62 1.093,5.549 3.061,8.748 6.184,12.476 10.493,12.528 29.097,10.279 46.149,10.26 6.317,-0.007 11.663,0.167 13.345,5.489 1.866,5.902 -2.283,10.19 -7.354,10.569 -11.501,0.858 -47.226,-0.845 -55.842,0.169l0.053 23.103c16.83,0.387 38.003,0.037 55.305,0.037 40.535,0 45.529,-48.448 19.423,-59.195 -21.32,-8.777 -50.913,4.223 -50.844,-11.34 0.032,-7.207 6.404,-7.935 13.065,-7.923 13.287,0.023 27.994,0.58 41.115,-0.061zm99.758 -0.026c1.467,-2.466 10.275,-21.872 10.318,-22.956 -11.888,-0.612 -25.331,-0.053 -37.391,-0.053 -12.072,0 -24.596,-0.957 -34.638,2.872 -22.107,8.428 -24.531,35.43 -13.067,48.793 10.984,12.803 28.318,10.531 45.869,10.522 6.598,-0.003 11.669,-0.215 13.766,5.122 2.201,5.598 -1.821,10.376 -6.916,10.912 -6.415,0.675 -45.103,-0.238 -56.053,0.098l0.042 23.023c11.268,0.737 24.798,0.089 36.313,0.089 11.63,0 23.95,0.858 33.822,-2.623 22.143,-7.807 24.658,-34.605 15.915,-47.318 -4.755,-6.914 -12.955,-11.376 -24.041,-12.129 -7.468,-0.508 -30.068,1.321 -34.599,-1.728 -3.909,-2.63 -5.329,-8.69 -0.966,-12.362 3.619,-3.046 9.958,-2.174 15.835,-2.174 11.314,0 24.738,0.656 35.791,-0.088zm-587.886 -22.976l-34.047 0.075c0.217,1.246 19.38,22.237 21.778,24.91 4.425,4.932 7.687,8.715 11.251,12.603 1.759,1.919 10.201,10.953 10.811,12.672 -1.784,3.477 -43.522,48.068 -44.706,51.103 7.773,0.191 15.727,0.035 23.519,0.035 3.21,0 9.133,0.919 11.251,-0.872 1.758,-1.487 24.699,-29.259 26.835,-30.932 1.661,0.737 11.8,13.309 14.184,16.037 1.602,1.834 12.996,15.676 14.266,15.89l34.231 0c-0.16,-1.547 -9.3,-11.225 -10.928,-13.075 -3.904,-4.437 -7.175,-8.242 -11.397,-12.914l-17.002 -19.254c-1.685,-1.925 -4.525,-4.678 -5.616,-6.478 0.516,-1.966 9.115,-10.962 10.733,-12.822 2.43,-2.791 32.26,-35.308 32.374,-36.958 -7.309,-0.357 -15.368,-0.053 -22.759,-0.053 -13.386,0 -9.498,-1.527 -16.282,6.031l-15.97 18.443c-0.949,1.073 -1.698,1.994 -2.533,2.968 -1.34,1.565 -1.457,2.011 -2.842,2.817 -4.688,-4.083 -24.686,-29.794 -27.151,-30.226zm120.176 68.421c13.024,-1.886 34.415,2.549 48.143,-3.152 31.256,-12.98 26.178,-61.367 -10.417,-64.958 -5.229,-0.512 -59.391,-0.609 -64.708,-0.133l-0.028 101.216 26.906 0.004 0.104 -32.977zm0.089 -23.217l-0.125 -22.053c8.184,-0.581 18.056,-0.081 26.316,-0.091 7.961,-0.009 14.972,1.997 15.072,11.138 0.102,9.387 -7.467,11.087 -15.072,11.073 -8.508,-0.015 -17.783,0.359 -26.191,-0.067zm-218.372 17.695c4.311,-1.686 47.71,0.872 57.512,-0.542 0.492,-3.086 0.634,-20.529 -0.06,-23.11 -2.479,-0.936 -50.245,-0.358 -57.226,-0.358l0.187 -15.634c5.588,0.415 56.395,0.531 58.651,-0.29l-0.173 -22.891c-1.963,-0.666 -83.197,-0.804 -86.146,0 -0.612,7.155 -0.083,64.168 -0.083,76.341l-0.042 22.523c0.142,2.594 0.373,1.861 0.614,2.117 0.697,0.72 -0.838,-0.022 0.765,0.367l80.142 0.105c3.222,0.038 3.581,0.353 4.398,-0.624 0.905,-1.235 0.488,-19.316 0.316,-22.362 -3.51,-0.959 -46.47,-0.221 -56.174,-0.23 -2.425,-0.002 -2.481,0.44 -2.656,-1.835 -0.223,-2.881 0.372,-9.161 -0.025,-13.577z"></path>
  </g>
 </g>
</svg>