<svg width="44" height="36" viewbox="0 0 44 36" fill="none" xmlns="http://www.w3.org/2000/svg">
<path fill-rule="evenodd" clip-rule="evenodd" d="M17.3085 30.7887C18.6374 31.4598 20.1388 31.838 21.7287 31.838H21.7365H21.7442C23.3342 31.838 24.8355 31.4598 26.1645 30.7887L26.1621 30.7817C29.3598 29.1615 31.5517 25.8442 31.5517 22.0143C31.5517 21.7852 31.5424 21.5591 31.5276 21.3347H31.5284C31.5284 21.3347 31.5315 21.3114 31.5338 21.264L31.5493 21.2609C31.5789 20.6488 31.4212 15.9809 21.7442 1.89844L21.7365 1.90931L21.7287 1.89844C12.0518 15.9809 11.8941 20.6488 11.9236 21.2609L11.9391 21.264C11.9415 21.3114 11.9446 21.3347 11.9446 21.3347H11.9453C11.9298 21.5591 11.9213 21.7852 11.9213 22.0143C11.9213 25.8442 14.1131 29.1615 17.3108 30.7817L17.3085 30.7887Z" fill="white" stroke="black" stroke-width="0.7" stroke-miterlimit="2.61313" stroke-linecap="round" stroke-linejoin="round"></path>
<path d="M21.5624 28.2064C18.0432 28.2064 15.1896 25.3527 15.1896 21.8335" stroke="black" stroke-width="0.7" stroke-miterlimit="2.61313" stroke-linecap="round" stroke-linejoin="round"></path>
<path d="M36.5 17.5C35.1192 17.5 34 16.3804 34 15" stroke="black" stroke-width="0.7" stroke-miterlimit="2.61313" stroke-linecap="round" stroke-linejoin="round"></path>
<path fill-rule="evenodd" clip-rule="evenodd" d="M34.6466 18.4566C35.0525 18.676 35.5117 18.8 35.9975 18.8H36.0002H36.0029C36.4888 18.8 36.9479 18.676 37.3539 18.4566L37.3528 18.4543C38.3299 17.9241 38.9999 16.8381 38.9999 15.5845C38.9999 15.5095 38.9972 15.4356 38.9923 15.3622H38.9928C38.9928 15.3622 38.9939 15.3547 38.9945 15.339L38.9994 15.3378C39.0086 15.1376 38.9602 13.6093 36.0024 9L36.0002 9.00349L35.998 9C33.0402 13.6099 32.9918 15.1376 33.0011 15.3378L33.006 15.339C33.0065 15.3547 33.0076 15.3622 33.0076 15.3622C33.0027 15.4356 33 15.5101 33 15.5845C33 16.8381 33.67 17.9241 34.6471 18.4543L34.646 18.4566H34.6466Z" stroke="black" stroke-width="0.7" stroke-miterlimit="2.61313" stroke-linecap="round" stroke-linejoin="round"></path>
<path d="M8.37482 33.2142C7.1422 33.2142 6.14258 32.2146 6.14258 30.9819" stroke="black" stroke-width="0.7" stroke-miterlimit="2.61313" stroke-linecap="round" stroke-linejoin="round"></path>
<path fill-rule="evenodd" clip-rule="evenodd" d="M6.88506 34.1189C7.35031 34.3535 7.87613 34.4863 8.43381 34.4863H8.43691H8.44002C8.99692 34.4863 9.52275 34.3535 9.98799 34.1189L9.98722 34.1166C11.1072 33.5488 11.8754 32.3869 11.8754 31.0455C11.8754 30.9655 11.8723 30.8863 11.8668 30.8078C11.8668 30.8078 11.8684 30.8 11.8692 30.783L11.8746 30.7822C11.8847 30.5678 11.8296 28.9328 8.44002 24L8.43769 24.0039L8.43536 24C5.04583 28.9328 4.99068 30.5678 5.00078 30.7822L5.00621 30.783C5.00699 30.7993 5.00854 30.8078 5.00854 30.8078C5.00311 30.8863 5 30.9655 5 31.0455C5 32.3869 5.76816 33.5488 6.88817 34.1166L6.88739 34.1189H6.88506Z" stroke="black" stroke-width="0.7" stroke-miterlimit="2.61313" stroke-linecap="round" stroke-linejoin="round"></path>
<path fill-rule="evenodd" clip-rule="evenodd" d="M10.1326 17.4293C10.7128 17.7221 11.3691 17.8875 12.0635 17.8875H12.0674H12.0712C12.7656 17.8875 13.4219 17.7221 14.0021 17.4293L14.0006 17.4261C15.3971 16.7186 16.3548 15.2692 16.3548 13.5962C16.3548 13.496 16.3509 13.3974 16.3439 13.2995H16.3447C16.3447 13.2995 16.3462 13.2894 16.347 13.2685L16.354 13.2669C16.3672 12.9997 16.2981 10.9601 12.0705 4.80859L12.0674 4.81325L12.0642 4.80859C7.83665 10.9609 7.76752 12.9997 7.78073 13.2669L7.78772 13.2685C7.7885 13.2894 7.79005 13.2995 7.79005 13.2995C7.78306 13.3974 7.77917 13.4968 7.77917 13.5962C7.77917 15.2692 8.73685 16.7186 10.1334 17.4261L10.1318 17.4293H10.1326Z" fill="white" stroke="black" stroke-width="0.7" stroke-miterlimit="2.61313" stroke-linecap="round" stroke-linejoin="round"></path>
<path d="M11.9904 16.3013C10.4525 16.3013 9.20593 15.0547 9.20593 13.5176" stroke="black" stroke-width="0.7" stroke-miterlimit="2.61313" stroke-linecap="round" stroke-linejoin="round"></path>
<path d="M31.585 30.778C33.3382 30.778 34.7594 29.3568 34.7594 27.6036C34.7594 25.8504 33.3382 24.4292 31.585 24.4292C29.8319 24.4292 28.4106 25.8504 28.4106 27.6036C28.4106 29.3568 29.8319 30.778 31.585 30.778Z" fill="white" stroke="black" stroke-width="0.7" stroke-miterlimit="2.61313" stroke-linecap="round" stroke-linejoin="round"></path>
<path d="M3.82802 20.1892C5.21057 20.1892 6.33134 19.0685 6.33134 17.6859C6.33134 16.3034 5.21057 15.1826 3.82802 15.1826C2.44548 15.1826 1.32471 16.3034 1.32471 17.6859C1.32471 19.0685 2.44548 20.1892 3.82802 20.1892Z" fill="white" stroke="black" stroke-width="0.7" stroke-miterlimit="2.61313" stroke-linecap="round" stroke-linejoin="round"></path>
<path d="M41.7499 19.572C42.5597 19.572 43.2163 18.9155 43.2163 18.1056C43.2163 17.2957 42.5597 16.6392 41.7499 16.6392C40.94 16.6392 40.2834 17.2957 40.2834 18.1056C40.2834 18.9155 40.94 19.572 41.7499 19.572Z" fill="white" stroke="black" stroke-width="0.7" stroke-miterlimit="2.61313" stroke-linecap="round" stroke-linejoin="round"></path>
<path d="M27.6729 5.53029C28.8791 5.53029 29.857 4.55244 29.857 3.3462C29.857 2.13996 28.8791 1.16211 27.6729 1.16211C26.4666 1.16211 25.4888 2.13996 25.4888 3.3462C25.4888 4.55244 26.4666 5.53029 27.6729 5.53029Z" fill="white" stroke="black" stroke-width="0.7" stroke-miterlimit="2.61313" stroke-linecap="round" stroke-linejoin="round"></path>
<path d="M37.707 29.758C38.5169 29.758 39.1734 29.1015 39.1734 28.2916C39.1734 27.4817 38.5169 26.8252 37.707 26.8252C36.8971 26.8252 36.2406 27.4817 36.2406 28.2916C36.2406 29.1015 36.8971 29.758 37.707 29.758Z" fill="white" stroke="black" stroke-width="0.7" stroke-miterlimit="2.61313" stroke-linecap="round" stroke-linejoin="round"></path>
<path d="M14.1869 35.2878C14.9968 35.2878 15.6533 34.6313 15.6533 33.8214C15.6533 33.0115 14.9968 32.355 14.1869 32.355C13.377 32.355 12.7205 33.0115 12.7205 33.8214C12.7205 34.6313 13.377 35.2878 14.1869 35.2878Z" fill="white" stroke="black" stroke-width="0.7" stroke-miterlimit="2.61313" stroke-linecap="round" stroke-linejoin="round"></path>
</svg>