<svg width="49" height="48" viewbox="0 0 49 48" fill="none" xmlns="http://www.w3.org/2000/svg">
<circle opacity="0.9" cx="24" cy="24" r="23" fill="black"></circle>
<path d="M17.4785 23.462C17.6185 24.1993 18.0478 24.568 18.7665 24.568C19.2612 24.568 19.6112 24.3487 19.8165 23.91C20.0218 23.4713 20.1245 22.7573 20.1245 21.768C19.9192 22.0573 19.6392 22.2813 19.2845 22.44C18.9298 22.5987 18.5332 22.678 18.0945 22.678C17.4972 22.678 16.9652 22.5567 16.4985 22.314C16.0318 22.062 15.6632 21.6933 15.3925 21.208C15.1312 20.7133 15.0005 20.116 15.0005 19.416C15.0005 18.7253 15.1405 18.1233 15.4205 17.61C15.7098 17.0967 16.1158 16.7 16.6385 16.42C17.1705 16.14 17.7958 16 18.5145 16C19.8958 16 20.8618 16.4293 21.4125 17.288C21.9632 18.1467 22.2385 19.4113 22.2385 21.082C22.2385 22.2953 22.1265 23.2987 21.9025 24.092C21.6878 24.876 21.3192 25.4733 20.7965 25.884C20.2832 26.2947 19.5785 26.5 18.6825 26.5C17.9732 26.5 17.3665 26.36 16.8625 26.08C16.3678 25.8 15.9852 25.4313 15.7145 24.974C15.4532 24.5167 15.3038 24.0127 15.2665 23.462H17.4785ZM18.6405 20.788C19.0325 20.788 19.3452 20.6713 19.5785 20.438C19.8118 20.1953 19.9285 19.8687 19.9285 19.458C19.9285 19.01 19.8072 18.6647 19.5645 18.422C19.3218 18.1793 18.9952 18.058 18.5845 18.058C18.1738 18.058 17.8472 18.184 17.6045 18.436C17.3712 18.6787 17.2545 19.0147 17.2545 19.444C17.2545 19.8453 17.3712 20.172 17.6045 20.424C17.8472 20.6667 18.1925 20.788 18.6405 20.788Z" fill="white"></path>
<path d="M23.5158 21.208C23.5158 19.6027 23.8238 18.338 24.4398 17.414C25.0651 16.49 26.0684 16.028 27.4498 16.028C28.8311 16.028 29.8298 16.49 30.4458 17.414C31.0711 18.338 31.3838 19.6027 31.3838 21.208C31.3838 22.832 31.0711 24.106 30.4458 25.03C29.8298 25.954 28.8311 26.416 27.4498 26.416C26.0684 26.416 25.0651 25.954 24.4398 25.03C23.8238 24.106 23.5158 22.832 23.5158 21.208ZM29.0318 21.208C29.0318 20.2653 28.9291 19.542 28.7238 19.038C28.5184 18.5247 28.0938 18.268 27.4498 18.268C26.8058 18.268 26.3811 18.5247 26.1758 19.038C25.9704 19.542 25.8678 20.2653 25.8678 21.208C25.8678 21.8427 25.9051 22.37 25.9798 22.79C26.0544 23.2007 26.2038 23.5367 26.4278 23.798C26.6611 24.05 27.0018 24.176 27.4498 24.176C27.8978 24.176 28.2338 24.05 28.4578 23.798C28.6911 23.5367 28.8451 23.2007 28.9198 22.79C28.9944 22.37 29.0318 21.8427 29.0318 21.208Z" fill="white"></path>
<path d="M16.6215 29.0556C17.0778 29.0556 17.4765 29.1372 17.8176 29.3004C18.1588 29.4636 18.4219 29.6936 18.6068 29.9903C18.7959 30.2833 18.8904 30.6226 18.8904 31.0083C18.8904 31.3904 18.7959 31.7297 18.6068 32.0264C18.4219 32.3231 18.1568 32.5531 17.8115 32.7163C17.4703 32.8795 17.0737 32.9611 16.6215 32.9611H15V29.0556H16.6215ZM16.5537 32.1377C16.9524 32.1377 17.2627 32.0394 17.4847 31.8428C17.7067 31.6463 17.8176 31.3681 17.8176 31.0083C17.8176 30.6486 17.7067 30.3686 17.4847 30.1683C17.2627 29.968 16.9524 29.8679 16.5537 29.8679H16.0543V32.1377H16.5537Z" fill="white"></path>
<path d="M22.4052 32.2712H20.7898L20.5309 32.9611H19.4272L20.9933 29.0556H22.2141L23.7801 32.9611H22.6641L22.4052 32.2712ZM22.1339 31.5369L21.5975 30.1071L21.0673 31.5369H22.1339Z" fill="white"></path>
<path d="M28.1996 29.0556L26.7014 31.6704V32.9611H25.647V31.6704L24.1488 29.0556H25.3449L26.1835 30.6912L27.0158 29.0556H28.1996Z" fill="white"></path>
<path d="M30.4216 33C30.1051 33 29.8215 32.9536 29.5708 32.8609C29.3201 32.7682 29.1186 32.631 28.9666 32.4492C28.8186 32.2675 28.7405 32.0487 28.7323 31.7928H29.8544C29.8708 31.9374 29.9263 32.0487 30.0209 32.1266C30.1154 32.2007 30.2387 32.2378 30.3908 32.2378C30.547 32.2378 30.6703 32.2063 30.7607 32.1433C30.8512 32.0765 30.8964 31.9856 30.8964 31.8707C30.8964 31.7742 30.8594 31.6945 30.7854 31.6314C30.7155 31.5684 30.6271 31.5165 30.5203 31.4757C30.4175 31.4349 30.2695 31.3885 30.0764 31.3366C29.7969 31.2587 29.5687 31.1808 29.392 31.1029C29.2152 31.025 29.0632 30.9101 28.9357 30.758C28.8083 30.6059 28.7446 30.4075 28.7446 30.1627C28.7446 29.7993 28.8905 29.5155 29.1824 29.3115C29.4742 29.1038 29.8544 29 30.323 29C30.7998 29 31.1841 29.1038 31.4759 29.3115C31.7678 29.5155 31.924 29.8011 31.9445 30.1683H30.8039C30.7957 30.0422 30.7443 29.9439 30.6497 29.8734C30.5552 29.7993 30.434 29.7622 30.286 29.7622C30.1586 29.7622 30.0558 29.7937 29.9777 29.8567C29.8996 29.9161 29.8606 30.0032 29.8606 30.1182C29.8606 30.2443 29.9263 30.3426 30.0579 30.4131C30.1894 30.4835 30.3949 30.5596 30.6744 30.6412C30.9539 30.7265 31.18 30.8081 31.3526 30.886C31.5294 30.9638 31.6814 31.077 31.8089 31.2253C31.9363 31.3737 32 31.5647 32 31.7983C32 32.0209 31.9363 32.223 31.8089 32.4047C31.6856 32.5865 31.5047 32.7311 31.2663 32.8387C31.0279 32.9462 30.7463 33 30.4216 33Z" fill="white"></path>
</svg>