<svg class="mastercard-logo payments-logo" xmlns="http://www.w3.org/2000/svg" width="500px" height="323px" version="1.0" style="shape-rendering:geometricPrecision; text-rendering:geometricPrecision; image-rendering:optimizeQuality; fill-rule:evenodd; clip-rule:evenodd" viewbox="0 0 49.345 31.849" xml:space="preserve" xmlns:xlink="http://www.w3.org/1999/xlink" xmlns:xodm="http://www.corel.com/coreldraw/odm/2003">
 <defs>
  <style type="text/css">
   
    .mastercard-logo .str0 {stroke:#999999;stroke-width:0.172;stroke-linecap:round;stroke-linejoin:round;stroke-miterlimit:2.61313}
    .mastercard-logo .fil9 {fill:none}
    .mastercard-logo .fil4 {fill:#000066}
    .mastercard-logo .fil6 {fill:#CB0000}
    .mastercard-logo .fil0 {fill:#CD0000}
    .mastercard-logo .fil7 {fill:#FCB340}
    .mastercard-logo .fil8 {fill:#FEE2B8}
    .mastercard-logo .fil5 {fill:#FF9800}
    .mastercard-logo .fil1 {fill:#FF9A00}
    .mastercard-logo .fil3 {fill:#FFFEFE}
    .mastercard-logo .fil2 {fill:white}
   
  </style>
 </defs>
 <g id="Layer_x0020_1">
  <metadata id="CorelCorpID_0Corel-Layer"></metadata>
  <g id="_2348423778000">
   <path class="fil0" d="M21.256 15.321l-0.052 0.405 -0.467 -0.001c-0.061,0.461 -0.151,0.935 -0.225,1.393 -0.034,0.209 -0.124,0.503 0.027,0.637 0.152,0.135 0.427,0.103 0.646,0.07 -0.097,-0.878 -0.023,-1.556 0.401,-2.315 0.063,-0.112 0.297,-0.461 0.413,-0.527 0.035,-0.043 0.066,-0.091 0.103,-0.139 0.249,-0.323 0.546,-0.573 0.948,-0.723 0.491,-0.182 1.193,-0.098 1.579,0.157 0.422,0.278 0.645,0.667 0.725,1.192 0.048,0.311 0.02,0.562 -0.026,0.869 -0.112,0.739 -0.067,0.611 -0.325,0.614l-0.065 0.382 -2.216 -0.006c0.099,0.431 0.528,0.601 1.034,0.611 0.382,0.008 0.707,-0.079 1.053,-0.189 0.106,-0.033 0.202,-0.081 0.304,-0.106l-0.216 1.187 -0.193 0.069 -0.052 0.288c-0.2,0.118 -0.792,0.191 -1.064,0.207 -0.395,0.023 -0.804,0.004 -1.16,-0.111 -0.304,-0.097 -0.574,-0.257 -0.788,-0.484 -0.082,-0.087 -0.186,-0.242 -0.255,-0.375 -0.12,-0.23 -0.122,-0.354 -0.172,-0.457 -0.045,0.083 -0.118,0.744 -0.144,0.903l-0.28 0.08c-0.005,0.054 -0.014,0.105 -0.021,0.158 -0.005,0.033 -0.011,0.114 -0.036,0.136 -0.002,0.002 -1.41,0.541 -1.796,-0.349 -0.101,-0.235 -0.096,-0.432 -0.089,-0.698 -0.032,0.04 -0.053,0.09 -0.08,0.135 -0.134,0.22 -0.242,0.261 -0.3,0.325 -0.077,0.188 -0.317,0.385 -0.5,0.485 -0.221,0.121 -0.462,0.185 -0.745,0.215 -0.596,0.063 -1.248,0.001 -1.799,-0.131l0.043 -0.297 -0.246 0 -0.052 0.374 -1.086 -0.001 0.004 -0.448c-0.036,0.073 -0.304,0.285 -0.427,0.35 -0.595,0.318 -1.34,0.256 -1.731,-0.232 -0.348,-0.433 -0.344,-1.311 -0.037,-1.874 0.071,-0.13 0.266,-0.369 0.367,-0.417 0.072,-0.069 0.092,-0.13 0.175,-0.206 0.23,-0.209 0.322,-0.294 0.672,-0.432 0.389,-0.154 0.857,-0.196 1.31,-0.17 -0.055,-0.378 -0.62,-0.354 -1.001,-0.335 -0.442,0.023 -0.739,0.095 -1.128,0.208 0.016,-0.137 0.15,-0.987 0.183,-1.065l0.267 -0.084 0.053 -0.278c0.137,-0.108 0.769,-0.221 0.995,-0.249 0.379,-0.046 0.789,-0.046 1.15,0.041 0.701,0.168 1.082,0.746 1.039,1.428 -0.002,-0.117 0.104,-0.324 0.159,-0.41 0.073,-0.116 0.176,-0.242 0.28,-0.308 0.134,-0.166 0.126,-0.267 0.442,-0.472 0.622,-0.403 1.637,-0.334 2.342,-0.206 0.01,0.091 -0.053,0.43 -0.069,0.544 -0.025,0.175 -0.063,0.374 -0.076,0.547l-0.272 -0.021 -0.051 0.396c-0.412,-0.025 -0.787,-0.086 -1.2,-0.024 0.019,0.346 0.488,0.424 0.871,0.657 0.444,0.269 0.48,0.531 0.585,0.922 0.008,-0.012 0.517,-3.031 0.581,-3.354l0.249 0.002 0.08 -0.377 1.229 0.002 -0.122 0.721 0.604 0c0.02,0.155 -0.124,0.935 -0.147,1.161l-0.202 0zm-10.062 3.617c-0.007,0.063 -0.02,0.129 -0.031,0.195 -0.005,0.03 -0.009,0.075 -0.015,0.106 -0.017,0.084 0,0.051 -0.042,0.073l-1.236 -0.001 0.542 -3.445 -1.101 3.071 -0.194 0.001 -0.126 0.374 -0.856 -0.007 -0.072 -3.123 -0.466 2.755 -0.261 0.001 -0.06 0.374 -1.23 -0.003 0.986 -5.875 0.298 0.002 0.061 -0.378 1.803 0.007 0.053 2.886c0.035,-0.044 0.038,-0.077 0.064,-0.157l0.787 -2.375 0.255 0.003 0.124 -0.364 1.952 0.001 -0.972 5.878 -0.263 0.001zm13.482 5.597l0.774 -0.792c0.027,-0.028 0.051,-0.047 0.076,-0.076l0.142 -0.165c0.052,-0.064 0.163,-0.167 0.193,-0.251l-2.334 0c-0.063,-0.012 -0.432,-0.524 -0.47,-0.578 -0.087,-0.124 -0.358,-0.503 -0.409,-0.615l4.068 0c0.049,-0.012 0.178,-0.256 0.201,-0.297 0.057,-0.099 0.115,-0.201 0.171,-0.305 0.054,-0.1 0.31,-0.559 0.314,-0.641l-5.444 0 -0.251 -0.595c-0.07,-0.176 -0.18,-0.439 -0.224,-0.622l6.418 0 0.233 -0.806c0.013,-0.049 0.024,-0.086 0.034,-0.135 0.027,-0.128 0.016,-0.101 0.053,-0.127 -0.085,-0.078 -0.212,-0.356 -0.266,-0.494 -0.074,-0.194 -0.126,-0.391 -0.16,-0.607 -0.038,-0.245 -0.047,-0.479 -0.043,-0.73 0.001,-0.124 0.007,-0.249 0.016,-0.37l0.027 -0.304c-0.008,-0.106 -0.315,-0.069 -0.391,-0.048 -0.145,0.04 -0.172,0.1 -0.262,0.152 -0.15,0.411 -0.241,1.029 -0.313,1.496l-0.188 1.175c-0.014,0.087 0.002,0.14 -0.078,0.146 -0.057,0.005 -0.146,-0.002 -0.209,-0.001l-0.06 0.374 -1.268 0 0.768 -4.784 0.263 0.001 0.068 -0.376 1.141 0.002 -0.097 0.673c0.017,-0.058 0.155,-0.229 0.194,-0.28 0.251,-0.33 0.533,-0.481 0.987,-0.443l-0.125 -0.675 -7.082 0c0.031,-0.199 0.095,-0.435 0.151,-0.628l0.17 -0.59 6.421 0c-0.027,-0.154 -0.171,-0.493 -0.232,-0.644l-0.258 -0.597 -5.426 -0.005c0.189,-0.364 0.27,-0.552 0.487,-0.926l0.138 -0.229c0.032,-0.049 0.016,-0.036 0.058,-0.057l4.059 0c-0.021,-0.129 -0.777,-1.127 -0.884,-1.243l-2.276 -0.001c0.028,-0.07 0.321,-0.366 0.402,-0.455 0.096,-0.105 0.645,-0.646 0.748,-0.698l-0.024 -0.05 -0.574 -0.484c-1.271,-0.991 -2.663,-1.709 -4.226,-2.123 -0.286,-0.076 -0.581,-0.135 -0.878,-0.195 -1.178,-0.24 -2.773,-0.241 -3.92,-0.048 -0.915,0.154 -1.663,0.356 -2.488,0.686 -1.267,0.506 -2.261,1.143 -3.299,2.021 -0.16,0.136 -0.702,0.632 -0.808,0.772l-0.616 0.703c-0.043,0.054 -0.08,0.1 -0.123,0.153 -0.464,0.581 -0.901,1.304 -1.229,1.96 -1.084,2.166 -1.467,4.6 -1.051,7.103 0.05,0.301 0.111,0.593 0.182,0.876 0.131,0.524 0.32,1.109 0.527,1.604l0.418 0.901c0.228,0.45 0.527,0.914 0.806,1.326 0.035,0.052 0.07,0.1 0.108,0.152 0.166,0.221 0.463,0.618 0.644,0.813 0.025,0.027 0.044,0.041 0.068,0.07 0.537,0.64 1.278,1.266 1.95,1.761l0.318 0.218c0.437,0.291 0.877,0.535 1.356,0.776l1.303 0.537c0.532,0.196 1.322,0.38 1.928,0.48 0.332,0.055 0.643,0.067 0.946,0.112l1.021 0.037c0.083,-0.005 0.14,-0.016 0.245,-0.016 0.443,0.001 1.288,-0.094 1.694,-0.177 0.999,-0.205 1.667,-0.383 2.626,-0.809 0.071,-0.032 0.125,-0.055 0.189,-0.087 0.119,-0.06 0.242,-0.109 0.363,-0.174 0.559,-0.301 0.932,-0.515 1.477,-0.899 0.052,-0.037 0.094,-0.073 0.15,-0.111l0.892 -0.717z"></path>
   <path class="fil1" d="M42.513 18.661c-0.099,-0.505 0.643,-0.625 0.733,-0.151 0.042,0.224 -0.115,0.407 -0.294,0.439 -0.223,0.041 -0.405,-0.111 -0.439,-0.288zm-17.836 -11.347l0.024 0.05c-0.103,0.052 -0.652,0.593 -0.748,0.698 -0.081,0.089 -0.374,0.385 -0.402,0.455l2.276 0.001c0.107,0.116 0.863,1.114 0.884,1.243l-4.059 0c-0.042,0.021 -0.026,0.008 -0.058,0.057l-0.138 0.229c-0.217,0.374 -0.298,0.562 -0.487,0.926l5.426 0.005 0.258 0.597c0.061,0.151 0.205,0.49 0.232,0.644l-6.421 0 -0.17 0.59c-0.056,0.193 -0.12,0.429 -0.151,0.628l7.082 0 0.125 0.675 0.001 0.015 0.164 0.048c0.043,-0.1 0.295,-0.336 0.392,-0.408 0.125,-0.092 0.322,-0.248 0.49,-0.305 0.123,-0.057 0.232,-0.185 0.606,-0.346 0.232,-0.099 0.496,-0.161 0.773,-0.183 0.498,-0.039 1.16,0.128 1.567,0.297l-0.203 1.301 -0.243 -0.13 -0.077 0.504c-0.145,-0.063 -0.215,-0.129 -0.443,-0.215 -0.351,-0.131 -0.769,-0.187 -1.128,-0.056 -0.192,0.07 -0.286,0.145 -0.42,0.238 -0.074,0.072 -0.195,0.344 -0.238,0.469 -0.186,0.527 -0.263,1.305 -0.041,1.805 0.14,0.314 0.377,0.56 0.763,0.648 0.441,0.1 0.782,-0.034 1.143,-0.174 0.025,-0.287 0.203,-0.596 0.35,-0.754 0.094,-0.1 0.17,-0.171 0.294,-0.258 0.077,-0.053 0.279,-0.17 0.387,-0.186 0.125,-0.054 0.444,-0.53 1.682,-0.557 -0.09,-0.194 -0.115,-0.245 -0.356,-0.297 -0.533,-0.117 -1.295,0.043 -1.778,0.179 0.002,-0.024 0.149,-1.015 0.191,-1.056 0.064,-0.052 0.427,-0.145 0.533,-0.165l0.037 -0.206c0.144,-0.109 0.77,-0.22 0.999,-0.248 0.681,-0.082 1.513,-0.038 1.931,0.532 0.169,0.232 0.297,0.633 0.252,0.997l0.175 -1.059 0.269 -0.006 0.062 -0.377 1.141 0.001 -0.099 0.671c0.177,-0.214 0.159,-0.278 0.438,-0.517 0.195,-0.168 0.4,-0.235 0.746,-0.202 -0.006,0.058 -0.092,0.219 -0.122,0.289 -0.11,0.255 -0.248,0.689 -0.284,0.959 0.034,-0.026 0.092,-0.118 0.126,-0.165 0.078,-0.107 0.342,-0.403 0.467,-0.442 0.112,-0.091 0.135,-0.183 0.435,-0.39 0.483,-0.332 1.068,-0.397 1.579,-0.083 0.088,0.054 0.189,0.146 0.255,0.177l0.136 -1.028 0.306 0.001 0.06 -0.366 1.236 -0.002c-0.062,0.506 -0.164,1.027 -0.244,1.531 -0.081,0.51 -0.162,1.013 -0.245,1.521l-0.428 2.669c-0.012,0.074 -0.001,0.138 -0.06,0.15 -0.03,0.006 -0.185,-0.001 -0.228,0l-0.056 0.363c-0.093,0.029 -1.031,0.013 -1.202,0.01l0.051 -0.421c-0.046,0.022 -0.026,0.007 -0.062,0.043 -0.018,0.017 -0.027,0.034 -0.049,0.057 -0.028,0.028 -0.081,0.066 -0.121,0.095 -0.673,0.486 -1.539,0.399 -2.053,-0.301 -0.405,-0.552 -0.447,-1.396 -0.344,-2.096 0.039,-0.27 0.109,-0.467 0.163,-0.712 -0.321,0.009 -0.427,0.184 -0.576,0.34 -0.117,0.386 -0.189,0.881 -0.255,1.3 -0.031,0.195 -0.18,1.228 -0.22,1.328l-0.279 0.006 -0.043 0.375 -1.267 -0.001 0.059 -0.387 -0.477 -0.001 -0.051 0.371 -1.087 0.003 0.007 -0.395 -0.087 0.027c-0.338,0.455 -1.564,0.768 -2.112,-0.014 -0.066,-0.094 -0.097,-0.209 -0.153,-0.297 -0.044,0.236 -0.02,0.237 -0.111,0.264 -0.025,0.007 -0.051,0.01 -0.075,0.015 -0.042,0.009 -0.089,0.02 -0.129,0.031l-0.049 0.307c-0.135,0.06 -0.655,0.138 -0.829,0.157 -0.3,0.032 -0.612,0.011 -0.896,-0.061 -0.443,-0.112 -0.961,-0.418 -1.175,-0.809 -0.037,0.026 -0.026,-0.001 -0.053,0.127 -0.01,0.049 -0.021,0.086 -0.034,0.135l-0.233 0.806 -6.418 0c0.044,0.183 0.154,0.446 0.224,0.622l0.251 0.595 5.444 0c-0.004,0.082 -0.26,0.541 -0.314,0.641 -0.056,0.104 -0.114,0.206 -0.171,0.305 -0.023,0.041 -0.152,0.285 -0.201,0.297l-4.068 0c0.051,0.112 0.322,0.491 0.409,0.615 0.038,0.054 0.407,0.566 0.47,0.578l2.334 0c-0.03,0.084 -0.141,0.187 -0.193,0.251l-0.142 0.165c-0.025,0.029 -0.049,0.048 -0.076,0.076l-0.774 0.792c0.041,0.026 0.105,0.081 0.142,0.118l0.139 0.122c0.858,0.726 1.926,1.395 2.949,1.821 0.252,0.105 0.497,0.204 0.763,0.294 0.694,0.237 1.642,0.476 2.37,0.544 0.391,0.037 0.567,0.07 0.983,0.075 0.094,0.001 0.149,0.016 0.26,0.016 1.289,-0.005 2.535,-0.161 3.698,-0.55 0.538,-0.18 1.042,-0.367 1.524,-0.608 0.062,-0.031 0.105,-0.061 0.172,-0.089 0.397,-0.168 1.435,-0.827 1.794,-1.12 0.102,-0.084 0.197,-0.153 0.299,-0.237l0.974 -0.882 0.383 -0.414c0.619,-0.739 0.853,-1.04 1.341,-1.848 0.135,-0.223 0.251,-0.448 0.371,-0.688 0.237,-0.475 0.448,-0.974 0.625,-1.505 0.243,-0.726 0.381,-1.385 0.49,-2.148 0.01,-0.072 0.02,-0.161 0.028,-0.233l0.047 -0.49c0.003,-0.044 -0.002,-0.092 0.001,-0.136 0.005,-0.057 0.013,-0.054 0.015,-0.123l0.001 -1.029c-0.001,-0.324 -0.109,-1.165 -0.154,-1.441 -0.101,-0.603 -0.246,-1.174 -0.424,-1.707 -0.086,-0.258 -0.249,-0.717 -0.364,-0.956 -0.03,-0.063 -0.05,-0.115 -0.078,-0.182l-0.172 -0.365c-0.121,-0.241 -0.243,-0.461 -0.372,-0.685 -0.068,-0.118 -0.133,-0.222 -0.201,-0.336 -0.032,-0.053 -0.067,-0.103 -0.104,-0.157 -0.039,-0.058 -0.067,-0.114 -0.108,-0.168 -0.154,-0.207 -0.266,-0.39 -0.445,-0.613 -0.103,-0.13 -0.359,-0.451 -0.481,-0.577l-0.123 -0.138c-0.052,-0.052 -0.073,-0.089 -0.122,-0.138 -0.854,-0.863 -1.335,-1.26 -2.34,-1.908 -0.218,-0.141 -0.807,-0.471 -1.036,-0.574 -0.277,-0.123 -0.441,-0.206 -0.735,-0.324 -0.707,-0.283 -1.718,-0.589 -2.495,-0.693 -0.888,-0.119 -1.111,-0.139 -1.978,-0.139 -1.228,0 -2.484,0.229 -3.628,0.619 -0.324,0.11 -0.637,0.24 -0.946,0.373 -0.344,0.148 -0.93,0.459 -1.231,0.64 -0.199,0.12 -0.459,0.279 -0.644,0.414 -0.057,0.041 -0.097,0.066 -0.154,0.107l-0.297 0.224c-0.304,0.232 -0.46,0.371 -0.736,0.613z"></path>
   <path class="fil2" d="M7.33 13.436l-0.924 5.501 0.93 0.001 0.261 -0.001 0.466 -2.755c0.027,-0.179 0.239,-1.499 0.277,-1.589 0.001,-0.002 0.003,-0.007 0.006,-0.01l0.111 4.35 0.66 0.005 0.194 -0.001 1.101 -3.071c0.039,-0.211 0.478,-1.262 0.468,-1.334 0.012,0.103 -0.294,1.918 -0.337,2.188 -0.114,0.733 -0.257,1.485 -0.35,2.217l1.001 0.001 0.263 -0.001 0.972 -5.878 -1.952 -0.001 -0.124 0.364c-0.264,0.692 -0.567,1.684 -0.823,2.437 -0.085,0.25 -0.202,0.549 -0.273,0.787l-0.01 -0.695 -0.053 -2.886 -1.803 -0.007 -0.061 0.378z"></path>
   <path class="fil3" d="M40.535 17.666c-0.168,0.126 -0.462,0.198 -0.701,0.084 -0.183,-0.088 -0.296,-0.27 -0.349,-0.527 -0.091,-0.441 0.005,-1.153 0.218,-1.471 0.302,-0.598 1.192,-0.753 1.355,0.099 0.116,0.61 -0.034,1.425 -0.523,1.815zm1.073 -4.236l-0.202 1.243c-0.012,0.037 -0.005,0.018 -0.016,0.034 -0.055,-0.091 -0.151,-0.157 -0.224,-0.25 -0.066,-0.031 -0.167,-0.123 -0.255,-0.177 -0.511,-0.314 -1.096,-0.249 -1.579,0.083 -0.3,0.207 -0.323,0.299 -0.435,0.39 -0.338,0.456 -0.522,0.785 -0.662,1.381 -0.24,1.029 -0.065,2.517 1.063,2.827 0.292,0.08 0.633,0.054 0.901,-0.05 0.127,-0.049 0.239,-0.105 0.335,-0.171 0.055,-0.038 0.097,-0.075 0.146,-0.114 0.051,-0.041 0.087,-0.086 0.133,-0.116l-0.045 0.422 0.931 0.001c0.043,-0.001 0.198,0.006 0.228,0 0.059,-0.012 0.048,-0.076 0.06,-0.15l0.428 -2.669c0.083,-0.508 0.164,-1.011 0.245,-1.521 0.08,-0.504 0.182,-1.025 0.244,-1.531l-1.236 0.002 -0.06 0.366z"></path>
   <path class="fil3" d="M14.021 17.901c-0.158,0.113 -0.499,0.122 -0.654,0.002 -0.169,-0.131 -0.215,-0.345 -0.146,-0.61 0.091,-0.234 0.236,-0.362 0.493,-0.44 0.18,-0.054 0.671,-0.134 0.829,-0.032 0.026,0.448 -0.245,0.952 -0.522,1.08zm-1.285 -3.302l-0.123 0.774c0.406,-0.148 1.661,-0.354 1.995,-0.091 0.186,0.147 0.141,0.358 0.104,0.613l-0.297 -0.02c-0.453,-0.026 -0.921,0.016 -1.31,0.17 -0.35,0.138 -0.442,0.223 -0.672,0.432 -0.083,0.076 -0.103,0.137 -0.175,0.206 -0.081,0.163 -0.156,0.275 -0.208,0.484 -0.132,0.531 -0.084,1.269 0.378,1.613 0.461,0.344 1.105,0.307 1.618,0.015 0.079,-0.045 0.141,-0.091 0.205,-0.147l0.189 -0.171 -0.035 0.452 0.815 0.002 0.246 0c0.047,-0.02 0.067,-0.302 0.077,-0.373 0.019,-0.129 0.038,-0.293 0.06,-0.409l0.298 -2.067 0.072 -0.541c0.043,-0.682 -0.338,-1.26 -1.039,-1.428 -0.361,-0.087 -0.771,-0.087 -1.15,-0.041 -0.226,0.028 -0.858,0.141 -0.995,0.249l-0.053 0.278z"></path>
   <path class="fil3" d="M33.721 17.989c-0.234,0.009 -0.39,-0.079 -0.468,-0.236 -0.083,-0.165 -0.062,-0.416 0.025,-0.563 0.257,-0.472 1.142,-0.455 1.277,-0.369 0.017,0.284 -0.101,0.589 -0.218,0.782 -0.113,0.188 -0.305,0.367 -0.616,0.386zm-0.962 -3.463l-0.134 0.847c0.407,-0.149 1.656,-0.354 1.994,-0.091 0.194,0.151 0.14,0.358 0.104,0.611l-0.554 -0.028c-1.238,0.027 -1.557,0.503 -1.682,0.557 -0.046,0.083 -0.312,0.258 -0.438,0.794 -0.081,0.348 -0.071,0.776 0.05,1.092 0.232,0.609 0.87,0.862 1.651,0.629l0.087 -0.027c0.184,-0.105 0.379,-0.189 0.537,-0.364 0.037,-0.041 0.028,-0.043 0.077,-0.07l-0.035 0.453 0.552 0.002 0.477 0.001 0.056 -0.001 0.477 -3.33c0.045,-0.364 -0.083,-0.765 -0.252,-0.997 -0.418,-0.57 -1.25,-0.614 -1.931,-0.532 -0.229,0.028 -0.855,0.139 -0.999,0.248l-0.037 0.206z"></path>
   <path class="fil3" d="M22.939 15.59c0.1,-0.269 0.417,-0.525 0.828,-0.449 0.355,0.066 0.482,0.413 0.425,0.832l-0.326 0.001 -1.039 -0.002c-0.002,-0.117 0.06,-0.299 0.112,-0.382zm-0.94 -0.607c-0.11,0.233 -0.163,0.224 -0.326,0.66 -0.278,0.745 -0.309,1.83 0.073,2.483 0.612,1.044 1.899,0.992 2.958,0.775l0.193 -0.069 0.216 -1.187c-0.102,0.025 -0.198,0.073 -0.304,0.106 -0.346,0.11 -0.671,0.197 -1.053,0.189 -0.506,-0.01 -0.935,-0.18 -1.034,-0.611 -0.036,-0.125 -0.028,-0.244 -0.014,-0.377l2.295 0.001c0.258,-0.003 0.213,0.125 0.325,-0.614 0.046,-0.307 0.074,-0.558 0.026,-0.869 -0.08,-0.525 -0.303,-0.914 -0.725,-1.192 -0.386,-0.255 -1.088,-0.339 -1.579,-0.157 -0.402,0.15 -0.699,0.4 -0.948,0.723 -0.037,0.048 -0.068,0.096 -0.103,0.139z"></path>
   <path class="fil3" d="M29.397 13.462c-0.103,0.109 -0.212,0.177 -0.315,0.297 -0.336,0.39 -0.489,0.607 -0.696,1.174 -0.225,0.614 -0.308,1.513 -0.194,2.207 0.122,0.751 0.457,1.265 0.919,1.565 0.26,0.168 0.557,0.275 0.922,0.317 0.46,0.054 0.715,-0.028 1.137,-0.086 0.04,-0.011 0.087,-0.022 0.129,-0.031 0.024,-0.005 0.05,-0.008 0.075,-0.015 0.091,-0.027 0.067,-0.028 0.111,-0.264l0.177 -1.091 -0.206 0.085c-0.361,0.14 -0.702,0.274 -1.143,0.174 -0.386,-0.088 -0.623,-0.334 -0.763,-0.648 -0.222,-0.5 -0.145,-1.278 0.041,-1.805 0.043,-0.125 0.164,-0.397 0.238,-0.469 0.041,-0.081 0.102,-0.148 0.154,-0.212 0.142,-0.178 0.436,-0.365 0.688,-0.431 0.425,-0.111 0.884,0.006 1.226,0.172l0.243 0.13 0.203 -1.301c-0.407,-0.169 -1.069,-0.336 -1.567,-0.297 -0.277,0.022 -0.541,0.084 -0.773,0.183 -0.374,0.161 -0.483,0.289 -0.606,0.346z"></path>
   <path class="fil3" d="M16.412 14.823c-0.151,0.363 -0.235,0.659 -0.168,1.092 0.13,0.839 0.822,0.964 1.298,1.278 0.376,0.249 0.258,0.622 -0.093,0.718 -0.211,0.067 -0.585,0.052 -0.815,0.022 -0.129,-0.017 -0.254,-0.041 -0.376,-0.069 -0.107,-0.026 -0.249,-0.078 -0.349,-0.09l-0.068 0.442 -0.095 0.629c0.297,0.167 1.662,0.209 2.166,0.074 0.266,-0.072 0.341,-0.131 0.555,-0.26 0.058,-0.064 0.166,-0.105 0.3,-0.325 0.027,-0.045 0.048,-0.095 0.08,-0.135 0.051,-0.171 0.102,-0.262 0.132,-0.469 0.027,-0.196 0.017,-0.366 0.005,-0.564 -0.105,-0.391 -0.141,-0.653 -0.585,-0.922 -0.383,-0.233 -0.852,-0.311 -0.871,-0.657 0.009,-0.281 0.187,-0.366 0.459,-0.395 0.248,-0.027 0.541,0.004 0.792,0.023l0.272 0.021c0.013,-0.173 0.051,-0.372 0.076,-0.547 0.016,-0.114 0.079,-0.453 0.069,-0.544 -0.705,-0.128 -1.72,-0.197 -2.342,0.206 -0.316,0.205 -0.308,0.306 -0.442,0.472z"></path>
   <path class="fil3" d="M19.814 13.814c-0.082,0.531 -0.189,1.072 -0.28,1.608 -0.092,0.543 -0.178,1.09 -0.262,1.639 -0.078,0.516 -0.221,1.169 0.058,1.595 0.284,0.435 0.85,0.414 1.459,0.296l0.28 -0.08c0.026,-0.159 0.099,-0.82 0.144,-0.903l0.008 -0.14 -0.036 -0.004c-0.219,0.033 -0.494,0.065 -0.646,-0.07 -0.151,-0.134 -0.061,-0.428 -0.027,-0.637 0.074,-0.458 0.164,-0.932 0.225,-1.393l0.067 -0.404 0.452 0 0.202 0c0.023,-0.226 0.167,-1.006 0.147,-1.161l-0.604 0 0.122 -0.721 -1.229 -0.002 -0.08 0.377z"></path>
   <path class="fil3" d="M26.057 14.536c-0.115,0.736 -0.234,1.471 -0.355,2.207 -0.04,0.244 -0.356,2.121 -0.344,2.202l0.996 0c0.063,-0.001 0.152,0.006 0.209,0.001 0.08,-0.006 0.064,-0.059 0.078,-0.146l0.188 -1.175c0.072,-0.467 0.163,-1.085 0.313,-1.496 0.134,-0.401 0.309,-0.699 0.753,-0.585 0.039,-0.114 0.111,-0.515 0.184,-0.749 0.072,-0.235 0.172,-0.471 0.272,-0.668l-0.001 -0.015c-0.454,-0.038 -0.736,0.113 -0.987,0.443 -0.039,0.051 -0.177,0.222 -0.194,0.28l0.097 -0.673 -1.141 -0.002 -0.068 0.376z"></path>
   <path class="fil3" d="M36.422 14.536l-0.71 4.408 0.984 0.001 0.279 -0.006c0.04,-0.1 0.189,-1.133 0.22,-1.328 0.066,-0.419 0.138,-0.914 0.255,-1.3 0.061,-0.208 0.133,-0.418 0.239,-0.57 0.126,-0.18 0.264,-0.277 0.571,-0.197l0.044 -0.184c0.036,-0.27 0.174,-0.704 0.284,-0.959 0.03,-0.07 0.116,-0.231 0.122,-0.289 -0.346,-0.033 -0.551,0.034 -0.746,0.202 -0.279,0.239 -0.261,0.303 -0.438,0.517l0.099 -0.671 -1.141 -0.001 -0.062 0.377z"></path>
   <path class="fil4" d="M28.351 14.127c-0.1,0.197 -0.2,0.433 -0.272,0.668 -0.073,0.234 -0.145,0.635 -0.184,0.749 -0.444,-0.114 -0.619,0.184 -0.753,0.585 0.09,-0.052 0.117,-0.112 0.262,-0.152 0.076,-0.021 0.383,-0.058 0.391,0.048l-0.027 0.304c-0.009,0.121 -0.015,0.246 -0.016,0.37 -0.004,0.251 0.005,0.485 0.043,0.73 0.034,0.216 0.086,0.413 0.16,0.607 0.054,0.138 0.181,0.416 0.266,0.494 0.214,0.391 0.732,0.697 1.175,0.809 0.284,0.072 0.596,0.093 0.896,0.061 0.174,-0.019 0.694,-0.097 0.829,-0.157l0.049 -0.307c-0.422,0.058 -0.677,0.14 -1.137,0.086 -0.365,-0.042 -0.662,-0.149 -0.922,-0.317 -0.462,-0.3 -0.797,-0.814 -0.919,-1.565 -0.114,-0.694 -0.031,-1.593 0.194,-2.207 0.207,-0.567 0.36,-0.784 0.696,-1.174 0.103,-0.12 0.212,-0.188 0.315,-0.297 -0.168,0.057 -0.365,0.213 -0.49,0.305 -0.097,0.072 -0.349,0.308 -0.392,0.408l-0.164 -0.048z"></path>
   <path class="fil4" d="M38.304 15.36l-0.044 0.184c-0.307,-0.08 -0.445,0.017 -0.571,0.197 -0.106,0.152 -0.178,0.362 -0.239,0.57 0.149,-0.156 0.255,-0.331 0.576,-0.34 -0.054,0.245 -0.124,0.442 -0.163,0.712 -0.103,0.7 -0.061,1.544 0.344,2.096 0.514,0.7 1.38,0.787 2.053,0.301 0.04,-0.029 0.093,-0.067 0.121,-0.095 0.022,-0.023 0.031,-0.04 0.049,-0.057 0.036,-0.036 0.016,-0.021 0.062,-0.043l-0.051 0.421c0.171,0.003 1.109,0.019 1.202,-0.01l0.056 -0.363 -0.931 -0.001 0.045 -0.422c-0.046,0.03 -0.082,0.075 -0.133,0.116 -0.049,0.039 -0.091,0.076 -0.146,0.114 -0.096,0.066 -0.208,0.122 -0.335,0.171 -0.268,0.104 -0.609,0.13 -0.901,0.05 -1.128,-0.31 -1.303,-1.798 -1.063,-2.827 0.14,-0.596 0.324,-0.925 0.662,-1.381 -0.125,0.039 -0.389,0.335 -0.467,0.442 -0.034,0.047 -0.092,0.139 -0.126,0.165z"></path>
   <path class="fil5" d="M39.703 15.752c-0.213,0.318 -0.309,1.03 -0.218,1.471 0.053,0.257 0.166,0.439 0.349,0.527 0.239,0.114 0.533,0.042 0.701,-0.084 0.076,-0.237 0.151,-0.282 0.21,-0.664 0.061,-0.391 0.058,-1.112 -0.347,-1.304 -0.307,-0.145 -0.509,-0.018 -0.695,0.054z"></path>
   <path class="fil4" d="M21.185 17.825l0.036 0.004 -0.008 0.14c0.05,0.103 0.052,0.227 0.172,0.457 0.069,0.133 0.173,0.288 0.255,0.375 0.214,0.227 0.484,0.387 0.788,0.484 0.356,0.115 0.765,0.134 1.16,0.111 0.272,-0.016 0.864,-0.089 1.064,-0.207l0.052 -0.288c-1.059,0.217 -2.346,0.269 -2.958,-0.775 -0.382,-0.653 -0.351,-1.738 -0.073,-2.483 0.163,-0.436 0.216,-0.427 0.326,-0.66 -0.116,0.066 -0.35,0.415 -0.413,0.527 -0.424,0.759 -0.498,1.437 -0.401,2.315z"></path>
   <polygon class="fil4" points="7.336,18.938 6.406,18.937 7.33,13.436 7.032,13.434 6.046,19.309 7.276,19.312 "></polygon>
   <path class="fil4" d="M18.984 17.166c0.012,0.198 0.022,0.368 -0.005,0.564 -0.03,0.207 -0.081,0.298 -0.132,0.469 -0.007,0.266 -0.012,0.463 0.089,0.698 0.386,0.89 1.794,0.351 1.796,0.349 0.025,-0.022 0.031,-0.103 0.036,-0.136 0.007,-0.053 0.016,-0.104 0.021,-0.158 -0.609,0.118 -1.175,0.139 -1.459,-0.296 -0.279,-0.426 -0.136,-1.079 -0.058,-1.595 0.084,-0.549 0.17,-1.096 0.262,-1.639 0.091,-0.536 0.198,-1.077 0.28,-1.608l-0.249 -0.002c-0.064,0.323 -0.573,3.342 -0.581,3.354z"></path>
   <path class="fil4" d="M15.22 18.931l-0.815 -0.002 0.035 -0.452 -0.189 0.171c-0.064,0.056 -0.126,0.102 -0.205,0.147 -0.513,0.292 -1.157,0.329 -1.618,-0.015 -0.462,-0.344 -0.51,-1.082 -0.378,-1.613 0.052,-0.209 0.127,-0.321 0.208,-0.484 -0.101,0.048 -0.296,0.287 -0.367,0.417 -0.307,0.563 -0.311,1.441 0.037,1.874 0.391,0.488 1.136,0.55 1.731,0.232 0.123,-0.065 0.391,-0.277 0.427,-0.35l-0.004 0.448 1.086 0.001 0.052 -0.374z"></path>
   <path class="fil4" d="M31.456 17.62l0.206 -0.085 -0.177 1.091c0.056,0.088 0.087,0.203 0.153,0.297 0.548,0.782 1.774,0.469 2.112,0.014 -0.781,0.233 -1.419,-0.02 -1.651,-0.629 -0.121,-0.316 -0.131,-0.744 -0.05,-1.092 0.126,-0.536 0.392,-0.711 0.438,-0.794 -0.108,0.016 -0.31,0.133 -0.387,0.186 -0.124,0.087 -0.2,0.158 -0.294,0.258 -0.147,0.158 -0.325,0.467 -0.35,0.754z"></path>
   <path class="fil4" d="M26.354 18.945l-0.996 0c-0.012,-0.081 0.304,-1.958 0.344,-2.202 0.121,-0.736 0.24,-1.471 0.355,-2.207l-0.263 -0.001 -0.768 4.784 1.268 0 0.06 -0.374z"></path>
   <polygon class="fil4" points="35.978,15.601 35.501,18.931 35.445,18.932 35.386,19.319 36.653,19.32 36.696,18.945 35.712,18.944 36.422,14.536 36.153,14.542 "></polygon>
   <path class="fil4" d="M8.063 16.182l0.072 3.123 0.856 0.007 0.126 -0.374 -0.66 -0.005 -0.111 -4.35c-0.003,0.003 -0.005,0.008 -0.006,0.01 -0.038,0.09 -0.25,1.41 -0.277,1.589z"></path>
   <path class="fil4" d="M34.169 15.865l0.554 0.028c0.036,-0.253 0.09,-0.46 -0.104,-0.611 -0.338,-0.263 -1.587,-0.058 -1.994,0.091l0.134 -0.847c-0.106,0.02 -0.469,0.113 -0.533,0.165 -0.042,0.041 -0.189,1.032 -0.191,1.056 0.483,-0.136 1.245,-0.296 1.778,-0.179 0.241,0.052 0.266,0.103 0.356,0.297z"></path>
   <path class="fil4" d="M10.412 15.866l-0.542 3.445 1.236 0.001c0.042,-0.022 0.025,0.011 0.042,-0.073 0.006,-0.031 0.01,-0.076 0.015,-0.106 0.011,-0.066 0.024,-0.132 0.031,-0.195l-1.001 -0.001c0.093,-0.732 0.236,-1.484 0.35,-2.217 0.043,-0.27 0.349,-2.085 0.337,-2.188 0.01,0.072 -0.429,1.123 -0.468,1.334z"></path>
   <path class="fil4" d="M15.973 15.541l-0.072 0.541c0.063,0.601 0.237,0.838 0.604,1.09 0.171,0.117 0.354,0.191 0.547,0.297 0.188,0.102 0.381,0.193 0.397,0.442 0.351,-0.096 0.469,-0.469 0.093,-0.718 -0.476,-0.314 -1.168,-0.439 -1.298,-1.278 -0.067,-0.433 0.017,-0.729 0.168,-1.092 -0.104,0.066 -0.207,0.192 -0.28,0.308 -0.055,0.086 -0.161,0.293 -0.159,0.41z"></path>
   <path class="fil6" d="M15.603 18.149l0.238 0.067 0.068 -0.442c0.1,0.012 0.242,0.064 0.349,0.09 0.122,0.028 0.247,0.052 0.376,0.069 0.23,0.03 0.604,0.045 0.815,-0.022 -0.016,-0.249 -0.209,-0.34 -0.397,-0.442 -0.193,-0.106 -0.376,-0.18 -0.547,-0.297 -0.367,-0.252 -0.541,-0.489 -0.604,-1.09l-0.298 2.067z"></path>
   <path class="fil4" d="M15.466 18.931l-0.043 0.297c0.551,0.132 1.203,0.194 1.799,0.131 0.283,-0.03 0.524,-0.094 0.745,-0.215 0.183,-0.1 0.423,-0.297 0.5,-0.485 -0.214,0.129 -0.289,0.188 -0.555,0.26 -0.504,0.135 -1.869,0.093 -2.166,-0.074l0.095 -0.629 -0.238 -0.067c-0.022,0.116 -0.041,0.28 -0.06,0.409 -0.01,0.071 -0.03,0.353 -0.077,0.373z"></path>
   <path class="fil4" d="M14.415 15.875l0.297 0.02c0.037,-0.255 0.082,-0.466 -0.104,-0.613 -0.334,-0.263 -1.589,-0.057 -1.995,0.091l0.123 -0.774 -0.267 0.084c-0.033,0.078 -0.167,0.928 -0.183,1.065 0.389,-0.113 0.686,-0.185 1.128,-0.208 0.381,-0.019 0.946,-0.043 1.001,0.335z"></path>
   <path class="fil4" d="M39.703 15.752c0.186,-0.072 0.388,-0.199 0.695,-0.054 0.405,0.192 0.408,0.913 0.347,1.304 -0.059,0.382 -0.134,0.427 -0.21,0.664 0.489,-0.39 0.639,-1.205 0.523,-1.815 -0.163,-0.852 -1.053,-0.697 -1.355,-0.099z"></path>
   <path class="fil4" d="M22.722 17.329l2.216 0.006 0.065 -0.382 -2.295 -0.001c-0.014,0.133 -0.022,0.252 0.014,0.377z"></path>
   <path class="fil4" d="M33.278 17.19c0.618,-0.058 0.627,-0.081 0.619,0.106 -0.002,0.04 -0.005,0.082 -0.01,0.122 -0.029,0.262 -0.074,0.346 -0.166,0.571 0.311,-0.019 0.503,-0.198 0.616,-0.386 0.117,-0.193 0.235,-0.498 0.218,-0.782 -0.135,-0.086 -1.02,-0.103 -1.277,0.369z"></path>
   <path class="fil4" d="M29.829 14.872c0.134,-0.093 0.228,-0.168 0.42,-0.238 0.359,-0.131 0.777,-0.075 1.128,0.056 0.228,0.086 0.298,0.152 0.443,0.215l0.077 -0.504c-0.342,-0.166 -0.801,-0.283 -1.226,-0.172 -0.252,0.066 -0.546,0.253 -0.688,0.431 -0.052,0.064 -0.113,0.131 -0.154,0.212z"></path>
   <path class="fil4" d="M9.247 15.951l0.01 0.695c0.071,-0.238 0.188,-0.537 0.273,-0.787 0.256,-0.753 0.559,-1.745 0.823,-2.437l-0.255 -0.003 -0.787 2.375c-0.026,0.08 -0.029,0.113 -0.064,0.157z"></path>
   <path class="fil6" d="M13.221 17.293c-0.069,0.265 -0.023,0.479 0.146,0.61 0.155,0.12 0.496,0.111 0.654,-0.002 0.024,-0.109 0.07,-0.209 0.096,-0.337 0.025,-0.127 0.038,-0.258 0.028,-0.391 -0.132,-0.031 -0.362,-0.016 -0.507,0.003 -0.185,0.024 -0.268,0.069 -0.417,0.117z"></path>
   <path class="fil4" d="M13.221 17.293c0.149,-0.048 0.232,-0.093 0.417,-0.117 0.145,-0.019 0.375,-0.034 0.507,-0.003 0.01,0.133 -0.003,0.264 -0.028,0.391 -0.026,0.128 -0.072,0.228 -0.096,0.337 0.277,-0.128 0.548,-0.632 0.522,-1.08 -0.158,-0.102 -0.649,-0.022 -0.829,0.032 -0.257,0.078 -0.402,0.206 -0.493,0.44z"></path>
   <path class="fil4" d="M22.939 15.59c0.202,-0.079 0.385,-0.133 0.619,-0.042 0.168,0.065 0.264,0.217 0.308,0.426l0.326 -0.001c0.057,-0.419 -0.07,-0.766 -0.425,-0.832 -0.411,-0.076 -0.728,0.18 -0.828,0.449z"></path>
   <path class="fil4" d="M33.837 18.91l-0.007 0.395 1.087 -0.003 0.051 -0.371 -0.552 -0.002 0.035 -0.453c-0.049,0.027 -0.04,0.029 -0.077,0.07 -0.158,0.175 -0.353,0.259 -0.537,0.364z"></path>
   <path class="fil5" d="M33.278 17.19c-0.087,0.147 -0.108,0.398 -0.025,0.563 0.078,0.157 0.234,0.245 0.468,0.236 0.092,-0.225 0.137,-0.309 0.166,-0.571 0.005,-0.04 0.008,-0.082 0.01,-0.122 0.008,-0.187 -0.001,-0.164 -0.619,-0.106z"></path>
   <path class="fil4" d="M17.528 15.587c0.413,-0.062 0.788,-0.001 1.2,0.024l0.051 -0.396c-0.251,-0.019 -0.544,-0.05 -0.792,-0.023 -0.272,0.029 -0.45,0.114 -0.459,0.395z"></path>
   <path class="fil6" d="M22.939 15.59c-0.052,0.083 -0.114,0.265 -0.112,0.382l1.039 0.002c-0.044,-0.209 -0.14,-0.361 -0.308,-0.426 -0.234,-0.091 -0.417,-0.037 -0.619,0.042z"></path>
   <path class="fil4" d="M41.166 14.457c0.073,0.093 0.169,0.159 0.224,0.25 0.011,-0.016 0.004,0.003 0.016,-0.034l0.202 -1.243 -0.306 -0.001 -0.136 1.028z"></path>
   <path class="fil1" d="M42.936 18.615c0.055,0.053 0.094,0.097 0.115,0.179 -0.198,0.011 -0.068,-0.161 -0.263,-0.17 -0.021,0.175 0.038,0.144 -0.047,0.173 -0.044,-0.034 -0.029,-0.008 -0.032,-0.088 -0.001,-0.031 0.002,-0.076 0.002,-0.109 0,-0.071 0,-0.142 0,-0.214 0.13,-0.021 0.377,-0.025 0.311,0.155 -0.024,0.065 -0.042,0.043 -0.086,0.074zm-0.152 -0.328c-0.388,0.128 -0.208,0.713 0.19,0.592 0.386,-0.118 0.208,-0.724 -0.19,-0.592z"></path>
   <polygon class="fil4" points="20.737,15.725 21.204,15.726 21.256,15.321 20.804,15.321 "></polygon>
   <path class="fil7" d="M42.572 22.357c0,-0.267 0.329,-0.405 0.518,-0.227 0.288,0.271 -0.113,0.736 -0.419,0.45 -0.046,-0.042 -0.099,-0.143 -0.099,-0.223zm-0.061 -0.061c0,0.142 -0.001,0.236 0.118,0.341 0.369,0.327 0.856,-0.19 0.53,-0.545 -0.237,-0.258 -0.648,-0.037 -0.648,0.204z"></path>
   <path class="fil3" d="M42.784 18.287c0.398,-0.132 0.576,0.474 0.19,0.592 -0.398,0.121 -0.578,-0.464 -0.19,-0.592zm-0.271 0.374c0.034,0.177 0.216,0.329 0.439,0.288 0.179,-0.032 0.336,-0.215 0.294,-0.439 -0.09,-0.474 -0.832,-0.354 -0.733,0.151z"></path>
   <path class="fil8" d="M42.936 18.615c0.044,-0.031 0.062,-0.009 0.086,-0.074 0.066,-0.18 -0.181,-0.176 -0.311,-0.155 0,0.072 0,0.143 0,0.214 0,0.033 -0.003,0.078 -0.002,0.109 0.003,0.08 -0.012,0.054 0.032,0.088 0.085,-0.029 0.026,0.002 0.047,-0.173 0.195,0.009 0.065,0.181 0.263,0.17 -0.021,-0.082 -0.06,-0.126 -0.115,-0.179z"></path>
   <path class="fil7" d="M42.909 22.326l-0.122 0 0 -0.107 0.107 0c0.036,0 0.061,0.025 0.061,0.061 0,0.036 -0.01,0.046 -0.046,0.046zm-0.199 0.2c0,0.051 0.027,0.045 0.077,0.046l0 -0.169c0.104,0 0.091,-0.007 0.134,0.065 0.024,0.041 0.038,0.055 0.05,0.104l0.092 0c-0.02,-0.038 -0.028,-0.06 -0.055,-0.099 -0.029,-0.042 -0.043,-0.048 -0.068,-0.085 0.178,-0.095 0.069,-0.23 -0.031,-0.23l-0.199 0 0 0.368z"></path>
  </g>
  <rect class="fil9 str0" x="0.086" y="0.086" width="49.174" height="31.677" rx="2.173" ry="2.173"></rect>
 </g>
</svg>