<svg class="featured-logo-svg" xmlns="http://www.w3.org/2000/svg" width="961px" height="386px" version="1.0" style="shape-rendering:geometricPrecision; text-rendering:geometricPrecision; image-rendering:optimizeQuality; fill-rule:evenodd; clip-rule:evenodd" viewbox="0 0 73.826 29.653" xml:space="preserve" xmlns:xlink="http://www.w3.org/1999/xlink" xmlns:xodm="http://www.corel.com/coreldraw/odm/2003">
 <defs>
  <style type="text/css">
   
    .featured-logo-svg .fil0 {fill:#C2BCB1}
   
  </style>
 </defs>
 <g id="Layer_x0020_1">
  <metadata id="CorelCorpID_0Corel-Layer"></metadata>
  <g id="_2691970195248">
   <path class="fil0" d="M0 0.461l2.228 0 0 28.654 -2.228 0 0 0.461 12.522 0 0 -7.682c0,-0.273 -0.15,-0.23 -0.461,-0.23 0,1.785 -0.328,4.119 -0.946,5.277 -1.075,2.014 -3.158,2.098 -5.277,2.098l0 -14.366c1.568,0 2.267,0.377 2.869,1.587 0.506,1.014 0.588,2.236 0.588,3.714l0.461 0 0 -11.139 -0.461 0c0,1.355 -0.078,2.795 -0.541,3.683 -0.624,1.197 -1.3,1.617 -2.916,1.617l0 -13.674c1.775,0 3.773,0.207 4.781,1.827 0.761,1.222 1.135,3.566 1.135,5.548l0.461 0 0 -7.836 -12.215 0 0 0.461z"></path>
   <path class="fil0" d="M61.304 0.461l2.228 0 0 28.654 -2.228 0 0 0.461 12.522 0 0 -7.912c-0.762,0 -0.343,0.251 -0.558,1.977 -0.135,1.081 -0.377,2.31 -0.798,3.197 -1.001,2.112 -3.188,2.201 -5.328,2.201l0 -14.366c1.497,0 2.125,0.312 2.772,1.377 0.659,1.083 0.685,2.482 0.685,3.924l0.461 0 0 -11.139 -0.461 0c0,2.373 -0.173,5.3 -3.226,5.3l-0.231 0 0 -13.674c3.374,0 4.858,0.794 5.576,4.027 0.259,1.162 0.34,2.113 0.34,3.348l0.461 0 0 -7.836 -12.215 0 0 0.461z"></path>
   <path class="fil0" d="M20.819 0.461l2.228 0 0 28.654 -2.228 0 0 0.538 12.291 0c0.177,0 0.231,-0.053 0.231,-0.23l0 -7.452c0,-0.273 -0.15,-0.23 -0.461,-0.23 0,1.892 -0.427,4.443 -1.182,5.578 -0.253,0.38 -0.488,0.578 -0.838,0.852 -0.33,0.258 -0.686,0.428 -1.119,0.571 -0.873,0.289 -1.904,0.373 -3.084,0.373l0 -28.654 1.998 0 0 -0.461 -7.836 0 0 0.461z"></path>
   <path class="fil0" d="M40.792 0.461l2.228 0 0 28.654 -2.228 0c0,0.374 -0.052,0.538 0.231,0.538l12.061 0c0.177,0 0.23,-0.053 0.23,-0.23l0 -7.682 -0.461 0c0,1.983 -0.331,4.373 -1.195,5.641 -0.393,0.577 -1.165,1.105 -1.866,1.361 -0.804,0.293 -2.092,0.372 -3.161,0.372l0 -28.654 2.074 0 0 -0.461 -7.913 0 0 0.461z"></path>
  </g>
 </g>
</svg>