<svg width="124" height="124" viewbox="0 0 124 124" fill="none" xmlns="http://www.w3.org/2000/svg">
<g clip-path="url(#clip0_314_549)">
<path d="M45.0544 44.2418C46.1766 44.2418 47.0864 43.3321 47.0864 42.2098C47.0864 41.0875 46.1766 40.1777 45.0544 40.1777C43.9321 40.1777 43.0223 41.0875 43.0223 42.2098C43.0223 43.3321 43.9321 44.2418 45.0544 44.2418Z" fill="black"></path>
<path d="M43.6588 41.9943C44.0917 41.9943 44.4426 41.6434 44.4426 41.2105C44.4426 40.7777 44.0917 40.4268 43.6588 40.4268C43.226 40.4268 42.8751 40.7777 42.8751 41.2105C42.8751 41.6434 43.226 41.9943 43.6588 41.9943Z" fill="white"></path>
<path fill-rule="evenodd" clip-rule="evenodd" d="M53.1641 44.7532C55.4575 44.4194 49.8403 41.052 49.579 40.8633C48.3308 39.9779 46.6906 39.4264 44.9344 39.3393C40.9574 39.1361 39.2737 40.7762 36.4288 43.0115C36.4288 43.0115 37.4884 42.8663 38.635 44.1291C39.7817 45.3919 44.1941 46.9014 48.026 45.9725C51.8578 45.0435 53.1932 44.7678 53.1932 44.7678L53.1641 44.7532Z" stroke="black" stroke-miterlimit="2.61313" stroke-linecap="round" stroke-linejoin="round"></path>
<mask id="mask0_314_549" style="mask-type:alpha" maskunits="userSpaceOnUse" x="40" y="38" width="10" height="9">
<path d="M45.0551 45.8969C47.0912 45.8969 48.7418 44.2463 48.7418 42.2101C48.7418 40.174 47.0912 38.5234 45.0551 38.5234C43.019 38.5234 41.3684 40.174 41.3684 42.2101C41.3684 44.2463 43.019 45.8969 45.0551 45.8969Z" stroke="black" stroke-miterlimit="2.61313" stroke-linecap="round" stroke-linejoin="round"></path>
</mask>
<g mask="url(#mask0_314_549)">
<path fill-rule="evenodd" clip-rule="evenodd" d="M53.1641 44.7527C55.4574 44.4189 49.8402 41.0515 49.579 40.8628C48.3307 39.9774 46.6906 39.4259 44.9343 39.3388C40.9573 39.1356 39.2736 40.7757 36.4287 43.011C36.4287 43.011 37.4883 42.8658 38.635 44.1286C39.7816 45.3914 44.1941 46.9009 48.0259 45.972C51.8578 45.043 53.1931 44.7673 53.1931 44.7673L53.1641 44.7527Z" fill="black" stroke="black" stroke-miterlimit="2.61313" stroke-linecap="round" stroke-linejoin="round"></path>
</g>
<path d="M52.6324 43.2983C52.6324 43.2983 51.9212 44.0386 52.2115 44.895" stroke="black" stroke-miterlimit="2.61313" stroke-linecap="round" stroke-linejoin="round"></path>
<path d="M53.4906 42.2552C53.4906 42.2552 50.8925 37.7267 44.7964 37.6686C38.7003 37.6106 35.6812 41.3263 35.6812 41.3263" stroke="black" stroke-miterlimit="2.61313" stroke-linecap="round" stroke-linejoin="round"></path>
<path fill-rule="evenodd" clip-rule="evenodd" d="M54.2527 35.7951C54.2527 35.7951 55.3413 34.3872 52.2061 32.747C52.2061 32.747 40.7976 29.3651 38.1414 29.699C35.4853 30.0328 31.3196 33.3566 31.3196 33.3566C31.3196 33.3566 35.9643 31.5713 41.2766 32.9793C46.589 34.3872 53.7156 36.3612 54.2527 35.7951V35.7951Z" stroke="black" stroke-miterlimit="2.61313" stroke-linecap="round" stroke-linejoin="round"></path>
<path d="M63.3593 68.6007C63.3593 68.6007 61.8643 68.6442 61.2692 67.9621C60.6596 67.2799 59.1356 66.6703 57.9308 66.7573" stroke="black" stroke-miterlimit="2.61313" stroke-linecap="round" stroke-linejoin="round"></path>
<path d="M56.1953 63.373C56.1953 63.373 54.1777 67.5968 58.3725 68.2935" stroke="black" stroke-miterlimit="2.61313" stroke-linecap="round" stroke-linejoin="round"></path>
<path d="M56.9905 40.6421C56.9905 40.6421 60.6191 43.8643 59.8934 52.7328" stroke="black" stroke-miterlimit="2.61313" stroke-linecap="round" stroke-linejoin="round"></path>
<path fill-rule="evenodd" clip-rule="evenodd" d="M63.5832 76.6956C63.5832 76.6956 60.6222 75.2442 58.5321 76.4489C56.442 77.6536 50.4765 80.6436 50.4765 80.6436C50.4765 80.6436 53.1327 88.7863 63.5832 88.7863C74.0337 88.7863 76.6899 80.6436 76.6899 80.6436C76.6899 80.6436 70.7244 77.6681 68.6343 76.4489C66.5442 75.2442 63.5832 76.6956 63.5832 76.6956V76.6956Z" stroke="black" stroke-miterlimit="2.61313" stroke-linecap="round" stroke-linejoin="round"></path>
<path d="M63.5772 81.6467C63.5772 81.6467 62.8369 81.6032 61.908 81.2258C60.9791 80.8484 56.3489 80.6597 54.0991 81.1823C51.8494 81.7048 51.1527 80.4565 48.7433 80.4565" stroke="black" stroke-miterlimit="2.61313" stroke-linecap="round" stroke-linejoin="round"></path>
<path d="M21.5997 40.874C21.5997 40.874 26.4186 61.1364 28.9876 71.6885C31.5712 82.2407 32.2099 84.0115 37.8415 89.3238C43.4877 94.6362 54.3011 104.637 63.5614 104.637" stroke="black" stroke-miterlimit="2.61313" stroke-linecap="round" stroke-linejoin="round"></path>
<path d="M18.1206 38.0874C18.1206 38.0874 15.0145 38.1309 16.0595 42.645C17.1046 47.159 20.8929 53.6761 21.3719 58.5095C21.8509 63.3428 23.7523 64.7653 27.2358 64.4605" stroke="black" stroke-miterlimit="2.61313" stroke-linecap="round" stroke-linejoin="round"></path>
<path d="M18.9148 44.8076C18.9148 44.8076 19.4228 42.6304 20.4533 43.3561C21.4839 44.0818 23.632 49.8006 23.632 49.8006C23.632 49.8006 22.2532 52.7035 23.0224 53.5889C23.7917 54.4743 25.2722 56.2741 25.2722 56.2741" stroke="black" stroke-miterlimit="2.61313" stroke-linecap="round" stroke-linejoin="round"></path>
<path d="M82.0991 44.2418C83.2214 44.2418 84.1312 43.3321 84.1312 42.2098C84.1312 41.0875 83.2214 40.1777 82.0991 40.1777C80.9769 40.1777 80.0671 41.0875 80.0671 42.2098C80.0671 43.3321 80.9769 44.2418 82.0991 44.2418Z" fill="black"></path>
<path d="M80.6923 41.9943C81.1251 41.9943 81.4761 41.6434 81.4761 41.2105C81.4761 40.7777 81.1251 40.4268 80.6923 40.4268C80.2594 40.4268 79.9085 40.7777 79.9085 41.2105C79.9085 41.6434 80.2594 41.9943 80.6923 41.9943Z" fill="white"></path>
<path fill-rule="evenodd" clip-rule="evenodd" d="M73.9776 44.7532C71.6843 44.4194 77.3014 41.052 77.5627 40.8633C78.8109 39.9779 80.4511 39.4264 82.2074 39.3393C86.1844 39.1361 87.8681 40.7762 90.7129 43.0115C90.7129 43.0115 89.6533 42.8663 88.5067 44.1291C87.36 45.3919 82.9476 46.9014 79.1157 45.9725C75.2839 45.0435 73.9485 44.7678 73.9485 44.7678L73.9776 44.7532Z" stroke="black" stroke-miterlimit="2.61313" stroke-linecap="round" stroke-linejoin="round"></path>
<mask id="mask1_314_549" style="mask-type:alpha" maskunits="userSpaceOnUse" x="77" y="38" width="10" height="9">
<path d="M82.0999 45.8969C84.136 45.8969 85.7866 44.2463 85.7866 42.2101C85.7866 40.174 84.136 38.5234 82.0999 38.5234C80.0638 38.5234 78.4132 40.174 78.4132 42.2101C78.4132 44.2463 80.0638 45.8969 82.0999 45.8969Z" stroke="black" stroke-miterlimit="2.61313" stroke-linecap="round" stroke-linejoin="round"></path>
</mask>
<g mask="url(#mask1_314_549)">
<path fill-rule="evenodd" clip-rule="evenodd" d="M73.9775 44.7527C71.6842 44.4189 77.3013 41.0515 77.5626 40.8628C78.8108 39.9774 80.451 39.4259 82.2073 39.3388C86.1843 39.1356 87.868 40.7757 90.7128 43.011C90.7128 43.011 89.6533 42.8658 88.5066 44.1286C87.36 45.3914 82.9475 46.9009 79.1157 45.972C75.2838 45.043 73.9484 44.7673 73.9484 44.7673L73.9775 44.7527Z" fill="black" stroke="black" stroke-miterlimit="2.61313" stroke-linecap="round" stroke-linejoin="round"></path>
</g>
<path d="M74.5161 43.2983C74.5161 43.2983 75.2274 44.0386 74.9371 44.895" stroke="black" stroke-miterlimit="2.61313" stroke-linecap="round" stroke-linejoin="round"></path>
<path d="M73.6439 42.2552C73.6439 42.2552 76.242 37.7267 82.3381 37.6686C88.4342 37.6106 91.4533 41.3263 91.4533 41.3263" stroke="black" stroke-miterlimit="2.61313" stroke-linecap="round" stroke-linejoin="round"></path>
<path fill-rule="evenodd" clip-rule="evenodd" d="M72.8865 35.7951C72.8865 35.7951 71.7979 34.3872 74.933 32.747C74.933 32.747 86.3415 29.3651 88.9977 29.699C91.6538 30.0328 95.8195 33.3566 95.8195 33.3566C95.8195 33.3566 91.1749 31.5713 85.8625 32.9793C80.5502 34.3872 73.4235 36.3612 72.8865 35.7951V35.7951Z" stroke="black" stroke-miterlimit="2.61313" stroke-linecap="round" stroke-linejoin="round"></path>
<path d="M63.7879 68.6007C63.7879 68.6007 65.2829 68.6442 65.878 67.9621C66.4876 67.2799 68.0116 66.6703 69.2164 66.7573" stroke="black" stroke-miterlimit="2.61313" stroke-linecap="round" stroke-linejoin="round"></path>
<path d="M70.961 63.373C70.961 63.373 72.9785 67.5968 68.7838 68.2935" stroke="black" stroke-miterlimit="2.61313" stroke-linecap="round" stroke-linejoin="round"></path>
<path d="M70.1513 40.6421C70.1513 40.6421 66.5226 43.8643 67.2484 52.7328" stroke="black" stroke-miterlimit="2.61313" stroke-linecap="round" stroke-linejoin="round"></path>
<path d="M63.5726 81.6467C63.5726 81.6467 64.3128 81.6032 65.2418 81.2258C66.1707 80.8484 70.8009 80.6597 73.0506 81.1823C75.3004 81.7048 75.9971 80.4565 78.4065 80.4565" stroke="black" stroke-miterlimit="2.61313" stroke-linecap="round" stroke-linejoin="round"></path>
<path d="M105.546 40.874C105.546 40.874 100.727 61.1364 98.1578 71.6885C95.5742 82.2407 94.9355 84.0115 89.3039 89.3238C83.6577 94.6362 72.8443 104.637 63.584 104.637" stroke="black" stroke-miterlimit="2.61313" stroke-linecap="round" stroke-linejoin="round"></path>
<path d="M109.03 38.0874C109.03 38.0874 112.136 38.1309 111.091 42.645C110.046 47.159 106.258 53.6761 105.779 58.5095C105.3 63.3428 103.399 64.7653 99.9151 64.4605" stroke="black" stroke-miterlimit="2.61313" stroke-linecap="round" stroke-linejoin="round"></path>
<path d="M108.221 44.8076C108.221 44.8076 107.713 42.6304 106.682 43.3561C105.652 44.0818 103.504 49.8006 103.504 49.8006C103.504 49.8006 104.883 52.7035 104.113 53.5889C103.344 54.4743 101.864 56.2741 101.864 56.2741" stroke="black" stroke-miterlimit="2.61313" stroke-linecap="round" stroke-linejoin="round"></path>
<path fill-rule="evenodd" clip-rule="evenodd" d="M22.2114 88.5111C29.4106 88.5111 35.2455 81.486 35.2455 72.8208C35.2455 81.486 41.0804 88.5111 48.2796 88.5111C41.0804 88.5111 35.2455 95.5362 35.2455 104.201C35.2455 95.5362 29.4106 88.5111 22.2114 88.5111Z" fill="#FFFAF1" stroke="#008763" stroke-width="2" stroke-miterlimit="2.61313" stroke-linecap="round" stroke-linejoin="round"></path>
<path fill-rule="evenodd" clip-rule="evenodd" d="M6.94037 77.4226C10.6997 77.4226 13.7477 73.5182 13.7477 68.7139C13.7477 73.5182 16.7958 77.4226 20.5551 77.4226C16.7958 77.4226 13.7477 81.3271 13.7477 86.1314C13.7477 81.3271 10.6997 77.4226 6.94037 77.4226Z" fill="#FFFAF1" stroke="#008763" stroke-width="2" stroke-miterlimit="2.61313" stroke-linecap="round" stroke-linejoin="round"></path>
<path fill-rule="evenodd" clip-rule="evenodd" d="M86.7848 58.862C90.1926 58.862 92.9557 55.457 92.9557 51.2671C92.9557 55.457 95.7188 58.862 99.1266 58.862C95.7188 58.862 92.9557 62.2671 92.9557 66.457C92.9557 62.2671 90.1926 58.862 86.7848 58.862Z" fill="#FFFAF1" stroke="#008763" stroke-width="2" stroke-miterlimit="2.61313" stroke-linecap="round" stroke-linejoin="round"></path>
</g>
<defs>
<clippath id="clip0_314_549">
<rect width="123.418" height="123.418" fill="white" transform="translate(0.39241)"></rect>
</clippath>
</defs>
</svg>