<svg width="49" height="48" viewbox="0 0 49 48" fill="none" xmlns="http://www.w3.org/2000/svg">
<circle opacity="0.9" cx="25" cy="24" r="23" fill="black"></circle>
<path d="M9.32276 22.29V20.7H12.0928V28H10.3128V22.29H9.32276ZM21.5717 20.98L19.1417 25.68V28H17.4317V25.68L15.0017 20.98H16.9417L18.3017 23.92L19.6517 20.98H21.5717ZM23.9707 22.35V23.77H26.2607V25.09H23.9707V26.63H26.5607V28H22.2607V20.98H26.5607V22.35H23.9707ZM32.0408 26.76H29.4208L29.0008 28H27.2108L29.7508 20.98H31.7308L34.2708 28H32.4608L32.0408 26.76ZM31.6008 25.44L30.7308 22.87L29.8708 25.44H31.6008ZM38.6239 28L37.1639 25.35H36.7539V28H35.0439V20.98H37.9139C38.4672 20.98 38.9372 21.0767 39.3239 21.27C39.7172 21.4633 40.0105 21.73 40.2039 22.07C40.3972 22.4033 40.4939 22.7767 40.4939 23.19C40.4939 23.6567 40.3605 24.0733 40.0939 24.44C39.8339 24.8067 39.4472 25.0667 38.9339 25.22L40.5539 28H38.6239ZM36.7539 24.14H37.8139C38.1272 24.14 38.3605 24.0633 38.5139 23.91C38.6739 23.7567 38.7539 23.54 38.7539 23.26C38.7539 22.9933 38.6739 22.7833 38.5139 22.63C38.3605 22.4767 38.1272 22.4 37.8139 22.4H36.7539V24.14Z" fill="white"></path>
</svg>