<svg class="sezzle-logo payments-logo" xmlns="http://www.w3.org/2000/svg" width="669px" height="322px" version="1.0" style="shape-rendering:geometricPrecision; text-rendering:geometricPrecision; image-rendering:optimizeQuality; fill-rule:evenodd; clip-rule:evenodd" viewbox="0 0 116.841 56.101" xml:space="preserve" xmlns:xlink="http://www.w3.org/1999/xlink" xmlns:xodm="http://www.corel.com/coreldraw/odm/2003">
 <defs>
  <style type="text/css">
   
    .sezzle-logo .str0 {stroke:#999999;stroke-width:0.302;stroke-linecap:round;stroke-linejoin:round;stroke-miterlimit:2.61313}
    .sezzle-logo .fil1 {fill:#382657}
    .sezzle-logo .fil0 {fill:white}
    .sezzle-logo .fil4 {fill:url(#id0)}
    .sezzle-logo .fil2 {fill:url(#id1)}
    .sezzle-logo .fil3 {fill:url(#id2)}
    .sezzle-logo .fil5 {fill:url(#id3)}
   
  </style>
  <lineargradient id="id0" gradientunits="userSpaceOnUse" x1="16.57" y1="32.172" x2="28.268" y2="32.172">
   <stop offset="0" style="stop-opacity:1; stop-color:#FCD374"></stop>
   <stop offset="0.501961" style="stop-opacity:1; stop-color:#FEA808"></stop>
   <stop offset="1" style="stop-opacity:1; stop-color:#FF6900"></stop>
  </lineargradient>
  <lineargradient id="id1" gradientunits="userSpaceOnUse" x1="11.233" y1="25.826" x2="17.754" y2="32.403">
   <stop offset="0" style="stop-opacity:1; stop-color:#7D2ABD"></stop>
   <stop offset="0.478431" style="stop-opacity:1; stop-color:#953DD2"></stop>
   <stop offset="0.760784" style="stop-opacity:1; stop-color:#A445D0"></stop>
   <stop offset="1" style="stop-opacity:1; stop-color:#BB53CD"></stop>
  </lineargradient>
  <lineargradient id="id2" gradientunits="userSpaceOnUse" x1="18.112" y1="26.982" x2="26.605" y2="26.982">
   <stop offset="0" style="stop-opacity:1; stop-color:#FF5667"></stop>
   <stop offset="0.321569" style="stop-opacity:1; stop-color:#FF5B69"></stop>
   <stop offset="1" style="stop-opacity:1; stop-color:#FB9C8B"></stop>
  </lineargradient>
  <lineargradient id="id3" gradientunits="userSpaceOnUse" x1="8.603" y1="23.936" x2="20.326" y2="23.936">
   <stop offset="0" style="stop-opacity:1; stop-color:#04BB78"></stop>
   <stop offset="1" style="stop-opacity:1; stop-color:#7DEBC9"></stop>
  </lineargradient>
 </defs>
 <g id="Layer_x0020_1">
  <metadata id="CorelCorpID_0Corel-Layer"></metadata>
  <path class="fil0 str0" d="M5.3 0.151l106.24 0c2.833,0 5.15,1.722 5.15,3.827l0 48.145c0,2.105 -2.317,3.827 -5.15,3.827l-106.24 0c-2.832,0 -5.149,-1.722 -5.149,-3.827l0 -48.145c0,-2.105 2.317,-3.827 5.149,-3.827z"></path>
  <g id="_2348424963856">
   <path class="fil1" d="M49.893 30.02c0,-1.052 0.262,-1.941 0.854,-2.736 0.516,-0.694 1.198,-1.218 2.119,-1.522 1.059,-0.349 2.026,-0.211 2.969,0.161 0.462,0.183 0.742,0.439 1.09,0.706 0.19,0.147 0.774,0.768 0.797,1.048 -0.272,0.022 -2.463,0.728 -2.924,0.865 -0.36,0.107 -0.644,0.194 -0.997,0.299l-3.415 1.024c-0.13,0.04 -0.393,0.107 -0.493,0.155zm-2.244 -0.099c0,1.583 0.576,3.122 1.467,4.268 0.788,1.015 2.224,1.884 3.529,2.205 2.115,0.521 4.237,-0.127 5.664,-1.399 0.093,-0.083 0.104,-0.075 0.196,-0.152 0.498,-0.416 1.411,-1.572 1.411,-2.23 0,-0.338 -0.124,-0.591 -0.309,-0.787 -0.37,-0.39 -0.932,-0.477 -1.367,-0.19 -0.052,0.034 -0.07,0.05 -0.113,0.086l-0.296 0.352c-0.713,1.104 -1.449,1.835 -2.863,2.123 -1.002,0.204 -2.011,0.008 -2.749,-0.369 -0.326,-0.166 -0.931,-0.592 -1.158,-0.886 -0.16,-0.208 -0.453,-0.493 -0.52,-0.777 0.206,-0.005 0.956,-0.255 1.215,-0.332l7.131 -2.144c0.222,-0.065 0.341,-0.115 0.571,-0.177 1.74,-0.475 0.568,-2.591 -0.061,-3.46 -0.111,-0.154 -0.207,-0.288 -0.32,-0.428 -0.127,-0.157 -0.258,-0.248 -0.392,-0.407 -0.337,-0.399 -0.822,-0.752 -1.271,-1.022 -0.18,-0.109 -0.325,-0.176 -0.523,-0.275 -2.093,-1.052 -4.708,-0.769 -6.549,0.615l-0.86 0.786c-0.36,0.392 -0.387,0.393 -0.714,0.882 -0.67,1.001 -1.119,2.385 -1.119,3.718z"></path>
   <path class="fil1" d="M97.716 30.02c0,-1.942 1.127,-3.596 2.978,-4.252 1.368,-0.486 3.143,-0.067 4.091,0.873 0.237,0.235 0.731,0.698 0.81,1.036l-6.882 2.044c-0.325,0.089 -0.675,0.224 -0.997,0.299zm-2.194 -0.448c0,1.374 0.034,1.678 0.504,2.986 0.698,1.945 2.625,3.436 4.603,3.874 1.77,0.393 3.376,-0.047 4.565,-0.729 0.297,-0.171 0.551,-0.35 0.829,-0.567 0.244,-0.189 0.506,-0.489 0.732,-0.714 0.207,-0.207 0.438,-0.533 0.606,-0.791 0.372,-0.572 0.663,-1.2 0.116,-1.802 -0.441,-0.485 -1.32,-0.559 -1.805,0.264 -1.194,2.024 -3.474,2.782 -5.58,1.734 -0.534,-0.266 -1.635,-1.147 -1.678,-1.662l7.835 -2.338c0.852,-0.272 1.989,-0.35 1.989,-1.452 0,-1.038 -1.219,-2.82 -2.06,-3.526 -2.622,-2.205 -6.365,-2.072 -8.75,0.346 -0.139,0.14 -0.207,0.249 -0.348,0.4 -0.128,0.137 -0.231,0.294 -0.348,0.45 -0.612,0.812 -1.21,2.386 -1.21,3.527z"></path>
   <path class="fil1" d="M34.783 26.978l0 0.449c0,1.314 0.953,2.342 2.03,2.807 0.403,0.174 0.787,0.285 1.251,0.395 1.343,0.319 4.698,0.45 4.698,1.785 0,1.213 -1.149,1.795 -2.294,1.795 -1.544,0 -2.176,-0.104 -3.441,-0.947 -0.461,-0.308 -1.019,-0.687 -1.682,-0.087 -0.381,0.344 -0.479,1.024 -0.143,1.513 0.249,0.36 1.296,0.953 1.692,1.151 2.364,1.181 6.204,1 7.612,-1.432 0.56,-0.968 0.701,-2.399 0.185,-3.423 -1.592,-3.161 -7.664,-1.762 -7.664,-3.706 0,-0.709 0.25,-1.089 0.93,-1.414 0.249,-0.119 0.5,-0.199 0.815,-0.233 1.203,-0.127 2.369,0.195 3.352,0.789 0.573,0.346 0.488,0.359 1.037,0.359 0.278,0 0.508,-0.144 0.662,-0.285 0.312,-0.288 0.335,-0.573 0.335,-0.962 0,-0.516 -0.405,-0.801 -0.737,-1.007 -2.14,-1.329 -5.154,-1.868 -7.271,-0.219 -0.659,0.513 -1.367,1.529 -1.367,2.672z"></path>
   <path class="fil1" d="M75.974 24.186c0,0.617 0.153,1.093 0.916,1.228 0.339,0.06 5.227,0.019 5.816,0.019 -1.153,1.721 -2.291,3.46 -3.441,5.186l-2.583 3.899c-0.158,0.238 -0.808,1.128 -0.808,1.387 0,0.371 0.312,0.648 0.698,0.648l8.777 0c1.309,0 1.393,-2.046 0.099,-2.144 -0.606,-0.045 -1.416,0 -2.044,0 -1.347,0 -2.693,0 -4.039,0l6.452 -9.754c0.139,-0.209 0.374,-0.479 0.364,-0.763 -0.011,-0.289 -0.254,-0.604 -0.583,-0.604l-8.677 0c-0.513,0 -0.947,0.547 -0.947,0.898z"></path>
   <path class="fil1" d="M62.609 24.335c0,0.322 0.179,0.641 0.379,0.819 0.491,0.44 1.469,0.279 2.414,0.279 1.313,0 2.626,0 3.939,0 -0.272,0.514 -2.087,3.181 -2.553,3.879l-2.563 3.87c-0.242,0.363 -1.666,2.422 -1.666,2.673 0,0.436 0.254,0.698 0.699,0.698l8.676 0c0.333,0 0.557,-0.092 0.738,-0.26 0.718,-0.668 0.329,-1.843 -0.636,-1.886 -0.636,-0.028 -1.352,0.002 -1.997,0.002 -1.329,0 -2.659,0 -3.989,0 0.062,-0.233 5.452,-8.278 5.964,-9.046 0.211,-0.317 0.818,-1.102 0.818,-1.426 0,-0.331 -0.232,-0.649 -0.549,-0.649l-8.676 0c-0.542,0 -0.998,0.528 -0.998,1.047z"></path>
   <path class="fil1" d="M90.236 18.701l0 16.805c0,0.315 0.143,0.569 0.309,0.737 0.2,0.202 0.332,0.307 0.705,0.339 0.553,0.048 1.08,-0.474 1.08,-1.026l0 -16.905c0,-1.473 -2.094,-1.468 -2.094,0.05z"></path>
   <path class="fil2" d="M17.686 24.696c-0.047,0.084 -1.466,1.543 -1.547,1.597 -0.094,0.154 -0.235,0.293 -0.377,0.414 -0.178,0.152 -0.231,0.218 -0.374,0.373 -0.205,0.22 -0.52,0.605 -0.744,0.756 -0.116,0.18 -0.328,0.389 -0.506,0.539 -0.354,0.3 -1.232,1.37 -1.498,1.517 -0.064,0.152 -1.613,1.692 -1.775,1.841 -0.225,0.205 -0.375,0.457 -0.616,0.629 0.156,0.239 0.743,0.685 1.001,0.85 1.697,0.94 3.302,1.205 5.162,0.428 0.656,-0.274 0.85,-0.481 1.367,-0.827l0.05 -0.05 0.049 -0.056c0.222,-0.19 0.512,-0.505 0.684,-0.731 0.24,-0.795 0.196,-1.415 0.096,-2.289 -0.063,-0.551 -0.169,-1.656 -0.313,-2.154 -0.172,-1.035 -0.395,-2.402 -0.057,-3.399l-0.602 0.562z"></path>
   <path class="fil3" d="M19.075 23.288l-0.05 0.05 -0.049 0.064c-0.265,0.228 -0.515,0.456 -0.688,0.732 -0.338,0.997 -0.115,2.364 0.057,3.399 0.144,0.498 0.25,1.603 0.313,2.154 0.1,0.874 0.144,1.494 -0.096,2.289 0.14,-0.075 0.099,-0.068 0.218,-0.158 0.14,-0.218 0.769,-0.877 1.019,-1.028l0.527 -0.614c0.23,-0.16 0.353,-0.426 0.6,-0.567 0.059,-0.103 1.485,-1.584 1.583,-1.649 0.087,-0.135 0.197,-0.252 0.325,-0.365 0.176,-0.157 0.241,-0.16 0.337,-0.355 0.398,-0.266 0.962,-1.119 1.339,-1.33 0.056,-0.13 0.111,-0.128 0.231,-0.246 0.102,-0.1 0.168,-0.178 0.266,-0.283 0.189,-0.201 0.346,-0.362 0.536,-0.562l1.062 -1.067c-0.305,-0.545 -1.593,-1.252 -2.237,-1.468l-1.025 -0.242c-0.346,0 -0.512,-0.07 -0.826,-0.052 -0.212,0.013 -0.614,0.061 -0.807,0.093 -0.389,0.066 -1.148,0.276 -1.388,0.446 -0.464,0.157 -0.875,0.511 -1.247,0.759z"></path>
   <path class="fil4" d="M17.629 33.089c-0.432,0.45 -0.829,1.567 -0.961,2.254 -0.237,1.232 -0.06,3.046 0.686,4.125l0.171 0.177c-0.003,0.222 0.55,0.845 0.703,0.947 0.072,-0.049 0.545,-0.57 0.596,-0.648 0.185,-0.121 0.893,-0.824 0.999,-1.01 0.149,-0.075 0.159,-0.119 0.271,-0.265 0.1,-0.132 0.178,-0.196 0.29,-0.308 0.204,-0.204 0.448,-0.38 0.586,-0.626 0.167,-0.08 1.596,-1.624 1.596,-1.624 0.188,-0.143 0.317,-0.3 0.487,-0.468 0.18,-0.178 0.264,-0.318 0.448,-0.499 0.34,-0.337 0.646,-0.633 0.982,-0.985l0.963 -1.009c0.312,-0.313 0.722,-0.673 0.995,-1 0.628,-0.751 1.208,-1.311 1.54,-2.449 0.479,-1.643 0.388,-3.349 -0.499,-4.846 -0.183,-0.308 -0.609,-0.976 -0.877,-1.103l-1.062 1.067c-0.19,0.2 -0.347,0.361 -0.536,0.562 -0.098,0.105 -0.164,0.183 -0.266,0.283 -0.12,0.118 -0.175,0.116 -0.231,0.246 -0.377,0.211 -0.941,1.064 -1.339,1.33 -0.096,0.195 -0.161,0.198 -0.337,0.355 -0.128,0.113 -0.238,0.23 -0.325,0.365 -0.098,0.065 -1.524,1.546 -1.583,1.649 -0.247,0.141 -0.37,0.407 -0.6,0.567l-0.527 0.614c-0.25,0.151 -0.879,0.81 -1.019,1.028 -0.119,0.09 -0.078,0.083 -0.218,0.158 -0.172,0.226 -0.462,0.541 -0.684,0.731l-0.049 0.056 -0.05 0.05c-0.062,0.23 -0.08,0.072 -0.15,0.276z"></path>
   <path class="fil5" d="M19.434 22.64c0.134,-0.092 0.043,0.004 0.142,-0.149l0.247 -0.499c0.099,-0.221 0.182,-0.488 0.256,-0.742 0.126,-0.434 0.265,-1.166 0.245,-1.753 -0.029,-0.826 -0.239,-1.725 -0.583,-2.409 -0.066,-0.129 -0.111,-0.218 -0.166,-0.333 -0.108,-0.228 -0.086,-0.222 -0.224,-0.299 -0.005,-0.135 -0.027,-0.14 -0.116,-0.258 -0.173,-0.231 -0.39,-0.543 -0.608,-0.689l-0.998 1.046c-0.142,0.098 -0.233,0.211 -0.362,0.338 -0.156,0.155 -0.209,0.249 -0.348,0.399 -0.226,0.245 -0.568,0.502 -0.736,0.764 -0.283,0.176 -0.585,0.557 -0.813,0.829 -0.25,0.299 -0.609,0.558 -0.833,0.854 -0.395,0.309 -0.722,0.757 -1.084,1.118 -0.261,0.261 -0.968,0.886 -1.11,1.156l-0.461 0.465c-0.179,0.178 -0.32,0.32 -0.499,0.499l-0.747 0.748c-0.827,0.938 -1.332,1.41 -1.753,2.685 -0.155,0.468 -0.251,0.996 -0.28,1.536l0 0.685c0.023,0.425 0.09,0.844 0.205,1.234 0.182,0.615 0.284,0.832 0.576,1.369 0.164,0.303 0.62,0.97 0.865,1.128 0.241,-0.172 0.391,-0.424 0.616,-0.629 0.162,-0.149 1.711,-1.689 1.775,-1.841 0.266,-0.147 1.144,-1.217 1.498,-1.517 0.178,-0.15 0.39,-0.359 0.506,-0.539 0.224,-0.151 0.539,-0.536 0.744,-0.756 0.143,-0.155 0.196,-0.221 0.374,-0.373 0.142,-0.121 0.283,-0.26 0.377,-0.414 0.081,-0.054 1.5,-1.513 1.547,-1.597l0.602 -0.562c0.173,-0.276 0.423,-0.504 0.688,-0.732 0,-0.08 -0.023,-0.064 0.049,-0.064l0.05 -0.05c0.045,-0.166 0.19,-0.282 0.293,-0.458l0.066 -0.19z"></path>
  </g>
 </g>
</svg>