<svg width="166" height="166" viewbox="0 0 166 166" fill="none" xmlns="http://www.w3.org/2000/svg">
<rect width="166" height="166" rx="8" fill="#008763" fill-opacity="0.05"></rect>
<path d="M125.008 72.7479C136.627 72.7479 146.045 63.3358 146.045 51.7253C146.045 40.1148 136.627 30.7026 125.008 30.7026C113.389 30.7026 103.971 40.1148 103.971 51.7253C103.971 63.3358 113.389 72.7479 125.008 72.7479Z" fill="white" stroke="#008763" stroke-width="4" stroke-linecap="round" stroke-linejoin="round"></path>
<path d="M132.343 47.394L123.649 56.0826L118.65 51.0884" stroke="#008763" stroke-width="4" stroke-linecap="round" stroke-linejoin="round"></path>
<path d="M26.9367 126.025C26.9367 126.025 13.7873 22.9521 62.5891 22.9521C111.391 22.9521 99.9416 127.425 99.9416 127.425L26.9367 126.025Z" fill="white" stroke="#008763" stroke-width="4" stroke-linecap="round" stroke-linejoin="round"></path>
<path d="M19.9551 130.354C25.1054 113.793 38.6915 118.914 47.5095 108.513C56.3274 98.1119 52.578 82.5112 52.578 82.5112H73.8291C73.8291 82.5112 70.0588 103.08 81.9014 111.033C93.5175 118.834 100.588 115.633 106.483 130.354" fill="#F2F9F7"></path>
<path d="M19.9551 130.354C25.1054 113.793 38.6915 118.914 47.5095 108.513C56.3274 98.1119 52.578 82.5112 52.578 82.5112H73.8291C73.8291 82.5112 70.0588 103.08 81.9014 111.033C93.5175 118.834 100.588 115.633 106.483 130.354" stroke="#008763" stroke-width="4" stroke-linecap="round" stroke-linejoin="round"></path>
<path d="M84.1379 62.1787C84.1379 78.2999 71.2737 92.2749 63.6892 92.2749C56.0064 92.2749 42.7336 79.1786 41.8885 63.0849C41.0219 46.5939 54.1579 30.3762 61.5195 40.9888C76.2213 62.1787 84.1379 46.0574 84.1379 62.1787Z" fill="white" stroke="#008763" stroke-width="4" stroke-linecap="round" stroke-linejoin="round"></path>
<path d="M106.444 143.047C118.062 143.047 127.481 133.635 127.481 122.025C127.481 110.414 118.062 101.002 106.444 101.002C94.825 101.002 85.4062 110.414 85.4062 122.025C85.4062 133.635 94.825 143.047 106.444 143.047Z" fill="white" stroke="#008763" stroke-width="4" stroke-linecap="round" stroke-linejoin="round"></path>
<path d="M107.325 129.304C109.267 115.913 93.4919 115.635 93.4919 115.635C93.4919 115.635 91.6886 121.143 96.4908 126.982C101.293 132.82 107.325 129.304 107.325 129.304Z" fill="white" stroke="#008763" stroke-width="4" stroke-linecap="round" stroke-linejoin="round"></path>
<path d="M106.296 129.304C104.355 115.913 120.13 115.635 120.13 115.635C120.13 115.635 121.933 121.143 117.132 126.982C112.33 132.82 106.296 129.304 106.296 129.304Z" fill="white" stroke="#008763" stroke-width="4" stroke-linecap="round" stroke-linejoin="round"></path>
<path d="M59 79C59 79 61.3176 80 63 80C64.6824 80 67 79 67 79" stroke="#008763" stroke-width="2" stroke-linecap="round"></path>
</svg>