<svg class="discover-logo payments-logo" xmlns="http://www.w3.org/2000/svg" width="500px" height="323px" version="1.0" style="shape-rendering:geometricPrecision; text-rendering:geometricPrecision; image-rendering:optimizeQuality; fill-rule:evenodd; clip-rule:evenodd" viewbox="0 0 255.571 164.951" xml:space="preserve" xmlns:xlink="http://www.w3.org/1999/xlink" xmlns:xodm="http://www.corel.com/coreldraw/odm/2003">
 <defs>
  <style type="text/css">
   
    .discover-logo .str0 {stroke:#999999;stroke-width:0.888;stroke-linecap:round;stroke-linejoin:round;stroke-miterlimit:2.61313}
    .discover-logo .str1 {stroke:black;stroke-width:0.592;stroke-linecap:round;stroke-linejoin:round;stroke-miterlimit:2.61313}
    .discover-logo .fil1 {fill:none}
    .discover-logo .fil2 {fill:black}
    .discover-logo .fil3 {fill:#E6772F}
    .discover-logo .fil0 {fill:#E6772F}
   
  </style>
    <clippath id="id0">
     <path d="M11.698 0.444l232.175 0c6.189,0 11.253,5.064 11.253,11.254l0 141.556c0,6.189 -5.064,11.253 -11.253,11.253l-232.175 0c-6.19,0 -11.254,-5.064 -11.254,-11.253l0 -141.556c0,-6.19 5.064,-11.254 11.254,-11.254z"></path>
    </clippath>
 </defs>
 <g id="Layer_x0020_1">
  <metadata id="CorelCorpID_0Corel-Layer"></metadata>
  <g id="_2351059220672">
   <g>
   </g>
   <g style="clip-path:url(#id0)">
    <g id="_2351059223600">
     <path class="fil0" d="M255.126 87.911c0,0 -130.993,76.596 -261.296,76.596 -130.302,0 108.684,42.348 108.684,42.348l222.699 -8.187 -27.245 -103.65 -42.842 -7.107z"></path>
    </g>
   </g>
   <path class="fil1 str0" d="M11.698 0.444l232.175 0c6.189,0 11.253,5.064 11.253,11.254l0 141.556c0,6.189 -5.064,11.253 -11.253,11.253l-232.175 0c-6.19,0 -11.254,-5.064 -11.254,-11.253l0 -141.556c0,-6.19 5.064,-11.254 11.254,-11.254z"></path>
   <g id="_2351059217696">
    <path class="fil2" d="M22.77 80.472l-2.82 0 0 -23.835c1.873,0 3.746,-0.071 5.613,0.229 0.896,0.143 1.645,0.339 2.42,0.601 0.238,0.08 0.307,0.131 0.526,0.212l1.513 0.77c0.328,0.22 0.577,0.395 0.893,0.651 0.174,0.14 0.236,0.188 0.402,0.337l0.218 0.184c1.133,0.949 2.28,2.732 2.851,4.133 0.006,0.015 0.012,0.033 0.018,0.048l0.586 1.832c0.738,2.918 0.215,6.637 -1.263,9.077 -0.653,1.078 -0.522,0.904 -1.249,1.839 -0.746,0.961 -2.239,2.106 -3.45,2.66 -1.815,0.828 -3.635,1.15 -5.659,1.194l-0.599 0.068zm-9.937 6.244c1.98,0 10.875,0.08 12.116,-0.043 0.155,-0.016 0.326,-0.032 0.477,-0.054 0.335,-0.049 0.761,-0.055 1.049,-0.092 1.472,-0.186 2.262,-0.328 3.672,-0.759 0.282,-0.087 0.54,-0.169 0.815,-0.26 2.103,-0.689 3.911,-2.013 5.582,-3.348l0.862 -0.816c0.991,-1.046 1.962,-2.169 2.684,-3.426 0.246,-0.428 0.97,-1.758 1.137,-2.22 0.106,-0.291 0.205,-0.522 0.324,-0.818 0.653,-1.621 0.819,-2.84 1.053,-4.519 0.211,-1.518 0.086,-4.307 -0.272,-5.758 -0.626,-2.537 -1,-3.602 -2.26,-5.729 -0.284,-0.479 -0.604,-0.924 -0.928,-1.355 -1.158,-1.538 -3.093,-3.315 -4.846,-4.286l-1.478 -0.804c-1.178,-0.589 -2.14,-0.844 -3.344,-1.222l-0.898 -0.243c-0.29,-0.085 -0.633,-0.143 -0.944,-0.198 -0.175,-0.031 -0.303,-0.028 -0.482,-0.055l-1.522 -0.223c-1.474,-0.212 -11.089,-0.095 -12.797,-0.095l0 36.323z"></path>
    <path class="fil2" d="M222.379 67.044l-3.021 0 0 -10.877c1.788,0 3.238,-0.078 4.963,0.341 4.886,1.188 4.713,6.98 2.201,9.106 -0.792,0.671 -1.939,1.084 -2.963,1.267l-1.18 0.163zm-10.205 -16.45l0 35.921c0,0.154 0.046,0.201 0.201,0.201l6.781 0c0.334,0 0.202,-0.962 0.202,-1.611l-0.001 -12.22c-0.007,-0.79 -0.106,-0.739 0.605,-0.739 0.348,0 0.476,0.312 0.735,0.743 0.197,0.328 0.406,0.6 0.622,0.922l4.311 6.431c0.233,0.32 0.419,0.585 0.63,0.914 0.107,0.167 0.179,0.304 0.281,0.458l2.811 4.172c0.219,0.315 0.433,0.587 0.614,0.93l8.728 0c-0.024,-0.29 0.006,-0.11 -0.282,-0.524l-1.786 -2.376c-0.118,-0.174 -0.212,-0.307 -0.34,-0.466l-3.913 -5.218c-0.125,-0.168 -0.215,-0.287 -0.345,-0.46 -0.654,-0.869 -4.536,-5.972 -4.613,-6.264 0.898,-0.075 2.42,-0.712 3.312,-1.186 1.911,-1.012 3.45,-2.762 4.166,-4.831 0.826,-2.388 0.957,-4.96 0.31,-7.411 -0.339,-1.283 -0.96,-2.64 -1.796,-3.576 -1.691,-1.893 -2.952,-2.593 -5.589,-3.407 -0.129,-0.04 -0.257,-0.07 -0.429,-0.108 -0.339,-0.077 -0.535,-0.116 -0.896,-0.179 -1.561,-0.269 -2.318,-0.317 -3.846,-0.317l-9.601 0c-0.337,-0.001 -0.872,-0.109 -0.872,0.201z"></path>
    <path class="fil2" d="M187.466 50.594l0 35.921c0,0.154 0.047,0.201 0.201,0.201l19.74 0c0.154,0 0.201,-0.047 0.201,-0.201l0 -5.842c0,-0.154 -0.047,-0.201 -0.201,-0.201l-12.757 0 0 -9.668 12.287 0c0.154,0 0.201,-0.047 0.201,-0.202l0 -5.841c0,-0.155 -0.047,-0.201 -0.201,-0.201l-12.287 0 0 -7.923 12.757 0c0.154,0 0.201,-0.047 0.201,-0.201l0 -6.043 -19.941 0c-0.154,0 -0.201,0.047 -0.201,0.201z"></path>
    <path class="fil2" d="M57.415 60.195c0,0.53 0.061,1.323 0.144,1.804 0.266,1.55 0.716,2.849 1.755,4.085 2.07,2.461 5.87,3.705 8.903,4.795 0.453,0.162 0.911,0.357 1.389,0.557l2.455 1.44c0.673,0.611 1.266,1.758 1.266,2.695 0,1.591 -0.212,2.505 -1.214,3.687l-0.357 0.381c-0.453,0.359 -0.909,0.7 -1.488,0.93 -3.177,1.26 -7.208,-0.119 -9.122,-2.889 -0.116,-0.168 -0.185,-0.281 -0.294,-0.444 -0.166,-0.248 -0.482,-0.7 -0.55,-0.994 -0.306,0.026 -0.935,0.761 -1.251,1.032 -0.498,0.425 -0.929,0.966 -1.423,1.397 -0.595,0.519 -1.656,1.45 -2.026,2.002 0.533,0.796 1.153,1.531 1.765,2.263 0.196,0.234 0.447,0.453 0.669,0.675 0.456,0.456 0.907,0.857 1.43,1.255l1.67 1.083c1.56,0.932 3.382,1.37 5.218,1.563 0.222,0.023 0.419,-0.002 0.643,0.028 0.192,0.026 0.324,0.052 0.621,0.05 2.349,-0.009 4.54,-0.246 6.672,-1.321 2.334,-1.177 4.365,-3.034 5.387,-5.489 0.277,-0.665 0.496,-1.3 0.687,-1.999 0.582,-2.128 0.502,-5.233 -0.265,-7.296 -0.665,-1.789 -1.9,-3.137 -3.468,-4.187 -0.782,-0.523 -1.626,-1.017 -2.49,-1.403l-4.768 -1.947c-0.257,-0.094 -0.427,-0.188 -0.707,-0.3 -0.935,-0.37 -1.756,-0.768 -2.505,-1.322 -1.948,-1.444 -1.711,-4.061 0.182,-5.421 1.019,-0.733 2.08,-1.014 3.416,-1.084 1.236,-0.065 2.451,0.277 3.524,0.86l0.964 0.647c0.146,0.123 0.164,0.15 0.327,0.277 0.421,0.327 0.765,0.842 1.17,1.114 0.184,-0.175 0.32,-0.382 0.48,-0.595 0.165,-0.221 0.299,-0.392 0.469,-0.605 0.284,-0.354 2.663,-3.398 2.744,-3.702 -0.121,-0.165 -0.772,-0.664 -0.988,-0.825l-3.509 -1.997c-2.996,-1.317 -7.525,-1.671 -10.725,-0.382 -1.181,0.476 -2.49,1.136 -3.394,2.045 -1.507,1.516 -2.57,2.944 -3.089,5.102 -0.151,0.63 -0.317,1.634 -0.317,2.435z"></path>
    <path class="fil2" d="M165.041 87.656l3.491 0c0.303,0 0.435,-0.625 0.602,-1.01l5.153 -12.236c0.498,-1.145 1.839,-4.194 2.237,-5.283 0.601,-1.648 1.931,-4.492 2.664,-6.333 0.099,-0.249 0.169,-0.362 0.27,-0.603 0.341,-0.819 0.638,-1.563 0.977,-2.38l1.481 -3.487c0.185,-0.412 0.317,-0.768 0.496,-1.183l0.362 -0.845c0.042,-0.093 0.079,-0.193 0.116,-0.287l0.729 -1.756c0.103,-0.235 0.169,-0.348 0.269,-0.603 0.145,-0.367 0.422,-0.833 0.422,-1.257l-7.519 0c-0.195,0 -0.167,0.086 -0.243,0.228l-9.49 23.61c-0.069,0.174 -0.059,0.226 -0.204,0.333l-2.388 -6.072c-0.418,-1.037 -0.792,-1.977 -1.209,-3.021l-1.199 -3.031c-0.199,-0.526 -0.387,-0.968 -0.595,-1.487l-1.199 -3.03c-0.846,-2.088 -1.867,-4.889 -2.724,-6.877 -0.188,-0.435 -0.164,-0.653 -0.422,-0.653l-7.586 0c0.008,0.372 0.485,1.382 0.641,1.775l1.7 4.075c0.086,0.21 0.142,0.358 0.229,0.577l1.222 2.94c0.941,2.104 1.817,4.564 2.753,6.647l4.964 12.022c0.636,1.589 1.297,3.095 1.919,4.661 0.077,0.195 0.137,0.361 0.235,0.57l1.461 3.508c0.084,0.204 0.131,0.488 0.385,0.488z"></path>
    <path class="fil2" d="M101.862 87.522c2.085,0 3.182,-0.156 5.13,-0.645 1.372,-0.344 2.32,-0.774 3.534,-1.299 0.18,-0.078 0.4,-0.096 0.4,-0.339l0 -7.99c0,-0.441 -0.315,0.059 -0.816,0.46l-0.929 0.817c-1.141,0.87 -2.243,1.548 -3.709,1.998 -2.415,0.741 -5.639,0.47 -7.821,-0.407l-1.551 -0.732c-2.854,-1.724 -4.469,-3.911 -5.401,-7.154 -0.043,-0.149 -0.055,-0.287 -0.094,-0.443 -0.051,-0.205 -0.074,-0.241 -0.119,-0.485 -0.496,-2.685 -0.267,-5.798 0.879,-8.176 0.353,-0.733 0.639,-1.234 1.07,-1.884 0.347,-0.524 0.869,-1.189 1.319,-1.635 2.003,-1.985 4.761,-3.397 7.642,-3.44 0.113,-0.002 0.207,-0.011 0.312,-0.017 1.006,-0.053 2.159,0.077 3.139,0.321 0.874,0.218 1.647,0.524 2.323,0.899 0.675,0.375 1.802,1.132 2.393,1.635 0.175,0.15 0.24,0.245 0.423,0.384 0.172,0.131 0.259,0.222 0.419,0.386 0.18,0.185 0.235,0.329 0.521,0.352l0 -8.325c-0.573,-0.303 -1.165,-0.549 -1.79,-0.829l-3.466 -1.1c-1.658,-0.281 -3.331,-0.485 -5.044,-0.247 -0.745,0.104 -0.779,0.023 -1.556,0.19l-3.344 0.819 -1.722 0.695c-0.573,0.255 -1.018,0.485 -1.563,0.786 -0.274,0.152 -0.486,0.292 -0.744,0.465 -2.95,1.983 -5.17,4.171 -6.799,7.435 -0.716,1.433 -1.257,2.78 -1.594,4.381 -0.853,4.051 -0.474,8.397 1.155,11.924 0.124,0.269 0.22,0.551 0.351,0.791 0.704,1.287 0.917,1.722 1.83,2.937l1.675 1.951c1.7,1.555 3.532,2.944 5.672,3.862l0.825 0.316c0.295,0.108 0.576,0.226 0.882,0.327l0.923 0.285c1.557,0.443 3.487,0.731 5.245,0.731z"></path>
    <path class="fil2" d="M45.867 50.594l0 35.921c0,0.154 0.046,0.201 0.201,0.201l6.781 0c0.155,0 0.202,-0.047 0.202,-0.201l0 -35.921c0,-0.154 -0.047,-0.201 -0.202,-0.201l-6.781 0c-0.155,0 -0.201,0.047 -0.201,0.201z"></path>
    <line class="fil2" x1="241.514" y1="54.556" x2="241.514" y2="54.556"></line>
    <circle class="fil3" cx="131.989" cy="69.544" r="19.256"></circle>
    <circle class="fil1 str1" cx="239.892" cy="52.969" r="2.846"></circle>
    <path class="fil2" d="M239.864 52.83l-0.281 0 0 -1.012c0.166,0 0.301,-0.008 0.462,0.031 0.455,0.111 0.438,0.65 0.205,0.848 -0.074,0.062 -0.181,0.101 -0.276,0.118l-0.11 0.015zm-0.95 -1.531l0 3.343c0,0.014 0.005,0.018 0.019,0.018l0.631 0c0.031,0 0.019,-0.089 0.019,-0.149l0 -1.138c-0.001,-0.073 -0.01,-0.068 0.056,-0.068 0.033,0 0.045,0.029 0.069,0.069 0.018,0.03 0.037,0.056 0.058,0.086l0.401 0.598c0.021,0.03 0.039,0.054 0.058,0.085 0.01,0.016 0.017,0.028 0.026,0.043l0.262 0.388c0.02,0.029 0.04,0.055 0.057,0.086l0.812 0c-0.002,-0.027 0.001,-0.01 -0.026,-0.048l-0.166 -0.221c-0.011,-0.017 -0.02,-0.029 -0.032,-0.044l-0.364 -0.485c-0.012,-0.016 -0.02,-0.027 -0.032,-0.043 -0.061,-0.081 -0.422,-0.556 -0.429,-0.583 0.083,-0.007 0.225,-0.066 0.308,-0.11 0.178,-0.095 0.321,-0.257 0.388,-0.45 0.077,-0.222 0.089,-0.462 0.028,-0.69 -0.031,-0.119 -0.089,-0.245 -0.167,-0.332 -0.157,-0.177 -0.274,-0.242 -0.52,-0.317 -0.012,-0.004 -0.024,-0.007 -0.04,-0.011 -0.031,-0.007 -0.049,-0.01 -0.083,-0.016 -0.145,-0.025 -0.216,-0.03 -0.358,-0.03l-0.893 0c-0.032,0 -0.082,-0.01 -0.082,0.019z"></path>
   </g>
  </g>
 </g>
</svg>