<svg class="featured-logo-svg" xmlns="http://www.w3.org/2000/svg" width="1506px" height="356px" version="1.0" style="shape-rendering:geometricPrecision; text-rendering:geometricPrecision; image-rendering:optimizeQuality; fill-rule:evenodd; clip-rule:evenodd" viewbox="0 0 174.364 41.249" xml:space="preserve" xmlns:xlink="http://www.w3.org/1999/xlink" xmlns:xodm="http://www.corel.com/coreldraw/odm/2003">
 <defs>
  <style type="text/css">
   
    .featured-logo-svg .fil0 {fill:#C2BCB1}
   
  </style>
 </defs>
 <g id="Layer_x0020_1">
  <metadata id="CorelCorpID_0Corel-Layer"></metadata>
  <g id="_2691782352144">
   <path class="fil0" d="M54.417 11.231c0.088,0.127 0.021,-0.084 0.156,0.306 0.083,0.238 0.053,0.211 0.107,0.473l2.863 13.346 -6.021 0 1.126 -5.127c0.144,-0.7 0.275,-1.18 0.38,-1.819 0.201,-1.222 0.495,-2.294 0.725,-3.559 0.187,-1.024 0.664,-2.617 0.664,-3.62zm-3.705 -10.305c0,0.742 -1.956,8.762 -2.247,9.911 -0.111,0.437 -0.196,0.863 -0.27,1.235 -0.518,2.601 -1.391,5.952 -2.028,8.624l-2.326 9.831c-0.228,0.848 -0.352,1.609 -0.562,2.448l-1.572 6.768c-0.118,0.47 -0.155,-0.061 -0.026,0.549 2.147,0 4.354,0.116 6.498,0.014 0.533,-0.025 0.478,0.021 0.59,-0.452l1.365 -6.276c0.119,-0.487 0.346,-1.31 0.346,-1.854l7.989 0 0.762 4.216c0.233,1.132 0.743,3.321 0.743,4.352l14.241 0c0.129,-0.555 0,-20.097 0,-22.462 0,-0.647 0.126,-0.481 0.052,-1.087 -0.054,-0.444 -0.054,-0.763 -0.053,-1.228 0.002,-0.423 -0.006,-0.836 0.018,-1.258l-0.017 -1.174c0.248,0.392 3.016,13.218 3.125,13.664l2.316 10.303c0.122,0.516 0.536,3.242 1.043,3.242 5.43,0 4.524,0.497 5.024,-1.46l1.922 -8.497c0.384,-1.622 0.869,-3.446 1.141,-5.112 0.11,-0.676 0.248,-0.995 0.379,-1.705l1.93 -8.491c0.114,-0.481 0.157,-1.333 0.487,-1.712l0.001 25.705c0,0.38 -0.287,1.272 0.23,1.272l7.41 0c0.447,0 0.361,-0.369 0.358,-0.801 -0.1,-12.853 -0.01,-25.711 -0.01,-38.565 -0.991,-0.23 -10.008,-0.23 -10.999,0 -0.016,0.681 -3.232,16.54 -3.758,18.82 -0.289,1.254 -1.221,5.255 -1.221,6.305l-0.232 0c0,-0.783 -0.084,-1.071 -0.203,-1.65 -0.115,-0.557 -0.16,-1.029 -0.284,-1.568l-2.954 -17.423c-0.1,-0.569 -0.144,-1.086 -0.264,-1.589l-0.406 -2.373c-0.065,-0.356 -0.009,-0.637 -0.404,-0.637l-11.231 0c-0.609,0 -0.347,1.421 -0.347,1.852l-0.116 34.039c0,-1.112 -0.656,-3.389 -0.928,-4.513 -0.187,-0.769 -0.299,-1.481 -0.49,-2.289l-3.515 -15.704c-0.779,-3.415 -1.379,-6.857 -2.284,-10.22 -0.111,-0.414 -0.144,-0.71 -0.242,-1.148 -0.094,-0.426 -0.164,-0.685 -0.246,-1.143 -0.077,-0.426 -0.083,-0.874 -0.515,-0.874 -1.275,0 -7.465,-0.178 -8.22,0.115z"></path>
   <path class="fil0" d="M161.513 18.409l-2.316 0 0 -11.115c1.055,-0.023 1.976,-0.381 3.708,0.229 2.266,0.796 2.822,2.723 2.994,4.886 0.092,1.149 -0.206,3.205 -0.942,4.234 -0.733,1.023 -2.176,1.766 -3.444,1.766zm-10.189 -17.251l0 39.134 7.526 0c0.267,0 0.347,-0.081 0.347,-0.348l0 -14.704 2.547 0c0.012,0.534 1.852,6.635 2.157,7.569l2.243 7.483 8.22 0 -3.488 -10.406c-2.998,-8.997 -2.54,-5.055 0.38,-8.681 1.819,-2.259 2.613,-4.08 2.764,-6.966 0.083,-1.595 -0.231,-4.863 -0.655,-6.293 -0.482,-1.623 -1.454,-3.502 -2.772,-4.522 -1.294,-1.002 -1.235,-1.139 -3.009,-1.854 -1.123,-0.453 -2.588,-0.759 -4.103,-0.759l-11.809 0c-0.267,0 -0.348,0.08 -0.348,0.347z"></path>
   <path class="fil0" d="M109.18 26.398l0 -12.504c0,-1.277 0.409,-3.15 0.847,-4.016 0.919,-1.819 2.23,-3.244 4.184,-1.594 1.244,1.05 1.916,3.735 1.916,5.378l0 13.894c0,7.549 -5.132,8.089 -6.369,3.591 -0.486,-1.768 -0.578,-2.847 -0.578,-4.749zm1.969 14.704c3.515,0 5.425,0.299 8.354,-2.066 3.739,-3.018 5.423,-10.9 5.423,-16.111 0,-5.072 0.087,-9.045 -1.547,-13.852 -0.534,-1.571 -1.595,-3.679 -2.646,-4.879 -1.842,-2.101 -3.644,-3.405 -6.584,-3.836 -1.42,-0.209 0.622,-0.242 -2.074,-0.242l-1.6 0.369c-0.954,0.236 -1.988,0.563 -2.852,1.084l-2.238 1.699c-0.224,0.229 -0.223,0.248 -0.422,0.504 -0.202,0.26 -0.3,0.313 -0.497,0.545 -0.157,0.185 -0.252,0.361 -0.381,0.545l-1.177 1.949c-1.25,2.631 -2.337,6.655 -2.415,9.511l-0.13 5.692c0.068,0.576 0.022,2.644 0.182,3.757 0.092,0.639 0.158,1.133 0.252,1.716 0.111,0.687 0.154,1.121 0.27,1.699 0.124,0.617 0.209,1.06 0.356,1.611 1.278,4.794 4.056,10.305 9.726,10.305z"></path>
   <path class="fil0" d="M135.81 41.218c2.366,0 4.909,0.218 7.034,-0.491 2.44,-0.814 3.924,-1.991 5.233,-4.261 1.967,-3.411 1.626,-7.026 1.626,-10.763l0.001 -23.62c0.005,-0.552 0.169,-1.272 -0.348,-1.272l-7.063 0c-0.552,0 -0.347,0.938 -0.347,1.968l0 25.587c0,1.87 0.299,4.308 -1.655,5.292 -1.695,0.855 -4.716,0.671 -5.736,-0.911 -0.79,-1.224 -0.598,-2.25 -0.598,-4.149 0,-8.706 -0.13,-18.23 0.007,-26.868 0.008,-0.491 0.115,-0.919 -0.354,-0.919l-7.063 0c-0.576,0 -0.347,1.659 -0.347,2.778l0 22.114c0,3.276 -0.416,5.27 0.633,8.514 0.811,2.509 1.94,4.139 4.066,5.544 1.092,0.722 3.153,1.457 4.911,1.457z"></path>
   <path class="fil0" d="M0 20.03c0,6.542 0.676,15.264 6.398,19.421 2.269,1.648 6.014,1.786 8.641,0.944 0.984,-0.314 2.129,-0.934 2.879,-1.636l0.535 -0.507c0.605,-0.554 0.782,-0.966 1.117,-1.547l0.344 -0.466 0.926 4.053 3.474 0 0 -20.725 -11.462 0c-0.547,0 -0.252,0.37 -0.325,1.538 -0.065,1.024 -0.074,3.996 0.093,4.714 1.038,0 3.954,0.209 4.631,-0.116 0,2.863 0.077,7.019 -2.9,7.868 -0.529,0.151 -2.274,0.369 -3.047,-0.068 -2.366,-1.334 -3.199,-8.5 -3.199,-11.157 0,-1.737 -0.101,-4.278 0.136,-5.884 0.43,-2.911 0.658,-6.253 2.769,-8.462l0.359 -0.336c1.798,-1.547 4.034,-0.561 5.226,1.561 1.23,2.189 0.793,5.241 0.799,5.283 0.082,0.6 0.221,0.312 0.552,0.312l6.02 0c0,-2.026 0.023,-3.432 -0.36,-5.429 -0.165,-0.864 -0.5,-1.94 -0.779,-2.694 -0.336,-0.912 -0.65,-1.572 -1.153,-2.321 -0.969,-1.445 -2.085,-2.64 -3.744,-3.318 -1.663,-0.679 -4.404,-1.416 -6.044,-0.866l-0.243 0.105c-0.104,0.038 -0.254,0.078 -0.36,0.103 -2.746,0.67 -4.241,1.537 -6.219,3.506 -0.318,0.316 -0.513,0.597 -0.807,0.93 -1.817,2.062 -3.207,5.994 -3.663,8.726 -0.335,2.004 -0.594,4.165 -0.594,6.468z"></path>
   <path class="fil0" d="M25.472 1.39l0 38.902 15.514 0 0 -7.295 -7.526 0c0.148,-0.695 -0.101,-2.169 0.017,-3.224 0.118,-1.052 0.099,-2.269 0.099,-3.491l0 -25.124c0,-0.565 -1.196,-0.348 -1.737,-0.347l-6.367 0c-0.142,0.667 0,0.051 0,0.579z"></path>
   <path class="fil0" d="M135.81 33.576l0.034 -0.034c-0.002,0.002 -0.046,0.023 -0.034,0.034z"></path>
  </g>
 </g>
</svg>