<svg width="112" height="112" viewbox="0 0 112 112" fill="none" xmlns="http://www.w3.org/2000/svg">
<path d="M69.7666 100.519C79.7597 100.519 87.8607 92.4178 87.8607 82.4247C87.8607 72.4316 79.7597 64.3306 69.7666 64.3306C59.7735 64.3306 51.6725 72.4316 51.6725 82.4247C51.6725 92.4178 59.7735 100.519 69.7666 100.519Z" fill="white" stroke="#008763" stroke-width="1.2" stroke-miterlimit="2.61313" stroke-linecap="round" stroke-linejoin="round"></path>
<path d="M70.3066 69.1986V82.5725H83.3339" stroke="#008763" stroke-width="1.2" stroke-miterlimit="2.61313" stroke-linecap="round" stroke-linejoin="round"></path>
<path d="M54.546 91.4529C45.4923 92.4529 30.6916 91.7196 30.0383 89.2661V47.291C30.0383 47.291 29.9049 45.0642 33.1717 44.1842L35.8652 43.9575H45.7323H55.5994L58.2928 44.1842C61.573 45.0642 61.4263 47.291 61.4263 47.291V66.8118" stroke="#008763" stroke-width="1.2" stroke-miterlimit="2.61313"></path>
<path d="M51.5727 61.7716V60.6382H52.5594L52.5727 60.6249C52.4394 60.5582 52.3061 60.4782 52.1727 60.3849C52.0394 60.2915 51.9194 60.1849 51.8127 60.0649C51.706 59.9449 51.6127 59.7982 51.546 59.6382C51.4794 59.4782 51.4394 59.3048 51.4394 59.1048C51.4394 58.7048 51.586 58.3981 51.866 58.1848C52.1461 57.9714 52.5194 57.8781 52.9861 57.8781H56.0796V59.0648H53.0528C52.7861 59.0648 52.5727 59.1315 52.4261 59.2515C52.2794 59.3715 52.1994 59.5582 52.1994 59.7849C52.1994 59.9849 52.2527 60.1449 52.3594 60.2782C52.4661 60.4115 52.5861 60.5182 52.7461 60.5982H56.0796V61.7849H51.586L51.5727 61.7716ZM56.1329 69.8386V69.6519H56.1996V70.1186H56.1329V69.932H55.6395V69.852H56.1329V69.8386ZM55.6395 70.7187H56.0529L55.7195 70.5187V70.4786L56.0529 70.2786H55.6529V70.1986H56.2129V70.2653L55.8129 70.5053L56.2129 70.732V70.7987H55.6529V70.7187H55.6395ZM56.1062 64.8784C56.0262 64.7317 55.9329 64.5851 55.8262 64.4651C55.7195 64.3317 55.5995 64.2117 55.4662 64.105C55.3462 63.9984 55.2395 63.905 55.1462 63.825H56.0662V62.6383H53.4928H51.5727V63.8384H54.9462C55.0529 63.9317 55.1329 64.0117 55.1995 64.105C55.2529 64.1984 55.2929 64.2784 55.2929 64.3584C55.2929 64.4117 55.2795 64.4784 55.2662 64.5584C55.2395 64.6384 55.2129 64.7184 55.1862 64.8117C55.1462 64.8917 55.1062 64.9717 55.0662 65.0517C55.0129 65.1317 54.9595 65.1984 54.9062 65.2384V65.3318H56.2396C56.2396 65.1584 56.2129 65.0384 56.1329 64.8917L56.1062 64.8784ZM50.6793 57.2647C50.6793 56.7847 50.6393 56.3314 50.5593 55.9314C50.4793 55.518 50.3593 55.1713 50.186 54.878C50.0126 54.5846 49.7993 54.3446 49.5326 54.1713C49.2659 53.9979 48.9593 53.9179 48.5859 53.9179V53.7179C48.6392 53.7179 48.6659 53.7179 48.6659 53.7179C49.1059 53.7313 49.5326 53.8246 49.9326 53.9846C50.3593 54.1713 50.746 54.4246 51.066 54.7446C51.3994 55.0646 51.6527 55.438 51.8527 55.8647C52.0527 56.2914 52.1461 56.7581 52.1461 57.2647H50.666H50.6793ZM51.626 53.6913C51.626 54.0646 51.706 54.3713 51.8794 54.638C52.0527 54.9046 52.2794 55.118 52.5861 55.2913C52.8794 55.4647 53.2394 55.5847 53.6528 55.6647C54.0661 55.7447 54.5062 55.7847 54.9995 55.7847C55.4795 55.7847 55.9329 55.7447 56.3462 55.6647C56.7596 55.5847 57.1063 55.4647 57.413 55.2913C57.7063 55.118 57.9463 54.9046 58.1196 54.638C58.293 54.3713 58.373 54.0646 58.373 53.6913C58.373 53.3179 58.293 53.0112 58.1196 52.7445C57.9463 52.4779 57.7063 52.2645 57.413 52.0912C57.1063 51.9178 56.7596 51.7978 56.3462 51.7178C55.9329 51.6378 55.4929 51.5978 55.0129 51.5978C54.5328 51.5978 54.0928 51.6378 53.6795 51.7178C53.2661 51.7978 52.9194 51.9178 52.6127 52.0912C52.3194 52.2645 52.0794 52.4779 51.906 52.7445C51.7327 53.0112 51.6527 53.3179 51.6527 53.6913H51.626ZM51.4394 53.4246C51.466 53.0512 51.5594 52.6779 51.706 52.3445C51.8927 51.9178 52.1461 51.5312 52.4661 51.2111C52.7861 50.8911 53.1594 50.6245 53.5861 50.4244C54.0128 50.2244 54.4795 50.1311 54.9862 50.1311C55.4795 50.1311 55.9462 50.2244 56.3862 50.4244C56.8129 50.6245 57.1996 50.8778 57.5196 51.2111C57.8396 51.5312 58.093 51.9178 58.2797 52.3445C58.4663 52.7712 58.5597 53.2246 58.5597 53.6913C58.5597 54.1579 58.4663 54.6113 58.2797 55.038C58.093 55.4647 57.8396 55.8513 57.5196 56.1714C57.1996 56.5047 56.8129 56.7581 56.3862 56.9581C55.9596 57.1581 55.4929 57.2514 54.9862 57.2514C54.4928 57.2514 54.0261 57.1581 53.5861 56.9581C53.1594 56.7581 52.7728 56.5047 52.4661 56.1714C52.1461 55.838 51.8927 55.4647 51.706 55.038C51.5327 54.638 51.4527 54.2113 51.4394 53.7713C51.4394 53.7713 51.4394 53.5446 51.4527 53.4112L51.4394 53.4246ZM54.4795 66.6118C54.6928 66.6251 54.8928 66.6518 55.0795 66.7052C55.2662 66.7452 55.4262 66.8118 55.5729 66.8918C55.7195 66.9718 55.8262 67.0652 55.9062 67.1852C55.9862 67.3052 56.0262 67.4385 56.0262 67.5852C56.0262 67.8252 55.9196 68.0119 55.7195 68.1452C55.5195 68.2786 55.0395 68.3319 54.5862 68.3319H54.2928L53.5195 66.7052C53.7461 66.6385 53.9861 66.6118 54.2928 66.6118H54.4795ZM52.8794 69.4519C52.7328 69.3319 52.5994 69.1586 52.4927 68.9586C52.3861 68.7452 52.3327 68.4919 52.3327 68.1985C52.3327 67.9719 52.3727 67.7585 52.4394 67.5585C52.5061 67.3585 52.6261 67.1985 52.7861 67.0518C52.9328 66.9185 53.1194 66.8252 53.3461 66.7452L54.5862 69.4653C54.5862 69.4653 55.0395 69.4519 55.5995 69.0386C55.7995 68.8919 55.9196 68.6652 56.0396 68.4386C56.1596 68.1985 56.2129 67.9319 56.2129 67.6385C56.2129 67.3585 56.1596 67.0785 56.0396 66.8118C55.9196 66.5451 55.7595 66.3051 55.5329 66.1051C55.3195 65.9051 55.0529 65.7318 54.7595 65.6118C54.4528 65.4918 54.1195 65.4251 53.7461 65.4251C53.4261 65.4251 53.1194 65.4784 52.8394 65.5851C52.5594 65.6918 52.3194 65.8384 52.1061 66.0251C51.8927 66.2118 51.7327 66.4385 51.6127 66.7052C51.4927 66.9718 51.4394 67.2652 51.4394 67.5985C51.4394 68.1052 51.5727 68.5319 51.8394 68.8519C52.1061 69.1719 52.4527 69.3986 52.8661 69.5319L52.8928 69.4786L52.8794 69.4519Z" fill="#008763"></path>
<path fill-rule="evenodd" clip-rule="evenodd" d="M44.559 57.2114H44.5723C44.639 57.2647 44.7056 57.3047 44.759 57.3447C44.8123 57.3714 44.8657 57.3981 44.919 57.4247C44.9723 57.4381 45.039 57.4514 45.0923 57.4647C45.159 57.4781 45.2257 57.4781 45.319 57.4781H47.3458C47.4124 57.4781 47.4658 57.4647 47.5058 57.4514C47.5591 57.4381 47.5991 57.4247 47.6391 57.3981C47.6791 57.3714 47.7191 57.3447 47.7591 57.3047C47.7991 57.2647 47.8391 57.2247 47.8791 57.1714H47.8924V57.8248L45.1457 59.0648L47.8924 60.2782V60.8915H47.8791C47.8391 60.8249 47.7858 60.7849 47.7458 60.7449C47.7058 60.7049 47.6524 60.6782 47.6124 60.6515C47.5591 60.6249 47.5058 60.6115 47.4524 60.5982C47.3858 60.5849 47.3191 60.5849 47.2391 60.5849H45.2657C45.1857 60.5849 45.119 60.5849 45.0657 60.5982C45.0123 60.5982 44.959 60.6115 44.9057 60.6249C44.8523 60.6382 44.8123 60.6515 44.759 60.6782C44.7056 60.7049 44.6523 60.7315 44.599 60.7715H44.5856V60.0382H44.599C44.6523 60.0782 44.7056 60.1048 44.759 60.1315C44.8123 60.1582 44.8523 60.1715 44.9057 60.1849C44.959 60.1982 45.0123 60.2115 45.0657 60.2115C45.119 60.2115 45.199 60.2249 45.2657 60.2249H47.5324L44.6656 58.9581V58.8781L47.5458 57.5714L45.319 57.5847C45.239 57.5847 45.159 57.5847 45.0923 57.5981C45.0257 57.6114 44.9723 57.6247 44.919 57.6514C44.8657 57.6781 44.8123 57.7047 44.759 57.7447C44.7056 57.7847 44.639 57.8381 44.5723 57.9048H44.559V57.2114ZM47.5458 61.6649C47.4791 61.6649 47.4258 61.6382 47.3858 61.5982C47.3458 61.5582 47.3191 61.5049 47.3191 61.4382C47.3191 61.3716 47.3458 61.3316 47.3858 61.2782C47.4258 61.2382 47.4791 61.2116 47.5458 61.2116C47.6124 61.2116 47.6524 61.2382 47.7058 61.2782C47.7458 61.3182 47.7724 61.3716 47.7724 61.4382C47.7724 61.5049 47.7458 61.5449 47.7058 61.5982C47.6658 61.6382 47.6124 61.6649 47.5458 61.6649ZM44.5723 61.1982C44.6656 61.2382 44.7723 61.2649 44.879 61.2782C44.9857 61.2916 45.1057 61.3049 45.2657 61.3049H46.1057C46.2124 61.3049 46.3057 61.2782 46.3857 61.2382C46.4524 61.1982 46.5191 61.1449 46.5591 61.1049H46.5724L46.8124 61.6382H45.2657C45.1057 61.6382 44.9723 61.6382 44.879 61.6516C44.7723 61.6649 44.679 61.6916 44.5723 61.7316H44.559V61.1982H44.5723ZM45.0657 63.9183C44.8923 63.8517 44.759 63.7583 44.6523 63.6117C44.5456 63.465 44.4923 63.2917 44.4923 63.065C44.4923 62.9183 44.519 62.785 44.5723 62.665C44.6256 62.545 44.6923 62.4383 44.7856 62.3449C44.879 62.2516 44.999 62.1849 45.1323 62.1449C45.2657 62.0916 45.4257 62.0783 45.5857 62.0783C45.7724 62.0783 45.9324 62.1049 46.079 62.1716C46.2257 62.2383 46.3457 62.3183 46.4524 62.4249C46.5591 62.5316 46.6391 62.6516 46.6924 62.785C46.7457 62.9183 46.7724 63.065 46.7724 63.2116C46.7724 63.3583 46.7591 63.4917 46.7191 63.585C46.6924 63.6783 46.6524 63.7583 46.6391 63.8117L46.1724 63.8517L46.159 63.8117C46.2257 63.7717 46.2924 63.7183 46.3591 63.6783C46.4257 63.625 46.4791 63.5717 46.5191 63.5183C46.5591 63.465 46.5991 63.3983 46.6257 63.3317C46.6524 63.265 46.6657 63.1983 46.6657 63.1316C46.6657 62.905 46.5857 62.7316 46.4124 62.5983C46.239 62.4649 46.0124 62.3983 45.7057 62.3983C45.4123 62.3983 45.1857 62.4649 45.0123 62.5983C44.839 62.7316 44.759 62.9316 44.759 63.185C44.759 63.3183 44.7856 63.4383 44.8257 63.5583C44.8657 63.6783 44.9457 63.785 45.0523 63.865L45.039 63.8917L45.0657 63.9183ZM44.5723 64.3317C44.6256 64.3584 44.6656 64.3717 44.719 64.385C44.7723 64.3984 44.8123 64.4117 44.879 64.4117C44.9323 64.4117 44.9857 64.425 45.0523 64.425C45.119 64.425 45.1857 64.425 45.2657 64.425H46.119C46.239 64.425 46.3324 64.3984 46.3991 64.3584C46.4657 64.3184 46.5324 64.265 46.5724 64.225H46.5857L46.8257 64.7317H46.279V64.7584C46.3324 64.8117 46.3857 64.8517 46.4524 64.9051C46.5191 64.9584 46.5724 65.0117 46.6257 65.0784C46.6791 65.1317 46.7191 65.1984 46.7591 65.2651C46.7991 65.3317 46.8124 65.3984 46.8124 65.4784H46.3591V65.4651C46.3724 65.4517 46.3857 65.4251 46.3991 65.3984C46.4124 65.3717 46.4257 65.3317 46.4257 65.3051C46.4391 65.2651 46.4391 65.2384 46.4524 65.1984C46.4524 65.1717 46.4657 65.1317 46.4657 65.1051C46.4657 65.0651 46.4391 65.0117 46.3857 64.9451C46.3324 64.8784 46.2657 64.8117 46.1857 64.7584H45.2923C45.1323 64.7584 44.999 64.7584 44.9057 64.7717C44.799 64.785 44.7056 64.8117 44.599 64.8517H44.5856V64.3184H44.599L44.5723 64.3317ZM44.4923 66.8251C44.4923 66.6651 44.519 66.5185 44.5856 66.3851C44.6523 66.2518 44.7323 66.1318 44.839 66.0251C44.9457 65.9184 45.0657 65.8384 45.199 65.7851C45.3323 65.7184 45.479 65.6918 45.639 65.6918C45.799 65.6918 45.9457 65.7184 46.079 65.7851C46.2124 65.8518 46.3457 65.9318 46.4391 66.0384C46.5457 66.1451 46.6257 66.2651 46.6924 66.3985C46.7591 66.5318 46.7857 66.6785 46.7857 66.8385C46.7857 66.9985 46.7591 67.1452 46.6924 67.2785C46.6257 67.4118 46.5457 67.5318 46.4391 67.6385C46.3324 67.7452 46.2124 67.8252 46.079 67.8785C45.9457 67.9452 45.7857 67.9719 45.639 67.9719C45.479 67.9719 45.3323 67.9452 45.199 67.8785C45.0657 67.8118 44.9457 67.7318 44.839 67.6385C44.7323 67.5318 44.6523 67.4118 44.5856 67.2785C44.519 67.1452 44.4923 66.9985 44.4923 66.8385V66.8251ZM44.5723 66.8251C44.5723 66.9585 44.599 67.0651 44.6523 67.1585C44.7056 67.2518 44.7856 67.3318 44.879 67.3985C44.9723 67.4652 45.0923 67.5052 45.2123 67.5452C45.3457 67.5718 45.479 67.5852 45.6123 67.5852C45.759 67.5852 45.8924 67.5718 46.0124 67.5318C46.1457 67.5052 46.2524 67.4518 46.3457 67.3852C46.4391 67.3185 46.5191 67.2385 46.5857 67.1451C46.6391 67.0518 46.6657 66.9451 46.6657 66.8118C46.6657 66.6785 46.6391 66.5718 46.5857 66.4785C46.5324 66.3851 46.4524 66.3051 46.3457 66.2384C46.2524 66.1718 46.1324 66.1318 46.0124 66.0918C45.879 66.0651 45.7457 66.0384 45.6123 66.0384C45.4657 66.0384 45.3323 66.0518 45.2123 66.0784C45.079 66.1051 44.9723 66.1584 44.879 66.2251C44.7856 66.2918 44.7056 66.3718 44.6523 66.4651C44.599 66.5585 44.5723 66.6651 44.5723 66.7985V66.8251ZM44.559 69.0519C44.6123 69.0919 44.6656 69.1186 44.719 69.1452C44.7723 69.1719 44.8123 69.1852 44.8657 69.1986C44.919 69.2119 44.9723 69.2252 45.0257 69.2252C45.079 69.2252 45.1457 69.2386 45.2257 69.2386H47.1858C47.2658 69.2386 47.3324 69.2386 47.3858 69.2252C47.4391 69.2252 47.4924 69.2119 47.5458 69.1986C47.5991 69.1852 47.6391 69.1719 47.6924 69.1452C47.7458 69.1186 47.7991 69.0919 47.8524 69.0519H47.8658V69.7853H47.8524C47.7991 69.7453 47.7458 69.7186 47.6924 69.6919C47.6391 69.6653 47.5991 69.6519 47.5458 69.6386C47.4924 69.6253 47.4391 69.6119 47.3858 69.6119C47.3324 69.6119 47.2658 69.5986 47.1858 69.5986H45.2257C45.1457 69.5986 45.079 69.5986 45.0257 69.6119C44.9723 69.6119 44.919 69.6253 44.8657 69.6386C44.8123 69.6519 44.7723 69.6653 44.719 69.6919C44.6656 69.7186 44.6123 69.7453 44.559 69.7853H44.5456V69.0519H44.559ZM44.5456 70.732V70.1986H44.559C44.6123 70.2253 44.6523 70.2386 44.7056 70.252C44.759 70.2653 44.799 70.2786 44.8657 70.2786C44.919 70.2786 44.9723 70.292 45.039 70.292C45.1057 70.292 45.1723 70.292 45.2523 70.292H46.1057C46.2257 70.292 46.319 70.2653 46.3857 70.2253C46.4524 70.1853 46.5191 70.1319 46.5591 70.0919H46.5724L46.8124 70.5986H46.3857V70.612C46.5191 70.7186 46.6124 70.8386 46.6791 70.972C46.7457 71.1053 46.7857 71.2387 46.7857 71.3987C46.7857 71.612 46.7324 71.772 46.6124 71.8787C46.4924 71.9854 46.3324 72.0387 46.1324 72.0387H45.2657C45.1857 72.0387 45.1057 72.0387 45.0523 72.0387C44.9857 72.0387 44.9323 72.0387 44.879 72.052C44.8257 72.052 44.7723 72.0654 44.719 72.0787C44.6656 72.092 44.6256 72.1054 44.5723 72.132H44.559V71.5987H44.5723C44.6656 71.6387 44.7723 71.6653 44.879 71.6787C44.9857 71.692 45.1057 71.692 45.2657 71.692H46.0524C46.119 71.692 46.1857 71.6787 46.2524 71.6653C46.319 71.652 46.3724 71.6253 46.4124 71.5853C46.4657 71.5453 46.4924 71.5053 46.5191 71.4387C46.5457 71.372 46.5591 71.3053 46.5591 71.2253C46.5591 71.1187 46.5324 71.012 46.4924 70.9053C46.4524 70.7986 46.3857 70.692 46.2924 70.612H45.2523C45.0923 70.612 44.959 70.612 44.8657 70.6253C44.759 70.6386 44.6656 70.6653 44.559 70.7053H44.5456V70.732ZM44.559 72.6387C44.6256 72.6787 44.6923 72.7054 44.7856 72.7187C44.879 72.7321 45.0123 72.7454 45.1857 72.7454H46.6257V72.4654H46.7057V72.7454H47.0924C47.2524 72.7454 47.3858 72.7587 47.5058 72.7987C47.6258 72.8387 47.7324 72.8921 47.8124 72.9587C47.8925 73.0254 47.9591 73.1054 48.0125 73.1987C48.0525 73.2921 48.0791 73.3988 48.0791 73.5054C48.0791 73.5721 48.0658 73.6388 48.0525 73.6921C48.0391 73.7454 48.0258 73.7854 48.0125 73.8121L47.5991 73.8654L47.5858 73.8388C47.6391 73.8121 47.6791 73.7721 47.7324 73.7321C47.7858 73.6921 47.8258 73.6654 47.8658 73.6254C47.9058 73.5854 47.9325 73.5454 47.9591 73.5188C47.9858 73.4788 47.9991 73.4388 47.9991 73.3988C47.9991 73.3054 47.9458 73.2254 47.8258 73.1587C47.7058 73.0921 47.5324 73.0654 47.2924 73.0654H46.7057V73.5988H46.6257V73.0654H45.1857C45.0123 73.0654 44.879 73.0787 44.7856 73.0921C44.6923 73.1054 44.6256 73.1321 44.559 73.1721H44.5456V72.6254H44.559V72.6387ZM44.959 75.2922C44.8923 75.2522 44.839 75.1988 44.7856 75.1588C44.7323 75.1055 44.679 75.0522 44.6256 74.9988C44.5856 74.9455 44.5456 74.8788 44.519 74.7988C44.4923 74.7188 44.479 74.6388 44.479 74.5455C44.479 74.3455 44.5456 74.1988 44.6656 74.1055C44.7856 74.0121 44.959 73.9588 45.1723 73.9588H46.3057C46.3991 73.9588 46.4791 73.9454 46.5324 73.9054C46.5991 73.8654 46.6391 73.8254 46.6791 73.7721H46.6924V74.2921H45.239C44.9057 74.2921 44.7323 74.4388 44.7323 74.7321C44.7323 74.8655 44.759 74.9722 44.8123 75.0655C44.8657 75.1588 44.9323 75.2255 45.0123 75.2788H46.2924C46.4657 75.2788 46.5857 75.2122 46.6791 75.0788H46.6924V75.6122H45.159C45.0657 75.6122 44.9857 75.6122 44.9323 75.6255C44.879 75.6388 44.8257 75.6388 44.7856 75.6655C44.7456 75.6789 44.719 75.7055 44.6923 75.7322C44.6656 75.7589 44.6523 75.7855 44.6256 75.8255H44.6123L44.4656 75.3188H44.9323L44.959 75.2922ZM46.239 77.4123L46.2257 77.3856C46.3991 77.2923 46.5191 77.1856 46.5857 77.0789C46.6524 76.9722 46.6791 76.8656 46.6791 76.7589C46.6791 76.6256 46.6391 76.5189 46.5724 76.4389C46.5057 76.3589 46.4124 76.3189 46.3057 76.3189C46.239 76.3189 46.1724 76.3322 46.1324 76.3722C46.079 76.3989 46.039 76.4522 46.0124 76.5056C45.9724 76.5589 45.9457 76.6256 45.9057 76.6922C45.879 76.7589 45.8524 76.8389 45.8124 76.9189C45.7857 76.9989 45.7457 77.0789 45.7057 77.1589C45.6657 77.2389 45.6257 77.3056 45.5723 77.3589C45.519 77.4256 45.4523 77.4656 45.3723 77.5056C45.2923 77.5456 45.199 77.5589 45.0923 77.5589C44.879 77.5589 44.7323 77.4789 44.6123 77.3323C44.5056 77.1856 44.4523 76.9856 44.4523 76.7322C44.4523 76.5989 44.4656 76.4789 44.4923 76.3722C44.519 76.2655 44.5456 76.1722 44.5856 76.0922L45.1057 76.0522L45.119 76.0789C44.919 76.1722 44.7723 76.2789 44.6923 76.3855C44.599 76.4922 44.559 76.6256 44.559 76.7856C44.559 76.9456 44.599 77.0789 44.6923 77.1589C44.7856 77.2389 44.879 77.2789 44.9857 77.2789C45.0523 77.2789 45.1057 77.2656 45.159 77.2389C45.2123 77.2122 45.2523 77.1723 45.2923 77.1322C45.3323 77.0789 45.3723 77.0256 45.399 76.9589C45.4257 76.8922 45.4523 76.8256 45.4923 76.7456C45.519 76.6656 45.559 76.5989 45.5857 76.5189C45.6257 76.4389 45.6657 76.3722 45.719 76.3055C45.7724 76.2389 45.839 76.1855 45.9057 76.1455C45.9857 76.1055 46.0657 76.0789 46.1724 76.0789C46.279 76.0789 46.3724 76.1055 46.4524 76.1455C46.5324 76.1855 46.5857 76.2522 46.6391 76.3189C46.6924 76.3855 46.7191 76.4789 46.7324 76.5589C46.7457 76.6522 46.7591 76.7456 46.7591 76.8389C46.7591 76.9322 46.7457 77.0389 46.7324 77.1322C46.7191 77.2256 46.6924 77.3056 46.6657 77.3723L46.2257 77.4123H46.239ZM47.5324 78.3323C47.4658 78.3323 47.4124 78.3056 47.3724 78.2656C47.3324 78.2256 47.3058 78.1723 47.3058 78.1056C47.3058 78.039 47.3324 77.999 47.3724 77.9456C47.4124 77.9056 47.4658 77.8789 47.5324 77.8789C47.5991 77.8789 47.6391 77.9056 47.6924 77.9456C47.7324 77.9856 47.7591 78.039 47.7591 78.1056C47.7591 78.1723 47.7324 78.2123 47.6924 78.2656C47.6524 78.3056 47.5991 78.3323 47.5324 78.3323ZM44.559 77.8656C44.6523 77.9056 44.759 77.9323 44.8657 77.9456C44.9723 77.959 45.0923 77.9723 45.2523 77.9723H46.0924C46.199 77.9723 46.2924 77.9456 46.3724 77.9056C46.4391 77.8656 46.5057 77.8123 46.5457 77.7723H46.5591L46.7991 78.3056H45.2523C45.0923 78.3056 44.959 78.3056 44.8657 78.319C44.759 78.3323 44.6656 78.359 44.559 78.399H44.5456V77.8656H44.559ZM44.479 79.8657C44.479 79.7057 44.5056 79.559 44.5723 79.4257C44.639 79.2923 44.719 79.1723 44.8257 79.0657C44.9323 78.959 45.0523 78.879 45.1857 78.8257C45.319 78.759 45.4657 78.7323 45.6257 78.7323C45.7857 78.7323 45.9324 78.759 46.0657 78.8257C46.199 78.8923 46.3324 78.9723 46.4257 79.079C46.5324 79.1857 46.6124 79.3057 46.6791 79.439C46.7457 79.5724 46.7724 79.719 46.7724 79.879C46.7724 80.039 46.7457 80.1857 46.6791 80.3191C46.6124 80.4524 46.5324 80.5724 46.4257 80.6791C46.319 80.7857 46.199 80.8657 46.0657 80.9191C45.9324 80.9857 45.7724 81.0124 45.6257 81.0124C45.4657 81.0124 45.319 80.9857 45.1857 80.9191C45.0523 80.8524 44.9323 80.7724 44.8257 80.6791C44.719 80.5724 44.639 80.4524 44.5723 80.3191C44.5056 80.1857 44.479 80.039 44.479 79.879V79.8657ZM44.559 79.8657C44.559 79.999 44.5856 80.1057 44.639 80.199C44.6923 80.2924 44.7723 80.3724 44.8657 80.4391C44.959 80.5057 45.079 80.5457 45.199 80.5857C45.3323 80.6124 45.4657 80.6257 45.599 80.6257C45.7457 80.6257 45.879 80.6124 45.999 80.5724C46.1324 80.5457 46.239 80.4924 46.3324 80.4257C46.4257 80.3591 46.5057 80.2791 46.5724 80.1857C46.6257 80.0924 46.6524 79.9857 46.6524 79.8524C46.6524 79.719 46.6257 79.6124 46.5724 79.519C46.5191 79.4257 46.4391 79.3457 46.3324 79.279C46.239 79.2123 46.119 79.1723 45.999 79.1323C45.8657 79.1057 45.7324 79.079 45.599 79.079C45.4523 79.079 45.319 79.0923 45.199 79.119C45.0657 79.1457 44.959 79.199 44.8657 79.2657C44.7723 79.3323 44.6923 79.4123 44.639 79.5057C44.5856 79.599 44.559 79.7057 44.559 79.839V79.8657ZM44.5456 81.9058V81.3724H44.559C44.6123 81.3991 44.6523 81.4124 44.7056 81.4258C44.759 81.4391 44.799 81.4524 44.8657 81.4524C44.919 81.4524 44.9723 81.4658 45.039 81.4658C45.1057 81.4658 45.1723 81.4658 45.2523 81.4658H46.1057C46.2257 81.4658 46.319 81.4391 46.3857 81.3991C46.4524 81.3591 46.5191 81.3058 46.5591 81.2658H46.5724L46.8124 81.7724H46.3857V81.7858C46.5191 81.8925 46.6124 82.0125 46.6791 82.1458C46.7457 82.2791 46.7857 82.4125 46.7857 82.5725C46.7857 82.7858 46.7324 82.9458 46.6124 83.0525C46.4924 83.1592 46.3324 83.2125 46.1324 83.2125H45.2657C45.1857 83.2125 45.1057 83.2125 45.0523 83.2125C44.9857 83.2125 44.9323 83.2125 44.879 83.2258C44.8257 83.2258 44.7723 83.2392 44.719 83.2525C44.6656 83.2658 44.6256 83.2792 44.5723 83.3059H44.559V82.7725H44.5723C44.6656 82.8125 44.7723 82.8392 44.879 82.8525C44.9857 82.8658 45.1057 82.8658 45.2657 82.8658H46.0524C46.119 82.8658 46.1857 82.8525 46.2524 82.8392C46.319 82.8258 46.3724 82.7992 46.4124 82.7592C46.4657 82.7192 46.4924 82.6792 46.5191 82.6125C46.5457 82.5458 46.5591 82.4791 46.5591 82.3991C46.5591 82.2925 46.5324 82.1858 46.4924 82.0791C46.4524 81.9725 46.3857 81.8658 46.2924 81.7858H45.2523C45.0923 81.7858 44.959 81.7858 44.8657 81.7991C44.759 81.8125 44.6656 81.8391 44.559 81.8791H44.5456V81.9058Z" fill="#008763"></path>
<path fill-rule="evenodd" clip-rule="evenodd" d="M30.105 34.0504V43.9308H45.7324H61.3597V34.0504C59.653 33.4904 45.7324 33.4904 45.7324 33.4904C45.7324 33.4904 31.8118 33.4904 30.105 34.0504Z" stroke="#008763" stroke-width="1.2" stroke-miterlimit="2.61313"></path>
<path fill-rule="evenodd" clip-rule="evenodd" d="M32.5717 33.7703C32.5717 31.4769 32.425 28.1301 32.745 24.9166C33.1584 20.7164 34.3451 16.7563 37.6252 15.6495H45.6789H53.7326C59.5462 17.6096 58.7861 28.4901 58.7861 33.7703C54.2659 33.5036 45.7322 33.5036 45.7322 33.5036H45.6789C44.9855 33.5036 36.8652 33.517 32.5717 33.7703Z" stroke="#008763" stroke-width="1.2" stroke-miterlimit="2.61313"></path>
<path d="M32.5583 28.8102C39.9853 27.7968 51.3325 27.7968 58.7461 28.8102" stroke="#008763" stroke-width="1.2" stroke-miterlimit="2.61313"></path>
<path d="M34 19H57" stroke="#008763" stroke-width="1.2" stroke-miterlimit="2.61313"></path>
<path d="M36.5453 13.1963V28.1569" stroke="#008763" stroke-width="1.2" stroke-miterlimit="2.61313" stroke-linecap="round" stroke-linejoin="round"></path>
<path d="M40.1987 13.1963V28.1569" stroke="#008763" stroke-width="1.2" stroke-miterlimit="2.61313" stroke-linecap="round" stroke-linejoin="round"></path>
<path d="M43.8655 13.1963V28.1569" stroke="#008763" stroke-width="1.2" stroke-miterlimit="2.61313" stroke-linecap="round" stroke-linejoin="round"></path>
<path d="M47.5323 13.1963V28.1569" stroke="#008763" stroke-width="1.2" stroke-miterlimit="2.61313" stroke-linecap="round" stroke-linejoin="round"></path>
<path d="M51.1991 13.1963V28.1569" stroke="#008763" stroke-width="1.2" stroke-miterlimit="2.61313" stroke-linecap="round" stroke-linejoin="round"></path>
<path d="M54.8527 13.1963V28.1569" stroke="#008763" stroke-width="1.2" stroke-miterlimit="2.61313" stroke-linecap="round" stroke-linejoin="round"></path>
</svg>