<svg width="120" height="115" viewbox="0 0 120 115" fill="none" xmlns="http://www.w3.org/2000/svg">
<path d="M43.4252 38.0125C44.5164 38.0125 45.401 37.1279 45.401 36.0367C45.401 34.9455 44.5164 34.0609 43.4252 34.0609C42.334 34.0609 41.4494 34.9455 41.4494 36.0367C41.4494 37.1279 42.334 38.0125 43.4252 38.0125Z" fill="#008763"></path>
<path d="M42.0684 35.8274C42.4893 35.8274 42.8305 35.4862 42.8305 35.0653C42.8305 34.6444 42.4893 34.3032 42.0684 34.3032C41.6475 34.3032 41.3063 34.6444 41.3063 35.0653C41.3063 35.4862 41.6475 35.8274 42.0684 35.8274Z" fill="white"></path>
<path fill-rule="evenodd" clip-rule="evenodd" d="M51.3105 38.5097C53.5403 38.1851 48.0787 34.911 47.8246 34.7275C46.6109 33.8666 45.0162 33.3303 43.3086 33.2457C39.4417 33.0481 37.8046 34.6428 35.0386 36.8162C35.0386 36.8162 36.0688 36.6751 37.1837 37.9029C38.2986 39.1307 42.5888 40.5984 46.3146 39.6952C50.0403 38.792 51.3387 38.5238 51.3387 38.5238L51.3105 38.5097Z" stroke="#008763" stroke-width="1.2" stroke-miterlimit="2.61313" stroke-linecap="round" stroke-linejoin="round"></path>
<mask id="mask0_1216_1507" style="mask-type:alpha" maskunits="userSpaceOnUse" x="39" y="31" width="9" height="10">
<path d="M43.426 39.6219C45.4057 39.6219 47.0106 38.017 47.0106 36.0373C47.0106 34.0575 45.4057 32.4526 43.426 32.4526C41.4462 32.4526 39.8413 34.0575 39.8413 36.0373C39.8413 38.017 41.4462 39.6219 43.426 39.6219Z" stroke="black" stroke-width="1.2" stroke-miterlimit="2.61313" stroke-linecap="round" stroke-linejoin="round"></path>
</mask>
<g mask="url(#mask0_1216_1507)">
<path fill-rule="evenodd" clip-rule="evenodd" d="M51.3104 38.5092C53.5402 38.1846 48.0786 34.9105 47.8245 34.727C46.6108 33.8661 45.0161 33.3299 43.3085 33.2452C39.4416 33.0476 37.8045 34.6423 35.0385 36.8157C35.0385 36.8157 36.0687 36.6746 37.1836 37.9024C38.2985 39.1302 42.5887 40.5979 46.3145 39.6947C50.0402 38.7915 51.3386 38.5233 51.3386 38.5233L51.3104 38.5092Z" fill="#008763" stroke="#008763" stroke-width="1.2" stroke-miterlimit="2.61313" stroke-linecap="round" stroke-linejoin="round"></path>
</g>
<path d="M50.7935 37.0961C50.7935 37.0961 50.102 37.8158 50.3843 38.6485" stroke="#008763" stroke-width="1.2" stroke-miterlimit="2.61313" stroke-linecap="round" stroke-linejoin="round"></path>
<path d="M51.6279 36.0812C51.6279 36.0812 49.1017 31.6781 43.1744 31.6216C37.2471 31.5652 34.3117 35.178 34.3117 35.178" stroke="#008763" stroke-width="1.2" stroke-miterlimit="2.61313" stroke-linecap="round" stroke-linejoin="round"></path>
<path fill-rule="evenodd" clip-rule="evenodd" d="M52.3688 29.7998C52.3688 29.7998 53.4273 28.4309 50.3789 26.8362C50.3789 26.8362 39.2864 23.5479 36.7038 23.8725C34.1211 24.1971 30.0708 27.4289 30.0708 27.4289C30.0708 27.4289 34.5869 25.693 39.7521 27.062C44.9173 28.4309 51.8467 30.3502 52.3688 29.7998V29.7998Z" stroke="#008763" stroke-width="1.2" stroke-miterlimit="2.61313" stroke-linecap="round" stroke-linejoin="round"></path>
<path d="M61.2233 61.6973C61.2233 61.6973 59.7697 61.7396 59.1911 61.0763C58.5983 60.413 57.1165 59.8203 55.9451 59.9049" stroke="#008763" stroke-width="1.2" stroke-miterlimit="2.61313" stroke-linecap="round" stroke-linejoin="round"></path>
<path d="M54.2576 56.614C54.2576 56.614 52.296 60.7208 56.3745 61.3982" stroke="#008763" stroke-width="1.2" stroke-miterlimit="2.61313" stroke-linecap="round" stroke-linejoin="round"></path>
<path d="M55.0308 34.5125C55.0308 34.5125 58.559 37.6455 57.8534 46.2683" stroke="#008763" stroke-width="1.2" stroke-miterlimit="2.61313" stroke-linecap="round" stroke-linejoin="round"></path>
<path fill-rule="evenodd" clip-rule="evenodd" d="M61.441 69.5676C61.441 69.5676 58.562 68.1564 56.5298 69.3277C54.4975 70.4991 48.6972 73.4063 48.6972 73.4063C48.6972 73.4063 51.2798 81.3235 61.441 81.3235C71.6021 81.3235 74.1847 73.4063 74.1847 73.4063C74.1847 73.4063 68.3844 70.5132 66.3522 69.3277C64.3199 68.1564 61.441 69.5676 61.441 69.5676V69.5676Z" stroke="#008763" stroke-width="1.2" stroke-miterlimit="2.61313" stroke-linecap="round" stroke-linejoin="round"></path>
<path d="M61.4352 74.3822C61.4352 74.3822 60.7154 74.3399 59.8122 73.9729C58.909 73.606 54.4071 73.4226 52.2196 73.9306C50.0322 74.4387 49.3547 73.225 47.012 73.225" stroke="#008763" stroke-width="1.2" stroke-miterlimit="2.61313" stroke-linecap="round" stroke-linejoin="round"></path>
<path d="M20.6201 34.7383C20.6201 34.7383 25.3055 54.4396 27.8035 64.6995C30.3155 74.9594 30.9365 76.6811 36.4122 81.8464C41.902 87.0116 52.4159 96.7352 61.4198 96.7352" stroke="#008763" stroke-width="1.2" stroke-miterlimit="2.61313" stroke-linecap="round" stroke-linejoin="round"></path>
<path d="M17.2374 32.0286C17.2374 32.0286 14.2172 32.0709 15.2334 36.4599C16.2495 40.849 19.9329 47.1856 20.3986 51.8851C20.8643 56.5846 22.7131 57.9676 26.1001 57.6713" stroke="#008763" stroke-width="1.2" stroke-miterlimit="2.61313" stroke-linecap="round" stroke-linejoin="round"></path>
<path d="M18.0095 38.5626C18.0095 38.5626 18.5035 36.4457 19.5055 37.1513C20.5075 37.857 22.5962 43.4174 22.5962 43.4174C22.5962 43.4174 21.2555 46.2399 22.0034 47.1008C22.7514 47.9616 24.1909 49.7116 24.1909 49.7116" stroke="#008763" stroke-width="1.2" stroke-miterlimit="2.61313" stroke-linecap="round" stroke-linejoin="round"></path>
<path d="M79.4442 38.0125C80.5353 38.0125 81.4199 37.1279 81.4199 36.0367C81.4199 34.9455 80.5353 34.0609 79.4442 34.0609C78.353 34.0609 77.4684 34.9455 77.4684 36.0367C77.4684 37.1279 78.353 38.0125 79.4442 38.0125Z" fill="#008763"></path>
<path d="M78.0762 35.8274C78.4971 35.8274 78.8383 35.4862 78.8383 35.0653C78.8383 34.6444 78.4971 34.3032 78.0762 34.3032C77.6554 34.3032 77.3142 34.6444 77.3142 35.0653C77.3142 35.4862 77.6554 35.8274 78.0762 35.8274Z" fill="white"></path>
<path fill-rule="evenodd" clip-rule="evenodd" d="M71.5475 38.5097C69.3177 38.1851 74.7793 34.911 75.0333 34.7275C76.247 33.8666 77.8417 33.3303 79.5494 33.2457C83.4162 33.0481 85.0533 34.6428 87.8194 36.8162C87.8194 36.8162 86.7892 36.6751 85.6743 37.9029C84.5594 39.1307 80.2691 40.5984 76.5434 39.6952C72.8176 38.792 71.5193 38.5238 71.5193 38.5238L71.5475 38.5097Z" stroke="#008763" stroke-width="1.2" stroke-miterlimit="2.61313" stroke-linecap="round" stroke-linejoin="round"></path>
<mask id="mask1_1216_1507" style="mask-type:alpha" maskunits="userSpaceOnUse" x="75" y="31" width="9" height="10">
<path d="M79.4449 39.6219C81.4246 39.6219 83.0295 38.017 83.0295 36.0373C83.0295 34.0575 81.4246 32.4526 79.4449 32.4526C77.4652 32.4526 75.8603 34.0575 75.8603 36.0373C75.8603 38.017 77.4652 39.6219 79.4449 39.6219Z" stroke="black" stroke-width="1.2" stroke-miterlimit="2.61313" stroke-linecap="round" stroke-linejoin="round"></path>
</mask>
<g mask="url(#mask1_1216_1507)">
<path fill-rule="evenodd" clip-rule="evenodd" d="M71.5473 38.5092C69.3175 38.1846 74.7791 34.9105 75.0332 34.727C76.2469 33.8661 77.8416 33.3299 79.5492 33.2452C83.4161 33.0476 85.0532 34.6423 87.8192 36.8157C87.8192 36.8157 86.789 36.6746 85.6741 37.9024C84.5592 39.1302 80.269 40.5979 76.5432 39.6947C72.8175 38.7915 71.5191 38.5233 71.5191 38.5233L71.5473 38.5092Z" fill="#008763" stroke="#008763" stroke-width="1.2" stroke-miterlimit="2.61313" stroke-linecap="round" stroke-linejoin="round"></path>
</g>
<path d="M72.0711 37.0961C72.0711 37.0961 72.7627 37.8158 72.4804 38.6485" stroke="#008763" stroke-width="1.2" stroke-miterlimit="2.61313" stroke-linecap="round" stroke-linejoin="round"></path>
<path d="M71.223 36.0812C71.223 36.0812 73.7492 31.6781 79.6765 31.6216C85.6038 31.5652 88.5392 35.178 88.5392 35.178" stroke="#008763" stroke-width="1.2" stroke-miterlimit="2.61313" stroke-linecap="round" stroke-linejoin="round"></path>
<path fill-rule="evenodd" clip-rule="evenodd" d="M70.4866 29.7998C70.4866 29.7998 69.4282 28.4309 72.4765 26.8362C72.4765 26.8362 83.569 23.5479 86.1517 23.8725C88.7343 24.1971 92.7846 27.4289 92.7846 27.4289C92.7846 27.4289 88.2686 25.693 83.1033 27.062C77.9381 28.4309 71.0088 30.3502 70.4866 29.7998V29.7998Z" stroke="#008763" stroke-width="1.2" stroke-miterlimit="2.61313" stroke-linecap="round" stroke-linejoin="round"></path>
<path d="M61.64 61.6973C61.64 61.6973 63.0936 61.7396 63.6722 61.0763C64.2649 60.413 65.7468 59.8203 66.9181 59.9049" stroke="#008763" stroke-width="1.2" stroke-miterlimit="2.61313" stroke-linecap="round" stroke-linejoin="round"></path>
<path d="M68.6145 56.614C68.6145 56.614 70.5761 60.7208 66.4976 61.3982" stroke="#008763" stroke-width="1.2" stroke-miterlimit="2.61313" stroke-linecap="round" stroke-linejoin="round"></path>
<path d="M67.8272 34.5125C67.8272 34.5125 64.299 37.6455 65.0046 46.2683" stroke="#008763" stroke-width="1.2" stroke-miterlimit="2.61313" stroke-linecap="round" stroke-linejoin="round"></path>
<path d="M61.4307 74.3822C61.4307 74.3822 62.1504 74.3399 63.0536 73.9729C63.9568 73.606 68.4588 73.4226 70.6462 73.9306C72.8337 74.4387 73.5111 73.225 75.8538 73.225" stroke="#008763" stroke-width="1.2" stroke-miterlimit="2.61313" stroke-linecap="round" stroke-linejoin="round"></path>
<path d="M102.241 34.7383C102.241 34.7383 97.556 54.4396 95.0581 64.6995C92.546 74.9594 91.9251 76.6811 86.4494 81.8464C80.9595 87.0116 70.4456 96.7352 61.4417 96.7352" stroke="#008763" stroke-width="1.2" stroke-miterlimit="2.61313" stroke-linecap="round" stroke-linejoin="round"></path>
<path d="M105.63 32.0286C105.63 32.0286 108.65 32.0709 107.634 36.4599C106.617 40.849 102.934 47.1856 102.468 51.8851C102.003 56.5846 100.154 57.9676 96.7668 57.6713" stroke="#008763" stroke-width="1.2" stroke-miterlimit="2.61313" stroke-linecap="round" stroke-linejoin="round"></path>
<path d="M104.843 38.5626C104.843 38.5626 104.349 36.4457 103.347 37.1513C102.345 37.857 100.256 43.4174 100.256 43.4174C100.256 43.4174 101.597 46.2399 100.849 47.1008C100.101 47.9616 98.6613 49.7116 98.6613 49.7116" stroke="#008763" stroke-width="1.2" stroke-miterlimit="2.61313" stroke-linecap="round" stroke-linejoin="round"></path>
<path fill-rule="evenodd" clip-rule="evenodd" d="M115.683 82.2632C113.949 86.0291 110.191 91.6301 109.081 91.3094L92.709 81.4638C92.709 81.4638 91.8092 80.9936 92.2322 79.5129L92.7755 78.4092L95.0899 74.5606L97.4043 70.7119L98.1245 69.7145C99.2371 68.6416 100.071 69.2211 100.071 69.2211L116.819 79.2924" stroke="#008763" stroke-miterlimit="2.61313"></path>
<path d="M103.408 76.4609L102.966 76.195L103.198 75.8102L103.195 75.8019C103.138 75.8382 103.076 75.8715 103.008 75.9016C102.94 75.9317 102.871 75.9535 102.799 75.9669C102.727 75.9804 102.648 75.9824 102.57 75.9709C102.492 75.9593 102.415 75.9343 102.337 75.8874C102.181 75.7936 102.095 75.6644 102.078 75.5052C102.06 75.3459 102.112 75.1784 102.221 74.9963L102.947 73.7898L103.41 74.0681L102.7 75.2487C102.637 75.3527 102.613 75.4516 102.625 75.5369C102.638 75.6223 102.692 75.6973 102.78 75.7504C102.858 75.7974 102.933 75.8141 103.01 75.8037C103.087 75.7934 103.157 75.7716 103.226 75.728L104.008 74.4278L104.47 74.7061L103.416 76.4588L103.408 76.4609ZM107.624 76.5744L107.551 76.5306L107.567 76.5046L107.749 76.614L107.734 76.6401L107.661 76.5963L107.545 76.7887L107.514 76.7699L107.629 76.5775L107.624 76.5744ZM107.852 76.9732L107.949 76.812L107.793 76.8951L107.777 76.8857L107.777 76.7088L107.683 76.8648L107.652 76.846L107.783 76.6276L107.809 76.6432L107.809 76.8556L107.992 76.7527L108.018 76.7684L107.886 76.9868L107.855 76.968L107.852 76.9732ZM105.683 75.4213C105.607 75.4181 105.528 75.4201 105.456 75.4336C105.379 75.4439 105.304 75.4626 105.232 75.4896C105.162 75.5113 105.1 75.5311 105.047 75.5487L105.263 75.1898L104.8 74.9115L104.197 75.9153L103.746 76.6642L104.214 76.9457L105.006 75.6298C105.067 75.6101 105.117 75.5977 105.169 75.5936C105.218 75.5947 105.259 75.5978 105.29 75.6166C105.311 75.6291 105.333 75.6499 105.361 75.6739C105.386 75.7031 105.411 75.7322 105.442 75.7645C105.463 75.7989 105.485 75.8333 105.507 75.8676C105.526 75.9072 105.539 75.9437 105.542 75.9738L105.579 75.9957L105.891 75.4756C105.824 75.435 105.771 75.4172 105.695 75.414L105.683 75.4213ZM101.441 75.7522C101.253 75.6396 101.067 75.5489 100.892 75.4863C100.713 75.4205 100.549 75.386 100.394 75.3848C100.239 75.3836 100.095 75.4105 99.9652 75.4739C99.835 75.5373 99.7319 75.6381 99.6443 75.7837L99.5663 75.7368C99.5788 75.716 99.585 75.7056 99.585 75.7056C99.6935 75.5371 99.8299 75.3926 99.9862 75.2741C100.159 75.1514 100.349 75.06 100.548 75.0103C100.751 74.9553 100.957 74.9441 101.17 74.9662C101.383 74.9882 101.587 75.0613 101.785 75.1801L101.438 75.7574L101.441 75.7522ZM100.269 74.5448C100.415 74.6323 100.553 74.6731 100.698 74.668C100.842 74.663 100.979 74.6246 101.118 74.5456C101.255 74.4719 101.386 74.3596 101.514 74.2171C101.642 74.0747 101.761 73.9124 101.877 73.72C101.989 73.5328 102.08 73.3465 102.146 73.1666C102.212 72.9866 102.246 72.8232 102.25 72.6629C102.252 72.5078 102.225 72.3642 102.161 72.234C102.098 72.1039 101.997 72.0007 101.852 71.9131C101.706 71.8256 101.568 71.7849 101.423 71.7899C101.278 71.795 101.139 71.8385 101.002 71.9123C100.863 71.9913 100.735 72.0983 100.606 72.2408C100.478 72.3833 100.359 72.5455 100.247 72.7327C100.134 72.92 100.047 73.101 99.9809 73.281C99.9151 73.461 99.8806 73.6243 99.8763 73.7846C99.8751 73.9397 99.902 74.0833 99.9654 74.2135C100.029 74.3437 100.13 74.4468 100.275 74.5344L100.269 74.5448ZM100.121 74.555C99.9818 74.4571 99.8581 74.3331 99.7624 74.1977C99.6398 74.0248 99.5484 73.8353 99.4986 73.6354C99.4489 73.4355 99.4324 73.2273 99.4545 73.014C99.4766 72.8007 99.5496 72.5967 99.6685 72.3991C99.7842 72.2067 99.9301 72.0465 100.111 71.9218C100.289 71.8023 100.479 71.7109 100.684 71.6643C100.884 71.6145 101.094 71.6064 101.304 71.6337C101.515 71.6609 101.713 71.7309 101.895 71.8403C102.077 71.9498 102.232 72.0925 102.355 72.2654C102.478 72.4383 102.569 72.6278 102.619 72.8277C102.674 73.0307 102.682 73.241 102.66 73.4543C102.638 73.6677 102.565 73.8716 102.446 74.0692C102.33 74.2617 102.184 74.4218 102.003 74.5465C101.825 74.666 101.635 74.7574 101.433 74.7988C101.228 74.8455 101.023 74.8567 100.813 74.8295C100.616 74.8032 100.431 74.7344 100.256 74.6364C100.256 74.6364 100.168 74.5832 100.119 74.5467L100.121 74.555ZM105.978 76.4624C106.033 76.3823 106.09 76.3106 106.155 76.2503C106.214 76.1868 106.278 76.1401 106.344 76.1016C106.409 76.0632 106.471 76.0435 106.536 76.0404C106.602 76.0373 106.663 76.053 106.72 76.0874C106.814 76.1437 106.862 76.2291 106.867 76.3384C106.872 76.4477 106.78 76.6474 106.674 76.8243L106.605 76.9387L105.789 76.8588C105.816 76.7547 105.862 76.6548 105.934 76.5352L105.978 76.4624ZM106.71 77.7527C106.629 77.7817 106.53 77.7931 106.427 77.7878C106.319 77.7793 106.208 77.7407 106.093 77.6719C106.005 77.6188 105.931 77.5531 105.869 77.4802C105.806 77.4073 105.772 77.3229 105.752 77.2261C105.735 77.1376 105.742 77.0429 105.764 76.9358L107.116 77.0901C107.116 77.0901 107.217 76.9101 107.187 76.5948C107.177 76.4823 107.117 76.3824 107.056 76.2824C106.991 76.1793 106.899 76.0959 106.785 76.0271C106.676 75.9614 106.554 75.9166 106.422 75.9008C106.29 75.8851 106.159 75.8912 106.027 75.9327C105.899 75.969 105.769 76.0324 105.653 76.1186C105.535 76.2101 105.431 76.3245 105.343 76.4701C105.268 76.5949 105.217 76.7271 105.193 76.8613C105.169 76.9955 105.17 77.1235 105.192 77.2505C105.215 77.3775 105.266 77.4931 105.342 77.6025C105.418 77.7118 105.52 77.8014 105.65 77.8796C105.847 77.9985 106.045 78.0466 106.232 78.0176C106.42 77.9887 106.589 77.9066 106.738 77.7766L106.724 77.7537L106.71 77.7527Z" fill="#008763"></path>
<path fill-rule="evenodd" clip-rule="evenodd" d="M99.9846 78.127L99.9877 78.1218C100.024 78.1083 100.055 78.0916 100.083 78.0802C100.106 78.0657 100.129 78.0511 100.152 78.0366C100.17 78.0189 100.191 77.996 100.208 77.9783C100.229 77.9555 100.245 77.9295 100.267 77.8931L100.742 77.1025C100.758 77.0765 100.765 77.0526 100.769 77.0339C100.777 77.0099 100.781 76.9912 100.78 76.9693C100.779 76.9475 100.778 76.9256 100.772 76.9006C100.765 76.8757 100.759 76.8507 100.748 76.8226L100.751 76.8174L101.006 76.9706L100.845 78.3329L101.963 77.5461L102.202 77.69L102.199 77.6952C102.163 77.6951 102.135 77.7065 102.11 77.7128C102.085 77.719 102.062 77.7335 102.043 77.7429C102.02 77.7574 102.002 77.7751 101.984 77.7928C101.963 77.8157 101.948 77.8417 101.929 77.8729L101.466 78.6426C101.447 78.6738 101.432 78.6998 101.424 78.7237C101.412 78.7445 101.405 78.7685 101.397 78.7924C101.39 78.8163 101.386 78.8351 101.384 78.8621C101.382 78.8892 101.379 78.9162 101.383 78.9464L101.379 78.9516L101.093 78.7796L101.097 78.7744C101.125 78.763 101.148 78.7484 101.17 78.7339C101.193 78.7193 101.208 78.7069 101.226 78.6892C101.243 78.6715 101.261 78.6538 101.274 78.633C101.286 78.6122 101.31 78.5841 101.326 78.5581L101.857 77.674L100.691 78.4951L100.66 78.4763L100.826 77.0464L100.308 77.9181C100.29 77.9493 100.271 77.9805 100.261 78.0096C100.25 78.0388 100.243 78.0627 100.241 78.0897C100.239 78.1168 100.236 78.1439 100.24 78.174C100.243 78.2042 100.248 78.2427 100.258 78.2844L100.255 78.2896L99.9846 78.127ZM102.422 78.0066C102.407 78.0326 102.384 78.0471 102.359 78.0533C102.334 78.0596 102.307 78.0575 102.281 78.0418C102.255 78.0262 102.245 78.0064 102.234 77.9783C102.228 77.9533 102.23 77.9262 102.245 77.9002C102.261 77.8742 102.281 77.8649 102.309 77.8535C102.334 77.8472 102.361 77.8494 102.387 77.865C102.413 77.8806 102.422 77.9004 102.434 77.9285C102.44 77.9535 102.438 77.9806 102.422 78.0066ZM101.543 79.0569C101.58 79.0299 101.616 78.9945 101.646 78.956C101.676 78.9176 101.709 78.8739 101.747 78.8115L101.944 78.4838C101.969 78.4422 101.981 78.3996 101.984 78.359C101.984 78.3236 101.979 78.2851 101.972 78.2601L101.975 78.2549L102.24 78.2864L101.877 78.8897C101.839 78.9521 101.808 79.0041 101.792 79.0436C101.772 79.0883 101.76 79.131 101.751 79.182L101.748 79.1872L101.54 79.0621L101.543 79.0569ZM102.719 79.5025C102.653 79.5545 102.585 79.5846 102.503 79.5918C102.421 79.599 102.341 79.5791 102.252 79.526C102.195 79.4916 102.149 79.4499 102.115 79.4009C102.081 79.352 102.055 79.301 102.04 79.2427C102.026 79.1844 102.028 79.1219 102.043 79.0605C102.054 78.996 102.086 78.9305 102.124 78.8681C102.167 78.7952 102.215 78.7391 102.276 78.6975C102.336 78.6559 102.396 78.6279 102.462 78.6113C102.529 78.5947 102.594 78.5917 102.659 78.6021C102.723 78.6126 102.787 78.6366 102.844 78.671C102.901 78.7054 102.95 78.7419 102.977 78.7794C103.007 78.8117 103.029 78.8461 103.047 78.8638L102.953 79.0552L102.934 79.051C102.934 79.0156 102.929 78.9771 102.929 78.9417C102.924 78.9032 102.916 78.8699 102.904 78.8418C102.893 78.8137 102.876 78.7824 102.857 78.7564C102.837 78.7303 102.814 78.7095 102.788 78.6939C102.699 78.6407 102.613 78.6312 102.52 78.6676C102.428 78.7039 102.349 78.7767 102.277 78.8963C102.208 79.0107 102.181 79.1148 102.192 79.2137C102.203 79.3126 102.263 79.3907 102.361 79.4501C102.413 79.4814 102.467 79.4991 102.523 79.5117C102.579 79.5242 102.639 79.518 102.696 79.4952L102.703 79.5066L102.719 79.5025ZM102.765 79.7919C102.788 79.7773 102.802 79.7649 102.82 79.7472C102.838 79.7295 102.852 79.717 102.868 79.691C102.881 79.6702 102.898 79.6525 102.914 79.6265C102.93 79.6005 102.945 79.5745 102.964 79.5433L103.164 79.2105C103.192 79.1637 103.204 79.121 103.204 79.0856C103.204 79.0502 103.199 79.0117 103.192 78.9867L103.196 78.9815L103.45 79.0068L103.321 79.22L103.332 79.2262C103.365 79.218 103.393 79.2065 103.43 79.193C103.466 79.1795 103.499 79.1713 103.538 79.1661C103.571 79.1578 103.607 79.1578 103.642 79.1579C103.677 79.1579 103.706 79.1683 103.738 79.1871L103.631 79.3639L103.626 79.3608C103.624 79.3525 103.617 79.341 103.609 79.3296C103.602 79.3181 103.59 79.3035 103.579 79.2973C103.567 79.2827 103.556 79.2764 103.544 79.2618C103.534 79.2556 103.521 79.241 103.511 79.2348C103.495 79.2254 103.468 79.2233 103.43 79.2284C103.391 79.2336 103.349 79.244 103.31 79.2627L103.1 79.6111C103.063 79.6735 103.031 79.7255 103.015 79.7651C102.995 79.8098 102.983 79.8525 102.974 79.9034L102.971 79.9086L102.763 79.7835L102.766 79.7783L102.765 79.7919ZM103.719 80.4079C103.656 80.3704 103.605 80.3256 103.569 80.2683C103.533 80.211 103.505 80.1517 103.488 80.0851C103.471 80.0184 103.468 79.9529 103.479 79.8883C103.484 79.8207 103.508 79.7572 103.546 79.6948C103.583 79.6324 103.628 79.5815 103.685 79.5451C103.743 79.5087 103.805 79.4755 103.869 79.4641C103.935 79.4475 104.001 79.4444 104.068 79.4497C104.136 79.455 104.199 79.479 104.262 79.5165C104.324 79.554 104.375 79.5989 104.412 79.6561C104.448 79.7134 104.476 79.7728 104.493 79.8394C104.509 79.906 104.512 79.9716 104.502 80.0361C104.497 80.1038 104.469 80.1724 104.435 80.2296C104.397 80.292 104.353 80.343 104.295 80.3794C104.238 80.4157 104.179 80.4438 104.117 80.4635C104.051 80.4801 103.985 80.4831 103.917 80.4779C103.85 80.4726 103.786 80.4486 103.724 80.4111L103.719 80.4079ZM103.738 80.3767C103.79 80.408 103.837 80.4226 103.886 80.4237C103.935 80.4248 103.985 80.4124 104.033 80.3916C104.081 80.3708 104.125 80.3334 104.168 80.296C104.21 80.2502 104.247 80.2013 104.278 80.1493C104.312 80.0921 104.338 80.037 104.351 79.9808C104.372 79.9225 104.376 79.8684 104.372 79.8164C104.368 79.7643 104.355 79.7144 104.335 79.6665C104.311 79.6238 104.275 79.5883 104.223 79.5571C104.171 79.5258 104.123 79.5112 104.075 79.5101C104.026 79.509 103.976 79.5214 103.925 79.5474C103.877 79.5682 103.833 79.6056 103.789 79.643C103.748 79.6888 103.706 79.7345 103.675 79.7865C103.64 79.8437 103.614 79.8989 103.596 79.9519C103.576 80.0102 103.571 80.0643 103.575 80.1164C103.58 80.1684 103.592 80.2184 103.616 80.2611C103.64 80.3038 103.675 80.3392 103.727 80.3705L103.738 80.3767ZM104.603 80.9042C104.631 80.8928 104.654 80.8783 104.677 80.8637C104.7 80.8492 104.714 80.8367 104.732 80.819C104.75 80.8013 104.767 80.7837 104.78 80.7629C104.793 80.7421 104.813 80.7192 104.832 80.688L105.292 79.9235C105.311 79.8922 105.326 79.8662 105.334 79.8423C105.346 79.8215 105.353 79.7976 105.361 79.7736C105.368 79.7497 105.372 79.731 105.374 79.7039C105.376 79.6769 105.379 79.6498 105.375 79.6196L105.379 79.6144L105.665 79.7864L105.661 79.7916C105.633 79.8031 105.61 79.8176 105.588 79.8322C105.565 79.8467 105.55 79.8592 105.532 79.8769C105.515 79.8945 105.497 79.9122 105.484 79.933C105.472 79.9538 105.451 79.9767 105.432 80.0079L104.973 80.7724C104.954 80.8036 104.938 80.8296 104.931 80.8536C104.918 80.8744 104.911 80.8983 104.904 80.9222C104.896 80.9462 104.892 80.9649 104.89 80.9919C104.888 81.019 104.886 81.0461 104.889 81.0763L104.886 81.0815L104.6 80.9094L104.603 80.9042ZM105.255 81.3035L105.047 81.1784L105.05 81.1732C105.073 81.1587 105.088 81.1462 105.105 81.1285C105.123 81.1108 105.138 81.0984 105.153 81.0724C105.166 81.0515 105.184 81.0339 105.199 81.0079C105.215 80.9819 105.23 80.9559 105.249 80.9247L105.449 80.5918C105.478 80.545 105.489 80.5023 105.489 80.4669C105.489 80.4316 105.484 80.393 105.478 80.3681L105.481 80.3629L105.735 80.3881L105.635 80.5545L105.64 80.5576C105.713 80.5307 105.781 80.5224 105.849 80.5277C105.917 80.5329 105.978 80.5486 106.041 80.5861C106.124 80.6362 106.174 80.6945 106.187 80.7663C106.201 80.8382 106.184 80.9131 106.137 80.9911L105.934 81.3292C105.915 81.3604 105.896 81.3916 105.884 81.4124C105.868 81.4384 105.855 81.4592 105.848 81.4831C105.836 81.5039 105.828 81.5279 105.821 81.5518C105.814 81.5757 105.81 81.5944 105.807 81.6215L105.804 81.6267L105.596 81.5016L105.599 81.4964C105.637 81.4694 105.672 81.434 105.703 81.3955C105.733 81.3571 105.761 81.3103 105.798 81.2478L105.983 80.941C105.999 80.915 106.009 80.8859 106.019 80.8567C106.03 80.8276 106.032 80.8005 106.026 80.7756C106.023 80.7454 106.013 80.7256 105.994 80.6995C105.974 80.6735 105.951 80.6527 105.92 80.6339C105.878 80.6089 105.83 80.5943 105.779 80.5848C105.728 80.5754 105.671 80.5764 105.618 80.5941L105.374 80.9997C105.337 81.0621 105.305 81.1141 105.289 81.1537C105.269 81.1984 105.257 81.2411 105.248 81.2921L105.245 81.2973L105.255 81.3035ZM106.002 81.7456C106.033 81.7289 106.059 81.7092 106.086 81.6759C106.113 81.6426 106.15 81.5937 106.191 81.5261L106.528 80.9644L106.419 80.8988L106.438 80.8676L106.547 80.9332L106.638 80.7824C106.675 80.72 106.712 80.6711 106.756 80.6337C106.799 80.5963 106.845 80.5672 106.89 80.5516C106.935 80.536 106.982 80.5288 107.03 80.5299C107.076 80.5362 107.124 80.5508 107.166 80.5758C107.192 80.5915 107.215 80.6123 107.232 80.63C107.25 80.6477 107.262 80.6623 107.27 80.6738L107.194 80.8475L107.18 80.8464C107.182 80.8194 107.176 80.7944 107.173 80.7642C107.17 80.734 107.169 80.7122 107.162 80.6872C107.156 80.6622 107.147 80.6424 107.143 80.6258C107.133 80.606 107.121 80.5914 107.105 80.582C107.069 80.5601 107.025 80.5621 106.971 80.5933C106.917 80.6245 106.866 80.6858 106.81 80.7795L106.672 81.0083L106.88 81.1334L106.861 81.1646L106.653 81.0395L106.315 81.6012C106.275 81.6688 106.249 81.7239 106.232 81.7635C106.215 81.803 106.21 81.8353 106.21 81.8707L106.207 81.8759L105.994 81.7476L105.997 81.7424L106.002 81.7456ZM107.131 82.2119C107.1 82.2285 107.066 82.2368 107.038 82.2482C107.005 82.2565 106.971 82.2648 106.938 82.2731C106.908 82.2762 106.873 82.2762 106.835 82.2678C106.798 82.2595 106.763 82.2459 106.727 82.224C106.649 82.1771 106.607 82.1167 106.599 82.048C106.591 81.9793 106.611 81.8992 106.661 81.8159L106.927 81.3739C106.948 81.3375 106.962 81.3031 106.959 81.2729C106.959 81.2376 106.953 81.2126 106.941 81.1845L106.944 81.1793L107.147 81.3012L106.806 81.8681C106.728 81.9981 106.745 82.1002 106.859 82.169C106.911 82.2002 106.959 82.2149 107.008 82.216C107.057 82.217 107.098 82.2067 107.138 82.188L107.438 81.6887C107.479 81.6211 107.481 81.5586 107.451 81.491L107.454 81.4858L107.662 81.6109L107.302 82.209C107.281 82.2454 107.262 82.2766 107.255 82.3005C107.247 82.3244 107.235 82.3452 107.236 82.3671C107.232 82.3858 107.236 82.4025 107.24 82.4191C107.244 82.4358 107.251 82.4473 107.261 82.467L107.257 82.4722L107.025 82.4106L107.135 82.2286L107.131 82.2119ZM108.258 82.2099L108.244 82.2089C108.249 82.1194 108.235 82.0475 108.209 81.9965C108.183 81.9455 108.148 81.9101 108.106 81.885C108.054 81.8538 108.003 81.8443 107.956 81.8516C107.91 81.8588 107.872 81.8858 107.847 81.9274C107.831 81.9535 107.821 81.9826 107.827 82.0076C107.825 82.0346 107.837 82.0627 107.851 82.0857C107.863 82.1138 107.882 82.1398 107.899 82.171C107.919 82.1971 107.944 82.2263 107.965 82.2606C107.99 82.2898 108.012 82.3242 108.034 82.3585C108.056 82.3929 108.072 82.4241 108.081 82.4574C108.094 82.4939 108.094 82.5293 108.091 82.5699C108.088 82.6104 108.071 82.65 108.046 82.6916C107.996 82.7748 107.931 82.8132 107.845 82.8256C107.763 82.8329 107.672 82.8067 107.574 82.7473C107.522 82.716 107.478 82.6827 107.443 82.6473C107.407 82.6118 107.377 82.5796 107.355 82.5452L107.462 82.333L107.475 82.334C107.465 82.4339 107.472 82.5162 107.495 82.5724C107.514 82.6338 107.557 82.6807 107.619 82.7182C107.682 82.7558 107.743 82.7714 107.796 82.7538C107.849 82.7361 107.887 82.7091 107.912 82.6675C107.928 82.6415 107.935 82.6176 107.937 82.5905C107.939 82.5635 107.933 82.5385 107.927 82.5135C107.915 82.4854 107.904 82.4573 107.884 82.4312C107.864 82.4052 107.845 82.3791 107.823 82.3448C107.798 82.3156 107.781 82.2844 107.756 82.2552C107.734 82.2208 107.718 82.1896 107.704 82.1532C107.691 82.1167 107.686 82.0782 107.686 82.0428C107.689 82.0022 107.697 81.9648 107.722 81.9232C107.747 81.8816 107.78 81.8514 107.814 81.8296C107.848 81.8078 107.887 81.8026 107.925 81.7974C107.964 81.7923 108.006 81.8038 108.041 81.8173C108.08 81.834 108.12 81.8507 108.156 81.8726C108.193 81.8945 108.231 81.9247 108.264 81.9518C108.298 81.9789 108.323 82.0081 108.342 82.0341L108.255 82.2151L108.258 82.2099ZM108.92 81.9212C108.905 81.9472 108.882 81.9618 108.857 81.968C108.832 81.9742 108.805 81.9721 108.779 81.9565C108.753 81.9408 108.743 81.9211 108.732 81.8929C108.726 81.868 108.728 81.8409 108.743 81.8149C108.759 81.7889 108.779 81.7795 108.807 81.7681C108.832 81.7619 108.859 81.764 108.885 81.7796C108.911 81.7953 108.92 81.8151 108.932 81.8432C108.938 81.8682 108.936 81.8952 108.92 81.9212ZM108.041 82.9716C108.078 82.9445 108.114 82.9092 108.144 82.8707C108.174 82.8322 108.207 82.7885 108.245 82.7261L108.442 82.3985C108.467 82.3569 108.478 82.3142 108.482 82.2736C108.482 82.2382 108.477 82.1997 108.47 82.1747L108.473 82.1695L108.738 82.201L108.375 82.8043C108.337 82.8667 108.306 82.9187 108.289 82.9583C108.27 83.003 108.258 83.0457 108.249 83.0967L108.246 83.1019L108.038 82.9768L108.041 82.9716ZM108.802 83.4719C108.74 83.4344 108.689 83.3896 108.652 83.3323C108.616 83.275 108.588 83.2156 108.571 83.149C108.555 83.0824 108.552 83.0168 108.562 82.9523C108.567 82.8847 108.591 82.8212 108.629 82.7588C108.666 82.6964 108.711 82.6454 108.769 82.609C108.826 82.5727 108.888 82.5394 108.952 82.528C109.018 82.5115 109.084 82.5084 109.152 82.5137C109.219 82.5189 109.283 82.5429 109.345 82.5805C109.408 82.618 109.459 82.6628 109.495 82.7201C109.531 82.7774 109.559 82.8367 109.576 82.9034C109.593 82.97 109.596 83.0356 109.585 83.1001C109.58 83.1677 109.553 83.2364 109.518 83.2936C109.481 83.356 109.436 83.407 109.379 83.4433C109.321 83.4797 109.262 83.5077 109.201 83.5275C109.134 83.544 109.068 83.5471 109.001 83.5418C108.933 83.5366 108.87 83.5126 108.807 83.475L108.802 83.4719ZM108.821 83.4407C108.873 83.472 108.921 83.4866 108.97 83.4877C109.019 83.4888 109.068 83.4763 109.116 83.4556C109.164 83.4348 109.208 83.3974 109.252 83.3599C109.293 83.3142 109.33 83.2653 109.361 83.2133C109.396 83.1561 109.422 83.101 109.434 83.0448C109.455 82.9865 109.459 82.9324 109.455 82.8803C109.451 82.8283 109.439 82.7783 109.418 82.7304C109.394 82.6877 109.359 82.6523 109.307 82.621C109.255 82.5898 109.207 82.5751 109.158 82.574C109.109 82.573 109.059 82.5854 109.008 82.6114C108.96 82.6321 108.916 82.6696 108.873 82.707C108.831 82.7527 108.789 82.7985 108.758 82.8505C108.724 82.9077 108.697 82.9628 108.68 83.0159C108.659 83.0742 108.655 83.1283 108.659 83.1803C108.663 83.2324 108.675 83.2823 108.699 83.325C108.723 83.3677 108.758 83.4032 108.81 83.4344L108.821 83.4407ZM109.613 83.9244L109.405 83.7993L109.409 83.7941C109.431 83.7796 109.446 83.7671 109.464 83.7494C109.481 83.7317 109.496 83.7193 109.512 83.6933C109.524 83.6724 109.542 83.6548 109.558 83.6288C109.573 83.6028 109.589 83.5768 109.608 83.5456L109.808 83.2127C109.836 83.1659 109.847 83.1232 109.847 83.0878C109.847 83.0525 109.842 83.0139 109.836 82.989L109.839 82.9838L110.093 83.009L109.993 83.1754L109.998 83.1785C110.071 83.1516 110.14 83.1433 110.207 83.1486C110.275 83.1538 110.336 83.1695 110.399 83.207C110.482 83.2571 110.532 83.3154 110.545 83.3872C110.559 83.4591 110.542 83.534 110.495 83.612L110.292 83.9501C110.273 83.9813 110.254 84.0125 110.242 84.0333C110.226 84.0593 110.214 84.0801 110.206 84.104C110.194 84.1248 110.187 84.1488 110.179 84.1727C110.172 84.1966 110.168 84.2153 110.166 84.2424L110.163 84.2476L109.955 84.1225L109.958 84.1173C109.995 84.0903 110.031 84.0549 110.061 84.0164C110.091 83.978 110.119 83.9312 110.157 83.8687L110.341 83.5619C110.357 83.5359 110.367 83.5068 110.378 83.4776C110.388 83.4485 110.39 83.4214 110.384 83.3965C110.381 83.3663 110.372 83.3465 110.352 83.3204C110.332 83.2944 110.309 83.2736 110.278 83.2548C110.236 83.2298 110.189 83.2152 110.138 83.2057C110.087 83.1963 110.029 83.1973 109.976 83.215L109.732 83.6206C109.695 83.683 109.664 83.735 109.647 83.7746C109.627 83.8193 109.616 83.862 109.606 83.913L109.603 83.9182L109.613 83.9244Z" fill="#008763"></path>
<path d="M106.691 78.5271L113.301 82.5022" stroke="#008763" stroke-width="0.5"></path>
<path d="M107.755 81.0437L110.667 75.4429" stroke="#008763" stroke-width="0.5"></path>
<path fill-rule="evenodd" clip-rule="evenodd" d="M87.5601 78.3322L91.4139 80.6497L95.0794 74.5543L98.745 68.4589L94.8911 66.1414C94.2724 66.6757 91.0072 72.1054 91.0072 72.1054C91.0072 72.1054 87.742 77.5351 87.5601 78.3322Z" fill="white" stroke="#008763" stroke-miterlimit="2.61313"></path>
<path fill-rule="evenodd" clip-rule="evenodd" d="M88.0296 77.3043C87.1351 76.7664 85.7953 76.0385 84.6169 75.16C83.0756 74.0136 81.8093 72.6218 82.147 71.0828L84.0361 67.9415L85.9251 64.8002C88.0533 62.9924 92.1189 65.8409 94.1784 67.0794C93.0141 68.78 91.0125 72.1085 91.0125 72.1085L91 72.1293C90.8374 72.3998 88.9379 75.5702 88.0296 77.3043Z" stroke="#008763" stroke-miterlimit="2.61313"></path>
<path d="M86.0917 76.146C87.4385 73.0115 90.1001 68.5856 92.2342 65.9316" stroke="#008763" stroke-miterlimit="2.61313"></path>
<path d="M80.9367 70.9285L86.772 74.4376" stroke="#008763" stroke-miterlimit="2.61313" stroke-linecap="round" stroke-linejoin="round"></path>
<path d="M81.7936 69.5035L87.6289 73.0127" stroke="#008763" stroke-miterlimit="2.61313" stroke-linecap="round" stroke-linejoin="round"></path>
<path d="M82.6537 68.0734L88.4891 71.5825" stroke="#008763" stroke-miterlimit="2.61313" stroke-linecap="round" stroke-linejoin="round"></path>
<path d="M83.5136 66.6432L89.3489 70.1523" stroke="#008763" stroke-miterlimit="2.61313" stroke-linecap="round" stroke-linejoin="round"></path>
<path d="M84.3737 65.2129L90.2091 68.722" stroke="#008763" stroke-miterlimit="2.61313" stroke-linecap="round" stroke-linejoin="round"></path>
<path d="M85.2307 63.7878L91.066 67.297" stroke="#008763" stroke-miterlimit="2.61313" stroke-linecap="round" stroke-linejoin="round"></path>
</svg>