<svg width="124" height="124" viewbox="0 0 124 124" fill="none" xmlns="http://www.w3.org/2000/svg">
<path d="M43.4779 44.3776C44.605 44.3776 45.5187 43.4639 45.5187 42.3367C45.5187 41.2096 44.605 40.2959 43.4779 40.2959C42.3508 40.2959 41.437 41.2096 41.437 42.3367C41.437 43.4639 42.3508 44.3776 43.4779 44.3776Z" fill="black"></path>
<path d="M42.0797 42.1139C42.5097 42.1139 42.8583 41.7653 42.8583 41.3353C42.8583 40.9052 42.5097 40.5566 42.0797 40.5566C41.6496 40.5566 41.301 40.9052 41.301 41.3353C41.301 41.7653 41.6496 42.1139 42.0797 42.1139Z" fill="white"></path>
<path fill-rule="evenodd" clip-rule="evenodd" d="M51.5884 44.8812C53.8834 44.5533 48.269 41.1847 47.9985 40.988C46.7527 40.0946 45.1053 39.5537 43.3513 39.4635C39.368 39.2586 37.6878 40.906 34.8437 43.1354C34.8437 43.1354 35.901 42.9879 37.0485 44.2501C38.1959 45.5205 42.6055 47.0286 46.4331 46.0942C50.2689 45.1598 51.5966 44.8894 51.5966 44.8894L51.5884 44.8812Z" stroke="black" stroke-miterlimit="2.61313" stroke-linecap="round" stroke-linejoin="round"></path>
<mask id="mask0_314_501" style="mask-type:alpha" maskunits="userSpaceOnUse" x="39" y="38" width="9" height="9">
<path d="M43.4825 46.024C45.5195 46.024 47.1708 44.3727 47.1708 42.3357C47.1708 40.2988 45.5195 38.6475 43.4825 38.6475C41.4455 38.6475 39.7943 40.2988 39.7943 42.3357C39.7943 44.3727 41.4455 46.024 43.4825 46.024Z" stroke="black" stroke-miterlimit="2.61313" stroke-linecap="round" stroke-linejoin="round"></path>
</mask>
<g mask="url(#mask0_314_501)">
<path fill-rule="evenodd" clip-rule="evenodd" d="M51.5884 44.8812C53.8834 44.5533 48.269 41.1847 47.9985 40.988C46.7527 40.0946 45.1053 39.5537 43.3513 39.4635C39.368 39.2586 37.6878 40.906 34.8437 43.1354C34.8437 43.1354 35.901 42.9879 37.0485 44.2501C38.1959 45.5205 42.6054 47.0286 46.4331 46.0942C50.2689 45.1598 51.5966 44.8894 51.5966 44.8894L51.5884 44.8812Z" fill="black" stroke="black" stroke-miterlimit="2.61313" stroke-linecap="round" stroke-linejoin="round"></path>
</g>
<path d="M51.0574 43.4229C51.0574 43.4229 50.3444 44.1605 50.6394 45.0211" stroke="black" stroke-miterlimit="2.61313" stroke-linecap="round" stroke-linejoin="round"></path>
<path d="M51.9175 42.3771C51.9175 42.3771 49.3194 37.8528 43.2214 37.7873C37.1235 37.7299 34.1073 41.4428 34.1073 41.4428" stroke="black" stroke-miterlimit="2.61313" stroke-linecap="round" stroke-linejoin="round"></path>
<path fill-rule="evenodd" clip-rule="evenodd" d="M52.6785 35.9253C52.6785 35.9253 53.7686 34.5155 50.6294 32.8681C50.6294 32.8681 39.2204 29.4831 36.5648 29.8109C33.9093 30.1388 29.7456 33.4746 29.7456 33.4746C29.7456 33.4746 34.3929 31.6879 39.704 33.0976C45.0151 34.5073 52.1375 36.4826 52.6785 35.9171V35.9253Z" stroke="black" stroke-miterlimit="2.61313" stroke-linecap="round" stroke-linejoin="round"></path>
<path d="M61.7765 68.7271C61.7765 68.7271 60.2848 68.768 59.6783 68.0796C59.0717 67.3911 57.5473 66.7928 56.3342 66.8747" stroke="black" stroke-miterlimit="2.61313" stroke-linecap="round" stroke-linejoin="round"></path>
<path d="M54.6103 63.4971C54.6103 63.4971 52.5941 67.7263 56.7823 68.4148" stroke="black" stroke-miterlimit="2.61313" stroke-linecap="round" stroke-linejoin="round"></path>
<path d="M55.4166 40.7607C55.4166 40.7607 59.0393 43.9818 58.3181 52.8419" stroke="black" stroke-miterlimit="2.61313" stroke-linecap="round" stroke-linejoin="round"></path>
<path fill-rule="evenodd" clip-rule="evenodd" d="M62.005 76.822C62.005 76.822 59.0462 75.3713 56.948 76.5843C54.8498 77.7891 48.8911 80.7725 48.8911 80.7725C48.8911 80.7725 51.5467 88.9113 62.005 88.9113C72.4551 88.9113 75.1188 80.7725 75.1188 80.7725C75.1188 80.7725 69.1602 77.7891 67.062 76.5843C64.9638 75.3795 62.005 76.822 62.005 76.822V76.822Z" stroke="black" stroke-miterlimit="2.61313" stroke-linecap="round" stroke-linejoin="round"></path>
<path d="M62.0011 81.7749C62.0011 81.7749 61.2553 81.7339 60.3291 81.3487C59.403 80.9635 54.7721 80.7831 52.5182 81.3077C50.2642 81.8322 49.5758 80.5864 47.1579 80.5864" stroke="black" stroke-miterlimit="2.61313" stroke-linecap="round" stroke-linejoin="round"></path>
<path d="M20.0257 40.9985C20.0257 40.9985 24.8451 61.2512 27.4187 71.8079C30.0004 82.3645 30.6397 84.1349 36.2787 89.4542C41.9177 94.7735 52.7366 104.765 61.9982 104.765" stroke="black" stroke-miterlimit="2.61313" stroke-linecap="round" stroke-linejoin="round"></path>
<path d="M16.5444 38.2114C16.5444 38.2114 13.438 38.2524 14.4871 42.7603C15.5362 47.2682 19.3229 53.8005 19.8064 58.6281C20.29 63.4638 22.1915 64.8899 25.6667 64.5785" stroke="black" stroke-miterlimit="2.61313" stroke-linecap="round" stroke-linejoin="round"></path>
<path d="M17.352 44.9407C17.352 44.9407 17.8683 42.7687 18.8929 43.49C19.9174 44.2113 22.073 49.9322 22.073 49.9322C22.073 49.9322 20.6878 52.8336 21.4583 53.7188C22.2287 54.604 23.7122 56.4071 23.7122 56.4071" stroke="black" stroke-miterlimit="2.61313" stroke-linecap="round" stroke-linejoin="round"></path>
<path d="M80.5114 44.3776C81.6385 44.3776 82.5522 43.4639 82.5522 42.3367C82.5522 41.2096 81.6385 40.2959 80.5114 40.2959C79.3843 40.2959 78.4706 41.2096 78.4706 42.3367C78.4706 43.4639 79.3843 44.3776 80.5114 44.3776Z" fill="black"></path>
<path d="M79.1244 42.1139C79.5545 42.1139 79.9031 41.7653 79.9031 41.3353C79.9031 40.9052 79.5545 40.5566 79.1244 40.5566C78.6944 40.5566 78.3458 40.9052 78.3458 41.3353C78.3458 41.7653 78.6944 42.1139 79.1244 42.1139Z" fill="white"></path>
<path fill-rule="evenodd" clip-rule="evenodd" d="M72.4044 44.8812C70.1095 44.5533 75.7238 41.1847 75.9943 40.988C77.2401 40.0946 78.8876 39.5537 80.6415 39.4635C84.6249 39.2586 86.3051 40.906 89.1491 43.1354C89.1491 43.1354 88.0918 42.9879 86.9444 44.2501C85.7969 45.5205 81.3874 47.0286 77.5598 46.0942C73.724 45.1598 72.3962 44.8894 72.3962 44.8894L72.4044 44.8812Z" stroke="black" stroke-miterlimit="2.61313" stroke-linecap="round" stroke-linejoin="round"></path>
<mask id="mask1_314_501" style="mask-type:alpha" maskunits="userSpaceOnUse" x="76" y="38" width="9" height="9">
<path d="M80.5159 46.024C82.5529 46.024 84.2042 44.3727 84.2042 42.3357C84.2042 40.2988 82.5529 38.6475 80.5159 38.6475C78.479 38.6475 76.8277 40.2988 76.8277 42.3357C76.8277 44.3727 78.479 46.024 80.5159 46.024Z" stroke="black" stroke-miterlimit="2.61313" stroke-linecap="round" stroke-linejoin="round"></path>
</mask>
<g mask="url(#mask1_314_501)">
<path fill-rule="evenodd" clip-rule="evenodd" d="M72.4044 44.8812C70.1095 44.5533 75.7239 41.1847 75.9943 40.988C77.2402 40.0946 78.8876 39.5537 80.6416 39.4635C84.6249 39.2586 86.3051 40.906 89.1492 43.1354C89.1492 43.1354 88.0919 42.9879 86.9444 44.2501C85.7969 45.5205 81.3874 47.0286 77.5598 46.0942C73.724 45.1598 72.3962 44.8894 72.3962 44.8894L72.4044 44.8812Z" fill="black" stroke="black" stroke-miterlimit="2.61313" stroke-linecap="round" stroke-linejoin="round"></path>
</g>
<path d="M72.9421 43.4229C72.9421 43.4229 73.6551 44.1605 73.3601 45.0211" stroke="black" stroke-miterlimit="2.61313" stroke-linecap="round" stroke-linejoin="round"></path>
<path d="M72.0811 42.3771C72.0811 42.3771 74.6793 37.8528 80.7772 37.7873C86.8751 37.7299 89.8913 41.4428 89.8913 41.4428" stroke="black" stroke-miterlimit="2.61313" stroke-linecap="round" stroke-linejoin="round"></path>
<path fill-rule="evenodd" clip-rule="evenodd" d="M71.324 35.9253C71.324 35.9253 70.2339 34.5155 73.373 32.8681C73.373 32.8681 84.782 29.4831 87.4376 29.8109C90.0932 30.1388 94.2568 33.4746 94.2568 33.4746C94.2568 33.4746 89.6096 31.6879 84.2985 33.0976C78.9874 34.5073 71.8649 36.4826 71.324 35.9171V35.9253Z" stroke="black" stroke-miterlimit="2.61313" stroke-linecap="round" stroke-linejoin="round"></path>
<path d="M62.225 68.7271C62.225 68.7271 63.7167 68.768 64.3233 68.0796C64.9298 67.3911 66.4542 66.7928 67.6673 66.8747" stroke="black" stroke-miterlimit="2.61313" stroke-linecap="round" stroke-linejoin="round"></path>
<path d="M69.3818 63.4971C69.3818 63.4971 71.398 67.7263 67.2098 68.4148" stroke="black" stroke-miterlimit="2.61313" stroke-linecap="round" stroke-linejoin="round"></path>
<path d="M68.5861 40.7607C68.5861 40.7607 64.9634 43.9818 65.6846 52.8419" stroke="black" stroke-miterlimit="2.61313" stroke-linecap="round" stroke-linejoin="round"></path>
<path d="M61.9986 81.7749C61.9986 81.7749 62.7444 81.7339 63.6706 81.3487C64.5967 80.9635 69.2276 80.7831 71.4815 81.3077C73.7355 81.8322 74.4239 80.5864 76.8418 80.5864" stroke="black" stroke-miterlimit="2.61313" stroke-linecap="round" stroke-linejoin="round"></path>
<path d="M103.982 40.9985C103.982 40.9985 99.163 61.2512 96.5894 71.8079C94.0076 82.3645 93.3683 84.1349 87.7293 89.4542C82.0904 94.7735 71.2715 104.765 62.0098 104.765" stroke="black" stroke-miterlimit="2.61313" stroke-linecap="round" stroke-linejoin="round"></path>
<path d="M107.452 38.2114C107.452 38.2114 110.558 38.2524 109.509 42.7603C108.46 47.2682 104.674 53.8005 104.19 58.6281C103.706 63.4638 101.805 64.8899 98.3298 64.5785" stroke="black" stroke-miterlimit="2.61313" stroke-linecap="round" stroke-linejoin="round"></path>
<path d="M106.661 44.9407C106.661 44.9407 106.145 42.7687 105.12 43.49C104.096 44.2113 101.94 49.9322 101.94 49.9322C101.94 49.9322 103.325 52.8336 102.555 53.7188C101.784 54.604 100.301 56.4071 100.301 56.4071" stroke="black" stroke-miterlimit="2.61313" stroke-linecap="round" stroke-linejoin="round"></path>
<path d="M75.206 54.5379C75.0995 54.3985 75.1241 54.1936 75.2634 54.0871C75.4027 53.9805 75.6076 54.0051 75.7142 54.1444L75.206 54.5379ZM112.933 57.3327L113.392 57.7917L111.523 59.5375L109.671 61.0456L107.835 62.3242L106.015 63.3897L104.212 64.2503L102.434 64.9224L100.688 65.4142L98.9667 65.7338L97.2865 65.8977L95.639 65.9141L94.0326 65.7994L92.4753 65.5617L90.9672 65.2175L89.5083 64.7831L88.1068 64.2585L86.7626 63.6684L85.4758 63.0209L84.2464 62.3242L83.0825 61.5948L81.9924 60.8407L80.9679 60.0785L80.0172 59.3244L79.1484 58.5786L78.3533 57.8655L77.6403 57.1852L77.0174 56.5623L76.4764 55.9968L76.0256 55.505L75.6732 55.1034L75.4191 54.8001L75.2634 54.6116L75.206 54.5379L75.7142 54.1444L75.7634 54.2018L75.9109 54.3903L76.1568 54.6854L76.501 55.0788L76.9354 55.5624L77.46 56.1197L78.0747 56.7344L78.7714 57.3983L79.55 58.1032L80.4106 58.8326L81.3449 59.5785L82.3449 60.3243L83.4186 61.062L84.5578 61.7751L85.7545 62.4553L87.0167 63.0865L88.3281 63.6602L89.6968 64.1683L91.1148 64.5945L92.5819 64.9306L94.09 65.1601L95.639 65.2748L97.2291 65.2584L98.8601 65.1027L100.524 64.7913L102.221 64.3159L103.942 63.6684L105.696 62.8324L107.474 61.7915L109.269 60.5374L111.089 59.0621L112.925 57.3409L112.933 57.3327ZM115.826 54.8985L114.425 59.1195L111.613 56.3082L115.826 54.8985ZM112.933 57.3327C113.056 57.2098 113.261 57.2098 113.392 57.3327C113.515 57.4557 113.515 57.6606 113.392 57.7917L112.933 57.3327Z" fill="#008763"></path>
<path d="M75.206 54.5379C75.0995 54.3985 75.1241 54.1936 75.2634 54.0871C75.4027 53.9805 75.6076 54.0051 75.7142 54.1444M75.206 54.5379L75.7142 54.1444M75.206 54.5379L75.2634 54.6116L75.4191 54.8001L75.6732 55.1034L76.0256 55.505L76.4764 55.9968L77.0174 56.5623L77.6403 57.1852L78.3533 57.8655L79.1484 58.5786L80.0172 59.3244L80.9679 60.0785L81.9924 60.8407L83.0825 61.5948L84.2464 62.3242L85.4758 63.0209L86.7626 63.6684L88.1068 64.2585L89.5083 64.7831L90.9672 65.2175L92.4753 65.5617L94.0326 65.7994L95.639 65.9141L97.2865 65.8977L98.9667 65.7338L100.688 65.4142L102.434 64.9224L104.212 64.2503L106.015 63.3897L107.835 62.3242L109.671 61.0456L111.523 59.5375L113.392 57.7917M75.7142 54.1444L75.7634 54.2018L75.9109 54.3903L76.1568 54.6854L76.501 55.0788L76.9354 55.5624L77.46 56.1197L78.0747 56.7344L78.7714 57.3983L79.55 58.1032L80.4106 58.8326L81.3449 59.5785L82.3449 60.3243L83.4186 61.062L84.5578 61.7751L85.7545 62.4553L87.0167 63.0865L88.3281 63.6602L89.6968 64.1683L91.1148 64.5945L92.5819 64.9306L94.09 65.1601L95.639 65.2748L97.2291 65.2584L98.8601 65.1027L100.524 64.7913L102.221 64.3159L103.942 63.6684L105.696 62.8324L107.474 61.7915L109.269 60.5374L111.089 59.0621L112.925 57.3409L112.933 57.3327M112.933 57.3327L113.392 57.7917M112.933 57.3327C113.056 57.2098 113.261 57.2098 113.392 57.3327C113.515 57.4557 113.515 57.6606 113.392 57.7917M115.826 54.8985L114.425 59.1195L111.613 56.3082L115.826 54.8985Z" stroke="#008763" stroke-width="2"></path>
<path d="M48.2766 54.1444C48.3832 54.0051 48.5881 53.9805 48.7274 54.0871C48.8668 54.1936 48.8913 54.3985 48.7848 54.5379L48.2766 54.1444ZM10.5989 57.7917L11.0579 57.3327L12.8938 59.0539L14.7134 60.5292L16.5083 61.7833L18.2869 62.8242L20.0409 63.6602L21.7621 64.3077L23.4587 64.7831L25.1225 65.0945L26.7535 65.2502L28.3436 65.2666L29.8927 65.1519L31.4007 64.9224L32.8679 64.5864L34.2858 64.1601L35.6546 63.652L36.9659 63.0783L38.2281 62.4472L39.4248 61.7669L40.5641 61.0538L41.6377 60.3161L42.6377 59.5703L43.572 58.8244L44.4326 58.095L45.2113 57.3901L45.9079 56.7262L46.5227 56.1115L47.0472 55.5542L47.4816 55.0706L47.8258 54.6772L48.0717 54.3821L48.2193 54.1936L48.2684 54.1362L48.7766 54.5297L48.7192 54.6034L48.5635 54.7919L48.3094 55.0952L47.957 55.4968L47.5062 55.9886L46.9653 56.5541L46.3423 57.177L45.6293 57.8573L44.8342 58.5704L43.9655 59.3162L43.0147 60.0703L41.9902 60.8325L40.9001 61.5866L39.7362 62.316L38.5068 63.0127L37.22 63.6602L35.8758 64.2503L34.4743 64.7749L33.0154 65.2093L31.5073 65.5535L29.95 65.7912L28.3436 65.9059L26.6962 65.8895L25.0159 65.7256L23.2947 65.406L21.549 64.9142L19.7704 64.2421L17.9672 63.3815L16.1477 62.316L14.3118 61.0374L12.4594 59.5293L10.5907 57.7835L10.5989 57.7917ZM8.16464 54.8903L12.3857 56.3L9.57438 59.1113L8.16464 54.8903ZM10.5989 57.7917C10.476 57.6688 10.476 57.4639 10.5989 57.3327C10.7218 57.2098 10.9267 57.2098 11.0579 57.3327L10.5989 57.7917Z" fill="#008763"></path>
<path d="M10.5989 57.7917L11.0579 57.3327M10.5989 57.7917L10.5907 57.7835L12.4594 59.5293L14.3118 61.0374L16.1477 62.316L17.9672 63.3815L19.7704 64.2421L21.549 64.9142L23.2947 65.406L25.0159 65.7256L26.6962 65.8895L28.3436 65.9059L29.95 65.7912L31.5073 65.5535L33.0154 65.2093L34.4743 64.7749L35.8758 64.2503L37.22 63.6602L38.5068 63.0127L39.7362 62.316L40.9001 61.5866L41.9902 60.8325L43.0147 60.0703L43.9655 59.3162L44.8342 58.5704L45.6293 57.8573L46.3423 57.177L46.9653 56.5541L47.5062 55.9886L47.957 55.4968L48.3094 55.0952L48.5635 54.7919L48.7192 54.6034L48.7766 54.5297L48.2684 54.1362L48.2193 54.1936L48.0717 54.3821L47.8258 54.6772L47.4816 55.0706L47.0472 55.5542L46.5227 56.1115L45.9079 56.7262L45.2113 57.3901L44.4326 58.095L43.572 58.8244L42.6377 59.5703L41.6377 60.3161L40.5641 61.0538L39.4248 61.7669L38.2281 62.4472L36.9659 63.0783L35.6546 63.652L34.2858 64.1601L32.8679 64.5864L31.4007 64.9224L29.8927 65.1519L28.3436 65.2666L26.7535 65.2502L25.1225 65.0945L23.4587 64.7831L21.7621 64.3077L20.0409 63.6602L18.2869 62.8242L16.5083 61.7833L14.7134 60.5292L12.8938 59.0539L11.0579 57.3327M10.5989 57.7917C10.476 57.6688 10.476 57.4639 10.5989 57.3327C10.7218 57.2098 10.9267 57.2098 11.0579 57.3327M48.2766 54.1444C48.3832 54.0051 48.5881 53.9805 48.7274 54.0871C48.8668 54.1936 48.8913 54.3985 48.7848 54.5379L48.2766 54.1444ZM8.16464 54.8903L12.3857 56.3L9.57438 59.1113L8.16464 54.8903Z" stroke="#008763" stroke-width="2"></path>
</svg>