<svg class="buy__save-svg" width="84" height="84" viewbox="0 0 84 84" fill="none" xmlns="http://www.w3.org/2000/svg">
<circle cx="42" cy="42" r="38" fill="#008763"></circle>
<circle cx="42" cy="42" r="41" stroke="#008763" stroke-width="2"></circle>
<path d="M27.1375 36.8829C26.4127 36.7551 25.7836 36.5142 25.2503 36.1602C24.7294 35.7976 24.3459 35.3617 24.0999 34.8526C23.8558 34.333 23.7813 33.7729 23.8763 33.1723L25.4048 33.4418C25.3665 33.9657 25.4997 34.4387 25.8044 34.8607C26.1215 35.2741 26.6371 35.5437 27.3515 35.6696C28.0343 35.79 28.5996 35.7164 29.0476 35.4488C29.5079 35.1726 29.7853 34.7666 29.8797 34.2308C29.9538 33.8106 29.8985 33.4489 29.7137 33.1455C29.5289 32.8421 29.2752 32.5916 28.9526 32.3939C28.63 32.1962 28.1885 31.9667 27.628 31.7054C26.9366 31.3886 26.3869 31.0967 25.979 30.8298C25.5817 30.5648 25.2606 30.2049 25.0159 29.7501C24.7835 29.2868 24.7275 28.7137 24.8479 28.0309C24.9535 27.4321 25.1993 26.9285 25.5855 26.52C25.9716 26.1115 26.46 25.8293 27.0507 25.6736C27.6519 25.5196 28.3096 25.5056 29.024 25.6316C30.0534 25.8131 30.8484 26.2186 31.4089 26.8482C31.98 27.4796 32.2325 28.2282 32.1665 29.0939L30.5908 28.816C30.6124 28.3866 30.4566 27.98 30.1235 27.5964C29.7922 27.2022 29.3062 26.9486 28.6654 26.8356C28.0667 26.73 27.5504 26.8015 27.1167 27.0499C26.6848 27.2879 26.4198 27.6852 26.3216 28.242C26.2512 28.6411 26.3041 28.9862 26.4802 29.2772C26.6669 29.5701 26.911 29.8135 27.2126 30.0075C27.5265 30.1928 27.968 30.4223 28.5371 30.696C29.2268 31.0234 29.7746 31.3258 30.1806 31.6031C30.5884 31.87 30.9138 32.2361 31.1567 32.7013C31.4015 33.1561 31.4627 33.7301 31.3405 34.4234C31.246 34.9591 31.0153 35.4383 30.6483 35.861C30.2813 36.2837 29.7935 36.5931 29.1849 36.789C28.5763 36.985 27.8939 37.0163 27.1375 36.8829ZM40.83 36.6653L36.0399 35.8207L34.7268 38.1074L33.2142 37.8407L39.1103 27.6213L40.7648 27.913L42.7944 39.5299L41.2817 39.2632L40.83 36.6653ZM40.6259 35.427L39.6185 29.5305L36.6551 34.7269L40.6259 35.427ZM56.5222 30.6265L50.4416 40.8783L48.7872 40.5866L46.5796 28.8733L48.108 29.1428L49.889 39.2212L55.0096 30.3598L56.5222 30.6265ZM60.3076 32.4962L59.6602 36.1676L63.6625 36.8733L63.4541 38.055L59.4518 37.3493L58.785 41.131L63.26 41.9201L63.0516 43.1018L57.1428 42.0599L59.0821 31.0616L64.9909 32.1035L64.7825 33.2853L60.3076 32.4962ZM28.9705 50.0249C28.8686 50.6026 28.6218 51.1115 28.2301 51.5515C27.8508 51.9829 27.3392 52.3042 26.6954 52.5157C26.0639 52.7184 25.3462 52.7652 24.5423 52.6559L24.3173 53.9322L23.3088 53.7544L23.5367 52.4623C22.4399 52.1715 21.6001 51.6822 21.0173 50.9945C20.4363 50.2964 20.2119 49.4499 20.344 48.4551L23.2118 48.9607C23.1637 49.6021 23.397 50.0603 23.9117 50.3351L24.3507 47.8456C23.5684 47.491 22.948 47.1704 22.4895 46.8837C22.0415 46.5989 21.6725 46.2035 21.3826 45.6975C21.0928 45.1915 21.0154 44.5551 21.1507 43.7882C21.3192 42.8323 21.8063 42.1275 22.612 41.6739C23.4282 41.2221 24.3995 41.0576 25.526 41.1804L25.751 39.9041L26.7595 40.0819L26.5344 41.3582C27.6226 41.6367 28.438 42.1108 28.9806 42.7806C29.5232 43.4503 29.7442 44.2854 29.6436 45.2858L26.7601 44.7773C26.7971 44.199 26.5941 43.7841 26.151 43.5326L25.7204 45.975C26.5496 46.3703 27.184 46.7042 27.6233 46.9766C28.0627 47.2491 28.4273 47.6383 28.7172 48.1443C29.0194 48.6417 29.1038 49.2685 28.9705 50.0249ZM24.0249 44.1651C23.9786 44.4277 24.0185 44.6622 24.1446 44.8685C24.2811 45.0767 24.4897 45.276 24.7703 45.4663L25.1565 43.276C24.8531 43.2767 24.6016 43.3515 24.402 43.5005C24.2043 43.6389 24.0786 43.8604 24.0249 44.1651ZM24.9119 50.5602C25.2363 50.5633 25.5053 50.4808 25.7191 50.3127C25.9434 50.1464 26.0815 49.9162 26.1333 49.6221C26.1815 49.349 26.1311 49.1126 25.9821 48.9131C25.8456 48.7049 25.6203 48.5081 25.3064 48.3228L24.9119 50.5602ZM31.4111 51.5438C31.8182 51.3231 32.0042 51.2205 31.969 51.236C33.1485 50.5666 34.0805 50.0107 34.7651 49.5682C35.4602 49.1275 36.0653 48.6439 36.5806 48.1174C37.0958 47.5909 37.4035 47.044 37.5035 46.4767C37.5794 46.046 37.5389 45.6923 37.3819 45.4155C37.2249 45.1387 36.9469 44.9651 36.5477 44.8947C36.1485 44.8243 35.8065 44.9211 35.5217 45.185C35.2492 45.4402 35.0649 45.8409 34.9685 46.3872L32.3686 45.9287C32.5471 45.0395 32.8677 44.3271 33.3304 43.7913C33.8037 43.2573 34.3594 42.9004 34.9977 42.7205C35.6465 42.5425 36.3333 42.5174 37.0581 42.6452C38.3081 42.8656 39.1918 43.3517 39.7091 44.1037C40.2369 44.8574 40.41 45.749 40.2285 46.7785C40.0303 47.9025 39.4626 48.8801 38.5253 49.7113C37.59 50.532 36.4482 51.2947 35.1 51.9993L39.3544 52.7494L38.9682 54.9396L31.0582 53.5449L31.4111 51.5438ZM44.0915 49.6367C43.1967 48.9374 42.8483 48.0257 43.0465 46.9017C43.1466 46.3345 43.3844 45.8457 43.76 45.4353C44.1375 45.0145 44.6497 44.7203 45.2966 44.5527C45.9454 44.3747 46.7057 44.3625 47.5776 44.5163C48.4495 44.67 49.1545 44.9406 49.6928 45.3279C50.2434 45.7066 50.6241 46.1582 50.8349 46.6828C51.0475 47.1969 51.1038 47.7375 51.0038 48.3048C50.9038 48.872 50.6801 49.3417 50.3329 49.7137C49.9962 50.0876 49.5807 50.3555 49.0864 50.5175C49.6055 50.8906 49.9748 51.3456 50.1942 51.8826C50.4155 52.409 50.4696 52.9926 50.3567 53.6334C50.2251 54.3792 49.9221 54.9919 49.4477 55.4714C48.975 55.9405 48.3881 56.2594 47.6868 56.4282C46.996 56.5988 46.2567 56.6147 45.4688 56.4758C44.681 56.3369 43.9864 56.0682 43.3851 55.6697C42.7944 55.2731 42.3571 54.7736 42.0734 54.1712C41.7916 53.5582 41.7164 52.8789 41.8479 52.133C41.9628 51.4818 42.2142 50.9466 42.6021 50.5276C42.992 50.0981 43.4884 49.8012 44.0915 49.6367ZM48.3159 48.2533C48.3918 47.8226 48.3241 47.4694 48.1128 47.1939C47.9138 46.9097 47.6094 46.7315 47.1997 46.6592C46.7901 46.587 46.4379 46.6494 46.1432 46.8466C45.8589 47.0456 45.6789 47.3604 45.6029 47.7911C45.5307 48.2008 45.5993 48.5487 45.8088 48.8347C46.0202 49.1103 46.3255 49.2833 46.7246 49.3537C47.1238 49.424 47.4708 49.3607 47.7655 49.1635C48.0602 48.9664 48.2437 48.6629 48.3159 48.2533ZM46.3912 51.2445C45.8975 51.1574 45.4743 51.2236 45.1215 51.443C44.7705 51.6519 44.5534 51.9927 44.47 52.4654C44.3922 52.9066 44.4754 53.295 44.7195 53.6304C44.9741 53.9678 45.3536 54.1809 45.8578 54.2698C46.362 54.3587 46.7809 54.2864 47.1146 54.0528C47.4587 53.821 47.6697 53.4845 47.7475 53.0433C47.829 52.5811 47.7415 52.1866 47.485 51.8598C47.239 51.5348 46.8744 51.3297 46.3912 51.2445ZM62.027 49.7286L57.1108 48.8617L56.7274 51.0362C56.9783 50.8421 57.3057 50.7049 57.7098 50.6245C58.1139 50.5441 58.5366 50.5428 58.9778 50.6206C59.7656 50.7596 60.3854 51.053 60.8372 51.5009C61.2994 51.9507 61.6013 52.4805 61.7429 53.0903C61.8845 53.7002 61.897 54.336 61.7803 54.9978C61.5636 56.2268 61.0446 57.1426 60.2235 57.7452C59.4043 58.3373 58.3644 58.5222 57.1038 58.2999C56.2635 58.1517 55.5584 57.8812 54.9886 57.4883C54.4207 57.0849 54.0141 56.5961 53.7687 56.0221C53.5233 55.4482 53.4441 54.8222 53.5311 54.1444L56.1626 54.6084C56.1682 54.9451 56.2723 55.2451 56.475 55.5083C56.6796 55.761 56.992 55.9244 57.4121 55.9985C57.9059 56.0855 58.3013 55.9928 58.5985 55.7202C58.8957 55.4477 59.0905 55.0488 59.1832 54.5236C59.2739 54.0089 59.2173 53.5927 59.0134 53.2751C58.8094 52.9576 58.4658 52.7562 57.9826 52.671C57.6255 52.608 57.3156 52.6454 57.053 52.7833C56.7923 52.9106 56.6001 53.1096 56.4766 53.3802L53.8767 52.9218L55.0853 46.0675L62.4438 47.365L62.027 49.7286Z" fill="white"></path>
</svg>