<svg width="31" height="31" viewbox="0 0 31 31" fill="none" xmlns="http://www.w3.org/2000/svg">
<path d="M22.6972 16.9858C22.6972 21.7625 18.8369 25.5117 14.0741 25.5117C9.29738 25.5117 5.43713 21.6514 5.43713 16.8886C5.43713 12.7645 11.6857 4.64131 14.0741 0.919922L20.2672 10.6677" stroke="black" stroke-width="1.5" stroke-miterlimit="2.61313" stroke-linecap="round" stroke-linejoin="round"></path>
<path d="M24.7522 16.9306H19.0174L24.5162 8.82129L30.0288 16.9306H27.3072M27.2655 16.8889C27.2655 24.1651 21.3641 30.0804 14.074 30.0804M14.074 30.0804C6.784 30.0804 0.868652 24.1651 0.868652 16.8889" stroke="black" stroke-width="1.5" stroke-miterlimit="2.61313" stroke-linecap="round" stroke-linejoin="round"></path>
<path d="M1.28516 14.5137L1.5351 13.875" stroke="black" stroke-width="1.5" stroke-miterlimit="2.61313" stroke-linecap="round" stroke-linejoin="round"></path>
<path d="M2.27112 12.0421L2.52106 11.4033" stroke="black" stroke-width="1.5" stroke-miterlimit="2.61313" stroke-linecap="round" stroke-linejoin="round"></path>
<path d="M12.005 19.0685C12.2827 19.2906 12.8659 19.6794 13.7129 19.7627V20.3876C13.7129 20.5681 13.8101 20.6653 14.0184 20.6653H14.1017C14.31 20.6653 14.4072 20.5542 14.4072 20.3459V19.7627C15.5736 19.6239 16.2679 18.8046 16.2679 17.8187C16.2679 15.6109 12.8659 15.9025 12.8659 14.5139C12.8659 13.9724 13.3797 13.5003 14.1156 13.5003C14.6849 13.5003 15.1293 13.7363 15.3653 13.9029C15.5597 14.014 15.7125 14.0001 15.8236 13.8057L15.9485 13.5697C16.0457 13.3892 16.0319 13.2364 15.8652 13.1253C15.6014 12.9448 15.1154 12.6671 14.4072 12.6254V11.9867C14.4072 11.8062 14.31 11.709 14.1017 11.709H14.0184C13.8101 11.709 13.7129 11.8201 13.7129 12.0284V12.6254C12.616 12.7921 11.8939 13.5836 11.8939 14.5417C11.8939 16.6384 15.2959 16.4163 15.2959 17.8604C15.2959 18.513 14.7266 18.8741 14.0879 18.8741C13.3936 18.8741 12.852 18.5408 12.5743 18.3325C12.3938 18.2214 12.241 18.2214 12.1161 18.388L11.9633 18.6241C11.8245 18.7769 11.8384 18.9435 12.005 19.0685V19.0685Z" fill="black" stroke="black" stroke-width="0.5"></path>
</svg>