<svg width="120" height="115" viewbox="0 0 120 115" fill="none" xmlns="http://www.w3.org/2000/svg">
<path d="M43.4252 38.0166C44.5164 38.0166 45.401 37.132 45.401 36.0408C45.401 34.9496 44.5164 34.0651 43.4252 34.0651C42.334 34.0651 41.4495 34.9496 41.4495 36.0408C41.4495 37.132 42.334 38.0166 43.4252 38.0166Z" fill="#008763"></path>
<path d="M42.0684 35.8315C42.4893 35.8315 42.8305 35.4903 42.8305 35.0695C42.8305 34.6486 42.4893 34.3074 42.0684 34.3074C41.6475 34.3074 41.3063 34.6486 41.3063 35.0695C41.3063 35.4903 41.6475 35.8315 42.0684 35.8315Z" fill="white"></path>
<path fill-rule="evenodd" clip-rule="evenodd" d="M51.3104 38.5139C53.5403 38.1893 48.0787 34.9151 47.8246 34.7317C46.6109 33.8708 45.0162 33.3345 43.3086 33.2498C39.4417 33.0522 37.8046 34.647 35.0385 36.8203C35.0385 36.8203 36.0688 36.6792 37.1837 37.907C38.2986 39.1348 42.5888 40.6025 46.3146 39.6993C50.0403 38.7961 51.3387 38.528 51.3387 38.528L51.3104 38.5139Z" stroke="#008763" stroke-width="1.2" stroke-miterlimit="2.61313" stroke-linecap="round" stroke-linejoin="round"></path>
<mask id="mask0_1216_1392" style="mask-type:alpha" maskunits="userSpaceOnUse" x="39" y="31" width="9" height="10">
<path d="M43.426 39.626C45.4057 39.626 47.0106 38.0211 47.0106 36.0414C47.0106 34.0617 45.4057 32.4568 43.426 32.4568C41.4462 32.4568 39.8413 34.0617 39.8413 36.0414C39.8413 38.0211 41.4462 39.626 43.426 39.626Z" stroke="black" stroke-width="1.2" stroke-miterlimit="2.61313" stroke-linecap="round" stroke-linejoin="round"></path>
</mask>
<g mask="url(#mask0_1216_1392)">
<path fill-rule="evenodd" clip-rule="evenodd" d="M51.3103 38.5134C53.5401 38.1888 48.0785 34.9146 47.8245 34.7312C46.6108 33.8703 45.0161 33.334 43.3085 33.2493C39.4416 33.0518 37.8045 34.6465 35.0384 36.8198C35.0384 36.8198 36.0687 36.6787 37.1836 37.9065C38.2985 39.1343 42.5887 40.602 46.3145 39.6988C50.0402 38.7956 51.3386 38.5275 51.3386 38.5275L51.3103 38.5134Z" fill="#008763" stroke="#008763" stroke-width="1.2" stroke-miterlimit="2.61313" stroke-linecap="round" stroke-linejoin="round"></path>
</g>
<path d="M50.7935 37.1002C50.7935 37.1002 50.102 37.82 50.3843 38.6526" stroke="#008763" stroke-width="1.2" stroke-miterlimit="2.61313" stroke-linecap="round" stroke-linejoin="round"></path>
<path d="M51.6279 36.0854C51.6279 36.0854 49.1018 31.6822 43.1744 31.6258C37.2471 31.5693 34.3117 35.1822 34.3117 35.1822" stroke="#008763" stroke-width="1.2" stroke-miterlimit="2.61313" stroke-linecap="round" stroke-linejoin="round"></path>
<path fill-rule="evenodd" clip-rule="evenodd" d="M52.3688 29.804C52.3688 29.804 53.4273 28.4351 50.3789 26.8403C50.3789 26.8403 39.2864 23.5521 36.7038 23.8767C34.1211 24.2013 30.0708 27.4331 30.0708 27.4331C30.0708 27.4331 34.5869 25.6972 39.7521 27.0661C44.9173 28.4351 51.8467 30.3544 52.3688 29.804V29.804Z" stroke="#008763" stroke-width="1.2" stroke-miterlimit="2.61313" stroke-linecap="round" stroke-linejoin="round"></path>
<path d="M61.2233 61.7014C61.2233 61.7014 59.7697 61.7437 59.1911 61.0804C58.5983 60.4171 57.1165 59.8244 55.9451 59.9091" stroke="#008763" stroke-width="1.2" stroke-miterlimit="2.61313" stroke-linecap="round" stroke-linejoin="round"></path>
<path d="M54.2576 56.6182C54.2576 56.6182 52.296 60.7249 56.3745 61.4024" stroke="#008763" stroke-width="1.2" stroke-miterlimit="2.61313" stroke-linecap="round" stroke-linejoin="round"></path>
<path d="M55.0308 34.5166C55.0308 34.5166 58.559 37.6496 57.8534 46.2725" stroke="#008763" stroke-width="1.2" stroke-miterlimit="2.61313" stroke-linecap="round" stroke-linejoin="round"></path>
<path fill-rule="evenodd" clip-rule="evenodd" d="M61.441 69.5718C61.441 69.5718 58.562 68.1605 56.5298 69.3319C54.4975 70.5032 48.6972 73.4104 48.6972 73.4104C48.6972 73.4104 51.2798 81.3276 61.441 81.3276C71.6021 81.3276 74.1847 73.4104 74.1847 73.4104C74.1847 73.4104 68.3844 70.5173 66.3522 69.3319C64.3199 68.1605 61.441 69.5718 61.441 69.5718V69.5718Z" stroke="#008763" stroke-width="1.2" stroke-miterlimit="2.61313" stroke-linecap="round" stroke-linejoin="round"></path>
<path d="M61.4352 74.3864C61.4352 74.3864 60.7154 74.344 59.8122 73.9771C58.909 73.6102 54.4071 73.4267 52.2196 73.9348C50.0321 74.4428 49.3547 73.2291 47.012 73.2291" stroke="#008763" stroke-width="1.2" stroke-miterlimit="2.61313" stroke-linecap="round" stroke-linejoin="round"></path>
<path d="M20.6201 34.7424C20.6201 34.7424 25.3055 54.4437 27.8035 64.7036C30.3155 74.9635 30.9365 76.6853 36.4122 81.8505C41.902 87.0158 52.4159 96.7394 61.4198 96.7394" stroke="#008763" stroke-width="1.2" stroke-miterlimit="2.61313" stroke-linecap="round" stroke-linejoin="round"></path>
<path d="M17.2374 32.0327C17.2374 32.0327 14.2172 32.0751 15.2334 36.4641C16.2495 40.8531 19.9329 47.1897 20.3986 51.8892C20.8643 56.5888 22.7131 57.9718 26.1001 57.6754" stroke="#008763" stroke-width="1.2" stroke-miterlimit="2.61313" stroke-linecap="round" stroke-linejoin="round"></path>
<path d="M18.0096 38.5669C18.0096 38.5669 18.5035 36.45 19.5055 37.1556C20.5075 37.8612 22.5962 43.4216 22.5962 43.4216C22.5962 43.4216 21.2555 46.2442 22.0034 47.105C22.7514 47.9659 24.1909 49.7159 24.1909 49.7159" stroke="#008763" stroke-width="1.2" stroke-miterlimit="2.61313" stroke-linecap="round" stroke-linejoin="round"></path>
<path d="M79.4442 38.0166C80.5353 38.0166 81.4199 37.132 81.4199 36.0408C81.4199 34.9496 80.5353 34.0651 79.4442 34.0651C78.353 34.0651 77.4684 34.9496 77.4684 36.0408C77.4684 37.132 78.353 38.0166 79.4442 38.0166Z" fill="#008763"></path>
<path d="M78.0762 35.8315C78.4971 35.8315 78.8383 35.4903 78.8383 35.0695C78.8383 34.6486 78.4971 34.3074 78.0762 34.3074C77.6554 34.3074 77.3142 34.6486 77.3142 35.0695C77.3142 35.4903 77.6554 35.8315 78.0762 35.8315Z" fill="white"></path>
<path fill-rule="evenodd" clip-rule="evenodd" d="M71.5475 38.5139C69.3177 38.1893 74.7793 34.9151 75.0333 34.7317C76.247 33.8708 77.8417 33.3345 79.5494 33.2498C83.4163 33.0522 85.0533 34.647 87.8194 36.8203C87.8194 36.8203 86.7892 36.6792 85.6743 37.907C84.5594 39.1348 80.2691 40.6025 76.5434 39.6993C72.8176 38.7961 71.5193 38.528 71.5193 38.528L71.5475 38.5139Z" stroke="#008763" stroke-width="1.2" stroke-miterlimit="2.61313" stroke-linecap="round" stroke-linejoin="round"></path>
<mask id="mask1_1216_1392" style="mask-type:alpha" maskunits="userSpaceOnUse" x="75" y="31" width="9" height="10">
<path d="M79.4449 39.626C81.4246 39.626 83.0295 38.0211 83.0295 36.0414C83.0295 34.0617 81.4246 32.4568 79.4449 32.4568C77.4652 32.4568 75.8603 34.0617 75.8603 36.0414C75.8603 38.0211 77.4652 39.626 79.4449 39.626Z" stroke="black" stroke-width="1.2" stroke-miterlimit="2.61313" stroke-linecap="round" stroke-linejoin="round"></path>
</mask>
<g mask="url(#mask1_1216_1392)">
<path fill-rule="evenodd" clip-rule="evenodd" d="M71.5473 38.5134C69.3175 38.1888 74.7791 34.9146 75.0332 34.7312C76.2469 33.8703 77.8416 33.334 79.5492 33.2493C83.4161 33.0518 85.0532 34.6465 87.8193 36.8198C87.8193 36.8198 86.789 36.6787 85.6741 37.9065C84.5592 39.1343 80.269 40.602 76.5432 39.6988C72.8175 38.7956 71.5191 38.5275 71.5191 38.5275L71.5473 38.5134Z" fill="#008763" stroke="#008763" stroke-width="1.2" stroke-miterlimit="2.61313" stroke-linecap="round" stroke-linejoin="round"></path>
</g>
<path d="M72.0711 37.1002C72.0711 37.1002 72.7627 37.82 72.4804 38.6526" stroke="#008763" stroke-width="1.2" stroke-miterlimit="2.61313" stroke-linecap="round" stroke-linejoin="round"></path>
<path d="M71.223 36.0854C71.223 36.0854 73.7492 31.6822 79.6765 31.6258C85.6038 31.5693 88.5393 35.1822 88.5393 35.1822" stroke="#008763" stroke-width="1.2" stroke-miterlimit="2.61313" stroke-linecap="round" stroke-linejoin="round"></path>
<path fill-rule="evenodd" clip-rule="evenodd" d="M70.4866 29.804C70.4866 29.804 69.4282 28.4351 72.4765 26.8403C72.4765 26.8403 83.569 23.5521 86.1517 23.8767C88.7343 24.2013 92.7846 27.4331 92.7846 27.4331C92.7846 27.4331 88.2686 25.6972 83.1033 27.0661C77.9381 28.4351 71.0088 30.3544 70.4866 29.804V29.804Z" stroke="#008763" stroke-width="1.2" stroke-miterlimit="2.61313" stroke-linecap="round" stroke-linejoin="round"></path>
<path d="M61.64 61.7014C61.64 61.7014 63.0936 61.7437 63.6722 61.0804C64.2649 60.4171 65.7468 59.8244 66.9181 59.9091" stroke="#008763" stroke-width="1.2" stroke-miterlimit="2.61313" stroke-linecap="round" stroke-linejoin="round"></path>
<path d="M68.6145 56.6182C68.6145 56.6182 70.5761 60.7249 66.4976 61.4024" stroke="#008763" stroke-width="1.2" stroke-miterlimit="2.61313" stroke-linecap="round" stroke-linejoin="round"></path>
<path d="M67.8272 34.5166C67.8272 34.5166 64.299 37.6496 65.0046 46.2725" stroke="#008763" stroke-width="1.2" stroke-miterlimit="2.61313" stroke-linecap="round" stroke-linejoin="round"></path>
<path d="M61.4307 74.3864C61.4307 74.3864 62.1504 74.344 63.0536 73.9771C63.9568 73.6102 68.4588 73.4267 70.6462 73.9348C72.8337 74.4428 73.5111 73.2291 75.8538 73.2291" stroke="#008763" stroke-width="1.2" stroke-miterlimit="2.61313" stroke-linecap="round" stroke-linejoin="round"></path>
<path d="M102.241 34.7424C102.241 34.7424 97.556 54.4437 95.0581 64.7036C92.546 74.9635 91.9251 76.6853 86.4494 81.8505C80.9595 87.0158 70.4456 96.7394 61.4417 96.7394" stroke="#008763" stroke-width="1.2" stroke-miterlimit="2.61313" stroke-linecap="round" stroke-linejoin="round"></path>
<path d="M105.63 32.0327C105.63 32.0327 108.65 32.0751 107.634 36.4641C106.617 40.8531 102.934 47.1897 102.468 51.8892C102.003 56.5888 100.154 57.9718 96.7668 57.6754" stroke="#008763" stroke-width="1.2" stroke-miterlimit="2.61313" stroke-linecap="round" stroke-linejoin="round"></path>
<path d="M104.843 38.5667C104.843 38.5667 104.349 36.4498 103.347 37.1555C102.345 37.8611 100.256 43.4215 100.256 43.4215C100.256 43.4215 101.597 46.244 100.849 47.1049C100.101 47.9658 98.6613 49.7158 98.6613 49.7158" stroke="#008763" stroke-width="1.2" stroke-miterlimit="2.61313" stroke-linecap="round" stroke-linejoin="round"></path>
<path fill-rule="evenodd" clip-rule="evenodd" d="M21.2148 81.0601C28.2147 81.0601 33.8879 74.2296 33.8879 65.8043C33.8879 74.2296 39.5612 81.0601 46.5611 81.0601C39.5612 81.0601 33.8879 87.8907 33.8879 96.3159C33.8879 87.8907 28.2147 81.0601 21.2148 81.0601Z" fill="#FFFAF1" stroke="#008763" stroke-width="1.2" stroke-miterlimit="2.61313" stroke-linecap="round" stroke-linejoin="round"></path>
<path fill-rule="evenodd" clip-rule="evenodd" d="M6.36662 70.2789C10.0218 70.2789 12.9855 66.4826 12.9855 61.8113C12.9855 66.4826 15.9491 70.2789 19.6043 70.2789C15.9491 70.2789 12.9855 74.0752 12.9855 78.7465C12.9855 74.0752 10.0218 70.2789 6.36662 70.2789Z" fill="#FFFAF1" stroke="#008763" stroke-width="1.2" stroke-miterlimit="2.61313" stroke-linecap="round" stroke-linejoin="round"></path>
<path fill-rule="evenodd" clip-rule="evenodd" d="M84 52.2321C87.3134 52.2321 90 48.9214 90 44.8475C90 48.9214 92.6865 52.2321 96 52.2321C92.6865 52.2321 90 55.5429 90 59.6168C90 55.5429 87.3134 52.2321 84 52.2321Z" fill="#FFFAF1" stroke="#008763" stroke-width="1.2" stroke-miterlimit="2.61313" stroke-linecap="round" stroke-linejoin="round"></path>
</svg>