<svg width="120" height="115" viewbox="0 0 120 115" fill="none" xmlns="http://www.w3.org/2000/svg">
<path d="M43.4252 38.0125C44.5164 38.0125 45.401 37.1279 45.401 36.0367C45.401 34.9455 44.5164 34.0609 43.4252 34.0609C42.334 34.0609 41.4494 34.9455 41.4494 36.0367C41.4494 37.1279 42.334 38.0125 43.4252 38.0125Z" fill="#008763"></path>
<path d="M42.0684 35.8274C42.4892 35.8274 42.8304 35.4862 42.8304 35.0653C42.8304 34.6444 42.4892 34.3032 42.0684 34.3032C41.6475 34.3032 41.3063 34.6444 41.3063 35.0653C41.3063 35.4862 41.6475 35.8274 42.0684 35.8274Z" fill="white"></path>
<path fill-rule="evenodd" clip-rule="evenodd" d="M51.3104 38.5097C53.5402 38.1851 48.0787 34.911 47.8246 34.7275C46.6109 33.8666 45.0162 33.3303 43.3086 33.2457C39.4417 33.0481 37.8046 34.6428 35.0385 36.8162C35.0385 36.8162 36.0688 36.6751 37.1837 37.9029C38.2986 39.1307 42.5888 40.5984 46.3146 39.6952C50.0403 38.792 51.3387 38.5238 51.3387 38.5238L51.3104 38.5097Z" stroke="#008763" stroke-width="1.2" stroke-miterlimit="2.61313" stroke-linecap="round" stroke-linejoin="round"></path>
<mask id="mask0_1216_1701" style="mask-type:alpha" maskunits="userSpaceOnUse" x="39" y="31" width="9" height="10">
<path d="M43.426 39.6219C45.4057 39.6219 47.0106 38.017 47.0106 36.0373C47.0106 34.0575 45.4057 32.4526 43.426 32.4526C41.4462 32.4526 39.8413 34.0575 39.8413 36.0373C39.8413 38.017 41.4462 39.6219 43.426 39.6219Z" stroke="black" stroke-width="1.2" stroke-miterlimit="2.61313" stroke-linecap="round" stroke-linejoin="round"></path>
</mask>
<g mask="url(#mask0_1216_1701)">
<path fill-rule="evenodd" clip-rule="evenodd" d="M51.3104 38.5092C53.5402 38.1846 48.0786 34.9105 47.8245 34.727C46.6108 33.8661 45.0161 33.3299 43.3085 33.2452C39.4416 33.0476 37.8045 34.6423 35.0385 36.8157C35.0385 36.8157 36.0687 36.6746 37.1836 37.9024C38.2985 39.1302 42.5887 40.5979 46.3145 39.6947C50.0402 38.7915 51.3386 38.5233 51.3386 38.5233L51.3104 38.5092Z" fill="#008763" stroke="#008763" stroke-width="1.2" stroke-miterlimit="2.61313" stroke-linecap="round" stroke-linejoin="round"></path>
</g>
<path d="M50.7935 37.0961C50.7935 37.0961 50.102 37.8158 50.3843 38.6485" stroke="#008763" stroke-width="1.2" stroke-miterlimit="2.61313" stroke-linecap="round" stroke-linejoin="round"></path>
<path d="M51.6279 36.0812C51.6279 36.0812 49.1017 31.6781 43.1744 31.6216C37.2471 31.5652 34.3116 35.178 34.3116 35.178" stroke="#008763" stroke-width="1.2" stroke-miterlimit="2.61313" stroke-linecap="round" stroke-linejoin="round"></path>
<path fill-rule="evenodd" clip-rule="evenodd" d="M52.3688 29.7998C52.3688 29.7998 53.4273 28.4309 50.3789 26.8362C50.3789 26.8362 39.2864 23.5479 36.7038 23.8725C34.1211 24.1971 30.0708 27.4289 30.0708 27.4289C30.0708 27.4289 34.5869 25.693 39.7521 27.062C44.9173 28.4309 51.8467 30.3502 52.3688 29.7998V29.7998Z" stroke="#008763" stroke-width="1.2" stroke-miterlimit="2.61313" stroke-linecap="round" stroke-linejoin="round"></path>
<path d="M61.2233 61.6973C61.2233 61.6973 59.7697 61.7396 59.191 61.0763C58.5983 60.413 57.1165 59.8203 55.9451 59.9049" stroke="#008763" stroke-width="1.2" stroke-miterlimit="2.61313" stroke-linecap="round" stroke-linejoin="round"></path>
<path d="M54.2576 56.614C54.2576 56.614 52.296 60.7208 56.3745 61.3982" stroke="#008763" stroke-width="1.2" stroke-miterlimit="2.61313" stroke-linecap="round" stroke-linejoin="round"></path>
<path d="M55.0308 34.5125C55.0308 34.5125 58.559 37.6455 57.8534 46.2683" stroke="#008763" stroke-width="1.2" stroke-miterlimit="2.61313" stroke-linecap="round" stroke-linejoin="round"></path>
<path fill-rule="evenodd" clip-rule="evenodd" d="M61.4409 69.5676C61.4409 69.5676 58.562 68.1564 56.5297 69.3277C54.4975 70.4991 48.6972 73.4063 48.6972 73.4063C48.6972 73.4063 51.2798 81.3235 61.4409 81.3235C71.6021 81.3235 74.1847 73.4063 74.1847 73.4063C74.1847 73.4063 68.3844 70.5132 66.3522 69.3277C64.3199 68.1564 61.4409 69.5676 61.4409 69.5676V69.5676Z" stroke="#008763" stroke-width="1.2" stroke-miterlimit="2.61313" stroke-linecap="round" stroke-linejoin="round"></path>
<path d="M61.4352 74.3822C61.4352 74.3822 60.7154 74.3399 59.8122 73.9729C58.909 73.606 54.4071 73.4226 52.2196 73.9306C50.0321 74.4387 49.3547 73.225 47.012 73.225" stroke="#008763" stroke-width="1.2" stroke-miterlimit="2.61313" stroke-linecap="round" stroke-linejoin="round"></path>
<path d="M20.6201 34.7383C20.6201 34.7383 25.3055 54.4396 27.8034 64.6995C30.3155 74.9594 30.9364 76.6811 36.4122 81.8464C41.902 87.0116 52.4159 96.7352 61.4198 96.7352" stroke="#008763" stroke-width="1.2" stroke-miterlimit="2.61313" stroke-linecap="round" stroke-linejoin="round"></path>
<path d="M79.4441 38.0125C80.5353 38.0125 81.4199 37.1279 81.4199 36.0367C81.4199 34.9455 80.5353 34.0609 79.4441 34.0609C78.3529 34.0609 77.4684 34.9455 77.4684 36.0367C77.4684 37.1279 78.3529 38.0125 79.4441 38.0125Z" fill="#008763"></path>
<path d="M78.0762 35.8274C78.4971 35.8274 78.8383 35.4862 78.8383 35.0653C78.8383 34.6444 78.4971 34.3032 78.0762 34.3032C77.6553 34.3032 77.3141 34.6444 77.3141 35.0653C77.3141 35.4862 77.6553 35.8274 78.0762 35.8274Z" fill="white"></path>
<path fill-rule="evenodd" clip-rule="evenodd" d="M71.5475 38.5097C69.3177 38.1851 74.7793 34.911 75.0333 34.7275C76.247 33.8666 77.8417 33.3303 79.5494 33.2457C83.4162 33.0481 85.0533 34.6428 87.8194 36.8162C87.8194 36.8162 86.7892 36.6751 85.6743 37.9029C84.5594 39.1307 80.2691 40.5984 76.5434 39.6952C72.8176 38.792 71.5193 38.5238 71.5193 38.5238L71.5475 38.5097Z" stroke="#008763" stroke-width="1.2" stroke-miterlimit="2.61313" stroke-linecap="round" stroke-linejoin="round"></path>
<mask id="mask1_1216_1701" style="mask-type:alpha" maskunits="userSpaceOnUse" x="75" y="31" width="9" height="10">
<path d="M79.4449 39.6219C81.4246 39.6219 83.0295 38.017 83.0295 36.0373C83.0295 34.0575 81.4246 32.4526 79.4449 32.4526C77.4651 32.4526 75.8603 34.0575 75.8603 36.0373C75.8603 38.017 77.4651 39.6219 79.4449 39.6219Z" stroke="black" stroke-width="1.2" stroke-miterlimit="2.61313" stroke-linecap="round" stroke-linejoin="round"></path>
</mask>
<g mask="url(#mask1_1216_1701)">
<path fill-rule="evenodd" clip-rule="evenodd" d="M71.5473 38.5092C69.3175 38.1846 74.7791 34.9105 75.0332 34.727C76.2468 33.8661 77.8416 33.3299 79.5492 33.2452C83.4161 33.0476 85.0532 34.6423 87.8192 36.8157C87.8192 36.8157 86.789 36.6746 85.6741 37.9024C84.5592 39.1302 80.269 40.5979 76.5432 39.6947C72.8175 38.7915 71.5191 38.5233 71.5191 38.5233L71.5473 38.5092Z" fill="#008763" stroke="#008763" stroke-width="1.2" stroke-miterlimit="2.61313" stroke-linecap="round" stroke-linejoin="round"></path>
</g>
<path d="M72.0711 37.0961C72.0711 37.0961 72.7626 37.8158 72.4804 38.6485" stroke="#008763" stroke-width="1.2" stroke-miterlimit="2.61313" stroke-linecap="round" stroke-linejoin="round"></path>
<path d="M71.223 36.0812C71.223 36.0812 73.7492 31.6781 79.6765 31.6216C85.6038 31.5652 88.5392 35.178 88.5392 35.178" stroke="#008763" stroke-width="1.2" stroke-miterlimit="2.61313" stroke-linecap="round" stroke-linejoin="round"></path>
<path fill-rule="evenodd" clip-rule="evenodd" d="M70.4866 29.7998C70.4866 29.7998 69.4281 28.4309 72.4765 26.8362C72.4765 26.8362 83.569 23.5479 86.1516 23.8725C88.7343 24.1971 92.7846 27.4289 92.7846 27.4289C92.7846 27.4289 88.2685 25.693 83.1033 27.062C77.9381 28.4309 71.0088 30.3502 70.4866 29.7998V29.7998Z" stroke="#008763" stroke-width="1.2" stroke-miterlimit="2.61313" stroke-linecap="round" stroke-linejoin="round"></path>
<path d="M61.64 61.6973C61.64 61.6973 63.0936 61.7396 63.6722 61.0763C64.2649 60.413 65.7467 59.8203 66.9181 59.9049" stroke="#008763" stroke-width="1.2" stroke-miterlimit="2.61313" stroke-linecap="round" stroke-linejoin="round"></path>
<path d="M68.6145 56.614C68.6145 56.614 70.5761 60.7208 66.4976 61.3982" stroke="#008763" stroke-width="1.2" stroke-miterlimit="2.61313" stroke-linecap="round" stroke-linejoin="round"></path>
<path d="M67.8272 34.5125C67.8272 34.5125 64.299 37.6455 65.0046 46.2683" stroke="#008763" stroke-width="1.2" stroke-miterlimit="2.61313" stroke-linecap="round" stroke-linejoin="round"></path>
<path d="M61.4306 74.3822C61.4306 74.3822 62.1504 74.3399 63.0536 73.9729C63.9568 73.606 68.4587 73.4226 70.6462 73.9306C72.8337 74.4387 73.5111 73.225 75.8538 73.225" stroke="#008763" stroke-width="1.2" stroke-miterlimit="2.61313" stroke-linecap="round" stroke-linejoin="round"></path>
<path d="M102.241 34.7383C102.241 34.7383 97.556 54.4396 95.0581 64.6995C92.546 74.9594 91.9251 76.6811 86.4494 81.8464C80.9595 87.0116 70.4456 96.7352 61.4417 96.7352" stroke="#008763" stroke-width="1.2" stroke-miterlimit="2.61313" stroke-linecap="round" stroke-linejoin="round"></path>
<path d="M105.629 32.0286C105.629 32.0286 108.65 32.0709 107.633 36.4599C106.617 40.849 102.934 47.1856 102.468 51.8851C102.003 56.5846 100.154 57.9676 96.7667 57.6713" stroke="#008763" stroke-width="1.2" stroke-miterlimit="2.61313" stroke-linecap="round" stroke-linejoin="round"></path>
<path d="M104.843 38.5626C104.843 38.5626 104.349 36.4457 103.347 37.1513C102.345 37.857 100.256 43.4174 100.256 43.4174C100.256 43.4174 101.597 46.2399 100.849 47.1008C100.101 47.9616 98.6613 49.7116 98.6613 49.7116" stroke="#008763" stroke-width="1.2" stroke-miterlimit="2.61313" stroke-linecap="round" stroke-linejoin="round"></path>
<path d="M10.7638 31.638L20.6426 21.7593L24.9481 26.0648L15.0693 35.9435L10.7638 31.638Z" stroke="#008763" stroke-width="1.2" stroke-miterlimit="2.61313" stroke-linecap="round" stroke-linejoin="round"></path>
<path fill-rule="evenodd" clip-rule="evenodd" d="M9.0245 20.0209C7.55621 21.4892 7.6831 24.0088 9.2964 25.6221L13.0396 29.3653L18.369 24.036L14.6257 20.2928C13.0124 18.6795 10.4928 18.5617 9.0245 20.0209Z" stroke="#008763" stroke-width="1.2" stroke-miterlimit="2.61313" stroke-linecap="round" stroke-linejoin="round"></path>
<path fill-rule="evenodd" clip-rule="evenodd" d="M31.4839 44.5017L32.4627 45.4805C32.7165 45.7343 33.0791 45.7706 33.2785 45.5712L34.5745 44.2751C34.7739 44.0757 34.7286 43.7041 34.4839 43.4594L33.505 42.4805C33.496 41.7373 33.1606 40.9307 32.5262 40.2872L21.6228 29.3838L18.3872 32.6195L29.2905 43.5228C29.934 44.1663 30.7407 44.5017 31.4839 44.5017V44.5017Z" stroke="#008763" stroke-width="1.2" stroke-miterlimit="2.61313" stroke-linecap="round" stroke-linejoin="round"></path>
<path fill-rule="evenodd" clip-rule="evenodd" d="M31.6831 56.4382C31.674 56.5107 31.674 56.5923 31.674 56.6648C31.674 58.5047 33.1695 60.0001 35.0094 60.0001C36.8493 60.0001 38.3447 58.5047 38.3447 56.6648C38.3447 56.5832 38.3447 56.5107 38.3357 56.4382C38.3357 56.4382 38.5532 55.0062 35.0094 49.84C31.4746 54.979 31.6831 56.4201 31.6831 56.4382Z" stroke="#008763" stroke-width="1.2" stroke-miterlimit="2.61313" stroke-linecap="round" stroke-linejoin="round"></path>
</svg>