<svg width="166" height="166" viewbox="0 0 166 166" fill="none" xmlns="http://www.w3.org/2000/svg">
<rect width="166" height="166" rx="8" fill="#008763" fill-opacity="0.05"></rect>
<path d="M96.7068 102.29C94.5284 103.984 92.0323 105.244 89.3594 105.998L90.2467 136.998C90.3651 139.316 91.986 141.095 93.9323 141.095C95.9733 141.095 97.6297 139.136 97.6297 136.737V136.604L96.7068 102.29Z" fill="white"></path>
<path d="M96.1855 82.4204L98.1259 82.8839L96.1855 82.4436V82.4204Z" fill="white"></path>
<path d="M70.9918 136.598C70.9611 137.233 71.0604 137.868 71.2839 138.465C71.5074 139.062 71.8506 139.61 72.2932 140.075C72.6004 140.408 72.9767 140.674 73.397 140.854C73.8173 141.033 74.2719 141.123 74.7305 141.117C75.1891 141.111 75.6411 141.009 76.0563 140.819C76.4715 140.628 76.8404 140.353 77.1383 140.011C77.8968 139.188 78.3346 138.129 78.3747 137.021L79.404 106.45C76.7257 105.933 74.1733 104.918 71.885 103.46L70.9918 136.621V136.598Z" fill="white"></path>
<path d="M101.57 65.1125C100.591 62.6202 98.7896 60.5196 96.4525 59.1443C95.9201 58.9646 95.3699 58.8082 94.8079 58.6749C93.588 58.3923 92.3446 58.2178 91.0928 58.1534C90.6815 58.1411 90.2845 58.0034 89.957 57.7594C88.3579 56.6949 87.2507 55.0568 86.8748 53.1992C84.8736 53.8308 82.7159 53.8002 80.7342 53.1123C80.397 55.1577 78.5749 57.0293 76.6937 57.9506C76.4282 58.0782 76.1375 58.1474 75.8418 58.1534C74.6645 58.2081 73.4945 58.3652 72.3456 58.6228C71.5105 58.8035 70.6899 59.0436 69.8905 59.3413C67.8442 60.7107 66.2735 62.6595 65.3886 64.9271L61.0937 75.8205C61.0085 76.037 60.9733 76.2694 60.9907 76.5008C61.008 76.7323 61.0776 76.9571 61.1943 77.159L66.3233 83.8052C66.4591 83.9851 66.6382 84.1294 66.8445 84.2255C67.0509 84.3215 67.2782 84.3662 67.5065 84.3557C67.7625 84.3453 68.0109 84.2671 68.225 84.1292C68.4391 83.9913 68.611 83.799 68.7222 83.5728C68.8334 83.3467 68.8797 83.0952 68.8563 82.8453C68.8328 82.5953 68.7404 82.3563 68.589 82.1538L65.9151 78.5555C65.8314 78.4465 65.7619 78.3278 65.7081 78.202C65.2203 77.1319 65.0607 75.9459 65.2487 74.7886C65.4367 73.6312 65.9642 72.5523 66.767 71.6833C67.0214 71.411 67.2935 71.1039 67.5656 70.8663C71.5962 66.9431 77.0514 64.7466 82.7337 64.759C86.0943 64.7642 89.4077 65.5349 92.4118 67.0101C95.416 68.4854 98.0287 70.6249 100.043 73.2594C100.624 74.0219 101.013 74.9078 101.178 75.8451C101.344 76.7824 101.281 77.7448 100.996 78.654C100.934 78.8629 100.833 79.0592 100.7 79.2334L100.144 79.9809C100.132 80.0012 100.118 80.0205 100.103 80.0388L98.387 82.3566L98.3515 82.4145L98.3219 82.4667V82.5188V82.5594C98.3095 82.5815 98.2996 82.6048 98.2923 82.6289V82.6579V82.739C98.2923 82.739 98.2923 82.7854 98.2923 82.8086C98.2923 82.8549 98.2923 82.8955 98.2923 82.9302V82.994C98.2894 83.0171 98.2894 83.0404 98.2923 83.0635V83.2373C98.2923 83.2373 98.2923 83.2837 98.2923 83.3127V83.3474C98.3032 83.4085 98.319 83.4685 98.3397 83.5271V83.556L98.3929 83.6777V83.7183L98.4284 83.7762V83.8226C98.4267 83.8341 98.4267 83.8458 98.4284 83.8573L98.4639 83.9037L98.4994 83.9501V83.9906L98.5526 84.0544C98.5738 84.0722 98.5936 84.0915 98.6118 84.1123L98.6591 84.1529L98.7124 84.1992L98.7952 84.2456L98.8484 84.2745L98.9135 84.3035H98.949H99.0022H99.0318L99.1265 84.3325H99.1738H99.2448H99.3039H99.3986H99.6944H99.7713H99.8541H99.9014H99.9783L100.043 84.3035L100.108 84.2745H100.162L100.215 84.2398H100.245L100.292 84.205L100.345 84.1644L100.387 84.1297L100.434 84.0833L100.499 84.0196C100.524 83.9921 100.548 83.963 100.57 83.9327L105.699 77.2807C105.816 77.0787 105.885 76.854 105.903 76.6225C105.92 76.3911 105.885 76.1587 105.799 75.9422L101.505 65.0487L101.57 65.1125Z" fill="white"></path>
<path d="M82.0302 31.8181C82.1872 31.4744 82.442 31.1822 82.7641 30.9767C83.0862 30.7711 83.4619 30.6609 83.8464 30.6592H84.2605C84.6373 30.6706 85.0033 30.7853 85.317 30.9901C85.6307 31.1949 85.8795 31.4818 86.0352 31.8181C86.964 33.8171 89.0523 35.3526 92.0693 36.245C92.4795 36.3667 92.839 36.6143 93.0946 36.9513C93.3502 37.2883 93.4885 37.6968 93.4891 38.1166V44.2992C93.4892 45.6558 93.1884 46.9962 92.6077 48.2278C94.696 49.1954 96.9736 50.2153 98.4703 50.7484C97.5556 48.8918 97.0077 46.8825 96.8552 44.8265C96.8197 44.334 96.7843 43.7719 96.7428 43.1171C96.4707 38.5917 95.9028 29.1758 91.9747 25.9831C91.4191 25.5385 90.7721 25.2167 90.0778 25.0397C89.3835 24.8626 88.6583 24.8346 87.9519 24.9575C85.3516 25.282 82.7197 25.282 80.1194 24.9575C79.414 24.8355 78.6899 24.864 77.9967 25.0409C77.3035 25.2179 76.6574 25.5393 76.1026 25.9831C72.1745 29.1758 71.6065 38.5917 71.3285 43.1171C71.293 43.7661 71.2575 44.334 71.2161 44.8265C71.0801 46.6857 70.6199 48.5083 69.8555 50.2153C71.4764 49.5547 73.4641 48.645 75.1442 47.8627C74.6494 46.7046 74.394 45.4619 74.3929 44.2065V38.1803C74.3924 37.7571 74.5323 37.3451 74.7916 37.0065C75.0509 36.6679 75.4155 36.421 75.8304 36.3029C78.9481 35.4106 81.0955 33.8577 82.042 31.8181H82.0302Z" fill="white"></path>
<path d="M84.0227 35.9146C82.4846 37.5834 80.5414 38.845 78.373 39.5824V44.2179C78.3729 45.399 78.7562 46.5496 79.4675 47.5033C79.497 47.5406 79.5247 47.5793 79.5503 47.6192L79.7278 47.8278C80.0967 48.2582 80.5318 48.6296 81.0174 48.9288L81.1771 49.0273L81.3901 49.1432C82.155 49.5366 83.0049 49.7452 83.8688 49.7516C84.7047 49.7602 85.5318 49.5839 86.2884 49.2359C86.451 49.162 86.6091 49.0788 86.7617 48.9867L86.8622 48.9288C87.2371 48.6995 87.5827 48.4272 87.8916 48.1175C87.981 48.031 88.0659 47.9401 88.146 47.8452L88.2288 47.7525C89.0429 46.7831 89.4865 45.5659 89.4829 44.3106V39.5418C87.3896 38.7981 85.5147 37.5625 84.0227 35.9435V35.9146Z" fill="white"></path>
<path d="M105.764 77.3447L100.635 83.9967C100.613 84.027 100.589 84.056 100.564 84.0836L100.499 84.1473L100.451 84.1937L100.41 84.2284L100.357 84.269L100.309 84.3038H100.28L100.226 84.3385H100.173L100.108 84.3675L100.043 84.3965H99.9661H99.9188H99.8359H99.759H99.4632H99.3686H99.3095H99.2385H99.1911L99.0965 84.3675H99.0669H99.0137H98.9782L98.9131 84.3385L98.8598 84.3096L98.777 84.2632L98.7238 84.2169L98.6765 84.1763C98.6583 84.1555 98.6385 84.1362 98.6173 84.1184L98.5641 84.0546V84.0141L98.5286 83.9677L98.4931 83.9213C98.4914 83.9098 98.4914 83.8981 98.4931 83.8866V83.8402L98.4576 83.7823V83.7417L98.4043 83.62V83.5795C98.3837 83.5209 98.3678 83.4609 98.357 83.3999V83.3651C98.357 83.3361 98.357 83.3013 98.357 83.2898V83.1159C98.3541 83.0928 98.3541 83.0695 98.357 83.0464V83C98.357 82.9653 98.357 82.9247 98.357 82.8784L96.4166 82.4148L98.357 82.8552C98.357 82.8552 98.357 82.8088 98.357 82.7856V82.7045V82.6756C98.3643 82.6514 98.3742 82.6281 98.3866 82.606V82.5655V82.5133L98.4162 82.4612L98.4517 82.4032L100.167 80.0855C100.182 80.0671 100.196 80.0478 100.209 80.0275L100.765 79.28C100.898 79.1058 100.998 78.9096 101.061 78.7006C101.346 77.7914 101.408 76.8291 101.243 75.8917C101.078 74.9544 100.689 74.0685 100.108 73.306C98.0958 70.6746 95.4869 68.5371 92.4871 67.0619C89.4873 65.5868 86.1787 64.8144 82.8221 64.8056C77.1398 64.7933 71.6845 66.9897 67.6539 70.9129C67.3818 71.1795 67.1097 71.4576 66.8553 71.7299C66.0511 72.588 65.5172 73.6553 65.3178 74.8036C65.1184 75.9518 65.262 77.1321 65.7313 78.2023C65.7851 78.328 65.8547 78.4468 65.9384 78.5557L68.6123 82.1541C68.7637 82.3566 68.8561 82.5956 68.8795 82.8455C68.903 83.0955 68.8566 83.347 68.7454 83.5731C68.6342 83.7993 68.4624 83.9916 68.2483 84.1294C68.0341 84.2673 67.7858 84.3456 67.5297 84.3559C67.3015 84.3665 67.0742 84.3217 66.8678 84.2257C66.6614 84.1297 66.4824 83.9854 66.3465 83.8055L61.2235 77.1593C61.1068 76.9573 61.0372 76.7325 61.0198 76.5011C61.0024 76.2697 61.0376 76.0373 61.1229 75.8208L65.4178 64.9273C66.3027 62.6598 67.8733 60.711 69.9197 59.3415C70.7191 59.0439 71.5397 58.8037 72.3748 58.623C73.5237 58.3655 74.6937 58.2084 75.871 58.1537C76.1667 58.1477 76.4574 58.0785 76.7229 57.9509C78.6041 57.0296 80.4262 55.158 80.7634 53.1126C82.7451 53.8005 84.9028 53.8311 86.904 53.1995C87.2799 55.0571 88.3871 56.6952 89.9861 57.7597C90.3136 58.0036 90.7107 58.1414 91.122 58.1537C92.3738 58.218 93.6172 58.3926 94.8371 58.6752C95.4287 58.8084 95.9493 58.9649 96.4817 59.1445C98.8187 60.5198 100.62 62.6204 101.599 65.1128L105.894 76.0062C105.979 76.2227 106.014 76.4551 105.997 76.6865C105.979 76.9179 105.91 77.1427 105.793 77.3447H105.764ZM97.0141 96.501C94.9026 99.1106 92.0523 101.052 88.8198 102.084C85.5873 103.115 82.1162 103.189 78.8406 102.298C75.565 101.407 72.6304 99.5898 70.4039 97.0735C68.1774 94.5572 66.7579 91.4537 66.3229 88.1513C66.7353 88.2346 67.1561 88.2715 67.577 88.2613H67.6125C68.5935 88.2297 69.5472 87.9369 70.3711 87.4143C71.1949 86.8916 71.8578 86.159 72.2884 85.2951C72.7191 84.4312 72.9013 83.4687 72.8154 82.511C72.7295 81.5533 72.3788 80.6366 71.8009 79.8595L69.2808 76.4524C69.1524 76.0875 69.1263 75.6954 69.2054 75.3173C69.2845 74.9391 69.4658 74.5887 69.7304 74.3027C69.9315 74.0825 70.1445 73.8623 70.3693 73.6479C73.6533 70.4472 78.1005 68.6549 82.7333 68.6647C85.4715 68.6755 88.1697 69.3092 90.6151 70.5159C93.0605 71.7225 95.1863 73.4691 96.8248 75.618C97.002 75.8514 97.1291 76.1175 97.1982 76.4004C97.2674 76.6833 97.2772 76.9769 97.2271 77.2636L96.8662 77.7445L96.8248 77.8083L95.1506 80.0565C95.1098 80.1083 95.0723 80.1624 95.0382 80.2187L94.8903 80.4389L94.8253 80.5548C94.7779 80.6417 94.7306 80.7228 94.6892 80.8098C94.671 80.8434 94.6552 80.8783 94.6419 80.9141V80.9488C94.6005 81.0357 94.565 81.1227 94.5295 81.2096L94.4762 81.3428C94.4762 81.4008 94.4348 81.4587 94.4112 81.5109C94.4146 81.5378 94.4146 81.5651 94.4112 81.592C94.4138 81.619 94.4138 81.6461 94.4112 81.6731C94.4112 81.7079 94.4112 81.7369 94.4112 81.7716C94.4103 81.7832 94.4103 81.7948 94.4112 81.8064C94.4135 81.8334 94.4135 81.8605 94.4112 81.8875C94.4112 81.986 94.3697 82.0729 94.352 82.1541C94.3343 82.2352 94.3106 82.4148 94.2928 82.5481C94.2897 82.5808 94.2897 82.6138 94.2928 82.6466V82.7103V82.9653V83.3419C94.29 83.3592 94.29 83.3768 94.2928 83.3941C94.2899 83.4365 94.2899 83.4791 94.2928 83.5215C94.2928 83.6374 94.2928 83.7533 94.3343 83.875C94.3343 83.875 94.3343 83.9155 94.3343 83.9329C94.3808 84.2217 94.45 84.5064 94.5413 84.7847L94.5768 84.8774V84.9122L94.6182 85.0281C94.6596 85.144 94.707 85.2425 94.7424 85.3178L94.8371 85.5032L94.9258 85.6655L94.9613 85.735L95.1033 85.9668L95.1802 86.0711C95.2221 86.1403 95.2696 86.2062 95.3222 86.2681C95.3346 86.2883 95.3484 86.3077 95.3636 86.326L95.4287 86.4129C95.5529 86.5636 95.6653 86.6853 95.7659 86.7896C95.8482 86.8751 95.9351 86.9563 96.0262 87.0329C96.0512 87.0589 96.079 87.0822 96.109 87.1025C96.1213 87.1174 96.1352 87.131 96.1504 87.143L96.2037 87.1894L96.251 87.2242L96.4462 87.3748C96.4462 87.3748 96.4817 87.3748 96.4876 87.4096L96.6473 87.5139C96.6707 87.5326 96.6966 87.5482 96.7242 87.5602L96.813 87.6182C96.9076 87.6703 97.0082 87.734 97.1265 87.792L97.3099 87.8789C97.4105 87.9311 97.511 87.9716 97.5938 88.0064L97.8009 88.0817H97.866L98.1263 88.1628H98.1736L98.3807 88.215L98.6883 88.2787H98.7179L98.9072 88.3077L99.203 88.3367H99.4159H99.9543C100.12 88.3367 100.286 88.3077 100.475 88.2787H100.528L100.688 88.244C100.271 91.2323 99.0336 94.0539 97.1088 96.4083L97.0141 96.501ZM93.932 141.118C91.9857 141.118 90.3825 139.322 90.2464 137.021L89.3591 106.021C92.032 105.267 94.5281 104.007 96.7065 102.313L97.6294 136.627V136.76C97.6294 139.159 95.9729 141.118 93.932 141.118ZM78.3734 137.021C78.3333 138.129 77.8955 139.188 77.137 140.011C76.8391 140.353 76.4702 140.628 76.055 140.819C75.6398 141.009 75.1878 141.111 74.7292 141.117C74.2706 141.123 73.816 141.033 73.3957 140.854C72.9754 140.674 72.5991 140.408 72.2919 140.075C71.8493 139.61 71.5061 139.062 71.2826 138.465C71.0591 137.868 70.9598 137.233 70.9905 136.598L71.8837 103.437C74.172 104.895 76.7244 105.91 79.4027 106.427L78.3734 136.998V137.021ZM89.4833 39.5421V44.3341C89.4868 45.5893 89.0433 46.8065 88.2291 47.7759L88.1463 47.8686C88.0663 47.9636 87.9814 48.0545 87.8919 48.141C87.5831 48.4506 87.2375 48.7229 86.8626 48.9522L86.762 49.0101C86.6094 49.1023 86.4514 49.1855 86.2887 49.2593C85.5321 49.6073 84.705 49.7836 83.8692 49.775C83.0052 49.7686 82.1554 49.56 81.3905 49.1666L81.1775 49.0507L81.0178 48.9522C80.5321 48.653 80.097 48.2816 79.7281 47.8513L79.5506 47.6427C79.525 47.6027 79.4974 47.564 79.4678 47.5268C78.7565 46.573 78.3732 45.4225 78.3734 44.2413V39.6058C80.5417 38.8684 82.485 37.6069 84.023 35.938C85.5151 37.557 87.39 38.7926 89.4833 39.5363V39.5421ZM75.8178 36.332C75.4028 36.4501 75.0382 36.697 74.779 37.0356C74.5197 37.3742 74.3797 37.7861 74.3802 38.2094V44.2413C74.3813 45.4968 74.6367 46.7395 75.1315 47.8976C73.4514 48.6799 71.4637 49.5896 69.8428 50.2501C70.6073 48.5432 71.0675 46.7205 71.2034 44.8613C71.2448 44.3688 71.2803 43.801 71.3158 43.152C71.5939 38.6266 72.1618 29.2107 76.0899 26.018C76.6448 25.5742 77.2908 25.2528 77.984 25.0758C78.6772 24.8988 79.4013 24.8704 80.1067 24.9924C82.7071 25.3169 85.3389 25.3169 87.9393 24.9924C88.6456 24.8695 89.3708 24.8975 90.0651 25.0745C90.7594 25.2515 91.4064 25.5734 91.962 26.018C95.8901 29.2107 96.458 38.6266 96.7301 43.152C96.7716 43.8068 96.8071 44.3688 96.8425 44.8613C96.995 46.9174 97.5429 48.9266 98.4576 50.7832C96.9609 50.2501 94.6833 49.2303 92.595 48.2627C93.1757 47.0311 93.4765 45.6906 93.4765 44.3341V38.1225C93.4758 37.7027 93.3375 37.2942 93.0819 36.9572C92.8263 36.6202 92.4669 36.3726 92.0567 36.2509C89.0396 35.3586 86.9513 33.823 86.0225 31.824C85.8668 31.4877 85.618 31.2008 85.3043 30.996C84.9906 30.7912 84.6246 30.6765 84.2478 30.6651H83.8337C83.4493 30.6668 83.0735 30.777 82.7514 30.9826C82.4293 31.1881 82.1745 31.4802 82.0175 31.824C81.071 33.8636 78.9236 35.4165 75.8059 36.3088L75.8178 36.332ZM109.106 79.506C109.566 78.7845 109.848 77.9683 109.931 77.1218C110.014 76.2752 109.896 75.4213 109.585 74.6271L105.29 63.7337C103.96 60.3394 101.481 57.4946 98.2683 55.6737C98.1658 55.6119 98.0567 55.5614 97.9429 55.523C97.21 55.2675 96.4635 55.0509 95.7067 54.8741C94.444 54.5846 93.1604 54.3908 91.8674 54.2946C91.3566 53.8734 90.9859 53.3126 90.8025 52.6838C90.8558 52.3583 90.8315 52.0251 90.7315 51.7103C92.9934 52.7941 95.3116 53.7611 97.6767 54.6075C99.035 55.0274 100.335 55.6113 101.546 56.3458C101.891 56.5564 102.293 56.6586 102.7 56.6386C103.106 56.6186 103.496 56.4774 103.818 56.234C104.14 55.9906 104.378 55.6566 104.501 55.2768C104.623 54.897 104.624 54.4896 104.504 54.1092C104.092 52.9368 103.563 51.8071 102.924 50.7369C101.936 48.9464 101.001 47.2602 100.782 44.4847C100.747 44.0212 100.717 43.4765 100.676 42.8391C100.345 37.375 99.7295 27.1942 94.4703 22.9296C93.4965 22.1407 92.3626 21.5639 91.1438 21.2372C89.9249 20.9105 88.6491 20.8415 87.4009 21.0348C85.1345 21.3187 82.8405 21.3187 80.5741 21.0348C79.3259 20.8419 78.0502 20.9111 76.8314 21.2377C75.6126 21.5644 74.4787 22.1411 73.5047 22.9296C68.2455 27.2058 67.6303 37.375 67.299 42.8391C67.2635 43.4765 67.228 43.998 67.1925 44.4847C66.9795 47.2602 66.0448 48.9464 65.051 50.7311C64.6036 51.514 64.1969 52.3185 63.8323 53.1415C63.676 53.5108 63.6391 53.9182 63.7267 54.3086C63.8143 54.699 64.0221 55.0537 64.322 55.3248C64.622 55.5958 64.9997 55.7702 65.404 55.8243C65.8084 55.8784 66.22 55.8097 66.5832 55.6273C67.4174 55.2132 68.2838 54.8644 69.1743 54.5843C71.8541 53.6014 74.4803 52.4836 77.0423 51.2352C76.8204 51.5802 76.7244 51.9887 76.7702 52.3941C76.5052 53.1718 75.9464 53.8207 75.2084 54.2077C73.94 54.2919 72.6801 54.472 71.4401 54.7466C70.3242 54.9878 69.2301 55.3173 68.1686 55.7316C68.0494 55.7822 67.9346 55.8423 67.8255 55.9113C65.0064 57.7249 62.8399 60.3597 61.6317 63.444L57.3368 74.3374C57.0246 75.1313 56.9054 75.9854 56.9886 76.8322C57.0718 77.6791 57.355 78.4953 57.816 79.2163L57.9106 79.3554L62.1996 84.918C62.1996 85.2425 62.17 85.5728 62.17 85.903C62.1536 91.208 64.2209 96.3158 67.9438 100.169L66.9677 136.419C66.9273 137.571 67.1214 138.72 67.5389 139.798C67.9563 140.877 68.5887 141.863 69.3991 142.7C70.0826 143.413 70.9101 143.979 71.8291 144.362C72.7481 144.746 73.7385 144.937 74.7372 144.925C75.7359 144.913 76.7212 144.698 77.6303 144.293C78.5394 143.888 79.3526 143.302 80.018 142.572C81.4245 141.07 82.2401 139.127 82.3192 137.091L83.3427 106.844C83.4257 106.821 83.5067 106.792 83.5852 106.757C84.1768 106.757 84.7684 106.757 85.36 106.676L86.2296 137.079V137.12C86.4485 141.506 89.8146 144.948 93.9201 144.948C98.1559 144.948 101.611 141.239 101.611 136.685C101.611 136.598 101.611 136.517 101.611 136.442L100.587 98.303C103.298 94.7249 104.751 90.382 104.728 85.9262C104.728 85.6597 104.728 85.3873 104.728 85.115L109.005 79.564L109.1 79.4249L109.106 79.506Z" fill="#008763"></path>
<path d="M90.176 89.112C90.176 89.992 89.944 90.808 89.48 91.56C89.032 92.296 88.36 92.904 87.464 93.384C86.584 93.848 85.536 94.104 84.32 94.152V96.096H82.784V94.128C81.088 93.984 79.72 93.48 78.68 92.616C77.64 91.736 77.088 90.544 77.024 89.04H81.392C81.488 90 81.952 90.616 82.784 90.888V87.096C81.536 86.776 80.536 86.464 79.784 86.16C79.048 85.856 78.4 85.368 77.84 84.696C77.28 84.024 77 83.104 77 81.936C77 80.48 77.536 79.312 78.608 78.432C79.696 77.552 81.088 77.056 82.784 76.944V75H84.32V76.944C86 77.072 87.328 77.56 88.304 78.408C89.28 79.256 89.824 80.432 89.936 81.936H85.544C85.448 81.072 85.04 80.512 84.32 80.256V83.976C85.648 84.344 86.672 84.672 87.392 84.96C88.112 85.248 88.752 85.728 89.312 86.4C89.888 87.056 90.176 87.96 90.176 89.112ZM81.344 81.744C81.344 82.144 81.464 82.48 81.704 82.752C81.96 83.024 82.32 83.264 82.784 83.472V80.136C82.336 80.216 81.984 80.392 81.728 80.664C81.472 80.92 81.344 81.28 81.344 81.744ZM84.32 90.96C84.8 90.88 85.176 90.688 85.448 90.384C85.736 90.08 85.88 89.704 85.88 89.256C85.88 88.84 85.744 88.504 85.472 88.248C85.216 87.976 84.832 87.744 84.32 87.552V90.96Z" fill="#008763"></path>
</svg>