<svg width="166" height="166" viewbox="0 0 166 166" fill="none" xmlns="http://www.w3.org/2000/svg">
<rect width="166" height="166" rx="8" fill="#008763" fill-opacity="0.05"></rect>
<rect x="14" y="35" width="136" height="89.3333" rx="7" fill="white" stroke="#008763" stroke-width="4"></rect>
<circle cx="97.7487" cy="53.4167" r="5.41667" stroke="#008763" stroke-width="2"></circle>
<circle cx="88.4167" cy="67.4167" r="5.41667" stroke="#008763" stroke-width="2"></circle>
<circle cx="107.085" cy="67.4167" r="5.41667" stroke="#008763" stroke-width="2"></circle>
<line x1="100.44" y1="58.0815" x2="103.81" y2="62.7482" stroke="#008763" stroke-width="2"></line>
<line x1="94.3478" y1="58.0855" x2="90.9777" y2="62.7521" stroke="#008763" stroke-width="2"></line>
<line x1="93.668" y1="68.167" x2="101.835" y2="68.167" stroke="#008763" stroke-width="2"></line>
<line x1="121" y1="63.333" x2="121" y2="72.6663" stroke="#008763" stroke-width="4"></line>
<line x1="129.168" y1="59.3335" x2="129.168" y2="72.6668" stroke="#008763" stroke-width="4"></line>
<line x1="137.332" y1="54" x2="137.332" y2="72.6667" stroke="#008763" stroke-width="4"></line>
<line x1="82" y1="80" x2="138" y2="80" stroke="#008763" stroke-width="2"></line>
<line x1="82" y1="86" x2="138" y2="86" stroke="#008763" stroke-width="2"></line>
<line x1="82" y1="92" x2="113" y2="92" stroke="#008763" stroke-width="2"></line>
<circle cx="125.949" cy="102" r="10" stroke="#008763" stroke-width="2"></circle>
<path d="M121.236 101.999L124.863 105.142L130.665 98.8564" stroke="#008763" stroke-width="2"></path>
<path d="M48.7952 53.0015C48.7952 53.0015 65.8263 52.5459 66.4814 67.6943C67.1364 82.8428 63.6428 92.7519 63.6428 92.7519C63.6428 92.7519 60.1493 106.192 49.4503 106.192H48.1129C37.4139 106.192 33.9203 92.7519 33.9203 92.7519C33.9203 92.7519 30.4268 82.8428 31.0818 67.6943C31.7369 52.5459 48.7679 53.0015 48.7679 53.0015H48.7952Z" stroke="#008763" stroke-width="2" stroke-linecap="round" stroke-linejoin="round"></path>
<path d="M45.0977 73.7424L45.0978 73.7431C45.1416 74.0318 45.1537 74.9042 44.6377 75.6704C44.1686 76.3669 43.1059 77.2051 40.5351 77.2051C38.2961 77.2051 36.6559 76.0646 35.5398 74.74C34.9812 74.0772 34.5697 73.3844 34.3009 72.8069C34.1666 72.5184 34.0722 72.2681 34.0134 72.0742C33.9803 71.9652 33.9633 71.8898 33.9545 71.8445C33.9769 71.8194 34.0168 71.7811 34.0849 71.7303C34.3052 71.5663 34.6936 71.3765 35.2794 71.201C36.439 70.8535 38.1364 70.6309 40.1508 70.6309C43.764 70.6309 44.9982 73.0821 45.0977 73.7424ZM33.9285 71.8799C33.9282 71.8799 33.9294 71.8772 33.9328 71.872C33.9305 71.8773 33.9288 71.8799 33.9285 71.8799Z" stroke="#008763" stroke-width="2" stroke-linecap="round" stroke-linejoin="round"></path>
<path d="M63.6032 71.8445C63.5808 71.8194 63.5409 71.7811 63.4728 71.7303C63.2525 71.5663 62.8641 71.3765 62.2784 71.201C61.1187 70.8535 59.4213 70.6309 57.407 70.6309C53.794 70.6309 52.5597 73.0817 52.46 73.7422L63.6032 71.8445ZM63.6032 71.8445C63.5945 71.8898 63.5775 71.9652 63.5444 72.0742C63.4855 72.2681 63.3912 72.5184 63.2569 72.8069C62.988 73.3844 62.5765 74.0772 62.018 74.74C60.9018 76.0646 59.2616 77.2051 57.0227 77.2051C54.4518 77.2051 53.3895 76.367 52.9205 75.6705C52.405 74.9047 52.4165 74.0327 52.46 73.7424L63.6032 71.8445ZM63.625 71.872C63.6284 71.8772 63.6295 71.8799 63.6292 71.8799C63.6289 71.8799 63.6272 71.8773 63.625 71.872Z" stroke="#008763" stroke-width="2" stroke-linecap="round" stroke-linejoin="round"></path>
<path d="M48.782 89.4939C52.9306 89.4939 54.7319 87.1704 54.7319 86.4301C54.7263 86.0543 54.5807 85.6956 54.326 85.4298C54.0713 85.1641 53.7274 85.0122 53.3673 85.0063C52.6031 85.0063 50.936 86.6009 48.782 86.6009C46.628 86.6009 44.9609 85.0063 44.1967 85.0063C43.8365 85.0122 43.4927 85.1641 43.238 85.4298C42.9833 85.6956 42.8377 86.0543 42.832 86.4301C42.832 87.1704 44.6334 89.4939 48.782 89.4939Z" stroke="#008763" stroke-width="2" stroke-linecap="round" stroke-linejoin="round"></path>
<path d="M48.9482 97.7118C46.4347 97.7118 44.2247 96.9569 42.6669 96.0291C41.8865 95.5644 41.297 95.0725 40.9201 94.6397C40.7318 94.4235 40.6115 94.2391 40.5431 94.097C40.4887 93.984 40.479 93.9229 40.4771 93.9074C40.483 93.8872 40.525 93.7699 40.7824 93.5693C41.0798 93.3375 41.529 93.1054 42.0773 92.8975C43.1812 92.4789 44.4223 92.2546 44.9865 92.2422C45.5253 92.2304 46.1482 92.3731 46.8567 92.5617C46.926 92.5802 46.9969 92.5993 47.0687 92.6186C47.3398 92.6916 47.6238 92.768 47.8873 92.8281C48.2185 92.9037 48.5897 92.9714 48.9482 92.9714C49.3076 92.9714 49.6795 92.903 50.0106 92.827C50.2721 92.767 50.5541 92.6908 50.8234 92.618C50.8971 92.5981 50.9699 92.5784 51.0411 92.5594C51.7495 92.3701 52.3703 92.2282 52.9059 92.2421C53.4715 92.2569 54.7141 92.4837 55.8185 92.9029C56.3673 93.1112 56.8172 93.3433 57.1151 93.5748C57.3668 93.7704 57.4121 93.886 57.4192 93.9081C57.4169 93.9252 57.4062 93.9851 57.3538 94.0935C57.2854 94.2352 57.1651 94.4193 56.9766 94.6355C56.5995 95.0683 56.0097 95.5606 55.2292 96.026C53.671 96.9549 51.4612 97.7118 48.9482 97.7118Z" stroke="#008763" stroke-width="2" stroke-linecap="round" stroke-linejoin="round"></path>
</svg>