<svg width="124" height="124" viewbox="0 0 124 124" fill="none" xmlns="http://www.w3.org/2000/svg">
<path d="M45.2417 44.3711C46.3671 44.3711 47.2793 43.4588 47.2793 42.3335C47.2793 41.2082 46.3671 40.2959 45.2417 40.2959C44.1164 40.2959 43.2041 41.2082 43.2041 42.3335C43.2041 43.4588 44.1164 44.3711 45.2417 44.3711Z" fill="black"></path>
<path d="M43.8294 42.1123C44.2622 42.1123 44.6131 41.7614 44.6131 41.3286C44.6131 40.8958 44.2622 40.5449 43.8294 40.5449C43.3966 40.5449 43.0457 40.8958 43.0457 41.3286C43.0457 41.7614 43.3966 42.1123 43.8294 42.1123Z" fill="white"></path>
<path fill-rule="evenodd" clip-rule="evenodd" d="M53.3407 44.8806C55.6365 44.5487 50.0216 41.1834 49.745 40.9898C48.5003 40.0954 46.8499 39.5515 45.0981 39.4593C41.1151 39.2472 39.4371 40.8976 36.5882 43.1288C36.5882 43.1288 37.6485 42.9813 38.7917 44.2444C39.935 45.5075 44.3421 47.0196 48.1776 46.0884C52.0131 45.1572 53.3407 44.8806 53.3407 44.8806Z" stroke="black" stroke-miterlimit="2.61313" stroke-linecap="round" stroke-linejoin="round"></path>
<mask id="mask0_314_605" style="mask-type:alpha" maskunits="userSpaceOnUse" x="41" y="38" width="9" height="9">
<path d="M45.2382 46.0234C47.275 46.0234 48.9262 44.3722 48.9262 42.3354C48.9262 40.2986 47.275 38.6475 45.2382 38.6475C43.2014 38.6475 41.5503 40.2986 41.5503 42.3354C41.5503 44.3722 43.2014 46.0234 45.2382 46.0234Z" stroke="black" stroke-miterlimit="2.61313" stroke-linecap="round" stroke-linejoin="round"></path>
</mask>
<g mask="url(#mask0_314_605)">
<path fill-rule="evenodd" clip-rule="evenodd" d="M53.3408 44.8801C55.6366 44.5482 50.0217 41.1829 49.7451 40.9893C48.5004 40.095 46.85 39.551 45.0982 39.4588C41.1152 39.2467 39.4372 40.8971 36.5882 43.1283C36.5882 43.1283 37.6485 42.9808 38.7918 44.2439C39.9351 45.507 44.3422 47.0191 48.1777 46.0879C52.0132 45.1567 53.3408 44.8801 53.3408 44.8801Z" fill="black" stroke="black" stroke-miterlimit="2.61313" stroke-linecap="round" stroke-linejoin="round"></path>
</g>
<path d="M52.8044 43.417C52.8044 43.417 52.0945 44.1546 52.3803 45.012" stroke="black" stroke-miterlimit="2.61313" stroke-linecap="round" stroke-linejoin="round"></path>
<path d="M53.676 42.3736C53.676 42.3736 51.0759 37.8466 44.9816 37.7821C38.8872 37.7175 35.8631 41.4332 35.8631 41.4332" stroke="black" stroke-miterlimit="2.61313" stroke-linecap="round" stroke-linejoin="round"></path>
<path fill-rule="evenodd" clip-rule="evenodd" d="M54.4294 35.9209C54.4294 35.9209 55.5173 34.5103 52.3733 32.8691C52.3733 32.8691 40.9683 29.4854 38.313 29.8173C35.6576 30.1493 31.4902 33.4777 31.4902 33.4777C31.4902 33.4777 36.1371 31.689 41.4477 33.0996C46.7584 34.5103 53.8854 36.4833 54.4294 35.9209V35.9209Z" stroke="black" stroke-miterlimit="2.61313" stroke-linecap="round" stroke-linejoin="round"></path>
<path d="M63.5299 68.7226C63.5299 68.7226 62.0363 68.7595 61.437 68.0772C60.8285 67.395 59.298 66.7864 58.0902 66.8694" stroke="black" stroke-miterlimit="2.61313" stroke-linecap="round" stroke-linejoin="round"></path>
<path d="M56.3522 63.4858C56.3522 63.4858 54.3423 67.7178 58.5281 68.4001" stroke="black" stroke-miterlimit="2.61313" stroke-linecap="round" stroke-linejoin="round"></path>
<path d="M57.1612 40.7607C57.1612 40.7607 60.7846 43.9877 60.0655 52.8481" stroke="black" stroke-miterlimit="2.61313" stroke-linecap="round" stroke-linejoin="round"></path>
<path fill-rule="evenodd" clip-rule="evenodd" d="M63.7467 76.8213C63.7467 76.8213 60.7871 75.3738 58.6942 76.5816C56.6013 77.7894 50.636 80.7674 50.636 80.7674C50.636 80.7674 53.2913 88.9086 63.7467 88.9086C74.2021 88.9086 76.8574 80.7674 76.8574 80.7674C76.8574 80.7674 70.8921 77.7894 68.7992 76.5816C66.7063 75.3738 63.7467 76.8213 63.7467 76.8213Z" stroke="black" stroke-miterlimit="2.61313" stroke-linecap="round" stroke-linejoin="round"></path>
<path d="M63.7579 81.7817C63.7579 81.7817 63.0111 81.7448 62.0891 81.3575C61.1671 80.9703 56.5295 80.7951 54.2706 81.3207C52.0117 81.8462 51.3294 80.5923 48.9138 80.5923" stroke="black" stroke-miterlimit="2.61313" stroke-linecap="round" stroke-linejoin="round"></path>
<path d="M21.7704 40.9927C21.7704 40.9927 26.5832 61.2488 29.1648 71.8056C31.7464 82.3624 32.3825 84.1326 38.0251 89.4525C43.6677 94.7724 54.4827 104.758 63.7487 104.758" stroke="black" stroke-miterlimit="2.61313" stroke-linecap="round" stroke-linejoin="round"></path>
<path d="M18.2885 38.2173C18.2885 38.2173 15.1814 38.2542 16.2325 42.7719C17.2835 47.2805 21.0637 53.8082 21.5524 58.6394C22.0318 63.4706 23.9403 64.8997 27.4162 64.5862" stroke="black" stroke-miterlimit="2.61313" stroke-linecap="round" stroke-linejoin="round"></path>
<path d="M19.0967 44.9404C19.0967 44.9404 19.613 42.7645 20.6364 43.4929C21.6598 44.2213 23.8173 49.9376 23.8173 49.9376C23.8173 49.9376 22.4343 52.8419 23.1995 53.727C23.9648 54.6121 25.4584 56.41 25.4584 56.41" stroke="black" stroke-miterlimit="2.61313" stroke-linecap="round" stroke-linejoin="round"></path>
<path d="M82.2641 44.3711C83.3895 44.3711 84.3017 43.4588 84.3017 42.3335C84.3017 41.2082 83.3895 40.2959 82.2641 40.2959C81.1388 40.2959 80.2265 41.2082 80.2265 42.3335C80.2265 43.4588 81.1388 44.3711 82.2641 44.3711Z" fill="black"></path>
<path d="M80.8518 42.1123C81.2846 42.1123 81.6355 41.7614 81.6355 41.3286C81.6355 40.8958 81.2846 40.5449 80.8518 40.5449C80.419 40.5449 80.0681 40.8958 80.0681 41.3286C80.0681 41.7614 80.419 42.1123 80.8518 42.1123Z" fill="white"></path>
<path fill-rule="evenodd" clip-rule="evenodd" d="M74.1606 44.8806C71.8649 44.5487 77.4798 41.1834 77.7564 40.9898C79.0011 40.0954 80.6514 39.5515 82.4032 39.4593C86.3862 39.2472 88.0642 40.8976 90.9132 43.1288C90.9132 43.1288 89.8529 42.9813 88.7096 44.2444C87.5664 45.5075 83.1593 47.0196 79.3238 46.0884C75.4883 45.1572 74.1606 44.8806 74.1606 44.8806V44.8806Z" stroke="black" stroke-miterlimit="2.61313" stroke-linecap="round" stroke-linejoin="round"></path>
<mask id="mask1_314_605" style="mask-type:alpha" maskunits="userSpaceOnUse" x="78" y="38" width="9" height="9">
<path d="M82.2608 46.0234C84.2976 46.0234 85.9487 44.3722 85.9487 42.3354C85.9487 40.2986 84.2976 38.6475 82.2608 38.6475C80.224 38.6475 78.5728 40.2986 78.5728 42.3354C78.5728 44.3722 80.224 46.0234 82.2608 46.0234Z" stroke="black" stroke-miterlimit="2.61313" stroke-linecap="round" stroke-linejoin="round"></path>
</mask>
<g mask="url(#mask1_314_605)">
<path fill-rule="evenodd" clip-rule="evenodd" d="M74.1605 44.8801C71.8647 44.5482 77.4796 41.1829 77.7562 40.9893C79.0009 40.095 80.6513 39.551 82.4031 39.4588C86.3861 39.2467 88.0641 40.8971 90.913 43.1283C90.913 43.1283 89.8528 42.9808 88.7095 44.2439C87.5662 45.507 83.1591 47.0191 79.3236 46.0879C75.4881 45.1567 74.1605 44.8801 74.1605 44.8801V44.8801Z" fill="black" stroke="black" stroke-miterlimit="2.61313" stroke-linecap="round" stroke-linejoin="round"></path>
</g>
<path d="M74.698 43.417C74.698 43.417 75.408 44.1546 75.1222 45.012" stroke="black" stroke-miterlimit="2.61313" stroke-linecap="round" stroke-linejoin="round"></path>
<path d="M73.837 42.3736C73.837 42.3736 76.437 37.8466 82.5313 37.7821C88.6257 37.7175 91.6498 41.4332 91.6498 41.4332" stroke="black" stroke-miterlimit="2.61313" stroke-linecap="round" stroke-linejoin="round"></path>
<path fill-rule="evenodd" clip-rule="evenodd" d="M73.0676 35.9209C73.0676 35.9209 71.9796 34.5103 75.1236 32.8691C75.1236 32.8691 86.5286 29.4854 89.184 29.8173C91.8393 30.1493 96.0067 33.4777 96.0067 33.4777C96.0067 33.4777 91.3599 31.689 86.0492 33.0996C80.7385 34.5103 73.6115 36.4833 73.0676 35.9209V35.9209Z" stroke="black" stroke-miterlimit="2.61313" stroke-linecap="round" stroke-linejoin="round"></path>
<path d="M63.9585 68.7226C63.9585 68.7226 65.4522 68.7595 66.0514 68.0772C66.66 67.395 68.1905 66.7864 69.3983 66.8694" stroke="black" stroke-miterlimit="2.61313" stroke-linecap="round" stroke-linejoin="round"></path>
<path d="M71.1415 63.4858C71.1415 63.4858 73.1515 67.7178 68.9656 68.4001" stroke="black" stroke-miterlimit="2.61313" stroke-linecap="round" stroke-linejoin="round"></path>
<path d="M70.3331 40.7607C70.3331 40.7607 66.7097 43.9877 67.4289 52.8481" stroke="black" stroke-miterlimit="2.61313" stroke-linecap="round" stroke-linejoin="round"></path>
<path d="M63.7544 81.7817C63.7544 81.7817 64.5013 81.7448 65.4233 81.3575C66.3452 80.9703 70.9829 80.7951 73.2417 81.3207C75.5006 81.8462 76.1829 80.5923 78.5985 80.5923" stroke="black" stroke-miterlimit="2.61313" stroke-linecap="round" stroke-linejoin="round"></path>
<path d="M105.71 40.9927C105.71 40.9927 100.898 61.2488 98.3159 71.8056C95.7344 82.3624 95.0982 84.1326 89.4556 89.4525C83.813 94.7724 72.9981 104.758 63.7321 104.758" stroke="black" stroke-miterlimit="2.61313" stroke-linecap="round" stroke-linejoin="round"></path>
<path d="M109.202 38.2173C109.202 38.2173 112.309 38.2542 111.258 42.7719C110.207 47.2805 106.427 53.8082 105.938 58.6394C105.459 63.4706 103.55 64.8997 100.074 64.5862" stroke="black" stroke-miterlimit="2.61313" stroke-linecap="round" stroke-linejoin="round"></path>
<path d="M108.407 44.9404C108.407 44.9404 107.891 42.7645 106.867 43.4929C105.844 44.2213 103.687 49.9376 103.687 49.9376C103.687 49.9376 105.07 52.8419 104.304 53.727C103.539 54.6121 102.045 56.41 102.045 56.41" stroke="black" stroke-miterlimit="2.61313" stroke-linecap="round" stroke-linejoin="round"></path>
<path d="M75.2417 62.4946C75.2417 62.4946 86.2133 65.74 89.3389 76.8316" stroke="#008763" stroke-width="3" stroke-miterlimit="2.61313" stroke-linecap="round" stroke-linejoin="round" stroke-dasharray="0.01 4"></path>
<path d="M52.43 62.4946C52.43 62.4946 41.4583 65.74 38.3328 76.8316" stroke="#008763" stroke-width="3" stroke-miterlimit="2.61313" stroke-linecap="round" stroke-linejoin="round" stroke-dasharray="0.01 4"></path>
<path d="M46.8976 25.4951H80.5779" stroke="#008763" stroke-width="3" stroke-miterlimit="2.61313" stroke-linecap="round" stroke-linejoin="round" stroke-dasharray="0.01 4"></path>
<path d="M74.5394 48.9624C74.5394 48.9624 81.3068 54.439 93.3941 52.1894" stroke="#008763" stroke-width="3" stroke-miterlimit="2.61313" stroke-linecap="round" stroke-linejoin="round" stroke-dasharray="0.01 4"></path>
<path d="M52.9508 48.9624C52.9508 48.9624 46.1834 54.439 34.0961 52.1894" stroke="#008763" stroke-width="3" stroke-miterlimit="2.61313" stroke-linecap="round" stroke-linejoin="round" stroke-dasharray="0.01 4"></path>
</svg>