<svg width="25" height="25" viewbox="0 0 24 24" fill="none" xmlns="http://www.w3.org/2000/svg">
                  <path d="M0.923077 3.69238C0.367789 3.69238 0 4.06017 0 4.61546V17.5385C0 18.0938 0.367789 18.4616 0.923077 18.4616H2.76923C2.95313 16.8931 4.33774 15.6058 6 15.6058C7.66226 15.6058 9.04688 16.8931 9.23077 18.4616H12.9231C13.4784 18.4616 13.8462 18.0938 13.8462 17.5385V4.61546C13.8462 4.06017 13.4784 3.69238 12.9231 3.69238H0.923077ZM10.0385 6.89431C10.1899 6.89431 10.3486 6.95921 10.4423 7.09623L10.9904 7.67315C11.1743 7.85705 11.1815 8.2032 10.9038 8.48084L6.375 13.0097C6.09736 13.2873 5.72236 13.2873 5.53846 13.0097L2.94231 10.4424C2.66466 10.1647 2.66466 9.78974 2.94231 9.60584L3.51923 9.05777C3.79687 8.78012 4.14303 8.78012 4.32692 9.05777L6 10.702L9.60577 7.09623C9.74279 6.95921 9.88702 6.89431 10.0385 6.89431ZM15.6923 7.38469C15.137 7.38469 14.7692 7.75248 14.7692 8.30777V17.5385C14.7692 18.0001 15.137 18.4616 15.6923 18.4616C15.8762 16.8931 17.2608 15.6058 18.9231 15.6058C20.5853 15.6058 21.97 16.7994 22.1538 18.4616H23.0769C23.6322 18.4616 24 18.0938 24 17.5385V12.9232C24 12.0938 23.25 11.077 23.25 11.077L21.2308 8.30777C20.7692 7.75248 20.4916 7.38469 19.8462 7.38469H15.6923ZM17.5385 9.23084H19.7596C19.9435 9.23084 20.1346 9.40392 20.1346 9.40392L22.0673 12.0866C22.2512 12.3643 22.4423 12.6527 22.4423 12.8366H17.5385V9.23084ZM6 16.7885C4.82813 16.7885 3.86538 17.7513 3.86538 18.9232C3.86538 20.095 4.82813 21.0578 6 21.0578C7.17188 21.0578 8.13462 20.095 8.13462 18.9232C8.13462 17.7513 7.17188 16.7885 6 16.7885ZM18.9231 16.7885C17.7512 16.7885 16.7885 17.7513 16.7885 18.9232C16.7885 20.095 17.7512 21.0578 18.9231 21.0578C20.095 21.0578 21.0577 20.095 21.0577 18.9232C21.0577 17.7513 20.095 16.7885 18.9231 16.7885Z" fill="#4F937D"></path>
                </svg>