<svg class="klarna-logo payments-logo" xmlns="http://www.w3.org/2000/svg" width="673px" height="322px" version="1.0" style="shape-rendering:geometricPrecision; text-rendering:geometricPrecision; image-rendering:optimizeQuality; fill-rule:evenodd; clip-rule:evenodd" viewbox="0 0 525.132 251.434" xml:space="preserve" xmlns:xlink="http://www.w3.org/1999/xlink" xmlns:xodm="http://www.corel.com/coreldraw/odm/2003">
 <defs>
  <style type="text/css">
   
    .klarna-logo .fil1 {fill:#0A0B09}
    .klarna-logo .fil4 {fill:#49363B}
    .klarna-logo .fil6 {fill:#6C4F55}
    .klarna-logo .fil3 {fill:#705058}
    .klarna-logo .fil2 {fill:#78575F}
    .klarna-logo .fil5 {fill:#8D646E}
    .klarna-logo .fil0 {fill:#FDB2C5}
   
  </style>
 </defs>
 <g id="Layer_x0020_1">
  <metadata id="CorelCorpID_0Corel-Layer"></metadata>
  <path class="fil0" d="M23.203 0l478.725 0c12.762,0 23.204,7.761 23.204,17.246l0 216.942c0,9.485 -10.442,17.246 -23.204,17.246l-478.725 0c-12.762,0 -23.203,-7.761 -23.203,-17.246l0 -216.942c0,-9.485 10.441,-17.246 23.203,-17.246z"></path>
  <g id="_2351058402384">
   <path class="fil1" d="M400.539 122.845c9.481,-0.765 17.409,6.14 18.227,14.627 0.933,9.668 -6.695,17.03 -15.418,17.759 -9.65,0.805 -17.546,-6.078 -18.393,-14.64 -0.963,-9.728 6.741,-17.031 15.584,-17.746zm36.917 47.774c0.337,-1.607 0.1,-61.65 0.099,-63.109l-18.691 0 0.022 3.898c-1.187,-0.622 -2.288,-1.411 -3.605,-2.099 -3.929,-2.054 -8.707,-3.327 -13.27,-3.561 -26.694,-1.364 -43.82,28.342 -29.682,50.97 2.842,4.55 6.817,8.576 11.505,11.208 8.24,4.628 18.197,5.965 27.666,2.484 4.726,-1.738 6.028,-3.172 7.398,-3.743l0.06 3.964 18.498 -0.012z"></path>
   <path class="fil1" d="M187.195 140.777c-1.004,-9.743 6.535,-17.104 15.216,-17.911 9.654,-0.897 17.638,5.925 18.559,14.411 1.058,9.75 -6.564,17.114 -15.226,17.936 -9.688,0.919 -17.679,-5.992 -18.549,-14.436zm52.412 29.85c0.432,-1.415 0.151,-59.947 0.151,-63.078l-18.633 0 -0.032 3.876c-1.074,-0.528 -2.313,-1.463 -3.602,-2.134 -20.985,-10.912 -47.967,4.063 -47.973,29.739 -0.005,19.841 16.604,34.24 34.735,33.297 3.298,-0.172 6.581,-0.858 9.449,-1.906 3.621,-1.322 4.566,-2.213 7.415,-3.768l0.058 3.978 18.432 -0.004z"></path>
   <path class="fil1" d="M341.871 136.146c0.579,1.263 0.242,30.319 0.237,34.374l18.429 0 -0.087 -41.981c0.414,-2.057 -0.966,-6.17 -1.731,-7.906 -2.844,-6.456 -8.061,-11.141 -15.424,-13.496 -7.318,-2.34 -17.237,-1.91 -23.701,2.62 -3.55,2.488 -3.615,3.519 -4.929,4.634l-0.058 -6.935 -18.612 -0.002 0.053 63.177 18.802 -0.005c0.263,-3.509 0.037,-17.256 0.037,-21.891 0,-6.584 -0.925,-14.642 2.208,-19.736 2.543,-4.137 8.657,-7.063 15.643,-5.489 5.539,1.247 9.229,6.006 9.133,12.636z"></path>
   <path class="fil1" d="M107.465 131.141c3.564,-4.02 5.004,-5.39 8.334,-10.092 7.604,-10.735 13.537,-27.932 12.85,-41.766l-20.262 -0.002c-0.291,3.136 -0.262,5.778 -0.783,8.928 -2.069,12.533 -8.308,23.03 -17.408,31.11 -2.522,2.238 -7.191,5.477 -10.206,7.846l-0.627 0.605 29.259 40.296c0.592,0.828 1.369,1.798 1.814,2.592l25.631 -0.033c-0.299,-0.607 -1.27,-1.827 -1.726,-2.458l-12.578 -17.318c-2.14,-2.874 -12.409,-16.74 -14.298,-19.708z"></path>
   <polygon class="fil1" points="56.137,170.671 76.601,170.63 76.707,79.327 56.09,79.327 "></polygon>
   <polygon class="fil1" points="142.308,170.577 161.68,170.577 161.636,79.365 142.31,79.365 "></polygon>
   <path class="fil1" d="M268.878 170.631c0.223,-2.331 0.048,-5.498 0.048,-7.919 0,-3.675 -0.178,-21.289 0.141,-23.489 0.893,-6.149 5.992,-10.358 11.61,-12.281 2.507,-0.857 3.969,-0.767 6.579,-1.185l-0.041 -18.255c-3.5,-0.301 -8.072,1.081 -10.842,2.328 -3.923,1.767 -4.917,3.309 -7.484,5.725l-0.07 -8.101 -19.126 0.014 0.034 63.162 19.151 0.001z"></path>
   <path class="fil1" d="M445.847 161.159c0.524,6.128 5.903,11.278 12.654,10.762 6.172,-0.472 11.394,-6.028 10.774,-12.906 -0.552,-6.123 -5.963,-11.376 -12.792,-10.742 -6.084,0.565 -11.226,5.998 -10.636,12.886z"></path>
   <path class="fil2" d="M56.137 170.671l-0.047 -91.344 20.617 0 -0.106 91.303c0.277,-0.264 0.165,-0.056 0.245,-0.542l-0.004 -67.942c0,-5.37 0.246,-18.397 -0.028,-22.819 -0.841,-0.324 -19.367,-0.361 -20.862,-0.071 -0.298,3.371 -0.046,7.937 -0.046,11.437l-0.012 78.823c0,0.204 0,0.558 0.039,0.748 0.091,0.44 0.032,0.177 0.204,0.407z"></path>
   <path class="fil3" d="M142.31 79.365l19.326 0 0.044 91.212 -19.372 0 0.002 -91.212zm-0.148 91.271c1.315,0.271 18.731,0.255 19.724,-0.037l-0.042 -91.276c-0.913,-0.26 -18.406,-0.28 -19.722,-0.034l0.04 91.347z"></path>
   <path class="fil4" d="M341.871 136.146l0.059 34.536 18.743 -0.045c0.253,-3.167 0.04,-16.813 0.04,-21.125 0,-4.016 0.205,-16.142 -0.021,-20.007l-0.242 -0.966 0.087 41.981 -18.429 0c0.005,-4.055 0.342,-33.111 -0.237,-34.374z"></path>
   <path class="fil5" d="M437.456 170.619c0.462,-0.207 0.304,-0.115 0.29,-1.694 -0.078,-9.007 0.257,-58.992 -0.059,-61.451 -1.045,-0.387 -14.203,-0.162 -17.582,-0.174 -0.082,0 -0.545,-0.007 -0.594,-0.001l-0.504 0.133c-0.038,0.013 -0.096,0.051 -0.143,0.078l18.691 0c0.001,1.459 0.238,61.502 -0.099,63.109z"></path>
   <path class="fil6" d="M239.607 170.627c0.473,-0.183 0.281,0.162 0.37,-0.716 0.015,-0.147 -0.02,-0.784 -0.022,-0.986 -0.093,-8.924 0.241,-59.206 -0.064,-61.465 -1.428,-0.282 -13.977,-0.086 -17.599,-0.098l-1.167 0.187 18.633 0c0,3.131 0.281,61.663 -0.151,63.078z"></path>
  </g>
 </g>
</svg>