<svg width="132" height="21" viewbox="0 0 132 21" fill="none" xmlns="http://www.w3.org/2000/svg">
<path fill-rule="evenodd" clip-rule="evenodd" d="M121.43 0.450854L123.83 7.43002L131.33 7.51529C131.975 7.52267 132.243 8.33029 131.725 8.70828L125.708 13.1063L127.943 20.138C128.135 20.7431 127.436 21.2416 126.909 20.8751L120.791 16.614L114.673 20.8743C114.147 21.2408 113.447 20.7414 113.639 20.1372L115.874 13.1055L109.857 8.70746C109.339 8.32947 109.606 7.52185 110.252 7.51447L117.752 7.4292L120.152 0.450034C120.359 -0.150148 121.224 -0.150148 121.43 0.450854Z" fill="#008763"></path>
<path fill-rule="evenodd" clip-rule="evenodd" d="M94.0355 0.450854L96.4358 7.43002L103.936 7.51529C104.581 7.52267 104.848 8.33029 104.33 8.70828L98.3135 13.1063L100.548 20.138C100.74 20.7431 100.042 21.2416 99.5149 20.8751L93.3968 16.614L87.278 20.8743C86.752 21.2408 86.0524 20.7414 86.2444 20.1372L88.4794 13.1055L82.4624 8.70746C81.9447 8.32947 82.2119 7.52185 82.8573 7.51447L90.357 7.4292L92.7573 0.450034C92.9644 -0.150148 93.8293 -0.150148 94.0355 0.450854Z" fill="#008763"></path>
<path fill-rule="evenodd" clip-rule="evenodd" d="M66.6351 0.450854L69.0354 7.43002L76.5351 7.51529C77.1805 7.52267 77.4477 8.33029 76.93 8.70828L70.913 13.1063L73.148 20.138C73.34 20.7431 72.6412 21.2416 72.1144 20.8751L65.9964 16.614L59.8775 20.8743C59.3515 21.2408 58.6519 20.7414 58.8439 20.1372L61.0789 13.1055L55.0619 8.70746C54.5443 8.32947 54.8115 7.52185 55.4568 7.51447L62.9566 7.4292L65.3569 0.450034C65.5639 -0.150148 66.4289 -0.150148 66.6351 0.450854Z" fill="#008763"></path>
<path fill-rule="evenodd" clip-rule="evenodd" d="M39.2406 0.450854L41.6409 7.43002L49.1407 7.51529C49.786 7.52267 50.0532 8.33029 49.5356 8.70828L43.5185 13.1063L45.7535 20.138C45.9456 20.7431 45.2468 21.2416 44.7199 20.8751L38.6019 16.614L32.4831 20.8743C31.9571 21.2408 31.2574 20.7414 31.4495 20.1372L33.6845 13.1055L27.6674 8.70746C27.1498 8.32947 27.417 7.52185 28.0623 7.51447L35.5621 7.4292L37.9624 0.450034C38.1694 -0.150148 39.0344 -0.150148 39.2406 0.450854Z" fill="#008763"></path>
<path fill-rule="evenodd" clip-rule="evenodd" d="M11.8461 0.450854L14.2464 7.43002L21.7461 7.51529C22.3915 7.52267 22.6587 8.33029 22.141 8.70828L16.124 13.1063L18.359 20.138C18.551 20.7431 17.8522 21.2416 17.3254 20.8751L11.2074 16.614L5.08852 20.8743C4.56255 21.2408 3.86291 20.7414 4.05494 20.1372L6.28992 13.1055L0.272914 8.70746C-0.244714 8.32947 0.0224489 7.52185 0.667814 7.51447L8.16757 7.4292L10.5679 0.450034C10.7749 -0.150148 11.6399 -0.150148 11.8461 0.450854Z" fill="#008763"></path>
</svg>