<svg width="46" height="46" viewbox="0 0 48 48" fill="none" xmlns="http://www.w3.org/2000/svg">
                  <circle opacity="0.9" cx="24" cy="24" r="23" fill="black"></circle>
                  <circle cx="24" cy="24" r="11.5" stroke="white"></circle>
                  <path d="M15 16.6941C17.1032 17.4964 20.1326 17.9998 23.5 17.9998C27.2293 17.9998 30.5441 17.3823 32.6453 16.4253" stroke="white"></path>
                  <path d="M15.1935 31.5C17.3011 30.5856 20.5395 30 24.1711 30C27.6296 30 30.7314 30.5311 32.8396 31.3715" stroke="white"></path>
                  <path d="M29.5 24C29.5 27.2529 28.8397 30.1732 27.7954 32.2617C26.7362 34.3801 25.3654 35.5 24 35.5C22.6346 35.5 21.2638 34.3801 20.2046 32.2617C19.1603 30.1732 18.5 27.2529 18.5 24C18.5 20.7471 19.1603 17.8268 20.2046 15.7383C21.2638 13.6199 22.6346 12.5 24 12.5C25.3654 12.5 26.7362 13.6199 27.7954 15.7383C28.8397 17.8268 29.5 20.7471 29.5 24Z" stroke="white"></path>
                  <line x1="12" y1="24" x2="36" y2="24" stroke="white"></line>
                </svg>