<svg width="43" height="43" viewbox="0 0 43 43" fill="none" xmlns="http://www.w3.org/2000/svg">
<g clip-path="url(#clip0_1201_2566)">
<path d="M21.499 34.7625C28.8242 34.7625 34.7624 28.8243 34.7624 21.4992C34.7624 14.174 28.8242 8.23584 21.499 8.23584C14.1739 8.23584 8.23572 14.174 8.23572 21.4992C8.23572 28.8243 14.1739 34.7625 21.499 34.7625Z" stroke="black" stroke-opacity="0.25" stroke-width="0.7" stroke-miterlimit="2.61313" stroke-linecap="round" stroke-linejoin="round"></path>
<path d="M21.499 31.3523C26.9407 31.3523 31.352 26.941 31.352 21.4994C31.352 16.0578 26.9407 11.6465 21.499 11.6465C16.0574 11.6465 11.6461 16.0578 11.6461 21.4994C11.6461 26.941 16.0574 31.3523 21.499 31.3523Z" stroke="black" stroke-opacity="0.5" stroke-width="0.7" stroke-miterlimit="2.61313" stroke-linecap="round" stroke-linejoin="round"></path>
<path d="M21.4991 27.7514C24.9522 27.7514 27.7515 24.9521 27.7515 21.499C27.7515 18.0459 24.9522 15.2466 21.4991 15.2466C18.046 15.2466 15.2467 18.0459 15.2467 21.499C15.2467 24.9521 18.046 27.7514 21.4991 27.7514Z" stroke="black" stroke-opacity="0.75" stroke-width="0.7" stroke-miterlimit="2.61313" stroke-linecap="round" stroke-linejoin="round"></path>
<path d="M21.4991 24.3849C23.0928 24.3849 24.3847 23.093 24.3847 21.4993C24.3847 19.9057 23.0928 18.6138 21.4991 18.6138C19.9054 18.6138 18.6135 19.9057 18.6135 21.4993C18.6135 23.093 19.9054 24.3849 21.4991 24.3849Z" stroke="black" stroke-width="0.7" stroke-miterlimit="2.61313" stroke-linecap="round" stroke-linejoin="round"></path>
</g>
<path d="M21.5726 1V5.23721" stroke="black" stroke-width="0.7" stroke-miterlimit="2.61313" stroke-linecap="round" stroke-linejoin="round"></path>
<path d="M20.3184 4.28711L21.5727 5.23716" stroke="black" stroke-width="0.7" stroke-miterlimit="2.61313" stroke-linecap="round" stroke-linejoin="round"></path>
<path d="M22.8269 4.28711L21.5726 5.23716" stroke="black" stroke-width="0.7" stroke-miterlimit="2.61313" stroke-linecap="round" stroke-linejoin="round"></path>
<path d="M21.5726 42.145L21.5726 37.9078" stroke="black" stroke-width="0.7" stroke-miterlimit="2.61313" stroke-linecap="round" stroke-linejoin="round"></path>
<path d="M22.8269 38.8579L21.5726 37.9079" stroke="black" stroke-width="0.7" stroke-miterlimit="2.61313" stroke-linecap="round" stroke-linejoin="round"></path>
<path d="M20.3183 38.8579L21.5726 37.9079" stroke="black" stroke-width="0.7" stroke-miterlimit="2.61313" stroke-linecap="round" stroke-linejoin="round"></path>
<path d="M42.1453 21.5723L37.9081 21.5723" stroke="black" stroke-width="0.7" stroke-miterlimit="2.61313" stroke-linecap="round" stroke-linejoin="round"></path>
<path d="M38.858 20.3179L37.908 21.5722" stroke="black" stroke-width="0.7" stroke-miterlimit="2.61313" stroke-linecap="round" stroke-linejoin="round"></path>
<path d="M38.858 22.8266L37.908 21.5723" stroke="black" stroke-width="0.7" stroke-miterlimit="2.61313" stroke-linecap="round" stroke-linejoin="round"></path>
<path d="M1 21.5728L5.23721 21.5728" stroke="black" stroke-width="0.7" stroke-miterlimit="2.61313" stroke-linecap="round" stroke-linejoin="round"></path>
<path d="M4.28723 22.8271L5.23729 21.5728" stroke="black" stroke-width="0.7" stroke-miterlimit="2.61313" stroke-linecap="round" stroke-linejoin="round"></path>
<path d="M4.28723 20.3185L5.23729 21.5728" stroke="black" stroke-width="0.7" stroke-miterlimit="2.61313" stroke-linecap="round" stroke-linejoin="round"></path>
<path d="M36.1196 7.02588L33.1235 10.022" stroke="black" stroke-width="0.7" stroke-miterlimit="2.61313" stroke-linecap="round" stroke-linejoin="round"></path>
<path d="M32.9083 8.46289L33.1235 10.0216" stroke="black" stroke-width="0.7" stroke-miterlimit="2.61313" stroke-linecap="round" stroke-linejoin="round"></path>
<path d="M34.6822 10.237L33.1235 10.0219" stroke="black" stroke-width="0.7" stroke-miterlimit="2.61313" stroke-linecap="round" stroke-linejoin="round"></path>
<path d="M7.02563 36.1191L10.0218 33.123" stroke="black" stroke-width="0.7" stroke-miterlimit="2.61313" stroke-linecap="round" stroke-linejoin="round"></path>
<path d="M10.2369 34.6821L10.0218 33.1234" stroke="black" stroke-width="0.7" stroke-miterlimit="2.61313" stroke-linecap="round" stroke-linejoin="round"></path>
<path d="M8.46305 32.908L10.0218 33.1231" stroke="black" stroke-width="0.7" stroke-miterlimit="2.61313" stroke-linecap="round" stroke-linejoin="round"></path>
<path d="M36.1198 36.1191L33.1236 33.123" stroke="black" stroke-width="0.7" stroke-miterlimit="2.61313" stroke-linecap="round" stroke-linejoin="round"></path>
<path d="M34.6823 32.9082L33.1235 33.1233" stroke="black" stroke-width="0.7" stroke-miterlimit="2.61313" stroke-linecap="round" stroke-linejoin="round"></path>
<path d="M32.9085 34.6818L33.1236 33.1231" stroke="black" stroke-width="0.7" stroke-miterlimit="2.61313" stroke-linecap="round" stroke-linejoin="round"></path>
<path d="M7.02551 7.02588L10.0217 10.022" stroke="black" stroke-width="0.7" stroke-miterlimit="2.61313" stroke-linecap="round" stroke-linejoin="round"></path>
<path d="M8.46301 10.2368L10.0217 10.0217" stroke="black" stroke-width="0.7" stroke-miterlimit="2.61313" stroke-linecap="round" stroke-linejoin="round"></path>
<path d="M10.2368 8.46317L10.0216 10.0219" stroke="black" stroke-width="0.7" stroke-miterlimit="2.61313" stroke-linecap="round" stroke-linejoin="round"></path>
<defs>
<clippath id="clip0_1201_2566">
<rect width="27" height="27" fill="white" transform="translate(8 8)"></rect>
</clippath>
</defs>
</svg>