<svg width="124" height="124" viewbox="0 0 124 124" fill="none" xmlns="http://www.w3.org/2000/svg">
<path d="M43.4947 44.367C44.6188 44.367 45.53 43.4558 45.53 42.3317C45.53 41.2076 44.6188 40.2964 43.4947 40.2964C42.3707 40.2964 41.4594 41.2076 41.4594 42.3317C41.4594 43.4558 42.3707 44.367 43.4947 44.367Z" fill="black"></path>
<path d="M42.0929 42.1067C42.524 42.1067 42.8735 41.7572 42.8735 41.3261C42.8735 40.8949 42.524 40.5454 42.0929 40.5454C41.6617 40.5454 41.3122 40.8949 41.3122 41.3261C41.3122 41.7572 41.6617 42.1067 42.0929 42.1067Z" fill="white"></path>
<path fill-rule="evenodd" clip-rule="evenodd" d="M51.5944 44.8731C53.8862 44.5441 48.2766 41.1761 48.0033 40.9809C46.7598 40.0887 45.1093 39.5422 43.3528 39.453C39.3714 39.2467 37.693 40.8917 34.8435 43.1221C34.8435 43.1221 35.8974 42.9716 37.0461 44.2374C38.1948 45.5032 42.6 47.0143 46.4309 46.0775C50.2617 45.1407 51.5944 44.8675 51.5944 44.8675V44.8731Z" stroke="black" stroke-miterlimit="2.61313" stroke-linecap="round" stroke-linejoin="round"></path>
<mask id="mask0_314_445" style="mask-type:alpha" maskunits="userSpaceOnUse" x="39" y="38" width="9" height="9">
<path d="M43.4914 46.0138C45.5271 46.0138 47.1773 44.3636 47.1773 42.3279C47.1773 40.2923 45.5271 38.6421 43.4914 38.6421C41.4558 38.6421 39.8055 40.2923 39.8055 42.3279C39.8055 44.3636 41.4558 46.0138 43.4914 46.0138Z" stroke="black" stroke-miterlimit="2.61313" stroke-linecap="round" stroke-linejoin="round"></path>
</mask>
<g mask="url(#mask0_314_445)">
<path fill-rule="evenodd" clip-rule="evenodd" d="M51.5945 44.8726C53.8863 44.5436 48.2767 41.1756 48.0034 40.9804C46.7599 40.0882 45.1094 39.5417 43.3529 39.4525C39.3715 39.2462 37.6931 40.8912 34.8436 43.1217C34.8436 43.1217 35.8975 42.9711 37.0462 44.2369C38.1949 45.5027 42.6001 47.0138 46.4309 46.077C50.2618 45.1402 51.5945 44.867 51.5945 44.867V44.8726Z" fill="black" stroke="black" stroke-miterlimit="2.61313" stroke-linecap="round" stroke-linejoin="round"></path>
</g>
<path d="M51.0559 43.4116C51.0559 43.4116 50.3477 44.1477 50.6377 45.0064" stroke="black" stroke-miterlimit="2.61313" stroke-linecap="round" stroke-linejoin="round"></path>
<path d="M51.9288 42.3712C51.9288 42.3712 49.3359 37.8433 43.2355 37.782C37.1408 37.7207 34.1185 41.4344 34.1185 41.4344" stroke="black" stroke-miterlimit="2.61313" stroke-linecap="round" stroke-linejoin="round"></path>
<path fill-rule="evenodd" clip-rule="evenodd" d="M52.6805 35.9172C52.6805 35.9172 53.7678 34.5064 50.6284 32.8615C50.6284 32.8615 39.2196 29.4767 36.5653 29.8057C33.911 30.1347 29.7456 33.4693 29.7456 33.4693C29.7456 33.4693 34.3962 31.6849 39.7047 33.0957C45.0188 34.5064 52.1396 36.4804 52.6805 35.9116V35.9172Z" stroke="black" stroke-miterlimit="2.61313" stroke-linecap="round" stroke-linejoin="round"></path>
<path d="M61.7878 68.7255C61.7878 68.7255 60.299 68.7646 59.6912 68.0787C59.089 67.3928 57.5555 66.7906 56.3455 66.8687" stroke="black" stroke-miterlimit="2.61313" stroke-linecap="round" stroke-linejoin="round"></path>
<path d="M54.62 63.4863C54.62 63.4863 52.607 67.7131 56.7947 68.3989" stroke="black" stroke-miterlimit="2.61313" stroke-linecap="round" stroke-linejoin="round"></path>
<path d="M55.4166 40.7607C55.4166 40.7607 59.0411 43.9838 58.3162 52.8443" stroke="black" stroke-miterlimit="2.61313" stroke-linecap="round" stroke-linejoin="round"></path>
<path fill-rule="evenodd" clip-rule="evenodd" d="M62.0064 76.8165C62.0064 76.8165 59.0454 75.3667 56.9488 76.5767C54.8521 77.7867 48.8912 80.7644 48.8912 80.7644C48.8912 80.7644 51.551 88.9001 62.0008 88.9001C72.4562 88.9001 75.1104 80.7644 75.1104 80.7644C75.1104 80.7644 69.1495 77.7811 67.0529 76.5767C64.9562 75.3667 61.9952 76.8165 61.9952 76.8165H62.0064Z" stroke="black" stroke-miterlimit="2.61313" stroke-linecap="round" stroke-linejoin="round"></path>
<path d="M62.0018 81.7688C62.0018 81.7688 61.2546 81.7298 60.3289 81.345C59.4033 80.9602 54.7695 80.7818 52.5167 81.306C50.2583 81.8301 49.5781 80.5811 47.158 80.5811" stroke="black" stroke-miterlimit="2.61313" stroke-linecap="round" stroke-linejoin="round"></path>
<path d="M20.0257 40.9873C20.0257 40.9873 24.8436 61.2456 27.4197 71.7957C29.9959 82.3515 30.6428 84.1247 36.2803 89.4388C41.9178 94.7585 52.7412 104.745 62.0033 104.745" stroke="black" stroke-miterlimit="2.61313" stroke-linecap="round" stroke-linejoin="round"></path>
<path d="M16.5444 38.2119C16.5444 38.2119 13.4385 38.2509 14.4868 42.7621C15.5351 47.2732 19.3214 53.7974 19.8065 58.6319C20.2916 63.4665 22.1875 64.8884 25.6726 64.5817" stroke="black" stroke-miterlimit="2.61313" stroke-linecap="round" stroke-linejoin="round"></path>
<path d="M17.352 44.9303C17.352 44.9303 17.865 42.7556 18.891 43.4805C19.9171 44.2054 22.0695 49.9265 22.0695 49.9265C22.0695 49.9265 20.6866 52.8261 21.4561 53.7128C22.2256 54.5994 23.7144 56.4005 23.7144 56.4005" stroke="black" stroke-miterlimit="2.61313" stroke-linecap="round" stroke-linejoin="round"></path>
<path d="M80.5283 44.367C81.6524 44.367 82.5636 43.4558 82.5636 42.3317C82.5636 41.2076 81.6524 40.2964 80.5283 40.2964C79.4043 40.2964 78.493 41.2076 78.493 42.3317C78.493 43.4558 79.4043 44.367 80.5283 44.367Z" fill="black"></path>
<path d="M79.1264 42.1067C79.5576 42.1067 79.9071 41.7572 79.9071 41.3261C79.9071 40.8949 79.5576 40.5454 79.1264 40.5454C78.6953 40.5454 78.3458 40.8949 78.3458 41.3261C78.3458 41.7572 78.6953 42.1067 79.1264 42.1067Z" fill="white"></path>
<path fill-rule="evenodd" clip-rule="evenodd" d="M72.4147 44.8731C70.1229 44.5441 75.7325 41.1761 76.0057 40.9809C77.2492 40.0887 78.8998 39.5422 80.6563 39.453C84.6377 39.2467 86.3161 40.8917 89.1655 43.1221C89.1655 43.1221 88.1116 42.9716 86.9629 44.2374C85.8142 45.5032 81.4091 47.0143 77.5782 46.0775C73.7474 45.1407 72.4147 44.8675 72.4147 44.8675V44.8731Z" stroke="black" stroke-miterlimit="2.61313" stroke-linecap="round" stroke-linejoin="round"></path>
<mask id="mask1_314_445" style="mask-type:alpha" maskunits="userSpaceOnUse" x="76" y="38" width="9" height="9">
<path d="M80.5248 46.0138C82.5605 46.0138 84.2107 44.3636 84.2107 42.3279C84.2107 40.2923 82.5605 38.6421 80.5248 38.6421C78.4892 38.6421 76.839 40.2923 76.839 42.3279C76.839 44.3636 78.4892 46.0138 80.5248 46.0138Z" stroke="black" stroke-miterlimit="2.61313" stroke-linecap="round" stroke-linejoin="round"></path>
</mask>
<g mask="url(#mask1_314_445)">
<path fill-rule="evenodd" clip-rule="evenodd" d="M72.4148 44.8726C70.1229 44.5436 75.7326 41.1756 76.0058 40.9804C77.2493 40.0882 78.8999 39.5417 80.6564 39.4525C84.6377 39.2462 86.3162 40.8912 89.1656 43.1217C89.1656 43.1217 88.1117 42.9711 86.963 44.2369C85.8143 45.5027 81.4091 47.0138 77.5783 46.077C73.7475 45.1402 72.4148 44.867 72.4148 44.867V44.8726Z" fill="black" stroke="black" stroke-miterlimit="2.61313" stroke-linecap="round" stroke-linejoin="round"></path>
</g>
<path d="M72.9421 43.4116C72.9421 43.4116 73.6503 44.1477 73.3603 45.0064" stroke="black" stroke-miterlimit="2.61313" stroke-linecap="round" stroke-linejoin="round"></path>
<path d="M72.0811 42.3712C72.0811 42.3712 74.674 37.8433 80.7743 37.782C86.8691 37.7207 89.8914 41.4344 89.8914 41.4344" stroke="black" stroke-miterlimit="2.61313" stroke-linecap="round" stroke-linejoin="round"></path>
<path fill-rule="evenodd" clip-rule="evenodd" d="M71.3341 35.9172C71.3341 35.9172 70.2468 34.5064 73.3862 32.8615C73.3862 32.8615 84.795 29.4767 87.4493 29.8057C90.1036 30.1347 94.269 33.4693 94.269 33.4693C94.269 33.4693 89.6184 31.6849 84.3099 33.0957C78.9958 34.5064 71.875 36.4804 71.3341 35.9116V35.9172Z" stroke="black" stroke-miterlimit="2.61313" stroke-linecap="round" stroke-linejoin="round"></path>
<path d="M62.2251 68.7255C62.2251 68.7255 63.7139 68.7646 64.3217 68.0787C64.9239 67.3928 66.4574 66.7906 67.6674 66.8687" stroke="black" stroke-miterlimit="2.61313" stroke-linecap="round" stroke-linejoin="round"></path>
<path d="M69.3958 63.4863C69.3958 63.4863 71.4088 67.7131 67.2211 68.3989" stroke="black" stroke-miterlimit="2.61313" stroke-linecap="round" stroke-linejoin="round"></path>
<path d="M68.5852 40.7607C68.5852 40.7607 64.9607 43.9838 65.6856 52.8443" stroke="black" stroke-miterlimit="2.61313" stroke-linecap="round" stroke-linejoin="round"></path>
<path d="M62.0098 81.7688C62.0098 81.7688 62.757 81.7298 63.6826 81.345C64.6083 80.9602 69.2421 80.7818 71.4949 81.306C73.7532 81.8301 74.4335 80.5811 76.8536 80.5811" stroke="black" stroke-miterlimit="2.61313" stroke-linecap="round" stroke-linejoin="round"></path>
<path d="M103.976 40.9873C103.976 40.9873 99.1582 61.2456 96.582 71.7957C94.0058 82.3515 93.359 84.1247 87.7215 89.4388C82.0839 94.7585 71.2606 104.745 61.9985 104.745" stroke="black" stroke-miterlimit="2.61313" stroke-linecap="round" stroke-linejoin="round"></path>
<path d="M107.469 38.2119C107.469 38.2119 110.575 38.2509 109.527 42.7621C108.478 47.2732 104.692 53.7974 104.207 58.6319C103.722 63.4665 101.826 64.8884 98.3409 64.5817" stroke="black" stroke-miterlimit="2.61313" stroke-linecap="round" stroke-linejoin="round"></path>
<path d="M106.663 44.9303C106.663 44.9303 106.15 42.7556 105.124 43.4805C104.098 44.2054 101.946 49.9265 101.946 49.9265C101.946 49.9265 103.329 52.8261 102.559 53.7128C101.79 54.5994 100.301 56.4005 100.301 56.4005" stroke="black" stroke-miterlimit="2.61313" stroke-linecap="round" stroke-linejoin="round"></path>
<path d="M62.0031 54.9646C62.4373 54.9646 62.7894 54.6126 62.7894 54.1783C62.7894 53.7441 62.4373 53.3921 62.0031 53.3921C61.5689 53.3921 61.2169 53.7441 61.2169 54.1783C61.2169 54.6126 61.5689 54.9646 62.0031 54.9646Z" fill="#008763" stroke="#008763" stroke-width="2"></path>
<path d="M56.8258 59.4621C57.2601 59.4621 57.6121 59.1101 57.6121 58.6759C57.6121 58.2417 57.2601 57.8896 56.8258 57.8896C56.3916 57.8896 56.0396 58.2417 56.0396 58.6759C56.0396 59.1101 56.3916 59.4621 56.8258 59.4621Z" fill="#008763" stroke="#008763" stroke-width="2"></path>
<path d="M53.2121 55.4065C53.6464 55.4065 53.9984 55.0545 53.9984 54.6202C53.9984 54.186 53.6464 53.834 53.2121 53.834C52.7779 53.834 52.4259 54.186 52.4259 54.6202C52.4259 55.0545 52.7779 55.4065 53.2121 55.4065Z" fill="#008763" stroke="#008763" stroke-width="2"></path>
<path d="M49.0091 58.635C49.4433 58.635 49.7954 58.283 49.7954 57.8487C49.7954 57.4145 49.4433 57.0625 49.0091 57.0625C48.5749 57.0625 48.2229 57.4145 48.2229 57.8487C48.2229 58.283 48.5749 58.635 49.0091 58.635Z" fill="#008763" stroke="#008763" stroke-width="2"></path>
<path d="M45.7011 55.01C46.1353 55.01 46.4874 54.658 46.4874 54.2237C46.4874 53.7895 46.1353 53.4375 45.7011 53.4375C45.2669 53.4375 44.9149 53.7895 44.9149 54.2237C44.9149 54.658 45.2669 55.01 45.7011 55.01Z" fill="#008763" stroke="#008763" stroke-width="2"></path>
<path d="M43.5261 59.9494C43.9603 59.9494 44.3123 59.5974 44.3123 59.1632C44.3123 58.729 43.9603 58.377 43.5261 58.377C43.0919 58.377 42.7399 58.729 42.7399 59.1632C42.7399 59.5974 43.0919 59.9494 43.5261 59.9494Z" fill="#008763" stroke="#008763" stroke-width="2"></path>
<path d="M39.5043 56.3923C39.9385 56.3923 40.2906 56.0403 40.2906 55.6061C40.2906 55.1718 39.9385 54.8198 39.5043 54.8198C39.0701 54.8198 38.7181 55.1718 38.7181 55.6061C38.7181 56.0403 39.0701 56.3923 39.5043 56.3923Z" fill="#008763" stroke="#008763" stroke-width="2"></path>
<path d="M67.1803 59.4621C67.6145 59.4621 67.9665 59.1101 67.9665 58.6759C67.9665 58.2417 67.6145 57.8896 67.1803 57.8896C66.746 57.8896 66.394 58.2417 66.394 58.6759C66.394 59.1101 66.746 59.4621 67.1803 59.4621Z" fill="#008763" stroke="#008763" stroke-width="2"></path>
<path d="M70.783 55.4065C71.2172 55.4065 71.5692 55.0545 71.5692 54.6202C71.5692 54.186 71.2172 53.834 70.783 53.834C70.3487 53.834 69.9967 54.186 69.9967 54.6202C69.9967 55.0545 70.3487 55.4065 70.783 55.4065Z" fill="#008763" stroke="#008763" stroke-width="2"></path>
<path d="M74.9971 58.635C75.4314 58.635 75.7834 58.283 75.7834 57.8487C75.7834 57.4145 75.4314 57.0625 74.9971 57.0625C74.5629 57.0625 74.2109 57.4145 74.2109 57.8487C74.2109 58.283 74.5629 58.635 74.9971 58.635Z" fill="#008763" stroke="#008763" stroke-width="2"></path>
<path d="M78.2939 55.01C78.7281 55.01 79.0801 54.658 79.0801 54.2237C79.0801 53.7895 78.7281 53.4375 78.2939 53.4375C77.8597 53.4375 77.5076 53.7895 77.5076 54.2237C77.5076 54.658 77.8597 55.01 78.2939 55.01Z" fill="#008763" stroke="#008763" stroke-width="2"></path>
<path d="M80.4689 59.9494C80.9031 59.9494 81.2551 59.5974 81.2551 59.1632C81.2551 58.729 80.9031 58.377 80.4689 58.377C80.0347 58.377 79.6827 58.729 79.6827 59.1632C79.6827 59.5974 80.0347 59.9494 80.4689 59.9494Z" fill="#008763" stroke="#008763" stroke-width="2"></path>
<path d="M84.5018 56.3923C84.936 56.3923 85.288 56.0403 85.288 55.6061C85.288 55.1718 84.936 54.8198 84.5018 54.8198C84.0676 54.8198 83.7156 55.1718 83.7156 55.6061C83.7156 56.0403 84.0676 56.3923 84.5018 56.3923Z" fill="#008763" stroke="#008763" stroke-width="2"></path>
</svg>