<svg width="89" height="85" viewbox="0 0 89 85" fill="none" xmlns="http://www.w3.org/2000/svg">
<path d="M32.097 28.0961C32.9035 28.0961 33.5573 27.4423 33.5573 26.6358C33.5573 25.8292 32.9035 25.1754 32.097 25.1754C31.2904 25.1754 30.6366 25.8292 30.6366 26.6358C30.6366 27.4423 31.2904 28.0961 32.097 28.0961Z" fill="#008763"></path>
<path d="M31.094 26.481C31.4051 26.481 31.6573 26.2289 31.6573 25.9178C31.6573 25.6067 31.4051 25.3545 31.094 25.3545C30.7829 25.3545 30.5308 25.6067 30.5308 25.9178C30.5308 26.2289 30.7829 26.481 31.094 26.481Z" fill="white"></path>
<path fill-rule="evenodd" clip-rule="evenodd" d="M37.9251 28.4637C39.5732 28.2238 35.5364 25.8038 35.3487 25.6682C34.4516 25.0319 33.2729 24.6355 32.0107 24.5729C29.1526 24.4269 27.9426 25.6056 25.8981 27.212C25.8981 27.212 26.6595 27.1077 27.4836 28.0152C28.3077 28.9227 31.4787 30.0075 34.2325 29.3399C36.9863 28.6724 37.946 28.4742 37.946 28.4742L37.9251 28.4637Z" stroke="#008763" stroke-miterlimit="2.61313" stroke-linecap="round" stroke-linejoin="round"></path>
<mask id="mask0_1238_1231" style="mask-type:alpha" maskunits="userSpaceOnUse" x="28" y="23" width="8" height="7">
<path d="M32.0974 29.2858C33.5607 29.2858 34.7469 28.0995 34.7469 26.6363C34.7469 25.173 33.5607 23.9868 32.0974 23.9868C30.6341 23.9868 29.4479 25.173 29.4479 26.6363C29.4479 28.0995 30.6341 29.2858 32.0974 29.2858Z" stroke="black" stroke-miterlimit="2.61313" stroke-linecap="round" stroke-linejoin="round"></path>
</mask>
<g mask="url(#mask0_1238_1231)">
<path fill-rule="evenodd" clip-rule="evenodd" d="M37.925 28.4634C39.5731 28.2235 35.5363 25.8035 35.3485 25.6679C34.4515 25.0316 33.2727 24.6352 32.0106 24.5726C29.1525 24.4266 27.9424 25.6053 25.8979 27.2117C25.8979 27.2117 26.6594 27.1074 27.4835 28.0149C28.3075 28.9224 31.4786 30.0072 34.2324 29.3396C36.9862 28.672 37.9459 28.4738 37.9459 28.4738L37.925 28.4634Z" fill="#008763" stroke="#008763" stroke-miterlimit="2.61313" stroke-linecap="round" stroke-linejoin="round"></path>
</g>
<path d="M37.543 27.4188C37.543 27.4188 37.0319 27.9508 37.2405 28.5662" stroke="#008763" stroke-miterlimit="2.61313" stroke-linecap="round" stroke-linejoin="round"></path>
<path d="M38.1598 26.6687C38.1598 26.6687 36.2926 23.4142 31.9116 23.3725C27.5305 23.3308 25.3608 26.0012 25.3608 26.0012" stroke="#008763" stroke-miterlimit="2.61313" stroke-linecap="round" stroke-linejoin="round"></path>
<path fill-rule="evenodd" clip-rule="evenodd" d="M38.7073 22.026C38.7073 22.026 39.4897 21.0141 37.2366 19.8354C37.2366 19.8354 29.0377 17.405 27.1288 17.6449C25.2199 17.8848 22.2262 20.2735 22.2262 20.2735C22.2262 20.2735 25.5642 18.9905 29.3819 20.0023C33.1997 21.0141 38.3214 22.4328 38.7073 22.026V22.026Z" stroke="#008763" stroke-miterlimit="2.61313" stroke-linecap="round" stroke-linejoin="round"></path>
<path d="M45.2519 45.6023C45.2519 45.6023 44.1775 45.6336 43.7499 45.1433C43.3118 44.6531 42.2165 44.215 41.3507 44.2776" stroke="#008763" stroke-miterlimit="2.61313" stroke-linecap="round" stroke-linejoin="round"></path>
<path d="M40.1034 41.8452C40.1034 41.8452 38.6535 44.8806 41.6681 45.3813" stroke="#008763" stroke-miterlimit="2.61313" stroke-linecap="round" stroke-linejoin="round"></path>
<path d="M40.6749 25.5092C40.6749 25.5092 43.2827 27.8249 42.7611 34.1983" stroke="#008763" stroke-miterlimit="2.61313" stroke-linecap="round" stroke-linejoin="round"></path>
<path fill-rule="evenodd" clip-rule="evenodd" d="M45.4128 51.4196C45.4128 51.4196 43.2849 50.3765 41.7828 51.2423C40.2807 52.108 35.9935 54.2569 35.9935 54.2569C35.9935 54.2569 37.9024 60.1087 45.4128 60.1087C52.9232 60.1087 54.8321 54.2569 54.8321 54.2569C54.8321 54.2569 50.5449 52.1185 49.0428 51.2423C47.5408 50.3765 45.4128 51.4196 45.4128 51.4196V51.4196Z" stroke="#008763" stroke-miterlimit="2.61313" stroke-linecap="round" stroke-linejoin="round"></path>
<path d="M45.4086 54.9782C45.4086 54.9782 44.8766 54.9469 44.2091 54.6756C43.5415 54.4044 40.2139 54.2688 38.5971 54.6444C36.9803 55.0199 36.4796 54.1228 34.748 54.1228" stroke="#008763" stroke-miterlimit="2.61313" stroke-linecap="round" stroke-linejoin="round"></path>
<path d="M15.241 25.6761C15.241 25.6761 18.7041 40.2379 20.5504 47.8213C22.4071 55.4048 22.8661 56.6774 26.9134 60.4951C30.9711 64.3129 38.7422 71.5 45.3973 71.5" stroke="#008763" stroke-miterlimit="2.61313" stroke-linecap="round" stroke-linejoin="round"></path>
<path d="M12.7406 23.6733C12.7406 23.6733 10.5084 23.7046 11.2594 26.9487C12.0105 30.1927 14.733 34.8763 15.0772 38.3499C15.4214 41.8234 16.7879 42.8457 19.2914 42.6266" stroke="#008763" stroke-miterlimit="2.61313" stroke-linecap="round" stroke-linejoin="round"></path>
<path d="M13.3114 28.5028C13.3114 28.5028 13.6765 26.9382 14.4171 27.4597C15.1577 27.9813 16.7015 32.0911 16.7015 32.0911C16.7015 32.0911 15.7106 34.1773 16.2634 34.8136C16.8162 35.4499 17.8802 36.7434 17.8802 36.7434" stroke="#008763" stroke-miterlimit="2.61313" stroke-linecap="round" stroke-linejoin="round"></path>
<path d="M58.7196 28.0961C59.5262 28.0961 60.18 27.4423 60.18 26.6358C60.18 25.8292 59.5262 25.1754 58.7196 25.1754C57.9131 25.1754 57.2593 25.8292 57.2593 26.6358C57.2593 27.4423 57.9131 28.0961 58.7196 28.0961Z" fill="#008763"></path>
<path d="M57.7085 26.481C58.0196 26.481 58.2718 26.2289 58.2718 25.9178C58.2718 25.6067 58.0196 25.3545 57.7085 25.3545C57.3975 25.3545 57.1453 25.6067 57.1453 25.9178C57.1453 26.2289 57.3975 26.481 57.7085 26.481Z" fill="white"></path>
<path fill-rule="evenodd" clip-rule="evenodd" d="M52.8829 28.4637C51.2348 28.2238 55.2716 25.8038 55.4594 25.6682C56.3565 25.0319 57.5352 24.6355 58.7973 24.5729C61.6555 24.4269 62.8655 25.6056 64.91 27.212C64.91 27.212 64.1485 27.1077 63.3244 28.0152C62.5004 28.9227 59.3293 30.0075 56.5755 29.3399C53.8217 28.6724 52.8621 28.4742 52.8621 28.4742L52.8829 28.4637Z" stroke="#008763" stroke-miterlimit="2.61313" stroke-linecap="round" stroke-linejoin="round"></path>
<mask id="mask1_1238_1231" style="mask-type:alpha" maskunits="userSpaceOnUse" x="55" y="23" width="7" height="7">
<path d="M58.7202 29.2858C60.1835 29.2858 61.3697 28.0995 61.3697 26.6363C61.3697 25.173 60.1835 23.9868 58.7202 23.9868C57.2569 23.9868 56.0707 25.173 56.0707 26.6363C56.0707 28.0995 57.2569 29.2858 58.7202 29.2858Z" stroke="black" stroke-miterlimit="2.61313" stroke-linecap="round" stroke-linejoin="round"></path>
</mask>
<g mask="url(#mask1_1238_1231)">
<path fill-rule="evenodd" clip-rule="evenodd" d="M52.8829 28.4634C51.2348 28.2235 55.2716 25.8035 55.4594 25.6679C56.3565 25.0316 57.5352 24.6352 58.7973 24.5726C61.6555 24.4266 62.8655 25.6053 64.91 27.2117C64.91 27.2117 64.1485 27.1074 63.3244 28.0149C62.5004 28.9224 59.3293 30.0072 56.5755 29.3396C53.8217 28.672 52.8621 28.4738 52.8621 28.4738L52.8829 28.4634Z" fill="#008763" stroke="#008763" stroke-miterlimit="2.61313" stroke-linecap="round" stroke-linejoin="round"></path>
</g>
<path d="M53.27 27.4188C53.27 27.4188 53.7812 27.9508 53.5725 28.5662" stroke="#008763" stroke-miterlimit="2.61313" stroke-linecap="round" stroke-linejoin="round"></path>
<path d="M52.6431 26.6687C52.6431 26.6687 54.5102 23.4142 58.8913 23.3725C63.2724 23.3308 65.442 26.0012 65.442 26.0012" stroke="#008763" stroke-miterlimit="2.61313" stroke-linecap="round" stroke-linejoin="round"></path>
<path fill-rule="evenodd" clip-rule="evenodd" d="M52.0988 22.026C52.0988 22.026 51.3165 21.0141 53.5696 19.8354C53.5696 19.8354 61.7684 17.405 63.6773 17.6449C65.5862 17.8848 68.5799 20.2735 68.5799 20.2735C68.5799 20.2735 65.242 18.9905 61.4242 20.0023C57.6064 21.0141 52.4848 22.4328 52.0988 22.026V22.026Z" stroke="#008763" stroke-miterlimit="2.61313" stroke-linecap="round" stroke-linejoin="round"></path>
<path d="M45.5599 45.6023C45.5599 45.6023 46.6343 45.6336 47.062 45.1433C47.5001 44.6531 48.5954 44.215 49.4612 44.2776" stroke="#008763" stroke-miterlimit="2.61313" stroke-linecap="round" stroke-linejoin="round"></path>
<path d="M50.7151 41.8452C50.7151 41.8452 52.165 44.8806 49.1504 45.3813" stroke="#008763" stroke-miterlimit="2.61313" stroke-linecap="round" stroke-linejoin="round"></path>
<path d="M50.1331 25.5092C50.1331 25.5092 47.5253 27.8249 48.0469 34.1983" stroke="#008763" stroke-miterlimit="2.61313" stroke-linecap="round" stroke-linejoin="round"></path>
<path d="M45.4053 54.9782C45.4053 54.9782 45.9373 54.9469 46.6049 54.6756C47.2724 54.4044 50.6 54.2688 52.2168 54.6444C53.8336 55.0199 54.3343 54.1228 56.0659 54.1228" stroke="#008763" stroke-miterlimit="2.61313" stroke-linecap="round" stroke-linejoin="round"></path>
<path d="M75.5698 25.6761C75.5698 25.6761 72.1066 40.2379 70.2603 47.8213C68.4036 55.4048 67.9446 56.6774 63.8974 60.4951C59.8397 64.3129 52.0685 71.5 45.4135 71.5" stroke="#008763" stroke-miterlimit="2.61313" stroke-linecap="round" stroke-linejoin="round"></path>
<path d="M78.0741 23.6733C78.0741 23.6733 80.3063 23.7046 79.5553 26.9487C78.8042 30.1927 76.0817 34.8763 75.7375 38.3499C75.3933 41.8234 74.0268 42.8457 71.5233 42.6266" stroke="#008763" stroke-miterlimit="2.61313" stroke-linecap="round" stroke-linejoin="round"></path>
<path d="M77.4924 28.5028C77.4924 28.5028 77.1273 26.9382 76.3867 27.4597C75.6461 27.9813 74.1023 32.0911 74.1023 32.0911C74.1023 32.0911 75.0933 34.1773 74.5404 34.8136C73.9876 35.4499 72.9236 36.7434 72.9236 36.7434" stroke="#008763" stroke-miterlimit="2.61313" stroke-linecap="round" stroke-linejoin="round"></path>
<path fill-rule="evenodd" clip-rule="evenodd" d="M85.5045 60.8032C84.2232 63.5867 81.4458 67.7265 80.6252 67.4895L68.524 60.2123C68.524 60.2123 67.8589 59.8647 68.1716 58.7704L68.5732 57.9546L70.2838 55.1099L71.9945 52.2653L72.5268 51.5281C73.3492 50.735 73.9657 51.1633 73.9657 51.1633L86.3444 58.6074" stroke="#008763" stroke-miterlimit="2.61313"></path>
<path d="M76.4321 56.5146L76.1053 56.3181L76.2764 56.0336L76.2748 56.0274C76.2325 56.0543 76.1863 56.0789 76.1363 56.1012C76.0863 56.1234 76.0347 56.1395 75.9816 56.1495C75.9285 56.1594 75.8701 56.1609 75.8124 56.1524C75.7547 56.1439 75.6978 56.1253 75.6401 56.0907C75.5248 56.0213 75.4618 55.9259 75.4489 55.8082C75.4359 55.6904 75.4737 55.5666 75.5546 55.4321L76.0909 54.5402L76.4331 54.746L75.9083 55.6186C75.8621 55.6955 75.8443 55.7685 75.8535 55.8316C75.8626 55.8947 75.9026 55.9501 75.9679 55.9894C76.0256 56.0241 76.081 56.0365 76.1379 56.0289C76.1948 56.0212 76.2464 56.0051 76.2972 55.9729L76.8751 55.0118L77.2173 55.2176L76.4382 56.513L76.4321 56.5146ZM79.5483 56.5984L79.4945 56.5661L79.5061 56.5469L79.6406 56.6278L79.6291 56.647L79.5752 56.6146L79.4897 56.7569L79.4667 56.743L79.5522 56.6008L79.5483 56.5984ZM79.7165 56.8932L79.7882 56.7741L79.6727 56.8355L79.6612 56.8286L79.6613 56.6978L79.592 56.8131L79.5689 56.7992L79.666 56.6378L79.6852 56.6494L79.6851 56.8063L79.8198 56.7303L79.839 56.7418L79.7419 56.9033L79.7188 56.8894L79.7165 56.8932ZM78.1137 55.7462C78.0576 55.7438 77.9991 55.7453 77.946 55.7553C77.8891 55.7629 77.8337 55.7767 77.7798 55.7966C77.7282 55.8127 77.6828 55.8273 77.6436 55.8403L77.8031 55.5751L77.461 55.3694L77.0148 56.1113L76.6819 56.6648L77.0279 56.8729L77.6128 55.9003C77.6582 55.8857 77.6951 55.8765 77.7336 55.8735C77.7697 55.8743 77.7997 55.8767 77.8228 55.8905C77.8382 55.8998 77.8551 55.9152 77.8758 55.9329C77.8943 55.9544 77.9127 55.976 77.935 55.9999C77.9511 56.0253 77.9672 56.0507 77.9834 56.0761C77.9972 56.1053 78.0072 56.1323 78.0094 56.1546L78.0364 56.1708L78.2675 55.7863C78.2176 55.7563 78.1783 55.7432 78.1222 55.7408L78.1137 55.7462ZM74.9779 55.9908C74.8395 55.9075 74.7019 55.8405 74.5727 55.7942C74.4396 55.7456 74.3189 55.7201 74.2042 55.7192C74.0896 55.7183 73.9834 55.7382 73.8872 55.7851C73.791 55.8319 73.7148 55.9064 73.6501 56.0141L73.5924 55.9794C73.6017 55.964 73.6063 55.9563 73.6063 55.9563C73.6864 55.8318 73.7873 55.7249 73.9028 55.6374C74.0306 55.5467 74.1706 55.4792 74.3184 55.4424C74.4684 55.4018 74.62 55.3934 74.7777 55.4098C74.9354 55.4261 75.0861 55.4801 75.2322 55.5679L74.9756 55.9946L74.9779 55.9908ZM74.1118 55.0983C74.2194 55.163 74.3217 55.1931 74.4286 55.1894C74.5356 55.1857 74.6364 55.1573 74.7395 55.0989C74.8403 55.0444 74.9374 54.9614 75.0321 54.8561C75.1268 54.7508 75.2146 54.6309 75.3002 54.4887C75.3834 54.3503 75.4504 54.2127 75.499 54.0796C75.5476 53.9466 75.5732 53.8258 75.5763 53.7074C75.5772 53.5927 75.5573 53.4866 75.5105 53.3904C75.4637 53.2942 75.3891 53.2179 75.2815 53.1532C75.1739 53.0885 75.0716 53.0584 74.9646 53.0621C74.8577 53.0658 74.7546 53.098 74.6538 53.1526C74.5506 53.2109 74.4559 53.2901 74.3612 53.3954C74.2665 53.5007 74.1786 53.6206 74.0954 53.759C74.0122 53.8974 73.9475 54.0312 73.8989 54.1642C73.8503 54.2972 73.8248 54.418 73.8216 54.5364C73.8207 54.6511 73.8406 54.7572 73.8874 54.8535C73.9342 54.9497 74.0088 55.0259 74.1164 55.0906L74.1118 55.0983ZM74.0025 55.1059C73.8995 55.0335 73.8081 54.9418 73.7374 54.8418C73.6468 54.714 73.5792 54.5739 73.5424 54.4262C73.5056 54.2784 73.4935 54.1245 73.5098 53.9669C73.5261 53.8092 73.5801 53.6585 73.668 53.5124C73.7535 53.3701 73.8613 53.2518 73.9953 53.1596C74.1269 53.0713 74.267 53.0037 74.4185 52.9692C74.5663 52.9325 74.7217 52.9265 74.8771 52.9466C75.0324 52.9668 75.1793 53.0185 75.3139 53.0994C75.4484 53.1803 75.5629 53.2858 75.6536 53.4136C75.7442 53.5414 75.8118 53.6814 75.8486 53.8292C75.8892 53.9792 75.8952 54.1346 75.8789 54.2923C75.8625 54.45 75.8085 54.6007 75.7207 54.7468C75.6352 54.889 75.5274 55.0074 75.3934 55.0996C75.2618 55.1879 75.1217 55.2555 74.9724 55.2861C74.8208 55.3206 74.6693 55.3289 74.5139 55.3087C74.3685 55.2893 74.2317 55.2384 74.1025 55.166C74.1025 55.166 74.0371 55.1267 74.001 55.0997L74.0025 55.1059ZM78.3314 56.5157C78.3723 56.4565 78.4146 56.4035 78.4624 56.3589C78.5062 56.312 78.5532 56.2774 78.6017 56.249C78.6502 56.2206 78.6956 56.206 78.7441 56.2038C78.7925 56.2015 78.8379 56.2131 78.8802 56.2385C78.9494 56.2801 78.9847 56.3433 78.9885 56.424C78.9922 56.5048 78.9244 56.6524 78.8458 56.7831L78.7949 56.8677L78.1919 56.8086C78.212 56.7317 78.2459 56.6579 78.2991 56.5695L78.3314 56.5157ZM78.8728 57.4694C78.8128 57.4908 78.7397 57.4992 78.6635 57.4953C78.5835 57.4891 78.5013 57.4605 78.4167 57.4097C78.3513 57.3704 78.2968 57.3219 78.2507 57.268C78.2046 57.2141 78.1792 57.1517 78.1647 57.0802C78.1517 57.0148 78.1571 56.9448 78.1734 56.8656L79.1726 56.9796C79.1726 56.9796 79.2473 56.8466 79.2252 56.6135C79.2176 56.5304 79.1731 56.4565 79.1285 56.3826C79.0801 56.3064 79.0125 56.2448 78.9279 56.194C78.8472 56.1454 78.7572 56.1122 78.6595 56.1006C78.5619 56.089 78.4649 56.0935 78.368 56.1242C78.2733 56.151 78.1771 56.1978 78.0917 56.2616C78.0039 56.3292 77.9269 56.4137 77.8622 56.5214C77.8067 56.6136 77.7689 56.7113 77.7511 56.8105C77.7333 56.9097 77.734 57.0044 77.7508 57.0982C77.7676 57.1921 77.8052 57.2775 77.8613 57.3584C77.9174 57.4392 77.9927 57.5054 78.0888 57.5632C78.2349 57.651 78.381 57.6866 78.5195 57.6652C78.658 57.6438 78.7835 57.5831 78.8936 57.4871L78.8828 57.4701L78.8728 57.4694Z" fill="#008763"></path>
<path fill-rule="evenodd" clip-rule="evenodd" d="M73.9016 57.746L73.9039 57.7422C73.9309 57.7322 73.9539 57.7199 73.9747 57.7115C73.9917 57.7008 74.0086 57.69 74.0255 57.6792C74.0386 57.6662 74.054 57.6493 74.0671 57.6362C74.0825 57.6193 74.0941 57.6001 74.1103 57.5732L74.4616 56.9889C74.4732 56.9696 74.4786 56.952 74.4817 56.9381C74.4871 56.9204 74.4902 56.9066 74.4894 56.8904C74.4887 56.8743 74.4879 56.8581 74.4833 56.8396C74.4787 56.8212 74.4741 56.8027 74.4657 56.7819L74.468 56.7781L74.6564 56.8914L74.5377 57.8982L75.3637 57.3167L75.5405 57.423L75.5382 57.4269C75.512 57.4269 75.4913 57.4353 75.4728 57.4399C75.4543 57.4445 75.4374 57.4553 75.4228 57.4622C75.4058 57.4729 75.3927 57.486 75.3796 57.499C75.3642 57.516 75.3527 57.5352 75.3388 57.5582L74.9967 58.1272C74.9828 58.1502 74.9713 58.1695 74.9659 58.1871C74.9566 58.2025 74.9512 58.2202 74.9458 58.2379C74.9404 58.2556 74.9373 58.2694 74.9357 58.2894C74.9342 58.3094 74.9326 58.3294 74.9349 58.3517L74.9326 58.3556L74.7212 58.2284L74.7235 58.2246C74.7443 58.2162 74.7612 58.2054 74.7781 58.1946C74.7951 58.1839 74.8059 58.1747 74.8189 58.1616C74.832 58.1485 74.8451 58.1355 74.8544 58.1201C74.8636 58.1047 74.8813 58.084 74.8929 58.0648L75.2859 57.4113L74.4237 58.0181L74.4006 58.0043L74.5232 56.9474L74.141 57.5917C74.1271 57.6147 74.1133 57.6378 74.1056 57.6593C74.0978 57.6809 74.0924 57.6985 74.0909 57.7185C74.0893 57.7385 74.0878 57.7585 74.09 57.7809C74.0923 57.8032 74.0962 57.8316 74.1038 57.8624L74.1015 57.8663L73.9016 57.746ZM75.7034 57.6571C75.6918 57.6763 75.6749 57.687 75.6564 57.6916C75.6379 57.6962 75.6179 57.6947 75.5987 57.6831C75.5795 57.6716 75.5726 57.6569 75.5641 57.6362C75.5595 57.6177 75.5611 57.5977 75.5727 57.5785C75.5842 57.5593 75.5988 57.5523 75.6196 57.5439C75.6381 57.5393 75.6581 57.5409 75.6773 57.5524C75.6965 57.564 75.7034 57.5786 75.7119 57.5994C75.7165 57.6179 75.7149 57.6379 75.7034 57.6571ZM75.0533 58.4334C75.081 58.4134 75.1072 58.3873 75.1295 58.3589C75.1519 58.3304 75.1765 58.2981 75.2043 58.252L75.3499 58.0098C75.3684 57.9791 75.3769 57.9475 75.3792 57.9175C75.3793 57.8914 75.3754 57.8629 75.3708 57.8444L75.3731 57.8406L75.5685 57.8639L75.3004 58.3098C75.2726 58.3559 75.2495 58.3944 75.2372 58.4236C75.2225 58.4566 75.214 58.4882 75.2071 58.5259L75.2048 58.5297L75.051 58.4372L75.0533 58.4334ZM75.923 58.7627C75.8738 58.8012 75.8237 58.8234 75.763 58.8287C75.7022 58.8341 75.643 58.8194 75.5776 58.7801C75.5353 58.7547 75.5015 58.7239 75.4762 58.6877C75.4508 58.6515 75.4316 58.6138 75.4209 58.5707C75.4102 58.5276 75.4117 58.4815 75.4233 58.4361C75.4311 58.3884 75.455 58.3399 75.4827 58.2938C75.5151 58.24 75.5505 58.1985 75.5951 58.1678C75.6398 58.137 75.6837 58.1163 75.7329 58.1041C75.7822 58.0918 75.8306 58.0895 75.8783 58.0973C75.926 58.105 75.9729 58.1228 76.0152 58.1482C76.0575 58.1736 76.0936 58.2006 76.1136 58.2283C76.1359 58.2522 76.152 58.2776 76.1651 58.2907L76.0957 58.4321L76.0818 58.429C76.0819 58.4029 76.078 58.3744 76.0781 58.3483C76.0743 58.3198 76.0681 58.2952 76.0597 58.2744C76.0512 58.2536 76.039 58.2305 76.0244 58.2113C76.0098 58.192 75.9929 58.1766 75.9736 58.1651C75.9083 58.1258 75.8444 58.1188 75.7759 58.1456C75.7075 58.1725 75.6489 58.2263 75.5958 58.3147C75.5449 58.3993 75.5248 58.4762 75.5332 58.5493C75.5416 58.6224 75.5854 58.6801 75.6584 58.724C75.6969 58.7471 75.7361 58.7603 75.7776 58.7695C75.8192 58.7788 75.8638 58.7742 75.9053 58.7573L75.9107 58.7658L75.923 58.7627ZM75.9567 58.9766C75.9736 58.9659 75.9844 58.9567 75.9975 58.9436C76.0106 58.9305 76.0213 58.9213 76.0329 58.9021C76.0421 58.8867 76.0552 58.8737 76.0668 58.8544C76.0784 58.8352 76.0899 58.816 76.1038 58.7929L76.2517 58.5469C76.2725 58.5123 76.281 58.4808 76.2811 58.4546C76.2811 58.4285 76.2773 58.4 76.2727 58.3815L76.275 58.3777L76.4627 58.3963L76.3679 58.5539L76.3756 58.5586C76.4002 58.5524 76.421 58.544 76.4479 58.534C76.4748 58.5241 76.4995 58.5179 76.5279 58.5141C76.5526 58.508 76.5787 58.508 76.6049 58.508C76.631 58.5081 76.6526 58.5158 76.6756 58.5296L76.597 58.6603L76.5932 58.658C76.5917 58.6519 76.5863 58.6434 76.5809 58.6349C76.5755 58.6265 76.5663 58.6157 76.5586 58.6111C76.5494 58.6003 76.5417 58.5957 76.5325 58.5849C76.5248 58.5803 76.5156 58.5695 76.5079 58.5649C76.4964 58.5579 76.4764 58.5564 76.4479 58.5602C76.4194 58.564 76.3886 58.5717 76.3594 58.5855L76.2045 58.843C76.1768 58.8892 76.1537 58.9276 76.1413 58.9568C76.1267 58.9899 76.1182 59.0214 76.1112 59.0591L76.1089 59.063L75.9551 58.9705L75.9574 58.9666L75.9567 58.9766ZM76.6616 59.432C76.6155 59.4043 76.5779 59.3711 76.551 59.3288C76.5241 59.2865 76.5034 59.2426 76.4911 59.1933C76.4788 59.1441 76.4766 59.0956 76.4843 59.0479C76.4882 58.9979 76.506 58.951 76.5337 58.9049C76.5614 58.8588 76.5946 58.8211 76.6369 58.7942C76.6792 58.7673 76.7254 58.7428 76.7723 58.7344C76.8216 58.7221 76.8701 58.7198 76.9201 58.7237C76.9701 58.7276 77.017 58.7454 77.0631 58.7731C77.1092 58.8009 77.1469 58.834 77.1738 58.8763C77.2007 58.9186 77.2214 58.9625 77.2336 59.0118C77.2459 59.061 77.2482 59.1095 77.2404 59.1572C77.2365 59.2072 77.2165 59.2579 77.191 59.3002C77.1633 59.3463 77.1302 59.384 77.0878 59.4109C77.0455 59.4378 77.0016 59.4585 76.9562 59.4731C76.907 59.4853 76.8585 59.4876 76.8085 59.4837C76.7585 59.4798 76.7116 59.462 76.6655 59.4343L76.6616 59.432ZM76.6755 59.4089C76.714 59.432 76.7493 59.4428 76.7855 59.4437C76.8216 59.4445 76.8586 59.4353 76.894 59.4199C76.9294 59.4046 76.9617 59.3769 76.9941 59.3492C77.0249 59.3154 77.0518 59.2793 77.0749 59.2409C77.1004 59.1986 77.1196 59.1578 77.1289 59.1163C77.1443 59.0732 77.1475 59.0332 77.1444 58.9948C77.1414 58.9563 77.1322 58.9193 77.1168 58.8839C77.0992 58.8524 77.073 58.8262 77.0346 58.8031C76.9962 58.78 76.9608 58.7692 76.9246 58.7684C76.8885 58.7676 76.8515 58.7768 76.8138 58.7959C76.7784 58.8113 76.7461 58.839 76.7138 58.8666C76.6829 58.9004 76.6521 58.9343 76.629 58.9727C76.6036 59.015 76.5843 59.0557 76.5712 59.095C76.5558 59.138 76.5527 59.178 76.5557 59.2165C76.5587 59.255 76.5679 59.2919 76.5856 59.3234C76.6033 59.355 76.6294 59.3812 76.6678 59.4043L76.6755 59.4089ZM77.3152 59.7988C77.3359 59.7904 77.3529 59.7796 77.3698 59.7689C77.3868 59.7581 77.3975 59.7489 77.4106 59.7358C77.4237 59.7228 77.4368 59.7097 77.4461 59.6943C77.4553 59.679 77.4707 59.662 77.4846 59.639L77.8244 59.0739C77.8383 59.0508 77.8498 59.0316 77.8552 59.0139C77.8645 58.9985 77.8699 58.9809 77.8753 58.9632C77.8807 58.9455 77.8838 58.9316 77.8853 58.9116C77.8869 58.8916 77.8884 58.8716 77.8862 58.8493L77.8885 58.8455L78.0999 58.9726L78.0976 58.9765C78.0768 58.9849 78.0599 58.9957 78.0429 59.0064C78.026 59.0172 78.0152 59.0264 78.0021 59.0395C77.989 59.0525 77.9759 59.0656 77.9667 59.081C77.9575 59.0963 77.942 59.1132 77.9282 59.1363L77.5884 59.7014C77.5745 59.7245 77.5629 59.7437 77.5575 59.7614C77.5483 59.7767 77.5429 59.7944 77.5375 59.8121C77.5321 59.8298 77.529 59.8437 77.5274 59.8637C77.5259 59.8837 77.5243 59.9037 77.5266 59.926L77.5243 59.9298L77.3129 59.8027L77.3152 59.7988ZM77.7972 60.0939L77.6435 60.0015L77.6458 59.9976C77.6627 59.9869 77.6735 59.9777 77.6866 59.9646C77.6997 59.9515 77.7104 59.9423 77.722 59.9231C77.7312 59.9077 77.7443 59.8946 77.7559 59.8754C77.7674 59.8562 77.779 59.837 77.7929 59.8139L77.9408 59.5679C77.9616 59.5333 77.9701 59.5018 77.9702 59.4756C77.9702 59.4495 77.9664 59.421 77.9618 59.4025L77.9641 59.3987L78.1518 59.4173L78.0778 59.5403L78.0816 59.5426C78.1355 59.5227 78.1863 59.5166 78.2363 59.5205C78.2863 59.5244 78.3317 59.536 78.3778 59.5637C78.4393 59.6007 78.4762 59.6438 78.4861 59.6969C78.4961 59.75 78.4837 59.8054 78.449 59.863L78.2988 60.1129C78.2849 60.136 78.271 60.159 78.2618 60.1744C78.2502 60.1936 78.241 60.209 78.2356 60.2267C78.2263 60.2421 78.2209 60.2598 78.2155 60.2774C78.2101 60.2951 78.207 60.309 78.2055 60.329L78.2032 60.3328L78.0494 60.2404L78.0517 60.2365C78.0794 60.2165 78.1056 60.1904 78.1279 60.162C78.1503 60.1335 78.1711 60.0989 78.1988 60.0528L78.3352 59.826C78.3468 59.8068 78.3545 59.7852 78.3622 59.7637C78.3699 59.7422 78.3715 59.7222 78.3669 59.7037C78.3646 59.6814 78.3577 59.6668 78.3431 59.6475C78.3285 59.6283 78.3116 59.6129 78.2885 59.599C78.2578 59.5805 78.2224 59.5697 78.1847 59.5627C78.147 59.5558 78.1047 59.5565 78.0654 59.5696L77.8851 59.8694C77.8574 59.9155 77.8343 59.954 77.8219 59.9832C77.8073 60.0162 77.7988 60.0478 77.7918 60.0855L77.7895 60.0893L77.7972 60.0939ZM78.3492 60.4207C78.3723 60.4084 78.3916 60.3938 78.4116 60.3692C78.4316 60.3446 78.4586 60.3085 78.4886 60.2585L78.7383 59.8433L78.6576 59.7948L78.6714 59.7717L78.7522 59.8203L78.8192 59.7088C78.8469 59.6626 78.8739 59.6265 78.9062 59.5989C78.9386 59.5712 78.9725 59.5497 79.0055 59.5382C79.0386 59.5267 79.0733 59.5213 79.1094 59.5221C79.1433 59.5268 79.1786 59.5376 79.2094 59.5561C79.2286 59.5676 79.2455 59.583 79.2586 59.5961C79.2716 59.6092 79.2809 59.62 79.2862 59.6285L79.23 59.7569L79.22 59.7561C79.2215 59.7361 79.2169 59.7176 79.2146 59.6953C79.2123 59.673 79.2116 59.6569 79.207 59.6384C79.2024 59.6199 79.1955 59.6053 79.1924 59.593C79.1855 59.5784 79.1763 59.5676 79.1648 59.5607C79.1379 59.5445 79.1055 59.546 79.0655 59.569C79.0255 59.5921 78.9877 59.6374 78.9461 59.7066L78.8444 59.8757L78.9982 59.9682L78.9843 59.9913L78.8306 59.8988L78.5809 60.314C78.5508 60.3639 78.5316 60.4047 78.5192 60.4339C78.5069 60.4631 78.503 60.487 78.503 60.5131L78.5007 60.517L78.3431 60.4222L78.3454 60.4184L78.3492 60.4207ZM79.1836 60.7654C79.1605 60.7776 79.1358 60.7838 79.1151 60.7922C79.0904 60.7984 79.0658 60.8045 79.0412 60.8106C79.0189 60.8129 78.9927 60.8129 78.965 60.8067C78.9374 60.8005 78.912 60.7905 78.8851 60.7743C78.8274 60.7396 78.7967 60.695 78.7906 60.6442C78.7845 60.5934 78.7991 60.5342 78.8361 60.4727L79.0326 60.1459C79.0488 60.119 79.0588 60.0937 79.0566 60.0713C79.0566 60.0452 79.052 60.0267 79.0435 60.0059L79.0459 60.0021L79.1958 60.0923L78.9438 60.5113C78.886 60.6074 78.8982 60.6828 78.9828 60.7336C79.0212 60.7567 79.0566 60.7675 79.0928 60.7684C79.1289 60.7692 79.1597 60.7615 79.189 60.7477L79.4109 60.3786C79.4409 60.3287 79.4425 60.2825 79.4203 60.2325L79.4226 60.2286L79.5763 60.3211L79.3105 60.7632C79.2943 60.7901 79.2804 60.8132 79.275 60.8308C79.2696 60.8485 79.2604 60.8639 79.2611 60.8801C79.2581 60.8939 79.2611 60.9062 79.2642 60.9185C79.2672 60.9308 79.2726 60.9393 79.2795 60.9539L79.2772 60.9578L79.1057 60.9122L79.1866 60.7777L79.1836 60.7654ZM80.0167 60.7639L80.0067 60.7631C80.0098 60.697 79.9999 60.6439 79.9807 60.6061C79.9615 60.5684 79.9354 60.5423 79.9046 60.5238C79.8662 60.5006 79.8285 60.4937 79.7939 60.499C79.7592 60.5044 79.7315 60.5244 79.713 60.5551C79.7015 60.5743 79.6938 60.5959 79.6984 60.6143C79.6968 60.6343 79.7052 60.6551 79.716 60.672C79.7244 60.6928 79.739 60.7121 79.7513 60.7352C79.7659 60.7544 79.7844 60.776 79.8005 60.8014C79.8189 60.8229 79.8351 60.8483 79.8512 60.8737C79.8673 60.8991 79.8796 60.9222 79.8857 60.9468C79.8957 60.9738 79.8957 60.9999 79.8933 61.0299C79.891 61.0599 79.8787 61.0892 79.8602 61.1199C79.8232 61.1814 79.7747 61.2098 79.7116 61.219C79.6508 61.2243 79.5839 61.205 79.5109 61.1611C79.4724 61.138 79.4402 61.1133 79.414 61.0872C79.3879 61.061 79.3656 61.0371 79.3495 61.0117L79.4281 60.8548L79.4381 60.8556C79.4303 60.9295 79.4357 60.9902 79.4525 61.0318C79.4671 61.0772 79.4986 61.1119 79.5447 61.1396C79.5909 61.1673 79.6363 61.1789 79.6755 61.1659C79.7147 61.1528 79.7425 61.1329 79.761 61.1021C79.7725 61.0829 79.7779 61.0652 79.7795 61.0452C79.781 61.0252 79.7764 61.0067 79.7718 60.9883C79.7634 60.9675 79.755 60.9467 79.7404 60.9275C79.7258 60.9082 79.7112 60.889 79.695 60.8636C79.6766 60.842 79.6643 60.8189 79.6459 60.7974C79.6297 60.772 79.6175 60.7489 79.6075 60.7219C79.5975 60.695 79.5937 60.6665 79.5937 60.6404C79.596 60.6104 79.6022 60.5827 79.6207 60.5519C79.6392 60.5212 79.6631 60.4989 79.6885 60.4828C79.7139 60.4666 79.7424 60.4628 79.7708 60.459C79.7993 60.4552 79.8308 60.4637 79.8562 60.4737C79.8854 60.486 79.9146 60.4984 79.9416 60.5146C79.9685 60.5307 79.9969 60.5531 80.0215 60.5731C80.0461 60.5931 80.0645 60.6147 80.0791 60.6339L80.0144 60.7677L80.0167 60.7639ZM80.5062 60.5505C80.4946 60.5697 80.4777 60.5805 80.4592 60.5851C80.4407 60.5897 80.4207 60.5881 80.4015 60.5766C80.3823 60.565 80.3754 60.5504 80.3669 60.5296C80.3624 60.5111 80.3639 60.4911 80.3755 60.4719C80.387 60.4527 80.4017 60.4458 80.4224 60.4373C80.4409 60.4328 80.4609 60.4343 80.4801 60.4459C80.4993 60.4574 80.5062 60.472 80.5147 60.4928C80.5193 60.5113 80.5177 60.5313 80.5062 60.5505ZM79.8561 61.3268C79.8838 61.3069 79.91 61.2807 79.9324 61.2523C79.9547 61.2239 79.9793 61.1916 80.0071 61.1454L80.1527 60.9033C80.1712 60.8725 80.1797 60.841 80.182 60.811C80.1821 60.7848 80.1782 60.7564 80.1737 60.7379L80.176 60.734L80.3713 60.7573L80.1032 61.2032C80.0754 61.2494 80.0523 61.2878 80.04 61.317C80.0253 61.3501 80.0168 61.3816 80.0099 61.4193L80.0076 61.4232L79.8538 61.3307L79.8561 61.3268ZM80.4189 61.6967C80.3727 61.6689 80.3351 61.6358 80.3082 61.5935C80.2813 61.5511 80.2606 61.5073 80.2483 61.458C80.2361 61.4088 80.2338 61.3603 80.2415 61.3126C80.2454 61.2626 80.2632 61.2157 80.2909 61.1696C80.3187 61.1234 80.3518 61.0858 80.3941 61.0589C80.4365 61.032 80.4826 61.0074 80.5296 60.999C80.5788 60.9868 80.6273 60.9845 80.6773 60.9884C80.7273 60.9923 80.7742 61.01 80.8203 61.0378C80.8664 61.0655 80.9041 61.0986 80.931 61.141C80.9579 61.1833 80.9786 61.2272 80.9909 61.2764C81.0031 61.3257 81.0054 61.3741 80.9976 61.4218C80.9937 61.4718 80.9737 61.5226 80.9483 61.5649C80.9205 61.611 80.8874 61.6487 80.8451 61.6755C80.8027 61.7024 80.7589 61.7232 80.7135 61.7377C80.6642 61.75 80.6157 61.7522 80.5657 61.7483C80.5157 61.7444 80.4688 61.7267 80.4227 61.699L80.4189 61.6967ZM80.4327 61.6736C80.4712 61.6967 80.5066 61.7075 80.5427 61.7083C80.5789 61.7091 80.6158 61.6999 80.6512 61.6846C80.6866 61.6692 80.7189 61.6416 80.7513 61.6139C80.7821 61.5801 80.809 61.544 80.8322 61.5055C80.8576 61.4632 80.8769 61.4225 80.8861 61.3809C80.9016 61.3379 80.9047 61.2979 80.9016 61.2594C80.8986 61.221 80.8894 61.184 80.8741 61.1486C80.8564 61.1171 80.8303 61.0909 80.7918 61.0678C80.7534 61.0446 80.718 61.0338 80.6819 61.033C80.6457 61.0322 80.6088 61.0414 80.571 61.0606C80.5356 61.076 80.5033 61.1036 80.471 61.1313C80.4402 61.1651 80.4094 61.1989 80.3862 61.2374C80.3608 61.2796 80.3415 61.3204 80.3284 61.3596C80.313 61.4027 80.3099 61.4427 80.3129 61.4812C80.316 61.5196 80.3252 61.5566 80.3428 61.5881C80.3605 61.6197 80.3866 61.6459 80.425 61.669L80.4327 61.6736ZM81.0186 62.0311L80.8648 61.9387L80.8671 61.9348C80.8841 61.9241 80.8948 61.9148 80.9079 61.9018C80.921 61.8887 80.9318 61.8795 80.9434 61.8603C80.9526 61.8449 80.9657 61.8318 80.9772 61.8126C80.9888 61.7934 81.0004 61.7742 81.0142 61.7511L81.1622 61.5051C81.183 61.4705 81.1915 61.439 81.1915 61.4128C81.1915 61.3866 81.1877 61.3582 81.1831 61.3397L81.1854 61.3359L81.3731 61.3545L81.2991 61.4775L81.303 61.4798C81.3569 61.4599 81.4076 61.4538 81.4576 61.4577C81.5076 61.4616 81.553 61.4732 81.5991 61.5009C81.6606 61.5379 81.6975 61.581 81.7075 61.6341C81.7174 61.6872 81.7051 61.7426 81.6704 61.8002L81.5201 62.0501C81.5063 62.0732 81.4924 62.0962 81.4831 62.1116C81.4716 62.1308 81.4623 62.1462 81.4569 62.1639C81.4477 62.1793 81.4423 62.1969 81.4369 62.2146C81.4315 62.2323 81.4284 62.2462 81.4268 62.2662L81.4245 62.27L81.2707 62.1775L81.2731 62.1737C81.3008 62.1537 81.327 62.1276 81.3493 62.0992C81.3716 62.0707 81.3924 62.0361 81.4202 61.99L81.5566 61.7632C81.5681 61.744 81.5758 61.7224 81.5836 61.7009C81.5913 61.6794 81.5928 61.6594 81.5882 61.6409C81.5859 61.6186 81.579 61.604 81.5644 61.5847C81.5498 61.5655 81.5329 61.5501 81.5099 61.5362C81.4791 61.5177 81.4437 61.5069 81.406 61.4999C81.3684 61.493 81.326 61.4937 81.2868 61.5067L81.1065 61.8066C81.0788 61.8527 81.0556 61.8912 81.0433 61.9204C81.0286 61.9534 81.0202 61.985 81.0132 62.0227L81.0109 62.0265L81.0186 62.0311Z" fill="#008763"></path>
<path d="M78.8585 58.0418L83.7444 60.9799" stroke="#008763" stroke-width="0.6"></path>
<path d="M79.6451 59.9019L81.797 55.7621" stroke="#008763" stroke-width="0.6"></path>
<path fill-rule="evenodd" clip-rule="evenodd" d="M64.7183 57.8977L67.5668 59.6106L70.2761 55.1053L72.9854 50.6L70.1369 48.8871C69.6796 49.282 67.2662 53.2953 67.2662 53.2953C67.2662 53.2953 64.8528 57.3085 64.7183 57.8977Z" fill="white" stroke="#008763" stroke-miterlimit="2.61313"></path>
<path fill-rule="evenodd" clip-rule="evenodd" d="M65.0653 57.1379C64.4041 56.7403 63.4138 56.2024 62.5428 55.553C61.4036 54.7057 60.4677 53.677 60.7173 52.5395L62.1135 50.2176L63.5098 47.8958C65.0828 46.5596 68.0878 48.665 69.61 49.5804C68.7495 50.8374 67.27 53.2976 67.27 53.2976L67.2608 53.313C67.1406 53.5129 65.7366 55.8562 65.0653 57.1379Z" stroke="#008763" stroke-miterlimit="2.61313"></path>
<path d="M63.6329 56.2819C64.6284 53.965 66.5956 50.6937 68.1731 48.732" stroke="#008763" stroke-miterlimit="2.61313"></path>
<path d="M59.8228 52.4254L64.1358 55.0191" stroke="#008763" stroke-miterlimit="2.61313" stroke-linecap="round" stroke-linejoin="round"></path>
<path d="M60.4561 51.3722L64.7691 53.9659" stroke="#008763" stroke-miterlimit="2.61313" stroke-linecap="round" stroke-linejoin="round"></path>
<path d="M61.0919 50.3151L65.405 52.9088" stroke="#008763" stroke-miterlimit="2.61313" stroke-linecap="round" stroke-linejoin="round"></path>
<path d="M61.7274 49.258L66.0405 51.8517" stroke="#008763" stroke-miterlimit="2.61313" stroke-linecap="round" stroke-linejoin="round"></path>
<path d="M62.3632 48.2008L66.6762 50.7945" stroke="#008763" stroke-miterlimit="2.61313" stroke-linecap="round" stroke-linejoin="round"></path>
<path d="M62.9966 47.1475L67.3097 49.7412" stroke="#008763" stroke-miterlimit="2.61313" stroke-linecap="round" stroke-linejoin="round"></path>
</svg>