<svg width="89" height="85" viewbox="0 0 89 85" fill="none" xmlns="http://www.w3.org/2000/svg">
<path d="M32.097 28.0961C32.9035 28.0961 33.5573 27.4423 33.5573 26.6358C33.5573 25.8292 32.9035 25.1754 32.097 25.1754C31.2904 25.1754 30.6366 25.8292 30.6366 26.6358C30.6366 27.4423 31.2904 28.0961 32.097 28.0961Z" fill="#008763"></path>
<path d="M31.094 26.4811C31.4051 26.4811 31.6573 26.2289 31.6573 25.9178C31.6573 25.6067 31.4051 25.3545 31.094 25.3545C30.7829 25.3545 30.5308 25.6067 30.5308 25.9178C30.5308 26.2289 30.7829 26.4811 31.094 26.4811Z" fill="white"></path>
<path fill-rule="evenodd" clip-rule="evenodd" d="M37.9251 28.4637C39.5732 28.2238 35.5364 25.8038 35.3487 25.6682C34.4516 25.0319 33.2729 24.6355 32.0107 24.5729C29.1526 24.4269 27.9426 25.6056 25.8981 27.212C25.8981 27.212 26.6595 27.1077 27.4836 28.0152C28.3077 28.9227 31.4787 30.0075 34.2325 29.3399C36.9863 28.6724 37.946 28.4742 37.946 28.4742L37.9251 28.4637Z" stroke="#008763" stroke-miterlimit="2.61313" stroke-linecap="round" stroke-linejoin="round"></path>
<mask id="mask0_1238_1339" style="mask-type:alpha" maskunits="userSpaceOnUse" x="28" y="23" width="8" height="7">
<path d="M32.0975 29.2857C33.5608 29.2857 34.747 28.0995 34.747 26.6362C34.747 25.173 33.5608 23.9867 32.0975 23.9867C30.6342 23.9867 29.448 25.173 29.448 26.6362C29.448 28.0995 30.6342 29.2857 32.0975 29.2857Z" stroke="black" stroke-miterlimit="2.61313" stroke-linecap="round" stroke-linejoin="round"></path>
</mask>
<g mask="url(#mask0_1238_1339)">
<path fill-rule="evenodd" clip-rule="evenodd" d="M37.9251 28.4634C39.5732 28.2234 35.5364 25.8034 35.3487 25.6678C34.4516 25.0315 33.2729 24.6351 32.0107 24.5726C29.1526 24.4265 27.9426 25.6052 25.8981 27.2116C25.8981 27.2116 26.6595 27.1073 27.4836 28.0148C28.3077 28.9223 31.4787 30.0072 34.2325 29.3396C36.9863 28.672 37.946 28.4738 37.946 28.4738L37.9251 28.4634Z" fill="#008763" stroke="#008763" stroke-miterlimit="2.61313" stroke-linecap="round" stroke-linejoin="round"></path>
</g>
<path d="M37.5431 27.4188C37.5431 27.4188 37.032 27.9508 37.2406 28.5662" stroke="#008763" stroke-miterlimit="2.61313" stroke-linecap="round" stroke-linejoin="round"></path>
<path d="M38.1598 26.6687C38.1598 26.6687 36.2926 23.4142 31.9116 23.3725C27.5305 23.3308 25.3608 26.0012 25.3608 26.0012" stroke="#008763" stroke-miterlimit="2.61313" stroke-linecap="round" stroke-linejoin="round"></path>
<path fill-rule="evenodd" clip-rule="evenodd" d="M38.7075 22.026C38.7075 22.026 39.4898 21.0141 37.2367 19.8354C37.2367 19.8354 29.0378 17.405 27.1289 17.6449C25.22 17.8848 22.2263 20.2735 22.2263 20.2735C22.2263 20.2735 25.5643 18.9905 29.3821 20.0023C33.1998 21.0141 38.3215 22.4328 38.7075 22.026V22.026Z" stroke="#008763" stroke-miterlimit="2.61313" stroke-linecap="round" stroke-linejoin="round"></path>
<path d="M45.2521 45.6023C45.2521 45.6023 44.1777 45.6336 43.75 45.1433C43.3119 44.6531 42.2166 44.215 41.3508 44.2776" stroke="#008763" stroke-miterlimit="2.61313" stroke-linecap="round" stroke-linejoin="round"></path>
<path d="M40.1036 41.8451C40.1036 41.8451 38.6536 44.8806 41.6682 45.3813" stroke="#008763" stroke-miterlimit="2.61313" stroke-linecap="round" stroke-linejoin="round"></path>
<path d="M40.6749 25.5092C40.6749 25.5092 43.2827 27.8249 42.7611 34.1983" stroke="#008763" stroke-miterlimit="2.61313" stroke-linecap="round" stroke-linejoin="round"></path>
<path fill-rule="evenodd" clip-rule="evenodd" d="M45.4129 51.4196C45.4129 51.4196 43.285 50.3765 41.7829 51.2423C40.2808 52.108 35.9937 54.2568 35.9937 54.2568C35.9937 54.2568 37.9025 60.1087 45.4129 60.1087C52.9233 60.1087 54.8322 54.2568 54.8322 54.2568C54.8322 54.2568 50.545 52.1185 49.043 51.2423C47.5409 50.3765 45.4129 51.4196 45.4129 51.4196V51.4196Z" stroke="#008763" stroke-miterlimit="2.61313" stroke-linecap="round" stroke-linejoin="round"></path>
<path d="M45.4086 54.9782C45.4086 54.9782 44.8766 54.9469 44.2091 54.6756C43.5415 54.4044 40.2139 54.2688 38.5971 54.6444C36.9803 55.0199 36.4796 54.1228 34.748 54.1228" stroke="#008763" stroke-miterlimit="2.61313" stroke-linecap="round" stroke-linejoin="round"></path>
<path d="M15.241 25.6761C15.241 25.6761 18.7041 40.238 20.5504 47.8214C22.4071 55.4048 22.8661 56.6774 26.9134 60.4952C30.9711 64.3129 38.7422 71.5 45.3973 71.5" stroke="#008763" stroke-miterlimit="2.61313" stroke-linecap="round" stroke-linejoin="round"></path>
<path d="M58.7196 28.0961C59.5262 28.0961 60.18 27.4423 60.18 26.6358C60.18 25.8292 59.5262 25.1754 58.7196 25.1754C57.9131 25.1754 57.2593 25.8292 57.2593 26.6358C57.2593 27.4423 57.9131 28.0961 58.7196 28.0961Z" fill="#008763"></path>
<path d="M57.7085 26.4811C58.0196 26.4811 58.2718 26.2289 58.2718 25.9178C58.2718 25.6067 58.0196 25.3545 57.7085 25.3545C57.3975 25.3545 57.1453 25.6067 57.1453 25.9178C57.1453 26.2289 57.3975 26.4811 57.7085 26.4811Z" fill="white"></path>
<path fill-rule="evenodd" clip-rule="evenodd" d="M52.8829 28.4637C51.2348 28.2238 55.2716 25.8038 55.4594 25.6682C56.3565 25.0319 57.5352 24.6355 58.7973 24.5729C61.6555 24.4269 62.8655 25.6056 64.91 27.212C64.91 27.212 64.1485 27.1077 63.3244 28.0152C62.5004 28.9227 59.3293 30.0075 56.5755 29.3399C53.8217 28.6724 52.8621 28.4742 52.8621 28.4742L52.8829 28.4637Z" stroke="#008763" stroke-miterlimit="2.61313" stroke-linecap="round" stroke-linejoin="round"></path>
<mask id="mask1_1238_1339" style="mask-type:alpha" maskunits="userSpaceOnUse" x="55" y="23" width="7" height="7">
<path d="M58.7202 29.2857C60.1835 29.2857 61.3697 28.0995 61.3697 26.6362C61.3697 25.173 60.1835 23.9867 58.7202 23.9867C57.2569 23.9867 56.0707 25.173 56.0707 26.6362C56.0707 28.0995 57.2569 29.2857 58.7202 29.2857Z" stroke="black" stroke-miterlimit="2.61313" stroke-linecap="round" stroke-linejoin="round"></path>
</mask>
<g mask="url(#mask1_1238_1339)">
<path fill-rule="evenodd" clip-rule="evenodd" d="M52.8829 28.4634C51.2348 28.2234 55.2716 25.8034 55.4594 25.6678C56.3565 25.0315 57.5352 24.6351 58.7973 24.5726C61.6555 24.4265 62.8655 25.6052 64.91 27.2116C64.91 27.2116 64.1485 27.1073 63.3244 28.0148C62.5004 28.9223 59.3293 30.0072 56.5755 29.3396C53.8217 28.672 52.8621 28.4738 52.8621 28.4738L52.8829 28.4634Z" fill="#008763" stroke="#008763" stroke-miterlimit="2.61313" stroke-linecap="round" stroke-linejoin="round"></path>
</g>
<path d="M53.27 27.4188C53.27 27.4188 53.7812 27.9508 53.5725 28.5662" stroke="#008763" stroke-miterlimit="2.61313" stroke-linecap="round" stroke-linejoin="round"></path>
<path d="M52.6431 26.6687C52.6431 26.6687 54.5102 23.4142 58.8913 23.3725C63.2724 23.3308 65.442 26.0012 65.442 26.0012" stroke="#008763" stroke-miterlimit="2.61313" stroke-linecap="round" stroke-linejoin="round"></path>
<path fill-rule="evenodd" clip-rule="evenodd" d="M52.0988 22.026C52.0988 22.026 51.3165 21.0141 53.5696 19.8354C53.5696 19.8354 61.7684 17.405 63.6773 17.6449C65.5862 17.8848 68.5799 20.2735 68.5799 20.2735C68.5799 20.2735 65.242 18.9905 61.4242 20.0023C57.6064 21.0141 52.4848 22.4328 52.0988 22.026V22.026Z" stroke="#008763" stroke-miterlimit="2.61313" stroke-linecap="round" stroke-linejoin="round"></path>
<path d="M45.5599 45.6023C45.5599 45.6023 46.6343 45.6336 47.062 45.1433C47.5001 44.6531 48.5954 44.215 49.4612 44.2776" stroke="#008763" stroke-miterlimit="2.61313" stroke-linecap="round" stroke-linejoin="round"></path>
<path d="M50.7151 41.8451C50.7151 41.8451 52.165 44.8806 49.1504 45.3813" stroke="#008763" stroke-miterlimit="2.61313" stroke-linecap="round" stroke-linejoin="round"></path>
<path d="M50.1331 25.5092C50.1331 25.5092 47.5253 27.8249 48.0469 34.1983" stroke="#008763" stroke-miterlimit="2.61313" stroke-linecap="round" stroke-linejoin="round"></path>
<path d="M45.4053 54.9782C45.4053 54.9782 45.9373 54.9469 46.6049 54.6756C47.2724 54.4044 50.6 54.2688 52.2168 54.6444C53.8336 55.0199 54.3343 54.1228 56.0659 54.1228" stroke="#008763" stroke-miterlimit="2.61313" stroke-linecap="round" stroke-linejoin="round"></path>
<path d="M75.5698 25.6761C75.5698 25.6761 72.1066 40.238 70.2603 47.8214C68.4036 55.4048 67.9446 56.6774 63.8974 60.4952C59.8397 64.3129 52.0685 71.5 45.4135 71.5" stroke="#008763" stroke-miterlimit="2.61313" stroke-linecap="round" stroke-linejoin="round"></path>
<path d="M78.0741 23.6733C78.0741 23.6733 80.3063 23.7046 79.5553 26.9487C78.8042 30.1928 76.0817 34.8763 75.7375 38.3499C75.3933 41.8234 74.0268 42.8457 71.5233 42.6266" stroke="#008763" stroke-miterlimit="2.61313" stroke-linecap="round" stroke-linejoin="round"></path>
<path d="M77.4924 28.5028C77.4924 28.5028 77.1273 26.9382 76.3867 27.4597C75.6461 27.9813 74.1023 32.0911 74.1023 32.0911C74.1023 32.0911 75.0933 34.1773 74.5404 34.8136C73.9876 35.4499 72.9236 36.7434 72.9236 36.7434" stroke="#008763" stroke-miterlimit="2.61313" stroke-linecap="round" stroke-linejoin="round"></path>
<path d="M7.95588 23.3847L15.2576 16.083L18.4399 19.2653L11.1382 26.567L7.95588 23.3847Z" stroke="#008763" stroke-miterlimit="2.61313" stroke-linecap="round" stroke-linejoin="round"></path>
<path fill-rule="evenodd" clip-rule="evenodd" d="M6.67037 14.798C5.58512 15.8833 5.67891 17.7457 6.87135 18.9381L9.63807 21.7048L13.5771 17.7657L10.8104 14.999C9.61798 13.8066 7.75563 13.7195 6.67037 14.798Z" stroke="#008763" stroke-miterlimit="2.61313" stroke-linecap="round" stroke-linejoin="round"></path>
<path fill-rule="evenodd" clip-rule="evenodd" d="M23.2707 32.8925L23.9942 33.616C24.1818 33.8036 24.4498 33.8304 24.5971 33.683L25.5551 32.7251C25.7025 32.5777 25.669 32.303 25.4881 32.1221L24.7646 31.3986C24.7579 30.8493 24.5101 30.2531 24.0411 29.7775L15.9821 21.7184L13.5905 24.11L21.6495 32.169C22.1252 32.6447 22.7214 32.8925 23.2707 32.8925V32.8925Z" stroke="#008763" stroke-miterlimit="2.61313" stroke-linecap="round" stroke-linejoin="round"></path>
<path fill-rule="evenodd" clip-rule="evenodd" d="M23.418 41.7152C23.4113 41.7688 23.4113 41.8291 23.4113 41.8827C23.4113 43.2426 24.5166 44.3479 25.8765 44.3479C27.2364 44.3479 28.3418 43.2426 28.3418 41.8827C28.3418 41.8224 28.3418 41.7688 28.3351 41.7152C28.3351 41.7152 28.4959 40.6567 25.8765 36.8382C23.2639 40.6366 23.418 41.7018 23.418 41.7152Z" stroke="#008763" stroke-miterlimit="2.61313" stroke-linecap="round" stroke-linejoin="round"></path>
</svg>