<svg width="124" height="124" viewbox="0 0 124 124" fill="none" xmlns="http://www.w3.org/2000/svg">
<g clip-path="url(#clip0_314_389)">
<path d="M44.9529 44.2418C46.0752 44.2418 46.985 43.3321 46.985 42.2098C46.985 41.0875 46.0752 40.1777 44.9529 40.1777C43.8307 40.1777 42.9209 41.0875 42.9209 42.2098C42.9209 43.3321 43.8307 44.2418 44.9529 44.2418Z" fill="black"></path>
<path d="M43.5575 41.9943C43.9903 41.9943 44.3413 41.6434 44.3413 41.2105C44.3413 40.7777 43.9903 40.4268 43.5575 40.4268C43.1246 40.4268 42.7737 40.7777 42.7737 41.2105C42.7737 41.6434 43.1246 41.9943 43.5575 41.9943Z" fill="white"></path>
<path fill-rule="evenodd" clip-rule="evenodd" d="M53.0629 44.7532C55.3562 44.4194 49.739 41.052 49.4778 40.8633C48.2295 39.9779 46.5894 39.4264 44.8331 39.3393C40.8561 39.1361 39.1724 40.7762 36.3275 43.0115C36.3275 43.0115 37.3871 42.8663 38.5338 44.1291C39.6804 45.3919 44.0929 46.9014 47.9247 45.9725C51.7566 45.0435 53.0919 44.7678 53.0919 44.7678L53.0629 44.7532Z" stroke="black" stroke-miterlimit="2.61313" stroke-linecap="round" stroke-linejoin="round"></path>
<mask id="mask0_314_389" style="mask-type:alpha" maskunits="userSpaceOnUse" x="40" y="38" width="10" height="9">
<path d="M44.9538 45.8969C46.9899 45.8969 48.6405 44.2463 48.6405 42.2101C48.6405 40.174 46.9899 38.5234 44.9538 38.5234C42.9177 38.5234 41.2671 40.174 41.2671 42.2101C41.2671 44.2463 42.9177 45.8969 44.9538 45.8969Z" stroke="black" stroke-miterlimit="2.61313" stroke-linecap="round" stroke-linejoin="round"></path>
</mask>
<g mask="url(#mask0_314_389)">
<path fill-rule="evenodd" clip-rule="evenodd" d="M53.0628 44.7527C55.3561 44.4189 49.739 41.0515 49.4777 40.8628C48.2294 39.9774 46.5893 39.4259 44.833 39.3388C40.856 39.1356 39.1723 40.7757 36.3275 43.011C36.3275 43.011 37.387 42.8658 38.5337 44.1286C39.6803 45.3914 44.0928 46.9009 47.9246 45.972C51.7565 45.043 53.0918 44.7673 53.0918 44.7673L53.0628 44.7527Z" fill="black" stroke="black" stroke-miterlimit="2.61313" stroke-linecap="round" stroke-linejoin="round"></path>
</g>
<path d="M52.5312 43.2983C52.5312 43.2983 51.82 44.0386 52.1103 44.895" stroke="black" stroke-miterlimit="2.61313" stroke-linecap="round" stroke-linejoin="round"></path>
<path d="M53.3894 42.2552C53.3894 42.2552 50.7913 37.7267 44.6951 37.6686C38.599 37.6106 35.58 41.3263 35.58 41.3263" stroke="black" stroke-miterlimit="2.61313" stroke-linecap="round" stroke-linejoin="round"></path>
<path fill-rule="evenodd" clip-rule="evenodd" d="M54.1514 35.7951C54.1514 35.7951 55.24 34.3872 52.1048 32.747C52.1048 32.747 40.6963 29.3651 38.0402 29.699C35.384 30.0328 31.2183 33.3566 31.2183 33.3566C31.2183 33.3566 35.863 31.5713 41.1753 32.9793C46.4877 34.3872 53.6143 36.3612 54.1514 35.7951V35.7951Z" stroke="black" stroke-miterlimit="2.61313" stroke-linecap="round" stroke-linejoin="round"></path>
<path d="M63.258 68.6007C63.258 68.6007 61.763 68.6442 61.1679 67.9621C60.5583 67.2799 59.0343 66.6703 57.8296 66.7573" stroke="black" stroke-miterlimit="2.61313" stroke-linecap="round" stroke-linejoin="round"></path>
<path d="M56.094 63.373C56.094 63.373 54.0765 67.5968 58.2712 68.2935" stroke="black" stroke-miterlimit="2.61313" stroke-linecap="round" stroke-linejoin="round"></path>
<path d="M56.8892 40.6421C56.8892 40.6421 60.5179 43.8643 59.7921 52.7328" stroke="black" stroke-miterlimit="2.61313" stroke-linecap="round" stroke-linejoin="round"></path>
<path fill-rule="evenodd" clip-rule="evenodd" d="M63.4818 76.6956C63.4818 76.6956 60.5208 75.2442 58.4307 76.4489C56.3406 77.6536 50.3751 80.6436 50.3751 80.6436C50.3751 80.6436 53.0313 88.7863 63.4818 88.7863C73.9323 88.7863 76.5885 80.6436 76.5885 80.6436C76.5885 80.6436 70.623 77.6681 68.5329 76.4489C66.4428 75.2442 63.4818 76.6956 63.4818 76.6956V76.6956Z" stroke="black" stroke-miterlimit="2.61313" stroke-linecap="round" stroke-linejoin="round"></path>
<path d="M63.476 81.6467C63.476 81.6467 62.7358 81.6032 61.8068 81.2258C60.8779 80.8484 56.2477 80.6597 53.998 81.1823C51.7482 81.7048 51.0515 80.4565 48.6421 80.4565" stroke="black" stroke-miterlimit="2.61313" stroke-linecap="round" stroke-linejoin="round"></path>
<path d="M21.4984 40.874C21.4984 40.874 26.3173 61.1364 28.8864 71.6885C31.47 82.2407 32.1086 84.0115 37.7403 89.3238C43.3865 94.6362 54.1999 104.637 63.4602 104.637" stroke="black" stroke-miterlimit="2.61313" stroke-linecap="round" stroke-linejoin="round"></path>
<path d="M18.0193 38.0874C18.0193 38.0874 14.9132 38.1309 15.9583 42.645C17.0033 47.159 20.7916 53.6761 21.2706 58.5095C21.7496 63.3428 23.651 64.7653 27.1345 64.4605" stroke="black" stroke-miterlimit="2.61313" stroke-linecap="round" stroke-linejoin="round"></path>
<path d="M18.8135 44.8076C18.8135 44.8076 19.3215 42.6304 20.3521 43.3561C21.3826 44.0818 23.5308 49.8006 23.5308 49.8006C23.5308 49.8006 22.1519 52.7035 22.9212 53.5889C23.6904 54.4743 25.1709 56.2741 25.1709 56.2741" stroke="black" stroke-miterlimit="2.61313" stroke-linecap="round" stroke-linejoin="round"></path>
<path d="M81.9978 44.2418C83.12 44.2418 84.0298 43.3321 84.0298 42.2098C84.0298 41.0875 83.12 40.1777 81.9978 40.1777C80.8755 40.1777 79.9657 41.0875 79.9657 42.2098C79.9657 43.3321 80.8755 44.2418 81.9978 44.2418Z" fill="black"></path>
<path d="M80.5909 41.9943C81.0238 41.9943 81.3747 41.6434 81.3747 41.2105C81.3747 40.7777 81.0238 40.4268 80.5909 40.4268C80.158 40.4268 79.8071 40.7777 79.8071 41.2105C79.8071 41.6434 80.158 41.9943 80.5909 41.9943Z" fill="white"></path>
<path fill-rule="evenodd" clip-rule="evenodd" d="M73.8762 44.7532C71.5829 44.4194 77.2 41.052 77.4613 40.8633C78.7096 39.9779 80.3497 39.4264 82.106 39.3393C86.083 39.1361 87.7667 40.7762 90.6115 43.0115C90.6115 43.0115 89.552 42.8663 88.4053 44.1291C87.2587 45.3919 82.8462 46.9014 79.0144 45.9725C75.1825 45.0435 73.8472 44.7678 73.8472 44.7678L73.8762 44.7532Z" stroke="black" stroke-miterlimit="2.61313" stroke-linecap="round" stroke-linejoin="round"></path>
<mask id="mask1_314_389" style="mask-type:alpha" maskunits="userSpaceOnUse" x="77" y="38" width="10" height="9">
<path d="M81.9986 45.8969C84.0347 45.8969 85.6853 44.2463 85.6853 42.2101C85.6853 40.174 84.0347 38.5234 81.9986 38.5234C79.9625 38.5234 78.3119 40.174 78.3119 42.2101C78.3119 44.2463 79.9625 45.8969 81.9986 45.8969Z" stroke="black" stroke-miterlimit="2.61313" stroke-linecap="round" stroke-linejoin="round"></path>
</mask>
<g mask="url(#mask1_314_389)">
<path fill-rule="evenodd" clip-rule="evenodd" d="M73.8762 44.7527C71.5829 44.4189 77.2 41.0515 77.4613 40.8628C78.7096 39.9774 80.3497 39.4259 82.106 39.3388C86.083 39.1356 87.7667 40.7757 90.6115 43.011C90.6115 43.011 89.552 42.8658 88.4053 44.1286C87.2587 45.3914 82.8462 46.9009 79.0144 45.972C75.1825 45.043 73.8472 44.7673 73.8472 44.7673L73.8762 44.7527Z" fill="black" stroke="black" stroke-miterlimit="2.61313" stroke-linecap="round" stroke-linejoin="round"></path>
</g>
<path d="M74.4148 43.2983C74.4148 43.2983 75.126 44.0386 74.8357 44.895" stroke="black" stroke-miterlimit="2.61313" stroke-linecap="round" stroke-linejoin="round"></path>
<path d="M73.5426 42.2552C73.5426 42.2552 76.1407 37.7267 82.2368 37.6686C88.333 37.6106 91.352 41.3263 91.352 41.3263" stroke="black" stroke-miterlimit="2.61313" stroke-linecap="round" stroke-linejoin="round"></path>
<path fill-rule="evenodd" clip-rule="evenodd" d="M72.7851 35.7951C72.7851 35.7951 71.6965 34.3872 74.8316 32.747C74.8316 32.747 86.2401 29.3651 88.8963 29.699C91.5525 30.0328 95.7182 33.3566 95.7182 33.3566C95.7182 33.3566 91.0735 31.5713 85.7611 32.9793C80.4488 34.3872 73.3221 36.3612 72.7851 35.7951V35.7951Z" stroke="black" stroke-miterlimit="2.61313" stroke-linecap="round" stroke-linejoin="round"></path>
<path d="M63.6866 68.6007C63.6866 68.6007 65.1816 68.6442 65.7767 67.9621C66.3864 67.2799 67.9104 66.6703 69.1151 66.7573" stroke="black" stroke-miterlimit="2.61313" stroke-linecap="round" stroke-linejoin="round"></path>
<path d="M70.8598 63.373C70.8598 63.373 72.8774 67.5968 68.6826 68.2935" stroke="black" stroke-miterlimit="2.61313" stroke-linecap="round" stroke-linejoin="round"></path>
<path d="M70.05 40.6421C70.05 40.6421 66.4214 43.8643 67.1471 52.7328" stroke="black" stroke-miterlimit="2.61313" stroke-linecap="round" stroke-linejoin="round"></path>
<path d="M63.4713 81.6467C63.4713 81.6467 64.2116 81.6032 65.1405 81.2258C66.0694 80.8484 70.6996 80.6597 72.9494 81.1823C75.1991 81.7048 75.8958 80.4565 78.3052 80.4565" stroke="black" stroke-miterlimit="2.61313" stroke-linecap="round" stroke-linejoin="round"></path>
<path d="M105.444 40.874C105.444 40.874 100.626 61.1364 98.0565 71.6885C95.4729 82.2407 94.8342 84.0115 89.2025 89.3238C83.5564 94.6362 72.743 104.637 63.4827 104.637" stroke="black" stroke-miterlimit="2.61313" stroke-linecap="round" stroke-linejoin="round"></path>
<path d="M100.791 61.5015C99.7911 66.5015 97.2911 77.0015 95.7911 81.5015" stroke="black" stroke-linejoin="round"></path>
<path d="M93.7911 85.5015C93.1244 86.8348 91.4911 89.7015 90.2911 90.5015" stroke="black" stroke-linejoin="round"></path>
<path d="M108.929 38.0874C108.929 38.0874 112.035 38.1309 110.99 42.645C109.945 47.159 106.157 53.6761 105.678 58.5095C105.199 63.3428 103.297 64.7653 99.8138 64.4605" stroke="black" stroke-miterlimit="2.61313" stroke-linecap="round" stroke-linejoin="round"></path>
<path d="M108.12 44.8076C108.12 44.8076 107.612 42.6304 106.581 43.3561C105.551 44.0818 103.403 49.8006 103.403 49.8006C103.403 49.8006 104.781 52.7035 104.012 53.5889C103.243 54.4743 101.762 56.2741 101.762 56.2741" stroke="black" stroke-miterlimit="2.61313" stroke-linecap="round" stroke-linejoin="round"></path>
<path fill-rule="evenodd" clip-rule="evenodd" d="M22.1102 88.5111C29.3094 88.5111 35.1443 81.486 35.1443 72.8208C35.1443 81.486 40.9792 88.5111 48.1784 88.5111C40.9792 88.5111 35.1443 95.5362 35.1443 104.201C35.1443 95.5362 29.3094 88.5111 22.1102 88.5111Z" fill="#FFFAF1" stroke="#008763" stroke-width="2" stroke-miterlimit="2.61313" stroke-linecap="round" stroke-linejoin="round"></path>
<path fill-rule="evenodd" clip-rule="evenodd" d="M6.83913 77.4231C10.5984 77.4231 13.6465 73.5187 13.6465 68.7144C13.6465 73.5187 16.6945 77.4231 20.4538 77.4231C16.6945 77.4231 13.6465 81.3276 13.6465 86.1319C13.6465 81.3276 10.5984 77.4231 6.83913 77.4231Z" fill="#FFFAF1" stroke="#008763" stroke-width="2" stroke-miterlimit="2.61313" stroke-linecap="round" stroke-linejoin="round"></path>
<path d="M63.6866 10.145V113.257" stroke="#008763" stroke-width="2" stroke-miterlimit="2.61313" stroke-linecap="round" stroke-linejoin="round" stroke-dasharray="2 5"></path>
</g>
<defs>
<clippath id="clip0_314_389">
<rect width="123.418" height="123.418" fill="white" transform="translate(0.291138)"></rect>
</clippath>
</defs>
</svg>