<svg width="24" height="20" viewbox="0 0 24 20" fill="none" xmlns="http://www.w3.org/2000/svg">
                          <path d="M23.0376 11.5838L23.0376 11.5839L19.9229 18.5857C19.9229 18.5857 19.9228 18.5858 19.9228 18.5858C19.6789 19.1336 19.1138 19.5 18.4764 19.5H9.16451C8.27975 19.5 7.5934 18.8125 7.5934 18V8.00781C7.5934 7.61609 7.75385 7.23774 8.04595 6.95491L14.5193 0.692707L15.0675 1.21373C15.4499 1.57767 15.6083 2.0992 15.4969 2.59306L14.5261 6.88981L14.3882 7.5H15.0138H21.5912C22.4759 7.5 23.1623 8.18746 23.1623 9V10.998C23.1623 11.1989 23.12 11.3987 23.0376 11.5838ZM1.38007 19.5V8.5H4.52229V19.5H1.38007Z" stroke="black"></path>
                        </svg>