<svg width="48" height="48" viewbox="0 0 48 48" fill="none" xmlns="http://www.w3.org/2000/svg">
<circle opacity="0.9" cx="24" cy="24" r="23" fill="black"></circle>
<path d="M28.0933 24.5C28.0933 27.342 27.5437 29.8904 26.6774 31.7097C25.7933 33.5662 24.6697 34.5 23.5933 34.5C22.5168 34.5 21.3932 33.5662 20.5092 31.7097C19.6428 29.8904 19.0933 27.342 19.0933 24.5C19.0933 21.658 19.6428 19.1096 20.5092 17.2903C21.3932 15.4338 22.5168 14.5 23.5933 14.5C24.6697 14.5 25.7933 15.4338 26.6774 17.2903C27.5437 19.1096 28.0933 21.658 28.0933 24.5Z" stroke="white"></path>
<path d="M21.3433 28.3972C18.882 26.9762 16.9498 25.226 15.8075 23.5661C14.6417 21.8722 14.3948 20.4323 14.933 19.5C15.4712 18.5678 16.8417 18.0617 18.8916 18.2243C20.9002 18.3837 23.382 19.1819 25.8433 20.6029C28.3045 22.0239 30.2367 23.7741 31.3791 25.434C32.5448 27.1279 32.7917 28.5678 32.2535 29.5C31.7153 30.4323 30.3448 30.9384 28.2949 30.7758C26.2863 30.6164 23.8045 29.8182 21.3433 28.3972Z" stroke="white"></path>
<path d="M21.3433 20.6028C23.8045 19.1818 26.2863 18.3836 28.295 18.2242C30.3448 18.0616 31.7153 18.5677 32.2535 19.5C32.7917 20.4322 32.5448 21.8721 31.3791 23.566C30.2367 25.2259 28.3045 26.9761 25.8433 28.3971C23.382 29.8181 20.9002 30.6163 18.8916 30.7757C16.8417 30.9383 15.4712 30.4322 14.933 29.5C14.3948 28.5677 14.6417 27.1278 15.8075 25.4339C16.9498 23.774 18.882 22.0238 21.3433 20.6028Z" stroke="white"></path>
<circle cx="23.5933" cy="24.5" r="2" fill="white"></circle>
</svg>