<svg class="featured-logo-svg" xmlns="http://www.w3.org/2000/svg" width="1508px" height="372px" version="1.0" style="shape-rendering:geometricPrecision; text-rendering:geometricPrecision; image-rendering:optimizeQuality; fill-rule:evenodd; clip-rule:evenodd" viewbox="0 0 172.549 42.597" xml:space="preserve" xmlns:xlink="http://www.w3.org/1999/xlink" xmlns:xodm="http://www.corel.com/coreldraw/odm/2003">
 <defs>
  <style type="text/css">
   
    .featured-logo-svg .fil0 {fill:#C2BCB1}
   
  </style>
 </defs>
 <g id="Layer_x0020_1">
  <metadata id="CorelCorpID_0Corel-Layer"></metadata>
  <g id="_2691971301648">
   <path class="fil0" d="M104.644 1.606l0.628 0 0 3.912 -0.628 0 0 0.145 1.597 0.003c0.277,0.004 0.329,0.056 0.384,-0.148l-0.532 0 0 -1.98 1.836 0 0 1.98 -0.58 0c0.029,0.108 0.011,0.145 0.145,0.145l1.739 0c0.133,0 0.116,-0.037 0.145,-0.145l-0.628 0 0 -3.912 0.628 0c-0.029,-0.108 -0.012,-0.145 -0.145,-0.145l-1.739 0c-0.134,0 -0.116,0.037 -0.145,0.145l0.58 0 0 1.835 -1.836 0 0 -1.835 0.532 0c-0.055,-0.204 -0.107,-0.152 -0.384,-0.148l-1.597 0.003 0 0.145zm11.157 1.739l0 -0.193 -0.628 0.096 0 4.057 -0.386 0 0 0.145 1.401 0 0 -0.145 -0.387 0 0 -1.883c0.142,0.094 0.514,0.508 1.172,0.108 0.227,-0.138 0.387,-0.279 0.512,-0.502 0.418,-0.745 0.018,-1.925 -1.201,-1.925 -0.227,0 -0.346,0.15 -0.483,0.242zm-5.989 0.29c0,0.31 0.362,0.232 0.532,0.193 0.078,-0.338 -0.134,-0.628 0.241,-0.628 0.544,0 0.483,0.488 0.483,0.869 0,0.174 -0.224,0.178 -0.389,0.191 -0.603,0.045 -1.157,0.156 -1.157,0.872 0,0.651 1.414,0.737 1.546,0.241l0.097 0c0.108,0.407 0.928,0.447 0.966,0 -0.096,0.035 -0.252,0.231 -0.387,0.097 -0.315,-0.316 0.55,-2.367 -1.014,-2.367 -0.349,0 -0.918,0.041 -0.918,0.532zm8.259 0.628c0,0.687 0.306,1.242 0.938,1.381 0.649,0.142 1.326,-0.176 1.429,-0.56 -0.393,0.032 -0.186,0.483 -1.159,0.483 -0.536,0 -0.58,-0.709 -0.58,-1.256l1.787 0c0,-0.427 -0.065,-0.594 -0.267,-0.844 -0.63,-0.778 -2.148,-0.241 -2.148,0.796zm-4.685 -0.773l0 -0.338 -0.628 0.096 0 2.27 -0.386 0c0.057,0.213 0.015,0.147 0.628,0.145 0.257,-0.001 0.515,0 0.773,0l0 -0.145 -0.387 0 0 -1.738c0,-0.194 0.159,-0.426 0.294,-0.491 0.343,-0.167 0.194,0.181 0.189,0.394 0.195,0.13 0.059,0.145 0.387,0.145 0.305,0 0.448,-0.725 -0.29,-0.725 -0.166,0 -0.275,0.03 -0.376,0.108l-0.133 0.156c-0.006,0.009 -0.013,0.022 -0.018,0.03l-0.053 0.093zm8.404 -0.049l0 -0.289 -0.628 0.096 0 2.27 -0.386 0 0 0.145 1.165 0.006c0.226,-0.012 0.186,0.037 0.236,-0.151l-0.387 0c0,-0.625 -0.113,-1.893 0.158,-2.163 0.123,-0.124 0.209,-0.097 0.374,-0.058 -0.018,0.21 -0.191,0.531 0.241,0.531 0.458,0 0.56,-0.725 -0.29,-0.725 -0.142,0 -0.195,0.037 -0.279,0.107l-0.204 0.231zm2.029 0.435c0,0.773 1.449,0.581 1.449,1.208 0,0.71 -1.201,0.6 -1.376,-0.025 -0.067,-0.239 0.061,-0.204 -0.17,-0.265 0,0.321 -0.048,0.504 -0.048,0.869 0.207,-0.022 0.191,-0.145 0.29,-0.145 0.351,0 0.426,0.282 1.091,0.126 0.697,-0.164 0.882,-0.981 0.309,-1.333 -0.308,-0.189 -0.402,-0.163 -0.657,-0.261 -0.814,-0.312 -0.471,-0.85 -0.067,-0.85 0.363,0 0.62,0.168 0.628,0.531l0.145 0 0 -0.628c-0.727,0.061 -0.239,0 -0.87,0 -0.268,0 -0.724,0.272 -0.724,0.773zm0 -1.256c-0.344,0.514 -0.423,0.357 -0.483,0.58 0.623,-0.166 0.984,-1.208 0.338,-1.208 -0.412,0 -0.515,0.628 0.145,0.628zm-7.388 2.995c-0.864,-0.004 -0.566,-1.182 -0.562,-2.177 0.671,-0.153 1.146,-0.351 1.139,1.15 -0.002,0.464 -0.128,1.029 -0.577,1.027zm-6.291 -0.487c0.001,-0.309 0.056,-0.315 0.117,-0.572 0.337,-0.077 0.35,-0.113 0.801,-0.11l-0.003 0.686c-0.002,0.522 -0.918,0.655 -0.915,-0.004zm9.163 -1.788l0.114 0c0.409,0.002 0.447,0.504 0.454,0.918l-1.144 -0.005c0.012,-0.456 0.137,-0.915 0.576,-0.913z"></path>
   <path class="fil0" d="M125.564 10.464l0.228 0.001c0.01,0.544 2.772,10.567 3.1,11.737 0.27,0.962 1.839,6.533 1.848,7.054l-10.07 -0.047c0.235,-0.485 1.029,-3.823 1.233,-4.619 0.403,-1.571 0.793,-3.164 1.254,-4.713l1.217 -4.635c0.209,-0.827 0.404,-1.578 0.606,-2.378 0.165,-0.651 0.565,-1.723 0.584,-2.4zm-28.15 -0.246c0.215,0.344 3.714,13.525 3.87,14.162 0.208,0.846 0.421,1.528 0.629,2.338 0.144,0.559 0.468,1.968 0.676,2.406l-10.07 -0.047c0.014,-0.516 3.358,-12.943 3.659,-14.127 0.419,-1.641 0.858,-3.144 1.236,-4.732zm58.312 10.686l-2.861 -0.013 0.089 -18.996c3.507,0.016 6.549,-0.341 8.575,2.326 2.39,3.148 2.222,11.158 -0.068,14.309 -1.185,1.629 -2.931,2.387 -5.735,2.374zm-66.81 19.943l-4.005 -0.019 -0.001 0.344 8.582 0.04 0.002 -0.344 -4.005 -0.018c0.003,-0.75 1.118,-4.842 1.386,-5.729l1.528 -5.701 10.299 0.048c0.039,0.499 0.223,0.93 0.338,1.374l1.935 7.195c0.231,0.928 0.544,1.926 0.763,2.889 -0.971,-0.005 -3.596,-0.208 -4.234,0.094 0.29,0.401 1.292,0.235 2.287,0.24l17.966 0.084 0.002 -0.343 -3.449 -0.006c-0.725,-0.012 -0.877,0.29 -0.129,-2.226l1.905 -7.275c0.146,-0.543 0.451,-1.323 0.468,-1.943l10.413 0.049c0.01,0.552 1.304,5.13 1.475,5.715 0.265,0.909 0.534,1.946 0.774,2.878l0.787 2.865 -4.234 -0.02 -0.001 0.343 26.205 0.123 0.002 -0.343c-1.038,-0.005 -3.206,0.215 -3.203,-0.359l0.092 -19.568c3.377,0.016 7.084,-0.423 9.257,2.674 2.798,3.987 -1.297,14.305 2.89,17.527 1.588,1.222 2.523,1.153 4.346,1.161 0.897,0.005 1.577,-0.558 2.038,-1.046 1.553,-1.643 1.085,-6.023 1.096,-8.437l-0.229 -0.001c-0.012,2.582 0.227,8.698 -1.986,8.688l-0.687 -0.003c-1.874,-0.009 -1.468,-4.048 -1.459,-6.072 0.012,-2.521 0.103,-5.166 0.04,-7.671 -0.055,-2.16 -0.45,-3.846 -2.403,-5.138 -1.713,-1.133 -3.44,-1.403 -5.36,-1.751l-0.448 -0.126c2.546,-0.581 4.743,-1.092 6.607,-3.449 2.563,-3.239 3.15,-10.613 -1.015,-13.937 -2.161,-1.725 -5.886,-2.07 -9.391,-2.086l-11.673 -0.055c-0.316,-0.001 -0.275,0.087 -0.344,0.342 0.686,0.003 1.373,0.007 2.059,0.009 0.535,0.003 1.718,-0.207 1.715,0.352l-0.182 38.907 -8.124 -0.038c-0.428,-1.875 -2.303,-8.072 -2.879,-10.133l-7.18 -25.349c-0.256,-0.901 -0.476,-1.753 -0.735,-2.575l-0.918 -2.622 -5.313 20.275c-0.45,1.774 -0.888,3.374 -1.328,5.098l-2.68 10.173c-0.242,0.948 -1.068,4.353 -1.396,5.028l-5.837 -0.027 -8.594 -30.44c-0.654,-2.304 -2.387,-8.041 -2.888,-10.239l-0.229 -0.001c-0.018,0.686 -0.43,1.794 -0.607,2.492 -0.2,0.793 -0.425,1.769 -0.661,2.551 -0.257,0.849 -0.437,1.647 -0.667,2.547 -0.237,0.931 -0.441,1.615 -0.676,2.537l-6.687 25.442c-0.223,0.884 -0.399,1.673 -0.655,2.558 -0.238,0.821 -0.42,1.805 -0.765,2.448z"></path>
   <path class="fil0" d="M12.589 40.49l-3.547 -0.016c-0.264,-0.002 -0.343,-0.082 -0.342,-0.345l0.094 -20.026c3.581,0.017 6.726,0.028 8.801,2.785 0.713,0.948 1.177,1.905 1.517,3.281 1.306,5.281 0.298,14.353 -6.523,14.321zm-0.704 -20.716l-3.09 -0.015 0.087 -18.538c3.322,0.016 5.992,-0.039 8.018,2.536 2.429,3.086 2.593,10.138 0.133,13.395 -1.166,1.544 -3.07,2.632 -5.148,2.622zm-11.7 -18.593c0.649,0.003 1.297,0.006 1.946,0.009 0.534,0.002 1.717,-0.208 1.714,0.351l-0.182 38.907 -3.661 -0.017 -0.002 0.344c2.668,0.012 12.27,0.199 14.069,0.059 4.525,-0.351 7.649,-1.434 9.664,-4.387 2.019,-2.959 2.066,-7.931 0.294,-11.161 -1.283,-2.338 -3.514,-3.777 -6.02,-4.629 -0.665,-0.226 -2.151,-0.636 -2.919,-0.639l0.001 -0.115c2.234,0.011 5.015,-1.387 6.165,-2.515 0.912,-0.895 1.218,-1.312 1.832,-2.519 1.554,-3.057 1.032,-8.219 -1.369,-10.758 -0.671,-0.71 -1.509,-1.293 -2.387,-1.736 -3.267,-1.649 -7.02,-1.481 -10.904,-1.499 -2.746,-0.013 -5.493,-0.026 -8.239,-0.039l-0.002 0.344z"></path>
   <path class="fil0" d="M60.377 1.462l-0.089 18.996c-0.001,0.317 0.087,0.276 0.342,0.345 0.02,-4.223 0.258,-8.435 1.13,-11.852 0.714,-2.798 2.371,-7.471 5.598,-7.456l9.383 0.044c0.344,0.001 0.321,0.137 0.275,0.372l-16.377 37.872c-0.152,0.365 -0.371,0.917 -0.561,1.273l22.314 0.104 0.092 -19.568 -0.344 -0.002c-0.028,6.054 -0.413,14.34 -4.06,17.977 -0.922,0.919 -1.449,1.23 -3.239,1.215 -2.936,-0.025 -5.875,-0.028 -8.811,-0.042 0.097,-0.41 0.324,-0.83 0.495,-1.225l2.118 -4.875c0.208,-0.492 0.339,-0.822 0.543,-1.292l4.265 -9.837c0.156,-0.373 0.331,-0.775 0.522,-1.197 0.211,-0.465 0.331,-0.827 0.542,-1.293l8.522 -19.796c-6.979,-0.033 -14.558,0.023 -21.516,-0.103 -0.529,-0.01 -1.141,-0.158 -1.144,0.34z"></path>
   <path class="fil0" d="M38.938 9.944c0.083,0.363 0.225,0.816 0.325,1.16 0.115,0.4 0.188,0.746 0.31,1.173 0.237,0.827 0.404,1.512 0.626,2.342l3.8 14.231 -10.07 -0.047 4.357 -16.527c0.113,-0.443 0.201,-0.786 0.303,-1.189l0.274 -0.988c0.009,-0.021 0.029,-0.061 0.037,-0.078 0.007,-0.017 0.023,-0.053 0.038,-0.077zm-8.497 30.63l-4.005 -0.019 -0.002 0.343 8.583 0.04 0.001 -0.343 -4.119 -0.019 0.7 -2.858c0.247,-0.968 0.492,-1.813 0.745,-2.811l1.119 -4.275c0.11,-0.433 0.31,-1.035 0.35,-1.486l10.299 0.048 3.151 11.458 -4.234 -0.02 -0.002 0.344 14.19 0.066 0.001 -0.343 -4.348 -0.021 -10.794 -38.056c-0.179,-0.622 -0.678,-2.021 -0.688,-2.622l-2.861 10.104c-0.42,1.635 -7.734,29.745 -8.086,30.47z"></path>
  </g>
 </g>
</svg>