<svg class="land-header__logo" width="70" height="44" viewbox="0 0 83 44" fill="none" xmlns="http://www.w3.org/2000/svg">
      <path fill-rule="evenodd" clip-rule="evenodd" d="M9.46274 30.26C10.9471 30.899 12.4624 31.2825 14.1013 31.4103C14.658 31.4742 15.6166 31.4423 15.5857 31.4423C17.4721 31.4103 19.2966 30.9949 21.0283 30.26C22.8838 29.4292 24.4918 28.3108 25.9143 26.9049C27.3059 25.4989 28.4501 23.8373 29.285 21.9201C30.12 20.0029 30.5529 17.9579 30.5529 15.7531C30.5529 13.5483 30.12 11.5033 29.285 9.58605C28.4501 7.66884 27.3368 6.00726 25.9143 4.56935C24.5227 3.1634 22.8838 2.04503 21.0283 1.21423C19.2038 0.415396 17.2556 0 15.2455 0C13.2355 0 11.3182 0.415396 9.49367 1.21423C7.66915 2.01307 6.03018 3.13144 4.6386 4.56935C3.2161 6.00726 2.10283 7.66884 1.26788 9.58605C0.432936 11.5033 0 13.5802 0 15.7531C0 17.9579 0.432936 20.0349 1.23696 21.9201C2.10283 23.8373 3.2161 25.4989 4.60767 26.9049C5.99925 28.3108 7.63823 29.4292 9.46274 30.26ZM19.2966 29.4611C18.1833 30.1961 16.8227 30.5795 15.2455 30.5795C13.6993 30.5795 12.3387 30.228 11.2254 29.4292C10.0812 28.6943 9.1535 27.6398 8.44225 26.3297C7.70007 25.0196 7.17437 23.4539 6.8342 21.6325C6.49404 19.8112 6.30849 17.8301 6.30849 15.7211C6.30849 13.6122 6.49404 11.6311 6.8342 9.80973C7.20529 7.98838 7.731 6.42266 8.44225 5.08061C9.1535 3.73856 10.0812 2.71605 11.2254 1.94916C12.3387 1.18228 13.6993 0.798838 15.2765 0.798838C16.8536 0.798838 18.1833 1.18228 19.3275 1.94916C20.4408 2.71605 21.3685 3.77051 22.1107 5.08061C22.8528 6.3907 23.3785 7.98838 23.6878 9.77778C24.0279 11.5991 24.2135 13.5802 24.2135 15.7211C24.2135 17.894 24.0279 19.8751 23.6878 21.6645C23.3476 23.4858 22.8219 25.0516 22.0797 26.3617C21.3685 27.6717 20.4408 28.7262 19.2966 29.4611ZM82.7527 25.0194C82.227 25.6904 81.5157 26.2337 80.6189 26.713C79.7221 27.1923 78.6398 27.4159 77.3719 27.4159C76.3823 27.4159 75.4855 27.2562 74.6197 26.9366C73.7847 26.6171 73.0735 26.1058 72.455 25.4348C71.8984 24.7957 71.4654 23.965 71.1253 22.9744L82.7527 17.5103C82.7527 17.5103 82.7218 15.4973 80.9282 13.0368C80.2788 12.1741 79.351 11.5989 78.3306 11.0877C77.3101 10.5764 76.1659 10.3208 74.898 10.3208C73.661 10.3208 72.4859 10.5764 71.3417 11.1196C70.1975 11.6309 69.177 12.3978 68.3112 13.3564C67.4453 14.315 66.7341 15.4653 66.2083 16.8074C65.6826 18.1494 65.4043 19.6193 65.4043 21.2809C65.4043 22.7188 65.6208 24.0608 66.0537 25.275C66.4867 26.5212 67.1051 27.6077 67.9401 28.5024C68.7441 29.429 69.7337 30.132 70.8779 30.6752C72.022 31.1865 73.2899 31.474 74.7124 31.474C76.908 31.474 78.7016 30.8669 80.0932 29.6846C81.4848 28.5024 82.4434 26.9686 83.0001 25.1792L82.7527 25.0194ZM70.5686 17.9577C70.6305 17.031 70.7542 16.1683 70.9397 15.3375C71.1253 14.5067 71.4036 13.7718 71.7437 13.1647C72.0839 12.5256 72.4859 12.0463 73.0116 11.6948C73.5064 11.3433 74.094 11.1516 74.7434 11.1516C75.7948 11.1516 76.5679 11.5989 77.1245 12.5256C77.6811 13.4203 77.9285 15.5292 77.9285 17.5103V18.7885L70.9706 22.2075C70.7232 21.185 70.5686 20.1625 70.5686 18.7885V17.9577ZM49.8494 30.8353H44.9943V26.4576L44.9634 26.4257C44.6851 27.0008 44.3449 27.576 43.9429 28.1831C43.5409 28.7902 43.108 29.3015 42.5514 29.7808C42.0256 30.2601 41.4072 30.6755 40.7268 30.9631C40.0465 31.2826 39.2734 31.4424 38.4385 31.4424C36.7067 31.4424 35.4079 30.8353 34.5111 29.5891C33.6143 28.3429 33.1814 26.7133 33.1814 24.6363V10.9282H38.2529V24.3167C38.2529 25.499 38.5003 26.4257 39.026 27.0967C39.5517 27.7677 40.3248 28.0873 41.3144 28.0873C42.1803 28.0873 42.8606 27.8636 43.4172 27.4162C43.9739 26.9689 44.4377 26.3937 44.7779 25.6907V10.9282H49.8494V30.8353ZM30.553 34.7655C28.4811 34.7655 26.5638 34.9573 24.8321 35.3087C23.1003 35.6602 21.585 36.2354 20.2862 36.9703C19.0184 37.7372 17.9979 38.6958 17.2866 39.8461C16.5754 40.9965 16.2043 42.4024 16.2043 44.0001H15.3693V43.6486C15.4312 41.6995 15.8023 39.8142 16.5135 38.0248C17.3175 36.1395 18.3999 34.446 19.7605 32.9761C21.1212 31.5063 22.7292 30.3559 24.5847 29.4932C26.4401 28.6305 28.4192 28.1831 30.553 28.1831V34.7655ZM61.3841 12.0144C61.9099 11.5032 62.4974 11.0878 63.1468 10.7683C63.7962 10.4487 64.3219 10.289 65.0332 10.3209V16.2643H64.6312C64.4456 16.0086 64.1673 15.785 63.8271 15.5613C63.487 15.3696 63.1468 15.1778 62.7757 15.0181C62.4356 14.8583 62.0645 14.7305 61.7243 14.6346C61.3841 14.5388 61.1058 14.4749 60.8584 14.4749C60.5492 14.4749 60.1781 14.6027 59.7761 14.8583C59.405 15.1139 59.003 15.4654 58.6319 15.9447L58.6628 30.8351H53.4985V22.3674L53.5294 10.928H58.6319V15.0181C58.9494 14.6627 59.2895 14.2606 59.6522 13.8317C59.7135 13.7592 59.7754 13.686 59.8379 13.6121C60.3327 13.037 60.8275 12.4937 61.3841 12.0144Z" fill="white"></path>
    </svg>