<svg width="34" height="30" viewbox="0 0 34 30" fill="none" xmlns="http://www.w3.org/2000/svg">
<path d="M23.4986 14.924C23.4986 18.8902 22.7321 22.4565 21.5149 25.0126C20.28 27.6059 18.6717 28.9954 17.0599 28.9954C15.4481 28.9954 13.8398 27.6059 12.6048 25.0126C11.3877 22.4565 10.6211 18.8902 10.6211 14.924C10.6211 10.9577 11.3877 7.39141 12.6048 4.83538C13.8398 2.24205 15.4481 0.852539 17.0599 0.852539C18.6717 0.852539 20.28 2.24205 21.5149 4.83538C22.7321 7.39141 23.4986 10.9577 23.4986 14.924Z" stroke="black"></path>
<path d="M13.8404 20.4998C10.4055 18.5166 7.70035 16.0696 6.09534 13.7375C4.46691 11.3714 4.06771 9.28377 4.87361 7.88792C5.67951 6.49207 7.68702 5.79398 10.5504 6.02118C13.3725 6.2451 16.8443 7.36435 20.2792 9.34749C23.7141 11.3306 26.4193 13.7777 28.0243 16.1098C29.6527 18.4759 30.0519 20.5635 29.246 21.9594C28.4401 23.3552 26.4326 24.0533 23.5693 23.8261C20.7471 23.6022 17.2753 22.4829 13.8404 20.4998Z" stroke="black"></path>
<path d="M13.8406 9.34823C17.2755 7.36509 20.7473 6.24584 23.5695 6.02191C26.4328 5.79472 28.4403 6.4928 29.2462 7.88866C30.0521 9.28451 29.6529 11.3721 28.0245 13.7382C26.4195 16.0704 23.7143 18.5174 20.2794 20.5005C16.8445 22.4837 13.3727 23.6029 10.5505 23.8268C7.68719 24.054 5.67968 23.3559 4.87378 21.9601C4.06789 20.5642 4.46708 18.4766 6.09551 16.1105C7.70052 13.7784 10.4057 11.3314 13.8406 9.34823Z" stroke="black"></path>
</svg>