<svg width="46" height="46" viewbox="0 0 46 46" fill="none" xmlns="http://www.w3.org/2000/svg">
<circle opacity="0.9" cx="23" cy="23" r="23" fill="black"></circle>
<path fill-rule="evenodd" clip-rule="evenodd" d="M13.7836 16.7891H17.2025V13.9858C17.2025 11.3729 19.3291 9.2373 21.9249 9.2373C24.5234 9.2373 26.6472 11.3757 26.6472 13.9858V16.7891H30.25L30.7686 22.7738C30.6122 22.7655 30.453 22.76 30.2911 22.76C25.8597 22.76 22.2706 26.3717 22.2706 30.825C22.2706 32.2211 22.6246 33.5345 23.2447 34.6796H22.4352H21.6203H12.2388L13.7863 16.7919L13.7836 16.7891ZM18.8434 16.7891H21.6175H22.4325H25.0063V13.9858C25.0063 12.2862 23.6179 10.8873 21.9249 10.8873C20.2346 10.8873 18.8434 12.2862 18.8434 13.9858V16.7891Z" stroke="white" stroke-miterlimit="2.61313" stroke-linecap="round" stroke-linejoin="round"></path>
<path d="M30.2884 37.3312C33.8633 37.3312 36.7613 34.4171 36.7613 30.8223C36.7613 27.2276 33.8633 24.3135 30.2884 24.3135C26.7135 24.3135 23.8154 27.2276 23.8154 30.8223C23.8154 34.4171 26.7135 37.3312 30.2884 37.3312Z" stroke="white" stroke-miterlimit="2.61313" stroke-linecap="round" stroke-linejoin="round"></path>
<path d="M30.2883 30.8223H34.4509" stroke="white" stroke-miterlimit="2.61313" stroke-linecap="round" stroke-linejoin="round"></path>
<path d="M30.2883 30.8221V26.6392" stroke="white" stroke-miterlimit="2.61313" stroke-linecap="round" stroke-linejoin="round"></path>
</svg>