<svg width="124" height="124" viewbox="0 0 124 124" fill="none" xmlns="http://www.w3.org/2000/svg">
<path d="M43.4779 44.3776C44.605 44.3776 45.5187 43.4639 45.5187 42.3367C45.5187 41.2096 44.605 40.2959 43.4779 40.2959C42.3507 40.2959 41.437 41.2096 41.437 42.3367C41.437 43.4639 42.3507 44.3776 43.4779 44.3776Z" fill="black"></path>
<path d="M42.0794 42.1139C42.5094 42.1139 42.858 41.7653 42.858 41.3353C42.858 40.9052 42.5094 40.5566 42.0794 40.5566C41.6494 40.5566 41.3008 40.9052 41.3008 41.3353C41.3008 41.7653 41.6494 42.1139 42.0794 42.1139Z" fill="white"></path>
<path fill-rule="evenodd" clip-rule="evenodd" d="M51.588 44.8812C53.8829 44.5533 48.2686 41.1847 47.9981 40.988C46.7523 40.0946 45.1049 39.5537 43.3509 39.4635C39.3675 39.2586 37.6873 40.906 34.8433 43.1354C34.8433 43.1354 35.9006 42.9879 37.048 44.2501C38.1955 45.5205 42.605 47.0286 46.4326 46.0942C50.2684 45.1598 51.5962 44.8894 51.5962 44.8894L51.588 44.8812Z" stroke="black" stroke-miterlimit="2.61313" stroke-linecap="round" stroke-linejoin="round"></path>
<mask id="mask0_334_282" style="mask-type:alpha" maskunits="userSpaceOnUse" x="39" y="38" width="9" height="9">
<path d="M43.4822 46.024C45.5192 46.024 47.1705 44.3727 47.1705 42.3357C47.1705 40.2988 45.5192 38.6475 43.4822 38.6475C41.4452 38.6475 39.7939 40.2988 39.7939 42.3357C39.7939 44.3727 41.4452 46.024 43.4822 46.024Z" stroke="black" stroke-miterlimit="2.61313" stroke-linecap="round" stroke-linejoin="round"></path>
</mask>
<g mask="url(#mask0_334_282)">
<path fill-rule="evenodd" clip-rule="evenodd" d="M51.588 44.8812C53.8829 44.5533 48.2686 41.1847 47.9981 40.988C46.7523 40.0946 45.1049 39.5537 43.3509 39.4635C39.3675 39.2586 37.6873 40.906 34.8433 43.1354C34.8433 43.1354 35.9006 42.9879 37.048 44.2501C38.1955 45.5205 42.605 47.0286 46.4326 46.0942C50.2684 45.1598 51.5962 44.8894 51.5962 44.8894L51.588 44.8812Z" fill="black" stroke="black" stroke-miterlimit="2.61313" stroke-linecap="round" stroke-linejoin="round"></path>
</g>
<path d="M51.0574 43.4229C51.0574 43.4229 50.3443 44.1605 50.6394 45.0211" stroke="black" stroke-miterlimit="2.61313" stroke-linecap="round" stroke-linejoin="round"></path>
<path d="M51.9172 42.3771C51.9172 42.3771 49.319 37.8528 43.2211 37.7873C37.1231 37.7299 34.1069 41.4428 34.1069 41.4428" stroke="black" stroke-miterlimit="2.61313" stroke-linecap="round" stroke-linejoin="round"></path>
<path fill-rule="evenodd" clip-rule="evenodd" d="M52.6785 35.9253C52.6785 35.9253 53.7685 34.5155 50.6294 32.8681C50.6294 32.8681 39.2204 29.4831 36.5648 29.8109C33.9093 30.1388 29.7456 33.4746 29.7456 33.4746C29.7456 33.4746 34.3928 31.6879 39.7039 33.0976C45.015 34.5073 52.1375 36.4826 52.6785 35.9171V35.9253Z" stroke="black" stroke-miterlimit="2.61313" stroke-linecap="round" stroke-linejoin="round"></path>
<path d="M61.7762 68.7271C61.7762 68.7271 60.2845 68.768 59.678 68.0796C59.0715 67.3911 57.547 66.7928 56.334 66.8747" stroke="black" stroke-miterlimit="2.61313" stroke-linecap="round" stroke-linejoin="round"></path>
<path d="M54.6101 63.4971C54.6101 63.4971 52.5939 67.7263 56.7821 68.4148" stroke="black" stroke-miterlimit="2.61313" stroke-linecap="round" stroke-linejoin="round"></path>
<path d="M55.4165 40.7607C55.4165 40.7607 59.0392 43.9818 58.3179 52.8419" stroke="black" stroke-miterlimit="2.61313" stroke-linecap="round" stroke-linejoin="round"></path>
<path fill-rule="evenodd" clip-rule="evenodd" d="M62.005 76.822C62.005 76.822 59.0462 75.3713 56.9479 76.5843C54.8497 77.7891 48.8911 80.7725 48.8911 80.7725C48.8911 80.7725 51.5467 88.9113 62.005 88.9113C72.4551 88.9113 75.1188 80.7725 75.1188 80.7725C75.1188 80.7725 69.1602 77.7891 67.062 76.5843C64.9638 75.3795 62.005 76.822 62.005 76.822V76.822Z" stroke="black" stroke-miterlimit="2.61313" stroke-linecap="round" stroke-linejoin="round"></path>
<path d="M62.001 81.7749C62.001 81.7749 61.2551 81.7339 60.3289 81.3487C59.4028 80.9635 54.7719 80.7831 52.518 81.3077C50.2641 81.8322 49.5756 80.5864 47.1577 80.5864" stroke="black" stroke-miterlimit="2.61313" stroke-linecap="round" stroke-linejoin="round"></path>
<path d="M20.0254 40.9985C20.0254 40.9985 24.8447 61.2512 27.4183 71.8079C30.0001 82.3645 30.6394 84.1349 36.2784 89.4542C41.9173 94.7735 52.7362 104.765 61.9979 104.765" stroke="black" stroke-miterlimit="2.61313" stroke-linecap="round" stroke-linejoin="round"></path>
<path d="M16.5441 38.2114C16.5441 38.2114 13.4378 38.2524 14.4869 42.7603C15.536 47.2682 19.3226 53.8005 19.8062 58.6281C20.2898 63.4638 22.1913 64.8899 25.6665 64.5785" stroke="black" stroke-miterlimit="2.61313" stroke-linecap="round" stroke-linejoin="round"></path>
<path d="M17.3516 44.9407C17.3516 44.9407 17.8679 42.7687 18.8924 43.49C19.917 44.2113 22.0725 49.9322 22.0725 49.9322C22.0725 49.9322 20.6874 52.8336 21.4578 53.7188C22.2283 54.604 23.7118 56.4071 23.7118 56.4071" stroke="black" stroke-miterlimit="2.61313" stroke-linecap="round" stroke-linejoin="round"></path>
<path d="M80.5111 44.3776C81.6382 44.3776 82.5519 43.4639 82.5519 42.3367C82.5519 41.2096 81.6382 40.2959 80.5111 40.2959C79.3839 40.2959 78.4702 41.2096 78.4702 42.3367C78.4702 43.4639 79.3839 44.3776 80.5111 44.3776Z" fill="black"></path>
<path d="M79.1243 42.1139C79.5543 42.1139 79.9029 41.7653 79.9029 41.3353C79.9029 40.9052 79.5543 40.5566 79.1243 40.5566C78.6943 40.5566 78.3457 40.9052 78.3457 41.3353C78.3457 41.7653 78.6943 42.1139 79.1243 42.1139Z" fill="white"></path>
<path fill-rule="evenodd" clip-rule="evenodd" d="M72.4043 44.8812C70.1094 44.5533 75.7237 41.1847 75.9942 40.988C77.24 40.0946 78.8875 39.5537 80.6414 39.4635C84.6248 39.2586 86.305 40.906 89.149 43.1354C89.149 43.1354 88.0917 42.9879 86.9443 44.2501C85.7968 45.5205 81.3873 47.0286 77.5597 46.0942C73.7239 45.1598 72.3961 44.8894 72.3961 44.8894L72.4043 44.8812Z" stroke="black" stroke-miterlimit="2.61313" stroke-linecap="round" stroke-linejoin="round"></path>
<mask id="mask1_334_282" style="mask-type:alpha" maskunits="userSpaceOnUse" x="76" y="38" width="9" height="9">
<path d="M80.5159 46.024C82.5529 46.024 84.2042 44.3727 84.2042 42.3357C84.2042 40.2988 82.5529 38.6475 80.5159 38.6475C78.4789 38.6475 76.8276 40.2988 76.8276 42.3357C76.8276 44.3727 78.4789 46.024 80.5159 46.024Z" stroke="black" stroke-miterlimit="2.61313" stroke-linecap="round" stroke-linejoin="round"></path>
</mask>
<g mask="url(#mask1_334_282)">
<path fill-rule="evenodd" clip-rule="evenodd" d="M72.4043 44.8812C70.1094 44.5533 75.7237 41.1847 75.9942 40.988C77.24 40.0946 78.8875 39.5537 80.6414 39.4635C84.6248 39.2586 86.305 40.906 89.149 43.1354C89.149 43.1354 88.0917 42.9879 86.9443 44.2501C85.7968 45.5205 81.3873 47.0286 77.5597 46.0942C73.7239 45.1598 72.3961 44.8894 72.3961 44.8894L72.4043 44.8812Z" fill="black" stroke="black" stroke-miterlimit="2.61313" stroke-linecap="round" stroke-linejoin="round"></path>
</g>
<path d="M72.9419 43.4229C72.9419 43.4229 73.655 44.1605 73.3599 45.0211" stroke="black" stroke-miterlimit="2.61313" stroke-linecap="round" stroke-linejoin="round"></path>
<path d="M72.0811 42.3771C72.0811 42.3771 74.6792 37.8528 80.7772 37.7873C86.8751 37.7299 89.8913 41.4428 89.8913 41.4428" stroke="black" stroke-miterlimit="2.61313" stroke-linecap="round" stroke-linejoin="round"></path>
<path fill-rule="evenodd" clip-rule="evenodd" d="M71.3237 35.9253C71.3237 35.9253 70.2337 34.5155 73.3728 32.8681C73.3728 32.8681 84.7818 29.4831 87.4374 29.8109C90.0929 30.1388 94.2566 33.4746 94.2566 33.4746C94.2566 33.4746 89.6094 31.6879 84.2983 33.0976C78.9872 34.5073 71.8647 36.4826 71.3237 35.9171V35.9253Z" stroke="black" stroke-miterlimit="2.61313" stroke-linecap="round" stroke-linejoin="round"></path>
<path d="M62.2246 68.7271C62.2246 68.7271 63.7163 68.768 64.3228 68.0796C64.9293 67.3911 66.4538 66.7928 67.6668 66.8747" stroke="black" stroke-miterlimit="2.61313" stroke-linecap="round" stroke-linejoin="round"></path>
<path d="M69.3815 63.4971C69.3815 63.4971 71.3977 67.7263 67.2095 68.4148" stroke="black" stroke-miterlimit="2.61313" stroke-linecap="round" stroke-linejoin="round"></path>
<path d="M68.5858 40.7607C68.5858 40.7607 64.9631 43.9818 65.6843 52.8419" stroke="black" stroke-miterlimit="2.61313" stroke-linecap="round" stroke-linejoin="round"></path>
<path d="M61.9985 81.7749C61.9985 81.7749 62.7444 81.7339 63.6706 81.3487C64.5967 80.9635 69.2275 80.7831 71.4815 81.3077C73.7354 81.8322 74.4239 80.5864 76.8418 80.5864" stroke="black" stroke-miterlimit="2.61313" stroke-linecap="round" stroke-linejoin="round"></path>
<path d="M103.982 40.9985C103.982 40.9985 99.1629 61.2512 96.5894 71.8079C94.0076 82.3645 93.3683 84.1349 87.7293 89.4542C82.0904 94.7735 71.2714 104.765 62.0098 104.765" stroke="black" stroke-miterlimit="2.61313" stroke-linecap="round" stroke-linejoin="round"></path>
<path d="M107.452 38.2114C107.452 38.2114 110.558 38.2524 109.509 42.7603C108.46 47.2682 104.673 53.8005 104.19 58.6281C103.706 63.4638 101.805 64.8899 98.3296 64.5785" stroke="black" stroke-miterlimit="2.61313" stroke-linecap="round" stroke-linejoin="round"></path>
<path d="M106.661 44.9407C106.661 44.9407 106.145 42.7687 105.12 43.49C104.096 44.2113 101.94 49.9322 101.94 49.9322C101.94 49.9322 103.325 52.8336 102.555 53.7188C101.784 54.604 100.301 56.4071 100.301 56.4071" stroke="black" stroke-miterlimit="2.61313" stroke-linecap="round" stroke-linejoin="round"></path>
<path d="M75.2057 54.5379C75.0992 54.3985 75.1238 54.1936 75.2631 54.0871C75.4024 53.9805 75.6073 54.0051 75.7139 54.1444L75.2057 54.5379ZM112.933 57.3327L113.392 57.7917L111.523 59.5375L109.671 61.0456L107.835 62.3242L106.015 63.3897L104.212 64.2503L102.433 64.9224L100.688 65.4142L98.9664 65.7338L97.2862 65.8977L95.6387 65.9141L94.0323 65.7994L92.475 65.5617L90.9669 65.2175L89.508 64.7831L88.1065 64.2585L86.7623 63.6684L85.4755 63.0209L84.2461 62.3242L83.0822 61.5948L81.9921 60.8407L80.9676 60.0785L80.0169 59.3244L79.1481 58.5786L78.353 57.8655L77.64 57.1852L77.0171 56.5623L76.4761 55.9968L76.0253 55.505L75.6729 55.1034L75.4188 54.8001L75.2631 54.6116L75.2057 54.5379L75.7139 54.1444L75.7631 54.2018L75.9106 54.3903L76.1565 54.6854L76.5007 55.0788L76.9351 55.5624L77.4597 56.1197L78.0744 56.7344L78.771 57.3983L79.5497 58.1032L80.4103 58.8326L81.3446 59.5785L82.3446 60.3243L83.4183 61.062L84.5575 61.7751L85.7542 62.4553L87.0164 63.0865L88.3278 63.6602L89.6965 64.1683L91.1145 64.5945L92.5816 64.9306L94.0897 65.1601L95.6387 65.2748L97.2288 65.2584L98.8598 65.1027L100.524 64.7913L102.22 64.3159L103.941 63.6684L105.695 62.8324L107.474 61.7915L109.269 60.5374L111.088 59.0621L112.924 57.3409L112.933 57.3327ZM115.826 54.8985L114.424 59.1195L111.613 56.3082L115.826 54.8985ZM112.933 57.3327C113.056 57.2098 113.26 57.2098 113.392 57.3327C113.515 57.4557 113.515 57.6606 113.392 57.7917L112.933 57.3327Z" fill="#008763"></path>
<path d="M75.2057 54.5379C75.0992 54.3985 75.1238 54.1936 75.2631 54.0871C75.4024 53.9805 75.6073 54.0051 75.7139 54.1444M75.2057 54.5379L75.7139 54.1444M75.2057 54.5379L75.2631 54.6116L75.4188 54.8001L75.6729 55.1034L76.0253 55.505L76.4761 55.9968L77.0171 56.5623L77.64 57.1852L78.353 57.8655L79.1481 58.5786L80.0169 59.3244L80.9676 60.0785L81.9921 60.8407L83.0822 61.5948L84.2461 62.3242L85.4755 63.0209L86.7623 63.6684L88.1065 64.2585L89.508 64.7831L90.9669 65.2175L92.475 65.5617L94.0323 65.7994L95.6387 65.9141L97.2862 65.8977L98.9664 65.7338L100.688 65.4142L102.433 64.9224L104.212 64.2503L106.015 63.3897L107.835 62.3242L109.671 61.0456L111.523 59.5375L113.392 57.7917M75.7139 54.1444L75.7631 54.2018L75.9106 54.3903L76.1565 54.6854L76.5007 55.0788L76.9351 55.5624L77.4597 56.1197L78.0744 56.7344L78.771 57.3983L79.5497 58.1032L80.4103 58.8326L81.3446 59.5785L82.3446 60.3243L83.4183 61.062L84.5575 61.7751L85.7542 62.4553L87.0164 63.0865L88.3278 63.6602L89.6965 64.1683L91.1145 64.5945L92.5816 64.9306L94.0897 65.1601L95.6387 65.2748L97.2288 65.2584L98.8598 65.1027L100.524 64.7913L102.22 64.3159L103.941 63.6684L105.695 62.8324L107.474 61.7915L109.269 60.5374L111.088 59.0621L112.924 57.3409L112.933 57.3327M112.933 57.3327L113.392 57.7917M112.933 57.3327C113.056 57.2098 113.26 57.2098 113.392 57.3327C113.515 57.4557 113.515 57.6606 113.392 57.7917M115.826 54.8985L114.424 59.1195L111.613 56.3082L115.826 54.8985Z" stroke="#008763" stroke-width="2"></path>
<path d="M48.2765 54.1444C48.3831 54.0051 48.588 53.9805 48.7273 54.0871C48.8667 54.1936 48.8913 54.3985 48.7847 54.5379L48.2765 54.1444ZM10.5988 57.7917L11.0578 57.3327L12.8937 59.0539L14.7133 60.5292L16.5082 61.7833L18.2868 62.8242L20.0408 63.6602L21.762 64.3077L23.4586 64.7831L25.1224 65.0945L26.7534 65.2502L28.3435 65.2666L29.8926 65.1519L31.4007 64.9224L32.8678 64.5864L34.2857 64.1601L35.6545 63.652L36.9658 63.0783L38.2281 62.4472L39.4247 61.7669L40.564 61.0538L41.6377 60.3161L42.6376 59.5703L43.5719 58.8244L44.4325 58.095L45.2112 57.3901L45.9079 56.7262L46.5226 56.1115L47.0471 55.5542L47.4815 55.0706L47.8258 54.6772L48.0716 54.3821L48.2192 54.1936L48.2683 54.1362L48.7765 54.5297L48.7191 54.6034L48.5634 54.7919L48.3093 55.0952L47.9569 55.4968L47.5061 55.9886L46.9652 56.5541L46.3423 57.177L45.6292 57.8573L44.8342 58.5704L43.9654 59.3162L43.0146 60.0703L41.9901 60.8325L40.9 61.5866L39.7361 62.316L38.5067 63.0127L37.2199 63.6602L35.8758 64.2503L34.4742 64.7749L33.0153 65.2093L31.5072 65.5535L29.9499 65.7912L28.3435 65.9059L26.6961 65.8895L25.0159 65.7256L23.2947 65.406L21.5489 64.9142L19.7703 64.2421L17.9672 63.3815L16.1476 62.316L14.3117 61.0374L12.4593 59.5293L10.5906 57.7835L10.5988 57.7917ZM8.16455 54.8903L12.3856 56.3L9.57429 59.1113L8.16455 54.8903ZM10.5988 57.7917C10.4759 57.6688 10.4759 57.4639 10.5988 57.3327C10.7218 57.2098 10.9267 57.2098 11.0578 57.3327L10.5988 57.7917Z" fill="#008763"></path>
<path d="M10.5988 57.7917L11.0578 57.3327M10.5988 57.7917L10.5906 57.7835L12.4593 59.5293L14.3117 61.0374L16.1476 62.316L17.9672 63.3815L19.7703 64.2421L21.5489 64.9142L23.2947 65.406L25.0159 65.7256L26.6961 65.8895L28.3435 65.9059L29.9499 65.7912L31.5072 65.5535L33.0153 65.2093L34.4742 64.7749L35.8758 64.2503L37.2199 63.6602L38.5067 63.0127L39.7361 62.316L40.9 61.5866L41.9901 60.8325L43.0146 60.0703L43.9654 59.3162L44.8342 58.5704L45.6292 57.8573L46.3423 57.177L46.9652 56.5541L47.5061 55.9886L47.9569 55.4968L48.3093 55.0952L48.5634 54.7919L48.7191 54.6034L48.7765 54.5297L48.2683 54.1362L48.2192 54.1936L48.0716 54.3821L47.8258 54.6772L47.4815 55.0706L47.0471 55.5542L46.5226 56.1115L45.9079 56.7262L45.2112 57.3901L44.4325 58.095L43.5719 58.8244L42.6376 59.5703L41.6377 60.3161L40.564 61.0538L39.4247 61.7669L38.2281 62.4472L36.9658 63.0783L35.6545 63.652L34.2857 64.1601L32.8678 64.5864L31.4007 64.9224L29.8926 65.1519L28.3435 65.2666L26.7534 65.2502L25.1224 65.0945L23.4586 64.7831L21.762 64.3077L20.0408 63.6602L18.2868 62.8242L16.5082 61.7833L14.7133 60.5292L12.8937 59.0539L11.0578 57.3327M10.5988 57.7917C10.4759 57.6688 10.4759 57.4639 10.5988 57.3327C10.7218 57.2098 10.9267 57.2098 11.0578 57.3327M48.2765 54.1444C48.3831 54.0051 48.588 53.9805 48.7273 54.0871C48.8667 54.1936 48.8913 54.3985 48.7847 54.5379L48.2765 54.1444ZM8.16455 54.8903L12.3856 56.3L9.57429 59.1113L8.16455 54.8903Z" stroke="#008763" stroke-width="2"></path>
</svg>