<svg width="41" height="35" viewbox="0 0 41 35" fill="none" xmlns="http://www.w3.org/2000/svg">
<path d="M21.3279 23.4228C18.2308 23.4228 15.7216 20.9121 15.7216 17.8164" stroke="black" stroke-width="0.7" stroke-miterlimit="2.61313" stroke-linecap="round" stroke-linejoin="round"></path>
<path fill-rule="evenodd" clip-rule="evenodd" d="M16.9027 26.4171C18.0713 27.0077 19.3925 27.3404 20.7913 27.3404H20.7983H20.8052C22.204 27.3404 23.5252 27.0077 24.6939 26.4171L24.6911 26.4116C27.504 24.9864 29.4324 22.0668 29.4324 18.698C29.4324 18.497 29.4241 18.2973 29.4116 18.1005H29.413C29.413 18.1005 29.4157 18.0797 29.4185 18.0381L29.4324 18.0353C29.4587 17.4974 29.3201 13.3897 20.8052 1L20.7983 1.0097L20.7913 1C12.2778 13.3897 12.1392 17.496 12.1642 18.0353L12.178 18.0381C12.1808 18.0797 12.1836 18.1005 12.1836 18.1005H12.185C12.1711 18.2973 12.1642 18.497 12.1642 18.698C12.1642 22.0668 14.0926 24.9864 16.9054 26.4116L16.9027 26.4171V26.4171Z" stroke="black" stroke-width="0.7" stroke-miterlimit="2.61313" stroke-linecap="round" stroke-linejoin="round"></path>
<path d="M1 14.1714H12.9738" stroke="black" stroke-width="0.7" stroke-miterlimit="2.61313" stroke-linecap="round" stroke-linejoin="round"></path>
<path d="M28.4301 14.1714H40.4039" stroke="black" stroke-width="0.7" stroke-miterlimit="2.61313" stroke-linecap="round" stroke-linejoin="round"></path>
<path d="M20.7997 34.4758V31.333" stroke="black" stroke-width="0.7" stroke-miterlimit="2.61313" stroke-linecap="round" stroke-linejoin="round"></path>
<path d="M12.77 32.3245L14.3407 29.6045" stroke="black" stroke-width="0.7" stroke-miterlimit="2.61313" stroke-linecap="round" stroke-linejoin="round"></path>
<path d="M6.89197 26.4462L9.61196 24.8755" stroke="black" stroke-width="0.7" stroke-miterlimit="2.61313" stroke-linecap="round" stroke-linejoin="round"></path>
<path d="M33.7148 18.418H36.8577" stroke="black" stroke-width="0.7" stroke-miterlimit="2.61313" stroke-linecap="round" stroke-linejoin="round"></path>
<path d="M4.7417 18.418H7.88314" stroke="black" stroke-width="0.7" stroke-miterlimit="2.61313" stroke-linecap="round" stroke-linejoin="round"></path>
<path d="M31.9861 24.8755L34.7061 26.4462" stroke="black" stroke-width="0.7" stroke-miterlimit="2.61313" stroke-linecap="round" stroke-linejoin="round"></path>
<path d="M27.2572 29.6045L28.8279 32.3245" stroke="black" stroke-width="0.7" stroke-miterlimit="2.61313" stroke-linecap="round" stroke-linejoin="round"></path>
</svg>