<svg width="124" height="124" viewbox="0 0 124 124" fill="none" xmlns="http://www.w3.org/2000/svg">
<path d="M43.2038 44.367C44.3278 44.367 45.2391 43.4558 45.2391 42.3317C45.2391 41.2076 44.3278 40.2964 43.2038 40.2964C42.0797 40.2964 41.1685 41.2076 41.1685 42.3317C41.1685 43.4558 42.0797 44.367 43.2038 44.367Z" fill="black"></path>
<path d="M41.8017 42.1067C42.2328 42.1067 42.5823 41.7572 42.5823 41.3261C42.5823 40.8949 42.2328 40.5454 41.8017 40.5454C41.3705 40.5454 41.021 40.8949 41.021 41.3261C41.021 41.7572 41.3705 42.1067 41.8017 42.1067Z" fill="white"></path>
<path fill-rule="evenodd" clip-rule="evenodd" d="M51.3031 44.8731C53.5949 44.5441 47.9853 41.1761 47.712 40.9809C46.4686 40.0887 44.818 39.5422 43.0615 39.453C39.0801 39.2467 37.4017 40.8917 34.5522 43.1221C34.5522 43.1221 35.6061 42.9716 36.7548 44.2374C37.9035 45.5032 42.3087 47.0143 46.1396 46.0775C49.9704 45.1407 51.3031 44.8675 51.3031 44.8675V44.8731Z" stroke="black" stroke-miterlimit="2.61313" stroke-linecap="round" stroke-linejoin="round"></path>
<mask id="mask0_334_226" style="mask-type:alpha" maskunits="userSpaceOnUse" x="39" y="38" width="9" height="9">
<path d="M43.2 46.0138C45.2357 46.0138 46.8859 44.3636 46.8859 42.3279C46.8859 40.2923 45.2357 38.6421 43.2 38.6421C41.1644 38.6421 39.5142 40.2923 39.5142 42.3279C39.5142 44.3636 41.1644 46.0138 43.2 46.0138Z" stroke="black" stroke-miterlimit="2.61313" stroke-linecap="round" stroke-linejoin="round"></path>
</mask>
<g mask="url(#mask0_334_226)">
<path fill-rule="evenodd" clip-rule="evenodd" d="M51.3031 44.8726C53.5949 44.5436 47.9853 41.1756 47.712 40.9804C46.4686 40.0882 44.818 39.5417 43.0615 39.4525C39.0801 39.2462 37.4017 40.8912 34.5522 43.1217C34.5522 43.1217 35.6061 42.9711 36.7548 44.2369C37.9035 45.5027 42.3087 47.0138 46.1396 46.077C49.9704 45.1402 51.3031 44.867 51.3031 44.867V44.8726Z" fill="black" stroke="black" stroke-miterlimit="2.61313" stroke-linecap="round" stroke-linejoin="round"></path>
</g>
<path d="M50.7648 43.4116C50.7648 43.4116 50.0566 44.1477 50.3466 45.0064" stroke="black" stroke-miterlimit="2.61313" stroke-linecap="round" stroke-linejoin="round"></path>
<path d="M51.6375 42.3712C51.6375 42.3712 49.0446 37.8433 42.9442 37.782C36.8494 37.7207 33.8271 41.4344 33.8271 41.4344" stroke="black" stroke-miterlimit="2.61313" stroke-linecap="round" stroke-linejoin="round"></path>
<path fill-rule="evenodd" clip-rule="evenodd" d="M52.3894 35.9172C52.3894 35.9172 53.4768 34.5064 50.3374 32.8615C50.3374 32.8615 38.9285 29.4767 36.2743 29.8057C33.62 30.1347 29.4546 33.4693 29.4546 33.4693C29.4546 33.4693 34.1051 31.6849 39.4137 33.0957C44.7278 34.5064 51.8486 36.4804 52.3894 35.9116V35.9172Z" stroke="black" stroke-miterlimit="2.61313" stroke-linecap="round" stroke-linejoin="round"></path>
<path d="M61.4966 68.7255C61.4966 68.7255 60.0077 68.7646 59.3999 68.0787C58.7977 67.3928 57.2642 66.7906 56.0542 66.8687" stroke="black" stroke-miterlimit="2.61313" stroke-linecap="round" stroke-linejoin="round"></path>
<path d="M54.3288 63.4863C54.3288 63.4863 52.3158 67.7131 56.5036 68.3989" stroke="black" stroke-miterlimit="2.61313" stroke-linecap="round" stroke-linejoin="round"></path>
<path d="M55.1255 40.7607C55.1255 40.7607 58.75 43.9838 58.0251 52.8443" stroke="black" stroke-miterlimit="2.61313" stroke-linecap="round" stroke-linejoin="round"></path>
<path fill-rule="evenodd" clip-rule="evenodd" d="M61.7153 76.8165C61.7153 76.8165 58.7543 75.3667 56.6577 76.5767C54.561 77.7867 48.6001 80.7644 48.6001 80.7644C48.6001 80.7644 51.2599 88.9001 61.7097 88.9001C72.1651 88.9001 74.8193 80.7644 74.8193 80.7644C74.8193 80.7644 68.8584 77.7811 66.7617 76.5767C64.6651 75.3667 61.7041 76.8165 61.7041 76.8165H61.7153Z" stroke="black" stroke-miterlimit="2.61313" stroke-linecap="round" stroke-linejoin="round"></path>
<path d="M61.7105 81.7688C61.7105 81.7688 60.9633 81.7298 60.0376 81.345C59.112 80.9602 54.4782 80.7818 52.2254 81.306C49.9671 81.8301 49.2868 80.5811 46.8667 80.5811" stroke="black" stroke-miterlimit="2.61313" stroke-linecap="round" stroke-linejoin="round"></path>
<path d="M19.7344 40.9873C19.7344 40.9873 24.5522 61.2456 27.1284 71.7957C29.7046 82.3515 30.3514 84.1247 35.989 89.4388C41.6265 94.7585 52.4499 104.745 61.7119 104.745" stroke="black" stroke-miterlimit="2.61313" stroke-linecap="round" stroke-linejoin="round"></path>
<path d="M16.2532 38.2119C16.2532 38.2119 13.1473 38.2509 14.1956 42.7621C15.2439 47.2732 19.0302 53.7974 19.5153 58.6319C20.0004 63.4665 21.8963 64.8884 25.3814 64.5817" stroke="black" stroke-miterlimit="2.61313" stroke-linecap="round" stroke-linejoin="round"></path>
<path d="M17.061 44.9303C17.061 44.9303 17.574 42.7556 18.6001 43.4805C19.6261 44.2054 21.7785 49.9265 21.7785 49.9265C21.7785 49.9265 20.3956 52.8261 21.1651 53.7128C21.9346 54.5994 23.4235 56.4005 23.4235 56.4005" stroke="black" stroke-miterlimit="2.61313" stroke-linecap="round" stroke-linejoin="round"></path>
<path d="M80.2375 44.367C81.3615 44.367 82.2728 43.4558 82.2728 42.3317C82.2728 41.2076 81.3615 40.2964 80.2375 40.2964C79.1134 40.2964 78.2021 41.2076 78.2021 42.3317C78.2021 43.4558 79.1134 44.367 80.2375 44.367Z" fill="black"></path>
<path d="M78.8354 42.1067C79.2665 42.1067 79.616 41.7572 79.616 41.3261C79.616 40.8949 79.2665 40.5454 78.8354 40.5454C78.4042 40.5454 78.0547 40.8949 78.0547 41.3261C78.0547 41.7572 78.4042 42.1067 78.8354 42.1067Z" fill="white"></path>
<path fill-rule="evenodd" clip-rule="evenodd" d="M72.1235 44.8731C69.8317 44.5441 75.4414 41.1761 75.7146 40.9809C76.9581 40.0887 78.6086 39.5422 80.3651 39.453C84.3465 39.2467 86.025 40.8917 88.8744 43.1221C88.8744 43.1221 87.8205 42.9716 86.6718 44.2374C85.5231 45.5032 81.1179 47.0143 77.2871 46.0775C73.4562 45.1407 72.1235 44.8675 72.1235 44.8675V44.8731Z" stroke="black" stroke-miterlimit="2.61313" stroke-linecap="round" stroke-linejoin="round"></path>
<mask id="mask1_334_226" style="mask-type:alpha" maskunits="userSpaceOnUse" x="76" y="38" width="9" height="9">
<path d="M80.2337 46.0138C82.2694 46.0138 83.9196 44.3636 83.9196 42.3279C83.9196 40.2923 82.2694 38.6421 80.2337 38.6421C78.1981 38.6421 76.5479 40.2923 76.5479 42.3279C76.5479 44.3636 78.1981 46.0138 80.2337 46.0138Z" stroke="black" stroke-miterlimit="2.61313" stroke-linecap="round" stroke-linejoin="round"></path>
</mask>
<g mask="url(#mask1_334_226)">
<path fill-rule="evenodd" clip-rule="evenodd" d="M72.1235 44.8726C69.8317 44.5436 75.4414 41.1756 75.7146 40.9804C76.9581 40.0882 78.6086 39.5417 80.3651 39.4525C84.3465 39.2462 86.025 40.8912 88.8744 43.1217C88.8744 43.1217 87.8205 42.9711 86.6718 44.2369C85.5231 45.5027 81.1179 47.0138 77.2871 46.077C73.4562 45.1402 72.1235 44.867 72.1235 44.867V44.8726Z" fill="black" stroke="black" stroke-miterlimit="2.61313" stroke-linecap="round" stroke-linejoin="round"></path>
</g>
<path d="M72.6509 43.4116C72.6509 43.4116 73.3591 44.1477 73.0691 45.0064" stroke="black" stroke-miterlimit="2.61313" stroke-linecap="round" stroke-linejoin="round"></path>
<path d="M71.79 42.3712C71.79 42.3712 74.383 37.8433 80.4833 37.782C86.5781 37.7207 89.6004 41.4344 89.6004 41.4344" stroke="black" stroke-miterlimit="2.61313" stroke-linecap="round" stroke-linejoin="round"></path>
<path fill-rule="evenodd" clip-rule="evenodd" d="M71.0429 35.9172C71.0429 35.9172 69.9556 34.5064 73.095 32.8615C73.095 32.8615 84.5038 29.4767 87.1581 29.8057C89.8124 30.1347 93.9778 33.4693 93.9778 33.4693C93.9778 33.4693 89.3272 31.6849 84.0187 33.0957C78.7046 34.5064 71.5838 36.4804 71.0429 35.9116V35.9172Z" stroke="black" stroke-miterlimit="2.61313" stroke-linecap="round" stroke-linejoin="round"></path>
<path d="M61.9341 68.7255C61.9341 68.7255 63.4229 68.7646 64.0307 68.0787C64.633 67.3928 66.1664 66.7906 67.3764 66.8687" stroke="black" stroke-miterlimit="2.61313" stroke-linecap="round" stroke-linejoin="round"></path>
<path d="M69.1044 63.4863C69.1044 63.4863 71.1174 67.7131 66.9297 68.3989" stroke="black" stroke-miterlimit="2.61313" stroke-linecap="round" stroke-linejoin="round"></path>
<path d="M68.2938 40.7607C68.2938 40.7607 64.6693 43.9838 65.3942 52.8443" stroke="black" stroke-miterlimit="2.61313" stroke-linecap="round" stroke-linejoin="round"></path>
<path d="M61.7188 81.7688C61.7188 81.7688 62.466 81.7298 63.3916 81.345C64.3173 80.9602 68.9511 80.7818 71.2038 81.306C73.4622 81.8301 74.1425 80.5811 76.5626 80.5811" stroke="black" stroke-miterlimit="2.61313" stroke-linecap="round" stroke-linejoin="round"></path>
<path d="M103.685 40.9873C103.685 40.9873 98.8672 61.2456 96.291 71.7957C93.7148 82.3515 93.068 84.1247 87.4305 89.4388C81.7929 94.7585 70.9696 104.745 61.7075 104.745" stroke="black" stroke-miterlimit="2.61313" stroke-linecap="round" stroke-linejoin="round"></path>
<path d="M107.178 38.2119C107.178 38.2119 110.284 38.2509 109.236 42.7621C108.187 47.2732 104.401 53.7974 103.916 58.6319C103.431 63.4665 101.535 64.8884 98.0498 64.5817" stroke="black" stroke-miterlimit="2.61313" stroke-linecap="round" stroke-linejoin="round"></path>
<path d="M106.372 44.9303C106.372 44.9303 105.859 42.7556 104.833 43.4805C103.807 44.2054 101.655 49.9265 101.655 49.9265C101.655 49.9265 103.038 52.8261 102.268 53.7128C101.499 54.5994 100.01 56.4005 100.01 56.4005" stroke="black" stroke-miterlimit="2.61313" stroke-linecap="round" stroke-linejoin="round"></path>
<path d="M61.712 54.9646C62.1462 54.9646 62.4983 54.6126 62.4983 54.1783C62.4983 53.7441 62.1462 53.3921 61.712 53.3921C61.2778 53.3921 60.9258 53.7441 60.9258 54.1783C60.9258 54.6126 61.2778 54.9646 61.712 54.9646Z" fill="#008763" stroke="#008763" stroke-width="2"></path>
<path d="M56.5348 59.4621C56.969 59.4621 57.321 59.1101 57.321 58.6759C57.321 58.2417 56.969 57.8896 56.5348 57.8896C56.1005 57.8896 55.7485 58.2417 55.7485 58.6759C55.7485 59.1101 56.1005 59.4621 56.5348 59.4621Z" fill="#008763" stroke="#008763" stroke-width="2"></path>
<path d="M52.921 55.4065C53.3552 55.4065 53.7072 55.0545 53.7072 54.6202C53.7072 54.186 53.3552 53.834 52.921 53.834C52.4868 53.834 52.1348 54.186 52.1348 54.6202C52.1348 55.0545 52.4868 55.4065 52.921 55.4065Z" fill="#008763" stroke="#008763" stroke-width="2"></path>
<path d="M48.7179 58.635C49.1521 58.635 49.5041 58.283 49.5041 57.8487C49.5041 57.4145 49.1521 57.0625 48.7179 57.0625C48.2837 57.0625 47.9316 57.4145 47.9316 57.8487C47.9316 58.283 48.2837 58.635 48.7179 58.635Z" fill="#008763" stroke="#008763" stroke-width="2"></path>
<path d="M45.4098 55.01C45.844 55.01 46.196 54.658 46.196 54.2237C46.196 53.7895 45.844 53.4375 45.4098 53.4375C44.9756 53.4375 44.6235 53.7895 44.6235 54.2237C44.6235 54.658 44.9756 55.01 45.4098 55.01Z" fill="#008763" stroke="#008763" stroke-width="2"></path>
<path d="M43.235 59.9494C43.6692 59.9494 44.0212 59.5974 44.0212 59.1632C44.0212 58.729 43.6692 58.377 43.235 58.377C42.8007 58.377 42.4487 58.729 42.4487 59.1632C42.4487 59.5974 42.8007 59.9494 43.235 59.9494Z" fill="#008763" stroke="#008763" stroke-width="2"></path>
<path d="M39.213 56.3923C39.6472 56.3923 39.9992 56.0403 39.9992 55.6061C39.9992 55.1718 39.6472 54.8198 39.213 54.8198C38.7788 54.8198 38.4268 55.1718 38.4268 55.6061C38.4268 56.0403 38.7788 56.3923 39.213 56.3923Z" fill="#008763" stroke="#008763" stroke-width="2"></path>
<path d="M66.8893 59.4621C67.3235 59.4621 67.6755 59.1101 67.6755 58.6759C67.6755 58.2417 67.3235 57.8896 66.8893 57.8896C66.455 57.8896 66.103 58.2417 66.103 58.6759C66.103 59.1101 66.455 59.4621 66.8893 59.4621Z" fill="#008763" stroke="#008763" stroke-width="2"></path>
<path d="M70.4918 55.4065C70.926 55.4065 71.2781 55.0545 71.2781 54.6202C71.2781 54.186 70.926 53.834 70.4918 53.834C70.0576 53.834 69.7056 54.186 69.7056 54.6202C69.7056 55.0545 70.0576 55.4065 70.4918 55.4065Z" fill="#008763" stroke="#008763" stroke-width="2"></path>
<path d="M74.7062 58.635C75.1404 58.635 75.4924 58.283 75.4924 57.8487C75.4924 57.4145 75.1404 57.0625 74.7062 57.0625C74.2719 57.0625 73.9199 57.4145 73.9199 57.8487C73.9199 58.283 74.2719 58.635 74.7062 58.635Z" fill="#008763" stroke="#008763" stroke-width="2"></path>
<path d="M78.0025 55.01C78.4368 55.01 78.7888 54.658 78.7888 54.2237C78.7888 53.7895 78.4368 53.4375 78.0025 53.4375C77.5683 53.4375 77.2163 53.7895 77.2163 54.2237C77.2163 54.658 77.5683 55.01 78.0025 55.01Z" fill="#008763" stroke="#008763" stroke-width="2"></path>
<path d="M80.1778 59.9494C80.6121 59.9494 80.9641 59.5974 80.9641 59.1632C80.9641 58.729 80.6121 58.377 80.1778 58.377C79.7436 58.377 79.3916 58.729 79.3916 59.1632C79.3916 59.5974 79.7436 59.9494 80.1778 59.9494Z" fill="#008763" stroke="#008763" stroke-width="2"></path>
<path d="M84.2105 56.3923C84.6448 56.3923 84.9968 56.0403 84.9968 55.6061C84.9968 55.1718 84.6448 54.8198 84.2105 54.8198C83.7763 54.8198 83.4243 55.1718 83.4243 55.6061C83.4243 56.0403 83.7763 56.3923 84.2105 56.3923Z" fill="#008763" stroke="#008763" stroke-width="2"></path>
</svg>