<svg width="42" height="31" viewbox="0 0 42 31" fill="none" xmlns="http://www.w3.org/2000/svg">
<path d="M16.6649 1H33.3113L37.5868 16.3481" stroke="black" stroke-width="0.7" stroke-miterlimit="2.61313" stroke-linecap="round" stroke-linejoin="round"></path>
<path fill-rule="evenodd" clip-rule="evenodd" d="M37.5868 16.3481H5.21106C5.21106 16.3481 9.93159 8.1123 18.1886 8.1123H35.3429L37.5868 16.3481V16.3481Z" stroke="black" stroke-width="0.7" stroke-miterlimit="2.61313" stroke-linecap="round" stroke-linejoin="round"></path>
<path fill-rule="evenodd" clip-rule="evenodd" d="M22.9279 6.01855H24.9848C26.1362 6.01855 27.0785 6.96086 27.0785 8.11221H20.8351C20.8351 6.96086 21.7774 6.01855 22.9287 6.01855H22.9279Z" stroke="black" stroke-width="0.7" stroke-miterlimit="2.61313" stroke-linecap="round" stroke-linejoin="round"></path>
<path d="M7.05884 13.8354H36.887" stroke="black" stroke-width="0.7" stroke-miterlimit="2.61313" stroke-linecap="round" stroke-linejoin="round"></path>
<path d="M2.34485 21.1323C2.83315 21.1323 3.22592 20.9037 3.73382 20.7053C4.19681 20.5175 4.57324 20.3133 5.03541 20.3133C5.5229 20.3133 5.84871 20.5656 6.34436 20.7984C7.4263 21.3071 7.7072 21.1585 8.74178 20.7396C9.24968 20.5411 9.64163 20.3125 10.1307 20.3125C10.619 20.3125 11.0118 20.5403 11.5197 20.7396C11.9827 20.9274 12.3591 21.1315 12.8213 21.1315C13.2835 21.1315 13.6599 20.9274 14.1229 20.7396C14.6308 20.5411 15.0228 20.3125 15.5119 20.3125C16.0002 20.3125 16.3929 20.5403 16.9008 20.7396C17.3638 20.9274 17.7403 21.1315 18.2024 21.1315" stroke="black" stroke-width="0.7" stroke-miterlimit="2.61313" stroke-linecap="round" stroke-linejoin="round"></path>
<path d="M18.2008 21.1323C18.6891 21.1323 19.0819 20.9037 19.5898 20.7053C20.0528 20.5175 20.4292 20.3133 20.8914 20.3133C21.3789 20.3133 21.7047 20.5656 22.2003 20.7984C23.2823 21.3071 23.5632 21.1585 24.5977 20.7396C25.1056 20.5411 25.4976 20.3125 25.9867 20.3125C26.475 20.3125 26.8678 20.5403 27.3757 20.7396C27.8387 20.9274 28.2151 21.1315 28.6773 21.1315C29.1394 21.1315 29.5159 20.9274 29.9789 20.7396C30.4868 20.5411 30.8787 20.3125 31.3678 20.3125C31.8561 20.3125 32.2489 20.5403 32.7568 20.7396C33.2198 20.9274 33.5962 21.1315 34.0584 21.1315" stroke="black" stroke-width="0.7" stroke-miterlimit="2.61313" stroke-linecap="round" stroke-linejoin="round"></path>
<path d="M34.0568 21.1325C34.5451 21.1325 34.9378 20.9038 35.4457 20.7054C35.9087 20.5176 36.2852 20.3135 36.7473 20.3135C37.2348 20.3135 37.5606 20.5658 38.0563 20.7985C39.1382 21.3072 39.4191 21.1586 40.4537 20.7397" stroke="black" stroke-width="0.7" stroke-miterlimit="2.61313" stroke-linecap="round" stroke-linejoin="round"></path>
<path d="M1 11.9614L3.5542 12.6228" stroke="black" stroke-width="0.7" stroke-miterlimit="2.61313" stroke-linecap="round" stroke-linejoin="round"></path>
<path d="M4.43933 5.88721L6.31987 7.73671" stroke="black" stroke-width="0.7" stroke-miterlimit="2.61313" stroke-linecap="round" stroke-linejoin="round"></path>
<path d="M10.1194 2.85791L10.8241 5.39986" stroke="black" stroke-width="0.7" stroke-miterlimit="2.61313" stroke-linecap="round" stroke-linejoin="round"></path>
<path d="M11.2372 24.9546V29.7764" stroke="black" stroke-width="0.7" stroke-miterlimit="2.61313" stroke-linecap="round" stroke-linejoin="round"></path>
<path d="M9.80981 28.6953L11.2372 29.7764" stroke="black" stroke-width="0.7" stroke-miterlimit="2.61313" stroke-linecap="round" stroke-linejoin="round"></path>
<path d="M12.6637 28.6953L11.2372 29.7764" stroke="black" stroke-width="0.7" stroke-miterlimit="2.61313" stroke-linecap="round" stroke-linejoin="round"></path>
<path d="M18.0114 24.9546V29.7764" stroke="black" stroke-width="0.7" stroke-miterlimit="2.61313" stroke-linecap="round" stroke-linejoin="round"></path>
<path d="M16.5848 28.6953L18.0114 29.7764" stroke="black" stroke-width="0.7" stroke-miterlimit="2.61313" stroke-linecap="round" stroke-linejoin="round"></path>
<path d="M19.4387 28.6953L18.0114 29.7764" stroke="black" stroke-width="0.7" stroke-miterlimit="2.61313" stroke-linecap="round" stroke-linejoin="round"></path>
<path d="M24.7864 24.9546V29.7764" stroke="black" stroke-width="0.7" stroke-miterlimit="2.61313" stroke-linecap="round" stroke-linejoin="round"></path>
<path d="M23.359 28.6953L24.7864 29.7764" stroke="black" stroke-width="0.7" stroke-miterlimit="2.61313" stroke-linecap="round" stroke-linejoin="round"></path>
<path d="M26.2137 28.6953L24.7864 29.7764" stroke="black" stroke-width="0.7" stroke-miterlimit="2.61313" stroke-linecap="round" stroke-linejoin="round"></path>
<path d="M31.5614 24.9546V29.7764" stroke="black" stroke-width="0.7" stroke-miterlimit="2.61313" stroke-linecap="round" stroke-linejoin="round"></path>
<path d="M30.134 28.6953L31.5614 29.7764" stroke="black" stroke-width="0.7" stroke-miterlimit="2.61313" stroke-linecap="round" stroke-linejoin="round"></path>
<path d="M32.9879 28.6953L31.5614 29.7764" stroke="black" stroke-width="0.7" stroke-miterlimit="2.61313" stroke-linecap="round" stroke-linejoin="round"></path>
</svg>