<svg width="26" height="24" viewbox="0 0 26 24" fill="none" xmlns="http://www.w3.org/2000/svg">
                          <path opacity="0.9" d="M24.9755 12C24.9755 18.335 19.6524 23.5 13.0488 23.5C6.4453 23.5 1.12216 18.335 1.12216 12C1.12216 5.66505 6.4453 0.5 13.0488 0.5C19.6524 0.5 24.9755 5.66505 24.9755 12Z" stroke="black"></path>
                          <path d="M9.61161 11.7131C9.68684 12.1064 9.91755 12.303 10.3037 12.303C10.5696 12.303 10.7576 12.186 10.868 11.952C10.9783 11.7181 11.0335 11.3373 11.0335 10.8096C10.9231 10.964 10.7727 11.0834 10.5821 11.168C10.3915 11.2527 10.1784 11.295 9.94263 11.295C9.62164 11.295 9.33576 11.2303 9.08499 11.1008C8.83422 10.9664 8.63611 10.7698 8.49066 10.511C8.35023 10.2472 8.28001 9.92859 8.28001 9.55526C8.28001 9.1869 8.35525 8.86584 8.50571 8.59206C8.66119 8.31828 8.87936 8.10673 9.16022 7.9574C9.4461 7.80806 9.78213 7.7334 10.1683 7.7334C10.9106 7.7334 11.4297 7.96237 11.7256 8.42033C12.0215 8.87828 12.1695 9.55277 12.1695 10.4438C12.1695 11.0909 12.1093 11.626 11.9889 12.0491C11.8736 12.4672 11.6755 12.7858 11.3946 13.0048C11.1187 13.2239 10.7401 13.3334 10.2586 13.3334C9.87743 13.3334 9.55142 13.2587 9.28059 13.1094C9.01477 12.96 8.80914 12.7634 8.66369 12.5195C8.52326 12.2756 8.44302 12.0068 8.42295 11.7131H9.61161ZM10.236 10.287C10.4467 10.287 10.6147 10.2248 10.7401 10.1003C10.8655 9.9709 10.9282 9.79668 10.9282 9.57766C10.9282 9.33872 10.863 9.15455 10.7326 9.02513C10.6022 8.8957 10.4266 8.83099 10.2059 8.83099C9.98526 8.83099 9.80972 8.89819 9.67932 9.03259C9.55393 9.16201 9.49124 9.34121 9.49124 9.57019C9.49124 9.78423 9.55393 9.95845 9.67932 10.0929C9.80972 10.2223 9.99529 10.287 10.236 10.287Z" fill="black"></path>
                          <path d="M12.8558 10.511C12.8558 9.65481 13.0213 8.98033 13.3524 8.48753C13.6884 7.99473 14.2276 7.74833 14.9698 7.74833C15.7121 7.74833 16.2488 7.99473 16.5798 8.48753C16.9158 8.98033 17.0838 9.65481 17.0838 10.511C17.0838 11.3771 16.9158 12.0566 16.5798 12.5494C16.2488 13.0422 15.7121 13.2886 14.9698 13.2886C14.2276 13.2886 13.6884 13.0422 13.3524 12.5494C13.0213 12.0566 12.8558 11.3771 12.8558 10.511ZM15.82 10.511C15.82 10.0082 15.7648 9.62246 15.6544 9.35366C15.5441 9.07988 15.3159 8.94299 14.9698 8.94299C14.6238 8.94299 14.3956 9.07988 14.2852 9.35366C14.1749 9.62246 14.1197 10.0082 14.1197 10.511C14.1197 10.8495 14.1398 11.1307 14.1799 11.3547C14.22 11.5737 14.3003 11.7529 14.4207 11.8923C14.546 12.0267 14.7291 12.0939 14.9698 12.0939C15.2106 12.0939 15.3911 12.0267 15.5115 11.8923C15.6369 11.7529 15.7196 11.5737 15.7598 11.3547C15.7999 11.1307 15.82 10.8495 15.82 10.511Z" fill="black"></path>
                          <path d="M9.15113 14.6962C9.3963 14.6962 9.61055 14.7397 9.79388 14.8267C9.97721 14.9138 10.1186 15.0364 10.218 15.1946C10.3196 15.3509 10.3704 15.5319 10.3704 15.7376C10.3704 15.9414 10.3196 16.1223 10.218 16.2806C10.1186 16.4388 9.9761 16.5615 9.79057 16.6485C9.60724 16.7355 9.39409 16.7791 9.15113 16.7791H8.27977V14.6962H9.15113ZM9.11468 16.3399C9.32893 16.3399 9.4957 16.2875 9.61497 16.1827C9.73424 16.0778 9.79388 15.9295 9.79388 15.7376C9.79388 15.5457 9.73424 15.3964 9.61497 15.2896C9.4957 15.1828 9.32893 15.1294 9.11468 15.1294H8.84632V16.3399H9.11468Z" fill="black"></path>
                          <path d="M12.2591 16.4111H11.391L11.2519 16.7791H10.6588L11.5004 14.6962H12.1564L12.9979 16.7791H12.3982L12.2591 16.4111ZM12.1133 16.0195L11.825 15.257L11.5401 16.0195H12.1133Z" fill="black"></path>
                          <path d="M15.3728 14.6962L14.5677 16.0907V16.7791H14.0011V16.0907L13.196 14.6962H13.8388L14.2894 15.5685L14.7367 14.6962H15.3728Z" fill="black"></path>
                          <path d="M16.5668 16.7998C16.3968 16.7998 16.2444 16.7751 16.1096 16.7256C15.9749 16.6762 15.8667 16.603 15.7849 16.5061C15.7054 16.4092 15.6634 16.2925 15.659 16.156H16.262C16.2709 16.2331 16.3007 16.2925 16.3515 16.334C16.4023 16.3736 16.4685 16.3933 16.5503 16.3933C16.6342 16.3933 16.7005 16.3765 16.7491 16.3429C16.7977 16.3073 16.8219 16.2588 16.8219 16.1975C16.8219 16.1461 16.8021 16.1036 16.7623 16.0699C16.7248 16.0363 16.6773 16.0086 16.6198 15.9868C16.5646 15.9651 16.4851 15.9404 16.3813 15.9127C16.2311 15.8711 16.1085 15.8296 16.0135 15.7881C15.9186 15.7465 15.8368 15.6852 15.7684 15.6041C15.6999 15.523 15.6657 15.4172 15.6657 15.2866C15.6657 15.0928 15.7441 14.9415 15.9009 14.8327C16.0577 14.7219 16.262 14.6665 16.5138 14.6665C16.77 14.6665 16.9766 14.7219 17.1334 14.8327C17.2902 14.9415 17.3741 15.0938 17.3852 15.2896H16.7722C16.7678 15.2223 16.7402 15.1699 16.6894 15.1323C16.6386 15.0928 16.5735 15.073 16.4939 15.073C16.4255 15.073 16.3703 15.0898 16.3283 15.1234C16.2863 15.1551 16.2653 15.2016 16.2653 15.2629C16.2653 15.3301 16.3007 15.3826 16.3714 15.4201C16.442 15.4577 16.5525 15.4983 16.7027 15.5418C16.8529 15.5873 16.9744 15.6308 17.0671 15.6723C17.1621 15.7139 17.2438 15.7742 17.3123 15.8533C17.3808 15.9325 17.415 16.0343 17.415 16.1589C17.415 16.2776 17.3808 16.3854 17.3123 16.4823C17.246 16.5793 17.1488 16.6564 17.0207 16.7138C16.8926 16.7711 16.7413 16.7998 16.5668 16.7998Z" fill="black"></path>
                        </svg>