<svg class="visa-logo payments-logo" xmlns="http://www.w3.org/2000/svg" width="500px" height="323px" version="1.0" style="shape-rendering:geometricPrecision; text-rendering:geometricPrecision; image-rendering:optimizeQuality; fill-rule:evenodd; clip-rule:evenodd" viewbox="0 0 63.648 41.08" xml:space="preserve" xmlns:xlink="http://www.w3.org/1999/xlink" xmlns:xodm="http://www.corel.com/coreldraw/odm/2003">
 <defs>
  <style type="text/css">
   
    .visa-logo .str0 {stroke:#999999;stroke-width:0.221;stroke-linecap:round;stroke-linejoin:round;stroke-miterlimit:2.61313}
    .visa-logo .fil4 {fill:none}
    .visa-logo .fil0 {fill:#00569F}
    .visa-logo .fil2 {fill:#00579E}
    .visa-logo .fil1 {fill:#00579F}
    .visa-logo .fil3 {fill:#F9A51A}
   
  </style>
 </defs>
 <g id="Layer_x0020_1">
  <metadata id="CorelCorpID_0Corel-Layer"></metadata>
  <g id="_2351057099392">
   <path class="fil0" d="M51.923 16.834l1.334 6.136 -3.557 0 1.406 -3.796c0.131,-0.378 0.796,-2.089 0.817,-2.34zm-8.938 12.095l4.58 0 0.786 -2.238c0.05,-0.136 0.054,-0.252 0.193,-0.252l5.336 0c0.173,0 0.15,0.241 0.218,0.582l0.274 1.326c0.068,0.341 0.046,0.582 0.219,0.582l3.913 0c-0.006,-0.256 -2.931,-14.141 -3.057,-14.729l-0.325 -1.587c-0.029,-0.145 -0.051,-0.448 -0.22,-0.448 -0.908,0 -3.323,-0.063 -4.101,0.123 -0.405,0.097 -0.803,0.356 -1.013,0.632 -0.253,0.332 -0.376,0.626 -0.546,1.056 -0.159,0.402 -0.318,0.762 -0.489,1.156l-1.924 4.612c-0.312,0.784 -0.648,1.51 -0.96,2.286l-2.884 6.899z"></path>
   <path class="fil1" d="M32.758 17.368c0,1.056 0.29,1.794 0.855,2.48 0.625,0.758 1.08,1.049 1.866,1.558l1.251 0.66c0.671,0.334 2.031,1.041 2.031,1.838l0 0.312c0,1.03 -1.617,1.467 -2.624,1.467 -0.922,0 -1.779,-0.12 -2.516,-0.33 -0.633,-0.179 -1.974,-0.805 -2.064,-0.826l-0.438 2.763c-0.197,1.182 -0.402,0.979 0.877,1.378 2.076,0.647 4.691,0.668 6.783,0.146 2.612,-0.652 4.562,-2.65 4.562,-5.443 0,-0.383 -0.128,-1.019 -0.24,-1.316 -0.66,-1.748 -2.214,-2.557 -3.748,-3.323 -0.641,-0.321 -2.104,-1.066 -2.104,-1.853 0,-0.235 0.152,-0.569 0.277,-0.702 1.122,-1.192 3.741,-0.798 5.085,-0.258 0.174,0.071 0.626,0.28 0.775,0.293 0,-0.24 0.538,-3.519 0.578,-3.602 -1.196,-0.574 -2.837,-0.712 -4.314,-0.712 -3.23,0 -6.892,1.953 -6.892,5.47z"></path>
   <path class="fil2" d="M15.638 21.225c-0.207,-0.294 -0.997,-2.529 -2.424,-3.968 -0.275,-0.278 -0.466,-0.544 -0.775,-0.825 -0.53,-0.48 -2.132,-1.82 -2.759,-2.045l0.959 3.622c0.35,1.232 0.611,2.433 0.969,3.656l1.94 7.264 4.581 0 1.689 -4.18c1.388,-3.467 2.86,-6.959 4.244,-10.43 0.137,-0.343 0.821,-1.943 0.825,-2.154l-4.535 0c-0.106,0.201 -0.18,0.447 -0.267,0.667 -0.801,2.021 -1.587,4.349 -2.382,6.422l-1.575 4.295 -0.49 -2.324z"></path>
   <path class="fil0" d="M23.954 28.929l4.224 0c0.174,0 0.146,-0.24 0.172,-0.406 0.028,-0.181 0.057,-0.389 0.082,-0.541l1.887 -11.675c0.114,-0.682 0.229,-1.418 0.343,-2.103 0.059,-0.358 0.116,-0.743 0.171,-1.073 0.033,-0.194 0.062,-0.378 0.09,-0.534 0.034,-0.19 0.138,-0.432 -0.077,-0.432l-4.091 0c-0.186,0 -0.208,0.584 -0.267,0.934l-1.194 7.388c-0.239,1.417 -0.444,2.797 -0.68,4.211l-0.59 3.679c-0.032,0.207 -0.07,0.329 -0.07,0.552z"></path>
   <path class="fil3" d="M9.68 14.387c0.627,0.225 2.229,1.565 2.759,2.045 0.309,0.281 0.5,0.547 0.775,0.825 1.427,1.439 2.217,3.674 2.424,3.968 -0.026,-0.282 -0.134,-0.683 -0.196,-0.993l-0.6 -3.046c-0.113,-0.565 -0.637,-3.581 -0.862,-4.029 -0.282,-0.559 -0.73,-0.867 -1.461,-0.941 -1.114,-0.112 -5.96,-0.051 -7.286,-0.051 -0.046,0.097 -0.085,0.256 -0.089,0.4 0.71,0.059 3.237,1.07 4.021,1.538 0.103,0.061 0.159,0.081 0.262,0.138 0.112,0.062 0.144,0.09 0.253,0.146z"></path>
  </g>
  <rect class="fil4 str0" x="0.111" y="0.111" width="63.427" height="40.859" rx="2.803" ry="2.803"></rect>
 </g>
</svg>