<svg width="26" height="26" viewbox="0 0 26 26" fill="none" xmlns="http://www.w3.org/2000/svg">
<g opacity="0.8">
<circle opacity="0.9" cx="13" cy="13" r="12.5" stroke="black"></circle>
<path d="M8.33385 12.6591C8.45006 13.2677 8.80645 13.572 9.40302 13.572C9.81364 13.572 10.1042 13.391 10.2746 13.0289C10.4451 12.6668 10.5303 12.0775 10.5303 11.2609C10.3598 11.4997 10.1274 11.6846 9.83301 11.8156C9.5386 11.9465 9.20933 12.012 8.84519 12.012C8.34934 12.012 7.90773 11.9119 7.52035 11.7116C7.13297 11.5036 6.82694 11.1993 6.60226 10.7987C6.38532 10.3904 6.27686 9.89733 6.27686 9.31956C6.27686 8.74948 6.39307 8.25259 6.6255 7.82889C6.86567 7.40519 7.2027 7.07778 7.63656 6.84667C8.07818 6.61556 8.59727 6.5 9.19383 6.5C10.3405 6.5 11.1424 6.85437 11.5995 7.56311C12.0566 8.27185 12.2851 9.3157 12.2851 10.6947C12.2851 11.6961 12.1922 12.5243 12.0062 13.1791C11.828 13.8262 11.522 14.3193 11.0881 14.6582C10.662 14.9972 10.0771 15.1667 9.33329 15.1667C8.74447 15.1667 8.24088 15.0511 7.8225 14.82C7.41188 14.5889 7.09423 14.2846 6.86955 13.9071C6.65261 13.5296 6.52865 13.1136 6.49766 12.6591H8.33385ZM9.29842 10.452C9.62382 10.452 9.88337 10.3557 10.0771 10.1631C10.2708 9.96282 10.3676 9.69319 10.3676 9.35422C10.3676 8.98444 10.2669 8.69941 10.0654 8.49911C9.864 8.29881 9.59283 8.19867 9.25194 8.19867C8.91104 8.19867 8.63988 8.30267 8.43844 8.51067C8.24475 8.71096 8.1479 8.9883 8.1479 9.34267C8.1479 9.67393 8.24475 9.94356 8.43844 10.1516C8.63988 10.3519 8.92654 10.452 9.29842 10.452Z" fill="black"></path>
<path d="M13.3454 10.7987C13.3454 9.47363 13.6011 8.42978 14.1124 7.66711C14.6315 6.90444 15.4644 6.52311 16.611 6.52311C17.7577 6.52311 18.5867 6.90444 19.098 7.66711C19.6171 8.42978 19.8766 9.47363 19.8766 10.7987C19.8766 12.1391 19.6171 13.1907 19.098 13.9533C18.5867 14.716 17.7577 15.0973 16.611 15.0973C15.4644 15.0973 14.6315 14.716 14.1124 13.9533C13.6011 13.1907 13.3454 12.1391 13.3454 10.7987ZM17.9242 10.7987C17.9242 10.0206 17.839 9.42356 17.6686 9.00756C17.4981 8.58385 17.1456 8.372 16.611 8.372C16.0764 8.372 15.7239 8.58385 15.5535 9.00756C15.383 9.42356 15.2978 10.0206 15.2978 10.7987C15.2978 11.3225 15.3288 11.7578 15.3908 12.1044C15.4528 12.4434 15.5767 12.7207 15.7627 12.9364C15.9563 13.1444 16.2391 13.2484 16.611 13.2484C16.9829 13.2484 17.2618 13.1444 17.4478 12.9364C17.6415 12.7207 17.7693 12.4434 17.8313 12.1044C17.8933 11.7578 17.9242 11.3225 17.9242 10.7987Z" fill="black"></path>
<path d="M8.33385 12.6591C8.45006 13.2677 8.80645 13.572 9.40302 13.572C9.81364 13.572 10.1042 13.391 10.2746 13.0289C10.4451 12.6668 10.5303 12.0775 10.5303 11.2609C10.3598 11.4997 10.1274 11.6846 9.83301 11.8156C9.5386 11.9465 9.20933 12.012 8.84519 12.012C8.34934 12.012 7.90773 11.9119 7.52035 11.7116C7.13297 11.5036 6.82694 11.1993 6.60226 10.7987C6.38532 10.3904 6.27686 9.89733 6.27686 9.31956C6.27686 8.74948 6.39307 8.25259 6.6255 7.82889C6.86567 7.40519 7.2027 7.07778 7.63656 6.84667C8.07818 6.61556 8.59727 6.5 9.19383 6.5C10.3405 6.5 11.1424 6.85437 11.5995 7.56311C12.0566 8.27185 12.2851 9.3157 12.2851 10.6947C12.2851 11.6961 12.1922 12.5243 12.0062 13.1791C11.828 13.8262 11.522 14.3193 11.0881 14.6582C10.662 14.9972 10.0771 15.1667 9.33329 15.1667C8.74447 15.1667 8.24088 15.0511 7.8225 14.82C7.41188 14.5889 7.09423 14.2846 6.86955 13.9071C6.65261 13.5296 6.52865 13.1136 6.49766 12.6591H8.33385ZM9.29842 10.452C9.62382 10.452 9.88337 10.3557 10.0771 10.1631C10.2708 9.96282 10.3676 9.69319 10.3676 9.35422C10.3676 8.98444 10.2669 8.69941 10.0654 8.49911C9.864 8.29881 9.59283 8.19867 9.25194 8.19867C8.91104 8.19867 8.63988 8.30267 8.43844 8.51067C8.24475 8.71096 8.1479 8.9883 8.1479 9.34267C8.1479 9.67393 8.24475 9.94356 8.43844 10.1516C8.63988 10.3519 8.92654 10.452 9.29842 10.452Z" stroke="#F4ECDD" stroke-width="0.4"></path>
<path d="M13.3454 10.7987C13.3454 9.47363 13.6011 8.42978 14.1124 7.66711C14.6315 6.90444 15.4644 6.52311 16.611 6.52311C17.7577 6.52311 18.5867 6.90444 19.098 7.66711C19.6171 8.42978 19.8766 9.47363 19.8766 10.7987C19.8766 12.1391 19.6171 13.1907 19.098 13.9533C18.5867 14.716 17.7577 15.0973 16.611 15.0973C15.4644 15.0973 14.6315 14.716 14.1124 13.9533C13.6011 13.1907 13.3454 12.1391 13.3454 10.7987ZM17.9242 10.7987C17.9242 10.0206 17.839 9.42356 17.6686 9.00756C17.4981 8.58385 17.1456 8.372 16.611 8.372C16.0764 8.372 15.7239 8.58385 15.5535 9.00756C15.383 9.42356 15.2978 10.0206 15.2978 10.7987C15.2978 11.3225 15.3288 11.7578 15.3908 12.1044C15.4528 12.4434 15.5767 12.7207 15.7627 12.9364C15.9563 13.1444 16.2391 13.2484 16.611 13.2484C16.9829 13.2484 17.2618 13.1444 17.4478 12.9364C17.6415 12.7207 17.7693 12.4434 17.8313 12.1044C17.8933 11.7578 17.9242 11.3225 17.9242 10.7987Z" stroke="#F4ECDD" stroke-width="0.4"></path>
<path d="M7.57406 16.2952C7.93906 16.2952 8.25801 16.3615 8.53094 16.4941C8.80386 16.6267 9.01431 16.8135 9.16228 17.0546C9.31354 17.2927 9.38917 17.5684 9.38917 17.8818C9.38917 18.1922 9.31354 18.4679 9.16228 18.709C9.01431 18.95 8.80222 19.1369 8.52601 19.2695C8.25308 19.4021 7.93577 19.4684 7.57406 19.4684H6.27686V16.2952H7.57406ZM7.51981 18.7994C7.83876 18.7994 8.08703 18.7195 8.26459 18.5598C8.44216 18.4001 8.53094 18.1741 8.53094 17.8818C8.53094 17.5895 8.44216 17.362 8.26459 17.1992C8.08703 17.0365 7.83876 16.9551 7.51981 16.9551H7.12029V18.7994H7.51981Z" fill="black"></path>
<path d="M12.2009 18.9079H10.9086L10.7015 19.4684H9.81859L11.0714 16.2952H12.048L13.3008 19.4684H12.4081L12.2009 18.9079ZM11.9839 18.3112L11.5548 17.1495L11.1306 18.3112H11.9839Z" fill="black"></path>
<path d="M16.8364 16.2952L15.6378 18.4197V19.4684H14.7944V18.4197L13.5958 16.2952H14.5527L15.2235 17.6241L15.8893 16.2952H16.8364Z" fill="black"></path>
<path d="M18.614 19.5C18.3608 19.5 18.1339 19.4623 17.9333 19.387C17.7327 19.3117 17.5716 19.2002 17.4499 19.0525C17.3316 18.9048 17.2691 18.7271 17.2625 18.5191H18.1602C18.1733 18.6366 18.2177 18.7271 18.2934 18.7903C18.369 18.8506 18.4676 18.8807 18.5893 18.8807C18.7143 18.8807 18.8129 18.8551 18.8852 18.8039C18.9576 18.7497 18.9938 18.6758 18.9938 18.5824C18.9938 18.5041 18.9642 18.4393 18.905 18.388C18.8491 18.3368 18.7784 18.2946 18.6929 18.2615C18.6107 18.2283 18.4923 18.1907 18.3377 18.1485C18.1142 18.0852 17.9317 18.0219 17.7903 17.9586C17.6489 17.8953 17.5272 17.8019 17.4253 17.6784C17.3233 17.5548 17.2724 17.3936 17.2724 17.1947C17.2724 16.8994 17.3891 16.6689 17.6226 16.5031C17.856 16.3344 18.1602 16.25 18.535 16.25C18.9165 16.25 19.2239 16.3344 19.4574 16.5031C19.6909 16.6689 19.8158 16.9009 19.8323 17.1992H18.9198C18.9132 17.0968 18.8721 17.0169 18.7965 16.9597C18.7208 16.8994 18.6238 16.8693 18.5054 16.8693C18.4035 16.8693 18.3213 16.8949 18.2588 16.9461C18.1964 16.9943 18.1651 17.0651 18.1651 17.1586C18.1651 17.261 18.2177 17.3409 18.323 17.3981C18.4282 17.4554 18.5926 17.5172 18.8162 17.5834C19.0398 17.6528 19.2206 17.7191 19.3587 17.7823C19.5001 17.8456 19.6218 17.9375 19.7237 18.0581C19.8257 18.1786 19.8766 18.3338 19.8766 18.5236C19.8766 18.7045 19.8257 18.8687 19.7237 19.0163C19.6251 19.164 19.4804 19.2815 19.2897 19.3689C19.099 19.4563 18.8737 19.5 18.614 19.5Z" fill="black"></path>
</g>
</svg>