<svg width="47" height="46" viewbox="0 0 47 46" fill="none" xmlns="http://www.w3.org/2000/svg">
<circle opacity="0.9" cx="23.4" cy="23" r="23" fill="black"></circle>
<path d="M32.0177 29.6728C32.6632 29.6728 33.2268 30.0455 33.4904 30.5819C34.0703 31.6404 33.3227 33 31.9632 33H21.6904C20.6268 33 19.5904 32.6365 18.7541 31.9637V20.9363C20.354 19.7909 22.9086 17.5364 23.6813 14.3454C23.8722 13.5727 24.5268 13 25.3268 13H25.4359C26.3632 13 27.1177 13.7546 27.1177 14.6819V19.6728H31.9268C32.7632 19.6728 33.5359 20.2454 33.6631 21.0727C33.817 22.1242 33.0074 23 32.0177 23C32.9855 23 33.6904 23.8328 33.6904 24.6728C33.6904 25.5256 32.9759 26.3364 32.0177 26.3364C32.9804 26.3364 33.6904 27.1392 33.6904 28.0091C33.6904 28.8611 32.976 29.6728 32.0177 29.6728Z" fill="white"></path>
<path d="M17.4207 20.8466V31.8263C17.4207 32.3467 16.9989 32.7686 16.4784 32.7686H14.0519C13.5315 32.7686 13.1096 32.3467 13.1096 31.8263V20.8466C13.1096 20.3262 13.5315 19.9043 14.0519 19.9043H16.4784C16.9989 19.9043 17.4207 20.3262 17.4207 20.8466Z" fill="white"></path>
</svg>