<svg width="124" height="124" viewbox="0 0 124 124" fill="none" xmlns="http://www.w3.org/2000/svg">
<path d="M44.9529 44.2418C46.0752 44.2418 46.985 43.3321 46.985 42.2098C46.985 41.0875 46.0752 40.1777 44.9529 40.1777C43.8307 40.1777 42.9209 41.0875 42.9209 42.2098C42.9209 43.3321 43.8307 44.2418 44.9529 44.2418Z" fill="black"></path>
<path d="M43.5572 41.9943C43.9901 41.9943 44.341 41.6434 44.341 41.2105C44.341 40.7777 43.9901 40.4268 43.5572 40.4268C43.1244 40.4268 42.7734 40.7777 42.7734 41.2105C42.7734 41.6434 43.1244 41.9943 43.5572 41.9943Z" fill="white"></path>
<path fill-rule="evenodd" clip-rule="evenodd" d="M53.0625 44.7532C55.3558 44.4194 49.7387 41.052 49.4774 40.8633C48.2291 39.9779 46.589 39.4264 44.8327 39.3393C40.8557 39.1361 39.172 40.7762 36.3271 43.0115C36.3271 43.0115 37.3867 42.8663 38.5334 44.1291C39.68 45.3919 44.0925 46.9014 47.9243 45.9725C51.7562 45.0435 53.0915 44.7678 53.0915 44.7678L53.0625 44.7532Z" stroke="black" stroke-miterlimit="2.61313" stroke-linecap="round" stroke-linejoin="round"></path>
<mask id="mask0_334_170" style="mask-type:alpha" maskunits="userSpaceOnUse" x="40" y="38" width="10" height="9">
<path d="M44.9538 45.8969C46.9899 45.8969 48.6405 44.2463 48.6405 42.2101C48.6405 40.174 46.9899 38.5234 44.9538 38.5234C42.9177 38.5234 41.2671 40.174 41.2671 42.2101C41.2671 44.2463 42.9177 45.8969 44.9538 45.8969Z" stroke="black" stroke-miterlimit="2.61313" stroke-linecap="round" stroke-linejoin="round"></path>
</mask>
<g mask="url(#mask0_334_170)">
<path fill-rule="evenodd" clip-rule="evenodd" d="M53.063 44.7527C55.3563 44.4189 49.7391 41.0515 49.4779 40.8628C48.2296 39.9774 46.5895 39.4259 44.8332 39.3388C40.8562 39.1356 39.1725 40.7757 36.3276 43.011C36.3276 43.011 37.3872 42.8658 38.5339 44.1286C39.6805 45.3914 44.093 46.9009 47.9248 45.972C51.7567 45.043 53.092 44.7673 53.092 44.7673L53.063 44.7527Z" fill="black" stroke="black" stroke-miterlimit="2.61313" stroke-linecap="round" stroke-linejoin="round"></path>
</g>
<path d="M52.5311 43.2983C52.5311 43.2983 51.8199 44.0386 52.1102 44.895" stroke="black" stroke-miterlimit="2.61313" stroke-linecap="round" stroke-linejoin="round"></path>
<path d="M53.389 42.2552C53.389 42.2552 50.7909 37.7267 44.6948 37.6686C38.5986 37.6106 35.5796 41.3263 35.5796 41.3263" stroke="black" stroke-miterlimit="2.61313" stroke-linecap="round" stroke-linejoin="round"></path>
<path fill-rule="evenodd" clip-rule="evenodd" d="M54.1513 35.7951C54.1513 35.7951 55.2399 34.3872 52.1048 32.747C52.1048 32.747 40.6963 29.3651 38.0401 29.699C35.384 30.0328 31.2183 33.3566 31.2183 33.3566C31.2183 33.3566 35.8629 31.5713 41.1753 32.9793C46.4876 34.3872 53.6143 36.3612 54.1513 35.7951V35.7951Z" stroke="black" stroke-miterlimit="2.61313" stroke-linecap="round" stroke-linejoin="round"></path>
<path d="M63.2581 68.6007C63.2581 68.6007 61.763 68.6442 61.1679 67.9621C60.5583 67.2799 59.0343 66.6703 57.8296 66.7573" stroke="black" stroke-miterlimit="2.61313" stroke-linecap="round" stroke-linejoin="round"></path>
<path d="M56.0939 63.373C56.0939 63.373 54.0764 67.5968 58.2711 68.2935" stroke="black" stroke-miterlimit="2.61313" stroke-linecap="round" stroke-linejoin="round"></path>
<path d="M56.8892 40.6421C56.8892 40.6421 60.5178 43.8643 59.7921 52.7328" stroke="black" stroke-miterlimit="2.61313" stroke-linecap="round" stroke-linejoin="round"></path>
<path fill-rule="evenodd" clip-rule="evenodd" d="M63.4817 76.6956C63.4817 76.6956 60.5207 75.2442 58.4306 76.4489C56.3405 77.6536 50.375 80.6436 50.375 80.6436C50.375 80.6436 53.0312 88.7863 63.4817 88.7863C73.9322 88.7863 76.5884 80.6436 76.5884 80.6436C76.5884 80.6436 70.6229 77.6681 68.5328 76.4489C66.4427 75.2442 63.4817 76.6956 63.4817 76.6956V76.6956Z" stroke="black" stroke-miterlimit="2.61313" stroke-linecap="round" stroke-linejoin="round"></path>
<path d="M63.476 81.6467C63.476 81.6467 62.7358 81.6032 61.8068 81.2258C60.8779 80.8484 56.2477 80.6597 53.998 81.1823C51.7482 81.7048 51.0515 80.4565 48.6421 80.4565" stroke="black" stroke-miterlimit="2.61313" stroke-linecap="round" stroke-linejoin="round"></path>
<path d="M21.498 40.874C21.498 40.874 26.3169 61.1364 28.886 71.6885C31.4696 82.2407 32.1082 84.0115 37.7399 89.3238C43.3861 94.6362 54.1995 104.637 63.4598 104.637" stroke="black" stroke-miterlimit="2.61313" stroke-linecap="round" stroke-linejoin="round"></path>
<path d="M18.0191 38.0874C18.0191 38.0874 14.913 38.1309 15.9581 42.645C17.0031 47.159 20.7914 53.6761 21.2704 58.5095C21.7494 63.3428 23.6508 64.7653 27.1343 64.4605" stroke="black" stroke-miterlimit="2.61313" stroke-linecap="round" stroke-linejoin="round"></path>
<path d="M18.8135 44.8076C18.8135 44.8076 19.3215 42.6304 20.352 43.3561C21.3826 44.0818 23.5307 49.8006 23.5307 49.8006C23.5307 49.8006 22.1518 52.7035 22.9211 53.5889C23.6904 54.4743 25.1709 56.2741 25.1709 56.2741" stroke="black" stroke-miterlimit="2.61313" stroke-linecap="round" stroke-linejoin="round"></path>
<path d="M81.9979 44.2418C83.1201 44.2418 84.0299 43.3321 84.0299 42.2098C84.0299 41.0875 83.1201 40.1777 81.9979 40.1777C80.8756 40.1777 79.9658 41.0875 79.9658 42.2098C79.9658 43.3321 80.8756 44.2418 81.9979 44.2418Z" fill="black"></path>
<path d="M80.5909 41.9943C81.0238 41.9943 81.3747 41.6434 81.3747 41.2105C81.3747 40.7777 81.0238 40.4268 80.5909 40.4268C80.158 40.4268 79.8071 40.7777 79.8071 41.2105C79.8071 41.6434 80.158 41.9943 80.5909 41.9943Z" fill="white"></path>
<path fill-rule="evenodd" clip-rule="evenodd" d="M73.8761 44.7532C71.5828 44.4194 77.1999 41.052 77.4612 40.8633C78.7095 39.9779 80.3496 39.4264 82.1059 39.3393C86.0829 39.1361 87.7666 40.7762 90.6115 43.0115C90.6115 43.0115 89.5519 42.8663 88.4052 44.1291C87.2586 45.3919 82.8461 46.9014 79.0143 45.9725C75.1824 45.0435 73.8471 44.7678 73.8471 44.7678L73.8761 44.7532Z" stroke="black" stroke-miterlimit="2.61313" stroke-linecap="round" stroke-linejoin="round"></path>
<mask id="mask1_334_170" style="mask-type:alpha" maskunits="userSpaceOnUse" x="77" y="38" width="10" height="9">
<path d="M81.9987 45.8969C84.0348 45.8969 85.6854 44.2463 85.6854 42.2101C85.6854 40.174 84.0348 38.5234 81.9987 38.5234C79.9626 38.5234 78.312 40.174 78.312 42.2101C78.312 44.2463 79.9626 45.8969 81.9987 45.8969Z" stroke="black" stroke-miterlimit="2.61313" stroke-linecap="round" stroke-linejoin="round"></path>
</mask>
<g mask="url(#mask1_334_170)">
<path fill-rule="evenodd" clip-rule="evenodd" d="M73.8761 44.7527C71.5828 44.4189 77.1999 41.0515 77.4612 40.8628C78.7095 39.9774 80.3496 39.4259 82.1059 39.3388C86.0829 39.1356 87.7666 40.7757 90.6115 43.011C90.6115 43.011 89.5519 42.8658 88.4052 44.1286C87.2586 45.3914 82.8461 46.9009 79.0143 45.972C75.1824 45.043 73.8471 44.7673 73.8471 44.7673L73.8761 44.7527Z" fill="black" stroke="black" stroke-miterlimit="2.61313" stroke-linecap="round" stroke-linejoin="round"></path>
</g>
<path d="M74.4146 43.2983C74.4146 43.2983 75.1258 44.0386 74.8355 44.895" stroke="black" stroke-miterlimit="2.61313" stroke-linecap="round" stroke-linejoin="round"></path>
<path d="M73.5425 42.2552C73.5425 42.2552 76.1406 37.7267 82.2367 37.6686C88.3329 37.6106 91.3519 41.3263 91.3519 41.3263" stroke="black" stroke-miterlimit="2.61313" stroke-linecap="round" stroke-linejoin="round"></path>
<path fill-rule="evenodd" clip-rule="evenodd" d="M72.7849 35.7951C72.7849 35.7951 71.6963 34.3872 74.8315 32.747C74.8315 32.747 86.2399 29.3651 88.8961 29.699C91.5523 30.0328 95.718 33.3566 95.718 33.3566C95.718 33.3566 91.0733 31.5713 85.761 32.9793C80.4486 34.3872 73.3219 36.3612 72.7849 35.7951V35.7951Z" stroke="black" stroke-miterlimit="2.61313" stroke-linecap="round" stroke-linejoin="round"></path>
<path d="M63.6865 68.6007C63.6865 68.6007 65.1815 68.6442 65.7766 67.9621C66.3862 67.2799 67.9103 66.6703 69.115 66.7573" stroke="black" stroke-miterlimit="2.61313" stroke-linecap="round" stroke-linejoin="round"></path>
<path d="M70.8598 63.373C70.8598 63.373 72.8773 67.5968 68.6826 68.2935" stroke="black" stroke-miterlimit="2.61313" stroke-linecap="round" stroke-linejoin="round"></path>
<path d="M70.0497 40.6421C70.0497 40.6421 66.421 43.8643 67.1467 52.7328" stroke="black" stroke-miterlimit="2.61313" stroke-linecap="round" stroke-linejoin="round"></path>
<path d="M63.4712 81.6467C63.4712 81.6467 64.2114 81.6032 65.1404 81.2258C66.0693 80.8484 70.6995 80.6597 72.9492 81.1823C75.199 81.7048 75.8957 80.4565 78.3051 80.4565" stroke="black" stroke-miterlimit="2.61313" stroke-linecap="round" stroke-linejoin="round"></path>
<path d="M105.444 40.874C105.444 40.874 100.625 61.1364 98.0562 71.6885C95.4726 82.2407 94.834 84.0115 89.2023 89.3238C83.5561 94.6362 72.7427 104.637 63.4824 104.637" stroke="black" stroke-miterlimit="2.61313" stroke-linecap="round" stroke-linejoin="round"></path>
<path d="M100.791 61.5015C99.791 66.5015 97.291 77.0015 95.791 81.5015" stroke="black" stroke-linejoin="round"></path>
<path d="M93.791 85.5015C93.1243 86.8348 91.491 89.7015 90.291 90.5015" stroke="black" stroke-linejoin="round"></path>
<path d="M108.929 38.0874C108.929 38.0874 112.035 38.1309 110.99 42.645C109.945 47.159 106.156 53.6761 105.677 58.5095C105.198 63.3428 103.297 64.7653 99.8135 64.4605" stroke="black" stroke-miterlimit="2.61313" stroke-linecap="round" stroke-linejoin="round"></path>
<path d="M108.12 44.8076C108.12 44.8076 107.612 42.6304 106.581 43.3561C105.551 44.0818 103.402 49.8006 103.402 49.8006C103.402 49.8006 104.781 52.7035 104.012 53.5889C103.243 54.4743 101.762 56.2741 101.762 56.2741" stroke="black" stroke-miterlimit="2.61313" stroke-linecap="round" stroke-linejoin="round"></path>
<path fill-rule="evenodd" clip-rule="evenodd" d="M22.1099 88.5111C29.3091 88.5111 35.144 81.486 35.144 72.8208C35.144 81.486 40.9789 88.5111 48.1781 88.5111C40.9789 88.5111 35.144 95.5362 35.144 104.201C35.144 95.5362 29.3091 88.5111 22.1099 88.5111Z" fill="#FFFAF1" stroke="#008763" stroke-width="2" stroke-miterlimit="2.61313" stroke-linecap="round" stroke-linejoin="round"></path>
<path fill-rule="evenodd" clip-rule="evenodd" d="M6.83887 77.4231C10.5982 77.4231 13.6462 73.5187 13.6462 68.7144C13.6462 73.5187 16.6943 77.4231 20.4536 77.4231C16.6943 77.4231 13.6462 81.3276 13.6462 86.1319C13.6462 81.3276 10.5982 77.4231 6.83887 77.4231Z" fill="#FFFAF1" stroke="#008763" stroke-width="2" stroke-miterlimit="2.61313" stroke-linecap="round" stroke-linejoin="round"></path>
<path d="M63.6865 10.145V113.257" stroke="#008763" stroke-width="2" stroke-miterlimit="2.61313" stroke-linecap="round" stroke-linejoin="round" stroke-dasharray="2 5"></path>
</svg>