<svg class="paypal-logo payments-logo" xmlns="http://www.w3.org/2000/svg" width="669px" height="322px" version="1.0" style="shape-rendering:geometricPrecision; text-rendering:geometricPrecision; image-rendering:optimizeQuality; fill-rule:evenodd; clip-rule:evenodd" viewbox="0 0 751.209 360.693" xml:space="preserve" xmlns:xlink="http://www.w3.org/1999/xlink" xmlns:xodm="http://www.corel.com/coreldraw/odm/2003">
 <defs>
  <style type="text/css">
   
    .paypal-logo .str0 {stroke:#999999;stroke-width:1.943;stroke-linecap:round;stroke-linejoin:round;stroke-miterlimit:2.61313}
    .paypal-logo .fil2 {fill:#019DD9}
    .paypal-logo .fil1 {fill:#0D3985}
    .paypal-logo .fil5 {fill:#152866}
    .paypal-logo .fil4 {fill:#FDFDFD}
    .paypal-logo .fil3 {fill:white}
    .paypal-logo .fil0 {fill:white}
   
  </style>
 </defs>
 <g id="Layer_x0020_1">
  <metadata id="CorelCorpID_0Corel-Layer"></metadata>
  <path class="fil0 str0" d="M34.078 0.971l683.053 0c18.209,0 33.107,11.074 33.107,24.608l0 309.536c0,13.534 -14.898,24.607 -33.107,24.607l-683.053 0c-18.209,0 -33.107,-11.073 -33.107,-24.607l0 -309.536c0,-13.534 14.898,-24.608 33.107,-24.608z"></path>
  <g id="_2348427763840">
   <path class="fil1" d="M81.262 243.142c0.375,-0.949 18.605,-4.837 18.852,-6.192l3.696 -29.761c0.207,-1.129 -7.848,1.955 -7.504,-0.258l0.001 0 0.004 -0.033 0.084 -0.528 0.001 -0.005 0.016 -0.093 0.013 -0.083 0.002 -0.014 0.016 -0.097 0.017 -0.097 0 -0.001 0.016 -0.096 0.017 -0.097 0.002 -0.013 0.015 -0.083 0.016 -0.096 0.005 -0.027 0.012 -0.069 0.017 -0.094 0.007 -0.041 0.01 -0.054 0.017 -0.094 0.01 -0.054 0.008 -0.04 0.017 -0.094 0.012 -0.066 0.005 -0.027 0.018 -0.092 0.016 -0.078 0.002 -0.013 0.018 -0.092 0.018 -0.09 0 -0.001 0.018 -0.089 0.018 -0.09 0.003 -0.012 0.015 -0.077 0.019 -0.088 0.005 -0.025 0.013 -0.062 0.019 -0.087 0.008 -0.037 0.011 -0.049 0.019 -0.085 0.011 -0.048 0.008 -0.036 0.02 -0.084 0.013 -0.059 0.006 -0.023c0.025,-0.11 0.052,-0.217 0.078,-0.322l0.04 -0.156 0.003 -0.011 0.038 -0.14 0.005 -0.022 0.015 -0.053 0.021 -0.073 0.009 -0.03 0.011 -0.042 0.021 -0.07 0.012 -0.04 0.009 -0.03c0.027,-0.088 0.054,-0.174 0.081,-0.256l0.001 -0.003 0.003 -0.009 0.043 -0.126c0.046,-0.13 0.092,-0.251 0.14,-0.362l0.003 -0.008 0.013 -0.03 0.023 -0.052 0.005 -0.012 0.013 -0.027c0.03,-0.067 0.062,-0.13 0.093,-0.189l0.001 -0.001 0.003 -0.006 0.048 -0.084c0.376,-0.633 0.449,-0.458 0.748,-1.252 0.649,-0.394 1.27,-1.246 2.221,-1.692 0.905,-0.424 1.878,-0.747 3.177,-0.782 7.35,-0.197 9.342,-7.989 16.128,-8.841 9.462,-1.188 17.759,-3.239 24.949,-7.675l2.927 -1.933c5.737,-4.564 9.045,-7.423 13.143,-14.452 2.131,-3.655 8.042,-24.107 8.156,-23.971 0.004,-0.04 0.045,-0.693 0.049,-0.732 0.666,-6.826 1.234,-12.595 -1.161,-18.824 -1.917,-4.988 -5.232,-9.623 -8.958,-12.551 -8.454,-6.643 -20.642,-8.929 -33.843,-9.049 -14.27,-0.129 -28.606,-0.001 -42.884,-0.001 -6.302,0 -13.839,-1.492 -15.25,6.108l-2.932 18.553c-0.853,6.156 -1.952,12.277 -2.886,18.515 -0.928,6.195 -1.877,12.385 -2.937,18.603 -2.101,12.318 -3.735,24.728 -5.826,37.082 -2.113,12.489 -3.721,24.658 -5.836,37.044 -0.588,3.441 -0.776,6.283 2.545,7.307 1.482,0.457 28.851,0.152 32.076,0.221zm16.326 -44.269c0.073,-0.777 0.201,-1.573 0.354,-2.229l-0.354 2.229z"></path>
   <path class="fil2" d="M529.706 183.07c-0.054,-1.183 1.443,-9.967 1.753,-11.836 0.651,-3.923 1.169,-7.717 1.838,-11.685 0.364,-2.154 0.942,-3.37 3.359,-3.404 5.514,-0.08 13.517,-0.508 17.436,2.892 4.998,4.337 2.901,15.751 -1.42,19.899 -2.422,2.326 -5.686,3.496 -9.586,3.914 -3.722,0.398 -9.508,0.397 -13.38,0.22zm54.417 -17.718c1.111,-7.318 -0.857,-14.616 -4.262,-19.245 -8.248,-11.212 -24.644,-10.314 -37.122,-10.314 -7.871,0 -15.741,0.002 -23.612,0 -2.824,-0.001 -7.043,-0.477 -8.057,3.948l-1.598 10.23c-1.007,6.896 -2.115,13.465 -3.209,20.397 -2.144,13.589 -4.248,27.38 -6.464,40.889 -1.123,6.848 -2.002,13.689 -3.226,20.636 -0.339,1.923 -0.773,3.245 0.584,4.565 1.266,1.231 2.819,0.929 4.956,0.929 3.935,0 7.87,0 11.806,0 4.984,0 7.017,0.587 7.772,-4.213l3.204 -20.395c1.197,-8.48 1.61,-9.258 8.642,-9.258 5.55,0 11.832,0.132 17.115,-0.558 16.488,-2.151 27.536,-11.789 31.649,-27.571 1.443,-5.536 1.041,-4.894 1.822,-10.04z"></path>
   <path class="fil1" d="M269.668 183.168c-0.116,-1.362 0.85,-6.073 1.091,-7.634l2.398 -15.212c0.215,-1.384 0.195,-2.331 1.045,-3.264 0.963,-1.057 1.925,-0.963 3.425,-0.963 5.817,-0.001 13.758,-0.385 17.224,3.662 3.058,3.571 2.398,9.786 0.845,14.263 -3.864,11.142 -16.772,8.724 -26.028,9.148zm54.582 -19.205c0.741,-7.425 -1.406,-14.187 -4.956,-18.581 -3.542,-4.385 -9.353,-7.207 -15.176,-8.432 -7.305,-1.538 -14.961,-1.159 -22.672,-1.159 -7.87,0 -15.741,0.004 -23.611,0 -3.81,-0.003 -6.283,0.614 -6.934,5.08 -0.498,3.419 -1.038,6.766 -1.6,10.214 -1.107,6.792 -2.051,13.641 -3.213,20.422 -1.154,6.737 -2.285,13.824 -3.238,20.589 -0.968,6.87 -2.135,13.533 -3.205,20.363 -1.086,6.936 -2.078,13.584 -3.241,20.544 -0.318,1.908 0.191,3.437 1.622,4.069 1.229,0.541 15.404,0.262 17.378,0.262 4.407,0.001 5.822,-1.43 6.493,-5.419l3.209 -20.426c0.593,-3.541 0.569,-6.676 4.016,-7.762 1.798,-0.567 9.109,-0.266 11.63,-0.266 10.758,-0.003 19.641,-1.36 28.14,-7.362 10.394,-7.34 14.11,-19.643 15.358,-32.136z"></path>
   <path class="fil2" d="M620.226 186.702c9.859,-1.636 18.609,5.481 16.936,16.467 -1.424,9.355 -7.937,15.87 -17.195,17.038 -10.966,1.383 -18.696,-5.301 -17.016,-16.522 1.027,-6.854 4.863,-12.178 10.654,-15.056 2.37,-1.177 3.738,-1.448 6.621,-1.927zm11.649 42.808c-0.124,2.578 -1.581,5.608 0.599,7.228 1.395,1.037 5.922,0.628 8.185,0.628 14.799,0 13.567,0.888 15.426,-10.914l3.602 -22.772c0.81,-5.152 1.548,-10.221 2.405,-15.327 0.446,-2.652 0.78,-5.064 1.202,-7.67 0.374,-2.308 0.949,-5.169 1.171,-7.533 0.143,-1.521 -0.333,-2.422 -1.424,-3.101 -1.122,-0.698 -2.351,-0.475 -3.805,-0.475 -2.952,0 -5.903,0 -8.855,0 -2.035,0 -6.898,-0.523 -8.201,0.588 -2.132,1.817 -1.031,5.004 -2.042,6.616 -0.306,-0.196 -1.081,-1.471 -1.396,-1.872 -1.301,-1.653 -3.32,-3.371 -5.335,-4.221 -10.192,-4.3 -22.375,-3.362 -31.492,1.05 -11.266,5.453 -19.23,16.027 -22.041,28.832 -1.746,7.949 -1.212,15.124 1.501,21.993 1.688,4.275 4.492,8.047 8.135,10.96 6.335,5.067 17.09,6.606 25.588,4.702 4.975,-1.114 9.249,-3.019 13.166,-5.913 0.6,-0.444 1.3,-0.984 1.768,-1.372 0.549,-0.455 0.997,-1.198 1.843,-1.427z"></path>
   <path class="fil1" d="M360.445 186.651c10.487,-1.379 18.416,5.922 16.681,16.927 -1.416,8.987 -8.082,15.704 -17.529,16.693 -10.914,1.142 -18.419,-5.579 -16.632,-16.847 0.739,-4.657 3.033,-8.841 5.792,-11.387 3.618,-3.337 6.6,-4.717 11.688,-5.386zm11.557 42.501c-0.085,2.509 -1.681,5.47 0.152,7.306 1.458,1.461 5.46,0.868 7.907,0.868 2.951,0 5.903,0.001 8.854,0.001 2.785,-0.001 4.725,-0.78 5.679,-2.909 0.682,-1.521 4.648,-28.028 4.98,-30.285 1.501,-10.202 3.352,-20.333 4.811,-30.46 0.613,-4.253 -2.597,-4.065 -4.88,-4.065 -2.893,0.001 -5.787,0.001 -8.68,0.001 -8.203,0 -9.845,-1.559 -10.525,7.144 -1.011,-0.477 -1.202,-1.944 -3.086,-3.519 -3.97,-3.318 -8.551,-4.551 -14.044,-5.074 -21.228,-2.018 -38.846,11.543 -43.362,32.783 -1.662,7.82 -1.054,15.475 1.74,22.041 5.847,13.743 19.925,18.18 34.135,15.092 4.568,-0.993 9.493,-3.393 13.024,-6.115l3.295 -2.809z"></path>
   <path class="fil1" d="M428.673 261.022c7.379,0 7.698,0.808 10.862,-3.553 3.696,-5.094 8.183,-11.881 11.838,-17.143 9.703,-13.967 20.035,-28.703 29.653,-42.923 4.727,-6.99 10.229,-14.427 14.833,-21.468 0.979,-1.497 2.449,-2.938 1.052,-5.041 -1.162,-1.75 -3.821,-1.285 -6.083,-1.285 -2.431,0 -4.862,0 -7.292,0 -6.294,0 -8.738,-1.093 -11.433,3.068 -5.448,8.411 -11.986,17.511 -17.59,25.99 -0.986,1.493 -1.99,2.847 -2.949,4.343 -0.531,0.829 -0.984,1.467 -1.462,2.165 -0.425,0.621 -1.087,1.472 -1.353,2.111 -0.411,-0.279 -0.296,0.329 -0.74,-1.355l-6.226 -20.876c-4.807,-16.157 -3.162,-15.456 -13.457,-15.456 -2.431,0 -4.862,0 -7.292,0 -5.082,0 -9.453,-0.935 -7.211,5.734 0.61,1.816 1.207,3.638 1.791,5.32 2.38,6.856 4.924,14.889 7.364,21.627 3.209,8.862 6.062,18.148 9.22,27.099 0.477,1.351 0.106,1.454 -0.583,2.465l-13.508 19.126c-0.879,1.201 -4.129,5.256 -4.232,6.743 -0.291,4.212 5.053,3.309 7.506,3.309 2.431,0 4.861,0 7.292,0z"></path>
   <path class="fil2" d="M704.75 140.004c0.285,-1.685 0.276,-2.292 -0.821,-3.37 -1.042,-1.023 -1.88,-0.852 -3.546,-0.852l-13.021 -0.001c-2.86,0 -4.885,-0.381 -5.483,3.237l-2.942 18.983c-0.795,4.954 -1.691,9.946 -2.352,14.976 -0.659,5.027 -1.612,10.115 -2.396,15.124l-7.057 45.054c-0.259,1.57 -0.055,2.591 0.914,3.429 1.009,0.872 1.913,0.808 3.516,0.804 2.893,-0.006 5.787,-0.001 8.681,-0.001 2.591,0 5.944,0.352 7.767,-0.909 1.948,-1.346 2.155,-3.487 2.535,-6.16 1.427,-10.037 3.193,-20.036 4.761,-30.129 1.566,-10.083 3.156,-20.151 4.739,-30.155 0.807,-5.099 1.703,-10.025 2.379,-14.963 0.68,-4.969 1.489,-10.113 2.326,-15.067z"></path>
   <path class="fil3" d="M360.445 186.651c-5.088,0.669 -8.07,2.049 -11.688,5.386 -2.759,2.546 -5.053,6.73 -5.792,11.387 -1.787,11.268 5.718,17.989 16.632,16.847 9.447,-0.989 16.113,-7.706 17.529,-16.693 1.735,-11.005 -6.194,-18.306 -16.681,-16.927z"></path>
   <path class="fil4" d="M620.226 186.702c-2.883,0.479 -4.251,0.75 -6.621,1.927 -5.791,2.878 -9.627,8.202 -10.654,15.056 -1.68,11.221 6.05,17.905 17.016,16.522 9.258,-1.168 15.771,-7.683 17.195,-17.038 1.673,-10.986 -7.077,-18.103 -16.936,-16.467z"></path>
   <path class="fil3" d="M269.668 183.168c9.256,-0.424 22.164,1.994 26.028,-9.148 1.553,-4.477 2.213,-10.692 -0.845,-14.263 -3.466,-4.047 -11.407,-3.663 -17.224,-3.662 -1.5,0 -2.462,-0.094 -3.425,0.963 -0.85,0.933 -0.83,1.88 -1.045,3.264l-2.398 15.212c-0.241,1.561 -1.207,6.272 -1.091,7.634z"></path>
   <path class="fil4" d="M529.706 183.07c3.872,0.177 9.658,0.178 13.38,-0.22 3.9,-0.418 7.164,-1.588 9.586,-3.914 4.321,-4.148 6.418,-15.562 1.42,-19.899 -3.919,-3.4 -11.922,-2.972 -17.436,-2.892 -2.417,0.034 -2.995,1.25 -3.359,3.404 -0.669,3.968 -1.187,7.762 -1.838,11.685 -0.31,1.869 -1.807,10.653 -1.753,11.836z"></path>
   <path class="fil2" d="M90.446 191.802c-0.298,0.795 -0.371,0.619 -0.748,1.253 -1.087,1.829 -1.743,8.764 -2.165,11.059l-5.142 32.655c-0.247,1.355 -0.754,5.424 -1.129,6.373 -0.119,2.184 -0.698,4.964 -1.048,7.12 -0.669,4.12 -3.013,10.76 3.129,10.764l24.14 -0.006c6.576,0.006 7.208,-2.829 8.121,-7.86 1.651,-9.101 2.675,-18.62 4.358,-27.764 0.59,-3.204 0.704,-6.728 3.771,-8.365 0.961,-0.512 1.928,-0.791 3.188,-0.807 5.448,-0.068 10.053,-0.02 15.226,-0.772 17.655,-2.564 29.579,-11.626 36.138,-28.086 2.852,-7.158 5.108,-18.524 3.88,-27.586 -1.035,-7.63 -5.801,-15.833 -12.92,-18.877 -0.022,-0.009 -0.044,-0.019 -0.067,-0.029 0,0 -0.225,-0.1 -0.225,-0.1 -0.005,0.041 -0.012,0.082 -0.018,0.124 -1.297,8.798 -4.038,17.167 -7.986,23.939 -4.098,7.029 -7.406,9.888 -13.143,14.452l-2.927 1.933c-7.19,4.436 -15.487,6.487 -24.949,7.675 -6.786,0.852 -16.736,0.235 -24.086,0.431 -3.211,0.087 -3.258,1.176 -5.398,2.474z"></path>
   <path class="fil5" d="M88.349 198.521l0.005 -0.033 -0.005 0.033 0 0zm0.089 -0.56l9.01 -56.643c0,0 0.741,-5.798 7.795,-5.798 5.352,0 28.306,0 39.063,0 8.43,0 17.075,1.233 24.65,5.237 -1.291,8.837 -4.043,17.28 -8.007,24.08 -4.098,7.029 -7.406,9.888 -13.143,14.452l-2.927 1.933c-7.19,4.436 -15.487,6.487 -24.949,7.675 -6.786,0.852 -16.736,0.235 -24.086,0.431 -1.299,0.035 -2.271,0.358 -3.176,0.782 -0.951,0.446 -1.572,1.298 -2.222,1.692 -0.298,0.795 -0.371,0.619 -0.748,1.253 -0.507,0.853 -0.92,2.819 -1.26,4.906z"></path>
  </g>
 </g>
</svg>