<svg width="49" height="48" viewbox="0 0 49 48" fill="none" xmlns="http://www.w3.org/2000/svg">
<circle opacity="0.9" cx="25" cy="24" r="23" fill="black"></circle>
<path d="M28.3279 26.498C28.3279 26.9367 28.2206 27.3567 28.0059 27.758C27.7913 28.15 27.4693 28.4767 27.0399 28.738C26.6106 28.9993 26.0879 29.144 25.4719 29.172V30.292H24.8559V29.158C24.0253 29.0833 23.3533 28.8127 22.8399 28.346C22.3266 27.87 22.0513 27.282 22.0139 26.582H23.0639C23.1013 27.002 23.2693 27.3847 23.5679 27.73C23.8759 28.066 24.3053 28.2713 24.8559 28.346V24.468C24.2306 24.3 23.7266 24.132 23.3439 23.964C22.9706 23.796 22.6533 23.5393 22.3919 23.194C22.1306 22.8393 21.9999 22.368 21.9999 21.78C21.9999 21.0427 22.2566 20.436 22.7699 19.96C23.2833 19.4747 23.9786 19.2133 24.8559 19.176V18H25.4719V19.19C26.2466 19.2647 26.8673 19.5167 27.3339 19.946C27.8006 20.3753 28.0759 20.912 28.1599 21.556H27.1239C27.0679 21.2107 26.8953 20.8887 26.6059 20.59C26.3259 20.2913 25.9479 20.1047 25.4719 20.03V23.768C26.0786 23.9267 26.5733 24.0947 26.9559 24.272C27.3479 24.44 27.6746 24.7013 27.9359 25.056C28.1973 25.4107 28.3279 25.8913 28.3279 26.498ZM22.9939 21.738C22.9939 22.2607 23.1526 22.6573 23.4699 22.928C23.7966 23.1893 24.2586 23.4087 24.8559 23.586V19.988C24.2959 20.016 23.8433 20.1793 23.4979 20.478C23.1619 20.7767 22.9939 21.1967 22.9939 21.738ZM25.4719 28.374C26.0693 28.3367 26.5313 28.15 26.8579 27.814C27.1846 27.4687 27.3479 27.044 27.3479 26.54C27.3479 26.008 27.1846 25.6067 26.8579 25.336C26.5406 25.0653 26.0786 24.8367 25.4719 24.65V28.374Z" fill="white"></path>
<circle cx="24.9999" cy="24" r="8.5" stroke="white"></circle>
</svg>