<svg width="124" height="124" viewbox="0 0 124 124" fill="none" xmlns="http://www.w3.org/2000/svg">
<path d="M45.2412 44.3711C46.3666 44.3711 47.2788 43.4588 47.2788 42.3335C47.2788 41.2082 46.3666 40.2959 45.2412 40.2959C44.1159 40.2959 43.2036 41.2082 43.2036 42.3335C43.2036 43.4588 44.1159 44.3711 45.2412 44.3711Z" fill="black"></path>
<path d="M43.8291 42.1123C44.2619 42.1123 44.6128 41.7614 44.6128 41.3286C44.6128 40.8958 44.2619 40.5449 43.8291 40.5449C43.3963 40.5449 43.0454 40.8958 43.0454 41.3286C43.0454 41.7614 43.3963 42.1123 43.8291 42.1123Z" fill="white"></path>
<path fill-rule="evenodd" clip-rule="evenodd" d="M53.3405 44.8806C55.6362 44.5487 50.0213 41.1834 49.7447 40.9898C48.5 40.0954 46.8497 39.5515 45.0979 39.4593C41.1149 39.2472 39.4368 40.8976 36.5879 43.1288C36.5879 43.1288 37.6482 42.9813 38.7914 44.2444C39.9347 45.5075 44.3418 47.0196 48.1773 46.0884C52.0128 45.1572 53.3405 44.8806 53.3405 44.8806Z" stroke="black" stroke-miterlimit="2.61313" stroke-linecap="round" stroke-linejoin="round"></path>
<mask id="mask0_334_1584" style="mask-type:alpha" maskunits="userSpaceOnUse" x="41" y="38" width="9" height="9">
<path d="M45.2378 46.0234C47.2746 46.0234 48.9257 44.3722 48.9257 42.3354C48.9257 40.2986 47.2746 38.6475 45.2378 38.6475C43.201 38.6475 41.5498 40.2986 41.5498 42.3354C41.5498 44.3722 43.201 46.0234 45.2378 46.0234Z" stroke="black" stroke-miterlimit="2.61313" stroke-linecap="round" stroke-linejoin="round"></path>
</mask>
<g mask="url(#mask0_334_1584)">
<path fill-rule="evenodd" clip-rule="evenodd" d="M53.3405 44.8801C55.6362 44.5482 50.0213 41.1829 49.7447 40.9893C48.5 40.095 46.8496 39.551 45.0979 39.4588C41.1149 39.2467 39.4368 40.8971 36.5879 43.1283C36.5879 43.1283 37.6482 42.9808 38.7914 44.2439C39.9347 45.507 44.3418 47.0191 48.1773 46.0879C52.0128 45.1567 53.3405 44.8801 53.3405 44.8801Z" fill="black" stroke="black" stroke-miterlimit="2.61313" stroke-linecap="round" stroke-linejoin="round"></path>
</g>
<path d="M52.804 43.417C52.804 43.417 52.094 44.1546 52.3798 45.012" stroke="black" stroke-miterlimit="2.61313" stroke-linecap="round" stroke-linejoin="round"></path>
<path d="M53.6757 42.3736C53.6757 42.3736 51.0756 37.8466 44.9813 37.7821C38.8869 37.7175 35.8628 41.4332 35.8628 41.4332" stroke="black" stroke-miterlimit="2.61313" stroke-linecap="round" stroke-linejoin="round"></path>
<path fill-rule="evenodd" clip-rule="evenodd" d="M54.4289 35.9209C54.4289 35.9209 55.5168 34.5103 52.3728 32.8691C52.3728 32.8691 40.9678 29.4854 38.3125 29.8173C35.6571 30.1493 31.4897 33.4777 31.4897 33.4777C31.4897 33.4777 36.1366 31.689 41.4473 33.0996C46.7579 34.5103 53.8849 36.4833 54.4289 35.9209V35.9209Z" stroke="black" stroke-miterlimit="2.61313" stroke-linecap="round" stroke-linejoin="round"></path>
<path d="M63.5296 68.7226C63.5296 68.7226 62.036 68.7595 61.4367 68.0772C60.8282 67.395 59.2977 66.7864 58.0898 66.8694" stroke="black" stroke-miterlimit="2.61313" stroke-linecap="round" stroke-linejoin="round"></path>
<path d="M56.352 63.4858C56.352 63.4858 54.3421 67.7178 58.5279 68.4001" stroke="black" stroke-miterlimit="2.61313" stroke-linecap="round" stroke-linejoin="round"></path>
<path d="M57.1611 40.7607C57.1611 40.7607 60.7846 43.9877 60.0654 52.8481" stroke="black" stroke-miterlimit="2.61313" stroke-linecap="round" stroke-linejoin="round"></path>
<path fill-rule="evenodd" clip-rule="evenodd" d="M63.7465 76.8213C63.7465 76.8213 60.7869 75.3738 58.6939 76.5816C56.601 77.7894 50.6357 80.7674 50.6357 80.7674C50.6357 80.7674 53.2911 88.9086 63.7465 88.9086C74.2018 88.9086 76.8572 80.7674 76.8572 80.7674C76.8572 80.7674 70.8919 77.7894 68.799 76.5816C66.706 75.3738 63.7465 76.8213 63.7465 76.8213Z" stroke="black" stroke-miterlimit="2.61313" stroke-linecap="round" stroke-linejoin="round"></path>
<path d="M63.7576 81.7817C63.7576 81.7817 63.0108 81.7448 62.0888 81.3575C61.1668 80.9703 56.5292 80.7951 54.2703 81.3207C52.0115 81.8462 51.3292 80.5923 48.9136 80.5923" stroke="black" stroke-miterlimit="2.61313" stroke-linecap="round" stroke-linejoin="round"></path>
<path d="M21.77 40.9927C21.77 40.9927 26.5828 61.2488 29.1644 71.8056C31.746 82.3624 32.3821 84.1326 38.0247 89.4525C43.6673 94.7724 54.4823 104.758 63.7483 104.758" stroke="black" stroke-miterlimit="2.61313" stroke-linecap="round" stroke-linejoin="round"></path>
<path d="M18.2883 38.2173C18.2883 38.2173 15.1812 38.2542 16.2322 42.7719C17.2833 47.2805 21.0635 53.8082 21.5521 58.6394C22.0315 63.4706 23.9401 64.8997 27.416 64.5862" stroke="black" stroke-miterlimit="2.61313" stroke-linecap="round" stroke-linejoin="round"></path>
<path d="M19.0962 44.9404C19.0962 44.9404 19.6125 42.7645 20.6359 43.4929C21.6593 44.2213 23.8168 49.9376 23.8168 49.9376C23.8168 49.9376 22.4338 52.8419 23.1991 53.727C23.9643 54.6121 25.4579 56.41 25.4579 56.41" stroke="black" stroke-miterlimit="2.61313" stroke-linecap="round" stroke-linejoin="round"></path>
<path d="M82.2637 44.3711C83.389 44.3711 84.3013 43.4588 84.3013 42.3335C84.3013 41.2082 83.389 40.2959 82.2637 40.2959C81.1383 40.2959 80.2261 41.2082 80.2261 42.3335C80.2261 43.4588 81.1383 44.3711 82.2637 44.3711Z" fill="black"></path>
<path d="M80.8516 42.1123C81.2844 42.1123 81.6352 41.7614 81.6352 41.3286C81.6352 40.8958 81.2844 40.5449 80.8516 40.5449C80.4187 40.5449 80.0679 40.8958 80.0679 41.3286C80.0679 41.7614 80.4187 42.1123 80.8516 42.1123Z" fill="white"></path>
<path fill-rule="evenodd" clip-rule="evenodd" d="M74.1604 44.8806C71.8647 44.5487 77.4796 41.1834 77.7562 40.9898C79.0009 40.0954 80.6513 39.5515 82.403 39.4593C86.386 39.2472 88.0641 40.8976 90.913 43.1288C90.913 43.1288 89.8527 42.9813 88.7095 44.2444C87.5662 45.5075 83.1591 47.0196 79.3236 46.0884C75.4881 45.1572 74.1604 44.8806 74.1604 44.8806V44.8806Z" stroke="black" stroke-miterlimit="2.61313" stroke-linecap="round" stroke-linejoin="round"></path>
<mask id="mask1_334_1584" style="mask-type:alpha" maskunits="userSpaceOnUse" x="78" y="38" width="9" height="9">
<path d="M82.2607 46.0234C84.2975 46.0234 85.9487 44.3722 85.9487 42.3354C85.9487 40.2986 84.2975 38.6475 82.2607 38.6475C80.2239 38.6475 78.5728 40.2986 78.5728 42.3354C78.5728 44.3722 80.2239 46.0234 82.2607 46.0234Z" stroke="black" stroke-miterlimit="2.61313" stroke-linecap="round" stroke-linejoin="round"></path>
</mask>
<g mask="url(#mask1_334_1584)">
<path fill-rule="evenodd" clip-rule="evenodd" d="M74.1604 44.8801C71.8647 44.5482 77.4796 41.1829 77.7562 40.9893C79.0009 40.095 80.6513 39.551 82.403 39.4588C86.386 39.2467 88.0641 40.8971 90.913 43.1283C90.913 43.1283 89.8527 42.9808 88.7095 44.2439C87.5662 45.507 83.1591 47.0191 79.3236 46.0879C75.4881 45.1567 74.1604 44.8801 74.1604 44.8801Z" fill="black" stroke="black" stroke-miterlimit="2.61313" stroke-linecap="round" stroke-linejoin="round"></path>
</g>
<path d="M74.6978 43.417C74.6978 43.417 75.4077 44.1546 75.1219 45.012" stroke="black" stroke-miterlimit="2.61313" stroke-linecap="round" stroke-linejoin="round"></path>
<path d="M73.8369 42.3736C73.8369 42.3736 76.4369 37.8466 82.5313 37.7821C88.6256 37.7175 91.6498 41.4332 91.6498 41.4332" stroke="black" stroke-miterlimit="2.61313" stroke-linecap="round" stroke-linejoin="round"></path>
<path fill-rule="evenodd" clip-rule="evenodd" d="M73.0673 35.9209C73.0673 35.9209 71.9793 34.5103 75.1233 32.8691C75.1233 32.8691 86.5283 29.4854 89.1837 29.8173C91.839 30.1493 96.0064 33.4777 96.0064 33.4777C96.0064 33.4777 91.3596 31.689 86.0489 33.0996C80.7382 34.5103 73.6112 36.4833 73.0673 35.9209V35.9209Z" stroke="black" stroke-miterlimit="2.61313" stroke-linecap="round" stroke-linejoin="round"></path>
<path d="M63.9585 68.7226C63.9585 68.7226 65.4521 68.7595 66.0514 68.0772C66.6599 67.395 68.1904 66.7864 69.3982 66.8694" stroke="black" stroke-miterlimit="2.61313" stroke-linecap="round" stroke-linejoin="round"></path>
<path d="M71.1412 63.4858C71.1412 63.4858 73.1512 67.7178 68.9653 68.4001" stroke="black" stroke-miterlimit="2.61313" stroke-linecap="round" stroke-linejoin="round"></path>
<path d="M70.3327 40.7607C70.3327 40.7607 66.7093 43.9877 67.4284 52.8481" stroke="black" stroke-miterlimit="2.61313" stroke-linecap="round" stroke-linejoin="round"></path>
<path d="M63.7544 81.7817C63.7544 81.7817 64.5012 81.7448 65.4232 81.3575C66.3452 80.9703 70.9828 80.7951 73.2417 81.3207C75.5006 81.8462 76.1828 80.5923 78.5985 80.5923" stroke="black" stroke-miterlimit="2.61313" stroke-linecap="round" stroke-linejoin="round"></path>
<path d="M105.71 40.9927C105.71 40.9927 100.897 61.2488 98.3158 71.8056C95.7342 82.3624 95.0981 84.1326 89.4555 89.4525C83.8129 94.7724 72.9979 104.758 63.7319 104.758" stroke="black" stroke-miterlimit="2.61313" stroke-linecap="round" stroke-linejoin="round"></path>
<path d="M109.202 38.2173C109.202 38.2173 112.309 38.2542 111.258 42.7719C110.207 47.2805 106.427 53.8082 105.938 58.6394C105.459 63.4706 103.55 64.8997 100.074 64.5862" stroke="black" stroke-miterlimit="2.61313" stroke-linecap="round" stroke-linejoin="round"></path>
<path d="M108.407 44.9404C108.407 44.9404 107.891 42.7645 106.867 43.4929C105.844 44.2213 103.687 49.9376 103.687 49.9376C103.687 49.9376 105.07 52.8419 104.304 53.727C103.539 54.6121 102.045 56.41 102.045 56.41" stroke="black" stroke-miterlimit="2.61313" stroke-linecap="round" stroke-linejoin="round"></path>
<path d="M75.2412 62.4946C75.2412 62.4946 86.2129 65.74 89.3385 76.8316" stroke="#008763" stroke-width="3" stroke-miterlimit="2.61313" stroke-linecap="round" stroke-linejoin="round" stroke-dasharray="0.01 4"></path>
<path d="M52.4298 62.4946C52.4298 62.4946 41.4581 65.74 38.3325 76.8316" stroke="#008763" stroke-width="3" stroke-miterlimit="2.61313" stroke-linecap="round" stroke-linejoin="round" stroke-dasharray="0.01 4"></path>
<path d="M46.8975 25.4951H80.5778" stroke="#008763" stroke-width="3" stroke-miterlimit="2.61313" stroke-linecap="round" stroke-linejoin="round" stroke-dasharray="0.01 4"></path>
<path d="M74.5391 48.9624C74.5391 48.9624 81.3065 54.439 93.3938 52.1894" stroke="#008763" stroke-width="3" stroke-miterlimit="2.61313" stroke-linecap="round" stroke-linejoin="round" stroke-dasharray="0.01 4"></path>
<path d="M52.9504 48.9624C52.9504 48.9624 46.183 54.439 34.0957 52.1894" stroke="#008763" stroke-width="3" stroke-miterlimit="2.61313" stroke-linecap="round" stroke-linejoin="round" stroke-dasharray="0.01 4"></path>
</svg>