<svg class="shopify-secure-logo payments-logo" xmlns="http://www.w3.org/2000/svg" width="669px" height="322px" version="1.0" style="shape-rendering:geometricPrecision; text-rendering:geometricPrecision; image-rendering:optimizeQuality; fill-rule:evenodd; clip-rule:evenodd" viewbox="0 0 189.478 90.978" xml:space="preserve" xmlns:xlink="http://www.w3.org/1999/xlink" xmlns:xodm="http://www.corel.com/coreldraw/odm/2003">
 <defs>
  <style type="text/css">
   
    .shopify-secure-logo .str0 {stroke:#999999;stroke-width:0.49;stroke-linecap:round;stroke-linejoin:round;stroke-miterlimit:2.61313}
    .shopify-secure-logo .fil2 {fill:#010101}
    .shopify-secure-logo .fil1 {fill:#8EB941}
    .shopify-secure-logo .fil3 {fill:#9FA19C}
    .shopify-secure-logo .fil4 {fill:#DCDDDA}
    .shopify-secure-logo .fil0 {fill:white}
   
  </style>
 </defs>
 <g id="Layer_x0020_1">
  <metadata id="CorelCorpID_0Corel-Layer"></metadata>
  <path class="fil0 str0" d="M8.596 0.245l172.287 0c4.593,0 8.35,2.793 8.35,6.207l0 78.074c0,3.414 -3.757,6.207 -8.35,6.207l-172.287 0c-4.593,0 -8.351,-2.793 -8.351,-6.207l0 -78.074c0,-3.414 3.758,-6.207 8.351,-6.207z"></path>
  <g id="_2348423798640">
   <path class="fil1" d="M27.221 49.127c0,-3.51 2.623,-6.132 6.133,-6.132 5.744,0 8.235,7.668 3.244,11.039 -0.573,0.388 -1.033,0.633 -1.789,0.81l4.157 10.394 -11.849 0c0.042,-0.508 0.786,-2.065 1.01,-2.628 0.356,-0.897 0.659,-1.718 1.04,-2.599l2.108 -5.271c-0.275,-0.132 -0.495,-0.182 -0.799,-0.345 -0.287,-0.153 -0.523,-0.319 -0.76,-0.487 -1.434,-1.015 -2.495,-2.753 -2.495,-4.781zm-4.781 -17.838c0.052,-2.71 1.595,-5.847 3.403,-7.654 5.461,-5.461 14.332,-4.11 17.975,3.178 0.513,1.027 1.147,3.016 1.177,4.46 0,0.2 0.028,0.651 0.01,0.817 -0.059,0.532 -0.265,0.41 -1.835,0.66 -1.059,0.168 -1.948,0.255 -3.028,0.402 -1.638,0.222 -7.808,0.579 -9.684,0.369 -0.978,-0.11 -2.16,-0.09 -3.194,-0.236 -1.056,-0.15 -2.072,-0.229 -3.063,-0.367l-1.45 -0.213c-0.469,-0.132 -0.311,-0.041 -0.311,-1.416zm24.426 -0.224c0,-1.631 -0.803,-4.004 -1.35,-5.118 -0.751,-1.53 -1.576,-2.56 -2.73,-3.714 -0.593,-0.594 -1.042,-1.02 -1.74,-1.482 -4.745,-3.137 -9.995,-3.081 -14.72,0.041 -0.688,0.455 -1.164,0.927 -1.729,1.492 -2.276,2.276 -4.028,5.546 -4.028,8.89l0 1.011c-1.007,-0.023 -4.51,-1.119 -5.577,-1.503 -0.796,-0.287 -0.66,-0.156 -0.659,1.399 0.002,3.222 -0.111,6.211 -0.205,9.358 -0.015,0.513 -0.095,0.519 -0.111,1.032 -0.011,0.373 0.024,0.778 0.004,1.148l-0.444 6.727c-0.071,0.526 -0.165,1.616 -0.18,2.211 -0.065,2.605 -1.684,16.388 -2.167,19.244 -0.246,1.449 -0.421,1.626 0.282,1.66 0.737,0.036 1.646,-0.012 2.405,-0.012 6.618,0 12.269,0.104 18.813,0.104 7.563,0 14.738,-0.16 22.252,-0.095 1.02,0.009 0.749,0.073 0.362,-2.563 -0.11,-0.745 -0.18,-1.372 -0.285,-2.105l-1.024 -8.539c-0.246,-2.828 -0.603,-5.772 -0.823,-8.636 -0.06,-0.783 -0.04,-1.483 -0.125,-2.265 -0.062,-0.569 -0.163,-1.607 -0.193,-2.198 -0.081,-1.568 -0.185,-2.995 -0.203,-4.577 -0.007,-0.537 -0.084,-0.573 -0.109,-1.035l-0.232 -10.586c-0.105,-0.336 -0.312,-0.312 -0.677,-0.213 -1.259,0.342 -2.471,0.748 -3.776,1.019 -0.371,0.078 -0.674,0.187 -1.031,0.217l0 -0.912z"></path>
   <path class="fil2" d="M132.003 40.604c-1.356,0 -1.16,0.076 -2.287,-0.52l0.653 -3.921c0.21,-1.281 0.593,-2.522 1.129,-3.547 1.094,-2.089 3.226,-2.66 4.087,-1.415 0.794,1.148 0.43,3.153 0.152,4.406 -0.185,0.84 -0.448,1.389 -0.762,2.148 -0.375,0.907 -1.808,2.849 -2.972,2.849zm25.154 -8.939c0.499,-0.394 0.088,-0.357 0.415,-1.039 1.077,0 2.421,0.107 3.326,-0.104l0.533 -2.793c0.065,-0.393 0.091,-0.527 0.091,-1.053 -0.928,-0.216 -2.798,0.081 -3.427,-0.104 0.4,-0.574 0.232,-1.137 0.878,-2.341 0.36,-0.669 1.018,-1.201 1.832,-1.287 0.806,-0.085 1.293,0.094 2.068,0.094 0.046,-0.554 0.69,-2.719 0.855,-3.421 0.048,-0.203 0.04,-0.017 0.032,-0.224 -0.027,-0.733 -1.413,-0.677 -1.907,-0.74 -0.954,-0.121 -1.178,-0.06 -2.143,0.078 -3.738,0.534 -5.83,3.472 -6.444,6.965 -0.102,0.581 -0.036,0.544 -0.267,0.98 -1.662,-0.138 -0.478,-0.142 -2.183,0 -0.151,0.65 -0.22,1.204 -0.356,1.931 -0.448,2.403 -0.866,2.019 1.915,2.019l-1.481 7.561c-0.102,0.509 -0.282,1.335 -0.361,1.822l-0.743 3.852c-0.022,0.487 0.22,0.394 0.705,0.39l3.336 -0.008c1.28,0.012 1.058,0.103 1.288,-0.999l1.473 -7.674c0.139,-0.693 0.209,-1.298 0.357,-1.929 0.074,-0.314 0.087,-0.629 0.167,-0.978 0.103,-0.457 0.23,-0.509 0.041,-0.998zm-12.161 -9.666c0,3.975 5.508,3.38 5.508,-0.312 0,-2.575 -3.059,-3.236 -4.654,-1.641 -0.359,0.359 -0.854,1.273 -0.854,1.953zm-0.728 4.677l-2.555 13.348c-0.08,0.4 -0.137,0.642 -0.207,1.04 -0.079,0.449 -0.172,0.811 -0.224,1.128 -0.082,0.505 -0.133,0.768 -0.21,1.144 -0.26,1.268 -0.588,0.906 4.755,0.906 0.43,0 0.485,-1.08 0.637,-1.962 0.727,-4.209 1.803,-8.919 2.541,-13.154 0.086,-0.496 0.179,-0.744 0.236,-1.115 0.042,-0.264 0.022,-0.288 0.084,-0.54 0.139,-0.571 0.399,-0.869 -0.596,-0.874 -1.551,-0.008 -2.91,-0.083 -4.461,0.079zm-65.69 5.509c0,4.504 5.301,4.538 5.301,7.068 0,0.906 -1.002,1.455 -1.975,1.455 -0.899,0 -1.518,-0.144 -2.257,-0.341 -1.055,-0.282 -1.346,-0.656 -1.738,-0.612 -0.321,0.035 -0.324,0.321 -0.461,0.758 -0.127,0.403 -0.946,2.412 -0.845,2.689 0.126,0.345 0.032,0.271 0.832,0.624 3.485,1.538 11.745,1.187 11.745,-5.613 0,-2.987 -3.444,-4.361 -4.845,-5.444 -0.772,-0.597 -0.726,-1.673 -0.048,-2.151 1.027,-0.723 2.977,-0.417 4.087,-0.018l0.598 0.234c0.312,-0.467 1.247,-3.383 1.247,-3.431 0,-1.002 -4.871,-1.536 -7.145,-0.7 -2.462,0.905 -4.496,2.685 -4.496,5.482zm36.379 8.419c-1.741,0 -2.238,-1.606 -2.214,-3.103 0.035,-2.249 0.675,-4.555 1.91,-6.14l0.694 -0.657c0.403,-0.27 0.438,-0.272 0.96,-0.399 1.498,-0.363 2.6,0.961 2.6,2.711 0,2.274 -1.206,7.588 -3.95,7.588zm-7.588 -3.118c0,1.921 0.651,3.759 1.845,5.119 2.081,2.368 6.166,2.514 9.002,1.154 2.283,-1.095 3.734,-2.929 4.833,-5.146 0.36,-0.728 1.055,-3.076 1.055,-3.934 0,-2.133 0.204,-3.043 -0.691,-4.921 -2.427,-5.092 -11.185,-4.977 -14.781,2.338 -0.701,1.426 -1.263,3.782 -1.263,5.39zm54.985 -10.81c0,0.715 0.195,1.433 0.321,2.069l1.67 9.036c0.055,0.384 0.137,0.591 0.197,1.05l0.543 2.991c0.232,1.413 0.452,1.332 -0.71,2.882 -0.65,0.866 -1.836,1.777 -2.801,2.292 -0.448,0.239 -1.345,0.669 -1.819,0.78 0,0.639 1.143,3.898 1.455,4.365 1.516,-0.126 4.637,-2.132 5.673,-3.474 0.263,-0.341 0.384,-0.415 0.637,-0.714 3.467,-4.099 5.261,-9.06 7.548,-13.656 0.31,-0.623 0.532,-1.124 0.834,-1.764 0.334,-0.711 2.562,-5.221 2.562,-5.649 0,-0.24 -0.072,-0.312 -0.312,-0.312l-4.365 0c-0.773,0 -1.046,1.364 -1.499,2.555l-2.793 7.393c-0.206,0.551 -0.353,1.003 -0.489,1.589 -0.435,-0.319 -0.13,-0.207 -0.213,-1.346l-0.782 -7.221c-0.141,-1.026 -0.146,-1.96 -0.357,-2.866 -0.716,-0.167 -4.725,-0.224 -5.3,0zm-72.966 17.254c0,0.239 0.072,0.312 0.312,0.312l4.573 0c0.455,0 0.406,-0.972 0.581,-1.809 0.54,-2.569 1.224,-7.663 2.363,-9.799 0.311,-0.584 0.591,-0.916 1.031,-1.36 1.391,-1.404 3.093,-0.947 3.093,0.703 0,1.145 -0.088,1.817 -0.334,2.888l-1.676 8.845c-0.048,0.213 -0.17,0.532 0.243,0.532l4.573 0c0.414,0 0.429,-0.713 0.549,-1.426 0.085,-0.508 0.198,-1.06 0.311,-1.665l0.64 -3.413c0.21,-1.128 0.473,-2.23 0.654,-3.295 0.345,-2.03 0.983,-5.126 -0.568,-6.858 -1.051,-1.174 -1.848,-1.325 -3.457,-1.325 -1.604,0 -2.726,0.644 -3.832,1.469 -0.382,0.286 -0.608,0.589 -0.949,0.818l1.652 -8.536c0.262,-1.378 0.599,-1.027 -4.666,-1.027 -0.469,0 -0.631,1.413 -0.722,2.085l-0.747 3.93c-0.171,0.992 -0.425,2.154 -0.596,3.146l-2.394 12.574c-0.061,0.304 -0.118,0.452 -0.175,0.76 -0.059,0.322 -0.071,0.573 -0.125,0.81l-0.334 1.641zm41.784 -15.071c0.016,-0.742 0.208,-1.4 0.208,-2.287 -5.366,0 -4.495,-0.373 -4.706,1.323 -0.491,3.942 -1.453,7.914 -2.079,11.745l-0.32 1.551c-0.445,1.797 -0.884,5.141 -1.335,7.084l-0.454 2.375c-0.044,0.314 -0.11,0.556 0.267,0.556 5.787,0 4.631,0.402 5.092,-1.56l0.861 -4.648c0.051,-0.31 0.17,-0.551 0.179,-0.964 0.863,0.201 1.374,0.623 3.014,0.623 1.53,0 2.856,-0.541 4.09,-1.21 2.183,-1.183 3.886,-3.766 4.695,-6.115 1.417,-4.111 1.444,-11.072 -4.523,-11.072 -1.495,0 -3.043,0.693 -3.978,1.636 -0.344,0.347 -0.621,0.701 -1.011,0.963z"></path>
   <path class="fil3" d="M149.257 62.847l-4.157 0 0 -4.469c1.872,0 5.244,-0.286 6.47,0.493 1.285,0.817 1.131,2.733 -0.027,3.456 -0.546,0.34 -1.4,0.52 -2.286,0.52zm-36.691 0.728c0,3.82 1.979,7.379 6.237,7.379 1.087,0 1.756,-0.038 2.705,-0.413 1.742,-0.688 3.391,-2.727 3.427,-4.368 -0.347,-0.008 -1.533,-0.304 -1.767,-0.416 -0.201,0.42 -0.303,0.917 -0.517,1.354 -0.173,0.355 -0.471,0.85 -0.759,1.112 -2.259,2.061 -7.351,1.414 -7.351,-4.233 0,-7.041 5.693,-6.236 7.096,-5.017 0.493,0.428 1.053,1.288 1.219,2.003 0.85,0 1.154,-0.296 1.871,-0.312 -1.098,-4.713 -7.183,-5.46 -10.422,-2.107 -1.14,1.181 -1.739,3.283 -1.739,5.018zm15.591 1.974c0,4.013 2.156,5.405 5.821,5.405 1.884,0 3.353,-0.763 4.175,-1.853 0.853,-1.132 1.022,-3.045 1.022,-5.007l0 -7.379 -1.871 0 0 7.795c0,3.202 -0.69,4.677 -3.846,4.677 -2.178,0 -3.43,-1.251 -3.43,-3.43l0 -9.042 -1.871 0 0 8.834zm-43.031 -5.612c0,1.291 0.052,2.193 1.349,3.121 2.139,1.531 7.382,1.369 7.382,3.531 0,2.032 -1.528,2.702 -3.43,2.702 -1.082,0 -2.281,-0.368 -2.883,-0.859 -0.551,-0.45 -0.94,-1.002 -1.103,-1.702 -0.22,-0.94 0.35,-0.812 -1.936,-0.639 0.186,0.769 -0.009,0.863 0.517,2.058 1.582,3.596 7.968,3.584 9.877,0.936 1.001,-1.389 1.124,-3.063 0.031,-4.504 -1.902,-2.507 -8.037,-1.726 -8.037,-4.125 0,-1.847 1.555,-2.286 3.223,-2.286 1.744,0 3.326,0.788 3.326,2.598 0.789,0 1.13,-0.104 1.87,-0.104 -0.18,-0.375 -0.038,-1.945 -1.527,-3.046 -3.069,-2.27 -8.659,-0.921 -8.659,2.319zm73.174 10.809l10.394 0 0 -1.663 -8.523 0 0 -4.781 7.691 0 0 -1.663 -7.691 0 0 -4.261 8.211 0 0 -1.663 -10.082 0 0 14.031zm-59.142 0l10.394 0 0 -1.663 -8.523 0 0 -4.781 7.692 0 0 -1.663 -7.692 0 0 -4.261 8.211 0 0 -1.663 -10.082 0 0 14.031zm44.071 0l1.871 0 0 -6.236c1.193,0 2.798,-0.153 3.678,0.272 1.441,0.696 3.373,4.388 4.429,5.964l2.286 0 -2.139 -3.473c-0.406,-0.62 -0.725,-1.081 -1.171,-1.635 -0.8,-0.994 -1.302,-0.964 -1.575,-1.336 1.016,-0.237 1.834,-0.4 2.521,-1.013 1.743,-1.553 1.612,-4.254 -0.102,-5.771 -0.631,-0.558 -1.977,-0.803 -3.146,-0.803l-6.652 0 0 14.031z"></path>
   <path class="fil4" d="M66.732 10.877l0 69.224c0,0.443 0.728,0.443 0.728,0l0 -69.224c0,-0.443 -0.728,-0.443 -0.728,0z"></path>
  </g>
 </g>
</svg>