<svg class="buy__save-svg" width="84" height="84" viewbox="0 0 84 84" fill="none" xmlns="http://www.w3.org/2000/svg">
<circle cx="42" cy="42" r="38" fill="#008763"></circle>
<circle cx="42" cy="42" r="41" stroke="#008763" stroke-width="2"></circle>
<path d="M27.1375 36.8829C26.4127 36.7551 25.7836 36.5142 25.2503 36.1602C24.7294 35.7976 24.3459 35.3617 24.0999 34.8526C23.8558 34.333 23.7813 33.7729 23.8763 33.1723L25.4048 33.4418C25.3665 33.9657 25.4997 34.4387 25.8044 34.8607C26.1215 35.2741 26.6371 35.5437 27.3515 35.6696C28.0343 35.79 28.5996 35.7164 29.0476 35.4488C29.5079 35.1726 29.7853 34.7666 29.8797 34.2308C29.9538 33.8106 29.8985 33.4489 29.7137 33.1455C29.5289 32.8421 29.2752 32.5916 28.9526 32.3939C28.63 32.1962 28.1885 31.9667 27.628 31.7054C26.9366 31.3886 26.3869 31.0967 25.979 30.8298C25.5817 30.5648 25.2606 30.2049 25.0159 29.7501C24.7835 29.2868 24.7275 28.7137 24.8479 28.0309C24.9535 27.4321 25.1993 26.9285 25.5855 26.52C25.9716 26.1115 26.46 25.8293 27.0507 25.6736C27.6519 25.5196 28.3096 25.5056 29.024 25.6316C30.0534 25.8131 30.8484 26.2186 31.4089 26.8482C31.98 27.4796 32.2325 28.2282 32.1665 29.0939L30.5908 28.816C30.6124 28.3866 30.4566 27.98 30.1235 27.5964C29.7922 27.2022 29.3062 26.9486 28.6654 26.8356C28.0667 26.73 27.5504 26.8015 27.1167 27.0499C26.6848 27.2879 26.4198 27.6852 26.3216 28.242C26.2512 28.6411 26.3041 28.9862 26.4802 29.2772C26.6669 29.5701 26.911 29.8135 27.2126 30.0075C27.5265 30.1928 27.968 30.4223 28.5371 30.696C29.2268 31.0234 29.7746 31.3258 30.1806 31.6031C30.5884 31.87 30.9138 32.2361 31.1567 32.7013C31.4015 33.1561 31.4627 33.7301 31.3405 34.4234C31.246 34.9591 31.0153 35.4383 30.6483 35.861C30.2813 36.2837 29.7935 36.5931 29.1849 36.789C28.5763 36.985 27.8939 37.0163 27.1375 36.8829ZM40.83 36.6653L36.0399 35.8207L34.7268 38.1074L33.2142 37.8407L39.1103 27.6213L40.7648 27.913L42.7944 39.5299L41.2817 39.2632L40.83 36.6653ZM40.6259 35.427L39.6185 29.5305L36.6551 34.7269L40.6259 35.427ZM56.5222 30.6265L50.4416 40.8783L48.7872 40.5866L46.5796 28.8733L48.108 29.1428L49.889 39.2212L55.0096 30.3598L56.5222 30.6265ZM60.3076 32.4962L59.6602 36.1676L63.6625 36.8733L63.4541 38.055L59.4518 37.3493L58.785 41.131L63.26 41.9201L63.0516 43.1018L57.1428 42.0599L59.0821 31.0616L64.9909 32.1035L64.7825 33.2853L60.3076 32.4962ZM28.9243 50.0167C28.8224 50.5945 28.5757 51.1034 28.184 51.5434C27.8046 51.9747 27.2931 52.2961 26.6492 52.5075C26.0178 52.7103 25.3001 52.757 24.4962 52.6478L24.2711 53.9241L23.2627 53.7463L23.4905 52.4542C22.3937 52.1633 21.5539 51.6741 20.9711 50.9864C20.3902 50.2883 20.1658 49.4418 20.2979 48.4469L23.1656 48.9526C23.1175 49.594 23.3508 50.0521 23.8656 50.327L24.3046 47.8374C23.5223 47.4828 22.9018 47.1622 22.4433 46.8756C21.9953 46.5908 21.6263 46.1954 21.3365 45.6894C21.0466 45.1834 20.9693 44.5469 21.1045 43.7801C21.2731 42.8242 21.7602 42.1194 22.5659 41.6657C23.382 41.2139 24.3534 41.0494 25.4798 41.1722L25.7049 39.8959L26.7133 40.0737L26.4883 41.3501C27.5764 41.6286 28.3918 42.1027 28.9344 42.7724C29.477 43.4422 29.6981 44.2772 29.5975 45.2776L26.714 44.7692C26.751 44.1908 26.5479 43.7759 26.1048 43.5245L25.6742 45.9668C26.5035 46.3622 27.1378 46.6961 27.5772 46.9685C28.0165 47.2409 28.3812 47.6302 28.671 48.1362C28.9733 48.6336 29.0577 49.2604 28.9243 50.0167ZM23.9787 44.1569C23.9324 44.4195 23.9723 44.654 24.0984 44.8604C24.235 45.0686 24.4435 45.2678 24.7241 45.4581L25.1103 43.2679C24.8069 43.2686 24.5554 43.3434 24.3559 43.4923C24.1582 43.6307 24.0324 43.8523 23.9787 44.1569ZM24.8657 50.5521C25.1901 50.5551 25.4592 50.4726 25.673 50.3045C25.8972 50.1383 26.0353 49.9081 26.0872 49.6139C26.1353 49.3408 26.0849 49.1045 25.936 48.9049C25.7994 48.6967 25.5741 48.4999 25.2602 48.3146L24.8657 50.5521ZM31.3649 51.5356C31.7721 51.315 31.958 51.2124 31.9228 51.2278C33.1023 50.5585 34.0343 50.0025 34.7189 49.56C35.414 49.1194 36.0192 48.6358 36.5344 48.1092C37.0497 47.5827 37.3573 47.0358 37.4573 46.4686C37.5333 46.0379 37.4928 45.6841 37.3358 45.4073C37.1788 45.1305 36.9007 44.957 36.5015 44.8866C36.1024 44.8162 35.7604 44.9129 35.4755 45.1768C35.2031 45.432 35.0187 45.8328 34.9224 46.379L32.3225 45.9206C32.5009 45.0314 32.8215 44.3189 33.2843 43.7831C33.7575 43.2492 34.3133 42.8923 34.9515 42.7124C35.6003 42.5343 36.2871 42.5092 37.0119 42.637C38.262 42.8574 39.1456 43.3436 39.6629 44.0955C40.1907 44.8493 40.3639 45.7409 40.1823 46.7703C39.9841 47.8943 39.4164 48.8719 38.4792 49.7032C37.5438 50.5239 36.402 51.2865 35.0538 51.9911L39.3082 52.7413L38.922 54.9315L31.012 53.5367L31.3649 51.5356ZM42.1073 49.563C42.4258 47.7562 43.0235 46.394 43.9002 45.4763C44.7873 44.5604 46.0083 44.2396 47.5629 44.5137C49.1176 44.7878 50.1499 45.506 50.6599 46.6682C51.1803 47.8323 51.2812 49.3177 50.9626 51.1245C50.6404 52.9523 50.0356 54.3241 49.1484 55.24C48.2718 56.1577 47.0561 56.4795 45.5014 56.2053C43.9467 55.9312 42.9092 55.2121 42.3887 54.048C41.8788 52.8858 41.785 51.3908 42.1073 49.563ZM48.3155 50.6577C48.5026 49.5967 48.5306 48.7623 48.3995 48.1543C48.2703 47.5358 47.8432 47.1626 47.1184 47.0348C46.3936 46.907 45.8647 47.1116 45.5317 47.6486C45.2006 48.1751 44.9415 48.9688 44.7544 50.0298C44.6285 50.7441 44.5658 51.345 44.5665 51.8326C44.5691 52.3096 44.6704 52.7174 44.8707 53.056C45.0833 53.3859 45.4417 53.5953 45.9459 53.6842C46.4502 53.7731 46.8533 53.698 47.1555 53.4588C47.4699 53.211 47.7099 52.8634 47.8755 52.416C48.0429 51.9581 48.1895 51.372 48.3155 50.6577ZM53.371 51.5491C53.6896 49.7423 54.2872 48.3801 55.1639 47.4624C56.0511 46.5465 57.272 46.2257 58.8267 46.4998C60.3814 46.7739 61.4137 47.4921 61.9236 48.6543C62.444 49.8184 62.545 51.3038 62.2264 53.1106C61.9041 54.9384 61.2994 56.3102 60.4122 57.2261C59.5355 58.1438 58.3198 58.4656 56.7651 58.1914C55.2105 57.9173 54.1729 57.1982 53.6525 56.0341C53.1425 54.8719 53.0487 53.3769 53.371 51.5491ZM59.5792 52.6438C59.7663 51.5828 59.7943 50.7484 59.6632 50.1404C59.534 49.5219 59.107 49.1487 58.3821 49.0209C57.6573 48.8931 57.1284 49.0977 56.7955 49.6347C56.4643 50.1612 56.2052 50.9549 56.0182 52.0159C55.8922 52.7302 55.8296 53.3311 55.8303 53.8187C55.8328 54.2957 55.9342 54.7035 56.1344 55.0421C56.347 55.372 56.7055 55.5814 57.2097 55.6703C57.7139 55.7592 58.1171 55.6841 58.4192 55.4449C58.7337 55.1971 58.9737 54.8495 59.1392 54.4021C59.3066 53.9442 59.4533 53.3581 59.5792 52.6438Z" fill="white"></path>
</svg>