<svg width="37" height="24" viewbox="0 0 37 24" fill="none" xmlns="http://www.w3.org/2000/svg">
<path fill-rule="evenodd" clip-rule="evenodd" d="M18.6055 1H21.273V19.139H14.0854C13.5519 17.005 11.9045 15.4045 8.99664 15.4045C6.08877 15.4045 4.44137 17.005 3.90787 19.139H3.134C3.134 19.139 3.134 19.139 3.134 18.6055C3.134 17.5385 2.067 15.938 1 15.4045V1L18.6055 1Z" stroke="black" stroke-miterlimit="2.61313" stroke-linecap="round" stroke-linejoin="round"></path>
<path fill-rule="evenodd" clip-rule="evenodd" d="M9.00149 17.8203C10.602 17.8203 11.669 18.8873 11.669 20.4878C11.669 22.0883 10.602 23.1553 9.00149 23.1553C7.40099 23.1553 6.33398 22.0883 6.33398 20.4878C6.33398 18.8873 7.40099 17.8203 9.00149 17.8203Z" stroke="black" stroke-miterlimit="2.61313" stroke-linecap="round" stroke-linejoin="round"></path>
<path fill-rule="evenodd" clip-rule="evenodd" d="M30.3062 17.8203C31.9067 17.8203 32.9737 18.8873 32.9737 20.4878C32.9737 22.0883 31.9067 23.1553 30.3062 23.1553C28.7057 23.1553 27.6387 22.0883 27.6387 20.4878C27.6387 18.8873 28.7057 17.8203 30.3062 17.8203Z" stroke="black" stroke-miterlimit="2.61313" stroke-linecap="round" stroke-linejoin="round"></path>
<path fill-rule="evenodd" clip-rule="evenodd" d="M24.7972 5.5498H31.1992L36.0007 11.4183V19.4208H35.1682C34.6347 17.2868 32.9873 15.6863 30.1322 15.6863C27.1715 15.6863 25.5241 17.2868 24.9906 19.4208H24.2637V5.5498H24.7972Z" stroke="black" stroke-miterlimit="2.61313" stroke-linecap="round" stroke-linejoin="round"></path>
<path d="M35.9999 11.0967L24.7812 11.0967" stroke="black"></path>
<path d="M27.0254 5.48736L27.0254 11.0967" stroke="black"></path>
<path d="M16.9287 1H1.22266V13.3405H16.9287V1Z" stroke="black" stroke-miterlimit="2.61313" stroke-linecap="round" stroke-linejoin="round"></path>
<path d="M9.34882 8.8502C9.05629 8.82739 8.78585 8.75895 8.52093 8.64489C8.19529 8.49662 7.90277 8.29701 7.6544 8.04608C7.40603 7.79515 7.20734 7.49859 7.0528 7.15641C6.9093 6.81993 6.83203 6.44923 6.83203 6.05573C6.83203 5.66792 6.9093 5.29723 7.05832 4.95504C7.20734 4.61286 7.40603 4.31631 7.65992 4.05967C7.90829 3.80304 8.20081 3.60343 8.52645 3.46086C8.85208 3.31828 9.19428 3.24414 9.55303 3.24414C9.91178 3.24414 10.2595 3.31828 10.5851 3.46086C10.9163 3.60913 11.2088 3.80874 11.4572 4.05967C11.7111 4.31631 11.9098 4.61286 12.0588 4.95504C12.2078 5.29723 12.2851 5.66222 12.2851 6.05573C12.2851 6.44923 12.2078 6.81423 12.0588 7.15641C11.9098 7.49859 11.7055 7.79515 11.4572 8.04608C11.2033 8.29701 10.9163 8.49662 10.5851 8.64489C10.2761 8.77606 9.95042 8.8502 9.61374 8.85591C9.61926 8.85591 9.44816 8.86161 9.34882 8.8502ZM9.55303 8.70192C9.83451 8.70192 10.0774 8.63349 10.2761 8.50232C10.4803 8.37115 10.6458 8.18295 10.7728 7.94913C10.9052 7.7153 10.9991 7.43586 11.0598 7.11078C11.1205 6.79142 11.1536 6.43783 11.1536 6.05002C11.1536 5.66792 11.1205 5.31433 11.0598 4.98926C11.0046 4.66989 10.9108 4.38474 10.7783 4.15092C10.6458 3.9171 10.4803 3.7289 10.2816 3.59202C10.0774 3.45515 9.84003 3.38672 9.55855 3.38672C9.27707 3.38672 9.03422 3.45515 8.83552 3.59202C8.63131 3.7289 8.46573 3.91139 8.33879 4.15092C8.21185 4.39045 8.11802 4.66989 8.05179 4.99497C7.99108 5.32004 7.95796 5.67362 7.95796 6.05002C7.95796 6.42642 7.99108 6.78001 8.05179 7.10508C8.1125 7.43015 8.20633 7.7096 8.33879 7.94342C8.46573 8.17725 8.63131 8.36545 8.83552 8.49662C9.03422 8.63919 9.27707 8.70192 9.55303 8.70192Z" fill="black"></path>
<path d="M9.34882 8.8502C9.05629 8.82739 8.78585 8.75895 8.52093 8.64489C8.19529 8.49662 7.90277 8.29701 7.6544 8.04608C7.40603 7.79515 7.20734 7.49859 7.0528 7.15641C6.9093 6.81993 6.83203 6.44923 6.83203 6.05573C6.83203 5.66792 6.9093 5.29723 7.05832 4.95504C7.20734 4.61286 7.40603 4.31631 7.65992 4.05967C7.90829 3.80304 8.20081 3.60343 8.52645 3.46086C8.85208 3.31828 9.19428 3.24414 9.55303 3.24414C9.91178 3.24414 10.2595 3.31828 10.5851 3.46086C10.9163 3.60913 11.2088 3.80874 11.4572 4.05967C11.7111 4.31631 11.9098 4.61286 12.0588 4.95504C12.2078 5.29723 12.2851 5.66222 12.2851 6.05573C12.2851 6.44923 12.2078 6.81423 12.0588 7.15641C11.9098 7.49859 11.7055 7.79515 11.4572 8.04608C11.2033 8.29701 10.9163 8.49662 10.5851 8.64489C10.2761 8.77606 9.95042 8.8502 9.61374 8.85591C9.61926 8.85591 9.44816 8.86161 9.34882 8.8502ZM9.55303 8.70192C9.83451 8.70192 10.0774 8.63349 10.2761 8.50232C10.4803 8.37115 10.6458 8.18295 10.7728 7.94913C10.9052 7.7153 10.9991 7.43586 11.0598 7.11078C11.1205 6.79142 11.1536 6.43783 11.1536 6.05002C11.1536 5.66792 11.1205 5.31433 11.0598 4.98926C11.0046 4.66989 10.9108 4.38474 10.7783 4.15092C10.6458 3.9171 10.4803 3.7289 10.2816 3.59202C10.0774 3.45515 9.84003 3.38672 9.55855 3.38672C9.27707 3.38672 9.03422 3.45515 8.83552 3.59202C8.63131 3.7289 8.46573 3.91139 8.33879 4.15092C8.21185 4.39045 8.11802 4.66989 8.05179 4.99497C7.99108 5.32004 7.95796 5.67362 7.95796 6.05002C7.95796 6.42642 7.99108 6.78001 8.05179 7.10508C8.1125 7.43015 8.20633 7.7096 8.33879 7.94342C8.46573 8.17725 8.63131 8.36545 8.83552 8.49662C9.03422 8.63919 9.27707 8.70192 9.55303 8.70192Z" stroke="black"></path>
<path d="M12.2842 9.44826C11.9144 9.44826 11.5722 9.48248 11.2631 9.54521C10.954 9.60794 10.6836 9.7106 10.4518 9.84177C10.2255 9.97864 10.0434 10.1497 9.91641 10.355C9.78947 10.5603 9.72324 10.8113 9.72324 11.0964H9.57422V11.0337C9.58526 10.6858 9.65149 10.3493 9.77843 10.03C9.92193 9.69349 10.1151 9.39123 10.358 9.12889C10.6008 8.86655 10.8878 8.66124 11.219 8.50726C11.5501 8.35328 11.9033 8.27344 12.2842 8.27344V9.44826Z" fill="black"></path>
<path d="M12.2842 9.44826C11.9144 9.44826 11.5722 9.48248 11.2631 9.54521C10.954 9.60794 10.6836 9.7106 10.4518 9.84177C10.2255 9.97864 10.0434 10.1497 9.91641 10.355C9.78947 10.5603 9.72324 10.8113 9.72324 11.0964H9.57422V11.0337C9.58526 10.6858 9.65149 10.3493 9.77843 10.03C9.92193 9.69349 10.1151 9.39123 10.358 9.12889C10.6008 8.86655 10.8878 8.66124 11.219 8.50726C11.5501 8.35328 11.9033 8.27344 12.2842 8.27344V9.44826Z" stroke="black"></path>
</svg>