<svg width="34" height="31" viewbox="0 0 34 31" fill="none" xmlns="http://www.w3.org/2000/svg">
<path d="M22.9547 15.4219C22.9547 19.4777 22.1703 23.1129 20.9354 25.706C19.6739 28.3551 18.0778 29.6719 16.5618 29.6719C15.0458 29.6719 13.4497 28.3551 12.1882 25.706C10.9533 23.1129 10.1689 19.4777 10.1689 15.4219C10.1689 11.366 10.9533 7.73088 12.1882 5.13772C13.4497 2.48864 15.0458 1.17188 16.5618 1.17188C18.0778 1.17188 19.6739 2.48864 20.9354 5.13772C22.1703 7.73088 22.9547 11.366 22.9547 15.4219Z" stroke="black" stroke-width="1.5"></path>
<path d="M13.3654 20.9576C9.85294 18.9297 7.09702 16.4328 5.4687 14.0668C3.80526 11.6498 3.46299 9.60914 4.22099 8.29625C4.97899 6.98335 6.91741 6.25943 9.84232 6.49151C12.7055 6.71868 16.2458 7.85694 19.7583 9.88487C23.2708 11.9128 26.0267 14.4097 27.655 16.7757C29.3184 19.1927 29.6607 21.2334 28.9027 22.5462C28.1447 23.8591 26.2063 24.5831 23.2814 24.351C20.4182 24.1238 16.8779 22.9856 13.3654 20.9576Z" stroke="black" stroke-width="1.5"></path>
<path d="M13.3653 9.88613C16.8778 7.85819 20.4181 6.71994 23.2813 6.49276C26.2062 6.26069 28.1446 6.98461 28.9026 8.29751C29.6606 9.6104 29.3184 11.6511 27.6549 14.0681C26.0266 16.4341 23.2707 18.9309 19.7582 20.9589C16.2457 22.9868 12.7054 24.1251 9.84225 24.3522C6.91733 24.5843 4.97891 23.8604 4.22091 22.5475C3.46291 21.2346 3.80519 19.1939 5.46863 16.7769C7.09695 14.4109 9.85286 11.9141 13.3653 9.88613Z" stroke="black" stroke-width="1.5"></path>
</svg>