<svg width="124" height="130" viewbox="0 0 124 130" fill="none" xmlns="http://www.w3.org/2000/svg">
<path d="M43.4873 46.7537C44.6137 46.7537 45.5269 45.7918 45.5269 44.6054C45.5269 43.4189 44.6137 42.457 43.4873 42.457C42.3609 42.457 41.4478 43.4189 41.4478 44.6054C41.4478 45.7918 42.3609 46.7537 43.4873 46.7537Z" fill="black"></path>
<path d="M42.0825 44.3665C42.5142 44.3665 42.8642 43.9979 42.8642 43.5431C42.8642 43.0884 42.5142 42.7197 42.0825 42.7197C41.6508 42.7197 41.3008 43.0884 41.3008 43.5431C41.3008 43.9979 41.6508 44.3665 42.0825 44.3665Z" fill="white"></path>
<path fill-rule="evenodd" clip-rule="evenodd" d="M51.5819 47.2801C53.8773 46.9358 48.2632 43.3877 47.9932 43.1781C46.7495 42.2424 45.1009 41.666 43.3456 41.5687C39.3659 41.3516 37.6817 43.0807 34.832 45.4387C34.832 45.4387 35.8909 45.2815 37.035 46.6139C38.1792 47.9463 42.5852 49.5407 46.4227 48.5526C50.253 47.5645 51.5819 47.2801 51.5819 47.2801V47.2801Z" stroke="black" stroke-miterlimit="2.61313" stroke-linecap="round" stroke-linejoin="round"></path>
<mask id="mask0_334_1538" style="mask-type:alpha" maskunits="userSpaceOnUse" x="39" y="40" width="9" height="9">
<path d="M43.4822 48.4847C45.5192 48.4847 47.1704 46.7454 47.1704 44.5998C47.1704 42.4542 45.5192 40.7148 43.4822 40.7148C41.4452 40.7148 39.7939 42.4542 39.7939 44.5998C39.7939 46.7454 41.4452 48.4847 43.4822 48.4847Z" stroke="black" stroke-miterlimit="2.61313" stroke-linecap="round" stroke-linejoin="round"></path>
</mask>
<g mask="url(#mask0_334_1538)">
<path fill-rule="evenodd" clip-rule="evenodd" d="M51.5819 47.2801C53.8773 46.9358 48.2632 43.3877 47.9932 43.1781C46.7495 42.2424 45.1009 41.666 43.3456 41.5687C39.3659 41.3516 37.6817 43.0807 34.832 45.4387C34.832 45.4387 35.8909 45.2815 37.035 46.6139C38.1792 47.9463 42.5852 49.5407 46.4227 48.5526C50.253 47.5645 51.5819 47.2801 51.5819 47.2801Z" fill="black" stroke="black" stroke-miterlimit="2.61313" stroke-linecap="round" stroke-linejoin="round"></path>
</g>
<path d="M51.0461 45.7388C51.0461 45.7388 50.3354 46.5098 50.6268 47.4155" stroke="black" stroke-miterlimit="2.61313" stroke-linecap="round" stroke-linejoin="round"></path>
<path d="M51.9157 44.6439C51.9157 44.6439 49.3218 39.8757 43.2245 39.8083C37.1272 39.7484 34.1069 43.6558 34.1069 43.6558" stroke="black" stroke-miterlimit="2.61313" stroke-linecap="round" stroke-linejoin="round"></path>
<path fill-rule="evenodd" clip-rule="evenodd" d="M52.674 37.8442C52.674 37.8442 53.7613 36.3621 50.6202 34.6255C50.6202 34.6255 39.2144 31.0624 36.5566 31.4067C33.8988 31.7511 29.7344 35.2692 29.7344 35.2692C29.7344 35.2692 34.382 33.3904 39.6905 34.8725C44.999 36.3546 52.1268 38.4356 52.6669 37.8442H52.674Z" stroke="black" stroke-miterlimit="2.61313" stroke-linecap="round" stroke-linejoin="round"></path>
<path d="M61.7817 72.4004C61.7817 72.4004 60.2893 72.4453 59.6853 71.7192C59.0812 71.0006 57.5533 70.3643 56.3452 70.4467" stroke="black" stroke-miterlimit="2.61313" stroke-linecap="round" stroke-linejoin="round"></path>
<path d="M54.608 66.8838C54.608 66.8838 52.5968 71.3377 56.7825 72.0563" stroke="black" stroke-miterlimit="2.61313" stroke-linecap="round" stroke-linejoin="round"></path>
<path d="M55.4165 42.9463C55.4165 42.9463 59.0408 46.3372 58.3159 55.6716" stroke="black" stroke-miterlimit="2.61313" stroke-linecap="round" stroke-linejoin="round"></path>
<path fill-rule="evenodd" clip-rule="evenodd" d="M61.9913 80.9259C61.9913 80.9259 59.0279 79.3989 56.9386 80.6714C54.8422 81.9439 48.8799 85.0803 48.8799 85.0803C48.8799 85.0803 51.5377 93.6512 61.9913 93.6512C72.4449 93.6512 75.1027 85.0803 75.1027 85.0803C75.1027 85.0803 69.1404 81.9439 67.044 80.6714C64.9476 79.3989 61.9913 80.9259 61.9913 80.9259Z" stroke="black" stroke-miterlimit="2.61313" stroke-linecap="round" stroke-linejoin="round"></path>
<path d="M61.9919 86.1407C61.9919 86.1407 61.2457 86.0958 60.3218 85.6991C59.398 85.2948 54.7646 85.1077 52.5047 85.6541C50.252 86.2081 49.5627 84.8906 47.1465 84.8906" stroke="black" stroke-miterlimit="2.61313" stroke-linecap="round" stroke-linejoin="round"></path>
<path d="M20.0254 43.1846C20.0254 43.1846 24.8436 64.5181 27.4161 75.634C29.9957 86.75 30.6353 88.6138 36.2778 94.2204C41.9204 99.8196 52.7364 110.344 62.0032 110.344" stroke="black" stroke-miterlimit="2.61313" stroke-linecap="round" stroke-linejoin="round"></path>
<path d="M16.5417 40.2495C16.5417 40.2495 13.4362 40.2944 14.4879 45.0402C15.5326 49.7935 19.3203 56.6651 19.8036 61.7552C20.2868 66.8454 22.1842 68.3499 25.6664 68.0206" stroke="black" stroke-miterlimit="2.61313" stroke-linecap="round" stroke-linejoin="round"></path>
<path d="M17.3408 47.3376C17.3408 47.3376 17.8525 45.0471 18.8758 45.8106C19.8991 46.5741 22.0524 52.5999 22.0524 52.5999C22.0524 52.5999 20.6666 55.654 21.4341 56.5897C22.2016 57.5253 23.694 59.4192 23.694 59.4192" stroke="black" stroke-miterlimit="2.61313" stroke-linecap="round" stroke-linejoin="round"></path>
<path d="M80.521 46.7537C81.6474 46.7537 82.5606 45.7918 82.5606 44.6054C82.5606 43.4189 81.6474 42.457 80.521 42.457C79.3946 42.457 78.4814 43.4189 78.4814 44.6054C78.4814 45.7918 79.3946 46.7537 80.521 46.7537Z" fill="black"></path>
<path d="M79.1162 44.3665C79.5479 44.3665 79.8979 43.9979 79.8979 43.5431C79.8979 43.0884 79.5479 42.7197 79.1162 42.7197C78.6845 42.7197 78.3345 43.0884 78.3345 43.5431C78.3345 43.9979 78.6845 44.3665 79.1162 44.3665Z" fill="white"></path>
<path fill-rule="evenodd" clip-rule="evenodd" d="M72.4157 47.2801C70.1204 46.9358 75.7345 43.3877 76.0045 43.1781C77.2481 42.2424 78.8968 41.666 80.6521 41.5687C84.6317 41.3516 86.3159 43.0807 89.1656 45.4387C89.1656 45.4387 88.1068 45.2815 86.9626 46.6139C85.8185 47.9463 81.4125 49.5407 77.575 48.5526C73.7447 47.5645 72.4157 47.2801 72.4157 47.2801V47.2801Z" stroke="black" stroke-miterlimit="2.61313" stroke-linecap="round" stroke-linejoin="round"></path>
<mask id="mask1_334_1538" style="mask-type:alpha" maskunits="userSpaceOnUse" x="76" y="40" width="9" height="9">
<path d="M80.5159 48.4847C82.5529 48.4847 84.2041 46.7454 84.2041 44.5998C84.2041 42.4542 82.5529 40.7148 80.5159 40.7148C78.4789 40.7148 76.8276 42.4542 76.8276 44.5998C76.8276 46.7454 78.4789 48.4847 80.5159 48.4847Z" stroke="black" stroke-miterlimit="2.61313" stroke-linecap="round" stroke-linejoin="round"></path>
</mask>
<g mask="url(#mask1_334_1538)">
<path fill-rule="evenodd" clip-rule="evenodd" d="M72.4157 47.2801C70.1204 46.9358 75.7345 43.3877 76.0045 43.1781C77.2481 42.2424 78.8968 41.666 80.6521 41.5687C84.6317 41.3516 86.316 43.0807 89.1656 45.4387C89.1656 45.4387 88.1068 45.2815 86.9626 46.6139C85.8185 47.9463 81.4125 49.5407 77.575 48.5526C73.7447 47.5645 72.4157 47.2801 72.4157 47.2801Z" fill="black" stroke="black" stroke-miterlimit="2.61313" stroke-linecap="round" stroke-linejoin="round"></path>
</g>
<path d="M72.9419 45.7383C72.9419 45.7383 73.6525 46.5093 73.3612 47.415" stroke="black" stroke-miterlimit="2.61313" stroke-linecap="round" stroke-linejoin="round"></path>
<path d="M72.0811 44.6439C72.0811 44.6439 74.6749 39.8757 80.7723 39.8083C86.8696 39.7484 89.8898 43.6558 89.8898 43.6558" stroke="black" stroke-miterlimit="2.61313" stroke-linecap="round" stroke-linejoin="round"></path>
<path fill-rule="evenodd" clip-rule="evenodd" d="M71.3226 37.8442C71.3226 37.8442 70.2353 36.3621 73.3764 34.6255C73.3764 34.6255 84.7822 31.0624 87.44 31.4067C90.0978 31.7511 94.2622 35.2692 94.2622 35.2692C94.2622 35.2692 89.6146 33.3904 84.3061 34.8725C78.9976 36.3546 71.8698 38.4356 71.3297 37.8442H71.3226Z" stroke="black" stroke-miterlimit="2.61313" stroke-linecap="round" stroke-linejoin="round"></path>
<path d="M62.2134 72.4004C62.2134 72.4004 63.7057 72.4453 64.3098 71.7192C64.9138 71.0006 66.4417 70.3643 67.6498 70.4467" stroke="black" stroke-miterlimit="2.61313" stroke-linecap="round" stroke-linejoin="round"></path>
<path d="M69.3841 66.8838C69.3841 66.8838 71.3952 71.3377 67.2095 72.0563" stroke="black" stroke-miterlimit="2.61313" stroke-linecap="round" stroke-linejoin="round"></path>
<path d="M68.5846 42.9463C68.5846 42.9463 64.9603 46.3372 65.6852 55.6716" stroke="black" stroke-miterlimit="2.61313" stroke-linecap="round" stroke-linejoin="round"></path>
<path d="M61.998 86.1407C61.998 86.1407 62.7442 86.0958 63.6681 85.6991C64.5919 85.2948 69.2253 85.1077 71.4852 85.6541C73.7379 86.2081 74.4272 84.8906 76.8434 84.8906" stroke="black" stroke-miterlimit="2.61313" stroke-linecap="round" stroke-linejoin="round"></path>
<path d="M103.976 43.1851C103.976 43.1851 99.1577 64.5186 96.5851 75.6345C94.0055 86.7504 93.3659 88.6143 87.7234 94.2209C82.0809 99.8201 71.2649 110.345 61.998 110.345" stroke="black" stroke-miterlimit="2.61313" stroke-linecap="round" stroke-linejoin="round"></path>
<path d="M107.454 40.2495C107.454 40.2495 110.56 40.2944 109.508 45.0402C108.463 49.7935 104.676 56.6651 104.192 61.7552C103.709 66.8454 101.812 68.3499 98.3296 68.0206" stroke="black" stroke-miterlimit="2.61313" stroke-linecap="round" stroke-linejoin="round"></path>
<path d="M106.654 47.3376C106.654 47.3376 106.142 45.0471 105.119 45.8106C104.096 46.5741 101.942 52.5999 101.942 52.5999C101.942 52.5999 103.328 55.654 102.561 56.5897C101.793 57.5253 100.301 59.4192 100.301 59.4192" stroke="black" stroke-miterlimit="2.61313" stroke-linecap="round" stroke-linejoin="round"></path>
<path fill-rule="evenodd" clip-rule="evenodd" d="M85.867 54C76.5646 54 69.0176 62.1517 69.0176 72.2121C69.0176 82.2726 76.5575 90.4243 85.867 90.4243C95.1693 90.4243 102.716 82.2726 102.716 72.2121C102.716 62.1517 95.1764 54 85.867 54Z" fill="url(#paint0_radial_334_1538)"></path>
<path fill-rule="evenodd" clip-rule="evenodd" d="M38.9759 54C29.6735 54 22.1265 62.1517 22.1265 72.2121C22.1265 82.2726 29.6664 90.4243 38.9759 90.4243C48.2782 90.4243 55.8253 82.2726 55.8253 72.2121C55.8253 62.1517 48.2853 54 38.9759 54Z" fill="url(#paint1_radial_334_1538)"></path>
<defs>
<radialgradient id="paint0_radial_334_1538" cx="0" cy="0" r="1" gradientunits="userSpaceOnUse" gradienttransform="translate(85.867 72.2121) rotate(90) scale(18.2121 16.8494)">
<stop stop-color="#008763"></stop>
<stop offset="1" stop-color="#D1D1D1" stop-opacity="0"></stop>
</radialgradient>
<radialgradient id="paint1_radial_334_1538" cx="0" cy="0" r="1" gradientunits="userSpaceOnUse" gradienttransform="translate(38.9759 72.2121) rotate(90) scale(18.2121 16.8494)">
<stop stop-color="#008763"></stop>
<stop offset="1" stop-color="#D1D1D1" stop-opacity="0"></stop>
</radialgradient>
</defs>
</svg>