<svg class="featured-logo-svg" xmlns="http://www.w3.org/2000/svg" width="1122px" height="347px" version="1.0" style="shape-rendering:geometricPrecision; text-rendering:geometricPrecision; image-rendering:optimizeQuality; fill-rule:evenodd; clip-rule:evenodd" viewbox="0 0 172.99 53.563" xml:space="preserve" xmlns:xlink="http://www.w3.org/1999/xlink" xmlns:xodm="http://www.corel.com/coreldraw/odm/2003">
 <defs>
  <style type="text/css">
   
    .featured-logo-svg .fil0 {fill:#C2BCB1}
   
  </style>
 </defs>
 <g id="Layer_x0020_1">
  <metadata id="CorelCorpID_0Corel-Layer"></metadata>
  <path class="fil0" d="M44.645 26.532l-0.991 0 0 -24.763c0,-0.163 0.05,-0.212 0.213,-0.212 0.486,0 1.947,-0.072 2.325,0.08 1.34,0.538 2.137,2.175 2.691,3.394 0.831,1.832 0.863,2.803 1.273,4.316 0.215,0.798 0.234,2.348 0.332,2.994 0.054,0.36 0.04,0.719 -0.011,1.061 -0.059,0.388 -0.053,2.497 -0.172,3.154 -0.083,0.459 -0.017,0.601 -0.184,1.514 -0.089,0.488 -0.166,1.455 -0.292,1.901 -0.444,1.572 -0.372,2.104 -1.256,3.768 -0.26,0.489 -0.596,0.913 -0.974,1.29 -0.37,0.369 -0.747,0.739 -1.235,0.958l-1.719 0.545zm-8.42 -25.683c0,0.981 -0.107,0.708 2.264,0.708l0 50.234c0,0.163 -0.049,0.212 -0.212,0.212l-2.335 0c0,0.232 -0.127,0.779 0.213,0.779l9.41 0c0.54,0 0.434,-0.433 0.354,-0.779 -0.401,0 -0.802,0 -1.203,0 -0.331,0.001 -1.062,0.133 -1.062,-0.212l0 -24.268c0,-0.373 0.744,-0.212 0.991,-0.212 0.41,0 0.602,0.084 0.931,0.13 0.678,0.094 1.07,0.23 1.548,0.646 0.011,0.009 0.027,0.022 0.038,0.032l1.019 1.669c0.459,1.265 0.816,2.584 1.034,3.92 0.127,0.783 0.167,1.114 0.168,2.025l0.144 2.049c0.039,0.709 0,1.541 0,2.264 0,0.799 0.074,1.39 0.071,2.122 -0.001,0.355 -0.003,0.71 -0.003,1.064 0.001,0.655 0.139,1.4 0.147,2.047 0.004,0.36 -0.027,0.78 0.001,1.131l0.249 1.944c0.257,1.129 0.536,2.227 1.204,3.183l0.662 0.823c1.419,1.498 3.341,1.134 4.72,-0.169l0.769 -0.999c0.191,-0.355 0.812,-1.379 0.812,-1.665l0 -0.283c-0.405,0.009 -0.311,0.036 -0.465,0.313 -0.089,0.159 -0.215,0.324 -0.33,0.449 -0.135,0.146 -0.248,0.276 -0.41,0.368 -0.725,0.411 -1.408,0.097 -1.73,-0.672 -0.204,-0.489 -0.436,-1.967 -0.462,-2.509 -0.045,-0.921 -0.072,-1.97 -0.192,-2.85 -0.156,-1.137 0.032,-2.675 -0.101,-3.862 -0.132,-1.183 -0.012,-2.666 -0.142,-3.891 -0.054,-0.514 -0.098,-1.313 -0.13,-1.85 -0.067,-1.105 -0.335,-3.148 -0.864,-4.09 -0.136,-0.242 -0.261,-0.441 -0.41,-0.651 -0.509,-0.718 -1.194,-1.513 -1.939,-2.023 -2.262,-1.551 -2.71,-0.553 -2.872,-1.161 2.662,0 4.414,-1.803 5.552,-4.069 0.261,-0.52 0.555,-1.15 0.728,-1.678l0.414 -1.285c0.2,-0.603 0.397,-1.368 0.457,-2.019 0.025,-0.268 0.086,-0.324 0.118,-0.518 0.277,-1.648 0.37,-4.698 0.12,-6.24l-0.254 -1.585c-0.146,-0.81 -0.421,-1.633 -0.707,-2.406 -0.211,-0.568 -0.484,-1.22 -0.797,-1.75 -0.641,-1.088 -1.357,-2.097 -2.343,-2.893 -0.077,-0.062 -0.124,-0.094 -0.203,-0.151l-1.57 -0.906c-0.803,-0.367 -1.628,-0.537 -2.647,-0.537 -1.274,0 -10.291,-0.109 -10.755,0.071zm-36.225 25.754c0,0.464 0.053,0.702 0.071,1.061 0.092,1.914 0.068,3.718 0.302,5.57 0.048,0.376 0.111,0.582 0.121,1.082 0.011,0.501 0.214,1.56 0.282,2.053 0.053,0.384 0.095,0.66 0.174,1.029 0.046,0.219 0.023,0.297 0.051,0.515l0.185 0.947c0.045,0.196 0.091,0.302 0.129,0.508l1.056 4.25 0.76 2.141c0.07,0.193 0.076,0.229 0.157,0.409 0.084,0.188 0.118,0.26 0.198,0.439 0.672,1.504 1.462,2.931 2.527,4.194 1.084,1.285 2.482,2.27 4.142,2.651 0.617,0.141 1.296,0.108 1.944,0.108 0.375,0 1.313,-0.561 1.576,-0.759l1.293 -1.042c0.429,-0.359 0.809,-0.772 1.234,-1.101 1.959,-1.514 2.964,-0.979 3.506,1.448 0.1,0.449 0.069,0.959 0.457,0.959 0.355,0 0.212,-1.037 0.212,-1.557l0.001 -23.492c-0.005,-0.896 -0.308,-0.707 0.919,-0.706 0.306,0.001 0.614,-0.002 0.921,0.002 0.693,0.009 0.706,0.014 0.706,-0.567 0,-0.164 -0.049,-0.213 -0.212,-0.213l-9.906 0c-0.323,0 -0.323,0.779 0,0.779l2.335 0 0 16.697c0,1.98 -0.345,5.51 -1.471,7.303 -0.301,0.479 -0.987,1.329 -1.642,1.329 -0.862,0 -1.088,-0.005 -1.801,-0.605 -0.255,-0.215 -0.576,-0.662 -0.753,-0.944l-0.306 -0.543c-0.717,-1.247 -1.218,-3.108 -1.476,-4.539 -0.033,-0.183 -0.11,-0.412 -0.162,-0.686 -0.166,-0.857 -0.483,-2.144 -0.525,-2.942l-0.486 -3.759c-0.029,-0.275 0.01,-0.556 -0.019,-0.831 -0.024,-0.231 -0.11,-0.542 -0.129,-0.791 -0.123,-1.611 -0.357,-5.197 -0.357,-6.576 0,-1.829 -0.123,-6.645 0.09,-8.259 0.065,-0.49 -0.001,-1.165 0.071,-1.698 0.061,-0.455 0.132,-1.122 0.182,-1.586 0.033,-0.3 -0.009,-0.606 0.014,-0.907 0.019,-0.249 0.105,-0.56 0.129,-0.791 0.028,-0.275 -0.008,-0.542 0.028,-0.821l0.318 -2.37c0.038,-0.28 -0.007,-0.529 0.045,-0.804 0.069,-0.368 0.085,-0.355 0.119,-0.801l0.359 -2.33c0.027,-0.248 0.11,-0.457 0.162,-0.758 0.119,-0.69 0.248,-1.533 0.44,-2.177l0.368 -1.471c0.079,-0.244 0.156,-0.479 0.215,-0.705 0.263,-0.996 0.993,-2.922 1.725,-3.582 0.292,-0.263 0.759,-0.657 1.183,-0.657 0.736,0 1.571,0.436 1.982,0.777 0.012,0.01 0.028,0.023 0.039,0.033l1.719 2.313 0.662 1.461c0.054,0.129 0.056,0.117 0.106,0.247l0.922 2.9c0.287,0.946 0.79,2.96 0.927,3.954l0.595 3.65c0.033,0.194 0.098,0.256 0.119,0.518 0.048,0.566 0.108,1.328 0.296,1.832 0.245,0.659 0.45,-0.004 0.417,-0.491 -0.021,-0.311 -0.065,-0.3 -0.074,-0.635 -0.007,-0.233 0.018,-0.468 -0.008,-0.7 -0.087,-0.771 0.026,-1.9 -0.091,-2.669 -0.124,-0.825 -0.112,-1.807 -0.111,-2.718 0.001,-0.946 -0.147,-1.712 -0.142,-2.617 0.002,-0.459 0.024,-0.951 -0.041,-1.375 -0.067,-0.447 -0.004,-0.927 -0.029,-1.386 -0.049,-0.897 -0.142,-1.662 -0.142,-2.617 0,-0.456 0.036,-0.947 -0.03,-1.385 -0.04,-0.267 -0.028,-0.387 -0.041,-0.666 -0.013,-0.273 -0.071,-0.347 -0.071,-0.638 -0.427,0 -0.381,0.023 -0.457,0.463 -0.321,1.874 -1.68,2.693 -3.049,1.063l-1.027 -1.167c-0.908,-0.759 -1.042,-0.565 -1.802,-0.745 -0.219,-0.052 -0.12,-0.109 -0.315,-0.109l-2 0.335c-0.171,0.06 -0.218,0.094 -0.404,0.162 -0.174,0.063 -0.275,0.11 -0.437,0.2 -0.6,0.33 -1.126,0.742 -1.649,1.181l-0.41 0.368c-1.358,1.541 -1.86,2.529 -2.847,4.37 -0.297,0.556 -0.468,1.089 -0.724,1.681l-0.183 0.454c-0.006,0.017 -0.014,0.035 -0.02,0.051l-1.5 5.01c-0.048,0.199 -0.086,0.255 -0.125,0.44l-0.317 1.523c-0.22,0.843 -0.288,1.664 -0.432,2.54 -0.036,0.22 -0.098,0.305 -0.123,0.513 -0.022,0.181 0.003,0.366 -0.017,0.55 -0.017,0.166 -0.096,0.383 -0.116,0.52 -0.057,0.393 -0.052,0.706 -0.109,1.094 -0.145,1.002 -0.262,2.32 -0.261,3.347 0,0.867 -0.142,1.504 -0.142,2.264zm99.974 -25.612l0 14.858c0,0.237 0.166,0.212 0.353,0.212 0.386,0 0.286,-0.524 0.284,-0.92l-0.003 -3.753 0.242 -2.234c0.09,-0.371 0.12,-0.698 0.209,-1.064 0.049,-0.201 0.043,-0.345 0.098,-0.539l1.208 -3.179c0.442,-0.732 0.968,-1.552 1.669,-2.08 0.34,-0.256 1.28,-0.735 1.812,-0.735l6.085 0c0,0.319 -0.008,0.223 -0.069,0.426l-0.295 1.191c-0.044,0.21 -0.069,0.215 -0.109,0.386l-0.288 1.197c-0.074,0.242 -0.044,0.109 -0.092,0.404 -0.11,0.681 -0.379,1.308 -0.488,1.989l-4.825 19.938c-0.043,0.21 -0.069,0.215 -0.109,0.386l-2.419 9.963c-0.063,0.345 -0.097,0.459 -0.17,0.821l-0.793 3.169c-0.04,0.153 -0.042,0.262 -0.081,0.414 -0.053,0.203 -0.07,0.17 -0.122,0.373 -0.04,0.151 -0.042,0.26 -0.082,0.413l-0.289 1.197c-0.077,0.337 -0.115,0.429 -0.19,0.801 -0.269,1.328 -0.715,2.661 -0.971,3.982l-0.373 1.608c-0.039,0.224 -0.137,0.468 -0.211,0.779 -0.028,0.117 -0.079,0.276 -0.103,0.393 -0.041,0.2 -0.043,0.266 -0.082,0.413 -0.072,0.276 -0.161,0.583 -0.221,0.84 0.139,0.074 0.209,0.142 0.425,0.142l17.759 0c0.165,0 0.283,-0.118 0.283,-0.283l0 -14.505c0,-0.244 -0.053,-0.274 -0.071,-0.495 -0.897,0 -0.637,0.244 -0.637,2.052 0,0.755 0.073,2.047 -0.03,2.729 -0.123,0.812 0,1.645 -0.198,2.491l-0.196 1.148c-0.314,1.601 -1.145,3.48 -2.367,4.567 -0.011,0.009 -0.027,0.023 -0.038,0.032l-0.077 0.065c-1.158,0.988 -2.284,1.42 -3.815,1.42l-5.236 0c-0.312,0 -0.166,-0.402 -0.09,-0.654 0.085,-0.279 0.113,-0.507 0.205,-0.787l3.078 -12.347c0.035,-0.135 0.041,-0.232 0.083,-0.411l0.608 -2.365c0.064,-0.203 0.041,-0.183 0.088,-0.406 0.043,-0.209 0.068,-0.216 0.109,-0.387l0.398 -1.653c0.367,-1.56 0.865,-3.186 1.191,-4.753l1.698 -6.792c0.044,-0.209 0.07,-0.216 0.11,-0.386l1.202 -4.811c0.269,-1.142 0.69,-2.546 0.883,-3.646 0.038,-0.216 0.059,-0.205 0.114,-0.381l0.989 -3.963c0.074,-0.241 0.045,-0.108 0.092,-0.404 0.045,-0.283 0.061,-0.237 0.117,-0.448l1.186 -4.758c0.043,-0.161 0.044,-0.253 0.089,-0.406 0.075,-0.252 0.563,-1.467 0.09,-1.467l-17.405 0c-0.163,0 -0.212,0.049 -0.212,0.213zm-23.42 16.131c0.01,0.015 0.019,0.023 0.022,0.049 0.003,0.027 0.017,0.039 0.021,0.05 0.018,0.055 0.036,0.104 0.049,0.163 0.026,0.109 0.026,0.143 0.046,0.308 0.037,0.292 0.07,0.33 0.117,0.591 0.118,0.658 0.108,1.053 0.314,1.879l2.122 12.453c0.04,0.28 0.1,0.34 0.13,0.578 0.11,0.879 0.116,1.041 0.319,1.874l0.197 1.297c0.028,0.259 0.168,0.498 -0.153,0.498l-6.58 0c-0.272,0 -0.219,-0.221 -0.18,-0.451 0.043,-0.256 0.075,-0.373 0.125,-0.595l0.556 -3.123c0.028,-0.266 0.08,-0.404 0.138,-0.64l0.332 -1.791c0.051,-0.272 0.05,-0.409 0.108,-0.67l0.334 -1.859c0.059,-0.238 0.105,-0.372 0.141,-0.638 0.038,-0.289 0.068,-0.332 0.115,-0.592 0.048,-0.266 0.033,-0.399 0.091,-0.617 0.235,-0.885 0.345,-2.01 0.591,-3.087l1.045 -5.677zm-9.622 35.093l0 0.496 5.59 0c0.316,0 0.316,-0.708 0,-0.708l-2.406 0c0.011,-0.479 0.896,-4.578 0.986,-5.381 0.073,-0.638 0.275,-1.25 0.348,-1.846l1.159 -6.341c0.071,-0.314 -0.036,-0.795 0.337,-0.795l6.934 0c0.278,0 0.328,0.452 0.348,0.713 0.038,0.479 0.096,0.493 0.152,0.91 0.044,0.335 0.123,0.563 0.179,0.882 0.034,0.194 0.016,0.331 0.047,0.519l0.432 2.257c0.054,0.219 0.028,0.217 0.049,0.446 0.025,0.269 0.05,0.213 0.105,0.461l0.735 4.147c0.059,0.638 0.236,1.225 0.34,1.854 0.032,0.196 0.007,0.318 0.049,0.516l0.165 0.897c0.244,1.045 0.267,0.761 -1.894,0.761l0 0.708c0.787,0.183 7.742,0.071 9.127,0.071 0.192,0 0.196,-0.034 0.354,-0.071 0,-0.979 0.07,-0.708 -2.052,-0.708 0,-0.663 -0.229,-1.3 -0.335,-1.929 -0.027,-0.164 -0.013,-0.291 -0.037,-0.458l-2.117 -12.104c-0.063,-0.256 -0.091,-0.456 -0.139,-0.781 -0.219,-1.5 -0.865,-4.445 -0.985,-5.737 -0.071,-0.774 -0.586,-2.982 -0.706,-4.033l-0.143 -0.848c-0.071,-0.827 -0.742,-3.792 -0.844,-4.816l-1.836 -10.476c-0.065,-0.281 -0.068,-0.6 -0.137,-0.854 -0.082,-0.302 -0.053,-0.482 -0.12,-0.799 -0.264,-1.249 -0.463,-2.987 -0.722,-4.089l-0.219 -1.196c-0.117,-0.604 -0.508,-3.384 -0.645,-3.671 -0.361,0.264 -0.341,1.094 -0.45,1.532 -0.15,0.604 -0.298,1.902 -0.461,2.51 -0.077,0.287 -0.08,0.568 -0.148,0.842 -0.086,0.345 -0.097,0.422 -0.155,0.837l-0.969 5.044c-0.028,0.208 -0.006,0.238 -0.055,0.44l-0.431 2.117c-0.064,0.337 -0.082,0.568 -0.148,0.842l-0.934 5.009c-0.024,0.307 -0.013,0.177 -0.078,0.418 -0.051,0.189 -0.043,0.234 -0.082,0.483 -0.039,0.246 -0.149,0.54 -0.182,0.809l-1.407 7.65c-0.069,0.241 -0.054,0.063 -0.091,0.404l-0.221 1.264c-0.079,0.572 -0.251,1.045 -0.332,1.65 -0.105,0.785 -0.388,1.863 -0.488,2.554l-1.242 6.753c-0.209,1.109 -0.47,2.212 -0.628,3.335l-0.495 2.546c-0.024,0.148 -0.033,0.249 -0.068,0.428 -0.033,0.177 -0.066,0.215 -0.103,0.392 -0.039,0.187 -0.018,0.273 -0.04,0.455 -0.023,0.188 -0.056,0.199 -0.1,0.396 -0.073,0.331 -0.089,0.557 -0.16,0.83 -0.153,0.59 -0.176,1.132 -0.308,1.744 -0.15,0.702 -0.042,0.515 -1.474,0.507 -0.347,-0.002 -0.849,-0.11 -0.849,0.212zm92.474 -35.022c0.264,0.193 0.197,0.565 0.302,1.113l1.684 9.778c0.117,1.087 0.735,3.838 0.843,4.888l0.638 3.89 -6.863 0c-0.299,0 -0.182,-0.195 -0.125,-0.395 0.064,-0.22 0.091,-0.38 0.12,-0.6l1.491 -8.06c0.031,-0.304 0.067,-0.417 0.128,-0.651l1.782 -9.963zm-9.481 34.81c-0.136,0.284 -0.139,0.414 -0.071,0.708l5.24 0.004c0.574,0.009 0.562,-0.031 0.562,-0.5 0,-0.389 -1.688,-0.177 -2.275,-0.204 -0.409,-0.02 -0.39,-0.103 -0.226,-0.74 0.093,-0.36 0.121,-0.696 0.207,-1.066 0.297,-1.284 0.547,-3.386 0.861,-4.658 0.298,-1.203 0.377,-2.489 0.68,-3.706l0.268 -1.573c0.035,-0.222 0.094,-0.299 0.121,-0.515 0.029,-0.234 -0.002,-0.282 0.055,-0.511 0.112,-0.453 0.298,-1.115 0.309,-1.602l7.217 0c0.3,0 0.331,1.227 0.438,1.684 0.063,0.269 0.091,0.577 0.158,0.904l0.437 2.322c0.034,0.194 0.015,0.332 0.047,0.52l0.658 3.658c0.065,0.371 0.143,0.518 0.17,0.891 0.046,0.628 0.25,1.208 0.336,1.857l0.16 0.972c0.031,0.405 0.267,1.006 0.242,1.378 -0.01,0.152 -0.124,0.177 -0.311,0.177l-1.132 0c-0.536,0 -0.566,-0.096 -0.566,0.496 0,0.165 0.117,0.283 0.283,0.283 1.391,0 8.41,0.112 9.197,-0.071l0 -0.708 -1.839 0c-0.212,0 -0.156,-0.052 -0.219,-0.206l-1.209 -6.927c-0.073,-0.298 -0.087,-0.479 -0.139,-0.851l-0.581 -3.24c-0.07,-0.276 -0.047,-0.54 -0.114,-0.806l-0.735 -4.076c-0.07,-0.276 -0.047,-0.54 -0.114,-0.806 -0.09,-0.358 -0.107,-0.403 -0.148,-0.842l-0.708 -4.033c-0.073,-0.346 -0.101,-0.42 -0.141,-0.849 -0.097,-1.032 -0.728,-3.595 -0.849,-4.882l-0.701 -4.04c-0.091,-0.514 -0.244,-1.033 -0.287,-1.623l-1.416 -8.136c-0.046,-0.34 -0.102,-0.455 -0.144,-0.847 -0.034,-0.32 -0.102,-0.432 -0.136,-0.783 -0.038,-0.375 -0.102,-0.476 -0.173,-0.818 -0.066,-0.322 -0.035,-0.494 -0.119,-0.8 -0.138,-0.501 -0.486,-3.107 -0.726,-4.086 -0.072,-0.297 -0.042,-0.498 -0.123,-0.796 -0.133,-0.484 -0.185,-1.717 -0.365,-2.111 -0.095,-0.207 -0.042,-0.174 -0.263,-0.233 0,0.403 -0.154,0.899 -0.202,1.284l-0.206 1.28c-0.437,1.91 -0.709,3.906 -1.118,5.816l-0.86 4.588c-0.191,1.11 -0.352,2.222 -0.618,3.344 -0.047,0.195 -0.077,0.213 -0.099,0.396l-0.905 5.039c-0.061,0.247 -0.055,0.129 -0.093,0.401 -0.033,0.234 -0.023,0.225 -0.072,0.424l-1.277 6.718c-0.049,0.199 -0.039,0.19 -0.072,0.424 -0.038,0.273 -0.032,0.155 -0.093,0.401l-0.763 4.19c-0.03,0.19 -0.061,0.204 -0.101,0.394 -0.039,0.187 -0.018,0.272 -0.041,0.455 -0.022,0.183 -0.052,0.201 -0.099,0.396l-0.24 1.246c-0.047,0.427 -0.107,0.456 -0.146,0.844l-2.223 11.715c-0.039,0.189 -0.025,0.256 -0.051,0.445l-0.151 0.84c-0.049,0.288 -0.169,1.071 -0.348,1.138 -0.094,0.035 -1.788,0.013 -2.038,0.013zm-19.245 -51.154c0,0.873 -0.232,0.736 1.63,0.705 0.315,-0.005 0.634,-0.083 0.634,0.215l0 50.022c0,0.342 -0.673,0.214 -1.344,0.212 -0.962,-0.003 -0.92,-0.203 -0.92,0.708 0.773,0.18 8.012,0.071 9.41,0.071 0.191,0 0.195,-0.034 0.354,-0.071 0,-0.906 0.327,-0.708 -2.193,-0.708l0 -26.391c0,-2.258 -0.071,-4.302 -0.071,-6.58l0 -16.627c-0.006,-0.989 -0.329,-0.878 1.63,-0.846 0.675,0.011 0.634,0.073 0.634,-0.568 0,-0.164 -0.049,-0.213 -0.212,-0.213 -1.141,0 -9.126,-0.094 -9.552,0.071z"></path>
 </g>
</svg>