<svg width="29" height="31" viewbox="0 0 29 31" fill="none" xmlns="http://www.w3.org/2000/svg">
<g opacity="0.8">
<path fill-rule="evenodd" clip-rule="evenodd" d="M14.2879 1.5V29.5C14.2879 29.5 2.61472 26.2958 1.20032 6.09245C1.20032 6.09245 11.6512 3.67399 14.2879 1.50873V1.5Z" stroke="black" stroke-width="1.5" stroke-miterlimit="2.61313" stroke-linecap="round" stroke-linejoin="round"></path>
<path fill-rule="evenodd" clip-rule="evenodd" d="M14.288 1.5V29.5C14.288 29.5 25.9612 26.2958 27.3756 6.09245C27.3756 6.09245 16.9247 3.67399 14.288 1.50873V1.5Z" stroke="black" stroke-width="1.5" stroke-miterlimit="2.61313" stroke-linecap="round" stroke-linejoin="round"></path>
<path d="M14.288 22.3257C18.6579 22.3257 22.2004 18.7832 22.2004 14.4134C22.2004 10.0435 18.6579 6.50098 14.288 6.50098C9.9181 6.50098 6.37561 10.0435 6.37561 14.4134C6.37561 18.7832 9.9181 22.3257 14.288 22.3257Z" fill="#FFFAF1" stroke="black" stroke-width="1.5" stroke-miterlimit="2.61313" stroke-linecap="round" stroke-linejoin="round"></path>
<path fill-rule="evenodd" clip-rule="evenodd" d="M12.7624 19.2134C13.2201 19.4473 13.7388 19.5795 14.288 19.5795C14.8372 19.5795 15.3558 19.4473 15.8135 19.2134C16.922 18.6541 17.6746 17.5048 17.6746 16.1929C17.6746 16.1115 17.6746 16.0403 17.6645 15.959C17.6645 15.959 17.6645 15.9488 17.6645 15.9386H17.6746C17.6848 15.7251 17.6339 14.1182 14.288 9.25684C10.9522 14.1182 10.8911 15.7251 10.9013 15.9386H10.9115C10.9115 15.959 10.9115 15.959 10.9115 15.959C10.9013 16.0403 10.9013 16.1115 10.9013 16.1929C10.9013 17.515 11.6539 18.6642 12.7624 19.2134Z" stroke="black" stroke-width="1.5" stroke-miterlimit="2.61313" stroke-linecap="round" stroke-linejoin="round"></path>
</g>
</svg>