<svg width="124" height="124" viewbox="0 0 124 124" fill="none" xmlns="http://www.w3.org/2000/svg">
<path d="M45.0545 44.2418C46.1768 44.2418 47.0865 43.3321 47.0865 42.2098C47.0865 41.0875 46.1768 40.1777 45.0545 40.1777C43.9322 40.1777 43.0225 41.0875 43.0225 42.2098C43.0225 43.3321 43.9322 44.2418 45.0545 44.2418Z" fill="black"></path>
<path d="M43.6588 41.9943C44.0917 41.9943 44.4426 41.6434 44.4426 41.2105C44.4426 40.7777 44.0917 40.4268 43.6588 40.4268C43.2259 40.4268 42.875 40.7777 42.875 41.2105C42.875 41.6434 43.2259 41.9943 43.6588 41.9943Z" fill="white"></path>
<path fill-rule="evenodd" clip-rule="evenodd" d="M53.1641 44.7532C55.4574 44.4194 49.8402 41.052 49.579 40.8633C48.3307 39.9779 46.6905 39.4264 44.9343 39.3393C40.9573 39.1361 39.2736 40.7762 36.4287 43.0115C36.4287 43.0115 37.4883 42.8663 38.6349 44.1291C39.7816 45.3919 44.194 46.9014 48.0259 45.9725C51.8577 45.0435 53.1931 44.7678 53.1931 44.7678L53.1641 44.7532Z" stroke="black" stroke-miterlimit="2.61313" stroke-linecap="round" stroke-linejoin="round"></path>
<mask id="mask0_334_330" style="mask-type:alpha" maskunits="userSpaceOnUse" x="40" y="38" width="10" height="9">
<path d="M45.0554 45.8969C47.0915 45.8969 48.7421 44.2463 48.7421 42.2101C48.7421 40.174 47.0915 38.5234 45.0554 38.5234C43.0192 38.5234 41.3687 40.174 41.3687 42.2101C41.3687 44.2463 43.0192 45.8969 45.0554 45.8969Z" stroke="black" stroke-miterlimit="2.61313" stroke-linecap="round" stroke-linejoin="round"></path>
</mask>
<g mask="url(#mask0_334_330)">
<path fill-rule="evenodd" clip-rule="evenodd" d="M53.1645 44.7527C55.4579 44.4189 49.8407 41.0515 49.5794 40.8628C48.3312 39.9774 46.691 39.4259 44.9348 39.3388C40.9578 39.1356 39.2741 40.7757 36.4292 43.011C36.4292 43.011 37.4888 42.8658 38.6354 44.1286C39.7821 45.3914 44.1945 46.9009 48.0264 45.972C51.8582 45.043 53.1936 44.7673 53.1936 44.7673L53.1645 44.7527Z" fill="black" stroke="black" stroke-miterlimit="2.61313" stroke-linecap="round" stroke-linejoin="round"></path>
</g>
<path d="M52.6326 43.2983C52.6326 43.2983 51.9214 44.0386 52.2117 44.895" stroke="black" stroke-miterlimit="2.61313" stroke-linecap="round" stroke-linejoin="round"></path>
<path d="M53.4906 42.2552C53.4906 42.2552 50.8925 37.7267 44.7963 37.6686C38.7002 37.6106 35.6812 41.3263 35.6812 41.3263" stroke="black" stroke-miterlimit="2.61313" stroke-linecap="round" stroke-linejoin="round"></path>
<path fill-rule="evenodd" clip-rule="evenodd" d="M54.2529 35.7951C54.2529 35.7951 55.3415 34.3872 52.2063 32.747C52.2063 32.747 40.7979 29.3651 38.1417 29.699C35.4855 30.0328 31.3198 33.3566 31.3198 33.3566C31.3198 33.3566 35.9645 31.5713 41.2768 32.9793C46.5892 34.3872 53.7159 36.3612 54.2529 35.7951V35.7951Z" stroke="black" stroke-miterlimit="2.61313" stroke-linecap="round" stroke-linejoin="round"></path>
<path d="M63.3596 68.6007C63.3596 68.6007 61.8646 68.6442 61.2695 67.9621C60.6599 67.2799 59.1359 66.6703 57.9312 66.7573" stroke="black" stroke-miterlimit="2.61313" stroke-linecap="round" stroke-linejoin="round"></path>
<path d="M56.1955 63.373C56.1955 63.373 54.1779 67.5968 58.3726 68.2935" stroke="black" stroke-miterlimit="2.61313" stroke-linecap="round" stroke-linejoin="round"></path>
<path d="M56.9907 40.6421C56.9907 40.6421 60.6194 43.8643 59.8936 52.7328" stroke="black" stroke-miterlimit="2.61313" stroke-linecap="round" stroke-linejoin="round"></path>
<path fill-rule="evenodd" clip-rule="evenodd" d="M63.5833 76.6956C63.5833 76.6956 60.6223 75.2442 58.5322 76.4489C56.4421 77.6536 50.4766 80.6436 50.4766 80.6436C50.4766 80.6436 53.1327 88.7863 63.5833 88.7863C74.0338 88.7863 76.6899 80.6436 76.6899 80.6436C76.6899 80.6436 70.7244 77.6681 68.6343 76.4489C66.5442 75.2442 63.5833 76.6956 63.5833 76.6956V76.6956Z" stroke="black" stroke-miterlimit="2.61313" stroke-linecap="round" stroke-linejoin="round"></path>
<path d="M63.5771 81.6467C63.5771 81.6467 62.8368 81.6032 61.9079 81.2258C60.979 80.8484 56.3488 80.6597 54.0991 81.1823C51.8493 81.7048 51.1526 80.4565 48.7432 80.4565" stroke="black" stroke-miterlimit="2.61313" stroke-linecap="round" stroke-linejoin="round"></path>
<path d="M21.5996 40.874C21.5996 40.874 26.4185 61.1364 28.9875 71.6885C31.5711 82.2407 32.2098 84.0115 37.8415 89.3238C43.4876 94.6362 54.301 104.637 63.5613 104.637" stroke="black" stroke-miterlimit="2.61313" stroke-linecap="round" stroke-linejoin="round"></path>
<path d="M18.1207 38.0874C18.1207 38.0874 15.0146 38.1309 16.0596 42.645C17.1047 47.159 20.893 53.6761 21.372 58.5095C21.851 63.3428 23.7524 64.7653 27.2359 64.4605" stroke="black" stroke-miterlimit="2.61313" stroke-linecap="round" stroke-linejoin="round"></path>
<path d="M18.915 44.8076C18.915 44.8076 19.423 42.6304 20.4536 43.3561C21.4841 44.0818 23.6323 49.8006 23.6323 49.8006C23.6323 49.8006 22.2534 52.7035 23.0227 53.5889C23.7919 54.4743 25.2724 56.2741 25.2724 56.2741" stroke="black" stroke-miterlimit="2.61313" stroke-linecap="round" stroke-linejoin="round"></path>
<path d="M82.0994 44.2418C83.2217 44.2418 84.1315 43.3321 84.1315 42.2098C84.1315 41.0875 83.2217 40.1777 82.0994 40.1777C80.9772 40.1777 80.0674 41.0875 80.0674 42.2098C80.0674 43.3321 80.9772 44.2418 82.0994 44.2418Z" fill="black"></path>
<path d="M80.6925 41.9943C81.1254 41.9943 81.4763 41.6434 81.4763 41.2105C81.4763 40.7777 81.1254 40.4268 80.6925 40.4268C80.2596 40.4268 79.9087 40.7777 79.9087 41.2105C79.9087 41.6434 80.2596 41.9943 80.6925 41.9943Z" fill="white"></path>
<path fill-rule="evenodd" clip-rule="evenodd" d="M73.9777 44.7532C71.6844 44.4194 77.3015 41.052 77.5628 40.8633C78.811 39.9779 80.4512 39.4264 82.2074 39.3393C86.1844 39.1361 87.8681 40.7762 90.713 43.0115C90.713 43.0115 89.6534 42.8663 88.5068 44.1291C87.3601 45.3919 82.9477 46.9014 79.1158 45.9725C75.284 45.0435 73.9486 44.7678 73.9486 44.7678L73.9777 44.7532Z" stroke="black" stroke-miterlimit="2.61313" stroke-linecap="round" stroke-linejoin="round"></path>
<mask id="mask1_334_330" style="mask-type:alpha" maskunits="userSpaceOnUse" x="77" y="38" width="10" height="9">
<path d="M82.1003 45.8969C84.1364 45.8969 85.787 44.2463 85.787 42.2101C85.787 40.174 84.1364 38.5234 82.1003 38.5234C80.0642 38.5234 78.4136 40.174 78.4136 42.2101C78.4136 44.2463 80.0642 45.8969 82.1003 45.8969Z" stroke="black" stroke-miterlimit="2.61313" stroke-linecap="round" stroke-linejoin="round"></path>
</mask>
<g mask="url(#mask1_334_330)">
<path fill-rule="evenodd" clip-rule="evenodd" d="M73.9777 44.7527C71.6844 44.4189 77.3015 41.0515 77.5628 40.8628C78.811 39.9774 80.4512 39.4259 82.2074 39.3388C86.1845 39.1356 87.8681 40.7757 90.713 43.011C90.713 43.011 89.6534 42.8658 88.5068 44.1286C87.3601 45.3914 82.9477 46.9009 79.1158 45.972C75.284 45.043 73.9486 44.7673 73.9486 44.7673L73.9777 44.7527Z" fill="black" stroke="black" stroke-miterlimit="2.61313" stroke-linecap="round" stroke-linejoin="round"></path>
</g>
<path d="M74.5161 43.2983C74.5161 43.2983 75.2273 44.0386 74.937 44.895" stroke="black" stroke-miterlimit="2.61313" stroke-linecap="round" stroke-linejoin="round"></path>
<path d="M73.644 42.2552C73.644 42.2552 76.2422 37.7267 82.3383 37.6686C88.4344 37.6106 91.4535 41.3263 91.4535 41.3263" stroke="black" stroke-miterlimit="2.61313" stroke-linecap="round" stroke-linejoin="round"></path>
<path fill-rule="evenodd" clip-rule="evenodd" d="M72.8865 35.7951C72.8865 35.7951 71.7979 34.3872 74.933 32.747C74.933 32.747 86.3415 29.3651 88.9977 29.699C91.6538 30.0328 95.8195 33.3566 95.8195 33.3566C95.8195 33.3566 91.1749 31.5713 85.8625 32.9793C80.5502 34.3872 73.4235 36.3612 72.8865 35.7951V35.7951Z" stroke="black" stroke-miterlimit="2.61313" stroke-linecap="round" stroke-linejoin="round"></path>
<path d="M63.7881 68.6007C63.7881 68.6007 65.2831 68.6442 65.8782 67.9621C66.4878 67.2799 68.0118 66.6703 69.2165 66.7573" stroke="black" stroke-miterlimit="2.61313" stroke-linecap="round" stroke-linejoin="round"></path>
<path d="M70.9614 63.373C70.9614 63.373 72.9789 67.5968 68.7842 68.2935" stroke="black" stroke-miterlimit="2.61313" stroke-linecap="round" stroke-linejoin="round"></path>
<path d="M70.1512 40.6421C70.1512 40.6421 66.5226 43.8643 67.2483 52.7328" stroke="black" stroke-miterlimit="2.61313" stroke-linecap="round" stroke-linejoin="round"></path>
<path d="M63.5728 81.6467C63.5728 81.6467 64.313 81.6032 65.2419 81.2258C66.1709 80.8484 70.801 80.6597 73.0508 81.1823C75.3006 81.7048 75.9973 80.4565 78.4067 80.4565" stroke="black" stroke-miterlimit="2.61313" stroke-linecap="round" stroke-linejoin="round"></path>
<path d="M105.546 40.874C105.546 40.874 100.727 61.1364 98.1578 71.6885C95.5742 82.2407 94.9355 84.0115 89.3039 89.3238C83.6577 94.6362 72.8443 104.637 63.584 104.637" stroke="black" stroke-miterlimit="2.61313" stroke-linecap="round" stroke-linejoin="round"></path>
<path d="M109.03 38.0874C109.03 38.0874 112.136 38.1309 111.091 42.645C110.046 47.159 106.258 53.6761 105.779 58.5095C105.3 63.3428 103.399 64.7653 99.915 64.4605" stroke="black" stroke-miterlimit="2.61313" stroke-linecap="round" stroke-linejoin="round"></path>
<path d="M108.221 44.8076C108.221 44.8076 107.713 42.6304 106.683 43.3561C105.652 44.0818 103.504 49.8006 103.504 49.8006C103.504 49.8006 104.883 52.7035 104.114 53.5889C103.344 54.4743 101.864 56.2741 101.864 56.2741" stroke="black" stroke-miterlimit="2.61313" stroke-linecap="round" stroke-linejoin="round"></path>
<path fill-rule="evenodd" clip-rule="evenodd" d="M22.2114 88.5111C29.4107 88.5111 35.2455 81.486 35.2455 72.8208C35.2455 81.486 41.0804 88.5111 48.2797 88.5111C41.0804 88.5111 35.2455 95.5362 35.2455 104.201C35.2455 95.5362 29.4107 88.5111 22.2114 88.5111Z" fill="#FFFAF1" stroke="#008763" stroke-width="2" stroke-miterlimit="2.61313" stroke-linecap="round" stroke-linejoin="round"></path>
<path fill-rule="evenodd" clip-rule="evenodd" d="M6.94043 77.4226C10.6997 77.4226 13.7478 73.5182 13.7478 68.7139C13.7478 73.5182 16.7959 77.4226 20.5551 77.4226C16.7959 77.4226 13.7478 81.3271 13.7478 86.1314C13.7478 81.3271 10.6997 77.4226 6.94043 77.4226Z" fill="#FFFAF1" stroke="#008763" stroke-width="2" stroke-miterlimit="2.61313" stroke-linecap="round" stroke-linejoin="round"></path>
<path fill-rule="evenodd" clip-rule="evenodd" d="M86.7847 58.862C90.1925 58.862 92.9556 55.457 92.9556 51.2671C92.9556 55.457 95.7186 58.862 99.1264 58.862C95.7186 58.862 92.9556 62.2671 92.9556 66.457C92.9556 62.2671 90.1925 58.862 86.7847 58.862Z" fill="#FFFAF1" stroke="#008763" stroke-width="2" stroke-miterlimit="2.61313" stroke-linecap="round" stroke-linejoin="round"></path>
</svg>