<svg width="55" height="40" viewbox="0 0 55 40" fill="none" xmlns="http://www.w3.org/2000/svg">
<path d="M20.4573 8.43504C21.0302 8.43504 21.4946 7.97061 21.4946 7.3977C21.4946 6.82479 21.0302 6.36035 20.4573 6.36035C19.8844 6.36035 19.4199 6.82479 19.4199 7.3977C19.4199 7.97061 19.8844 8.43504 20.4573 8.43504Z" fill="#008763"></path>
<path d="M19.7458 7.28803C19.9668 7.28803 20.1459 7.10889 20.1459 6.88791C20.1459 6.66693 19.9668 6.48779 19.7458 6.48779C19.5248 6.48779 19.3457 6.66693 19.3457 6.88791C19.3457 7.10889 19.5248 7.28803 19.7458 7.28803Z" fill="white"></path>
<path fill-rule="evenodd" clip-rule="evenodd" d="M24.5979 8.6963C25.7687 8.52587 22.9012 6.80685 22.7678 6.71052C22.1306 6.25854 21.2933 5.97697 20.3967 5.93251C18.3665 5.82878 17.507 6.66606 16.0547 7.80714C16.0547 7.80714 16.5956 7.73305 17.1809 8.37768C17.7663 9.02232 20.0188 9.79292 21.975 9.3187C23.9311 8.84449 24.6128 8.70371 24.6128 8.70371L24.5979 8.6963Z" stroke="#008763" stroke-width="0.8" stroke-miterlimit="2.61313" stroke-linecap="round" stroke-linejoin="round"></path>
<mask id="mask0_4634_25155" style="mask-type:alpha" maskunits="userSpaceOnUse" x="18" y="5" width="5" height="5">
<path d="M20.4582 9.28067C21.4976 9.28067 22.3402 8.43806 22.3402 7.39864C22.3402 6.35922 21.4976 5.5166 20.4582 5.5166C19.4188 5.5166 18.5762 6.35922 18.5762 7.39864C18.5762 8.43806 19.4188 9.28067 20.4582 9.28067Z" stroke="black" stroke-width="0.8" stroke-miterlimit="2.61313" stroke-linecap="round" stroke-linejoin="round"></path>
</mask>
<g mask="url(#mask0_4634_25155)">
<path fill-rule="evenodd" clip-rule="evenodd" d="M24.5979 8.69629C25.7687 8.52587 22.9012 6.80685 22.7678 6.71052C22.1306 6.25854 21.2933 5.97697 20.3967 5.93251C18.3665 5.82878 17.507 6.66606 16.0547 7.80714C16.0547 7.80714 16.5956 7.73305 17.1809 8.37768C17.7663 9.02232 20.0188 9.79292 21.975 9.3187C23.9311 8.84449 24.6128 8.7037 24.6128 8.7037L24.5979 8.69629Z" fill="#008763" stroke="#008763" stroke-width="0.8" stroke-miterlimit="2.61313" stroke-linecap="round" stroke-linejoin="round"></path>
</g>
<path d="M24.3266 7.95508C24.3266 7.95508 23.9635 8.33297 24.1117 8.77013" stroke="#008763" stroke-width="0.8" stroke-miterlimit="2.61313" stroke-linecap="round" stroke-linejoin="round"></path>
<path d="M24.7654 7.42136C24.7654 7.42136 23.4391 5.10957 20.3271 5.07993C17.215 5.0503 15.6738 6.94715 15.6738 6.94715" stroke="#008763" stroke-width="0.8" stroke-miterlimit="2.61313" stroke-linecap="round" stroke-linejoin="round"></path>
<path fill-rule="evenodd" clip-rule="evenodd" d="M25.1544 4.12386C25.1544 4.12386 25.7101 3.40513 24.1097 2.56785C24.1097 2.56785 18.2857 0.841415 16.9298 1.01184C15.5738 1.18226 13.4473 2.87905 13.4473 2.87905C13.4473 2.87905 15.8183 1.96767 18.5302 2.6864C21.2422 3.40513 24.8803 4.41284 25.1544 4.12386V4.12386Z" stroke="#008763" stroke-width="0.8" stroke-miterlimit="2.61313" stroke-linecap="round" stroke-linejoin="round"></path>
<path d="M29.8024 20.872C29.8024 20.872 29.0393 20.8943 28.7355 20.546C28.4243 20.1978 27.6462 19.8865 27.0312 19.931" stroke="#008763" stroke-width="0.8" stroke-miterlimit="2.61313" stroke-linecap="round" stroke-linejoin="round"></path>
<path d="M26.146 18.2017C26.146 18.2017 25.1161 20.3578 27.2575 20.7135" stroke="#008763" stroke-width="0.8" stroke-miterlimit="2.61313" stroke-linecap="round" stroke-linejoin="round"></path>
<path d="M26.5527 6.59814C26.5527 6.59814 28.4051 8.24308 28.0347 12.7703" stroke="#008763" stroke-width="0.8" stroke-miterlimit="2.61313" stroke-linecap="round" stroke-linejoin="round"></path>
<path fill-rule="evenodd" clip-rule="evenodd" d="M29.9174 25.0039C29.9174 25.0039 28.4059 24.2629 27.3389 24.8779C26.2719 25.4929 23.2266 27.0193 23.2266 27.0193C23.2266 27.0193 24.5825 31.176 29.9174 31.176C35.2523 31.176 36.6083 27.0193 36.6083 27.0193C36.6083 27.0193 33.5629 25.5003 32.496 24.8779C31.429 24.2629 29.9174 25.0039 29.9174 25.0039V25.0039Z" stroke="#008763" stroke-width="0.8" stroke-miterlimit="2.61313" stroke-linecap="round" stroke-linejoin="round"></path>
<path d="M29.9124 27.5304C29.9124 27.5304 29.5346 27.5082 29.0603 27.3156C28.5861 27.1229 26.2225 27.0266 25.074 27.2933C23.9255 27.5601 23.5698 26.9229 22.3398 26.9229" stroke="#008763" stroke-width="0.8" stroke-miterlimit="2.61313" stroke-linecap="round" stroke-linejoin="round"></path>
<path d="M8.48438 6.71729C8.48438 6.71729 10.9444 17.0611 12.2559 22.4479C13.5748 27.8346 13.9008 28.7386 16.7757 31.4505C19.658 34.1624 25.1782 39.2676 29.9055 39.2676" stroke="#008763" stroke-width="0.8" stroke-miterlimit="2.61313" stroke-linecap="round" stroke-linejoin="round"></path>
<path d="M6.70874 5.29297C6.70874 5.29297 5.12309 5.3152 5.65658 7.61958C6.19007 9.92396 8.12397 13.2509 8.36849 15.7183C8.613 18.1857 9.58366 18.9118 11.362 18.7562" stroke="#008763" stroke-width="0.8" stroke-miterlimit="2.61313" stroke-linecap="round" stroke-linejoin="round"></path>
<path d="M7.11328 8.72379C7.11328 8.72379 7.37262 7.61235 7.8987 7.98283C8.42478 8.35331 9.5214 11.2727 9.5214 11.2727C9.5214 11.2727 8.81749 12.7546 9.2102 13.2066C9.6029 13.6586 10.3587 14.5774 10.3587 14.5774" stroke="#008763" stroke-width="0.8" stroke-miterlimit="2.61313" stroke-linecap="round" stroke-linejoin="round"></path>
<path d="M39.3674 8.43504C39.9403 8.43504 40.4048 7.97061 40.4048 7.3977C40.4048 6.82479 39.9403 6.36035 39.3674 6.36035C38.7945 6.36035 38.3301 6.82479 38.3301 7.3977C38.3301 7.97061 38.7945 8.43504 39.3674 8.43504Z" fill="#008763"></path>
<path d="M38.6501 7.28803C38.8711 7.28803 39.0502 7.10889 39.0502 6.88791C39.0502 6.66693 38.8711 6.48779 38.6501 6.48779C38.4291 6.48779 38.25 6.66693 38.25 6.88791C38.25 7.10889 38.4291 7.28803 38.6501 7.28803Z" fill="white"></path>
<path fill-rule="evenodd" clip-rule="evenodd" d="M35.2216 8.6963C34.0509 8.52587 36.9184 6.80685 37.0518 6.71052C37.689 6.25854 38.5263 5.97697 39.4229 5.93251C41.4531 5.82878 42.3126 6.66606 43.7649 7.80714C43.7649 7.80714 43.224 7.73305 42.6386 8.37768C42.0533 9.02232 39.8008 9.79292 37.8446 9.3187C35.8885 8.84449 35.2068 8.70371 35.2068 8.70371L35.2216 8.6963Z" stroke="#008763" stroke-width="0.8" stroke-miterlimit="2.61313" stroke-linecap="round" stroke-linejoin="round"></path>
<mask id="mask1_4634_25155" style="mask-type:alpha" maskunits="userSpaceOnUse" x="37" y="5" width="5" height="5">
<path d="M39.3684 9.28067C40.4078 9.28067 41.2504 8.43806 41.2504 7.39864C41.2504 6.35922 40.4078 5.5166 39.3684 5.5166C38.3289 5.5166 37.4863 6.35922 37.4863 7.39864C37.4863 8.43806 38.3289 9.28067 39.3684 9.28067Z" stroke="black" stroke-width="0.8" stroke-miterlimit="2.61313" stroke-linecap="round" stroke-linejoin="round"></path>
</mask>
<g mask="url(#mask1_4634_25155)">
<path fill-rule="evenodd" clip-rule="evenodd" d="M35.2216 8.69629C34.0509 8.52587 36.9184 6.80685 37.0518 6.71052C37.689 6.25854 38.5263 5.97697 39.4229 5.93251C41.4531 5.82878 42.3126 6.66606 43.7649 7.80714C43.7649 7.80714 43.224 7.73305 42.6386 8.37768C42.0533 9.02232 39.8008 9.79292 37.8446 9.3187C35.8885 8.84449 35.2068 8.7037 35.2068 8.7037L35.2216 8.69629Z" fill="#008763" stroke="#008763" stroke-width="0.8" stroke-miterlimit="2.61313" stroke-linecap="round" stroke-linejoin="round"></path>
</g>
<path d="M35.4961 7.95508C35.4961 7.95508 35.8592 8.33297 35.711 8.77013" stroke="#008763" stroke-width="0.8" stroke-miterlimit="2.61313" stroke-linecap="round" stroke-linejoin="round"></path>
<path d="M35.0527 7.42136C35.0527 7.42136 36.379 5.10957 39.4911 5.07993C42.6031 5.0503 44.1443 6.94715 44.1443 6.94715" stroke="#008763" stroke-width="0.8" stroke-miterlimit="2.61313" stroke-linecap="round" stroke-linejoin="round"></path>
<path fill-rule="evenodd" clip-rule="evenodd" d="M34.6656 4.12386C34.6656 4.12386 34.1099 3.40513 35.7104 2.56785C35.7104 2.56785 41.5343 0.841415 42.8903 1.01184C44.2462 1.18226 46.3728 2.87905 46.3728 2.87905C46.3728 2.87905 44.0017 1.96767 41.2898 2.6864C38.5779 3.40513 34.9398 4.41284 34.6656 4.12386V4.12386Z" stroke="#008763" stroke-width="0.8" stroke-miterlimit="2.61313" stroke-linecap="round" stroke-linejoin="round"></path>
<path d="M30.0195 20.872C30.0195 20.872 30.7827 20.8943 31.0865 20.546C31.3977 20.1978 32.1757 19.8865 32.7907 19.931" stroke="#008763" stroke-width="0.8" stroke-miterlimit="2.61313" stroke-linecap="round" stroke-linejoin="round"></path>
<path d="M33.6837 18.2017C33.6837 18.2017 34.7136 20.3578 32.5723 20.7135" stroke="#008763" stroke-width="0.8" stroke-miterlimit="2.61313" stroke-linecap="round" stroke-linejoin="round"></path>
<path d="M33.2692 6.59814C33.2692 6.59814 31.4168 8.24308 31.7873 12.7703" stroke="#008763" stroke-width="0.8" stroke-miterlimit="2.61313" stroke-linecap="round" stroke-linejoin="round"></path>
<path d="M29.9102 27.5304C29.9102 27.5304 30.288 27.5082 30.7623 27.3156C31.2365 27.1229 33.6001 27.0266 34.7486 27.2933C35.8971 27.5601 36.2528 26.9229 37.4828 26.9229" stroke="#008763" stroke-width="0.8" stroke-miterlimit="2.61313" stroke-linecap="round" stroke-linejoin="round"></path>
<path d="M51.3371 6.71729C51.3371 6.71729 48.8772 17.0611 47.5657 22.4479C46.2468 27.8346 45.9207 28.7386 43.0458 31.4505C40.1635 34.1624 34.6433 39.2676 29.916 39.2676" stroke="#008763" stroke-width="0.8" stroke-miterlimit="2.61313" stroke-linecap="round" stroke-linejoin="round"></path>
<path d="M53.1161 5.29297C53.1161 5.29297 54.7018 5.3152 54.1683 7.61958C53.6348 9.92396 51.7009 13.2509 51.4564 15.7183C51.2119 18.1857 50.2412 18.9118 48.4629 18.7562" stroke="#008763" stroke-width="0.8" stroke-miterlimit="2.61313" stroke-linecap="round" stroke-linejoin="round"></path>
<path d="M52.7024 8.72379C52.7024 8.72379 52.4431 7.61235 51.917 7.98283C51.3909 8.35331 50.2943 11.2727 50.2943 11.2727C50.2943 11.2727 50.9982 12.7546 50.6055 13.2066C50.2128 13.6586 49.457 14.5774 49.457 14.5774" stroke="#008763" stroke-width="0.8" stroke-miterlimit="2.61313" stroke-linecap="round" stroke-linejoin="round"></path>
<path fill-rule="evenodd" clip-rule="evenodd" d="M8.79492 31.0332C12.4701 31.0332 15.4487 27.447 15.4487 23.0234C15.4487 27.447 18.4274 31.0332 22.1026 31.0332C18.4274 31.0332 15.4487 34.6195 15.4487 39.043C15.4487 34.6195 12.4701 31.0332 8.79492 31.0332Z" fill="#FFFAF1" stroke="#008763" stroke-width="0.8" stroke-miterlimit="2.61313" stroke-linecap="round" stroke-linejoin="round"></path>
<path fill-rule="evenodd" clip-rule="evenodd" d="M1 25.3735C2.91909 25.3735 4.4751 23.3803 4.4751 20.9277C4.4751 23.3803 6.03112 25.3735 7.9502 25.3735C6.03112 25.3735 4.4751 27.3667 4.4751 29.8192C4.4751 27.3667 2.91909 25.3735 1 25.3735Z" fill="#FFFAF1" stroke="#008763" stroke-width="0.8" stroke-miterlimit="2.61313" stroke-linecap="round" stroke-linejoin="round"></path>
<path fill-rule="evenodd" clip-rule="evenodd" d="M41.7598 15.8977C43.4994 15.8977 44.91 14.1594 44.91 12.0205C44.91 14.1594 46.3205 15.8977 48.0601 15.8977C46.3205 15.8977 44.91 17.6359 44.91 19.7748C44.91 17.6359 43.4994 15.8977 41.7598 15.8977Z" fill="#FFFAF1" stroke="#008763" stroke-width="0.8" stroke-miterlimit="2.61313" stroke-linecap="round" stroke-linejoin="round"></path>
</svg>