<svg width="33" height="22" viewbox="0 0 33 22" fill="none" xmlns="http://www.w3.org/2000/svg">
<path fill-rule="evenodd" clip-rule="evenodd" d="M16.5241 1.14282H18.9411V17.579H12.4283C11.9449 15.6453 10.4521 14.1951 7.81724 14.1951C5.18235 14.1951 3.6896 15.6453 3.20618 17.579H2.50496C2.50496 17.579 2.50496 17.579 2.50496 17.0956C2.50496 16.1288 1.53812 14.6785 0.571289 14.1951V1.14282L16.5241 1.14282Z" stroke="black" stroke-miterlimit="2.61313" stroke-linecap="round" stroke-linejoin="round"></path>
<path fill-rule="evenodd" clip-rule="evenodd" d="M7.82236 16.3843C9.27261 16.3843 10.2394 17.3511 10.2394 18.8014C10.2394 20.2516 9.27261 21.2184 7.82236 21.2184C6.37211 21.2184 5.40527 20.2516 5.40527 18.8014C5.40527 17.3511 6.37211 16.3843 7.82236 16.3843Z" stroke="black" stroke-miterlimit="2.61313" stroke-linecap="round" stroke-linejoin="round"></path>
<path fill-rule="evenodd" clip-rule="evenodd" d="M27.1275 16.3843C28.5778 16.3843 29.5446 17.3511 29.5446 18.8014C29.5446 20.2516 28.5778 21.2184 27.1275 21.2184C25.6773 21.2184 24.7104 20.2516 24.7104 18.8014C24.7104 17.3511 25.6773 16.3843 27.1275 16.3843Z" stroke="black" stroke-miterlimit="2.61313" stroke-linecap="round" stroke-linejoin="round"></path>
<path fill-rule="evenodd" clip-rule="evenodd" d="M22.1338 5.26575H27.9348L32.2856 10.5833V17.8346H31.5312C31.0478 15.9009 29.5551 14.4507 26.968 14.4507C24.2853 14.4507 22.7925 15.9009 22.3091 17.8346H21.6504V5.26575H22.1338Z" stroke="black" stroke-miterlimit="2.61313" stroke-linecap="round" stroke-linejoin="round"></path>
<path d="M32 10.9998L22 10.9998" stroke="black"></path>
<path d="M24 4.99976L24 10.9998" stroke="black"></path>
<path d="M15.0041 1.14282H0.772461V12.3248H15.0041V1.14282Z" stroke="black" stroke-miterlimit="2.61313" stroke-linecap="round" stroke-linejoin="round"></path>
<path d="M8.13072 8.30559C8.17867 8.31102 8.24188 8.31227 8.29116 8.31227C8.31627 8.31227 8.33835 8.31194 8.35387 8.31161L8.3719 8.31115L8.37667 8.31099L8.37751 8.31095C8.68909 8.30552 8.99011 8.23683 9.27529 8.1158L9.27529 8.11581L9.27619 8.11541C9.5819 7.97852 9.84691 7.79418 10.0811 7.56274L10.0815 7.56235C10.3108 7.33064 10.4994 7.05678 10.6369 6.74099C10.7747 6.42456 10.8461 6.08703 10.8461 5.72367C10.8461 5.36031 10.7747 5.02278 10.6369 4.70635C10.4995 4.39089 10.3161 4.11696 10.0815 3.87983L10.0815 3.87982C9.85185 3.64783 9.58159 3.46351 9.27619 3.32676L9.27581 3.32659C8.9745 3.19467 8.65261 3.12603 8.32054 3.12603C7.98836 3.12603 7.67147 3.19472 7.37028 3.32659C7.06958 3.45825 6.79913 3.64271 6.56941 3.88003C6.33492 4.11711 6.15153 4.39098 6.01419 4.70635C5.87636 5.02283 5.80498 5.36553 5.80498 5.72367C5.80498 6.08686 5.87631 6.42944 6.00903 6.74064L6.00902 6.74064L6.00946 6.7416C6.15169 7.05653 6.33497 7.33033 6.56461 7.56235C6.7942 7.79431 7.06437 7.97857 7.36461 8.11528L7.3646 8.11529L7.36556 8.1157C7.61025 8.22105 7.86039 8.28441 8.13072 8.30559ZM8.13072 8.30559C8.13041 8.30555 8.1301 8.30552 8.12979 8.30548L8.1355 8.25581L8.13161 8.30566C8.13131 8.30563 8.13102 8.30561 8.13072 8.30559ZM8.94866 7.89851L8.94814 7.89886C8.77745 8.01154 8.56732 8.07145 8.32054 8.07145C8.07804 8.07145 7.869 8.01639 7.69954 7.89479L7.69958 7.89474L7.69741 7.89335C7.52054 7.77974 7.37591 7.616 7.26423 7.4103L7.26424 7.4103L7.26379 7.40951C7.14717 7.20364 7.06367 6.95599 7.00938 6.66533C6.95496 6.37396 6.92521 6.05665 6.92521 5.7185C6.92521 5.38051 6.95494 5.06333 7.00931 4.77207C7.06861 4.48116 7.15225 4.23284 7.26447 4.02109C7.37578 3.81106 7.52031 3.65203 7.69823 3.53278L7.69823 3.53279L7.69876 3.53243C7.86905 3.41512 8.07877 3.35522 8.32554 3.35522C8.57182 3.35522 8.77683 3.41488 8.95259 3.53261C9.1254 3.65172 9.27049 3.81614 9.38729 4.02232C9.50383 4.22804 9.58729 4.48064 9.63658 4.76584L9.63658 4.76584L9.6367 4.7665C9.69111 5.05785 9.72087 5.37516 9.72087 5.7185C9.72087 6.06707 9.6911 6.38432 9.63673 6.67034L9.6367 6.6705C9.58242 6.96116 9.49892 7.2088 9.38229 7.41468L9.38228 7.41467L9.38185 7.41547C9.27018 7.62116 9.12554 7.78491 8.94866 7.89851Z" fill="black" stroke="black" stroke-width="0.1" stroke-linecap="round" stroke-linejoin="round"></path>
<path d="M10.7964 8.8483C10.824 8.8483 10.8464 8.82591 10.8464 8.7983V7.73376C10.8464 7.70615 10.824 7.68376 10.7964 7.68376C10.444 7.68376 10.1167 7.7577 9.81008 7.9003C9.50445 8.04241 9.239 8.2322 9.01429 8.47494C8.79015 8.71707 8.61204 8.99587 8.47987 9.30578L8.47986 9.30578L8.4794 9.30693C8.36209 9.60206 8.30102 9.91271 8.29085 10.2333L8.29082 10.2333V10.2349V10.2349V10.2349V10.2349V10.2349V10.2349V10.2349V10.2349V10.2349V10.2349V10.2349V10.2349V10.235V10.235V10.235V10.235V10.235V10.235V10.235V10.235V10.235V10.235V10.235V10.2351V10.2351V10.2351V10.2351V10.2351V10.2351V10.2351V10.2352V10.2352V10.2352V10.2352V10.2352V10.2352V10.2353V10.2353V10.2353V10.2353V10.2353V10.2354V10.2354V10.2354V10.2354V10.2354V10.2355V10.2355V10.2355V10.2355V10.2356V10.2356V10.2356V10.2356V10.2357V10.2357V10.2357V10.2357V10.2358V10.2358V10.2358V10.2359V10.2359V10.2359V10.236V10.236V10.236V10.236V10.2361V10.2361V10.2361V10.2362V10.2362V10.2363V10.2363V10.2363V10.2364V10.2364V10.2364V10.2365V10.2365V10.2365V10.2366V10.2366V10.2367V10.2367V10.2367V10.2368V10.2368V10.2369V10.2369V10.237V10.237V10.237V10.2371V10.2371V10.2372V10.2372V10.2373V10.2373V10.2374V10.2374V10.2375V10.2375V10.2376V10.2376V10.2377V10.2377V10.2378V10.2378V10.2379V10.2379V10.238V10.238V10.2381V10.2381V10.2382V10.2382V10.2383V10.2384V10.2384V10.2385V10.2385V10.2386V10.2386V10.2387V10.2388V10.2388V10.2389V10.2389V10.239V10.2391V10.2391V10.2392V10.2392V10.2393V10.2394V10.2394V10.2395V10.2396V10.2396V10.2397V10.2398V10.2398V10.2399V10.24V10.24V10.2401V10.2402V10.2402V10.2403V10.2404V10.2404V10.2405V10.2406V10.2407V10.2407V10.2408V10.2409V10.2409V10.241V10.2411V10.2412V10.2412V10.2413V10.2414V10.2415V10.2415V10.2416V10.2417V10.2418V10.2419V10.2419V10.242V10.2421V10.2422V10.2423V10.2423V10.2424V10.2425V10.2426V10.2427V10.2428V10.2428V10.2429V10.243V10.2431V10.2432V10.2433V10.2434V10.2434V10.2435V10.2436V10.2437V10.2438V10.2439V10.244V10.2441V10.2441V10.2442V10.2443V10.2444V10.2445V10.2446V10.2447V10.2448V10.2449V10.245V10.2451V10.2452V10.2453V10.2454V10.2455V10.2456V10.2456V10.2457V10.2458V10.2459V10.246V10.2461V10.2462V10.2463V10.2464V10.2465V10.2466V10.2467V10.2468V10.2469V10.2471V10.2472V10.2473V10.2474V10.2475V10.2476V10.2477V10.2478V10.2479V10.248V10.2481V10.2482V10.2483V10.2484V10.2485V10.2486V10.2488V10.2489V10.249V10.2491V10.2492V10.2493V10.2494V10.2495V10.2496V10.2498V10.2499V10.25V10.2501V10.2502V10.2503V10.2504V10.2506V10.2507V10.2508V10.2509V10.251V10.2512V10.2513V10.2514V10.2515V10.2516V10.2517V10.2519V10.252V10.2521V10.2522V10.2524V10.2525V10.2526V10.2527V10.2529V10.253V10.2531V10.2532V10.2534V10.2535V10.2536V10.2537V10.2539V10.254V10.2541V10.2542V10.2544V10.2545V10.2546V10.2548V10.2549V10.255V10.2552V10.2553V10.2554V10.2555V10.2557V10.2558V10.2559V10.2561V10.2562V10.2564V10.2565V10.2566V10.2568V10.2569V10.257V10.2572V10.2573V10.2574V10.2576V10.2577V10.2579V10.258V10.2581V10.2583V10.2584V10.2586V10.2587V10.2589V10.259V10.2591V10.2593V10.2594V10.2596V10.2597V10.2599V10.26V10.2601V10.2603V10.2604V10.2606V10.2607V10.2609V10.261V10.2612V10.2613V10.2615V10.2616V10.2618V10.2619V10.2621V10.2622V10.2624V10.2625V10.2627V10.2628V10.263V10.2631V10.2633V10.2635V10.2636V10.2638V10.2639V10.2641V10.2642V10.2644V10.2645V10.2647V10.2649V10.265V10.2652V10.2653V10.2655V10.2657V10.2658V10.266V10.2661V10.2663V10.2665V10.2666V10.2668V10.2669V10.2671V10.2673V10.2674V10.2676V10.2678V10.2679V10.2681V10.2683V10.2684V10.2686V10.2688V10.2689V10.2691V10.2693V10.2694V10.2696V10.2698V10.2699V10.2701V10.2703V10.2705V10.2706V10.2708V10.271V10.2711V10.2713V10.2715V10.2717V10.2718V10.272V10.2722V10.2724V10.2725V10.2727V10.2729V10.2731V10.2732V10.2734V10.2736V10.2738V10.274V10.2741V10.2743V10.2745V10.2747V10.2749V10.275V10.2752V10.2754V10.2756V10.2758V10.2759V10.2761V10.2763V10.2765V10.2767V10.2769V10.277V10.2772V10.2774V10.2776V10.2778V10.278V10.2782V10.2784V10.2785V10.2787V10.2789V10.2791V10.2793V10.2795V10.2797V10.2799V10.2801V10.2802V10.2804V10.2806V10.2808V10.281V10.2812V10.2814V10.2816V10.2818V10.282V10.2822V10.2824V10.2826V10.2828V10.283V10.2832V10.2834V10.2836V10.2838V10.2839V10.2841V10.2843V10.2845V10.2847V10.2849V10.2851V10.2853V10.2855V10.2857V10.286V10.2862V10.2864V10.2866V10.2868V10.287V10.2872V10.2874V10.2876V10.2878V10.288V10.2882V10.2884V10.2886V10.2888V10.289V10.2892V10.2894V10.2896V10.2899V10.2901V10.2903V10.2905V10.2907V10.2909V10.2911V10.2913V10.2915V10.2917C8.29082 10.3194 8.31321 10.3417 8.34082 10.3417H8.47585C8.50347 10.3417 8.52585 10.3194 8.52585 10.2917C8.52585 10.0411 8.58402 9.82318 8.69342 9.64625C8.80352 9.46818 8.96214 9.31857 9.16126 9.19802C9.36636 9.08206 9.60621 8.99095 9.88111 8.93515C10.1576 8.87902 10.4644 8.8483 10.7964 8.8483Z" fill="black" stroke="black" stroke-width="0.1" stroke-linecap="round" stroke-linejoin="round"></path>
</svg>