<svg class="featured-logo-svg" xmlns="http://www.w3.org/2000/svg" width="1913px" height="347px" version="1.0" style="shape-rendering:geometricPrecision; text-rendering:geometricPrecision; image-rendering:optimizeQuality; fill-rule:evenodd; clip-rule:evenodd" viewbox="0 0 490.332 89.018" xml:space="preserve" xmlns:xlink="http://www.w3.org/1999/xlink" xmlns:xodm="http://www.corel.com/coreldraw/odm/2003">
 <defs>
  <style type="text/css">
   
    .featured-logo-svg .fil0 {fill:#C2BCB1}
   
  </style>
 </defs>
 <g id="Layer_x0020_1">
  <metadata id="CorelCorpID_0Corel-Layer"></metadata>
  <path class="fil0" d="M61.003 56.37c0,-7.603 -0.421,-28.404 0.729,-35.155 0.858,-5.041 1.479,-7.649 5.423,-7.649 5.063,0 5.126,14.543 5.126,18.454 0,8.333 0.478,28.893 -0.802,36.365 -0.519,3.033 -1.307,7.209 -4.837,7.209 -5.809,0 -5.639,-14.43 -5.639,-19.224zm292.2 -53.826l0 84.072c0,0.59 0.178,0.769 0.769,0.769l14.354 0c0.59,0 0.769,-0.179 0.769,-0.769l0 -84.841 -15.123 0c-0.591,0 -0.769,0.178 -0.769,0.769zm-353.203 41.267c0,11.252 0.699,29.336 7.795,38.342 0.523,0.663 1.378,1.712 1.939,2.161 0.796,0.638 1.202,1.057 2.155,1.69 3.683,2.446 6.602,2.918 11.179,2.918 7.937,0 13.05,-4.257 15.722,-9.653 0.844,-1.705 1.227,-2.575 1.871,-4.537 1.748,-5.324 2.144,-12.87 2.144,-18.874 -4.619,0 -8.82,-0.513 -13.329,-0.513 0,1.466 -0.151,1.985 -0.243,3.089 -0.087,1.062 0.046,2.251 -0.012,3.32 -0.096,1.788 -0.462,4.302 -0.73,5.935 -0.63,3.849 -1.797,7.905 -5.935,7.905 -4.972,0 -5.542,-8.976 -5.647,-12.808l-0.245 -13.596c0.011,-1.859 -0.272,-2.566 -0.272,-4.354 0,-1.788 0.283,-2.495 0.272,-4.354 -0.032,-5.623 -0.168,-26.916 5.635,-26.916l1.026 0c5.174,0 5.126,13.784 5.126,19.223l14.097 -0.512c0,-10.128 -0.886,-18.341 -4.813,-24.663 -0.469,-0.754 -0.998,-1.337 -1.556,-2.033 -4.127,-5.156 -13.627,-6.761 -19.523,-4.579 -7.142,2.644 -10.949,9.054 -13.294,16.439 -2.298,7.236 -3.362,16.886 -3.362,26.37zm425.484 -28.708l0.256 0c0,4.277 3.222,28.241 3.838,35.379 0.144,1.673 0.52,3.457 0.52,5.119l-9.484 0 1.275 -10.003c0.431,-5.064 3.595,-27.565 3.595,-30.495zm-54.082 -12.559l0 11.791c0,0.59 0.178,0.768 0.768,0.768l12.816 0 0 71.513c0,0.59 0.179,0.769 0.769,0.769l14.866 0 0 -72.282 13.073 0c0,2.132 -7.068,51.241 -7.579,54.707 -0.466,3.164 -0.794,5.797 -1.244,9.008l-0.978 6.741c-0.112,0.686 -0.582,1.826 0.573,1.826l11.791 0c0.993,0 0.748,-0.786 0.86,-1.703l1.959 -17.265 12.56 0 1.93 17.037c0.134,1.083 -0.12,1.931 0.889,1.931l26.144 0c1.267,0 0.769,-3.128 0.769,-5.639l0 -45.881c0.035,0.054 0.071,0.082 0.083,0.174l15.755 48.58c1.027,3.75 -0.13,2.766 12.357,2.766 0.591,0 0.769,-0.179 0.769,-0.769l0 -84.841 -12.559 0 0 44.855c-0.614,-0.705 -0.704,-1.463 -1.059,-2.53l-13.295 -42.325 -15.379 0 -0.256 76.638c0,-1.758 -0.407,-4.191 -0.659,-6.006 -0.304,-2.196 -0.466,-3.966 -0.769,-6.151l-7.782 -63.473c-0.199,-1.406 -0.61,-1.046 -2.316,-1.017l-20.514 0.009c-0.318,1.364 -0.528,3.267 -0.725,4.658 -0.252,1.793 -0.556,3.133 -0.556,5.082l-0.257 -9.74 -42.036 0c-0.59,0 -0.768,0.178 -0.768,0.769zm-171.476 52.545l0 -21.531c0,-5.82 0.164,-19.992 5.127,-19.992l1.281 0c4.422,0 4.87,12.505 4.87,17.685 0,8.599 0.506,29.691 -0.801,37.39 -0.57,3.356 -1.408,6.953 -5.094,6.953 -5.549,0 -5.383,-16.322 -5.383,-20.505zm86.635 -2.307c0,-7.714 -0.282,-22.849 0.583,-29.919 0.378,-3.091 1.254,-9.297 4.543,-9.297l1.282 0c4.236,0 4.87,11.256 4.87,16.147 0,8.587 0.56,31.921 -0.836,39.406 -0.298,1.595 -0.667,2.842 -1.377,4.262 -0.813,1.627 -1.569,2.213 -3.682,2.213 -3.508,0 -4.404,-6.056 -4.802,-9.296 -0.502,-4.091 -0.581,-9.117 -0.581,-13.516zm-197.363 -19.48c1.032,1.486 0.429,2.466 5.638,9.228 2,2.596 5.167,5.053 7.624,7.242l8.055 6.811c0.659,0.547 0.981,1.193 1.689,1.9 6.012,6.012 4.419,17.111 -3.013,17.111 -6.882,0 -6.665,-7.987 -6.665,-13.072l-14.097 0 0.755 -6.678c0.401,-5.023 0.27,-10.991 0.27,-16.134 0,-2.493 -0.256,-3.954 -0.256,-6.408zm156.353 7.177l-1.538 0 0 -25.376c2.091,0 4.659,-0.002 6.413,0.764 3.887,1.698 4.737,8.121 4.525,11.996 -0.405,7.376 -1.323,12.616 -9.4,12.616zm-143.794 -18.711c0,-3.794 1.153,-8.202 5.127,-8.202 3.256,0 5.061,0.802 6.109,4.655 1.294,4.758 -0.354,8.16 1.324,8.16l12.816 0 0 26.145c-0.893,-1.028 -2.399,-4.62 -5.83,-8.011 -1.201,-1.187 -2.235,-2.331 -3.459,-3.463 -3.878,-3.588 -7.078,-5.837 -11.282,-9.992 -1.93,-1.908 -4.805,-5.633 -4.805,-9.292zm-57.927 18.711c0,11.834 0.283,24.928 4.211,34.749 3.042,7.608 8.319,13.694 17.576,13.694 3.877,0 8.019,-0.66 10.917,-2.411 4.966,-2.999 7.734,-8.104 9.559,-13.509 0.662,-1.959 2.08,-7.112 2.08,-9.455l0.256 0c0,12.77 4.852,25.375 19.224,25.375 6.828,0 12.078,-1.779 16.473,-6.338 0.594,-0.616 1.062,-1.276 1.574,-2.015l1.433 -2.156 -0.023 7.2c-0.007,0.955 -0.197,1.772 0.792,1.772 12.172,0 11.047,1.087 11.022,-3.075l0.255 -59.21c0,1.43 0.303,2.58 0.513,3.845l9.081 54.485c0.218,1.307 0.562,2.787 0.659,3.955l8.715 0c1.18,-5.065 1.795,-10.277 2.673,-15.526l7.25 -42.987c0.219,-1.309 0.586,-2.747 0.586,-4.029l0.256 62.542c15.917,0 14.123,1.082 14.098,-3.075l0.256 -28.452c0,9.395 3.142,23.82 11.052,29.701 8.028,5.968 22.535,4.53 28.254,-6.8 1.521,-3.014 2.754,-6.035 3.604,-9.724 0.735,-3.192 1.689,-8.021 1.689,-11.639l0.256 29.989 15.635 0 0 -34.347c7.001,0 14.725,0.575 19.805,-4.546 1.444,-1.456 2.628,-2.646 3.609,-4.592l2.474 -5.728 -0.256 7.689c0,12.333 1.08,24.603 6.416,33.826 5.959,10.298 19.678,12.15 28.851,5.03 1.335,-1.036 2.725,-2.863 3.644,-4.302 1.133,-1.775 1.814,-3.23 2.652,-5.294 2.993,-7.378 4.061,-17.483 4.061,-27.978l0.234 38.47c-0.007,0.955 -0.198,1.772 0.791,1.772l34.859 0 0 -13.585 -19.736 0 0 -72.025 -15.892 0 -0.256 39.985c0,-13.344 -1.354,-34.485 -15.044,-40.32 -6.782,-2.89 -15.703,-1.342 -20.904,3.859 -2.698,2.698 -3.823,4.677 -5.356,8.486 -0.924,2.295 -2.782,7.95 -2.782,11.058l-0.257 0c0,-1.402 -0.399,-3.831 -0.659,-5.235 -1.492,-8.064 -6.18,-13.864 -14.173,-16.329 -7.373,-2.273 -19.728,-1.504 -27.716,-1.504l-0.256 29.733c0,-3.877 -0.899,-8.203 -1.794,-11.792 -2.033,-8.153 -6.155,-16.959 -15.062,-19.027 -5.408,-1.256 -11.905,-0.665 -16.47,2.619 -2.577,1.853 -4.726,4.579 -6.234,7.608 -3.198,6.429 -5.039,14.801 -5.039,22.386l-0.257 -31.527 -20.505 0 -7.308 43.595c-1.203,-4.958 -4.607,-27.577 -5.294,-32.531 -0.244,-1.755 -0.555,-3.569 -0.87,-5.537 -0.268,-1.674 -0.848,-4.01 -0.881,-5.527l-21.018 0 -0.257 16.404c0,-4.659 -3.212,-10.564 -6.21,-13.526 -7.25,-7.161 -21.544,-5.652 -27.847,2.281 -2.686,3.381 -4.477,8.068 -4.92,12.509l-0.495 2.068c-0.098,-4.377 -3.599,-11.577 -6.185,-14.833 -6.248,-7.87 -18.569,-8.613 -26.334,-2.819 -8.983,6.704 -11.055,24.838 -11.055,36.62z"></path>
 </g>
</svg>