<svg width="71" height="99" viewBox="0 0 71 99" fill="none" xmlns="http://www.w3.org/2000/svg">
<g clip-path="url(#clip0_5901_5762)">
<path d="M32.7614 70.6268C28.9851 70.3206 25.413 69.4361 22.011 68.0412C17.7585 66.1701 13.9823 63.6866 10.7504 60.5227C7.48443 57.3588 4.86488 53.6165 2.92573 49.3299C0.986584 45.0093 0 40.3825 0 35.4495C0 30.5165 0.986584 25.8897 2.92573 21.5691C4.86488 17.2825 7.48443 13.5062 10.7163 10.3082C13.9483 7.07629 17.7245 4.55876 21.977 2.72165C26.2295 0.884536 30.7202 0 35.415 0C40.1097 0 44.6004 0.918557 48.8529 2.72165C53.1054 4.55876 56.8816 7.07629 60.1816 10.2742C63.4475 13.5062 66.0671 17.2485 68.0062 21.5351C69.9454 25.8216 70.932 30.4485 70.932 35.4155C70.932 40.3485 69.9454 44.9753 68.0062 49.2959C66.0671 53.5825 63.4475 57.3247 60.1816 60.4887C56.9157 63.6526 53.1394 66.1361 48.8529 68.0072C44.8385 69.6742 40.62 70.5588 36.2314 70.6948C36.2655 70.6948 34.0541 70.7289 32.7614 70.6268ZM35.449 68.7557C39.0891 68.7557 42.253 67.9052 44.8725 66.2381C47.4921 64.5711 49.6694 62.2577 51.3704 59.2639C53.0714 56.3041 54.3301 52.766 55.1126 48.7175C55.9291 44.6691 56.3033 40.2124 56.3033 35.3814C56.3033 30.5505 55.8951 26.0938 55.1126 22.0113C54.2961 17.9289 53.0714 14.3907 51.3704 11.4309C49.6694 8.47113 47.4921 6.12371 44.8725 4.42268C42.253 2.72165 39.0891 1.87113 35.449 1.87113C31.8088 1.87113 28.6449 2.72165 26.0254 4.42268C23.4058 6.12371 21.2626 8.47113 19.5616 11.499C17.8946 14.4928 16.6699 18.0309 15.8534 22.1134C15.0369 26.1959 14.6627 30.6186 14.6627 35.4155C14.6627 40.2124 15.0709 44.601 15.8534 48.7175C16.6699 52.8 17.8946 56.3381 19.5616 59.2979C21.2286 62.2577 23.3718 64.6052 26.0254 66.2722C28.6449 67.9392 31.8088 68.7557 35.449 68.7557Z" fill="white"/>
<path d="M70.9996 78.1454C66.1687 78.1454 61.7461 78.5536 57.6977 79.3361C53.6493 80.1526 50.1112 81.3773 47.1515 83.0784C44.1917 84.7794 41.8443 86.9567 40.1773 89.5763C38.5104 92.1959 37.6939 95.3258 37.6598 98.932H35.7207C35.7207 98.4557 35.7207 98.1495 35.7207 98.1495C35.8568 93.7609 36.7413 89.5423 38.4083 85.5279C40.2794 81.2753 42.7629 77.499 45.9267 74.199C49.0906 70.933 52.7988 68.3134 57.1194 66.3743C61.4059 64.4351 66.0326 63.4485 70.9996 63.4485V78.1454Z" fill="white"/>
</g>
<defs>
<clipPath id="clip0_5901_5762">
<rect width="71" height="99" fill="white"/>
</clipPath>
</defs>
</svg>
