 <svg xmlns="http://www.w3.org/2000/svg" width="80" height="79"
                                            viewBox="0 0 80 79" fill="none">
                                            <path
                                                d="M51.491 62.3588C53.1131 64.3148 55.193 61.9921 55.818 59.1631L55.1981 56.1885C53.9873 53.8319 50.7477 47.9128 47.4754 43.089C43.385 37.0593 32.2244 24.9461 32.0358 24.0409C31.8471 23.1356 28.0158 23.5292 26.0057 21.654C23.9956 19.7789 23.5217 25.2753 25.0416 30.6262C26.5615 35.9771 27.289 36.2303 29.9135 40.4064C32.538 44.5825 35.5558 46.1127 37.5337 50.4235C39.5116 54.7344 49.8689 60.4028 51.491 62.3588Z"
                                                stroke="black" stroke-width="0.929811" />
                                            <path
                                                d="M51.2862 60.911C52.5713 62.4647 54.2165 60.6218 54.7097 58.376L54.2175 56.014C53.2579 54.1425 50.6904 49.4414 48.0976 45.61C44.8567 40.8207 36.3142 31.0609 35.8662 30.4791C30.9747 24.1277 28.024 24.54 26.4319 23.0502C24.8398 21.5604 24.2453 30.2807 28.3455 35.471C31.0834 38.9369 32.115 40.1543 34.1947 43.4712C36.2743 46.7881 38.6639 48.0045 40.2317 51.428C41.7996 54.8516 50.0012 59.3572 51.2862 60.911Z"
                                                stroke="black" stroke-width="0.929811" stroke-dasharray="1.86 1.86" />
                                            <path
                                                d="M51.0217 58.8127C48.2428 54.7588 42.0435 46.1638 39.4784 44.2154C36.272 41.7799 34.3267 41.5106 33.0063 38.4122C31.9499 35.9334 28.79 29.6199 27.3421 26.7729"
                                                stroke="black" stroke-width="0.929811" stroke-dasharray="1.86 1.86" />
                                            <path
                                                d="M27.74 24.8011C30.202 29.055 36.3832 34.2575 38.7924 36.3957C41.804 39.0684 41.9236 42.3554 46.1 46.2081C48.0805 48.035 50.8989 53.7976 52.1257 56.7465"
                                                stroke="black" stroke-width="0.929811" stroke-dasharray="1.86 1.86" />
                                            <circle cx="39.9996" cy="39.9513" r="37.9779" stroke="#EDE7DD"
                                                stroke-width="2.1099" />
                                        </svg>