 <svg xmlns="http://www.w3.org/2000/svg" width="42" height="35" viewBox="0 0 42 35"
                                fill="none">
                                <g opacity="0.8">
                                    <path fill-rule="evenodd" clip-rule="evenodd"
                                        d="M21.6116 6H24.4315V25.1755H16.8332C16.2692 22.9196 14.5276 21.2276 11.4536 21.2276C8.37957 21.2276 6.63802 22.9196 6.07404 25.1755H5.25595C5.25595 25.1755 5.25595 25.1755 5.25595 24.6116C5.25595 23.4836 4.12797 21.7916 3 21.2276V6L21.6116 6Z"
                                        stroke="black" stroke-width="1.5" stroke-miterlimit="2.61313"
                                        stroke-linecap="round" stroke-linejoin="round" />
                                    <path fill-rule="evenodd" clip-rule="evenodd"
                                        d="M11.4596 23.7822C13.1515 23.7822 14.2795 24.9102 14.2795 26.6022C14.2795 28.2941 13.1515 29.4221 11.4596 29.4221C9.76762 29.4221 8.63965 28.2941 8.63965 26.6022C8.63965 24.9102 9.76762 23.7822 11.4596 23.7822Z"
                                        stroke="black" stroke-width="1.5" stroke-miterlimit="2.61313"
                                        stroke-linecap="round" stroke-linejoin="round" />
                                    <path fill-rule="evenodd" clip-rule="evenodd"
                                        d="M33.982 23.7822C35.674 23.7822 36.802 24.9102 36.802 26.6022C36.802 28.2941 35.674 29.4221 33.982 29.4221C32.2901 29.4221 31.1621 28.2941 31.1621 26.6022C31.1621 24.9102 32.2901 23.7822 33.982 23.7822Z"
                                        stroke="black" stroke-width="1.5" stroke-miterlimit="2.61313"
                                        stroke-linecap="round" stroke-linejoin="round" />
                                    <path fill-rule="evenodd" clip-rule="evenodd"
                                        d="M28.1568 10.8105H34.9246L40.0005 17.0144V25.4742H39.1204C38.5564 23.2183 36.8149 21.5263 33.7966 21.5263C30.6668 21.5263 28.9253 23.2183 28.3613 25.4742H27.5928V10.8105H28.1568Z"
                                        stroke="black" stroke-width="1.5" stroke-miterlimit="2.61313"
                                        stroke-linecap="round" stroke-linejoin="round" />
                                    <path d="M40.0003 16.6738L28.1406 16.6738" stroke="black" stroke-width="1.5" />
                                    <path d="M30.5127 10.744L30.5127 16.6738" stroke="black" stroke-width="1.5" />
                                    <path d="M19.8389 6H3.23535V19.0457H19.8389V6Z" stroke="black" stroke-width="1.5"
                                        stroke-miterlimit="2.61313" stroke-linecap="round" stroke-linejoin="round" />
                                    <path
                                        d="M12.1067 14.3545L12.1077 14.3545C12.4701 14.3482 12.8203 14.2683 13.1521 14.1275L13.1521 14.1275L13.153 14.1271C13.5088 13.9678 13.8171 13.7533 14.0896 13.484L14.09 13.4836C14.3569 13.214 14.5763 12.8953 14.7363 12.5279C14.8966 12.1598 14.9797 11.7671 14.9797 11.3443C14.9797 10.9215 14.8966 10.5289 14.7363 10.1608C14.5764 9.79364 14.363 9.47492 14.09 9.19904L14.09 9.19903C13.8229 8.92914 13.5085 8.71468 13.153 8.55553L13.1527 8.55537C12.8022 8.40191 12.4278 8.32207 12.0415 8.32207C11.6552 8.32207 11.2866 8.40196 10.9362 8.55537C10.5864 8.70855 10.2717 8.92316 10.0045 9.19924C9.73166 9.47507 9.51827 9.79373 9.35842 10.1608C9.19809 10.5289 9.11504 10.9276 9.11504 11.3443C9.11504 11.7669 9.19804 12.1655 9.35243 12.5275L9.35242 12.5275L9.35286 12.5285C9.51843 12.8951 9.73172 13.2137 9.99887 13.4836C10.266 13.7534 10.5803 13.9678 10.9297 14.1269L10.9297 14.127L10.9307 14.1274C11.2154 14.2499 11.5064 14.3236 11.8209 14.3483C11.8763 14.3546 11.9497 14.356 12.0072 14.356C12.0365 14.356 12.0622 14.3556 12.0802 14.3553L12.1012 14.3547L12.1067 14.3545ZM12.7788 13.8886L12.7783 13.889C12.5776 14.0215 12.3308 14.0917 12.0415 14.0917C11.7574 14.0917 11.5116 14.0272 11.3122 13.8841L11.3122 13.884L11.31 13.8826C11.1023 13.7492 10.9327 13.557 10.8018 13.316L10.8018 13.316L10.8014 13.3152C10.6648 13.0741 10.5671 12.7842 10.5036 12.4445C10.4401 12.104 10.4053 11.7333 10.4053 11.3383C10.4053 10.9435 10.44 10.5729 10.5036 10.2325C10.5729 9.89252 10.6707 9.602 10.8021 9.35408C10.9326 9.10787 11.1021 8.92128 11.3109 8.78137L11.3109 8.78137L11.3114 8.78101C11.5117 8.64303 11.7581 8.57279 12.0474 8.57279C12.3362 8.57279 12.577 8.6428 12.7836 8.78119C12.9864 8.92097 13.1565 9.11382 13.2933 9.35531C13.4299 9.59634 13.5275 9.892 13.5851 10.2254L13.5851 10.2254L13.5852 10.2261C13.6488 10.5665 13.6836 10.9372 13.6836 11.3383C13.6836 11.7454 13.6488 12.1161 13.5853 12.4503L13.5852 12.4505C13.5218 12.7902 13.4241 13.0801 13.2875 13.3213L13.287 13.3221C13.1562 13.5631 12.9866 13.7552 12.7788 13.8887L12.7788 13.8886Z"
                                        fill="black" stroke="black" stroke-width="0.1" stroke-linecap="round"
                                        stroke-linejoin="round" />
                                    <path
                                        d="M14.9293 14.9814C14.9569 14.9814 14.9793 14.959 14.9793 14.9314V13.6895C14.9793 13.6618 14.9569 13.6395 14.9293 13.6395C14.5194 13.6395 14.1388 13.7254 13.7821 13.8913C13.4265 14.0567 13.1177 14.2775 12.8563 14.5598C12.5955 14.8416 12.3882 15.166 12.2343 15.5267L12.2343 15.5267L12.2339 15.5279C12.0974 15.8713 12.0263 16.2327 12.0145 16.6059L12.0145 16.6059V16.6074V16.6074V16.6075V16.6075V16.6075V16.6075V16.6075V16.6075V16.6075V16.6075V16.6075V16.6075V16.6075V16.6075V16.6075V16.6075V16.6075V16.6075V16.6076V16.6076V16.6076V16.6076V16.6076V16.6076V16.6076V16.6076V16.6077V16.6077V16.6077V16.6077V16.6077V16.6077V16.6078V16.6078V16.6078V16.6078V16.6078V16.6079V16.6079V16.6079V16.6079V16.608V16.608V16.608V16.608V16.6081V16.6081V16.6081V16.6081V16.6082V16.6082V16.6082V16.6082V16.6083V16.6083V16.6083V16.6084V16.6084V16.6084V16.6085V16.6085V16.6085V16.6086V16.6086V16.6086V16.6087V16.6087V16.6087V16.6088V16.6088V16.6089V16.6089V16.6089V16.609V16.609V16.6091V16.6091V16.6091V16.6092V16.6092V16.6093V16.6093V16.6094V16.6094V16.6095V16.6095V16.6096V16.6096V16.6096V16.6097V16.6097V16.6098V16.6098V16.6099V16.61V16.61V16.6101V16.6101V16.6102V16.6102V16.6103V16.6103V16.6104V16.6104V16.6105V16.6106V16.6106V16.6107V16.6107V16.6108V16.6108V16.6109V16.611V16.611V16.6111V16.6112V16.6112V16.6113V16.6113V16.6114V16.6115V16.6115V16.6116V16.6117V16.6117V16.6118V16.6119V16.6119V16.612V16.6121V16.6122V16.6122V16.6123V16.6124V16.6124V16.6125V16.6126V16.6127V16.6127V16.6128V16.6129V16.613V16.613V16.6131V16.6132V16.6133V16.6133V16.6134V16.6135V16.6136V16.6137V16.6137V16.6138V16.6139V16.614V16.6141V16.6142V16.6142V16.6143V16.6144V16.6145V16.6146V16.6147V16.6148V16.6148V16.6149V16.615V16.6151V16.6152V16.6153V16.6154V16.6155V16.6156V16.6157V16.6158V16.6158V16.6159V16.616V16.6161V16.6162V16.6163V16.6164V16.6165V16.6166V16.6167V16.6168V16.6169V16.617V16.6171V16.6172V16.6173V16.6174V16.6175V16.6176V16.6177V16.6178V16.6179V16.618V16.6181V16.6182V16.6183V16.6184V16.6186V16.6187V16.6188V16.6189V16.619V16.6191V16.6192V16.6193V16.6194V16.6195V16.6196V16.6198V16.6199V16.62V16.6201V16.6202V16.6203V16.6204V16.6206V16.6207V16.6208V16.6209V16.621V16.6211V16.6213V16.6214V16.6215V16.6216V16.6217V16.6219V16.622V16.6221V16.6222V16.6224V16.6225V16.6226V16.6227V16.6228V16.623V16.6231V16.6232V16.6234V16.6235V16.6236V16.6237V16.6239V16.624V16.6241V16.6243V16.6244V16.6245V16.6246V16.6248V16.6249V16.625V16.6252V16.6253V16.6254V16.6256V16.6257V16.6259V16.626V16.6261V16.6263V16.6264V16.6265V16.6267V16.6268V16.627V16.6271V16.6272V16.6274V16.6275V16.6277V16.6278V16.628V16.6281V16.6282V16.6284V16.6285V16.6287V16.6288V16.629V16.6291V16.6293V16.6294V16.6296V16.6297V16.6299V16.63V16.6302V16.6303V16.6305V16.6306V16.6308V16.6309V16.6311V16.6312V16.6314V16.6315V16.6317V16.6318V16.632V16.6322V16.6323V16.6325V16.6326V16.6328V16.6329V16.6331V16.6333V16.6334V16.6336V16.6337V16.6339V16.6341V16.6342V16.6344V16.6346V16.6347V16.6349V16.6351V16.6352V16.6354V16.6356V16.6357V16.6359V16.6361V16.6362V16.6364V16.6366V16.6367V16.6369V16.6371V16.6372V16.6374V16.6376V16.6378V16.6379V16.6381V16.6383V16.6385V16.6386V16.6388V16.639V16.6392V16.6393V16.6395V16.6397V16.6399V16.64V16.6402V16.6404V16.6406V16.6408V16.6409V16.6411V16.6413V16.6415V16.6417V16.6418V16.642V16.6422V16.6424V16.6426V16.6428V16.643V16.6431V16.6433V16.6435V16.6437V16.6439V16.6441V16.6443V16.6445V16.6446V16.6448V16.645V16.6452V16.6454V16.6456V16.6458V16.646V16.6462V16.6464V16.6466V16.6468V16.647V16.6471V16.6473V16.6475V16.6477V16.6479V16.6481V16.6483V16.6485V16.6487V16.6489V16.6491V16.6493V16.6495V16.6497V16.6499V16.6501V16.6503V16.6505V16.6507V16.6509V16.6512V16.6514V16.6516V16.6518V16.652V16.6522V16.6524V16.6526V16.6528V16.653V16.6532V16.6534V16.6536V16.6538V16.6541V16.6543V16.6545V16.6547V16.6549V16.6551V16.6553V16.6555V16.6558V16.656V16.6562V16.6564V16.6566V16.6568V16.6571V16.6573V16.6575V16.6577V16.6579V16.6581V16.6584V16.6586V16.6588V16.659V16.6592V16.6595V16.6597V16.6599V16.6601V16.6604V16.6606V16.6608V16.661V16.6612V16.6615V16.6617V16.6619V16.6621V16.6624V16.6626V16.6628V16.6631V16.6633V16.6635V16.6637V16.664V16.6642V16.6644V16.6647V16.6649V16.6651V16.6654V16.6656V16.6658V16.6661V16.6663V16.6665V16.6668V16.667V16.6672V16.6675V16.6677V16.6679V16.6682V16.6684V16.6687V16.6689V16.6691V16.6694V16.6696V16.6699V16.6701V16.6703V16.6706V16.6708V16.6711V16.6713V16.6716V16.6718V16.672V16.6723V16.6725V16.6728V16.673V16.6733V16.6735V16.6738C12.0145 16.7014 12.0368 16.7238 12.0645 16.7238H12.222C12.2496 16.7238 12.272 16.7014 12.272 16.6738C12.272 16.3801 12.3402 16.1242 12.4687 15.9163C12.598 15.7072 12.7841 15.5318 13.0174 15.3906C13.2575 15.2548 13.5382 15.1482 13.8598 15.0829C14.183 15.0173 14.5414 14.9814 14.9293 14.9814Z"
                                        fill="black" stroke="black" stroke-width="0.1" stroke-linecap="round"
                                        stroke-linejoin="round" />
                                </g>
                            </svg>