 <svg xmlns="http://www.w3.org/2000/svg" width="80" height="79"
                                            viewBox="0 0 80 79" fill="none">
                                            <circle cx="39.9996" cy="39.4826" r="37.9779" stroke="#EDE7DD"
                                                stroke-width="2.1099" />
                                            <path
                                                d="M50.1408 58.168L50.0007 58.3173L49.8221 58.4776C48.9601 59.2512 47.839 59.7322 46.5973 59.772L46.3702 59.7792L46.155 59.7676C44.9319 59.7014 43.8286 59.2029 42.9891 58.4208L42.856 58.2968L42.6792 58.1016C41.9152 57.2582 41.4338 56.1544 41.3763 54.9388L41.3644 54.6851L41.3717 54.5019C41.4203 53.2823 41.897 52.1747 42.6606 51.3273L42.8263 51.1434L42.9708 51.008C43.8152 50.2166 44.923 49.7139 46.1501 49.6477L46.3557 49.6366L46.5942 49.6433C47.8393 49.6787 48.9686 50.1638 49.8297 50.9454L49.9968 51.0971L50.1496 51.2609C50.9483 52.1169 51.4476 53.2513 51.5007 54.5031L51.5103 54.7313L51.5008 54.9394C51.4433 56.1859 50.9398 57.316 50.1408 58.168ZM52.2139 48.8854L52.1396 48.7648C51.9608 48.4747 51.999 48.095 52.2422 47.8519C52.5322 47.5618 52.997 47.5618 53.287 47.8519C53.5771 48.1419 53.5771 48.6067 53.287 48.8967L53.285 48.8987C53.0327 49.1539 52.6324 49.1825 52.3382 48.9736L52.2139 48.8854ZM46.399 46.4994L46.2465 46.4605C45.9285 46.3796 45.6962 46.0943 45.6962 45.7512C45.6962 45.3431 46.0256 45.0137 46.4337 45.0137C46.8419 45.0137 47.1713 45.3431 47.1713 45.7512C47.1713 46.1218 46.8996 46.4267 46.5366 46.4794L46.399 46.4994ZM40.6005 48.9376L40.4783 49.0112C40.1948 49.1818 39.8218 49.1431 39.5804 48.9016C39.2904 48.6116 39.2904 48.1468 39.5804 47.8567C39.8704 47.5667 40.3352 47.5667 40.6253 47.8567C40.883 48.1144 40.9086 48.5213 40.6934 48.8121L40.6005 48.9376ZM52.211 60.5384L52.3365 60.4455C52.6273 60.2303 53.0342 60.256 53.2919 60.5136C53.5819 60.8037 53.5819 61.2685 53.2919 61.5585C53.0018 61.8486 52.5371 61.8486 52.247 61.5585L52.2449 61.5564C52.0035 61.3178 51.965 60.9469 52.1374 60.6606L52.211 60.5384ZM38.2311 54.7324L38.2042 54.8571C38.1307 55.1981 37.8327 55.4476 37.4797 55.4476C37.0716 55.4476 36.7422 55.1182 36.7422 54.71C36.7422 54.3019 37.0716 53.9725 37.4797 53.9725C37.8351 53.9725 38.1378 54.2321 38.2015 54.5736L38.2311 54.7324ZM40.6181 60.4857L40.7084 60.6116C40.9138 60.898 40.8896 61.299 40.6301 61.5585C40.3401 61.8486 39.8753 61.8486 39.5853 61.5585C39.2955 61.2688 39.2952 60.8048 39.5842 60.5146C39.8345 60.2682 40.2144 60.2345 40.4962 60.4099L40.6181 60.4857ZM46.4009 62.9153L46.5409 62.9358C46.9012 62.9885 47.1761 63.2951 47.1761 63.664C47.1761 64.0722 46.8467 64.4016 46.4386 64.4016C46.0304 64.4016 45.701 64.0722 45.701 63.664C45.701 63.324 45.9309 63.0392 46.2554 62.9536L46.4009 62.9153ZM54.644 54.7173L54.6708 54.5736C54.7347 54.2309 55.0335 53.9725 55.3925 53.9725H55.3974C55.8055 53.9725 56.1349 54.3019 56.1349 54.71C56.1349 55.1182 55.8055 55.4476 55.3974 55.4476C55.0413 55.4476 54.7429 55.1956 54.6737 54.8611L54.644 54.7173Z"
                                                stroke="black" />
                                            <path
                                                d="M57.2085 42.3375L57.1151 42.3565L57.0024 42.3694C56.463 42.4311 55.9049 42.3107 55.4198 41.9891L55.3307 41.93L55.2518 41.8673C54.8029 41.5104 54.517 41.0215 54.4084 40.495L54.3915 40.4131L54.3767 40.2883C54.3137 39.7593 54.429 39.2074 54.737 38.7272L54.8021 38.6257L54.8535 38.5592C55.2029 38.1064 55.6849 37.8132 56.2058 37.6967L56.3206 37.6711L56.4117 37.6587C56.9494 37.5854 57.508 37.6939 57.9942 38.0011L58.0756 38.0526L58.166 38.1207C58.6316 38.4717 58.9309 38.9624 59.0477 39.4943L59.0706 39.5982L59.0846 39.7028C59.1573 40.2457 59.0407 40.814 58.721 41.3072L58.6627 41.3972L58.6031 41.4734C58.2428 41.9342 57.7443 42.2289 57.2085 42.3375ZM61.1476 39.2546L61.1491 39.2308C61.1536 39.1633 61.2034 39.1103 61.2641 39.1L61.1806 38.607L61.2641 39.1C61.3411 39.087 61.4118 39.1372 61.4249 39.2142L61.9178 39.1306L61.4249 39.2142C61.4379 39.2912 61.3877 39.3618 61.3107 39.3749L61.308 39.3754C61.2472 39.386 61.1813 39.3512 61.1573 39.2825L61.1476 39.2546ZM59.3222 36.3528L59.3008 36.3276C59.261 36.2807 59.2572 36.2133 59.2941 36.1614C59.3387 36.0986 59.4247 36.084 59.4875 36.1286C59.5503 36.1732 59.5649 36.2592 59.5203 36.322C59.4811 36.3772 59.4078 36.3966 59.3432 36.3635L59.3222 36.3528ZM55.9707 35.5945L55.9451 35.5926C55.8831 35.5879 55.8307 35.5406 55.8203 35.479C55.8072 35.402 55.8574 35.3313 55.9344 35.3182L55.8509 34.8253L55.9344 35.3182C56.0114 35.3052 56.0821 35.3554 56.0952 35.4324C56.1061 35.497 56.0679 35.5627 56.0016 35.5844L55.9707 35.5945ZM57.4721 44.4318L57.5046 44.4311C57.5743 44.4298 57.6321 44.4792 57.6431 44.5438C57.6561 44.6208 57.6059 44.6915 57.5289 44.7046C57.4519 44.7176 57.3812 44.6674 57.3682 44.5904L57.3677 44.5875C57.3575 44.5296 57.3885 44.4682 57.4486 44.442L57.4721 44.4318ZM53.0723 37.4242L53.0596 37.4358C53.0078 37.4832 52.934 37.4861 52.8816 37.449C52.8188 37.4044 52.8043 37.3184 52.8489 37.2556C52.8935 37.1928 52.9795 37.1782 53.0423 37.2228C53.0946 37.26 53.1144 37.3331 53.0869 37.3926L53.0723 37.4242ZM52.3149 40.7534L52.3151 40.7853C52.3154 40.8517 52.2678 40.9094 52.2007 40.9207L52.2842 41.4137L52.2007 40.9207C52.1237 40.9338 52.053 40.8836 52.04 40.8066L51.547 40.8902L52.04 40.8066C52.027 40.7301 52.0765 40.6598 52.1526 40.6461C52.2192 40.6359 52.2813 40.6732 52.3049 40.7293L52.3149 40.7534ZM54.1326 43.6638L54.1497 43.6801C54.2019 43.7301 54.2075 43.8076 54.1693 43.8614C54.1247 43.9242 54.0387 43.9388 53.9758 43.8942C53.913 43.8496 53.8985 43.7636 53.9431 43.7008C53.9781 43.6514 54.0421 43.6298 54.1062 43.6539L54.1326 43.6638ZM60.3852 42.6091L60.4052 42.5897C60.4532 42.5433 60.5268 42.5379 60.5803 42.5758L60.5823 42.5773C60.6451 42.6219 60.6597 42.7079 60.6151 42.7707C60.5705 42.8335 60.4845 42.8481 60.4216 42.8035C60.3668 42.7646 60.3484 42.6929 60.3739 42.6349L60.3852 42.6091Z"
                                                stroke="black" />
                                            <path
                                                d="M28.0292 35.3003L28.0147 35.4362C27.9511 35.7135 27.7957 35.9616 27.5656 36.1419L27.5656 36.1419L27.5587 36.1474C27.33 36.3333 27.0467 36.4228 26.7631 36.4228C26.3758 36.4228 26.0046 36.2607 25.7489 35.9402C25.5343 35.6657 25.4396 35.3373 25.4766 34.9887C25.5132 34.6529 25.6804 34.3479 25.9504 34.1363C26.2238 33.922 26.5507 33.8268 26.8979 33.8622C27.2399 33.9083 27.5455 34.0786 27.7557 34.3468C27.9712 34.6218 28.0663 34.9509 28.0292 35.3003ZM25.7515 35.9284L25.7574 35.9361L25.7635 35.9437C26.1957 36.4756 26.9813 36.5807 27.5367 36.147C27.8112 35.9391 27.981 35.6291 28.0148 35.2908C28.0489 34.9504 27.9443 34.6338 27.7542 34.3805C27.5463 34.1032 27.2346 33.9316 26.8944 33.8976L26.8696 33.8951H26.8446H26.8444H26.8443H26.8441H26.8439H26.8437H26.8435H26.8434H26.8432H26.843H26.8428H26.8427H26.8425H26.8423H26.8421H26.8419H26.8418H26.8416H26.8414H26.8412H26.841H26.8409H26.8407H26.8405H26.8403H26.8401H26.84H26.8398H26.8396H26.8394H26.8392H26.8391H26.8389H26.8387H26.8385H26.8384H26.8382H26.838H26.8378H26.8376H26.8375H26.8373H26.8371H26.8369H26.8367H26.8366H26.8364H26.8362H26.836H26.8358H26.8357H26.8355H26.8353H26.8351H26.8349H26.8348H26.8346H26.8344H26.8342H26.8341H26.8339H26.8337H26.8335H26.8333H26.8332H26.833H26.8328H26.8326H26.8324H26.8323H26.8321H26.8319H26.8317H26.8315H26.8314H26.8312H26.831H26.8308H26.8306H26.8305H26.8303H26.8301H26.8299H26.8298H26.8296H26.8294H26.8292H26.829H26.8289H26.8287H26.8285H26.8283H26.8281H26.828H26.8278H26.8276H26.8274H26.8272H26.8271H26.8269H26.8267H26.8265H26.8263H26.8262H26.826H26.8258H26.8256H26.8255H26.8253H26.8251H26.8249H26.8247H26.8246H26.8244H26.8242H26.824H26.8238H26.8237H26.8235H26.8233H26.8231H26.8229H26.8228H26.8226H26.8224H26.8222H26.822H26.8219H26.8217H26.8215H26.8213H26.8212H26.821H26.8208H26.8206H26.8204H26.8203H26.8201H26.8199H26.8197H26.8195H26.8194H26.8192H26.819H26.8188H26.8186H26.8185H26.8183H26.8181H26.8179H26.8177H26.8176H26.8174H26.8172H26.817H26.8169H26.8167H26.8165H26.8163H26.8161H26.816H26.8158H26.8156H26.8154H26.8152H26.8151H26.8149H26.8147H26.8145H26.8143H26.8142H26.814H26.8138H26.8136H26.8134H26.8133H26.8131H26.8129H26.8127H26.8126H26.8124H26.8122H26.812H26.8118H26.8117H26.8115H26.8113H26.8111H26.8109H26.8108H26.8106H26.8104H26.8102H26.81H26.8099H26.8097H26.8095H26.8093H26.8091H26.809H26.8088H26.8086H26.8084H26.8083H26.8081H26.8079H26.8077H26.8075H26.8074H26.8072H26.807H26.8068H26.8066H26.8065H26.8063H26.8061H26.8059H26.8057H26.8056H26.8054H26.8052H26.805H26.8048H26.8047H26.8045H26.8043H26.8041H26.804H26.8038H26.8036H26.8034H26.8032H26.8031H26.8029H26.8027H26.8025H26.8023H26.8022H26.802H26.8018H26.8016H26.8014H26.8013H26.8011H26.8009H26.8007H26.8005H26.8004H26.8002H26.8H26.7998H26.7997H26.7995H26.7993H26.7991H26.7989H26.7988H26.7986H26.7984H26.7982H26.798H26.7979H26.7977H26.7975H26.7973H26.7971H26.797H26.7968H26.7966H26.7964H26.7962H26.7961H26.7959H26.7957H26.7955H26.7954H26.7952H26.795H26.7948H26.7946H26.7945H26.7943H26.7941H26.7939H26.7937H26.7936H26.7934H26.7932H26.793H26.7928H26.7927H26.7925H26.7923H26.7921H26.7919H26.7918H26.7916H26.7914H26.7912H26.7911H26.7909H26.7907H26.7905H26.7903H26.7902H26.79H26.7898H26.7896H26.7894H26.7893H26.7891H26.7889H26.7887H26.7885H26.7884H26.7882H26.788H26.7878H26.7876H26.7875H26.7873H26.7871H26.7869H26.7868H26.7866H26.7864H26.7862H26.786H26.7859H26.7857H26.7855H26.7853H26.7851H26.785H26.7848H26.7846H26.7844H26.7842H26.7841H26.7839H26.7837H26.7835H26.7833H26.7832H26.783H26.7828H26.7826H26.7825H26.7823H26.7821H26.7819H26.7817H26.7816H26.7814H26.7812H26.781H26.7808H26.7807H26.7805H26.7803H26.7801H26.7799H26.7798H26.7796H26.7794H26.7792H26.779H26.7789H26.7787H26.7785H26.7783H26.7782H26.778H26.7778H26.7776H26.7774H26.7773H26.7771H26.7769H26.7767H26.7765H26.7764H26.7762H26.776H26.7758H26.7756H26.7755H26.7753H26.7751H26.7749H26.7747H26.7746H26.7744H26.7742H26.774H26.7739H26.7737H26.7735H26.7733H26.7731H26.773H26.7728H26.7726H26.7724H26.7722H26.7721H26.7719H26.7717H26.7715H26.7713H26.7712H26.771H26.7708H26.7706H26.7704H26.7703H26.7701H26.7699H26.7697H26.7696H26.7694H26.7692H26.769H26.7688H26.7687H26.7685H26.7683H26.7681H26.7679H26.7678H26.7676H26.7674H26.7672H26.767H26.7669H26.7667H26.7665H26.7663H26.7661H26.766H26.7658H26.7656H26.7654H26.7653H26.7651H26.7649H26.7647H26.7645H26.7644H26.7642H26.764H26.7638H26.7636H26.7635H26.7633H26.7631H26.7629H26.7627H26.7626H26.7624H26.7622H26.762H26.7618H26.7617H26.7615H26.7613H26.7611H26.761H26.7608H26.7606H26.7604H26.7602H26.7601H26.7599H26.7597H26.7595H26.7593H26.7592H26.759H26.7588H26.7586H26.7584H26.7583H26.7581H26.7579H26.7577H26.7575H26.7574H26.7572H26.757H26.7568H26.7567H26.7565H26.7563H26.7561H26.7559H26.7558H26.7556H26.7554H26.7552H26.755H26.7549H26.7547H26.7545H26.7543H26.7541H26.754H26.7538H26.7536H26.7534H26.7532H26.7531H26.7529C26.4909 33.8951 26.2006 33.9706 25.9623 34.1669C25.6918 34.3748 25.5245 34.6825 25.4909 35.018C25.4569 35.3584 25.5615 35.675 25.7515 35.9284Z"
                                                stroke="black" />
                                            <path
                                                d="M33.5032 32.5215C33.6428 32.7064 33.6112 32.962 33.4362 33.1038C33.2513 33.2434 32.9956 33.2118 32.8539 33.0368C32.7143 32.8519 32.7459 32.5962 32.9209 32.4544C33.1058 32.3148 33.3614 32.3465 33.5032 32.5215Z"
                                                stroke="black" />
                                            <path
                                                d="M37.5635 27.4274L37.5635 27.4274L37.5583 27.4316C36.9403 27.929 36.025 27.824 35.5339 27.1968L35.534 27.1968L35.5298 27.1916C35.0323 26.5736 35.1374 25.6583 35.7645 25.1672L35.7645 25.1673L35.7697 25.1631C36.3878 24.6656 37.303 24.7707 37.7941 25.3978L37.7941 25.3978L37.7983 25.403C38.2957 26.0211 38.1907 26.9363 37.5635 27.4274Z"
                                                stroke="black" />
                                            <mask id="path-7-inside-1_12198_3673" fill="white">
                                                <path
                                                    d="M44.7726 25.9147C44.7522 25.6293 44.5076 25.4357 44.2222 25.4459L42.2959 25.609C42.2551 25.4357 42.2041 25.2726 42.143 25.1095L43.9164 24.0393C44.1611 23.8966 44.2324 23.5807 44.0897 23.3361C43.947 23.0915 43.6311 23.0201 43.3864 23.1628L41.7251 24.1616C41.6436 24.019 41.562 23.8661 41.4703 23.7336L42.7239 22.3678C42.9176 22.1639 42.8972 21.8378 42.6934 21.6441C42.4895 21.4607 42.1634 21.4709 41.9697 21.6747L40.8384 22.908C40.5835 22.6124 40.2982 22.3474 39.9924 22.113L40.7364 20.3293C40.8485 20.0745 40.7262 19.7687 40.4612 19.6668C40.1962 19.5547 39.9007 19.677 39.7987 19.942L39.126 21.5422C38.861 21.3893 38.5757 21.267 38.2903 21.1549L38.4228 19.1674C38.4432 18.882 38.2291 18.6476 37.9437 18.6272C37.6685 18.6068 37.4239 18.8209 37.4035 19.0961L37.2812 20.8695C36.9653 20.8084 36.6493 20.7574 36.3333 20.737L35.9766 18.8005C35.9256 18.5253 35.6606 18.3418 35.3854 18.3928C35.1103 18.4437 34.9268 18.7087 34.9778 18.9839L35.3141 20.7676C34.9676 20.8084 34.621 20.8695 34.2847 20.9613L33.4387 19.3712C33.3062 19.1266 33.0004 19.0247 32.7456 19.1572C32.501 19.2897 32.3991 19.5955 32.5316 19.8503L33.3062 21.3078C33.3062 21.3078 33.2756 21.318 33.2553 21.3282C32.9189 21.4811 32.6029 21.6849 32.3074 21.8888L31.4308 20.7982C31.2576 20.5841 30.9314 20.5434 30.7174 20.7268C30.5033 20.9001 30.4625 21.2263 30.646 21.4403L31.5327 22.5309C31.2474 22.8061 30.9824 23.1016 30.7479 23.4278L29.6777 22.4086C29.4739 22.2149 29.1477 22.2251 28.9541 22.4289C28.7604 22.6328 28.7706 22.959 28.9745 23.1526L30.2077 24.3247C30.0956 24.5388 29.9733 24.7528 29.8918 24.977C29.851 25.0892 29.7899 25.2013 29.7491 25.3032L28.9031 24.2636C28.7298 24.0495 28.4037 24.0088 28.1897 24.1922C27.9756 24.3655 27.9348 24.6917 28.1183 24.9057L29.2191 26.2613C28.9643 26.618 28.6483 26.9442 28.312 27.2194L27.5475 25.4663C27.4354 25.2115 27.1398 25.0892 26.8748 25.2013C26.62 25.3134 26.4977 25.6192 26.6098 25.874L27.4456 27.8003C27.0991 27.9838 26.7321 28.1367 26.3448 28.2488L25.7843 26.4651C25.7027 26.2001 25.4173 26.0472 25.1421 26.1288C24.8771 26.2103 24.7243 26.4957 24.8058 26.7709L25.3358 28.4526C24.8771 28.524 24.4491 28.6361 24.0312 28.789L23.2362 27.3722C23.0935 27.1276 22.7877 27.0359 22.5431 27.1786C22.2985 27.3213 22.2067 27.627 22.3494 27.8717L23.1037 29.2171C22.6144 29.4922 22.166 29.8388 21.7685 30.2363L20.4435 29.2171C20.2192 29.0438 19.9033 29.0846 19.73 29.3088C19.5567 29.533 19.5975 29.849 19.8217 30.0222L21.0958 31.0109C20.7798 31.4288 20.525 31.8874 20.3212 32.3767L18.2012 32.2238C17.926 32.2034 17.6813 32.4174 17.661 32.6926C17.6406 32.978 17.8546 33.2226 18.1298 33.243L19.995 33.3755C19.8727 33.875 19.8115 34.3948 19.8115 34.9248L17.1819 35.5567C16.9067 35.628 16.7436 35.9032 16.8048 36.1682C16.866 36.4027 17.0698 36.5555 17.3042 36.5555C17.345 36.5555 17.3858 36.5555 17.4265 36.5453L19.9135 35.944C19.9746 36.3211 20.0663 36.688 20.1989 37.0448L17.9463 38.2067C17.6915 38.3392 17.5998 38.645 17.7221 38.8896C17.8138 39.0629 17.9871 39.1648 18.1808 39.1648C18.2623 39.1648 18.3438 39.1444 18.4152 39.1036L20.6167 37.9723C20.8104 38.329 21.0346 38.6552 21.2894 38.9711L19.5058 40.6427C19.3019 40.8363 19.2917 41.1523 19.4854 41.3663C19.5873 41.4784 19.7198 41.5294 19.8523 41.5294C19.9746 41.5294 20.1071 41.4886 20.1989 41.3867L21.9927 39.705C22.0946 39.7967 22.1965 39.8884 22.3087 39.9802C22.4412 40.0821 22.5839 40.1636 22.7164 40.2554L21.5646 42.4977C21.4321 42.7525 21.534 43.0583 21.7889 43.1806C21.8602 43.2213 21.9417 43.2417 22.0233 43.2417C22.2067 43.2417 22.3902 43.1398 22.4819 42.9665L23.6133 40.765C23.8171 40.8567 24.021 40.9586 24.235 41.0402L24.1535 43.5067C24.1535 43.7921 24.3675 44.0265 24.6427 44.0367H24.6631C24.9383 44.0367 25.1625 43.8227 25.1727 43.5475L25.2543 41.295C25.5906 41.3561 25.9371 41.3765 26.2837 41.3765L26.406 43.4456C26.4264 43.7208 26.6506 43.9246 26.9156 43.9246C26.9156 43.9246 26.936 43.9246 26.9462 43.9246C27.2316 43.9042 27.4456 43.6698 27.4252 43.3844L27.3029 41.3052C27.6495 41.2644 27.9858 41.2134 28.3222 41.1523L28.74 43.2723C28.791 43.5169 29.005 43.68 29.2395 43.68C29.27 43.68 29.3006 43.68 29.3414 43.68C29.6166 43.629 29.8 43.3538 29.7389 43.0786L29.3108 40.9383C29.5554 40.8771 29.7898 40.8159 30.0345 40.7446L30.6664 42.8952C30.7275 43.1194 30.9314 43.2621 31.1556 43.2621C31.2066 43.2621 31.2474 43.2621 31.2983 43.2417C31.5735 43.1602 31.7264 42.885 31.6449 42.6098L31.0129 40.4388C31.3799 40.3063 31.7468 40.1738 32.1035 40.0209L33.0718 42.1002C33.1533 42.2836 33.347 42.3958 33.5304 42.3958C33.6018 42.3958 33.6731 42.3856 33.7445 42.3448C33.9993 42.2225 34.1114 41.9269 33.9891 41.6721L33.0208 39.6031C33.3266 39.4502 33.612 39.2973 33.9076 39.1342L35.1918 40.9994C35.2937 41.1421 35.4466 41.2236 35.6097 41.2236C35.7116 41.2236 35.8135 41.1931 35.8951 41.1319C36.1295 40.9688 36.1804 40.6529 36.0276 40.4184L34.7841 38.6042C35.0185 38.4513 35.2529 38.2984 35.4874 38.1354L36.9347 39.8069C37.0366 39.919 37.1793 39.9802 37.322 39.9802C37.4443 39.9802 37.5564 39.9394 37.6583 39.8579C37.8724 39.6744 37.8928 39.3482 37.7093 39.1342L36.313 37.5238C36.5372 37.3505 36.741 37.1569 36.9551 36.9734L38.2393 38.4513C38.3412 38.5634 38.4839 38.6246 38.6266 38.6246C38.7489 38.6246 38.861 38.5838 38.963 38.5023C39.177 38.3188 39.1974 37.9927 39.0139 37.7786L37.7093 36.2702C37.9233 36.0663 38.1272 35.8625 38.3208 35.6382L39.8701 37.004C39.9618 37.0855 40.0841 37.1263 40.2064 37.1263C40.3491 37.1263 40.4918 37.0652 40.5937 36.953C40.7772 36.739 40.7568 36.423 40.5428 36.2294L38.9935 34.8636C39.2789 34.5171 39.5439 34.1705 39.8089 33.8036L41.348 34.9757C41.4397 35.0471 41.5518 35.0777 41.6537 35.0777C41.8066 35.0777 41.9595 35.0063 42.0614 34.8738C42.2347 34.6496 42.1837 34.3336 41.9595 34.1603L40.3695 32.9576C40.5734 32.6417 40.7568 32.3155 40.9403 31.9894L42.5507 32.9882C42.6322 33.0392 42.7239 33.0698 42.8157 33.0698C42.9889 33.0698 43.152 32.9882 43.2437 32.8251C43.3966 32.5907 43.3151 32.2748 43.0807 32.1219L41.3989 31.0721C41.5518 30.7561 41.6945 30.4401 41.827 30.114L43.6412 30.7051C43.6922 30.7255 43.7432 30.7255 43.8043 30.7255C44.0184 30.7255 44.2222 30.593 44.2936 30.379C44.3853 30.114 44.2324 29.8286 43.9674 29.7369L42.1939 29.1559C42.2857 28.8705 42.357 28.5851 42.3978 28.2997L44.1101 28.5036C44.1101 28.5036 44.1509 28.5036 44.1713 28.5036C44.4261 28.5036 44.6503 28.3099 44.6809 28.0551C44.7114 27.7799 44.5178 27.5251 44.2324 27.4945L42.4895 27.2907C42.4895 27.0665 42.4895 26.8422 42.4589 26.618L44.3038 26.4651C44.5789 26.4447 44.793 26.1899 44.7726 25.9147ZM23.5725 38.3902C22.6348 37.6563 22.0437 36.5963 21.901 35.414C21.6054 32.9678 23.3585 30.7459 25.7944 30.4503C28.5566 30.114 30.86 28.2895 31.8181 25.6905C32.2258 24.5693 33.0514 23.6826 34.1318 23.1832C34.7229 22.908 35.3651 22.7653 36.0072 22.7653C36.527 22.7653 37.0468 22.857 37.5462 23.0405C38.3208 23.3259 38.9935 23.8151 39.5032 24.4572C40.4714 25.6905 40.7364 27.3009 40.1962 28.7686C38.0762 34.5375 32.9699 38.5838 26.8646 39.3075C25.6823 39.4502 24.5102 39.124 23.5827 38.3902H23.5725Z" />
                                            </mask>
                                            <path
                                                d="M44.7726 25.9147C44.7522 25.6293 44.5076 25.4357 44.2222 25.4459L42.2959 25.609C42.2551 25.4357 42.2041 25.2726 42.143 25.1095L43.9164 24.0393C44.1611 23.8966 44.2324 23.5807 44.0897 23.3361C43.947 23.0915 43.6311 23.0201 43.3864 23.1628L41.7251 24.1616C41.6436 24.019 41.562 23.8661 41.4703 23.7336L42.7239 22.3678C42.9176 22.1639 42.8972 21.8378 42.6934 21.6441C42.4895 21.4607 42.1634 21.4709 41.9697 21.6747L40.8384 22.908C40.5835 22.6124 40.2982 22.3474 39.9924 22.113L40.7364 20.3293C40.8485 20.0745 40.7262 19.7687 40.4612 19.6668C40.1962 19.5547 39.9007 19.677 39.7987 19.942L39.126 21.5422C38.861 21.3893 38.5757 21.267 38.2903 21.1549L38.4228 19.1674C38.4432 18.882 38.2291 18.6476 37.9437 18.6272C37.6685 18.6068 37.4239 18.8209 37.4035 19.0961L37.2812 20.8695C36.9653 20.8084 36.6493 20.7574 36.3333 20.737L35.9766 18.8005C35.9256 18.5253 35.6606 18.3418 35.3854 18.3928C35.1103 18.4437 34.9268 18.7087 34.9778 18.9839L35.3141 20.7676C34.9676 20.8084 34.621 20.8695 34.2847 20.9613L33.4387 19.3712C33.3062 19.1266 33.0004 19.0247 32.7456 19.1572C32.501 19.2897 32.3991 19.5955 32.5316 19.8503L33.3062 21.3078C33.3062 21.3078 33.2756 21.318 33.2553 21.3282C32.9189 21.4811 32.6029 21.6849 32.3074 21.8888L31.4308 20.7982C31.2576 20.5841 30.9314 20.5434 30.7174 20.7268C30.5033 20.9001 30.4625 21.2263 30.646 21.4403L31.5327 22.5309C31.2474 22.8061 30.9824 23.1016 30.7479 23.4278L29.6777 22.4086C29.4739 22.2149 29.1477 22.2251 28.9541 22.4289C28.7604 22.6328 28.7706 22.959 28.9745 23.1526L30.2077 24.3247C30.0956 24.5388 29.9733 24.7528 29.8918 24.977C29.851 25.0892 29.7899 25.2013 29.7491 25.3032L28.9031 24.2636C28.7298 24.0495 28.4037 24.0088 28.1897 24.1922C27.9756 24.3655 27.9348 24.6917 28.1183 24.9057L29.2191 26.2613C28.9643 26.618 28.6483 26.9442 28.312 27.2194L27.5475 25.4663C27.4354 25.2115 27.1398 25.0892 26.8748 25.2013C26.62 25.3134 26.4977 25.6192 26.6098 25.874L27.4456 27.8003C27.0991 27.9838 26.7321 28.1367 26.3448 28.2488L25.7843 26.4651C25.7027 26.2001 25.4173 26.0472 25.1421 26.1288C24.8771 26.2103 24.7243 26.4957 24.8058 26.7709L25.3358 28.4526C24.8771 28.524 24.4491 28.6361 24.0312 28.789L23.2362 27.3722C23.0935 27.1276 22.7877 27.0359 22.5431 27.1786C22.2985 27.3213 22.2067 27.627 22.3494 27.8717L23.1037 29.2171C22.6144 29.4922 22.166 29.8388 21.7685 30.2363L20.4435 29.2171C20.2192 29.0438 19.9033 29.0846 19.73 29.3088C19.5567 29.533 19.5975 29.849 19.8217 30.0222L21.0958 31.0109C20.7798 31.4288 20.525 31.8874 20.3212 32.3767L18.2012 32.2238C17.926 32.2034 17.6813 32.4174 17.661 32.6926C17.6406 32.978 17.8546 33.2226 18.1298 33.243L19.995 33.3755C19.8727 33.875 19.8115 34.3948 19.8115 34.9248L17.1819 35.5567C16.9067 35.628 16.7436 35.9032 16.8048 36.1682C16.866 36.4027 17.0698 36.5555 17.3042 36.5555C17.345 36.5555 17.3858 36.5555 17.4265 36.5453L19.9135 35.944C19.9746 36.3211 20.0663 36.688 20.1989 37.0448L17.9463 38.2067C17.6915 38.3392 17.5998 38.645 17.7221 38.8896C17.8138 39.0629 17.9871 39.1648 18.1808 39.1648C18.2623 39.1648 18.3438 39.1444 18.4152 39.1036L20.6167 37.9723C20.8104 38.329 21.0346 38.6552 21.2894 38.9711L19.5058 40.6427C19.3019 40.8363 19.2917 41.1523 19.4854 41.3663C19.5873 41.4784 19.7198 41.5294 19.8523 41.5294C19.9746 41.5294 20.1071 41.4886 20.1989 41.3867L21.9927 39.705C22.0946 39.7967 22.1965 39.8884 22.3087 39.9802C22.4412 40.0821 22.5839 40.1636 22.7164 40.2554L21.5646 42.4977C21.4321 42.7525 21.534 43.0583 21.7889 43.1806C21.8602 43.2213 21.9417 43.2417 22.0233 43.2417C22.2067 43.2417 22.3902 43.1398 22.4819 42.9665L23.6133 40.765C23.8171 40.8567 24.021 40.9586 24.235 41.0402L24.1535 43.5067C24.1535 43.7921 24.3675 44.0265 24.6427 44.0367H24.6631C24.9383 44.0367 25.1625 43.8227 25.1727 43.5475L25.2543 41.295C25.5906 41.3561 25.9371 41.3765 26.2837 41.3765L26.406 43.4456C26.4264 43.7208 26.6506 43.9246 26.9156 43.9246C26.9156 43.9246 26.936 43.9246 26.9462 43.9246C27.2316 43.9042 27.4456 43.6698 27.4252 43.3844L27.3029 41.3052C27.6495 41.2644 27.9858 41.2134 28.3222 41.1523L28.74 43.2723C28.791 43.5169 29.005 43.68 29.2395 43.68C29.27 43.68 29.3006 43.68 29.3414 43.68C29.6166 43.629 29.8 43.3538 29.7389 43.0786L29.3108 40.9383C29.5554 40.8771 29.7898 40.8159 30.0345 40.7446L30.6664 42.8952C30.7275 43.1194 30.9314 43.2621 31.1556 43.2621C31.2066 43.2621 31.2474 43.2621 31.2983 43.2417C31.5735 43.1602 31.7264 42.885 31.6449 42.6098L31.0129 40.4388C31.3799 40.3063 31.7468 40.1738 32.1035 40.0209L33.0718 42.1002C33.1533 42.2836 33.347 42.3958 33.5304 42.3958C33.6018 42.3958 33.6731 42.3856 33.7445 42.3448C33.9993 42.2225 34.1114 41.9269 33.9891 41.6721L33.0208 39.6031C33.3266 39.4502 33.612 39.2973 33.9076 39.1342L35.1918 40.9994C35.2937 41.1421 35.4466 41.2236 35.6097 41.2236C35.7116 41.2236 35.8135 41.1931 35.8951 41.1319C36.1295 40.9688 36.1804 40.6529 36.0276 40.4184L34.7841 38.6042C35.0185 38.4513 35.2529 38.2984 35.4874 38.1354L36.9347 39.8069C37.0366 39.919 37.1793 39.9802 37.322 39.9802C37.4443 39.9802 37.5564 39.9394 37.6583 39.8579C37.8724 39.6744 37.8928 39.3482 37.7093 39.1342L36.313 37.5238C36.5372 37.3505 36.741 37.1569 36.9551 36.9734L38.2393 38.4513C38.3412 38.5634 38.4839 38.6246 38.6266 38.6246C38.7489 38.6246 38.861 38.5838 38.963 38.5023C39.177 38.3188 39.1974 37.9927 39.0139 37.7786L37.7093 36.2702C37.9233 36.0663 38.1272 35.8625 38.3208 35.6382L39.8701 37.004C39.9618 37.0855 40.0841 37.1263 40.2064 37.1263C40.3491 37.1263 40.4918 37.0652 40.5937 36.953C40.7772 36.739 40.7568 36.423 40.5428 36.2294L38.9935 34.8636C39.2789 34.5171 39.5439 34.1705 39.8089 33.8036L41.348 34.9757C41.4397 35.0471 41.5518 35.0777 41.6537 35.0777C41.8066 35.0777 41.9595 35.0063 42.0614 34.8738C42.2347 34.6496 42.1837 34.3336 41.9595 34.1603L40.3695 32.9576C40.5734 32.6417 40.7568 32.3155 40.9403 31.9894L42.5507 32.9882C42.6322 33.0392 42.7239 33.0698 42.8157 33.0698C42.9889 33.0698 43.152 32.9882 43.2437 32.8251C43.3966 32.5907 43.3151 32.2748 43.0807 32.1219L41.3989 31.0721C41.5518 30.7561 41.6945 30.4401 41.827 30.114L43.6412 30.7051C43.6922 30.7255 43.7432 30.7255 43.8043 30.7255C44.0184 30.7255 44.2222 30.593 44.2936 30.379C44.3853 30.114 44.2324 29.8286 43.9674 29.7369L42.1939 29.1559C42.2857 28.8705 42.357 28.5851 42.3978 28.2997L44.1101 28.5036C44.1101 28.5036 44.1509 28.5036 44.1713 28.5036C44.4261 28.5036 44.6503 28.3099 44.6809 28.0551C44.7114 27.7799 44.5178 27.5251 44.2324 27.4945L42.4895 27.2907C42.4895 27.0665 42.4895 26.8422 42.4589 26.618L44.3038 26.4651C44.5789 26.4447 44.793 26.1899 44.7726 25.9147ZM23.5725 38.3902C22.6348 37.6563 22.0437 36.5963 21.901 35.414C21.6054 32.9678 23.3585 30.7459 25.7944 30.4503C28.5566 30.114 30.86 28.2895 31.8181 25.6905C32.2258 24.5693 33.0514 23.6826 34.1318 23.1832C34.7229 22.908 35.3651 22.7653 36.0072 22.7653C36.527 22.7653 37.0468 22.857 37.5462 23.0405C38.3208 23.3259 38.9935 23.8151 39.5032 24.4572C40.4714 25.6905 40.7364 27.3009 40.1962 28.7686C38.0762 34.5375 32.9699 38.5838 26.8646 39.3075C25.6823 39.4502 24.5102 39.124 23.5827 38.3902H23.5725Z"
                                                stroke="black" stroke-width="2"
                                                mask="url(#path-7-inside-1_12198_3673)" />
                                        </svg>