<svg xmlns="http://www.w3.org/2000/svg" width="45" height="45"
                                            viewBox="0 0 45 45" fill="none">
                                            <path fill-rule="evenodd" clip-rule="evenodd"
                                                d="M12.4931 29.8957C6.73208 21.1959 4.87558 0.924314 22.325 0.716187C39.7744 0.924314 37.9179 21.1959 32.1486 29.8957C26.5542 38.3456 18.0958 38.3456 12.4931 29.8957Z"
                                                fill="#C7E7DC" stroke="#414141" stroke-miterlimit="2.61313"
                                                stroke-linecap="round" stroke-linejoin="round" />
                                            <path fill-rule="evenodd" clip-rule="evenodd"
                                                d="M21.2111 6.03808C21.2111 5.73253 21.2379 5.40554 21.2915 5.14555C21.4148 4.52909 21.6935 3.92067 22.3127 3.71429C22.9747 3.4945 23.618 3.83758 23.9235 4.40043C24.0307 4.59877 24.1486 4.88556 24.1808 5.11607C24.2719 5.77541 24.2987 6.44816 24.1674 7.10483C24.0629 7.62748 23.886 8.059 23.4384 8.35383C23.2802 8.45837 23.0846 8.52805 22.8862 8.54949C22.7361 8.56558 22.5861 8.56558 22.4413 8.53609C21.6506 8.37796 21.3183 7.46399 21.2566 6.74299C21.2352 6.50177 21.2164 6.2793 21.2164 6.0354L21.2111 6.03808ZM20.1631 6.10509C20.1631 6.52589 20.2569 6.86628 20.3855 7.16379C20.4016 7.20132 20.4204 7.23616 20.4392 7.26833C20.5088 7.4077 20.5303 7.44254 20.6161 7.57388C20.6938 7.69181 20.809 7.83386 20.9055 7.93303C21.2432 8.27075 21.6801 8.52001 22.1492 8.61918C22.6021 8.71567 22.8862 8.72103 23.3392 8.60846C23.6474 8.53073 23.9744 8.39404 24.2344 8.21714C24.2987 8.17426 24.3604 8.12601 24.4194 8.07777C24.4488 8.05364 24.4756 8.0322 24.5024 8.00272C24.5346 7.97056 24.5587 7.95447 24.5909 7.92499C24.6204 7.89551 24.6365 7.87139 24.6659 7.8419C24.8321 7.67573 25.0171 7.36481 25.1028 7.15039C25.1913 6.93061 25.277 6.62238 25.2985 6.37311C25.3065 6.2793 25.3226 6.17477 25.3226 6.07292C25.3226 5.89067 25.2824 5.66552 25.2422 5.51275C25.2074 5.37069 25.1323 5.16431 25.0707 5.03566C24.9259 4.74887 24.7705 4.51033 24.54 4.27714C24.4408 4.17797 24.3041 4.06272 24.1915 3.98499C23.9181 3.80005 23.6099 3.66336 23.2856 3.59367C22.6048 3.44894 22.0393 3.54811 21.4523 3.86974C21.2888 3.95819 21.2111 4.0252 21.0771 4.13509C20.9698 4.22086 20.9189 4.2825 20.8332 4.37363L20.7608 4.4594C20.7125 4.52105 20.667 4.57733 20.6241 4.64434C20.3266 5.09194 20.1631 5.55295 20.1631 6.10509Z"
                                                fill="#414141" />
                                            <path fill-rule="evenodd" clip-rule="evenodd"
                                                d="M22.7573 10.6186C22.7573 10.758 22.7332 10.7338 22.8833 10.7338C22.9235 10.7338 22.9047 10.6481 22.9181 10.5355C22.9556 10.2031 23.1298 9.92439 23.3845 9.72069C23.5426 9.59472 23.7222 9.50091 23.9178 9.42854C24.0358 9.38566 24.1483 9.35617 24.277 9.32133C24.6254 9.23288 24.9685 9.21948 25.3303 9.21948V8.16345C24.7487 8.16345 24.1671 8.39932 23.7249 8.76115C23.6471 8.8228 23.5104 8.94877 23.4461 9.02382C23.43 9.04526 23.4274 9.05062 23.4086 9.06938C23.3309 9.14979 23.2022 9.33473 23.1406 9.42586C23.0977 9.49287 23.0628 9.55719 23.0253 9.62688C22.8779 9.88955 22.7626 10.313 22.7626 10.6186H22.7573Z"
                                                fill="#414141" />
                                            <path fill-rule="evenodd" clip-rule="evenodd"
                                                d="M24.2231 14.6444C24.2231 14.6444 24.2231 12.996 26.6874 12.2634C29.1516 11.5308 32.8979 11.8055 32.8729 13.6786C32.848 15.5601 29.2765 17.1252 27.1536 17.0503C25.0307 16.9837 24.2231 15.1022 24.2231 14.6444Z"
                                                fill="white" stroke="#414141" stroke-miterlimit="2.61313"
                                                stroke-linecap="round" stroke-linejoin="round" />
                                            <path fill-rule="evenodd" clip-rule="evenodd"
                                                d="M22.3247 30.4867C22.3247 30.4867 17.4712 30.2536 16.1392 26.9319C16.1392 26.9319 17.6876 25.3751 19.4359 25.6915C21.1925 26.0161 21.5588 26.3159 22.3247 26.2659C23.0906 26.3159 23.4569 26.0161 25.2052 25.6915C26.9535 25.3751 28.5103 26.9319 28.5103 26.9319C27.1782 30.2536 22.3247 30.4867 22.3247 30.4867Z"
                                                fill="white" stroke="#414141" stroke-miterlimit="2.61313"
                                                stroke-linecap="round" stroke-linejoin="round" />
                                            <path d="M18.6704 21.3374C21.6092 22.7443 23.0411 22.7443 25.9799 21.3374"
                                                stroke="#414141" stroke-miterlimit="2.61313" stroke-linecap="round"
                                                stroke-linejoin="round" />
                                            <path fill-rule="evenodd" clip-rule="evenodd"
                                                d="M20.4268 14.6444C20.4268 14.6444 20.4268 12.996 17.9625 12.2634C15.4983 11.5308 11.752 11.8055 11.777 13.6786C11.802 15.5601 15.3734 17.1252 17.4963 17.0503C19.6109 16.9837 20.4268 15.1022 20.4268 14.6444Z"
                                                fill="white" stroke="#414141" stroke-miterlimit="2.61313"
                                                stroke-linecap="round" stroke-linejoin="round" />
                                        </svg>