 <svg xmlns="http://www.w3.org/2000/svg" width="45" height="46"
                                            viewBox="0 0 45 46" fill="none">
                                            <g clip-path="url(#clip0_8729_3996)">
                                                <path fill-rule="evenodd" clip-rule="evenodd"
                                                    d="M23.439 6.68286H26.7587V27.6839H17.1932C16.8373 25.3673 14.8349 23.5919 12.4199 23.5919C10.001 23.5919 8.00239 25.3673 7.64657 27.6839H5.9621C6.03023 27.3886 6.0643 27.7369 6.0643 26.7678C6.0643 25.795 5.12175 23.732 3.75146 23.062V21.5592H23.439V6.68286V6.68286Z"
                                                    stroke="#414141" stroke-width="0.8" stroke-miterlimit="2.61313"
                                                    stroke-linecap="round" stroke-linejoin="round" />
                                                <path fill-rule="evenodd" clip-rule="evenodd"
                                                    d="M12.4198 25.4543C14.0589 25.4543 15.3875 26.783 15.3875 28.422C15.3875 30.0611 14.0589 31.3897 12.4198 31.3897C10.7808 31.3897 9.45215 30.0611 9.45215 28.422C9.45215 26.783 10.7808 25.4543 12.4198 25.4543Z"
                                                    stroke="#414141" stroke-width="0.8" stroke-miterlimit="2.61313"
                                                    stroke-linecap="round" stroke-linejoin="round" />
                                                <path fill-rule="evenodd" clip-rule="evenodd"
                                                    d="M34.81 25.4543C36.449 25.4543 37.7777 26.783 37.7777 28.422C37.7777 30.0611 36.449 31.3897 34.81 31.3897C33.1709 31.3897 31.8423 30.0611 31.8423 28.422C31.8423 26.783 33.1709 25.4543 34.81 25.4543Z"
                                                    stroke="#414141" stroke-width="0.8" stroke-miterlimit="2.61313"
                                                    stroke-linecap="round" stroke-linejoin="round" />
                                                <path fill-rule="evenodd" clip-rule="evenodd"
                                                    d="M28.3711 11.5811H35.9531L41.2526 18.6256V27.6838H39.587C39.2312 25.3672 37.2288 23.5919 34.8137 23.5919C32.3949 23.5919 30.3925 25.3672 30.0404 27.6838H28.3749V11.5811H28.3711ZM30.718 14.0226V19.3448H38.9019L34.897 14.0226H30.718Z"
                                                    stroke="#414141" stroke-width="0.8" stroke-miterlimit="2.61313"
                                                    stroke-linecap="round" stroke-linejoin="round" />
                                                <path d="M21.6863 6.68286H3.97852V19.8482H21.6863V6.68286Z"
                                                    stroke="#414141" stroke-width="0.8" stroke-miterlimit="2.61313"
                                                    stroke-linecap="round" stroke-linejoin="round" />
                                                <path fill-rule="evenodd" clip-rule="evenodd"
                                                    d="M10.6671 11.7173C10.6671 11.2858 10.7049 10.824 10.7806 10.4568C10.9548 9.5862 11.3484 8.72693 12.2228 8.43546C13.1578 8.12506 14.0663 8.60958 14.4978 9.4045C14.6492 9.68462 14.8158 10.0896 14.8612 10.4152C14.9899 11.3464 15.0278 12.2965 14.8423 13.2239C14.6947 13.962 14.4448 14.5715 13.8127 14.9879C13.5894 15.1355 13.313 15.2339 13.0329 15.2642C12.8209 15.2869 12.6089 15.2869 12.4045 15.2453C11.2879 15.0219 10.8185 13.7311 10.7314 12.7129C10.7011 12.3722 10.6746 12.058 10.6746 11.7136L10.6671 11.7173ZM9.18701 11.812C9.18701 12.4063 9.3195 12.887 9.50119 13.3072C9.52391 13.3602 9.5504 13.4094 9.5769 13.4548C9.67532 13.6516 9.7056 13.7009 9.82673 13.8863C9.93651 14.0529 10.0993 14.2535 10.2355 14.3936C10.7125 14.8705 11.3295 15.2226 11.9919 15.3626C12.6317 15.4989 13.0329 15.5065 13.6726 15.3475C14.1079 15.2377 14.5697 15.0446 14.9369 14.7948C15.0278 14.7342 15.1148 14.6661 15.1981 14.598C15.2398 14.5639 15.2776 14.5336 15.3155 14.492C15.3609 14.4466 15.395 14.4239 15.4404 14.3822C15.482 14.3406 15.5047 14.3065 15.5464 14.2649C15.7811 14.0302 16.0422 13.5911 16.1634 13.2883C16.2883 12.9779 16.4094 12.5425 16.4397 12.1905C16.4511 12.058 16.4738 11.9104 16.4738 11.7666C16.4738 11.5091 16.417 11.1912 16.3602 10.9754C16.311 10.7748 16.205 10.4833 16.118 10.3016C15.9135 9.8966 15.694 9.5597 15.3685 9.23038C15.2284 9.09032 15.0353 8.92755 14.8764 8.81778C14.4903 8.55659 14.0549 8.36354 13.5969 8.26512C12.6354 8.06071 11.8367 8.20077 11.0078 8.65501C10.7768 8.77992 10.6671 8.87456 10.4778 9.02976C10.3264 9.15089 10.2545 9.23795 10.1333 9.36665L10.0311 9.48778C9.963 9.57484 9.89865 9.65434 9.83809 9.74897C9.41792 10.3811 9.18701 11.0322 9.18701 11.812Z"
                                                    fill="#414141" />
                                                <path fill-rule="evenodd" clip-rule="evenodd"
                                                    d="M12.8511 18.1865C12.8511 18.3833 12.8171 18.3492 13.029 18.3492C13.0858 18.3492 13.0593 18.2281 13.0783 18.0691C13.1313 17.5998 13.3773 17.2061 13.7369 16.9184C13.9602 16.7405 14.2139 16.608 14.4902 16.5058C14.6567 16.4452 14.8157 16.4036 14.9974 16.3544C15.4895 16.2295 15.974 16.2105 16.4851 16.2105V14.7191C15.6636 14.7191 14.8422 15.0522 14.2176 15.5632C14.1079 15.6503 13.9148 15.8282 13.824 15.9342C13.8013 15.9645 13.7975 15.9721 13.771 15.9986C13.6612 16.1121 13.4795 16.3733 13.3924 16.502C13.3319 16.5966 13.2827 16.6875 13.2297 16.7859C13.0215 17.1569 12.8587 17.755 12.8587 18.1865H12.8511Z"
                                                    fill="#414141" />
                                            </g>
                                            <defs>
                                                <clipPath id="clip0_8729_3996">
                                                    <rect width="45" height="45" fill="white"
                                                        transform="translate(0 0.505615)" />
                                                </clipPath>
                                            </defs>
                                        </svg>