<svg xmlns="http://www.w3.org/2000/svg" width="165" height="30" viewBox="0 0 165 30" fill="none">
<path d="M110.326 0H105.016V9.99055C104.249 2.51817 101.485 0 97.4337 0C94.3955 0 92.1237 1.50542 90.7277 5.4469C89.715 1.53279 86.8136 0 81.9963 0H76.6862V9.99055H76.5494C75.783 2.51817 73.0185 0 68.9675 0C65.0534 0 62.2615 2.51817 61.3856 9.99055H61.2488V0H54.4059L51.8878 14.9174H51.7509L49.5886 0H42.4994V5.69324C41.8699 2.27182 39.8444 0 36.0398 0C31.852 0 29.5801 2.90136 29.1969 6.56913C28.0473 1.64228 25.5292 0 22.2446 0C18.5768 0 15.9218 2.16234 14.9091 8.34826C14.6627 3.9141 13.4037 0 8.06624 0C3.87842 0 0.484375 3.80462 0.484375 14.5616C0.484375 23.7857 2.373 29.1231 8.06624 29.1231C13.1299 29.1231 14.5259 25.0722 14.9091 21.0212C15.9218 27.0976 18.5768 29.1231 22.2446 29.1231C25.7755 29.1231 28.321 27.0976 29.4433 21.4044C29.6896 25.0722 31.0856 29.1231 36.2861 29.1231C39.1875 29.1231 41.3498 27.864 42.4994 25.7017V28.9863H46.4135V7.71873H46.5504L50.0813 28.9863H52.9826L56.5135 7.71873H56.6504V28.9863H61.3309V18.9957H61.4678C62.2342 26.4681 64.9987 28.9863 69.0496 28.9863C72.9637 28.9863 75.7556 26.4681 76.6315 18.9957H76.7683V28.9863H82.0784V17.3534H84.2407C86.8957 17.3534 88.6749 16.3407 89.7971 14.6984C89.7971 25.5922 92.8353 28.9863 97.5158 28.9863C101.43 28.9863 104.222 26.4681 105.098 18.9957V28.9863H117.114V24.5521H110.408V0H110.326ZM10.6391 17.983C10.5023 22.0339 10.1465 24.5521 8.36733 24.5521C6.72504 24.5521 6.20499 23.5394 6.20499 14.3152C6.20499 4.95421 7.35459 4.32467 8.47681 4.32467C9.73589 4.32467 10.3654 6.10381 10.3654 10.6475L14.7996 10.5106C14.6627 11.7697 14.6627 13.0288 14.6627 14.5616C14.6627 15.9575 14.6627 17.2166 14.7996 18.3662L10.6391 17.983ZM24.2975 17.4629C24.2975 23.5394 23.5311 24.6616 22.4088 24.6616C21.1497 24.6616 20.5202 23.4025 20.5202 17.4629V11.5233C20.5202 5.4469 21.2866 4.32467 22.4088 4.32467C23.6679 4.32467 24.2975 5.58376 24.2975 11.5233V17.4629ZM36.5598 24.689C34.288 24.689 34.288 21.8971 34.288 20.3917H29.7444C29.9907 18.7494 30.1276 16.7239 30.1276 14.4521C30.1276 13.3025 30.1276 12.1803 29.9907 11.1675C32.2625 16.3681 38.859 17.8735 38.859 22.0613C38.859 23.0193 38.339 24.689 36.5598 24.689ZM34.0417 6.84284C34.0417 5.33741 34.8081 4.32467 36.0671 4.32467C38.2295 4.32467 38.2295 6.9797 38.2295 8.51249H42.6636V16.9976C40.1181 12.3992 34.0417 10.6201 34.0417 6.84284ZM70.993 17.4629C70.993 23.5394 70.2266 24.7985 69.1044 24.7985C67.8453 24.7985 67.2157 23.5394 67.2157 17.4629V11.5233C67.2157 5.4469 67.9821 4.18781 69.1044 4.18781C70.3634 4.18781 70.993 5.4469 70.993 11.5233V17.4629ZM82.489 13.1656H81.9963V4.43416H82.3795C84.1586 4.43416 85.8009 4.57102 85.8009 8.73146C85.8009 12.2897 84.6513 13.1656 82.489 13.1656ZM99.3223 17.4629C99.3223 23.5394 98.5559 24.7985 97.4337 24.7985C96.1746 24.7985 95.5451 23.5394 95.5451 17.4629V11.5233C95.5451 5.4469 96.3115 4.18781 97.4337 4.18781C98.6928 4.18781 99.3223 5.4469 99.3223 11.5233V17.4629ZM117.935 0H123.245V28.9863H117.935V0ZM138.436 0H124.011V4.43416H128.555V28.9863H133.865V4.43416H138.409V0M160.306 0V15.3006H160.169L155.352 0H150.151V25.3185L146.976 0.027373H139.257L135.206 29.0136H139.64L140.407 22.554H144.759L145.525 29.0136H154.749V11.4139H154.886L160.579 29.0136H164.74V0H160.306ZM141.091 18.3388L142.733 4.43416H142.87L144.376 18.3388H141.091Z" fill="#C2BCB1"/>
</svg>