<svg xmlns="http://www.w3.org/2000/svg" width="81" height="30" viewBox="0 0 81 30" fill="none">
  <g clip-path="url(#clip0_15556_1435)">
    <path d="M29.8802 28.7591H28.478V0.391004H30.6623V0.0134817H22.8287V0.391004H25.0129V28.7591H22.8287V29.1231H35.2734V21.4783H34.9094C34.8285 26.5209 32.7251 28.7591 29.8802 28.7591ZM52.963 28.7591H51.5608V0.391004H53.745V0.0134817H45.9114V0.391004H48.0957V28.7591H45.9114V29.1231H58.3562V21.4783H57.9922C57.9247 26.5209 55.8079 28.7591 52.963 28.7591ZM6.67613 28.7591H5.5166V14.4941H6.01546C7.95701 14.4941 8.98171 16.557 8.98171 19.6986H9.3053V8.69649H8.98171C8.98171 11.3796 8.07835 14.1166 6.01546 14.1166H5.5166V0.391004H6.99972C9.3053 0.391004 11.8266 2.25165 11.8266 7.21337H12.1502V0.0134817H0.150391V0.391004H2.05148V28.7591H0.150391V29.1231H12.1906V21.5188H11.8671C11.8671 26.885 9.1435 28.7591 6.67613 28.7591ZM80.7109 21.5053C80.7109 26.885 77.9873 28.7456 75.52 28.7456H74.3604V14.4807H74.8593C76.8008 14.4807 77.8255 16.5436 77.8255 19.6851H78.1626V8.683H77.8255C77.8255 11.3661 76.9222 14.1031 74.8593 14.1031H74.3604V0.37752H75.8435C78.1626 0.37752 80.6704 2.23817 80.6704 7.19988H81.0075V0H68.9942V0.37752H70.8953V28.7456H68.9942V29.1096H81.0345V21.5053H80.7109Z" fill="#C2BCB1"/>
  </g>
  <defs>
    <clipPath id="clip0_15556_1435">
      <rect width="80.6487" height="29.1231" fill="white" transform="translate(0.150391)"/>
    </clipPath>
  </defs>
</svg>