<svg xmlns="http://www.w3.org/2000/svg" width="127" height="30" viewBox="0 0 127 30" fill="none">
  <g clip-path="url(#clip0_15556_1438)">
    <path d="M30.2297 28.6479V23.5716H24.8002V0.441406H19.1211V28.6479H30.2297ZM43.3616 0.441406H37.4247L30.8034 28.6697H35.7253L37.0942 22.4896H42.9648L44.0686 28.6697H49.675L43.3616 0.441406ZM37.799 18.0978L40.0284 7.46026L42.3241 18.0541L37.799 18.0978Z" fill="#C2BCB1"/>
    <path d="M49.3191 0.441406H57.7068L60.8849 19.0909L64.703 0.441406H72.3845V28.6479H66.7781V8.4461L62.2093 28.6406H58.7436L54.1748 8.4097V28.6486H49.3184L49.3191 0.441406ZM122.241 16.6197C125.971 14.0597 125.993 11.2121 125.993 8.34344C125.993 2.45023 122.064 0.442135 118.07 0.442135H109.86V28.6486H115.355V17.8335H117.32L120.498 28.6704H126.28L122.241 16.6197ZM115.355 13.0229V4.92211C117.341 4.6134 120.32 4.67966 120.32 9.20332C120.32 11.3658 119.393 13.6396 115.355 13.0215" fill="#C2BCB1"/>
    <path d="M13.3439 10.3726H17.9127C17.9127 10.3726 18.7733 -0.441776 10.0566 0.0212938C10.0566 0.0212938 1.44901 -0.265577 0.853426 13.1532C0.853426 13.1532 -0.294055 28.8233 8.77658 29.1102C8.77658 29.1102 13.3891 29.5296 15.0673 25.5353L15.8173 28.669H18.1785V13.9032H9.87891V18.2514H13.234C13.234 18.2514 13.2995 18.6708 13.2995 19.7746C13.2995 22.5777 11.9744 24.5858 9.87891 24.3652C8.33389 24.2109 6.45831 22.4226 6.45831 14.565C6.45831 14.565 5.99452 4.96434 10.3427 4.96434C10.3427 4.92066 13.8085 4.69932 13.3447 10.3719M100.678 29.1102C108.58 29.1102 108.602 22.7102 108.602 19.1571V0.440678H103.172V21.2089C103.172 22.4671 102.995 24.3426 100.458 24.3426H99.994C97.4558 24.3426 97.2797 22.4663 97.2797 21.2089V0.440678H91.8502V19.1564C91.8502 22.7095 91.8721 29.1095 99.7734 29.1095L100.678 29.1102Z" fill="#C2BCB1"/>
    <path d="M90.7233 14.5226C90.7233 28.6477 83.3513 29.0896 81.9388 29.0896C80.5263 29.0896 73.1543 28.6703 73.1543 14.5452C73.1543 0.420112 80.527 0 81.9395 0C83.3229 0 90.7233 0.397541 90.7233 14.5226ZM79.3125 10.8144L79.2907 14.6988L79.3125 18.4507C79.3125 21.5626 79.9969 24.3213 81.9169 24.3213C83.8151 24.3213 84.5213 21.5619 84.5213 18.4507L84.5432 14.6988L84.5213 10.8144C84.5213 7.70254 83.8369 4.94378 81.9169 4.94378C79.9969 4.92194 79.3125 7.68142 79.3125 10.8144Z" fill="#C2BCB1"/>
  </g>
  <defs>
    <clipPath id="clip0_15556_1438">
      <rect width="125.453" height="29.1231" fill="white" transform="translate(0.808594)"/>
    </clipPath>
  </defs>
</svg>