 <svg xmlns="http://www.w3.org/2000/svg" width="80" height="79"
                                            viewBox="0 0 80 79" fill="none">
                                            <circle cx="39.9996" cy="39.1139" r="37.9779" stroke="#EDE7DD"
                                                stroke-width="2.1099" />
                                            <path
                                                d="M27.3406 22.2807H34.1978L36.8138 22.2353V28.565L39.4725 37.05L46.3297 47.072V53.9291H42.6374L36.8352 50.2368L34.1978 41.2698H27.3406L24.1758 37.05L27.3406 32.8302V22.2807Z"
                                                stroke="black" />
                                            <path
                                                d="M21.0105 48.6088V39.1143L25.2303 44.389H30.5051V48.6088H26.8128L25.2303 50.7187L21.0105 53.8835L17.8457 50.7187L21.0105 48.6088Z"
                                                stroke="black" />
                                            <path
                                                d="M52.66 35.9498L55.2973 33.8399L56.8797 31.73H62.1545V35.9498L58.9896 36.4772L59.5171 39.1146L52.66 41.2245L49.4951 38.0597L52.66 35.9498Z"
                                                stroke="black" />
                                            <path
                                                d="M46.3289 26.4551L48.9663 24.3452L50.5487 22.2354L53.1861 24.3452L55.8234 26.4551L52.6586 26.9826L53.1861 29.62L47.9113 28.0376L43.1641 28.565L46.3289 26.4551Z"
                                                stroke="black" />
                                            <path
                                                d="M43.1641 32.7843L44.7465 30.147L47.3839 30.6744H50.0212L52.6586 32.7843L51.6036 34.8942L50.0212 35.9492L44.7465 34.3668L45.274 32.7843H43.1641Z"
                                                stroke="black" />
                                        </svg>