  <svg xmlns="http://www.w3.org/2000/svg" width="120" height="115" viewBox="0 0 120 115"
                                    fill="none">
                                    <path
                                        d="M43.4211 38.0126C44.5123 38.0126 45.3969 37.128 45.3969 36.0368C45.3969 34.9456 44.5123 34.061 43.4211 34.061C42.3299 34.061 41.4453 34.9456 41.4453 36.0368C41.4453 37.128 42.3299 38.0126 43.4211 38.0126Z"
                                        fill="black" />
                                    <path
                                        d="M42.0668 35.8274C42.4877 35.8274 42.8289 35.4862 42.8289 35.0653C42.8289 34.6444 42.4877 34.3032 42.0668 34.3032C41.6459 34.3032 41.3047 34.6444 41.3047 35.0653C41.3047 35.4862 41.6459 35.8274 42.0668 35.8274Z"
                                        fill="white" />
                                    <path fill-rule="evenodd" clip-rule="evenodd"
                                        d="M51.311 38.5101C53.5408 38.1855 48.0792 34.9113 47.8251 34.7279C46.6115 33.867 45.0167 33.3307 43.3091 33.246C39.4422 33.0485 37.8051 34.6432 35.0391 36.8165C35.0391 36.8165 36.0693 36.6754 37.1842 37.9032C38.2991 39.131 42.5893 40.5987 46.3151 39.6955C50.0408 38.7923 51.3392 38.5242 51.3392 38.5242L51.311 38.5101Z"
                                        stroke="black" stroke-width="1.2" stroke-miterlimit="2.61313"
                                        stroke-linecap="round" stroke-linejoin="round" />
                                    <mask id="mask0_7871_19730" style="mask-type:alpha" maskUnits="userSpaceOnUse"
                                        x="39" y="31" width="9" height="10">
                                        <path
                                            d="M43.4284 39.6224C45.4081 39.6224 47.013 38.0175 47.013 36.0377C47.013 34.058 45.4081 32.4531 43.4284 32.4531C41.4486 32.4531 39.8438 34.058 39.8438 36.0377C39.8438 38.0175 41.4486 39.6224 43.4284 39.6224Z"
                                            stroke="black" stroke-width="1.2" stroke-miterlimit="2.61313"
                                            stroke-linecap="round" stroke-linejoin="round" />
                                    </mask>
                                    <g mask="url(#mask0_7871_19730)">
                                        <path fill-rule="evenodd" clip-rule="evenodd"
                                            d="M51.311 38.5096C53.5408 38.185 48.0792 34.9108 47.8251 34.7274C46.6115 33.8665 45.0167 33.3302 43.3091 33.2455C39.4422 33.048 37.8051 34.6427 35.0391 36.8161C35.0391 36.8161 36.0693 36.6749 37.1842 37.9027C38.2991 39.1305 42.5893 40.5983 46.3151 39.695C50.0408 38.7918 51.3392 38.5237 51.3392 38.5237L51.311 38.5096Z"
                                            fill="black" stroke="black" stroke-width="1.2" stroke-miterlimit="2.61313"
                                            stroke-linecap="round" stroke-linejoin="round" />
                                    </g>
                                    <path d="M50.7895 37.0962C50.7895 37.0962 50.098 37.8159 50.3802 38.6486"
                                        stroke="black" stroke-width="1.2" stroke-miterlimit="2.61313"
                                        stroke-linecap="round" stroke-linejoin="round" />
                                    <path
                                        d="M51.6288 36.0813C51.6288 36.0813 49.1026 31.6782 43.1753 31.6217C37.2479 31.5653 34.3125 35.1781 34.3125 35.1781"
                                        stroke="black" stroke-width="1.2" stroke-miterlimit="2.61313"
                                        stroke-linecap="round" stroke-linejoin="round" />
                                    <path fill-rule="evenodd" clip-rule="evenodd"
                                        d="M52.3683 29.8C52.3683 29.8 53.4268 28.431 50.3784 26.8363C50.3784 26.8363 39.2859 23.548 36.7033 23.8726C34.1206 24.1972 30.0703 27.429 30.0703 27.429C30.0703 27.429 34.5864 25.6932 39.7516 27.0621C44.9168 28.431 51.8462 30.3503 52.3683 29.8V29.8Z"
                                        stroke="black" stroke-width="1.2" stroke-miterlimit="2.61313"
                                        stroke-linecap="round" stroke-linejoin="round" />
                                    <path
                                        d="M61.2235 61.6974C61.2235 61.6974 59.7698 61.7397 59.1912 61.0764C58.5985 60.4131 57.1167 59.8204 55.9453 59.9051"
                                        stroke="black" stroke-width="1.2" stroke-miterlimit="2.61313"
                                        stroke-linecap="round" stroke-linejoin="round" />
                                    <path d="M54.2528 56.6143C54.2528 56.6143 52.2912 60.721 56.3697 61.3984"
                                        stroke="black" stroke-width="1.2" stroke-miterlimit="2.61313"
                                        stroke-linecap="round" stroke-linejoin="round" />
                                    <path d="M55.0312 34.5127C55.0312 34.5127 58.5594 37.6457 57.8538 46.2685"
                                        stroke="black" stroke-width="1.2" stroke-miterlimit="2.61313"
                                        stroke-linecap="round" stroke-linejoin="round" />
                                    <path fill-rule="evenodd" clip-rule="evenodd"
                                        d="M61.4391 69.5681C61.4391 69.5681 58.5601 68.1569 56.5278 69.3282C54.4956 70.4996 48.6953 73.4068 48.6953 73.4068C48.6953 73.4068 51.2779 81.324 61.4391 81.324C71.6002 81.324 74.1828 73.4068 74.1828 73.4068C74.1828 73.4068 68.3825 70.5137 66.3503 69.3282C64.318 68.1569 61.4391 69.5681 61.4391 69.5681V69.5681Z"
                                        stroke="black" stroke-width="1.2" stroke-miterlimit="2.61313"
                                        stroke-linecap="round" stroke-linejoin="round" />
                                    <path
                                        d="M61.4388 74.3823C61.4388 74.3823 60.719 74.34 59.8158 73.9731C58.9126 73.6061 54.4107 73.4227 52.2232 73.9307C50.0357 74.4388 49.3583 73.2251 47.0156 73.2251"
                                        stroke="black" stroke-width="1.2" stroke-miterlimit="2.61313"
                                        stroke-linecap="round" stroke-linejoin="round" />
                                    <path
                                        d="M20.6172 34.7383C20.6172 34.7383 25.3026 54.4396 27.8005 64.6995C30.3126 74.9594 30.9335 76.6811 36.4093 81.8464C41.8991 87.0116 52.413 96.7352 61.4169 96.7352"
                                        stroke="black" stroke-width="1.2" stroke-miterlimit="2.61313"
                                        stroke-linecap="round" stroke-linejoin="round" />
                                    <path
                                        d="M17.2364 32.0288C17.2364 32.0288 14.2163 32.0711 15.2324 36.4602C16.2485 40.8492 19.9319 47.1858 20.3976 51.8853C20.8633 56.5849 22.7121 57.9679 26.0991 57.6715"
                                        stroke="black" stroke-width="1.2" stroke-miterlimit="2.61313"
                                        stroke-linecap="round" stroke-linejoin="round" />
                                    <path
                                        d="M18.0078 38.5631C18.0078 38.5631 18.5018 36.4462 19.5038 37.1518C20.5058 37.8575 22.5944 43.4178 22.5944 43.4178C22.5944 43.4178 21.2537 46.2404 22.0017 47.1012C22.7497 47.9621 24.1892 49.7121 24.1892 49.7121"
                                        stroke="black" stroke-width="1.2" stroke-miterlimit="2.61313"
                                        stroke-linecap="round" stroke-linejoin="round" />
                                    <path
                                        d="M79.4445 38.0126C80.5357 38.0126 81.4203 37.128 81.4203 36.0368C81.4203 34.9456 80.5357 34.061 79.4445 34.061C78.3533 34.061 77.4688 34.9456 77.4688 36.0368C77.4688 37.128 78.3533 38.0126 79.4445 38.0126Z"
                                        fill="black" />
                                    <path
                                        d="M78.0746 35.8274C78.4955 35.8274 78.8367 35.4862 78.8367 35.0653C78.8367 34.6444 78.4955 34.3032 78.0746 34.3032C77.6537 34.3032 77.3125 34.6444 77.3125 35.0653C77.3125 35.4862 77.6537 35.8274 78.0746 35.8274Z"
                                        fill="white" />
                                    <path fill-rule="evenodd" clip-rule="evenodd"
                                        d="M71.5494 38.5101C69.3196 38.1855 74.7812 34.9113 75.0352 34.7279C76.2489 33.867 77.8436 33.3307 79.5513 33.246C83.4181 33.0485 85.0552 34.6432 87.8213 36.8165C87.8213 36.8165 86.7911 36.6754 85.6762 37.9032C84.5613 39.131 80.271 40.5987 76.5453 39.6955C72.8195 38.7923 71.5211 38.5242 71.5211 38.5242L71.5494 38.5101Z"
                                        stroke="black" stroke-width="1.2" stroke-miterlimit="2.61313"
                                        stroke-linecap="round" stroke-linejoin="round" />
                                    <mask id="mask1_7871_19730" style="mask-type:alpha" maskUnits="userSpaceOnUse"
                                        x="75" y="31" width="9" height="10">
                                        <path
                                            d="M79.444 39.6219C81.4237 39.6219 83.0286 38.017 83.0286 36.0373C83.0286 34.0575 81.4237 32.4526 79.444 32.4526C77.4643 32.4526 75.8594 34.0575 75.8594 36.0373C75.8594 38.017 77.4643 39.6219 79.444 39.6219Z"
                                            stroke="black" stroke-width="1.2" stroke-miterlimit="2.61313"
                                            stroke-linecap="round" stroke-linejoin="round" />
                                    </mask>
                                    <g mask="url(#mask1_7871_19730)">
                                        <path fill-rule="evenodd" clip-rule="evenodd"
                                            d="M71.5494 38.5091C69.3196 38.1845 74.7812 34.9104 75.0352 34.7269C76.2489 33.866 77.8436 33.3297 79.5513 33.2451C83.4181 33.0475 85.0552 34.6422 87.8213 36.8156C87.8213 36.8156 86.7911 36.6744 85.6762 37.9022C84.5613 39.13 80.271 40.5978 76.5453 39.6946C72.8195 38.7913 71.5211 38.5232 71.5211 38.5232L71.5494 38.5091Z"
                                            fill="black" stroke="black" stroke-width="1.2" stroke-miterlimit="2.61313"
                                            stroke-linecap="round" stroke-linejoin="round" />
                                    </g>
                                    <path d="M72.0703 37.0962C72.0703 37.0962 72.7618 37.8159 72.4796 38.6486"
                                        stroke="black" stroke-width="1.2" stroke-miterlimit="2.61313"
                                        stroke-linecap="round" stroke-linejoin="round" />
                                    <path
                                        d="M71.2188 36.0813C71.2188 36.0813 73.7449 31.6782 79.6722 31.6217C85.5995 31.5653 88.535 35.1781 88.535 35.1781"
                                        stroke="black" stroke-width="1.2" stroke-miterlimit="2.61313"
                                        stroke-linecap="round" stroke-linejoin="round" />
                                    <path fill-rule="evenodd" clip-rule="evenodd"
                                        d="M70.4903 29.8C70.4903 29.8 69.4318 28.431 72.4802 26.8363C72.4802 26.8363 83.5727 23.548 86.1553 23.8726C88.738 24.1972 92.7883 27.429 92.7883 27.429C92.7883 27.429 88.2722 25.6932 83.107 27.0621C77.9418 28.431 71.0125 30.3503 70.4903 29.8V29.8Z"
                                        stroke="black" stroke-width="1.2" stroke-miterlimit="2.61313"
                                        stroke-linecap="round" stroke-linejoin="round" />
                                    <path
                                        d="M61.6406 61.6974C61.6406 61.6974 63.0942 61.7397 63.6728 61.0764C64.2656 60.4131 65.7474 59.8204 66.9188 59.9051"
                                        stroke="black" stroke-width="1.2" stroke-miterlimit="2.61313"
                                        stroke-linecap="round" stroke-linejoin="round" />
                                    <path d="M68.6169 56.6143C68.6169 56.6143 70.5786 60.721 66.5 61.3984"
                                        stroke="black" stroke-width="1.2" stroke-miterlimit="2.61313"
                                        stroke-linecap="round" stroke-linejoin="round" />
                                    <path d="M67.8299 34.5127C67.8299 34.5127 64.3017 37.6457 65.0074 46.2685"
                                        stroke="black" stroke-width="1.2" stroke-miterlimit="2.61313"
                                        stroke-linecap="round" stroke-linejoin="round" />
                                    <path
                                        d="M61.4297 74.3823C61.4297 74.3823 62.1494 74.34 63.0526 73.9731C63.9559 73.6061 68.4578 73.4227 70.6453 73.9307C72.8327 74.4388 73.5101 73.2251 75.8528 73.2251"
                                        stroke="black" stroke-width="1.2" stroke-miterlimit="2.61313"
                                        stroke-linecap="round" stroke-linejoin="round" />
                                    <path
                                        d="M102.237 34.7383C102.237 34.7383 97.5518 54.4396 95.0539 64.6995C92.5418 74.9594 91.9209 76.6811 86.4451 81.8464C80.9553 87.0116 70.4414 96.7352 61.4375 96.7352"
                                        stroke="black" stroke-width="1.2" stroke-miterlimit="2.61313"
                                        stroke-linecap="round" stroke-linejoin="round" />
                                    <path
                                        d="M105.628 32.0288C105.628 32.0288 108.648 32.0711 107.632 36.4602C106.616 40.8492 102.933 47.1858 102.467 51.8853C102.001 56.5849 100.153 57.9679 96.7656 57.6715"
                                        stroke="black" stroke-width="1.2" stroke-miterlimit="2.61313"
                                        stroke-linecap="round" stroke-linejoin="round" />
                                    <path
                                        d="M104.845 38.5626C104.845 38.5626 104.351 36.4457 103.349 37.1513C102.347 37.857 100.259 43.4174 100.259 43.4174C100.259 43.4174 101.599 46.2399 100.852 47.1008C100.104 47.9616 98.6641 49.7116 98.6641 49.7116"
                                        stroke="black" stroke-width="1.2" stroke-miterlimit="2.61313"
                                        stroke-linecap="round" stroke-linejoin="round" />
                                    <path fill-rule="evenodd" clip-rule="evenodd"
                                        d="M115.68 82.2631C113.947 86.029 110.189 91.6299 109.079 91.3093L92.7066 81.4637C92.7066 81.4637 91.8068 80.9934 92.2298 79.5128L92.7732 78.4091L95.0876 74.5604L97.402 70.7118L98.1222 69.7144C99.2348 68.6414 100.069 69.2209 100.069 69.2209L116.817 79.2923"
                                        stroke="black" stroke-miterlimit="2.61313" />
                                    <path
                                        d="M103.405 76.4594L102.963 76.1936L103.194 75.8087L103.192 75.8004C103.135 75.8368 103.073 75.87 103.005 75.9001C102.937 75.9302 102.867 75.952 102.796 75.9655C102.724 75.9789 102.645 75.9809 102.567 75.9694C102.489 75.9579 102.412 75.9328 102.334 75.8859C102.178 75.7921 102.092 75.6629 102.075 75.5037C102.057 75.3444 102.108 75.1769 102.218 74.9949L102.943 73.7883L103.406 74.0666L102.696 75.2472C102.634 75.3512 102.61 75.4501 102.622 75.5355C102.635 75.6208 102.689 75.6958 102.777 75.749C102.855 75.7959 102.93 75.8126 103.007 75.8023C103.084 75.792 103.154 75.7702 103.223 75.7265L104.004 74.4263L104.467 74.7047L103.413 76.4573L103.405 76.4594ZM107.621 76.5729L107.548 76.5291L107.564 76.5031L107.746 76.6126L107.73 76.6386L107.658 76.5948L107.542 76.7872L107.511 76.7685L107.626 76.576L107.621 76.5729ZM107.849 76.9718L107.946 76.8105L107.789 76.8936L107.774 76.8843L107.774 76.7073L107.68 76.8633L107.649 76.8446L107.78 76.6261L107.806 76.6418L107.806 76.8541L107.988 76.7512L108.014 76.7669L107.883 76.9853L107.852 76.9666L107.849 76.9718ZM105.68 75.4199C105.604 75.4167 105.525 75.4187 105.453 75.4321C105.376 75.4424 105.301 75.4611 105.228 75.4881C105.159 75.5099 105.097 75.5296 105.044 75.5472L105.26 75.1884L104.797 74.91L104.193 75.9138L103.743 76.6627L104.211 76.9442L105.002 75.6284C105.064 75.6087 105.114 75.5962 105.166 75.5921C105.215 75.5932 105.255 75.5964 105.287 75.6151C105.307 75.6276 105.33 75.6485 105.358 75.6724C105.383 75.7016 105.408 75.7308 105.438 75.7631C105.46 75.7974 105.482 75.8318 105.504 75.8662C105.522 75.9057 105.536 75.9422 105.539 75.9724L105.575 75.9943L105.888 75.4742C105.821 75.4335 105.768 75.4158 105.692 75.4126L105.68 75.4199ZM101.438 75.7508C101.25 75.6382 101.064 75.5474 100.889 75.4848C100.709 75.4191 100.546 75.3845 100.391 75.3834C100.236 75.3822 100.092 75.4091 99.962 75.4724C99.8318 75.5358 99.7287 75.6366 99.6411 75.7823L99.5631 75.7354C99.5756 75.7146 99.5819 75.7042 99.5819 75.7042C99.6903 75.5357 99.8268 75.3911 99.983 75.2726C100.156 75.15 100.345 75.0586 100.545 75.0088C100.748 74.9539 100.953 74.9426 101.167 74.9647C101.38 74.9868 101.584 75.0598 101.782 75.1787L101.434 75.756L101.438 75.7508ZM100.266 74.5433C100.411 74.6309 100.55 74.6716 100.694 74.6666C100.839 74.6615 100.976 74.6231 101.115 74.5442C101.251 74.4704 101.383 74.3581 101.511 74.2157C101.639 74.0732 101.758 73.911 101.874 73.7185C101.986 73.5313 102.077 73.3451 102.143 73.1651C102.208 72.9851 102.243 72.8217 102.247 72.6615C102.248 72.5064 102.222 72.3627 102.158 72.2326C102.095 72.1024 101.994 71.9993 101.848 71.9117C101.703 71.8241 101.564 71.7834 101.42 71.7884C101.275 71.7935 101.135 71.8371 100.999 71.9108C100.859 71.9898 100.731 72.0969 100.603 72.2393C100.475 72.3818 100.356 72.544 100.244 72.7313C100.131 72.9185 100.043 73.0995 99.9777 73.2795C99.9119 73.4595 99.8774 73.6229 99.8731 73.7831C99.8719 73.9382 99.8988 74.0819 99.9622 74.212C100.026 74.3422 100.126 74.4453 100.272 74.5329L100.266 74.5433ZM100.118 74.5536C99.9786 74.4556 99.8549 74.3316 99.7593 74.1962C99.6366 74.0233 99.5452 73.8338 99.4955 73.6339C99.4457 73.434 99.4292 73.2259 99.4513 73.0125C99.4734 72.7992 99.5464 72.5953 99.6653 72.3976C99.781 72.2052 99.9269 72.0451 100.108 71.9204C100.286 71.8008 100.476 71.7094 100.681 71.6628C100.881 71.6131 101.091 71.6049 101.301 71.6322C101.511 71.6595 101.71 71.7294 101.892 71.8389C102.074 71.9483 102.229 72.0911 102.352 72.264C102.474 72.4369 102.566 72.6264 102.616 72.8263C102.67 73.0293 102.679 73.2395 102.657 73.4529C102.634 73.6662 102.561 73.8701 102.443 74.0678C102.327 74.2602 102.181 74.4203 102 74.545C101.822 74.6646 101.632 74.756 101.43 74.7974C101.225 74.844 101.02 74.8553 100.81 74.828C100.613 74.8018 100.428 74.7329 100.253 74.6349C100.253 74.6349 100.165 74.5817 100.116 74.5452L100.118 74.5536ZM105.975 76.4609C106.03 76.3809 106.087 76.3091 106.152 76.2488C106.211 76.1854 106.275 76.1386 106.34 76.1002C106.406 76.0617 106.467 76.042 106.533 76.0389C106.599 76.0359 106.66 76.0516 106.717 76.086C106.811 76.1423 106.859 76.2276 106.864 76.3369C106.869 76.4462 106.777 76.646 106.671 76.8228L106.602 76.9372L105.786 76.8573C105.813 76.7532 105.859 76.6534 105.931 76.5338L105.975 76.4609ZM106.707 77.7512C106.626 77.7803 106.527 77.7916 106.424 77.7863C106.316 77.7779 106.204 77.7393 106.09 77.6705C106.002 77.6173 105.928 77.5516 105.865 77.4787C105.803 77.4058 105.769 77.3215 105.749 77.2247C105.732 77.1362 105.739 77.0415 105.761 76.9343L107.113 77.0886C107.113 77.0886 107.214 76.9087 107.184 76.5933C107.174 76.4809 107.113 76.3809 107.053 76.2809C106.988 76.1778 106.896 76.0945 106.782 76.0257C106.673 75.96 106.551 75.9151 106.419 75.8994C106.286 75.8836 106.155 75.8897 106.024 75.9312C105.896 75.9675 105.766 76.0309 105.65 76.1172C105.532 76.2086 105.427 76.323 105.34 76.4686C105.265 76.5935 105.214 76.7256 105.19 76.8598C105.165 76.9941 105.166 77.1221 105.189 77.2491C105.212 77.3761 105.263 77.4917 105.339 77.601C105.415 77.7104 105.516 77.8 105.646 77.8782C105.844 77.997 106.042 78.0451 106.229 78.0161C106.417 77.9872 106.586 77.9051 106.735 77.7752L106.721 77.7523L106.707 77.7512Z"
                                        fill="black" />
                                    <path fill-rule="evenodd" clip-rule="evenodd"
                                        d="M99.9859 78.1255L99.9891 78.1203C100.026 78.1068 100.057 78.0902 100.085 78.0788C100.108 78.0642 100.131 78.0497 100.154 78.0351C100.171 78.0174 100.192 77.9946 100.21 77.9769C100.231 77.954 100.246 77.928 100.268 77.8916L100.744 77.1011C100.759 77.0751 100.767 77.0511 100.771 77.0324C100.778 77.0085 100.782 76.9897 100.781 76.9679C100.78 76.946 100.779 76.9242 100.773 76.8992C100.767 76.8742 100.761 76.8492 100.749 76.8211L100.752 76.8159L101.007 76.9691L100.846 78.3314L101.964 77.5446L102.203 77.6885L102.2 77.6937C102.165 77.6937 102.137 77.7051 102.112 77.7113C102.087 77.7175 102.064 77.7321 102.044 77.7414C102.021 77.756 102.003 77.7736 101.986 77.7913C101.965 77.8142 101.949 77.8402 101.93 77.8714L101.468 78.6411C101.449 78.6723 101.433 78.6983 101.426 78.7223C101.413 78.7431 101.406 78.767 101.399 78.7909C101.391 78.8149 101.387 78.8336 101.385 78.8606C101.383 78.8877 101.381 78.9148 101.384 78.9449L101.381 78.9501L101.095 78.7781L101.098 78.7729C101.126 78.7615 101.149 78.747 101.172 78.7324C101.195 78.7179 101.209 78.7054 101.227 78.6877C101.245 78.67 101.262 78.6524 101.275 78.6316C101.287 78.6108 101.311 78.5827 101.327 78.5567L101.859 77.6725L100.692 78.4936L100.661 78.4748L100.827 77.0449L100.31 77.9166C100.291 77.9478 100.272 77.979 100.262 78.0082C100.251 78.0373 100.244 78.0612 100.242 78.0883C100.24 78.1153 100.238 78.1424 100.241 78.1726C100.244 78.2028 100.249 78.2413 100.26 78.2829L100.256 78.2881L99.9859 78.1255ZM102.424 78.0051C102.408 78.0311 102.385 78.0457 102.36 78.0519C102.335 78.0581 102.308 78.056 102.282 78.0404C102.256 78.0247 102.247 78.0049 102.235 77.9768C102.229 77.9518 102.231 77.9248 102.247 77.8988C102.262 77.8728 102.282 77.8634 102.31 77.852C102.335 77.8458 102.362 77.8479 102.388 77.8635C102.414 77.8792 102.424 77.8989 102.435 77.9271C102.441 77.952 102.439 77.9791 102.424 78.0051ZM101.544 79.0554C101.582 79.0284 101.617 78.9931 101.647 78.9546C101.677 78.9161 101.711 78.8724 101.748 78.81L101.945 78.4824C101.97 78.4408 101.982 78.3981 101.985 78.3575C101.985 78.3221 101.98 78.2836 101.974 78.2586L101.977 78.2534L102.241 78.2849L101.878 78.8882C101.841 78.9506 101.81 79.0026 101.793 79.0422C101.773 79.0869 101.762 79.1295 101.752 79.1805L101.749 79.1857L101.541 79.0606L101.544 79.0554ZM102.721 79.501C102.654 79.553 102.586 79.5831 102.504 79.5903C102.422 79.5975 102.342 79.5777 102.253 79.5245C102.196 79.4901 102.151 79.4484 102.116 79.3995C102.082 79.3505 102.056 79.2995 102.041 79.2412C102.027 79.1829 102.029 79.1204 102.045 79.0591C102.055 78.9945 102.088 78.929 102.125 78.8666C102.169 78.7938 102.217 78.7376 102.277 78.696C102.338 78.6545 102.397 78.6264 102.464 78.6098C102.53 78.5933 102.596 78.5902 102.66 78.6007C102.725 78.6112 102.788 78.6352 102.845 78.6696C102.903 78.704 102.952 78.7404 102.979 78.7779C103.009 78.8102 103.031 78.8446 103.048 78.8623L102.954 79.0537L102.936 79.0495C102.936 79.0141 102.931 78.9756 102.931 78.9402C102.925 78.9017 102.917 78.8684 102.906 78.8403C102.894 78.8122 102.878 78.781 102.858 78.7549C102.838 78.7289 102.815 78.708 102.789 78.6924C102.701 78.6392 102.614 78.6298 102.522 78.6661C102.429 78.7024 102.35 78.7752 102.278 78.8948C102.209 79.0093 102.182 79.1133 102.193 79.2122C102.205 79.3111 102.264 79.3892 102.363 79.4486C102.415 79.4799 102.468 79.4976 102.524 79.5102C102.58 79.5227 102.641 79.5166 102.697 79.4937L102.704 79.5052L102.721 79.501ZM102.766 79.7904C102.789 79.7759 102.804 79.7634 102.822 79.7457C102.839 79.728 102.854 79.7156 102.869 79.6896C102.882 79.6688 102.9 79.6511 102.915 79.6251C102.931 79.5991 102.947 79.5731 102.965 79.5419L103.166 79.209C103.194 79.1622 103.205 79.1195 103.205 79.0842C103.205 79.0488 103.2 79.0102 103.194 78.9853L103.197 78.9801L103.451 79.0053L103.323 79.2185L103.333 79.2248C103.366 79.2165 103.394 79.2051 103.431 79.1916C103.467 79.1781 103.501 79.1698 103.539 79.1646C103.573 79.1563 103.608 79.1564 103.643 79.1564C103.679 79.1564 103.708 79.1669 103.739 79.1856L103.633 79.3625L103.627 79.3593C103.625 79.351 103.618 79.3396 103.611 79.3281C103.604 79.3166 103.591 79.3021 103.581 79.2958C103.568 79.2812 103.558 79.275 103.545 79.2604C103.535 79.2541 103.522 79.2395 103.512 79.2333C103.496 79.2239 103.469 79.2218 103.431 79.227C103.392 79.2321 103.351 79.2425 103.311 79.2612L103.102 79.6096C103.064 79.6721 103.033 79.7241 103.016 79.7636C102.996 79.8083 102.985 79.851 102.975 79.902L102.972 79.9072L102.764 79.7821L102.767 79.7769L102.766 79.7904ZM103.72 80.4065C103.658 80.3689 103.607 80.3241 103.57 80.2669C103.534 80.2096 103.506 80.1502 103.489 80.0836C103.473 80.017 103.47 79.9514 103.48 79.8869C103.485 79.8192 103.509 79.7558 103.547 79.6934C103.585 79.6309 103.629 79.58 103.687 79.5436C103.744 79.5072 103.806 79.474 103.87 79.4626C103.937 79.446 104.002 79.443 104.07 79.4482C104.137 79.4535 104.201 79.4775 104.263 79.5151C104.326 79.5526 104.377 79.5974 104.413 79.6547C104.449 79.7119 104.477 79.7713 104.494 79.8379C104.511 79.9046 104.514 79.9701 104.503 80.0346C104.498 80.1023 104.471 80.171 104.436 80.2282C104.399 80.2906 104.354 80.3415 104.297 80.3779C104.239 80.4143 104.18 80.4423 104.119 80.462C104.052 80.4786 103.986 80.4817 103.919 80.4764C103.851 80.4711 103.788 80.4471 103.725 80.4096L103.72 80.4065ZM103.739 80.3753C103.791 80.4065 103.839 80.4212 103.888 80.4222C103.937 80.4233 103.987 80.4109 104.034 80.3901C104.082 80.3694 104.126 80.3319 104.17 80.2945C104.212 80.2488 104.248 80.1999 104.279 80.1479C104.314 80.0907 104.34 80.0355 104.352 79.9793C104.373 79.9211 104.377 79.867 104.373 79.8149C104.369 79.7629 104.357 79.7129 104.336 79.665C104.312 79.6223 104.277 79.5869 104.225 79.5556C104.173 79.5243 104.125 79.5097 104.076 79.5086C104.027 79.5075 103.977 79.52 103.926 79.5459C103.878 79.5667 103.834 79.6041 103.791 79.6416C103.749 79.6873 103.707 79.7331 103.676 79.7851C103.642 79.8423 103.615 79.8974 103.598 79.9505C103.577 80.0087 103.573 80.0629 103.577 80.1149C103.581 80.1669 103.593 80.2169 103.617 80.2596C103.641 80.3023 103.676 80.3377 103.728 80.369L103.739 80.3753ZM104.604 80.9028C104.632 80.8913 104.655 80.8768 104.678 80.8623C104.701 80.8477 104.716 80.8352 104.733 80.8176C104.751 80.7999 104.769 80.7822 104.781 80.7614C104.794 80.7406 104.815 80.7177 104.833 80.6865L105.293 79.922C105.312 79.8908 105.328 79.8648 105.335 79.8409C105.347 79.82 105.355 79.7961 105.362 79.7722C105.369 79.7483 105.374 79.7295 105.376 79.7025C105.378 79.6754 105.38 79.6483 105.377 79.6182L105.38 79.613L105.666 79.785L105.663 79.7902C105.635 79.8016 105.612 79.8161 105.589 79.8307C105.566 79.8452 105.551 79.8577 105.534 79.8754C105.516 79.8931 105.498 79.9107 105.486 79.9315C105.473 79.9524 105.452 79.9752 105.434 80.0064L104.974 80.771C104.955 80.8022 104.939 80.8282 104.932 80.8521C104.92 80.8729 104.912 80.8968 104.905 80.9208C104.898 80.9447 104.894 80.9634 104.891 80.9905C104.889 81.0175 104.887 81.0446 104.89 81.0748L104.887 81.08L104.601 80.908L104.604 80.9028ZM105.256 81.302L105.048 81.1769L105.052 81.1717C105.074 81.1572 105.089 81.1447 105.107 81.127C105.124 81.1094 105.139 81.0969 105.155 81.0709C105.167 81.0501 105.185 81.0324 105.201 81.0064C105.216 80.9804 105.232 80.9544 105.251 80.9232L105.451 80.5903C105.479 80.5435 105.49 80.5009 105.49 80.4655C105.49 80.4301 105.485 80.3916 105.479 80.3666L105.482 80.3614L105.736 80.3866L105.636 80.5531L105.641 80.5562C105.714 80.5292 105.783 80.5209 105.85 80.5262C105.918 80.5315 105.98 80.5472 106.042 80.5847C106.125 80.6347 106.175 80.6931 106.189 80.7649C106.202 80.8367 106.185 80.9116 106.138 80.9896L105.935 81.3277C105.916 81.3589 105.898 81.3901 105.885 81.4109C105.869 81.4369 105.857 81.4577 105.85 81.4817C105.837 81.5025 105.83 81.5264 105.822 81.5503C105.815 81.5742 105.811 81.593 105.809 81.62L105.806 81.6252L105.598 81.5001L105.601 81.4949C105.638 81.4679 105.674 81.4326 105.704 81.3941C105.734 81.3556 105.762 81.3088 105.8 81.2464L105.984 80.9395C106 80.9135 106.01 80.8844 106.021 80.8553C106.031 80.8261 106.033 80.7991 106.027 80.7741C106.024 80.7439 106.015 80.7241 105.995 80.6981C105.975 80.672 105.952 80.6512 105.921 80.6324C105.88 80.6074 105.832 80.5928 105.781 80.5834C105.73 80.574 105.672 80.5749 105.619 80.5926L105.375 80.9983C105.338 81.0607 105.307 81.1127 105.29 81.1522C105.27 81.1969 105.259 81.2396 105.249 81.2906L105.246 81.2958L105.256 81.302ZM106.003 81.7441C106.035 81.7275 106.061 81.7077 106.088 81.6744C106.115 81.6412 106.151 81.5923 106.192 81.5247L106.53 80.963L106.42 80.8973L106.439 80.8661L106.548 80.9318L106.639 80.7809C106.677 80.7185 106.713 80.6697 106.757 80.6322C106.801 80.5948 106.846 80.5657 106.891 80.5501C106.936 80.5346 106.983 80.5273 107.032 80.5284C107.078 80.5347 107.125 80.5493 107.167 80.5744C107.193 80.59 107.216 80.6108 107.234 80.6285C107.251 80.6463 107.264 80.6608 107.271 80.6723L107.195 80.846L107.181 80.845C107.183 80.8179 107.177 80.7929 107.174 80.7627C107.171 80.7326 107.17 80.7107 107.164 80.6857C107.158 80.6607 107.148 80.6409 107.144 80.6243C107.135 80.6045 107.122 80.5899 107.107 80.5805C107.07 80.5586 107.027 80.5607 106.972 80.5919C106.918 80.623 106.867 80.6844 106.811 80.778L106.673 81.0068L106.881 81.1319L106.863 81.1631L106.655 81.038L106.317 81.5997C106.276 81.6673 106.25 81.7225 106.233 81.762C106.217 81.8015 106.211 81.8338 106.211 81.8692L106.208 81.8744L105.995 81.7462L105.998 81.741L106.003 81.7441ZM107.132 82.2104C107.101 82.2271 107.068 82.2354 107.039 82.2468C107.006 82.2551 106.973 82.2634 106.939 82.2717C106.909 82.2748 106.874 82.2747 106.836 82.2664C106.799 82.258 106.765 82.2444 106.728 82.2225C106.65 82.1756 106.609 82.1152 106.6 82.0465C106.592 81.9778 106.612 81.8977 106.662 81.8145L106.928 81.3724C106.95 81.336 106.963 81.3017 106.96 81.2715C106.96 81.2361 106.954 81.2111 106.943 81.183L106.946 81.1778L107.149 81.2998L106.808 81.8667C106.73 81.9967 106.746 82.0987 106.861 82.1675C106.913 82.1988 106.96 82.2134 107.009 82.2145C107.058 82.2156 107.1 82.2052 107.139 82.1865L107.44 81.6872C107.48 81.6196 107.482 81.5572 107.452 81.4895L107.455 81.4843L107.664 81.6094L107.304 82.2075C107.282 82.2439 107.263 82.2751 107.256 82.299C107.249 82.323 107.236 82.3438 107.237 82.3656C107.233 82.3844 107.237 82.401 107.241 82.4177C107.245 82.4343 107.253 82.4458 107.262 82.4656L107.259 82.4708L107.027 82.4091L107.136 82.2271L107.132 82.2104ZM108.259 82.2084L108.246 82.2074C108.25 82.1179 108.237 82.0461 108.211 81.995C108.185 81.944 108.149 81.9086 108.108 81.8836C108.056 81.8523 108.005 81.8429 107.958 81.8501C107.911 81.8574 107.873 81.8844 107.848 81.926C107.833 81.952 107.822 81.9811 107.829 82.0061C107.826 82.0332 107.838 82.0613 107.852 82.0842C107.864 82.1123 107.884 82.1383 107.9 82.1696C107.92 82.1956 107.945 82.2248 107.967 82.2592C107.992 82.2883 108.014 82.3227 108.035 82.3571C108.057 82.3914 108.074 82.4227 108.082 82.456C108.096 82.4924 108.096 82.5278 108.092 82.5684C108.089 82.609 108.073 82.6485 108.048 82.6901C107.997 82.7733 107.932 82.8118 107.847 82.8242C107.764 82.8314 107.674 82.8053 107.575 82.7459C107.523 82.7146 107.479 82.6812 107.444 82.6458C107.409 82.6104 107.378 82.5781 107.357 82.5437L107.463 82.3315L107.476 82.3326C107.466 82.4325 107.473 82.5147 107.496 82.5709C107.516 82.6323 107.558 82.6792 107.621 82.7168C107.683 82.7543 107.745 82.77 107.798 82.7523C107.851 82.7347 107.888 82.7077 107.913 82.6661C107.929 82.64 107.936 82.6161 107.938 82.5891C107.94 82.562 107.934 82.537 107.928 82.512C107.917 82.4839 107.905 82.4558 107.885 82.4298C107.866 82.4037 107.846 82.3777 107.824 82.3433C107.799 82.3141 107.783 82.2829 107.758 82.2537C107.736 82.2194 107.719 82.1881 107.706 82.1517C107.692 82.1153 107.687 82.0767 107.687 82.0413C107.69 82.0008 107.699 81.9633 107.724 81.9217C107.749 81.8801 107.781 81.8499 107.815 81.8281C107.85 81.8063 107.888 81.8011 107.927 81.796C107.965 81.7908 108.008 81.8023 108.042 81.8159C108.082 81.8325 108.121 81.8492 108.158 81.8711C108.194 81.893 108.233 81.9232 108.266 81.9503C108.299 81.9774 108.324 82.0066 108.344 82.0326L108.256 82.2136L108.259 82.2084ZM108.922 81.9198C108.906 81.9458 108.883 81.9603 108.858 81.9665C108.833 81.9728 108.806 81.9707 108.78 81.955C108.754 81.9394 108.745 81.9196 108.733 81.8915C108.727 81.8665 108.729 81.8394 108.745 81.8134C108.76 81.7874 108.78 81.7781 108.808 81.7667C108.833 81.7604 108.86 81.7625 108.886 81.7782C108.912 81.7938 108.922 81.8136 108.933 81.8417C108.939 81.8667 108.937 81.8938 108.922 81.9198ZM108.042 82.9701C108.08 82.9431 108.115 82.9077 108.145 82.8692C108.175 82.8308 108.209 82.7871 108.246 82.7247L108.443 82.397C108.468 82.3554 108.48 82.3127 108.483 82.2722C108.483 82.2368 108.478 82.1983 108.472 82.1733L108.475 82.1681L108.739 82.1996L108.376 82.8029C108.339 82.8653 108.307 82.9173 108.291 82.9568C108.271 83.0015 108.259 83.0442 108.25 83.0952L108.247 83.1004L108.039 82.9753L108.042 82.9701ZM108.803 83.4704C108.741 83.4329 108.69 83.3881 108.654 83.3308C108.617 83.2735 108.589 83.2142 108.573 83.1476C108.556 83.0809 108.553 83.0154 108.563 82.9508C108.569 82.8832 108.593 82.8197 108.63 82.7573C108.668 82.6949 108.713 82.644 108.77 82.6076C108.827 82.5712 108.89 82.538 108.953 82.5266C109.02 82.51 109.085 82.5069 109.153 82.5122C109.221 82.5175 109.284 82.5415 109.347 82.579C109.409 82.6165 109.46 82.6613 109.496 82.7186C109.533 82.7759 109.561 82.8353 109.577 82.9019C109.594 82.9685 109.597 83.0341 109.586 83.0986C109.581 83.1663 109.554 83.2349 109.52 83.2921C109.482 83.3545 109.437 83.4055 109.38 83.4419C109.323 83.4782 109.263 83.5063 109.202 83.526C109.135 83.5426 109.07 83.5456 109.002 83.5404C108.934 83.5351 108.871 83.5111 108.809 83.4736L108.803 83.4704ZM108.822 83.4392C108.874 83.4705 108.922 83.4851 108.971 83.4862C109.02 83.4873 109.07 83.4749 109.118 83.4541C109.166 83.4333 109.209 83.3959 109.253 83.3585C109.295 83.3127 109.331 83.2638 109.363 83.2118C109.397 83.1546 109.423 83.0995 109.436 83.0433C109.456 82.985 109.461 82.9309 109.457 82.8789C109.452 82.8268 109.44 82.7769 109.419 82.729C109.395 82.6863 109.36 82.6508 109.308 82.6196C109.256 82.5883 109.208 82.5737 109.159 82.5726C109.11 82.5715 109.06 82.5839 109.009 82.6099C108.961 82.6307 108.918 82.6681 108.874 82.7055C108.832 82.7513 108.791 82.797 108.759 82.849C108.725 82.9062 108.699 82.9614 108.681 83.0144C108.66 83.0727 108.656 83.1268 108.66 83.1789C108.664 83.2309 108.677 83.2809 108.701 83.3236C108.724 83.3663 108.76 83.4017 108.812 83.433L108.822 83.4392ZM109.615 83.9229L109.407 83.7978L109.41 83.7926C109.433 83.7781 109.447 83.7656 109.465 83.7479C109.483 83.7303 109.497 83.7178 109.513 83.6918C109.526 83.671 109.543 83.6533 109.559 83.6273C109.574 83.6013 109.59 83.5753 109.609 83.5441L109.809 83.2112C109.837 83.1644 109.849 83.1218 109.849 83.0864C109.849 83.051 109.844 83.0125 109.837 82.9875L109.841 82.9823L110.094 83.0075L109.994 83.174L110 83.1771C110.072 83.1501 110.141 83.1418 110.209 83.1471C110.276 83.1524 110.338 83.168 110.4 83.2056C110.483 83.2556 110.533 83.314 110.547 83.3858C110.56 83.4576 110.544 83.5325 110.497 83.6105L110.293 83.9486C110.275 83.9798 110.256 84.011 110.243 84.0318C110.228 84.0578 110.215 84.0786 110.208 84.1026C110.195 84.1234 110.188 84.1473 110.181 84.1712C110.173 84.1951 110.169 84.2139 110.167 84.2409L110.164 84.2461L109.956 84.121L109.959 84.1158C109.997 84.0888 110.032 84.0535 110.062 84.015C110.092 83.9765 110.121 83.9297 110.158 83.8673L110.343 83.5604C110.358 83.5344 110.369 83.5053 110.379 83.4762C110.39 83.447 110.392 83.42 110.385 83.395C110.382 83.3648 110.373 83.345 110.353 83.319C110.334 83.2929 110.311 83.2721 110.279 83.2533C110.238 83.2283 110.19 83.2137 110.139 83.2043C110.088 83.1949 110.031 83.1958 109.978 83.2135L109.734 83.6192C109.696 83.6816 109.665 83.7336 109.648 83.7731C109.628 83.8178 109.617 83.8605 109.607 83.9115L109.604 83.9167L109.615 83.9229Z"
                                        fill="black" />
                                    <path d="M106.695 78.5254L113.306 82.5005" stroke="black" stroke-width="0.5" />
                                    <path d="M107.757 81.042L110.669 75.4412" stroke="black" stroke-width="0.5" />
                                    <path fill-rule="evenodd" clip-rule="evenodd"
                                        d="M87.5544 78.332L91.4082 80.6496L95.0737 74.5542L98.7392 68.4588L94.8854 66.1413C94.2666 66.6756 91.0014 72.1053 91.0014 72.1053C91.0014 72.1053 87.7363 77.535 87.5544 78.332Z"
                                        fill="white" stroke="black" stroke-miterlimit="2.61313" />
                                    <path fill-rule="evenodd" clip-rule="evenodd"
                                        d="M88.0289 77.3042C87.1344 76.7662 85.7946 76.0384 84.6162 75.1599C83.0749 74.0134 81.8086 72.6217 82.1463 71.0827L84.0354 67.9414L85.9244 64.8001C88.0526 62.9923 92.1182 65.8408 94.1777 67.0793C93.0135 68.7799 91.0118 72.1084 91.0118 72.1084L90.9993 72.1292C90.8367 72.3996 88.9372 75.5701 88.0289 77.3042Z"
                                        stroke="black" stroke-miterlimit="2.61313" />
                                    <path d="M86.0855 76.146C87.4323 73.0115 90.0939 68.5856 92.2281 65.9316"
                                        stroke="black" stroke-miterlimit="2.61313" />
                                    <path d="M80.9297 70.9282L86.765 74.4374" stroke="black" stroke-miterlimit="2.61313"
                                        stroke-linecap="round" stroke-linejoin="round" />
                                    <path d="M81.7891 69.5034L87.6244 73.0125" stroke="black"
                                        stroke-miterlimit="2.61313" stroke-linecap="round" stroke-linejoin="round" />
                                    <path d="M82.6484 68.0732L88.4838 71.5824" stroke="black"
                                        stroke-miterlimit="2.61313" stroke-linecap="round" stroke-linejoin="round" />
                                    <path d="M83.5078 66.6431L89.3432 70.1522" stroke="black"
                                        stroke-miterlimit="2.61313" stroke-linecap="round" stroke-linejoin="round" />
                                    <path d="M84.3672 65.2129L90.2025 68.722" stroke="black" stroke-miterlimit="2.61313"
                                        stroke-linecap="round" stroke-linejoin="round" />
                                    <path d="M85.2266 63.7876L91.0619 67.2967" stroke="black"
                                        stroke-miterlimit="2.61313" stroke-linecap="round" stroke-linejoin="round" />
                                </svg>