 <svg xmlns="http://www.w3.org/2000/svg" width="80" height="79"
                                            viewBox="0 0 80 79" fill="none">
                                            <circle cx="39.9996" cy="39.5172" r="37.9779" stroke="#EDE7DD"
                                                stroke-width="2.1099" />
                                            <path
                                                d="M39.999 31.4247C39.999 29.963 41.5611 29.2322 42.0818 29.0495C42.5102 28.8668 43.3835 29.0495 44.1646 29.0495C44.9456 29.0495 46.5077 29.7803 46.5077 31.0593C46.5077 32.3383 45.206 33.6173 43.6439 33.6173C42.0818 33.6173 39.999 32.8865 39.999 31.4247Z"
                                                stroke="black" stroke-width="0.929811" />
                                            <path
                                                d="M20.7878 33.8162C18.3667 29.997 21.7966 25.2231 23.8142 23.3135C24.6968 22.8043 28.1267 22.0913 34.7847 23.3135C38.5676 25.9869 35.9196 26.1779 34.7847 31.3337C33.6498 36.4896 33.6498 35.3439 31.0017 37.4444C28.3537 39.5449 23.8142 38.5901 20.7878 33.8162Z"
                                                stroke="black" stroke-width="1.05495" />
                                            <path
                                                d="M21.8591 33.3071C19.8411 30.0881 22.7 26.0644 24.3817 24.455C25.1174 24.0258 27.9762 23.4249 33.5258 24.455C36.6789 26.7082 34.4717 26.8692 33.5258 31.2147C32.5798 35.5603 32.5798 34.5946 30.3726 36.365C28.1654 38.1355 24.3817 37.3307 21.8591 33.3071Z"
                                                stroke="black" stroke-width="1.05495" />
                                            <ellipse cx="29.4894" cy="30.3791" rx="1.13488" ry="1.14575" fill="black" />
                                            <ellipse cx="28.7316" cy="33.4348" rx="1.13488" ry="1.14575" fill="black" />
                                            <ellipse cx="24.9493" cy="33.053" rx="1.13488" ry="1.14575" fill="black" />
                                            <ellipse cx="24.5704" cy="29.9968" rx="1.13488" ry="1.14575" fill="black" />
                                            <ellipse cx="27.2189" cy="27.3235" rx="1.13488" ry="1.14575" fill="black" />
                                            <ellipse cx="31.757" cy="27.3235" rx="1.13488" ry="1.14575" fill="black" />
                                            <path
                                                d="M46.1987 46.4059C43.5086 41.6881 47.3196 35.7909 49.5613 33.432C50.5421 32.8029 51.403 33.4211 58.8008 34.9308C63.0041 38.2333 63.0118 36.9703 61.7508 43.3393C60.4898 49.7084 60.4898 48.293 57.5475 50.8878C54.6052 53.4826 49.5613 52.3032 46.1987 46.4059Z"
                                                stroke="black" stroke-width="1.05495" />
                                            <path
                                                d="M46.9935 46.0239C44.7069 41.7554 47.9462 36.4198 49.8517 34.2855C50.6854 33.7164 51.114 34.0314 57.4021 35.3973C60.9749 38.3852 61.2846 37.4869 60.2128 43.2494C59.1409 49.0118 59.1409 47.7313 56.64 50.0789C54.139 52.4266 49.8517 51.3595 46.9935 46.0239Z"
                                                stroke="black" stroke-width="1.05495" />
                                            <ellipse cx="52.9396" cy="44.0066" rx="1.13488" ry="1.14575" fill="black" />
                                            <ellipse cx="51.0734" cy="37.4763" rx="1.13488" ry="1.14575" fill="black" />
                                            <ellipse cx="55.7374" cy="45.8723" rx="1.13488" ry="1.14575" fill="black" />
                                            <ellipse cx="50.2677" cy="46.7439" rx="1.13488" ry="1.14575" fill="black" />
                                            <ellipse cx="49.8898" cy="43.6887" rx="1.13488" ry="1.14575" fill="black" />
                                            <ellipse cx="52.5372" cy="41.0154" rx="1.13488" ry="1.14575" fill="black" />
                                            <ellipse cx="57.0763" cy="41.0154" rx="1.13488" ry="1.14575" fill="black" />
                                            <path
                                                d="M29.4897 50.0674C29.0678 46.6916 32.1271 45.8477 33.7095 45.8477L36.3465 50.0674C36.5223 51.6499 36.7685 55.1312 36.3465 56.3971C35.819 57.9796 33.7095 59.562 29.4897 50.0674Z"
                                                stroke="black" stroke-width="1.05495" />
                                            <path
                                                d="M18.9062 45.2538C18.8438 44.041 19.2965 43.7378 19.5307 43.7378L19.9209 45.2538C19.9469 45.8223 19.9833 47.073 19.9209 47.5278C19.8428 48.0963 19.5307 48.6648 18.9062 45.2538Z"
                                                stroke="black" stroke-width="1.05495" />
                                            <path
                                                d="M26.29 43.0611C26.2276 42.7579 26.6803 42.6821 26.9144 42.6821L27.3046 43.0611C27.3307 43.2033 27.3671 43.5159 27.3046 43.6296C27.2266 43.7718 26.9144 43.9139 26.29 43.0611Z"
                                                stroke="black" stroke-width="1.05495" />
                                        </svg>