<svg xmlns="http://www.w3.org/2000/svg" width="126" height="22" viewBox="0 0 126 22"
                                        fill="none">
                                        <path fill-rule="evenodd" clip-rule="evenodd"
                                            d="M89.6915 1.09777L92.0396 7.92491L99.3759 8.00833C100.007 8.01554 100.269 8.80557 99.7622 9.17532L93.8763 13.4776L96.0626 20.356C96.2505 20.948 95.5669 21.4356 95.0515 21.0771L89.0668 16.9088L83.0812 21.0763C82.5667 21.4348 81.8823 20.9464 82.0701 20.3552L84.2564 13.4768L78.3705 9.17452C77.8641 8.80477 78.1255 8.01474 78.7568 8.00752L86.0932 7.92411L88.4412 1.09697C88.6437 0.509861 89.4898 0.509861 89.6915 1.09777Z"
                                            fill="#008763" />
                                        <path
                                            d="M115.346 1.20912L115.346 1.20889C115.25 0.929648 114.84 0.928818 114.743 1.20863L112.395 8.03546L112.317 8.26372L112.076 8.26646L104.739 8.34988C104.423 8.3535 104.322 8.73091 104.551 8.89802L104.551 8.89811L110.437 13.2004L110.636 13.3457L110.561 13.5805L108.375 20.4589C108.375 20.4589 108.375 20.4589 108.375 20.459C108.293 20.7177 108.6 20.9793 108.864 20.7954L108.864 20.7953L114.85 16.6278L115.045 16.4916L115.241 16.6278L121.226 20.796L115.346 1.20912ZM115.346 1.20912L117.694 8.03626L117.773 8.26452M115.346 1.20912L117.773 8.26452M117.773 8.26452L118.014 8.26726M117.773 8.26452L118.014 8.26726M118.014 8.26726L125.351 8.35068C125.667 8.3543 125.768 8.73171 125.539 8.89882L125.539 8.89891M118.014 8.26726L125.539 8.89891M125.539 8.89891L119.653 13.2012L119.454 13.3465M125.539 8.89891L119.454 13.3465M119.454 13.3465L119.529 13.5813M119.454 13.3465L119.529 13.5813M119.529 13.5813L121.715 20.4596L119.529 13.5813ZM121.715 20.4598C121.797 20.719 121.491 20.9804 121.226 20.7962L121.715 20.4598Z"
                                            stroke="#C4C4C4" stroke-width="0.684752" />
                                        <path fill-rule="evenodd" clip-rule="evenodd"
                                            d="M63.6564 1.09777L66.0044 7.92491L73.3408 8.00833C73.9721 8.01554 74.2334 8.80557 73.7271 9.17532L67.8412 13.4776L70.0275 20.356C70.2153 20.948 69.5317 21.4356 69.0164 21.0771L63.0316 16.9088L57.046 21.0763C56.5315 21.4348 55.8471 20.9464 56.035 20.3552L58.2213 13.4768L52.3353 9.17452C51.829 8.80477 52.0903 8.01474 52.7216 8.00752L60.058 7.92411L62.406 1.09697C62.6086 0.509861 63.4547 0.509861 63.6564 1.09777Z"
                                            fill="#008763" />
                                        <path fill-rule="evenodd" clip-rule="evenodd"
                                            d="M37.6222 1.09777L39.9702 7.92491L47.3066 8.00833C47.9379 8.01554 48.1993 8.80557 47.6929 9.17532L41.807 13.4776L43.9933 20.356C44.1811 20.948 43.4975 21.4356 42.9822 21.0771L36.9974 16.9088L31.0119 21.0763C30.4973 21.4348 29.8129 20.9464 30.0008 20.3552L32.1871 13.4768L26.3011 9.17452C25.7948 8.80477 26.0561 8.01474 26.6874 8.00752L34.0238 7.92411L36.3718 1.09697C36.5744 0.509861 37.4205 0.509861 37.6222 1.09777Z"
                                            fill="#008763" />
                                        <path fill-rule="evenodd" clip-rule="evenodd"
                                            d="M11.588 1.09777L13.936 7.92491L21.2724 8.00833C21.9037 8.01554 22.1651 8.80557 21.6587 9.17532L15.7728 13.4776L17.9591 20.356C18.1469 20.948 17.4634 21.4356 16.948 21.0771L10.9633 16.9088L4.97768 21.0763C4.46316 21.4348 3.77877 20.9464 3.96661 20.3552L6.15291 13.4768L0.266969 9.17452C-0.239383 8.80477 0.0219599 8.01474 0.653267 8.00752L7.98966 7.92411L10.3377 1.09697C10.5402 0.509861 11.3863 0.509861 11.588 1.09777Z"
                                            fill="#008763" />
                                        <path fill-rule="evenodd" clip-rule="evenodd"
                                            d="M115 0.719238C114.739 0.721785 114.48 0.869139 114.379 1.1612L112.022 8.01573L104.656 8.09948C104.022 8.10673 103.76 8.89993 104.268 9.27116L110.178 13.5907L107.983 20.4967C107.794 21.0902 108.481 21.5806 108.998 21.2207L115 17.0415V0.719238Z"
                                            fill="#008763" />
                                    </svg>