<svg width="46" height="45" viewBox="0 0 46 45" fill="none" xmlns="http://www.w3.org/2000/svg">
<g clip-path="url(#clip0_37999_6256)">
<path fill-rule="evenodd" clip-rule="evenodd" d="M14.0425 19.7461H0.804688C0.416387 19.7461 0.101562 19.4313 0.101562 19.043C0.101562 18.6547 0.416387 18.3399 0.804688 18.3399H14.0427C15.4645 18.3399 16.8308 17.6956 17.7911 16.5724C18.996 15.1631 20.7494 14.355 22.6017 14.355C24.4539 14.355 26.2073 15.1632 27.4122 16.5724C28.3725 17.6956 29.7388 18.3399 31.1606 18.3399H44.3984C44.7867 18.3399 45.1016 18.6547 45.1016 19.043C45.1016 19.4313 44.7867 19.7461 44.3984 19.7461H31.1606C29.327 19.7461 27.5712 18.9225 26.3432 17.4863C25.406 16.39 24.0421 15.7613 22.6016 15.7613C21.161 15.7613 19.7972 16.39 18.8599 17.4863C17.6319 18.9224 15.876 19.7461 14.0425 19.7461ZM0.101562 37.3242C0.101562 36.9359 0.416387 36.6211 0.804688 36.6211H44.3984C44.7867 36.6211 45.1016 36.9359 45.1016 37.3242C45.1016 37.7125 44.7867 38.0273 44.3984 38.0273H0.804688C0.416387 38.0273 0.101562 37.7125 0.101562 37.3242Z" fill="black"/>
<path d="M0.804688 34.0137H2.40069C2.78899 34.0137 3.10382 33.6988 3.10382 33.3105C3.10382 32.9222 2.78899 32.6074 2.40069 32.6074H0.804688C0.416387 32.6074 0.101562 32.9222 0.101562 33.3105C0.101562 33.6988 0.416387 34.0137 0.804688 34.0137Z" fill="black"/>
<path d="M6.80469 32.6074C6.41639 32.6074 6.10156 32.9222 6.10156 33.3105C6.10156 33.6988 6.41639 34.0137 6.80469 34.0137H8.40069C8.78899 34.0137 9.10382 33.6988 9.10382 33.3105C9.10382 32.9222 8.78899 32.6074 8.40069 32.6074H6.80469Z" fill="black"/>
<path d="M12.8047 32.6074C12.4164 32.6074 12.1016 32.9222 12.1016 33.3105C12.1016 33.6988 12.4164 34.0137 12.8047 34.0137H14.4007C14.789 34.0137 15.1038 33.6988 15.1038 33.3105C15.1038 32.9222 14.789 32.6074 14.4007 32.6074H12.8047Z" fill="black"/>
<path d="M18.8047 32.6074C18.4164 32.6074 18.1016 32.9222 18.1016 33.3105C18.1016 33.6988 18.4164 34.0137 18.8047 34.0137H20.4007C20.789 34.0137 21.1038 33.6988 21.1038 33.3105C21.1038 32.9222 20.789 32.6074 20.4007 32.6074H18.8047Z" fill="black"/>
<path d="M24.8047 32.6074C24.4164 32.6074 24.1016 32.9222 24.1016 33.3105C24.1016 33.6988 24.4164 34.0137 24.8047 34.0137H26.4007C26.789 34.0137 27.1038 33.6988 27.1038 33.3105C27.1038 32.9222 26.789 32.6074 26.4007 32.6074H24.8047Z" fill="black"/>
<path d="M30.8047 32.6074C30.4164 32.6074 30.1016 32.9222 30.1016 33.3105C30.1016 33.6988 30.4164 34.0137 30.8047 34.0137H32.4007C32.789 34.0137 33.1038 33.6988 33.1038 33.3105C33.1038 32.9222 32.789 32.6074 32.4007 32.6074H30.8047Z" fill="black"/>
<path d="M36.8047 32.6074C36.4164 32.6074 36.1016 32.9222 36.1016 33.3105C36.1016 33.6988 36.4164 34.0137 36.8047 34.0137H38.4007C38.789 34.0137 39.1038 33.6988 39.1038 33.3105C39.1038 32.9222 38.789 32.6074 38.4007 32.6074H36.8047Z" fill="black"/>
<path d="M44.4007 32.6074H42.8047C42.4164 32.6074 42.1016 32.9222 42.1016 33.3105C42.1016 33.6988 42.4164 34.0137 42.8047 34.0137H44.4007C44.789 34.0137 45.1038 33.6988 45.1038 33.3105C45.1038 32.9222 44.789 32.6074 44.4007 32.6074Z" fill="black"/>
<path d="M26.362 23.1017C26.362 22.4356 26.1907 21.7771 25.8665 21.1972C25.865 21.1943 25.8634 21.1916 25.8617 21.1887L24.0848 18.1099C23.7441 17.5197 23.1338 17.1675 22.4524 17.1675C21.771 17.1675 21.1607 17.5197 20.82 18.11L19.0432 21.1887C19.0416 21.1915 19.04 21.1943 19.0384 21.1972C18.7143 21.7771 18.543 22.4356 18.543 23.1017C18.543 25.2573 20.2967 27.0111 22.4525 27.0112C24.6082 27.0112 26.362 25.2573 26.362 23.1017ZM19.9492 23.1017C19.9492 22.6768 20.0579 22.257 20.2637 21.8872L22.0379 18.8131C22.1626 18.5971 22.3693 18.5738 22.4524 18.5738C22.5356 18.5738 22.7423 18.5971 22.8669 18.8131L24.6413 21.8872C24.847 22.2571 24.9557 22.6768 24.9557 23.1017C24.9557 24.4819 23.8328 25.6049 22.4525 25.605C21.0722 25.605 19.9492 24.4819 19.9492 23.1017Z" fill="black"/>
<path d="M22.6016 11.2749C22.9899 11.2749 23.3047 10.9601 23.3047 10.5718V7.79297C23.3047 7.40467 22.9899 7.08984 22.6016 7.08984C22.2133 7.08984 21.8984 7.40467 21.8984 7.79297V10.5718C21.8984 10.9601 22.2133 11.2749 22.6016 11.2749Z" fill="black"/>
<path d="M26.8435 12.5518C27.0332 12.5518 27.2223 12.4755 27.3609 12.3249L29.4178 10.0916C29.6809 9.80591 29.6626 9.36109 29.377 9.09804C29.0914 8.83498 28.6465 8.85326 28.3835 9.1389L26.3266 11.3723C26.0635 11.6579 26.0818 12.1028 26.3674 12.3658C26.5025 12.4903 26.6733 12.5517 26.8435 12.5517V12.5518Z" fill="black"/>
<path d="M17.8444 12.3249C17.9831 12.4754 18.1721 12.5517 18.3618 12.5517C18.5321 12.5517 18.7028 12.4902 18.8379 12.3658C19.1236 12.1028 19.1418 11.658 18.8788 11.3723L16.8219 9.13894C16.5587 8.8532 16.1139 8.83501 15.8284 9.09807C15.5427 9.36112 15.5244 9.80594 15.7875 10.0916L17.8444 12.3249Z" fill="black"/>
<path d="M44.0978 29.9999C44.4861 29.9999 44.8009 29.6851 44.8009 29.2968C44.8009 28.9085 44.4861 28.5936 44.0978 28.5936C42.1313 28.5936 40.2873 27.5407 39.2848 25.8442C38.0286 23.7299 35.7264 22.4165 33.2765 22.4165C30.8265 22.4165 28.5242 23.7299 27.2673 25.8456C26.2655 27.5407 24.4216 28.5937 22.4551 28.5937C20.4887 28.5937 18.6447 27.5408 17.6421 25.8443C16.3861 23.73 14.0838 22.4166 11.6339 22.4166C9.18391 22.4166 6.88161 23.73 5.62469 25.8457C4.62291 27.5408 2.77896 28.5938 0.8125 28.5938C0.424199 28.5938 0.109375 28.9086 0.109375 29.2969C0.109375 29.6852 0.424199 30.0001 0.8125 30.0001C3.27388 30.0001 5.58171 28.6824 6.8345 26.5627C7.85368 24.8471 9.64779 23.8229 11.6338 23.8229C13.6197 23.8229 15.4139 24.8471 16.4322 26.5613C17.6859 28.6824 19.9937 30.0001 22.455 30.0001C24.9163 30.0001 27.2242 28.6824 28.4771 26.5627C29.4963 24.8471 31.2904 23.8229 33.2764 23.8229C35.2624 23.8229 37.0565 24.8471 38.0749 26.5613C39.3285 28.6824 41.6363 30.0001 44.0977 30.0001L44.0978 29.9999Z" fill="black"/>
</g>
<defs>
<clipPath id="clip0_37999_6256">
<rect width="45" height="45" fill="white" transform="translate(0.101562)"/>
</clipPath>
</defs>
</svg>
