<svg width="61" height="61" viewBox="0 0 61 61" fill="none" xmlns="http://www.w3.org/2000/svg">
<rect x="0.5" y="0.15332" width="60" height="60" rx="30" fill="#C7E7DC"/>
<path d="M36.0044 31.5625L38.4031 45.062C38.43 45.221 38.4077 45.3843 38.3392 45.5303C38.2707 45.6762 38.1593 45.7978 38.0198 45.8787C37.8804 45.9596 37.7196 45.996 37.5589 45.983C37.3982 45.9701 37.2453 45.9084 37.1206 45.8062L31.4523 41.5517C31.1786 41.3473 30.8462 41.2369 30.5047 41.2369C30.1631 41.2369 29.8307 41.3473 29.557 41.5517L23.8792 45.8046C23.7546 45.9066 23.6019 45.9682 23.4414 45.9812C23.2809 45.9942 23.1203 45.9579 22.9809 45.8772C22.8416 45.7965 22.7301 45.6753 22.6615 45.5296C22.5928 45.384 22.5702 45.2208 22.5967 45.062L24.9939 31.5625" stroke="white" stroke-width="2" stroke-linecap="round" stroke-linejoin="round"/>
<path d="M30.5 33.3199C35.7467 33.3199 40 29.0667 40 23.8199C40 18.5732 35.7467 14.3199 30.5 14.3199C25.2533 14.3199 21 18.5732 21 23.8199C21 29.0667 25.2533 33.3199 30.5 33.3199Z" stroke="white" stroke-width="2" stroke-linecap="round" stroke-linejoin="round"/>
</svg>
