<svg width="117" height="30" viewBox="0 0 117 30" fill="none" xmlns="http://www.w3.org/2000/svg">
<g clip-path="url(#clip0_39045_1484)">
<path fill-rule="evenodd" clip-rule="evenodd" d="M21.3307 27.2309C21.1092 28.1178 21.0787 28.207 20.8541 28.207H18.3288V28.3806H24.0484V28.207H21.4303C21.261 28.207 21.2894 28.0868 21.4952 27.2763L23.2546 20.4452H30.2189L32.3452 28.207H29.516V28.3806H39.0332V28.207H36.0745L28.1819 0.834961H28.134L21.3307 27.2309ZM26.6216 7.36215L30.1649 20.2724H23.3044L26.6216 7.36215ZM103.303 14.7237H105.48C107.409 14.7237 110.254 15.5543 110.254 18.9293V25.0411C110.254 27.542 111.634 29.1169 114.069 29.1169C116.627 29.1169 116.588 26.5331 116.588 24.6691V22.7047H116.415V24.6691C116.415 26.7893 116.163 28.6304 114.915 28.6304C113.809 28.6304 113.571 27.9445 113.571 25.0678V18.9293C113.571 16.089 111.269 15.048 107.713 14.636C112.142 14.1093 113.809 11.2814 113.809 8.15437C113.809 3.52903 111.673 1.58479 106.173 1.58479L97.4531 1.58293V1.75674H99.7426C99.9079 1.75674 99.9861 1.80311 99.9861 1.89691V28.0658C99.9861 28.1601 99.9079 28.207 99.7426 28.207H97.4531V28.3806H105.471V28.207H103.546C103.38 28.207 103.303 28.1601 103.303 28.0658V14.7237ZM103.303 1.75833H105.653C109.273 1.75833 110.297 4.51176 110.297 8.15437C110.297 11.5649 109.273 14.5501 105.653 14.5501H103.303V1.75833ZM44.9513 28.0703C44.9229 28.1326 44.955 28.207 45.0888 28.207L51.3362 28.2086C53.2595 28.2086 55.7421 25.3641 55.7421 16.1979V15.2435H55.916V28.3817H40.9995L52.3001 1.89214C52.3277 1.83067 52.2953 1.75674 52.1618 1.75674L45.5289 1.75833C43.7879 1.75833 41.2596 4.93675 41.2596 13.7696V14.7237H41.0861V1.58479H56.2631L44.9513 28.0703ZM8.02064 1.75833C11.6415 1.75833 13.1157 4.51176 13.1157 8.15437C13.1157 11.5649 11.6415 14.2897 8.02064 14.2897H6.37314V1.75833H8.02064ZM0.523438 1.58293V1.75674H2.81319C2.97879 1.75674 3.05615 1.80311 3.05615 1.89691V28.0658C3.05615 28.1601 2.97879 28.207 2.81319 28.207H0.523438V28.3806L9.06165 28.3817C14.5611 28.3817 17.4952 26.0908 17.4952 21.4668C17.4952 18.2646 15.7611 15.0053 10.2871 14.3562C14.937 13.9214 16.5414 11.0008 16.5414 8.15437C16.5414 3.99165 14.041 1.58479 8.54127 1.58479L0.523438 1.58293ZM8.02064 14.4632C12.1036 14.4632 13.723 17.2458 13.723 21.4668C13.723 25.1084 12.2774 28.2086 8.88784 28.2086L6.6161 28.207C6.45051 28.207 6.37314 28.1601 6.37314 28.0658V14.4611L8.02064 14.4632ZM60.7045 27.2309C60.4819 28.1178 60.4515 28.207 60.2273 28.207H57.702V28.3806H63.4222V28.207H60.8033C60.6351 28.207 60.6626 28.0868 60.8696 27.2763L62.6281 20.4452H69.5925L71.7193 28.207H68.889V28.3806H78.407V28.207H75.4472L67.5552 0.834961H67.5067L60.7045 27.2309ZM65.9954 7.36215L69.5376 20.2724H62.6771L65.9954 7.36215Z" fill="black"/>
<path fill-rule="evenodd" clip-rule="evenodd" d="M79.7036 27.2309C79.4813 28.1178 79.4519 28.207 79.2275 28.207H76.7017V28.3806H82.4215V28.207H79.803C79.6347 28.207 79.6625 28.0868 79.8687 27.2763L81.628 20.4452H88.5921L90.7186 28.207H87.8886V28.3806H97.4064V28.207H94.4476L86.5556 0.834961H86.5072L79.7036 27.2309ZM84.9953 7.36215L88.538 20.2724H81.6767L84.9953 7.36215ZM73.5834 4.35649C73.5834 4.36709 73.5932 4.37107 73.6117 4.37107H73.9983V4.4328H72.6786V4.37107H73.0233C73.0426 4.37107 73.0511 4.36709 73.0511 4.35649V3.02032H71.7907V4.35649C71.7907 4.36709 71.7994 4.37107 71.8183 4.37107H72.163V4.4328H70.8438V4.37107H71.2303C71.2491 4.37107 71.2579 4.36709 71.2579 4.35649V1.73449C71.2579 1.72495 71.2491 1.72044 71.2303 1.72044H70.8438V1.65844H72.163V1.72044H71.8183C71.7994 1.72044 71.7907 1.72495 71.7907 1.73449V2.95911H73.0511V1.73449C73.0511 1.72495 73.0426 1.72044 73.0233 1.72044H72.6786V1.65844H73.9983V1.72044H73.6117C73.5932 1.72044 73.5834 1.72495 73.5834 1.73449V4.35649ZM77.2477 3.21771C77.1264 3.21771 77.045 3.16154 77.045 3.06695C77.045 2.98137 77.0964 2.98429 77.0964 2.92149C77.0964 2.8579 77.0556 2.82876 76.9902 2.82876C76.9226 2.82876 76.8021 2.85128 76.7107 3.12895V4.35649C76.7107 4.36709 76.7192 4.37107 76.7382 4.37107H76.9751V4.4328H76.0462V4.37107H76.2822C76.3013 4.37107 76.3098 4.36709 76.3098 4.35649V2.84121C76.3098 2.83194 76.3013 2.82664 76.2822 2.82664H76.0462V2.7649H76.699L76.7107 2.77682V3.03569C76.7804 2.82001 76.9309 2.73099 77.1078 2.73099C77.3233 2.73099 77.4632 2.84412 77.4632 3.01926C77.4632 3.12975 77.3778 3.21771 77.2477 3.21771ZM80.7319 4.46645C81.0342 4.46645 81.2775 4.31993 81.4399 4.09551L81.393 4.05789C81.2412 4.27277 81.0377 4.40577 80.7319 4.40577C80.6201 4.40577 80.53 4.38458 80.4529 4.31622C80.3257 4.20202 80.286 4.06822 80.286 3.59925C80.286 3.56454 80.2863 3.555 80.287 3.52321H81.4754L81.487 3.51234C81.487 3.19572 81.2687 2.73099 80.7319 2.73099C80.2364 2.73099 79.8642 3.12021 79.8642 3.59925C79.8642 4.07749 80.2364 4.46645 80.7319 4.46645ZM80.9524 2.88254C81.0435 2.98534 81.0732 3.14432 81.0803 3.46147H80.2881C80.2979 3.14432 80.3379 2.98534 80.4529 2.88254C80.53 2.81392 80.6201 2.79272 80.7319 2.79272C80.8286 2.79272 80.8912 2.81392 80.9524 2.88254ZM74.8197 4.39014C75.0322 4.39014 75.17 4.23885 75.17 4.09419V3.51685C75.0711 3.57381 74.9278 3.57381 74.8011 3.5966C74.6589 3.62256 74.5062 3.69702 74.5062 4.0563C74.5062 4.33053 74.6859 4.39014 74.8197 4.39014ZM74.3208 3.07013C74.3208 2.93156 74.4954 2.73099 74.8327 2.73099C75.3268 2.73099 75.5714 2.94878 75.5714 3.43789V4.23355C75.5714 4.32708 75.6161 4.36577 75.6813 4.36577C75.7576 4.36577 75.8188 4.30271 75.8353 4.26455L75.8758 4.30483C75.8509 4.37424 75.7242 4.46645 75.5631 4.46645C75.3803 4.46645 75.2195 4.36073 75.1911 4.21395C75.1329 4.38113 74.9728 4.46645 74.7426 4.46645C74.3608 4.46645 74.1154 4.33344 74.1154 4.0563C74.1154 3.64721 74.5523 3.55209 74.7203 3.53857C74.9572 3.5187 75.17 3.50307 75.17 3.41934V3.19122C75.17 2.91195 75.0481 2.79272 74.8327 2.79272C74.7248 2.79272 74.6578 2.842 74.6578 2.95752C74.6578 3.02323 74.692 3.04337 74.692 3.10749C74.692 3.17929 74.635 3.24765 74.4999 3.24765C74.3714 3.24765 74.3208 3.15863 74.3208 3.07013ZM78.9705 2.88069C78.8987 2.81392 78.8014 2.79272 78.6976 2.79272C78.554 2.79272 78.422 2.88758 78.3306 2.99462V4.16069C78.3857 4.29953 78.5455 4.40577 78.6976 4.40577C78.8014 4.40577 78.8987 4.38511 78.9705 4.31754C79.0889 4.20547 79.1687 4.0102 79.1687 3.60932C79.1687 3.20817 79.0889 2.9925 78.9705 2.88069ZM79.5764 3.60932C79.5764 4.04252 79.2084 4.46645 78.6976 4.46645C78.5413 4.46645 78.422 4.36895 78.3306 4.27462V5.56681C78.3306 5.57582 78.3402 5.58033 78.3587 5.58033H78.5948V5.64206H77.6666V5.58033H77.9024C77.9213 5.58033 77.93 5.57582 77.93 5.56681V2.84121C77.93 2.83194 77.9213 2.82664 77.9024 2.82664H77.6666V2.7649H78.3192L78.3306 2.77682V2.92546C78.422 2.83035 78.5413 2.73099 78.6976 2.73099C79.2084 2.73099 79.5764 3.17558 79.5764 3.60932ZM84.6435 2.77762C84.6874 2.77762 84.7118 2.7596 84.7166 2.74265H84.7836V3.15598H84.7166C84.7166 2.91566 84.5012 2.79272 84.2972 2.79272C84.086 2.79272 83.984 2.88758 83.984 3.03728C83.984 3.2299 84.1223 3.32793 84.4363 3.4159C84.7651 3.50837 84.9815 3.66893 84.9815 3.91958C84.9815 4.23673 84.7253 4.46645 84.3154 4.46645C84.072 4.46645 83.9665 4.35305 83.8404 4.35305C83.8122 4.35209 83.7845 4.35971 83.7608 4.3749C83.7371 4.39009 83.7185 4.41213 83.7076 4.4381H83.6398L83.6631 3.88831H83.731C83.7196 4.17659 83.9893 4.40577 84.3154 4.40577C84.5619 4.40577 84.7015 4.2929 84.7015 4.08279C84.7015 3.87321 84.5364 3.78975 84.2352 3.69781C83.9405 3.60879 83.7355 3.48903 83.7355 3.2299C83.7355 2.92282 84.033 2.73099 84.2972 2.73099C84.4694 2.73099 84.4855 2.77762 84.6435 2.77762ZM83.4191 2.19816C83.4191 2.08635 83.514 1.9952 83.6311 1.9952C83.758 1.9952 83.852 2.08741 83.852 2.22254C83.852 2.42205 83.6719 2.65627 83.4247 2.80491L83.3852 2.7604C83.5638 2.65706 83.6923 2.52962 83.7683 2.34866C83.7355 2.38495 83.6899 2.40165 83.6311 2.40165C83.514 2.40165 83.4191 2.31103 83.4191 2.19816ZM82.8831 3.21771C82.7623 3.21771 82.6804 3.16154 82.6804 3.06695C82.6804 2.98137 82.7321 2.98429 82.7321 2.92149C82.7321 2.8579 82.6907 2.82876 82.625 2.82876C82.5577 2.82876 82.4369 2.85128 82.346 3.12895V4.35649C82.346 4.36709 82.3537 4.37107 82.3728 4.37107H82.6094V4.4328H81.6805V4.37107H81.9176C81.9361 4.37107 81.9451 4.36709 81.9451 4.35649V2.84121C81.9451 2.83194 81.9361 2.82664 81.9176 2.82664H81.6805V2.7649H82.3338L82.346 2.77682V3.03569C82.4162 2.82001 82.5659 2.73099 82.7443 2.73099C82.9575 2.73099 83.0993 2.84412 83.0993 3.01926C83.0993 3.12975 83.0124 3.21771 82.8831 3.21771Z" fill="black"/>
</g>
<defs>
<clipPath id="clip0_39045_1484">
<rect width="116.051" height="28.3503" fill="white" transform="translate(0.523438 0.766113)"/>
</clipPath>
</defs>
</svg>
