<svg width="35" height="36" viewBox="0 0 35 36" fill="none" xmlns="http://www.w3.org/2000/svg">
<g opacity="0.8">
<path d="M24.7483 19.7578C24.7483 24.5345 20.8881 28.2836 16.1252 28.2836C11.3485 28.2836 7.48828 24.4234 7.48828 19.6606C7.48828 15.5365 13.7369 7.41329 16.1252 3.69189L22.3183 13.4397" stroke="black" stroke-width="1.5" stroke-miterlimit="2.61313" stroke-linecap="round" stroke-linejoin="round"/>
<path d="M26.8035 19.7026H21.0686L26.5674 11.5933L32.0801 19.7026H29.3585M29.3168 19.6609C29.3168 26.9371 23.4153 32.8524 16.1253 32.8524M16.1253 32.8524C8.83527 32.8524 2.91992 26.9371 2.91992 19.6609" stroke="black" stroke-width="1.5" stroke-miterlimit="2.61313" stroke-linecap="round" stroke-linejoin="round"/>
<path d="M3.33594 17.2857L3.58588 16.647" stroke="black" stroke-width="1.5" stroke-miterlimit="2.61313" stroke-linecap="round" stroke-linejoin="round"/>
<path d="M4.32227 14.814L4.57221 14.1753" stroke="black" stroke-width="1.5" stroke-miterlimit="2.61313" stroke-linecap="round" stroke-linejoin="round"/>
<path d="M14.0563 21.8407C14.334 22.0628 14.9172 22.4516 15.7642 22.535V23.1598C15.7642 23.3403 15.8614 23.4375 16.0697 23.4375H16.153C16.3613 23.4375 16.4585 23.3264 16.4585 23.1182V22.535C17.6249 22.3961 18.3192 21.5768 18.3192 20.5909C18.3192 18.3831 14.9172 18.6747 14.9172 17.2861C14.9172 16.7446 15.4309 16.2725 16.1669 16.2725C16.7362 16.2725 17.1806 16.5085 17.4166 16.6752C17.611 16.7862 17.7638 16.7724 17.8748 16.578L17.9998 16.3419C18.097 16.1614 18.0831 16.0086 17.9165 15.8976C17.6527 15.717 17.1667 15.4393 16.4585 15.3977V14.7589C16.4585 14.5784 16.3613 14.4812 16.153 14.4812H16.0697C15.8614 14.4812 15.7642 14.5923 15.7642 14.8006V15.3977C14.6672 15.5643 13.9452 16.3558 13.9452 17.3139C13.9452 19.4107 17.3472 19.1885 17.3472 20.6326C17.3472 21.2852 16.7779 21.6463 16.1391 21.6463C15.4448 21.6463 14.9033 21.313 14.6256 21.1047C14.4451 20.9936 14.2923 20.9936 14.1673 21.1603L14.0146 21.3963C13.8757 21.5491 13.8896 21.7157 14.0563 21.8407Z" fill="black" stroke="black" stroke-width="0.5"/>
</g>
</svg>
