<svg width="60" height="61" viewBox="0 0 60 61" fill="none" xmlns="http://www.w3.org/2000/svg">
<rect y="0.15332" width="60" height="60" rx="30" fill="#C7E7DC"/>
<path d="M17.0949 24.8016C16.8638 23.7606 16.8993 22.6781 17.1981 21.6545C17.4969 20.6308 18.0493 19.6992 18.8041 18.946C19.5589 18.1928 20.4917 17.6423 21.5159 17.3457C22.5402 17.049 23.6227 17.0158 24.6633 17.2491C25.236 16.3534 26.0249 15.6163 26.9574 15.1057C27.8899 14.5951 28.936 14.3275 29.9991 14.3275C31.0622 14.3275 32.1082 14.5951 33.0407 15.1057C33.9732 15.6163 34.7622 16.3534 35.3349 17.2491C36.377 17.0148 37.4614 17.0479 38.4873 17.3452C39.5132 17.6426 40.4472 18.1946 41.2025 18.9498C41.9578 19.7051 42.5098 20.6391 42.8071 21.665C43.1045 22.6909 43.1375 23.7753 42.9033 24.8174C43.7989 25.3901 44.536 26.1791 45.0466 27.1116C45.5572 28.0441 45.8248 29.0901 45.8248 30.1533C45.8248 31.2164 45.5572 32.2624 45.0466 33.1949C44.536 34.1274 43.7989 34.9164 42.9033 35.4891C43.1365 36.5296 43.1033 37.6122 42.8067 38.6364C42.51 39.6607 41.9596 40.5935 41.2064 41.3483C40.4531 42.1031 39.5215 42.6555 38.4979 42.9543C37.4743 43.2531 36.3918 43.2885 35.3508 43.0574C34.7788 43.9566 33.9892 44.6968 33.0551 45.2097C32.121 45.7226 31.0726 45.9914 30.007 45.9914C28.9414 45.9914 27.893 45.7226 26.9589 45.2097C26.0248 44.6968 25.2352 43.9566 24.6633 43.0574C23.6227 43.2907 22.5402 43.2575 21.5159 42.9609C20.4917 42.6642 19.5589 42.1138 18.8041 41.3605C18.0493 40.6073 17.4969 39.6757 17.1981 38.6521C16.8993 37.6284 16.8638 36.5459 17.0949 35.5049C16.1923 34.9337 15.4489 34.1435 14.9337 33.2079C14.4186 32.2722 14.1484 31.2214 14.1484 30.1533C14.1484 29.0851 14.4186 28.0344 14.9337 27.0987C15.4489 26.163 16.1923 25.3728 17.0949 24.8016Z" stroke="white" stroke-width="2" stroke-linecap="round" stroke-linejoin="round"/>
<path d="M25.25 30.1534L28.4167 33.32L34.75 26.9867" stroke="white" stroke-width="2" stroke-linecap="round" stroke-linejoin="round"/>
</svg>
