<svg width="101" height="172" viewBox="0 0 101 172" fill="none" xmlns="http://www.w3.org/2000/svg">
<path d="M67.4141 71.257V68.7427" stroke="black" stroke-width="0.3" stroke-linecap="round" stroke-linejoin="round"/>
<path d="M36.4141 75.3999H63.2998" stroke="black" stroke-width="0.3" stroke-linecap="round" stroke-linejoin="round"/>
<path d="M70.957 119.343L71.0141 115.6" stroke="black" stroke-width="0.3" stroke-linecap="round" stroke-linejoin="round"/>
<path d="M28.6719 115.6L28.729 119.343" stroke="black" stroke-width="0.3" stroke-linecap="round" stroke-linejoin="round"/>
<path d="M72.7285 1.94287H26.957" stroke="black" stroke-width="0.3" stroke-linecap="round" stroke-linejoin="round"/>
<path d="M63.4414 70.1998V69.7998" stroke="black" stroke-width="0.3" stroke-linecap="round" stroke-linejoin="round"/>
<ellipse cx="62.5848" cy="71.057" rx="0.428571" ry="0.428571" fill="black"/>
<ellipse cx="63.4442" cy="70.2001" rx="0.428571" ry="0.428571" fill="black"/>
<ellipse cx="62.5848" cy="68.9427" rx="0.428571" ry="0.428571" fill="black"/>
<ellipse cx="63.4442" cy="69.8002" rx="0.428571" ry="0.428571" fill="black"/>
<path d="M36.2695 70.1998V69.7998" stroke="black" stroke-width="0.3" stroke-linecap="round" stroke-linejoin="round"/>
<path d="M28.7852 166.371V125.628" stroke="black" stroke-width="0.3" stroke-linecap="round" stroke-linejoin="round"/>
<path d="M30.043 170.571H69.643" stroke="black" stroke-width="0.3" stroke-linecap="round" stroke-linejoin="round"/>
<path d="M70.9297 125.628V122.686" stroke="black" stroke-width="0.3" stroke-linecap="round" stroke-linejoin="round"/>
<path d="M70.9297 169.314V166.372" stroke="black" stroke-width="0.3" stroke-linecap="round" stroke-linejoin="round"/>
<path d="M28.7852 122.686V125.628" stroke="black" stroke-width="0.3" stroke-linecap="round" stroke-linejoin="round"/>
<path d="M30.0423 125.628H28.7852" stroke="black" stroke-width="0.3" stroke-linecap="round" stroke-linejoin="round"/>
<path d="M69.643 125.628H30.043" stroke="black" stroke-width="0.3" stroke-linecap="round" stroke-linejoin="round"/>
<path d="M30.043 121.4H69.643" stroke="black" stroke-width="0.3" stroke-linecap="round" stroke-linejoin="round"/>
<path d="M70.9297 125.628V166.371" stroke="black" stroke-width="0.3" stroke-linecap="round" stroke-linejoin="round"/>
<path d="M70.9302 125.628H69.6445" stroke="black" stroke-width="0.3" stroke-linecap="round" stroke-linejoin="round"/>
<path d="M28.7852 166.372V169.314" stroke="black" stroke-width="0.3" stroke-linecap="round" stroke-linejoin="round"/>
<path d="M37.1016 68.9429H62.5873" stroke="black" stroke-width="0.3" stroke-linecap="round" stroke-linejoin="round"/>
<path d="M63.4414 69.7998V70.1998" stroke="black" stroke-width="0.3" stroke-linecap="round" stroke-linejoin="round"/>
<path d="M62.5873 71.0571H37.1016" stroke="black" stroke-width="0.3" stroke-linecap="round" stroke-linejoin="round"/>
<path d="M32.2695 68.7427V71.257" stroke="black" stroke-width="0.3" stroke-linecap="round" stroke-linejoin="round"/>
<ellipse cx="32.2723" cy="68.743" rx="0.428571" ry="0.428571" fill="black"/>
<ellipse cx="32.2723" cy="68.743" rx="0.428571" ry="0.428571" fill="black"/>
<ellipse cx="32.2723" cy="68.743" rx="0.428571" ry="0.428571" fill="black"/>
<ellipse cx="32.2723" cy="68.743" rx="0.428571" ry="0.428571" fill="black"/>
<ellipse cx="32.2723" cy="71.2572" rx="0.428571" ry="0.428571" fill="black"/>
<path d="M32.2695 68.7427V71.257" stroke="black" stroke-width="0.3" stroke-linecap="round" stroke-linejoin="round"/>
<path d="M63.2998 64.6001H36.4141" stroke="black" stroke-width="0.3" stroke-linecap="round" stroke-linejoin="round"/>
<path d="M85.757 2.57129H13.957" stroke="black" stroke-width="0.3" stroke-linecap="round" stroke-linejoin="round"/>
<path d="M30.6441 70H3.47266" stroke="black" stroke-width="0.3" stroke-linecap="round" stroke-linejoin="round"/>
<path d="M36.4141 63.0571H63.2998" stroke="black" stroke-width="0.3" stroke-linecap="round" stroke-linejoin="round"/>
<path d="M69.043 70H96.2144" stroke="black" stroke-width="0.3" stroke-linecap="round" stroke-linejoin="round"/>
<path d="M3.47266 70H30.6441" stroke="black" stroke-width="0.3" stroke-linecap="round" stroke-linejoin="round"/>
<path d="M69.043 70H96.2144" stroke="black" stroke-width="0.3" stroke-linecap="round" stroke-linejoin="round"/>
<path d="M63.2998 76.9429H36.4141" stroke="black" stroke-width="0.3" stroke-linecap="round" stroke-linejoin="round"/>
<path d="M28.7852 119.714V122.686" stroke="black" stroke-width="0.3" stroke-linecap="round" stroke-linejoin="round"/>
<path d="M30.043 121.257V121.4" stroke="black" stroke-width="0.3" stroke-linecap="round" stroke-linejoin="round"/>
<path d="M70.9297 122.686V119.686" stroke="black" stroke-width="0.3" stroke-linecap="round" stroke-linejoin="round"/>
<path d="M69.6445 121.4V121.257" stroke="black" stroke-width="0.3" stroke-linecap="round" stroke-linejoin="round"/>
<path d="M63.3008 75.4002C65.5865 75.4002 67.4436 73.543 67.4436 71.2573" stroke="black" stroke-width="0.3" stroke-linecap="round" stroke-linejoin="round"/>
<path d="M32.2695 71.2573C32.2695 73.543 34.1267 75.4002 36.4124 75.4002" stroke="black" stroke-width="0.3" stroke-linecap="round" stroke-linejoin="round"/>
<path d="M68.8438 121.4C69.9866 121.4 70.9295 120.486 70.9581 119.343" stroke="black" stroke-width="0.3" stroke-linecap="round" stroke-linejoin="round"/>
<path d="M28.7305 119.343C28.7305 120.486 29.7019 121.4 30.8448 121.4" stroke="black" stroke-width="0.3" stroke-linecap="round" stroke-linejoin="round"/>
<path d="M73.8162 2.57145C73.5876 2.17145 73.159 1.94287 72.7305 1.94287" stroke="black" stroke-width="0.3" stroke-linecap="round" stroke-linejoin="round"/>
<path d="M26.9568 1.94287C26.4997 1.94287 26.0997 2.17145 25.8711 2.57145" stroke="black" stroke-width="0.3" stroke-linecap="round" stroke-linejoin="round"/>
<path d="M62.5859 71.0571C63.0431 71.0571 63.4145 70.6857 63.4145 70.2285" stroke="black" stroke-width="0.3" stroke-linecap="round" stroke-linejoin="round"/>
<path d="M63.4418 69.7998C63.4418 69.3426 63.0704 68.9712 62.6133 68.9712" stroke="black" stroke-width="0.3" stroke-linecap="round" stroke-linejoin="round"/>
<path d="M37.0981 68.9429C36.641 68.9429 36.2695 69.3143 36.2695 69.7714" stroke="black" stroke-width="0.3" stroke-linecap="round" stroke-linejoin="round"/>
<path d="M36.2695 70.2002C36.2695 70.6573 36.641 71.0288 37.0981 71.0288" stroke="black" stroke-width="0.3" stroke-linecap="round" stroke-linejoin="round"/>
<path d="M62.5859 71.0571C63.0431 71.0571 63.4145 70.6857 63.4145 70.2285" stroke="black" stroke-width="0.3" stroke-linecap="round" stroke-linejoin="round"/>
<path d="M70.929 122.686C70.929 122 70.3576 121.429 69.6719 121.429" stroke="black" stroke-width="0.3" stroke-linecap="round" stroke-linejoin="round"/>
<path d="M69.6445 170.572C70.3302 170.572 70.9017 170 70.9017 169.314" stroke="black" stroke-width="0.3" stroke-linecap="round" stroke-linejoin="round"/>
<path d="M30.0423 121.4C29.3566 121.4 28.7852 121.971 28.7852 122.657" stroke="black" stroke-width="0.3" stroke-linecap="round" stroke-linejoin="round"/>
<path d="M28.7852 169.314C28.7852 170 29.3566 170.572 30.0423 170.572" stroke="black" stroke-width="0.3" stroke-linecap="round" stroke-linejoin="round"/>
<path d="M63.4418 69.7998C63.4418 69.3426 63.0704 68.9712 62.6133 68.9712" stroke="black" stroke-width="0.3" stroke-linecap="round" stroke-linejoin="round"/>
<path d="M36.4124 64.6001C34.1267 64.6001 32.2695 66.4572 32.2695 68.7429" stroke="black" stroke-width="0.3" stroke-linecap="round" stroke-linejoin="round"/>
<path d="M32.2695 71.2573C32.2695 73.543 34.1267 75.4002 36.4124 75.4002" stroke="black" stroke-width="0.3" stroke-linecap="round" stroke-linejoin="round"/>
<path d="M36.4124 64.6001C34.1267 64.6001 32.2695 66.4572 32.2695 68.7429" stroke="black" stroke-width="0.3" stroke-linecap="round" stroke-linejoin="round"/>
<path d="M67.4124 68.7429C67.4124 66.4572 65.5552 64.6001 63.2695 64.6001" stroke="black" stroke-width="0.3" stroke-linecap="round" stroke-linejoin="round"/>
<path d="M13.9578 2.57129C11.7007 2.57129 9.81496 4.37128 9.75781 6.62843" stroke="black" stroke-width="0.3" stroke-linecap="round" stroke-linejoin="round"/>
<path d="M89.9578 6.62843C89.8721 4.37128 88.015 2.57129 85.7578 2.57129" stroke="black" stroke-width="0.3" stroke-linecap="round" stroke-linejoin="round"/>
<path d="M98.3014 69.1427C97.93 47.9713 83.8729 29.4856 63.5586 23.5142" stroke="black" stroke-width="0.3" stroke-linecap="round" stroke-linejoin="round"/>
<path d="M36.3296 23.457C15.9296 29.3713 1.75815 47.9142 1.38672 69.1427" stroke="black" stroke-width="0.3" stroke-linecap="round" stroke-linejoin="round"/>
<path d="M37.0429 25.4287C17.4714 31.0573 3.84286 48.8001 3.5 69.1716" stroke="black" stroke-width="0.3" stroke-linecap="round" stroke-linejoin="round"/>
<path d="M96.1856 69.143C95.8428 48.8858 82.3856 31.2287 62.957 25.4858" stroke="black" stroke-width="0.3" stroke-linecap="round" stroke-linejoin="round"/>
<path d="M28.6699 115.6C28.6699 114.371 27.9842 113.257 26.8984 112.686" stroke="black" stroke-width="0.3" stroke-linecap="round" stroke-linejoin="round"/>
<path d="M72.7871 112.686C71.7014 113.257 71.0442 114.371 71.0156 115.6" stroke="black" stroke-width="0.3" stroke-linecap="round" stroke-linejoin="round"/>
<path d="M1.38672 70.8569C1.84386 97.6284 23.9296 118.943 50.6724 118.457C76.7867 118 97.8153 96.9426 98.2724 70.8569" stroke="black" stroke-width="0.3" stroke-linecap="round" stroke-linejoin="round"/>
<path d="M3.5 70.8569C3.95714 96.4569 25.0714 116.828 50.6429 116.4C76.2143 115.971 95.7572 95.8284 96.1857 70.8569" stroke="black" stroke-width="0.3" stroke-linecap="round" stroke-linejoin="round"/>
<path d="M36.4414 23.4285C37.5271 23.1142 38.6414 22.7999 39.7557 22.5428C40.3271 22.3999 40.87 22.2857 41.4414 22.1714C41.7271 22.1142 42.0128 22.0571 42.2985 21.9999C42.5842 21.9428 42.87 21.8857 43.1557 21.8571C44.2985 21.6571 45.4128 21.5142 46.5557 21.4285C47.6986 21.3428 48.8414 21.2856 49.9843 21.2856C51.1271 21.2856 52.27 21.3428 53.4128 21.4571C53.6985 21.4571 53.9843 21.5142 54.27 21.5428C54.5557 21.5714 54.8414 21.5999 55.1271 21.6571C55.6986 21.7428 56.27 21.8285 56.8414 21.9142C57.9843 22.1142 59.0985 22.3428 60.2128 22.6285C61.3271 22.9142 62.4414 23.1999 63.5271 23.5428" stroke="black" stroke-width="0.3" stroke-linecap="round" stroke-linejoin="round"/>
<path d="M62.9573 25.4857C61.9001 25.1714 60.843 24.8571 59.7858 24.5714C58.7287 24.2857 57.643 24.0285 56.5573 23.8285C56.0144 23.7142 55.4715 23.6285 54.9287 23.5428C54.643 23.5142 54.3858 23.4571 54.1001 23.4285C53.8144 23.3999 53.5573 23.3714 53.2715 23.3428C52.1858 23.2285 51.0715 23.1714 49.9858 23.1714C48.9001 23.1714 47.8144 23.2285 46.7287 23.3143C46.1858 23.3714 45.643 23.4285 45.1001 23.5143C44.5573 23.6 44.0144 23.6857 43.4715 23.7714C42.9287 23.8571 42.3858 23.9714 41.843 24.1142C41.3001 24.2571 40.7573 24.3714 40.243 24.5142C39.1858 24.8 38.1001 25.0857 37.043 25.4" stroke="black" stroke-width="0.3" stroke-linecap="round" stroke-linejoin="round"/>
<path d="M89.9844 7.62842C90.0415 9.22842 90.1558 10.7998 90.2701 12.3998C90.4986 15.657 90.8415 18.9427 91.2129 22.1998C91.5844 25.457 92.0129 28.7141 92.4701 31.9427C92.9272 35.1713 93.4415 38.4284 93.9844 41.657C94.5272 44.8856 95.0701 48.1141 95.6701 51.3427C96.2701 54.5713 96.8701 57.7998 97.4701 60.9998" stroke="black" stroke-width="0.3" stroke-linecap="round" stroke-linejoin="round"/>
<path d="M89.957 6.65723C89.957 7.00008 89.9571 7.31437 89.9856 7.65722" stroke="black" stroke-width="0.3" stroke-linecap="round" stroke-linejoin="round"/>
<path d="M89.957 6.62871C89.957 6.62871 89.957 6.62871 89.8999 6.62871C89.8999 6.62871 89.8427 6.62871 89.8142 6.62871C89.7856 6.62871 89.7285 6.62871 89.6999 6.62871C89.6142 6.62871 89.4713 6.6287 89.2999 6.60013C89.1285 6.57156 88.9285 6.60013 88.6999 6.60013C88.4713 6.60013 88.157 6.60013 87.8142 6.60013C87.6427 6.60013 87.4713 6.60013 87.2713 6.60013C87.0713 6.60013 86.8713 6.60013 86.6427 6.60013C86.4142 6.60013 86.1856 6.60013 85.9285 6.60013C85.6713 6.60013 85.4142 6.60013 85.1285 6.60013C84.8427 6.60013 84.557 6.60013 84.2427 6.60013C84.0999 6.60013 83.9285 6.60013 83.757 6.60013C83.6713 6.60013 83.5856 6.60013 83.4999 6.60013C83.4713 6.60013 83.4142 6.60013 83.3856 6.60013H83.3285C83.3285 6.60013 83.3285 6.60013 83.2999 6.60013C82.6427 6.60013 81.9285 6.60013 81.1856 6.60013C80.4428 6.60013 79.6713 6.60013 78.8427 6.60013C78.0142 6.60013 77.1571 6.60015 76.2713 6.57158C75.3856 6.54301 74.4713 6.57157 73.4999 6.543C72.5285 6.51443 71.5571 6.54299 70.5571 6.51442C69.5571 6.48585 68.5285 6.51442 67.4713 6.51442C66.4142 6.51442 65.3285 6.51442 64.2427 6.51442C63.6999 6.51442 63.1285 6.51442 62.5856 6.51442C62.2999 6.51442 62.0142 6.51442 61.757 6.51442C61.6142 6.51442 61.4713 6.51442 61.3284 6.51442C61.2713 6.51442 61.1856 6.51442 61.1285 6.51442C61.0999 6.51442 61.0713 6.51442 61.0142 6.51442C61.0142 6.51442 60.9856 6.51442 60.957 6.51442C60.157 6.51442 59.2999 6.51442 58.3285 6.51442C57.8427 6.51442 57.3285 6.51442 56.8142 6.51442C56.2999 6.51442 55.7285 6.51442 55.157 6.48584C54.0142 6.48584 52.757 6.42871 51.4428 6.42871C50.7856 6.42871 50.0999 6.42871 49.3856 6.42871C48.6713 6.42871 47.957 6.42871 47.2142 6.42871C45.7285 6.42871 44.157 6.42871 42.557 6.42871C41.757 6.42871 40.9285 6.42871 40.0999 6.42871C39.2713 6.42871 38.4142 6.42872 37.5856 6.45729C37.157 6.45729 36.7285 6.45729 36.2999 6.45729C35.8713 6.45729 35.4428 6.45729 35.0142 6.45729C34.157 6.45729 33.2999 6.48585 32.4428 6.51442C31.5856 6.54299 30.6999 6.543 29.8427 6.543C28.9856 6.543 28.1285 6.543 27.2713 6.543C27.2713 6.543 27.2713 6.543 27.2428 6.543C27.2428 6.543 27.1856 6.543 27.157 6.543C27.0999 6.543 27.0713 6.543 27.0142 6.543C26.9285 6.543 26.8142 6.543 26.7285 6.543C26.5285 6.543 26.3285 6.543 26.157 6.543C25.7856 6.543 25.3856 6.543 25.0427 6.543C24.2999 6.543 23.5856 6.543 22.9285 6.543C22.2713 6.543 21.5856 6.543 20.9856 6.543C20.3856 6.543 19.7856 6.543 19.2142 6.543C18.0713 6.543 17.0713 6.543 16.157 6.543C15.2428 6.543 14.4713 6.543 13.757 6.543C13.0428 6.543 12.4713 6.543 11.9856 6.543C11.7285 6.543 11.5285 6.543 11.3285 6.543C11.1285 6.543 10.957 6.54301 10.8142 6.57158C10.6713 6.60015 10.5285 6.57156 10.4142 6.60013C10.2999 6.6287 10.2142 6.62872 10.157 6.65729C10.0142 6.68586 9.95703 6.71443 9.95703 6.743" stroke="black" stroke-width="0.3" stroke-linecap="round" stroke-linejoin="round"/>
<path d="M98.3291 70H96.2148" stroke="black" stroke-width="0.3" stroke-linecap="round" stroke-linejoin="round"/>
<path d="M98.3008 69.1431V70.0002" stroke="black" stroke-width="0.3" stroke-linecap="round" stroke-linejoin="round"/>
<path d="M3.46975 70H1.35547" stroke="black" stroke-width="0.3" stroke-linecap="round" stroke-linejoin="round"/>
<path d="M1.38672 70.0002V69.1431" stroke="black" stroke-width="0.3" stroke-linecap="round" stroke-linejoin="round"/>
<path d="M3.5 69.1431V70.0002" stroke="black" stroke-width="0.3" stroke-linecap="round" stroke-linejoin="round"/>
<path d="M30.6445 70.0001L30.7302 68.4287" stroke="black" stroke-width="0.3" stroke-linecap="round" stroke-linejoin="round"/>
<path d="M30.7305 68.4286C30.7305 68.0571 30.8162 67.7143 30.9019 67.3714C30.959 67.2 30.9876 67.0286 31.0448 66.8571C31.0733 66.7714 31.1019 66.6857 31.1305 66.6C31.159 66.5143 31.1876 66.4286 31.2448 66.3429C31.3876 66.0286 31.5876 65.7143 31.7876 65.4C31.9019 65.2571 32.0162 65.1143 32.1305 64.9714C32.1876 64.9143 32.2447 64.8286 32.3019 64.7714C32.359 64.7143 32.4162 64.6286 32.5019 64.5714C32.759 64.3143 33.0447 64.1143 33.359 63.9143C33.4447 63.8571 33.5019 63.8286 33.5876 63.7714C33.6733 63.7143 33.759 63.6857 33.8162 63.6286C33.9876 63.5428 34.1305 63.4857 34.3019 63.4C34.6448 63.2571 34.9876 63.1714 35.3305 63.0857C35.4162 63.0857 35.5019 63.0571 35.5876 63.0286C35.6733 63 35.759 63.0286 35.8448 63C36.0162 63 36.2162 63 36.3876 63" stroke="black" stroke-width="0.3" stroke-linecap="round" stroke-linejoin="round"/>
<path d="M63.3008 63.0571C63.6722 63.0571 64.0151 63.0857 64.3865 63.1714C64.5579 63.2 64.7293 63.2571 64.9008 63.2857C64.9865 63.2857 65.0722 63.3428 65.158 63.3714C65.2437 63.4 65.3294 63.4286 65.4151 63.4571C65.7579 63.6 66.0722 63.7428 66.3579 63.9428C66.5008 64.0286 66.6436 64.1428 66.7865 64.2571C66.8436 64.3143 66.9294 64.3714 66.9865 64.4286C67.0437 64.4857 67.1294 64.5428 67.1865 64.6C67.4436 64.8571 67.6722 65.1143 67.9008 65.4C67.9579 65.4857 68.0151 65.5428 68.0436 65.6286C68.0722 65.7143 68.1294 65.7714 68.1865 65.8571C68.2722 66 68.3579 66.1714 68.4436 66.3428C68.5865 66.6571 68.7008 67 68.7865 67.3714C68.7865 67.4571 68.8151 67.5428 68.8436 67.6286C68.8722 67.7143 68.8722 67.8 68.9008 67.8857C68.9008 68.0571 68.958 68.2571 68.958 68.4285" stroke="black" stroke-width="0.3" stroke-linecap="round" stroke-linejoin="round"/>
<path d="M68.9844 68.4287L69.0701 70.0001" stroke="black" stroke-width="0.3" stroke-linecap="round" stroke-linejoin="round"/>
<path d="M96.2148 70.0002V69.1431" stroke="black" stroke-width="0.3" stroke-linecap="round" stroke-linejoin="round"/>
<path d="M96.2148 70H98.3291" stroke="black" stroke-width="0.3" stroke-linecap="round" stroke-linejoin="round"/>
<path d="M98.3281 70V70.8572" stroke="black" stroke-width="0.3" stroke-linecap="round" stroke-linejoin="round"/>
<path d="M1.38672 70H3.50102" stroke="black" stroke-width="0.3" stroke-linecap="round" stroke-linejoin="round"/>
<path d="M1.38672 70.8572V70" stroke="black" stroke-width="0.3" stroke-linecap="round" stroke-linejoin="round"/>
<path d="M3.47266 70V70.8572" stroke="black" stroke-width="0.3" stroke-linecap="round" stroke-linejoin="round"/>
<path d="M96.1875 70.8572V70" stroke="black" stroke-width="0.3" stroke-linecap="round" stroke-linejoin="round"/>
<path d="M69.0427 70L68.957 71.5714" stroke="black" stroke-width="0.3" stroke-linecap="round" stroke-linejoin="round"/>
<path d="M68.9853 71.5713C68.9853 71.9427 68.8995 72.2856 68.8138 72.6284C68.7567 72.7998 68.7281 72.9713 68.671 73.1427C68.6424 73.2284 68.6138 73.3141 68.5853 73.3999C68.5567 73.4856 68.5281 73.5713 68.4709 73.657C68.3281 73.9713 68.1281 74.2856 67.9281 74.5999C67.8138 74.7427 67.6995 74.8856 67.5852 75.0284C67.5281 75.0856 67.471 75.1713 67.4138 75.2284C67.3567 75.2856 67.2996 75.3713 67.2138 75.4284C66.9567 75.6856 66.671 75.8856 66.3567 76.0856C66.271 76.1427 66.2138 76.1713 66.1281 76.2284C66.0424 76.2856 65.9567 76.3141 65.8995 76.3713C65.7281 76.457 65.5853 76.5141 65.4138 76.5998C65.071 76.7427 64.7281 76.8284 64.3853 76.9141C64.2995 76.9141 64.2138 76.9427 64.1281 76.9713C64.0424 76.9999 63.9567 76.9713 63.8709 76.9998C63.6995 76.9998 63.4996 76.9998 63.3281 76.9998" stroke="black" stroke-width="0.3" stroke-linecap="round" stroke-linejoin="round"/>
<path d="M36.415 76.9427C36.0435 76.9427 35.7007 76.9141 35.3293 76.8284C35.1578 76.7999 34.9864 76.7427 34.815 76.7141C34.7293 76.7141 34.6435 76.657 34.5578 76.6284C34.4721 76.5999 34.3864 76.5713 34.3007 76.5427C33.9578 76.3999 33.6435 76.257 33.3578 76.057C33.215 75.9713 33.0721 75.857 32.9292 75.7427C32.8721 75.6856 32.7864 75.6284 32.7292 75.5713C32.6721 75.5141 32.5864 75.457 32.5292 75.3999C32.2721 75.1427 32.0435 74.8856 31.815 74.5999C31.7578 74.5141 31.7007 74.457 31.6721 74.3713C31.6435 74.2856 31.5864 74.2284 31.5293 74.1427C31.4435 73.9998 31.3578 73.8284 31.2721 73.657C31.1292 73.3427 31.015 72.9998 30.9293 72.6284C30.9293 72.5427 30.9007 72.457 30.8721 72.3713C30.8435 72.2856 30.8435 72.1998 30.815 72.1141C30.815 71.9427 30.7578 71.7427 30.7578 71.5713" stroke="black" stroke-width="0.3" stroke-linecap="round" stroke-linejoin="round"/>
<path d="M30.7302 71.5714L30.6445 70" stroke="black" stroke-width="0.3" stroke-linecap="round" stroke-linejoin="round"/>
<path d="M9.69922 7.62871L9.75635 6.42871" stroke="black" stroke-width="0.3" stroke-linecap="round" stroke-linejoin="round"/>
<path d="M2.24219 60.9998C2.87076 57.7713 3.47075 54.5427 4.04218 51.3427C4.61361 48.1427 5.18505 44.8856 5.72791 41.657C6.27076 38.4284 6.75647 35.1999 7.24219 31.9427C7.7279 28.6856 8.12791 25.457 8.49934 22.1998C8.87077 18.9427 9.18504 15.6856 9.44218 12.3998C9.55646 10.7998 9.6422 9.22842 9.72791 7.62842" stroke="black" stroke-width="0.3" stroke-linecap="round" stroke-linejoin="round"/>
<path d="M45.5289 51.5714H48.5575L47.4718 56.2285C47.4718 56.2285 47.4718 56.2857 47.4718 56.3428C47.4718 56.5714 47.6718 56.7428 47.8718 56.7142C47.986 56.7142 48.1003 56.6571 48.1575 56.5714L54.4432 49.0857C54.5003 49 54.5289 48.9142 54.5289 48.8285C54.5289 48.6285 54.3575 48.4571 54.1289 48.4571H51.6146L53.3289 44.6857C53.3289 44.6857 53.3575 44.5714 53.3575 44.5143C53.3575 44.4 53.3003 44.3143 53.2432 44.2285C53.1575 44.1428 53.0718 44.1143 52.9575 44.1143H48.3575C48.2146 44.1143 48.0717 44.2285 48.0146 44.3428L45.1575 51.0285C45.1575 51.0285 45.1289 51.1428 45.1289 51.2C45.1289 51.4285 45.3289 51.6 45.5289 51.5714Z" fill="#231715"/>
</svg>
