<svg width="51" height="46" viewBox="0 0 51 46" fill="none" xmlns="http://www.w3.org/2000/svg">
<path d="M33.8369 25.1387V34.6729L25.4443 39.4453L17.0527 34.6729V25.1387L25.4443 20.3662L33.8369 25.1387Z" stroke="#212428" stroke-width="0.855003"/>
<path d="M42.6543 10.8501V20.3843L34.2617 25.1567L25.8701 20.3843V10.8501L34.2617 6.07764L42.6543 10.8501Z" stroke="#212428" stroke-width="0.855003"/>
<path d="M25.4492 10.6014L16.6296 5.58545L7.81006 10.6014" stroke="#212428" stroke-width="0.855003"/>
<circle cx="25.5975" cy="39.938" r="1.70049" fill="#F6F6F7" stroke="#212428" stroke-width="0.855003"/>
<circle cx="34.1102" cy="35.0738" r="1.70049" fill="#F6F6F7" stroke="#212428" stroke-width="0.855003"/>
<circle cx="34.1102" cy="24.7379" r="1.70049" fill="#F6F6F7" stroke="#212428" stroke-width="0.855003"/>
<circle cx="25.5975" cy="20.482" r="1.70049" fill="#F6F6F7" stroke="#212428" stroke-width="0.855003"/>
<circle cx="17.3887" cy="24.7379" r="1.70049" fill="#F6F6F7" stroke="#212428" stroke-width="0.855003"/>
<circle cx="16.782" cy="35.0738" r="1.70049" fill="#F6F6F7" stroke="#212428" stroke-width="0.855003"/>
<circle cx="42.9258" cy="20.7857" r="1.70049" fill="#F6F6F7" stroke="#212428" stroke-width="0.855003"/>
<circle cx="42.9258" cy="10.4493" r="1.70049" fill="#F6F6F7" stroke="#212428" stroke-width="0.855003"/>
<circle cx="34.4129" cy="6.19391" r="1.70049" fill="#F6F6F7" stroke="#212428" stroke-width="0.855003"/>
<circle cx="26.2061" cy="10.4493" r="1.70049" fill="#F6F6F7" stroke="#212428" stroke-width="0.855003"/>
<circle cx="16.7808" cy="6.19391" r="1.70049" fill="#F6F6F7" stroke="#212428" stroke-width="0.855003"/>
<circle cx="8.57428" cy="10.4493" r="1.70049" fill="#F6F6F7" stroke="#212428" stroke-width="0.855003"/>
</svg>
