<svg width="150" height="90" viewBox="0 0 150 90" fill="none" xmlns="http://www.w3.org/2000/svg">
<g clip-path="url(#clip0_21421_2211)">
<mask id="mask0_21421_2211" style="mask-type:luminance" maskUnits="userSpaceOnUse" x="-12" y="0" width="172" height="93">
<path d="M159.248 0.104492H-11.2559V92.6088H159.248V0.104492Z" fill="white"/>
</mask>
<g mask="url(#mask0_21421_2211)">
<path d="M68.9623 -9.40311C68.8189 -9.2205 67.8797 -8.00746 68.2189 -6.45529C68.4015 -5.62051 68.871 -5.07268 69.1189 -4.82485M80.4406 -26.1901C79.2667 -23.3727 78.9797 -20.9335 78.9145 -19.4075C78.8754 -18.4162 78.8102 -14.4248 80.0754 -11.777C80.1667 -11.6075 80.558 -10.577 81.3406 -8.51615C81.5102 -8.05963 81.6536 -7.69442 81.6536 -7.19877C81.6536 -6.11616 81.0276 -5.25529 80.5971 -4.77268M104.232 -18.0901C104.48 -16.5509 104.219 -15.5335 103.919 -14.8814C103.697 -14.3857 103.306 -13.7857 103.071 -12.7814C102.954 -12.2727 102.928 -11.8553 102.915 -11.5683M105.706 -23.8292C105.354 -23.5422 104.949 -23.164 104.545 -22.6683C104.023 -22.0422 103.684 -21.4292 103.449 -20.9335M103.175 -23.8162C103.397 -24.077 104.988 -25.9162 106.241 -25.5118C107.545 -25.0944 107.806 -22.4205 107.61 -20.6727C107.271 -17.6596 105.536 -17.3596 104.454 -13.1466C104.062 -11.6466 103.88 -10.8901 103.828 -9.83354C103.736 -7.82485 104.193 -6.79442 103.462 -5.94659C103.071 -5.49007 102.301 -5.03355 101.623 -5.3205C101.115 -5.54224 100.775 -6.14224 100.762 -6.84659M44.9754 -18.0901C44.7275 -16.5509 44.9884 -15.5335 45.2884 -14.8814C45.5102 -14.3857 45.9015 -13.7857 46.1363 -12.7814C46.2536 -12.2727 46.2797 -11.8553 46.2928 -11.5683M43.5015 -23.8292C43.8536 -23.5422 44.258 -23.164 44.6623 -22.6683C45.1841 -22.0422 45.5232 -21.4292 45.758 -20.9335M46.0319 -23.8162C45.8102 -24.077 44.2189 -25.9162 42.9667 -25.5118C41.6623 -25.0944 41.4015 -22.4205 41.5971 -20.6727C41.9493 -17.6596 43.671 -17.3596 44.7536 -13.1466C45.1449 -11.6466 45.3406 -10.8901 45.3797 -9.83354C45.4841 -7.82485 45.0145 -6.79442 45.7449 -5.94659C46.1362 -5.49007 46.9189 -5.03355 47.5841 -5.3205C48.0928 -5.54224 48.4319 -6.14224 48.4449 -6.84659M76.6449 -54.8727C77.7536 -55.1335 79.1102 -55.3422 80.6493 -55.3944C83.0362 -55.4727 85.058 -55.1335 86.5449 -54.7683M74.4406 -54.4553C72.758 -54.8988 70.5015 -55.3161 67.8145 -55.3031C64.3841 -55.2901 61.5928 -54.5727 59.7145 -53.9335M53.2841 -49.7205C50.2841 -46.4988 49.0841 -43.5509 48.5493 -41.4118C48.0928 -39.5727 48.471 -39.7161 47.5971 -33.6248C47.2841 -31.3814 46.9058 -29.0988 46.5406 -26.8944C45.8362 -22.564 45.8493 -23.0075 45.7971 -22.4727C45.6406 -20.8162 45.6667 -18.7422 47.1667 -12.0509C47.8189 -9.1292 47.9102 -9.11615 48.8493 -5.21615C50.6884 2.42733 50.3623 2.46646 51.0667 4.25341C52.3841 7.65776 54.5754 9.74472 58.958 13.9317C58.958 13.9317 65.7276 20.4012 71.1667 21.7186C72.771 22.1099 74.3232 22.136 74.3232 22.136C74.3232 22.136 75.9276 22.1621 77.5841 21.823C78.9928 21.523 81.5232 20.6621 86.8449 16.6708C90.3015 14.0751 92.2841 12.5491 94.4232 9.82297C95.1145 8.93601 96.3015 7.42298 97.371 5.19255C98.571 2.70124 98.7536 1.1621 99.5884 -2.49007C101.18 -9.50746 101.767 -9.37702 102.641 -14.4901C103.123 -17.3596 103.449 -19.2118 103.384 -21.8596C103.306 -24.7031 102.875 -25.3553 102.223 -29.9596C101.401 -35.8422 101.975 -35.764 101.271 -38.8031C100.788 -40.8509 99.9276 -44.3857 97.2667 -47.8553C94.371 -51.6118 90.758 -53.4901 88.5276 -54.377M68.2058 -28.0553C68.3884 -28.2379 68.3623 -28.6162 68.3102 -29.3727C68.258 -30.064 68.2189 -30.6118 67.8928 -31.0553C67.4754 -31.6162 66.7841 -31.7596 66.3667 -31.8509C61.7362 -32.7901 62.2449 -32.764 61.7363 -32.8031C58.1232 -33.064 56.3232 -33.1944 54.5754 -32.5422C53.1928 -32.0205 52.1884 -31.277 51.5754 -30.7553C52.2667 -31.1727 53.4145 -31.7335 54.8884 -31.9162C55.4623 -31.9814 56.3102 -32.0205 57.9406 -31.7075C60.8623 -31.1335 63.3536 -30.0118 64.5145 -29.4509C66.471 -28.4988 67.7493 -27.6509 68.1928 -28.0814L68.2058 -28.0553ZM81.758 -27.8205C81.5754 -28.0031 81.6015 -28.3814 81.6536 -29.1379C81.7058 -29.8292 81.745 -30.377 82.071 -30.8205C82.4884 -31.3814 83.1797 -31.5248 83.5971 -31.6031C88.2145 -32.5422 87.7188 -32.5161 88.2275 -32.5553C91.8406 -32.8161 93.6406 -32.9466 95.3884 -32.2944C96.771 -31.7727 97.7754 -31.0292 98.3884 -30.5075C97.6971 -30.9248 96.5623 -31.4857 95.0754 -31.6683C94.5015 -31.7335 93.6536 -31.7727 92.0232 -31.4596C89.1015 -30.8857 86.6102 -29.764 85.4493 -29.2031C83.4928 -28.2509 82.2145 -27.4031 81.771 -27.8335L81.758 -27.8205Z" stroke="#231F20" stroke-width="0.3" stroke-miterlimit="10"/>
<path d="M64.2266 4.1084C66.7961 5.33449 69.47 3.82144 72.1309 4.22578C73.0309 4.30405 73.9179 4.42144 74.8048 4.591H74.7005C78.2744 3.57361 81.8874 5.23012 85.4483 4.27795C81.9918 5.66056 78.2353 4.1084 74.7135 5.12579C72.9787 4.78666 71.2179 4.55187 69.4831 4.66926C67.7353 4.96926 65.8179 5.0997 64.2396 4.12143" fill="#231F20"/>
<path d="M65.4902 3.95283C66.9641 3.17023 68.4381 2.4137 70.0033 1.76153C71.6468 1.1224 73.4859 1.55284 75.025 2.24414H74.7902C77.125 1.01805 80.0337 1.43544 82.1728 2.87022C82.8641 3.33979 83.5555 3.79631 84.2859 4.22675C83.5033 3.90066 82.7728 3.49631 82.0294 3.09196C79.8902 1.87892 77.112 1.53979 74.9207 2.79196C73.4468 2.06153 71.712 1.64414 70.1468 2.15284C68.7902 2.6224 66.8728 3.45718 65.5033 3.96588" fill="#231F20"/>
<path d="M65.4902 5.00879C70.4468 10.0305 78.912 9.90009 84.2207 5.47836C79.3555 10.6175 69.9511 10.7088 65.4902 5.00879Z" fill="#231F20"/>
<path d="M59.1649 14.3354C58.7997 21.7963 59.0867 31.3181 55.7736 38.8963C49.9041 47.792 39.1823 52.5007 29.0736 55.4615L17.5432 56.8702C13.8388 57.4963 10.6041 59.9354 7.99537 62.6746C2.30841 68.3354 0.8345 76.1615 0.677978 83.8702C-0.0915867 76.0963 1.90407 67.9441 7.49972 62.205C10.1606 59.3876 13.4215 56.8181 17.4389 56.0876L28.9823 54.6398C38.6345 51.9007 49.5258 47.2702 55.3041 38.6485C58.6302 31.2659 58.4084 21.6007 59.1649 14.3354Z" fill="#404041"/>
<path d="M90.4154 14.3343C91.1849 21.6126 90.9502 31.2517 94.2763 38.6474C100.055 47.2822 110.946 51.8995 120.598 54.6387L132.141 56.0865C136.159 56.8169 139.42 59.3865 142.081 62.2039C147.663 67.943 149.672 76.0952 148.902 83.8691C149.163 72.743 143.802 59.6735 132.024 56.8561L120.494 55.4474C112.955 53.5822 105.233 49.643 99.3893 45.1169C89.6197 38.3996 91.0545 24.0909 90.4023 14.3213" fill="#404041"/>
<path d="M68.3989 61.8133C65.8946 59.622 62.4772 59.2437 59.2946 59.1785C49.6946 59.0741 39.2467 61.4611 30.2598 57.0654C39.5467 60.548 49.6554 58.0828 59.3206 58.5263C62.5424 58.6828 66.1163 59.3741 68.3989 61.8133Z" fill="#404041"/>
<path d="M79.1478 61.8137C81.3782 59.6224 84.4304 59.2442 87.2608 59.179C95.8174 59.0746 105.143 61.4616 113.152 57.0659C104.87 60.5485 95.8565 58.0833 87.2348 58.5268C84.3652 58.6833 81.1826 59.3746 79.1348 61.8137" fill="#404041"/>
<path d="M79.2776 30.7045C79.2776 30.7045 80.8428 32.7523 83.321 31.2914C85.7993 29.8436 88.6689 32.1784 88.6689 32.1784C88.6689 32.1784 90.9645 33.9393 89.908 36.561C88.8515 39.1827 90.7037 43.0567 90.7037 43.0567C90.7037 43.0567 91.4471 46.8001 86.621 49.1219C81.795 51.4436 85.7863 51.7958 80.4124 51.7958C75.0384 51.7958 77.9211 44.7654 76.6428 41.661C75.3776 38.5567 72.6776 37.0958 73.4602 33.561C74.2428 30.0132 77.2037 29.1001 79.2906 30.7045H79.2776Z" stroke="#231F20" stroke-width="0.38" stroke-linecap="round" stroke-linejoin="round"/>
<path d="M105.548 63.1831L92.387 45.5744L91.2261 43.1483L85.9305 35.4005L77.7131 33.8223L75.3652 35.9614L76.6044 41.1918L78.4565 49.331L78.5348 53.0483L80.9218 57.0527L88.9435 75.744L105.222 66.8875L105.548 63.1831Z" fill="white"/>
<path d="M99.9917 53.7785C99.9917 53.7785 100.253 48.9394 102.144 49.3568C103.187 49.5916 103.84 51.8872 103.97 52.0568C104.087 52.2263 106.279 58.2003 106.279 58.2003C109.409 52.4872 112.122 57.9002 110.413 68.0742C109.279 74.8046 112.109 85.2263 112.109 85.2263M92.0482 88.9437C91.4482 88.3307 85.5526 68.4263 84.6004 65.935C83.6613 63.4568 77.8178 52.9959 78.6656 51.522C79.2396 50.5307 79.8787 49.9307 80.6091 50.0481C80.9613 50.1003 81.3395 50.335 81.7308 50.7785C82.9308 52.122 90.4569 66.8872 90.4569 66.8872M96.4178 65.2959L88.7352 54.9524C88.2135 54.7568 80.4004 39.7698 79.5396 39.3263C78.1048 38.5829 77.27 40.0698 77.1656 41.7655C77.0482 43.7481 79.9048 50.0481 79.9048 50.0481M78.8613 39.209C78.8613 39.209 76.7874 35.2046 78.5874 34.2916C79.9569 33.5872 80.8439 34.2916 80.8439 34.2916C80.8439 34.2916 93.0265 52.5263 95.3352 55.1872C97.6439 57.8481 102.144 62.2177 102.144 62.2177M103.957 58.2133C102.992 57.3655 91.2396 43.6698 91.2396 43.6698C91.2396 43.6698 86.2178 35.8959 85.3178 35.4916C82.0178 34.0307 83.883 38.8176 83.883 38.8176" fill="white"/>
<path d="M99.9917 53.7785C99.9917 53.7785 100.253 48.9394 102.144 49.3568C103.187 49.5916 103.84 51.8872 103.97 52.0568C104.087 52.2263 106.279 58.2003 106.279 58.2003C106.279 58.2003 110.283 52.3698 110.413 59.1916C110.531 66.0263 112.109 76.3437 112.109 76.3437M92.0482 88.9437C91.4482 88.3307 85.5526 68.4263 84.6004 65.935C83.6613 63.4568 77.8178 52.9959 78.6656 51.522C79.2396 50.5307 79.8787 49.9307 80.6091 50.0481C80.9613 50.1003 81.3395 50.335 81.7308 50.7785C82.9308 52.122 90.4569 66.8872 90.4569 66.8872M96.4178 65.2959L88.7352 54.9524C88.2135 54.7568 80.4004 39.7698 79.5396 39.3263C78.1048 38.5829 77.27 40.0698 77.1656 41.7655C77.0482 43.7481 79.9048 50.0481 79.9048 50.0481M78.8613 39.209C78.8613 39.209 76.7874 35.2046 78.5874 34.2916C79.9569 33.5872 80.8439 34.2916 80.8439 34.2916C80.8439 34.2916 93.0265 52.5263 95.3352 55.1872C97.6439 57.8481 102.144 62.2177 102.144 62.2177M103.957 58.2133C102.992 57.3655 91.2396 43.6698 91.2396 43.6698C91.2396 43.6698 86.2178 35.8959 85.3178 35.4916C82.0178 34.0307 83.883 38.8176 83.883 38.8176" stroke="#231F20" stroke-width="0.38" stroke-linecap="round" stroke-linejoin="round"/>
</g>
</g>
<defs>
<clipPath id="clip0_21421_2211">
<rect width="150" height="90" fill="white"/>
</clipPath>
</defs>
</svg>
