<svg width="150" height="129" viewBox="0 0 150 129" fill="none" xmlns="http://www.w3.org/2000/svg">
<g clip-path="url(#clip0_21421_2390)">
<path d="M120.513 86.3164L144.79 104.632C148.948 107.777 150.566 113.001 148.921 117.935C147.263 122.882 142.829 126.066 137.605 126.066H23.0134C21.6976 126.066 20.6186 127.145 20.6186 128.461M18.6055 128.474C18.6055 126.04 20.5792 124.066 23.0134 124.066H137.605C142.869 124.066 145.908 120.566 147.013 117.303C148.105 114.027 147.79 109.409 143.579 106.237L119.408 88.0006" stroke="#231F20" stroke-width="0.32" stroke-miterlimit="10"/>
<path d="M120.776 33.9342C120.842 34.4869 121.355 34.8816 121.908 34.8158L136.842 32.9869C137.197 32.9474 137.513 32.7106 137.658 32.3685C137.802 32.0395 137.75 31.6448 137.539 31.3553C137.316 31.0658 136.96 30.9079 136.605 30.9606L121.684 32.7895C121.131 32.8553 120.737 33.3685 120.802 33.9211M35.3682 34.4211C35.5919 34.1316 35.6314 33.75 35.4866 33.4079C35.3419 33.079 35.0393 32.8421 34.6708 32.7895L19.7498 30.9606C19.1972 30.8948 18.684 31.2895 18.6182 31.8421C18.5524 32.3948 18.9472 32.9079 19.4998 32.9737L34.4208 34.8027C34.7761 34.8421 35.1314 34.6974 35.3551 34.4079M119.75 77.0658C119.75 77.0658 119.829 76.9606 119.881 76.9079C119.908 76.8685 119.934 76.8421 119.973 76.8027C120 76.7632 120.039 76.7369 120.066 76.7106C120.092 76.6842 120.131 76.6448 120.171 76.6185L124.566 72.9342L133.631 66.1185C135.223 64.9474 135.763 62.8027 134.881 61.0395L132.223 55.6448C131.473 54.1316 129.881 53.2369 128.21 53.3948L88.355 57.0921C87.9077 57.1316 87.4735 56.9342 87.2235 56.5658C86.9735 56.1974 86.9472 55.7237 87.1577 55.3158C87.3682 54.9211 87.7629 54.6711 88.2103 54.6579C106.895 54.2369 125.539 52.6579 144.026 49.9079C145.816 49.4869 147.355 47.8158 147.5 45.8816V30.2632C147.5 29.079 146.987 27.9474 146.079 27.1843C145.184 26.4079 143.987 26.0658 142.816 26.25C99.9866 32.8421 56.4077 32.8421 13.5787 26.25C12.4077 26.0658 11.1445 26.5395 10.3156 27.1843C9.36821 27.9079 8.89453 29.079 8.89453 30.2632V45.8816C8.89453 47.8948 10.3682 49.6053 12.3682 49.9079C30.8551 52.6579 49.4998 54.2369 68.184 54.6579C68.6314 54.6579 69.0393 54.9211 69.2366 55.3158C69.4472 55.7106 69.3551 56.1579 69.1708 56.5658C68.9866 56.9737 68.5656 57.1842 68.0393 57.0921L28.184 53.3948C26.5129 53.2369 24.9077 54.1316 24.1577 55.6448L21.4998 61.0395C20.6314 62.8158 21.1577 64.9606 22.7498 66.1185L31.8156 72.9342L38.8419 79.1316C40.0656 80.3553 41.1708 81.6842 42.1577 83.1053C43.9998 85.75 45.2498 88.75 45.8156 91.9211L47.6445 99.3553C48.3551 101.579 49.4866 103.645 50.9866 105.434C54.8682 110.04 59.6182 113.816 64.9866 116.553C73.2893 120.776 83.1051 120.776 91.4077 116.553C96.7761 113.816 101.526 110.04 105.408 105.434C106.908 103.645 108.052 101.592 108.75 99.3553L110.579 91.9211L110.855 90.6053C110.881 90.4737 110.921 90.3421 110.947 90.2106C110.987 90.079 111.052 89.9606 111.118 89.8421C111.145 89.7895 111.223 89.6711 111.316 89.5527C111.526 89.3158 111.776 89.1316 112.066 89C112.342 88.8685 112.658 88.7632 112.973 88.6974C113.21 88.6448 113.473 88.6053 113.737 88.579L114.263 88.5527L115.21 88.579L115.842 88.6185L116.289 88.6579L116.895 88.7106L118.592 88.9342H118.658C118.737 88.9606 118.816 88.9342 118.868 88.8553L121.21 85.2895C121.21 85.2895 121.25 85.1448 121.21 85.079C120.842 84.4474 120.5 83.8027 120.197 83.1316C119.829 82.329 119.526 81.5527 119.342 80.7763C119.171 80.0658 119.079 79.3553 119.158 78.6711C119.21 78.2106 119.329 77.7632 119.579 77.3421C119.631 77.25 119.697 77.1579 119.763 77.0658M141.802 29.6842C142.118 29.5 142.5 29.5 142.816 29.6842C143.131 29.8685 143.329 30.1974 143.329 30.5658V45.6053C143.329 46.1711 142.868 46.6185 142.316 46.6185C141.763 46.6185 141.302 46.1579 141.302 45.6053V30.5658C141.302 30.1974 141.5 29.8685 141.816 29.6842M13.0129 30.5658C13.0129 30.1974 13.2103 29.8685 13.5261 29.6842C13.8419 29.5 14.2235 29.5 14.5393 29.6842C14.8551 29.8685 15.0524 30.1974 15.0524 30.5658V45.6053C15.0524 46.1711 14.5919 46.6185 14.0393 46.6185C13.4866 46.6185 13.0261 46.1579 13.0261 45.6053V30.5658H13.0129Z" fill="white"/>
<path d="M120.776 33.9342C120.842 34.4869 121.355 34.8816 121.908 34.8158L136.842 32.9869C137.197 32.9474 137.513 32.7106 137.658 32.3685C137.802 32.0395 137.75 31.6448 137.539 31.3553C137.316 31.0658 136.96 30.9079 136.605 30.9606L121.684 32.7895C121.131 32.8553 120.737 33.3685 120.802 33.9211L120.776 33.9342ZM35.3682 34.4211C35.5919 34.1316 35.6314 33.75 35.4866 33.4079C35.3419 33.079 35.0393 32.8421 34.6708 32.7895L19.7498 30.9606C19.1972 30.8948 18.684 31.2895 18.6182 31.8421C18.5524 32.3948 18.9472 32.9079 19.4998 32.9737L34.4208 34.8027C34.7761 34.8421 35.1314 34.6974 35.3551 34.4079L35.3682 34.4211ZM119.75 77.0658C119.75 77.0658 119.829 76.9606 119.881 76.9079C119.908 76.8685 119.934 76.8421 119.973 76.8027C120 76.7632 120.039 76.7369 120.066 76.7106C120.092 76.6842 120.131 76.6448 120.171 76.6184L124.566 72.9342L133.631 66.1185C135.223 64.9474 135.763 62.8027 134.881 61.0395L132.223 55.6448C131.473 54.1316 129.881 53.2369 128.21 53.3948L88.355 57.0921C87.9077 57.1316 87.4735 56.9342 87.2235 56.5658C86.9735 56.1974 86.9472 55.7237 87.1577 55.3158C87.3682 54.9211 87.7629 54.6711 88.2103 54.6579C106.895 54.2369 125.539 52.6579 144.026 49.9079C145.816 49.4869 147.355 47.8158 147.5 45.8816V30.2632C147.5 29.079 146.987 27.9474 146.079 27.1843C145.184 26.4079 143.987 26.0658 142.816 26.25C99.9866 32.8421 56.4077 32.8421 13.5787 26.25C12.4077 26.0658 11.1445 26.5395 10.3156 27.1843C9.36821 27.9079 8.89453 29.079 8.89453 30.2632V45.8816C8.89453 47.8948 10.3682 49.6053 12.3682 49.9079C30.8551 52.6579 49.4998 54.2369 68.184 54.6579C68.6314 54.6579 69.0393 54.9211 69.2366 55.3158C69.4472 55.7106 69.3551 56.1579 69.1708 56.5658C68.9866 56.9737 68.5656 57.1842 68.0393 57.0921L28.184 53.3948C26.5129 53.2369 24.9077 54.1316 24.1577 55.6448L21.4998 61.0395C20.6314 62.8158 21.1577 64.9606 22.7498 66.1185L31.8156 72.9342L38.8419 79.1316C40.0656 80.3553 41.1708 81.6842 42.1577 83.1053C43.9998 85.75 45.2498 88.75 45.8156 91.9211L47.6445 99.3553C48.3551 101.579 49.4866 103.645 50.9866 105.434C54.8682 110.04 59.6182 113.816 64.9866 116.553C73.2893 120.776 83.1051 120.776 91.4077 116.553C96.7761 113.816 101.526 110.04 105.408 105.434C106.908 103.645 108.052 101.592 108.75 99.3553L110.579 91.9211L110.855 90.6053C110.881 90.4737 110.921 90.3421 110.947 90.2106C110.987 90.079 111.052 89.9606 111.118 89.8421C111.145 89.7895 111.223 89.6711 111.316 89.5527C111.526 89.3158 111.776 89.1316 112.066 89C112.342 88.8685 112.658 88.7632 112.973 88.6974C113.21 88.6448 113.473 88.6053 113.737 88.579L114.263 88.5527L115.21 88.579L115.842 88.6185L116.289 88.6579L116.895 88.7106L118.592 88.9342H118.658C118.737 88.9606 118.816 88.9342 118.868 88.8553L121.21 85.2895C121.21 85.2895 121.25 85.1448 121.21 85.079C120.842 84.4474 120.5 83.8027 120.197 83.1316C119.829 82.329 119.526 81.5527 119.342 80.7763C119.171 80.0658 119.079 79.3553 119.158 78.6711C119.21 78.2106 119.329 77.7632 119.579 77.3421C119.631 77.25 119.697 77.1579 119.763 77.0658H119.75ZM141.802 29.6842C142.118 29.5 142.5 29.5 142.816 29.6842C143.131 29.8685 143.329 30.1974 143.329 30.5658V45.6053C143.329 46.1711 142.868 46.6185 142.316 46.6185C141.763 46.6185 141.302 46.1579 141.302 45.6053V30.5658C141.302 30.1974 141.5 29.8685 141.816 29.6842H141.802ZM13.0129 30.5658C13.0129 30.1974 13.2103 29.8685 13.5261 29.6842C13.8419 29.5 14.2235 29.5 14.5393 29.6842C14.8551 29.8685 15.0524 30.1974 15.0524 30.5658V45.6053C15.0524 46.1711 14.5919 46.6185 14.0393 46.6185C13.4866 46.6185 13.0261 46.1579 13.0261 45.6053V30.5658H13.0129Z" stroke="#231F20" stroke-width="0.32" stroke-miterlimit="10"/>
<path d="M40.5527 77.4082C41.8685 78.7372 43.079 80.1714 44.1448 81.6977C46.1843 84.6319 47.579 87.974 48.1974 91.4872C48.6185 93.8951 49.2106 96.2766 49.9474 98.6056C50.5527 100.527 51.5395 102.303 52.829 103.842C56.5 108.198 61 111.777 66.0658 114.356C73.6711 118.224 82.6711 118.224 90.2764 114.356C95.3421 111.777 99.8553 108.198 103.513 103.842C104.803 102.303 105.79 100.527 106.395 98.6056C107.132 96.2766 107.724 93.8951 108.145 91.4872C108.763 87.974 110.145 84.6319 112.197 81.6977C113.263 80.1714 114.474 78.724 115.79 77.4082C118.066 75.1187 120.5 72.974 123.053 71.0003C126.066 68.6714 129.105 66.3819 132.171 64.1451C132.816 63.6845 133.026 62.8161 132.671 62.1056L130.013 56.7108C129.711 56.1056 129.079 55.7503 128.408 55.8161L88.5527 59.5135C88.4606 59.5135 88.3816 59.5135 88.2895 59.5266C86.2632 59.5661 84.5921 57.974 84.5527 55.9477C84.5132 53.9214 86.1053 52.2503 88.1316 52.2109C97.1842 52.0135 106.224 51.5266 115.237 50.7766C116.5 50.6714 117.474 49.6187 117.474 48.3424V34.474C117.474 33.1319 116.382 32.0398 115.04 32.0398C114.974 32.0398 114.895 32.0398 114.829 32.0398C90.4343 34.1451 65.9079 34.1451 41.5132 32.0398C40.1711 31.9214 38.9869 32.9214 38.8685 34.2635C38.8685 34.3293 38.8685 34.4082 38.8685 34.474V48.3424C38.8685 49.6056 39.8421 50.6714 41.1053 50.7766C50.1185 51.5266 59.1579 52.0003 68.2106 52.2109C68.2895 52.2109 68.3816 52.2109 68.4606 52.224C70.4737 52.4082 71.9474 54.1977 71.7632 56.2109C71.579 58.224 69.7895 59.6977 67.7764 59.5135L27.9211 55.8161C27.25 55.7503 26.6053 56.1056 26.3158 56.7108L23.6579 62.1056C23.3027 62.8161 23.5132 63.6714 24.1579 64.1451C27.2369 66.3819 30.2764 68.6714 33.2764 71.0003C35.829 72.974 38.2632 75.1187 40.5395 77.4082" fill="white"/>
<path d="M40.5527 77.4082C41.8685 78.7372 43.079 80.1714 44.1448 81.6977C46.1843 84.6319 47.579 87.974 48.1974 91.4872C48.6185 93.8951 49.2106 96.2766 49.9474 98.6056C50.5527 100.527 51.5395 102.303 52.829 103.842C56.5 108.198 61 111.777 66.0658 114.356C73.6711 118.224 82.6711 118.224 90.2764 114.356C95.3422 111.777 99.8553 108.198 103.513 103.842C104.803 102.303 105.79 100.527 106.395 98.6056C107.132 96.2766 107.724 93.8951 108.145 91.4872C108.763 87.974 110.145 84.6319 112.197 81.6977C113.263 80.1714 114.474 78.724 115.79 77.4082C118.066 75.1187 120.5 72.974 123.053 71.0003C126.066 68.6714 129.105 66.3819 132.171 64.1451C132.816 63.6845 133.026 62.8161 132.671 62.1056L130.013 56.7108C129.711 56.1056 129.079 55.7503 128.408 55.8161L88.5527 59.5135C88.4606 59.5135 88.3816 59.5135 88.2895 59.5266C86.2632 59.5661 84.5921 57.974 84.5527 55.9477C84.5132 53.9214 86.1053 52.2503 88.1316 52.2109C97.1842 52.0135 106.224 51.5266 115.237 50.7766C116.5 50.6714 117.474 49.6187 117.474 48.3424V34.474C117.474 33.1319 116.382 32.0398 115.04 32.0398C114.974 32.0398 114.895 32.0398 114.829 32.0398C90.4343 34.1451 65.9079 34.1451 41.5132 32.0398C40.1711 31.9214 38.9869 32.9214 38.8685 34.2635C38.8685 34.3293 38.8685 34.4082 38.8685 34.474V48.3424C38.8685 49.6056 39.8421 50.6714 41.1053 50.7766C50.1185 51.5266 59.1579 52.0003 68.2106 52.2109C68.2895 52.2109 68.3816 52.2109 68.4606 52.224C70.4737 52.4082 71.9474 54.1977 71.7632 56.2109C71.579 58.224 69.7895 59.6977 67.7764 59.5135L27.9211 55.8161C27.25 55.7503 26.6053 56.1056 26.3158 56.7108L23.6579 62.1056C23.3027 62.8161 23.5132 63.6714 24.1579 64.1451C27.2369 66.3819 30.2764 68.6714 33.2764 71.0003C35.829 72.974 38.2632 75.1187 40.5395 77.4082H40.5527Z" stroke="#231F20" stroke-width="0.32" stroke-miterlimit="10"/>
<path d="M45.3532 44.8823H42.6953V47.5402H45.3532V44.8823Z" stroke="#231F20" stroke-width="0.32" stroke-linecap="round" stroke-linejoin="round"/>
<path d="M44.0938 45.04V45.5663H44.9622C44.9622 45.5663 44.699 45.1453 44.0938 45.04Z" fill="#231F20"/>
<path d="M43.9088 45.04V45.5137H43.6325V45.7374H43.2246C43.2246 45.7374 43.2115 45.1585 43.9088 45.04Z" fill="#231F20"/>
<path d="M45.0254 45.7368H44.5254V46.6052H45.0517C45.0517 46.6052 45.2622 46.2105 45.0122 45.7368" fill="#231F20"/>
<path d="M43.8418 45.7627V46.039H43.0918V46.3153H43.8418V46.6048H44.355V45.7627H43.8418Z" fill="#231F20"/>
<path d="M44.9622 46.7769H44.0938V47.3163C44.0938 47.3163 44.5674 47.369 44.9622 46.7769Z" fill="#231F20"/>
<path d="M43.9088 46.8164V47.3164C43.9088 47.3164 43.3825 47.1585 43.2246 46.8164V46.5532H43.593V46.8032H43.9088V46.8164Z" fill="#231F20"/>
<path d="M56.738 44.8823H54.0801V47.5402H56.738V44.8823Z" stroke="#231F20" stroke-width="0.32" stroke-linecap="round" stroke-linejoin="round"/>
<path d="M55.4746 45.04V45.5663H56.343C56.343 45.5663 56.0799 45.1453 55.4746 45.04Z" fill="#231F20"/>
<path d="M55.2897 45.04V45.5137H55.0134V45.7374H54.6055C54.6055 45.7374 54.6055 45.1585 55.2897 45.04Z" fill="#231F20"/>
<path d="M56.4082 45.7368H55.9082V46.6052H56.4345C56.4345 46.6052 56.645 46.2105 56.395 45.7368" fill="#231F20"/>
<path d="M55.2227 45.7627V46.039H54.4727V46.3153H55.2227V46.6048H55.7358V45.7627H55.2227Z" fill="#231F20"/>
<path d="M56.343 46.7769H55.4746V47.3163C55.4746 47.3163 55.9483 47.369 56.343 46.7769Z" fill="#231F20"/>
<path d="M55.2897 46.8164V47.3164C55.2897 47.3164 54.7634 47.1585 54.6055 46.8164V46.5532H54.9739V46.8032H55.2897V46.8164Z" fill="#231F20"/>
<path d="M68.1188 44.8823H65.4609V47.5402H68.1188V44.8823Z" stroke="#231F20" stroke-width="0.32" stroke-linecap="round" stroke-linejoin="round"/>
<path d="M66.8555 45.04V45.5663H67.7239C67.7239 45.5663 67.4607 45.1453 66.8555 45.04Z" fill="#231F20"/>
<path d="M66.6705 45.04V45.5137H66.3942V45.7374H65.9863C65.9863 45.7374 65.9863 45.1585 66.6705 45.04Z" fill="#231F20"/>
<path d="M67.7891 45.7368H67.2891V46.6052H67.8154C67.8154 46.6052 68.0259 46.2105 67.7759 45.7368" fill="#231F20"/>
<path d="M66.6074 45.7627V46.039H65.8574V46.3153H66.6074V46.6048H67.1206V45.7627H66.6074Z" fill="#231F20"/>
<path d="M67.7239 46.7769H66.8555V47.3163C66.8555 47.3163 67.3292 47.369 67.7239 46.7769Z" fill="#231F20"/>
<path d="M66.6705 46.8164V47.3164C66.6705 47.3164 66.1442 47.1585 65.9863 46.8164V46.5532H66.3547V46.8032H66.6705V46.8164Z" fill="#231F20"/>
<path d="M79.5114 44.8823H76.8535V47.5402H79.5114V44.8823Z" stroke="#231F20" stroke-width="0.32" stroke-linecap="round" stroke-linejoin="round"/>
<path d="M78.248 45.04V45.5663H79.1165C79.1165 45.5663 78.8533 45.1453 78.248 45.04Z" fill="#231F20"/>
<path d="M78.067 45.04V45.5137H77.7907V45.7374H77.3828C77.3828 45.7374 77.3697 45.1585 78.067 45.04Z" fill="#231F20"/>
<path d="M79.1699 45.7368H78.6699V46.6052H79.1962C79.1962 46.6052 79.4068 46.2105 79.1568 45.7368" fill="#231F20"/>
<path d="M77.9883 45.7627V46.039H77.2383V46.3153H77.9883V46.6048H78.5146V45.7627H77.9883Z" fill="#231F20"/>
<path d="M79.1048 46.7769H78.2363V47.3163C78.2363 47.3163 78.71 47.369 79.1048 46.7769Z" fill="#231F20"/>
<path d="M78.067 46.8164V47.3164C78.067 47.3164 77.5407 47.1585 77.3828 46.8164V46.5532H77.7512V46.8032H78.067V46.8164Z" fill="#231F20"/>
<path d="M90.8962 44.8823H88.2383V47.5402H90.8962V44.8823Z" stroke="#231F20" stroke-width="0.32" stroke-linecap="round" stroke-linejoin="round"/>
<path d="M89.6328 45.04V45.5663H90.5012C90.5012 45.5663 90.2381 45.1453 89.6328 45.04Z" fill="#231F20"/>
<path d="M89.4479 45.04V45.5137H89.1716V45.7374H88.7637C88.7637 45.7374 88.7505 45.1585 89.4479 45.04Z" fill="#231F20"/>
<path d="M90.5547 45.7368H90.0547V46.6052H90.581C90.581 46.6052 90.7915 46.2105 90.5415 45.7368" fill="#231F20"/>
<path d="M89.3691 45.7627V46.039H88.6191V46.3153H89.3691V46.6048H89.8955V45.7627H89.3691Z" fill="#231F20"/>
<path d="M90.5012 46.7769H89.6328V47.3163C89.6328 47.3163 90.1065 47.369 90.5012 46.7769Z" fill="#231F20"/>
<path d="M89.4479 46.8164V47.3164C89.4479 47.3164 88.9216 47.1585 88.7637 46.8164V46.5532H89.1321V46.8032H89.4479V46.8164Z" fill="#231F20"/>
<path d="M102.277 44.8823H99.6191V47.5402H102.277V44.8823Z" stroke="#231F20" stroke-width="0.32" stroke-linecap="round" stroke-linejoin="round"/>
<path d="M101.014 45.04V45.5663H101.882C101.882 45.5663 101.619 45.1453 101.014 45.04Z" fill="#231F20"/>
<path d="M100.829 45.04V45.5137H100.552V45.7374H100.145C100.145 45.7374 100.131 45.1585 100.829 45.04Z" fill="#231F20"/>
<path d="M101.936 45.7368H101.436V46.6052H101.962C101.962 46.6052 102.172 46.2105 101.922 45.7368" fill="#231F20"/>
<path d="M100.748 45.7627V46.039H99.998V46.3153H100.748V46.6048H101.274V45.7627H100.748Z" fill="#231F20"/>
<path d="M101.882 46.7769H101.014V47.3163C101.014 47.3163 101.487 47.369 101.882 46.7769Z" fill="#231F20"/>
<path d="M100.829 46.8164V47.3164C100.829 47.3164 100.302 47.1585 100.145 46.8164V46.5532H100.513V46.8032H100.829V46.8164Z" fill="#231F20"/>
<path d="M113.658 44.8823H111V47.5402H113.658V44.8823Z" stroke="#231F20" stroke-width="0.32" stroke-linecap="round" stroke-linejoin="round"/>
<path d="M112.395 45.04V45.5663H113.263C113.263 45.5663 113 45.1453 112.395 45.04Z" fill="#231F20"/>
<path d="M112.212 45.04V45.5137H111.935V45.7374H111.527C111.527 45.7374 111.514 45.1585 112.212 45.04Z" fill="#231F20"/>
<path d="M113.316 45.7368H112.816V46.6052H113.343C113.343 46.6052 113.553 46.2105 113.303 45.7368" fill="#231F20"/>
<path d="M112.133 45.7627V46.039H111.383V46.3153H112.133V46.6048H112.659V45.7627H112.133Z" fill="#231F20"/>
<path d="M113.263 46.7769H112.395V47.3163C112.395 47.3163 112.868 47.369 113.263 46.7769Z" fill="#231F20"/>
<path d="M112.212 46.8164V47.3164C112.212 47.3164 111.685 47.1585 111.527 46.8164V46.5532H111.896V46.8032H112.212V46.8164Z" fill="#231F20"/>
<path d="M45.3532 36.75H42.6953V39.4079H45.3532V36.75Z" stroke="#231F20" stroke-width="0.32" stroke-linecap="round" stroke-linejoin="round"/>
<path d="M44.0938 36.9077V37.434H44.9622C44.9622 37.434 44.699 37.013 44.0938 36.9077Z" fill="#231F20"/>
<path d="M43.9088 36.9077V37.3814H43.6325V37.6051H43.2246C43.2246 37.6051 43.2115 37.0261 43.9088 36.9077Z" fill="#231F20"/>
<path d="M45.0254 37.6045H44.5254V38.4729H45.0517C45.0517 38.4729 45.2622 38.0782 45.0122 37.6045" fill="#231F20"/>
<path d="M43.8418 37.6318V37.9082H43.0918V38.1845H43.8418V38.4739H44.355V37.6318H43.8418Z" fill="#231F20"/>
<path d="M44.9622 38.6445H44.0938V39.184C44.0938 39.184 44.5674 39.2366 44.9622 38.6445Z" fill="#231F20"/>
<path d="M43.9088 38.6841V39.1841C43.9088 39.1841 43.3825 39.0262 43.2246 38.6841V38.4209H43.593V38.6709H43.9088V38.6841Z" fill="#231F20"/>
<path d="M45.0505 60.8423H42.3926V63.5002H45.0505V60.8423Z" stroke="#231F20" stroke-width="0.32" stroke-linecap="round" stroke-linejoin="round"/>
<path d="M43.791 60.9873V61.5136H44.6594C44.6594 61.5136 44.3963 61.0926 43.791 60.9873Z" fill="#231F20"/>
<path d="M43.6061 60.9873V61.461H43.3298V61.6847H42.9219C42.9219 61.6847 42.9087 61.1057 43.6061 60.9873Z" fill="#231F20"/>
<path d="M44.7227 61.6846H44.2227V62.553H44.749C44.749 62.553 44.9595 62.1583 44.7095 61.6846" fill="#231F20"/>
<path d="M43.5391 61.7104V61.9868H42.7891V62.2762H43.5391V62.5526H44.0522V61.7104H43.5391Z" fill="#231F20"/>
<path d="M44.6594 62.7241H43.791V63.2636C43.791 63.2636 44.2647 63.3162 44.6594 62.7241Z" fill="#231F20"/>
<path d="M43.6061 62.7636V63.2636C43.6061 63.2636 43.0798 63.1057 42.9219 62.7636V62.5005H43.2903V62.7505H43.6061V62.7636Z" fill="#231F20"/>
<path d="M56.6325 60.8423H53.9746V63.5002H56.6325V60.8423Z" stroke="#231F20" stroke-width="0.32" stroke-linecap="round" stroke-linejoin="round"/>
<path d="M55.3672 60.9873V61.5136H56.2356C56.2356 61.5136 55.9725 61.0926 55.3672 60.9873Z" fill="#231F20"/>
<path d="M55.1823 60.9873V61.461H54.9059V61.6847H54.498C54.498 61.6847 54.4981 61.1057 55.1823 60.9873Z" fill="#231F20"/>
<path d="M56.2891 61.6841H55.7891V62.5525H56.3154C56.3154 62.5525 56.5259 62.1578 56.2759 61.6841" fill="#231F20"/>
<path d="M55.1035 61.71V61.9863H54.3535V62.2758H55.1035V62.5521H55.6298V61.71H55.1035Z" fill="#231F20"/>
<path d="M56.2356 62.7241H55.3672V63.2636C55.3672 63.2636 55.8409 63.3162 56.2356 62.7241Z" fill="#231F20"/>
<path d="M55.1823 62.7636V63.2636C55.1823 63.2636 54.6559 63.1057 54.498 62.7636V62.5005H54.8665V62.7505H55.1823V62.7636Z" fill="#231F20"/>
<path d="M67.8161 62.7886H65.1582V65.4465H67.8161V62.7886Z" stroke="#231F20" stroke-width="0.32" stroke-linecap="round" stroke-linejoin="round"/>
<path d="M66.5645 62.9482V63.4746H67.4329C67.4329 63.4746 67.1697 63.0535 66.5645 62.9482Z" fill="#231F20"/>
<path d="M66.3795 62.9482V63.4219H66.1032V63.6456H65.6953C65.6953 63.6456 65.6822 63.0667 66.3795 62.9482Z" fill="#231F20"/>
<path d="M67.4863 63.6445H66.9863V64.5129H67.5126C67.5126 64.5129 67.7232 64.1182 67.4732 63.6445" fill="#231F20"/>
<path d="M66.3047 63.6709V63.9341H65.5547V64.2235H66.3047V64.513H66.831V63.6709H66.3047Z" fill="#231F20"/>
<path d="M67.4212 64.6851H66.5527V65.2245C66.5527 65.2245 67.0264 65.2772 67.4212 64.6851Z" fill="#231F20"/>
<path d="M66.3795 64.7241V65.2241C66.3795 65.2241 65.8532 65.0662 65.6953 64.7241V64.4609H66.0637V64.7109H66.3795V64.7241Z" fill="#231F20"/>
<path d="M79.5114 61.9614H76.8535V64.6193H79.5114V61.9614Z" stroke="#231F20" stroke-width="0.32" stroke-linecap="round" stroke-linejoin="round"/>
<path d="M78.248 62.1191V62.6455H79.1165C79.1165 62.6455 78.8533 62.2244 78.248 62.1191Z" fill="#231F20"/>
<path d="M78.067 62.1191V62.5928H77.7907V62.8165H77.3828C77.3828 62.8165 77.3697 62.2376 78.067 62.1191Z" fill="#231F20"/>
<path d="M79.1699 62.8159H78.6699V63.6843H79.1962C79.1962 63.6843 79.4068 63.2896 79.1568 62.8159" fill="#231F20"/>
<path d="M77.9883 62.8418V63.1181H77.2383V63.3944H77.9883V63.6839H78.5146V62.8418H77.9883Z" fill="#231F20"/>
<path d="M79.1048 63.856H78.2363V64.3954C78.2363 64.3954 78.71 64.4481 79.1048 63.856Z" fill="#231F20"/>
<path d="M78.067 63.8955V64.3955C78.067 64.3955 77.5407 64.2376 77.3828 63.8955V63.6323H77.7512V63.8823H78.067V63.8955Z" fill="#231F20"/>
<path d="M90.777 62.8691H88.1191V65.527H90.777V62.8691Z" stroke="#231F20" stroke-width="0.32" stroke-linecap="round" stroke-linejoin="round"/>
<path d="M89.5137 63.0269V63.5532H90.3821C90.3821 63.5532 90.1189 63.1321 89.5137 63.0269Z" fill="#231F20"/>
<path d="M89.3287 63.0269V63.5005H89.0524V63.7242H88.6445C88.6445 63.7242 88.6445 63.1453 89.3287 63.0269Z" fill="#231F20"/>
<path d="M90.4355 63.7241H89.9355V64.5925H90.4619C90.4619 64.5925 90.6724 64.1978 90.4224 63.7241" fill="#231F20"/>
<path d="M89.25 63.7495V64.0258H88.5V64.3022H89.25V64.5916H89.7763V63.7495H89.25Z" fill="#231F20"/>
<path d="M90.3821 64.7637H89.5137V65.3031C89.5137 65.3031 89.9874 65.3558 90.3821 64.7637Z" fill="#231F20"/>
<path d="M89.3287 64.8032V65.3032C89.3287 65.3032 88.8024 65.1453 88.6445 64.8032V64.54H89.013V64.79H89.3287V64.8032Z" fill="#231F20"/>
<path d="M102.277 61.8809H99.6191V64.5388H102.277V61.8809Z" stroke="#231F20" stroke-width="0.32" stroke-linecap="round" stroke-linejoin="round"/>
<path d="M101.014 62.04V62.5664H101.882C101.882 62.5664 101.619 62.1453 101.014 62.04Z" fill="#231F20"/>
<path d="M100.829 62.04V62.5137H100.552V62.7374H100.145C100.145 62.7374 100.131 62.1585 100.829 62.04Z" fill="#231F20"/>
<path d="M101.936 62.7373H101.436V63.6057H101.962C101.962 63.6057 102.172 63.211 101.922 62.7373" fill="#231F20"/>
<path d="M100.748 62.7627V63.039H99.998V63.3153H100.748V63.6048H101.274V62.7627H100.748Z" fill="#231F20"/>
<path d="M101.882 63.7769H101.014V64.3163C101.014 64.3163 101.487 64.369 101.882 63.7769Z" fill="#231F20"/>
<path d="M100.829 63.8164V64.3164C100.829 64.3164 100.302 64.1585 100.145 63.8164V63.5532H100.513V63.8032H100.829V63.8164Z" fill="#231F20"/>
<path d="M113.658 61.3291H111V63.987H113.658V61.3291Z" stroke="#231F20" stroke-width="0.32" stroke-linecap="round" stroke-linejoin="round"/>
<path d="M112.395 61.4863V62.0126H113.263C113.263 62.0126 113 61.5916 112.395 61.4863Z" fill="#231F20"/>
<path d="M112.212 61.4863V61.96H111.935V62.1837H111.527C111.527 62.1837 111.514 61.6047 112.212 61.4863Z" fill="#231F20"/>
<path d="M113.316 62.1704H112.816V63.0388H113.343C113.343 63.0388 113.553 62.6441 113.303 62.1704" fill="#231F20"/>
<path d="M112.133 62.2109V62.4741H111.383V62.7636H112.133V63.0399H112.659V62.2109H112.133Z" fill="#231F20"/>
<path d="M113.263 63.2104H112.395V63.7499C112.395 63.7499 112.868 63.8026 113.263 63.2104Z" fill="#231F20"/>
<path d="M112.212 63.25V63.75C112.212 63.75 111.685 63.5921 111.527 63.25V62.9868H111.896V63.2368H112.212V63.25Z" fill="#231F20"/>
<path d="M125.039 60.7104H122.381V63.3683H125.039V60.7104Z" stroke="#231F20" stroke-width="0.32" stroke-linecap="round" stroke-linejoin="round"/>
<path d="M123.777 60.8682V61.3945H124.646C124.646 61.3945 124.383 60.9734 123.777 60.8682Z" fill="#231F20"/>
<path d="M123.592 60.8682V61.3418H123.316V61.5655H122.908C122.908 61.5655 122.895 60.9866 123.592 60.8682Z" fill="#231F20"/>
<path d="M124.695 61.5654H124.195V62.4338H124.722C124.722 62.4338 124.932 62.0391 124.682 61.5654" fill="#231F20"/>
<path d="M123.514 61.5928V61.8691H122.764V62.1454H123.514V62.4349H124.04V61.5928H123.514Z" fill="#231F20"/>
<path d="M124.646 62.605H123.777V63.1444C123.777 63.1444 124.251 63.1971 124.646 62.605Z" fill="#231F20"/>
<path d="M123.592 62.6445V63.1445C123.592 63.1445 123.066 62.9866 122.908 62.6445V62.3813H123.277V62.6313H123.592V62.6445Z" fill="#231F20"/>
<path d="M113.355 69.3691H110.697V72.027H113.355V69.3691Z" stroke="#231F20" stroke-width="0.32" stroke-linecap="round" stroke-linejoin="round"/>
<path d="M112.092 69.5269V70.0532H112.96C112.96 70.0532 112.697 69.6321 112.092 69.5269Z" fill="#231F20"/>
<path d="M111.909 69.5269V70.0005H111.633V70.2242H111.225C111.225 70.2242 111.225 69.6453 111.909 69.5269Z" fill="#231F20"/>
<path d="M113.014 70.2236H112.514V71.0921H113.04C113.04 71.0921 113.251 70.6973 113.001 70.2236" fill="#231F20"/>
<path d="M111.83 70.2495V70.5258H111.08V70.8153H111.83V71.0916H112.356V70.2495H111.83Z" fill="#231F20"/>
<path d="M112.96 71.2637H112.092V71.8032C112.092 71.8032 112.565 71.8558 112.96 71.2637Z" fill="#231F20"/>
<path d="M111.909 71.3032V71.8032C111.909 71.8032 111.383 71.6453 111.225 71.3032V71.04H111.593V71.29H111.909V71.3032Z" fill="#231F20"/>
<path d="M107.883 73.8428H105.225V76.5007H107.883V73.8428Z" stroke="#231F20" stroke-width="0.32" stroke-linecap="round" stroke-linejoin="round"/>
<path d="M106.619 74V74.5263H107.488C107.488 74.5263 107.224 74.1053 106.619 74Z" fill="#231F20"/>
<path d="M106.432 74.0005V74.4742H106.156V74.6979H105.748C105.748 74.6979 105.748 74.1189 106.432 74.0005Z" fill="#231F20"/>
<path d="M107.553 74.6973H107.053V75.5657H107.579C107.579 75.5657 107.79 75.1709 107.54 74.6973" fill="#231F20"/>
<path d="M106.367 74.7231V74.9995H105.617V75.2758H106.367V75.5652H106.88V74.7231H106.367Z" fill="#231F20"/>
<path d="M107.486 75.7373H106.617V76.2768C106.617 76.2768 107.091 76.3294 107.486 75.7373Z" fill="#231F20"/>
<path d="M106.432 75.7768V76.2768C106.432 76.2768 105.906 76.1189 105.748 75.7768V75.5137H106.116V75.7637H106.432V75.7768Z" fill="#231F20"/>
<path d="M101.974 86.4468H99.3164V89.1047H101.974V86.4468Z" stroke="#231F20" stroke-width="0.32" stroke-linecap="round" stroke-linejoin="round"/>
<path d="M100.711 86.606V87.1323H101.579C101.579 87.1323 101.316 86.7112 100.711 86.606Z" fill="#231F20"/>
<path d="M100.526 86.606V87.0796H100.25V87.3033H99.8418C99.8418 87.3033 99.8418 86.7244 100.526 86.606Z" fill="#231F20"/>
<path d="M101.633 87.3032H101.133V88.1716H101.659C101.659 88.1716 101.87 87.7769 101.62 87.3032" fill="#231F20"/>
<path d="M100.447 87.3286V87.6049H99.6973V87.8812H100.447V88.1707H100.974V87.3286H100.447Z" fill="#231F20"/>
<path d="M101.579 88.3413H100.711V88.8808C100.711 88.8808 101.185 88.9334 101.579 88.3413Z" fill="#231F20"/>
<path d="M100.526 88.3823V88.8823C100.526 88.8823 99.9997 88.7244 99.8418 88.3823V88.1191H100.21V88.3691H100.526V88.3823Z" fill="#231F20"/>
<path d="M102.158 94.6177H99.5V97.2756H102.158V94.6177Z" stroke="#231F20" stroke-width="0.32" stroke-linecap="round" stroke-linejoin="round"/>
<path d="M100.895 94.7769V95.3032H101.763C101.763 95.3032 101.5 94.8821 100.895 94.7769Z" fill="#231F20"/>
<path d="M100.712 94.7769V95.2505H100.435V95.4742H100.027C100.027 95.4742 100.014 94.8953 100.712 94.7769Z" fill="#231F20"/>
<path d="M101.816 95.4736H101.316V96.3421H101.843C101.843 96.3421 102.053 95.9473 101.803 95.4736" fill="#231F20"/>
<path d="M100.633 95.5V95.7763H99.8965V96.0526H100.633V96.3421H101.16V95.5H100.633Z" fill="#231F20"/>
<path d="M101.763 96.5137H100.895V97.0531C100.895 97.0531 101.368 97.1058 101.763 96.5137Z" fill="#231F20"/>
<path d="M100.712 96.5532V97.0532C100.712 97.0532 100.185 96.8953 100.027 96.5532V96.29H100.396V96.54H100.712V96.5532Z" fill="#231F20"/>
<path d="M90.6579 103.526H88V106.184H90.6579V103.526Z" stroke="#231F20" stroke-width="0.32" stroke-linecap="round" stroke-linejoin="round"/>
<path d="M89.3945 103.671V104.197H90.263C90.263 104.197 89.9998 103.776 89.3945 103.671Z" fill="#231F20"/>
<path d="M89.2096 103.671V104.145H88.9333V104.368H88.5254C88.5254 104.368 88.5254 103.789 89.2096 103.671Z" fill="#231F20"/>
<path d="M90.3281 104.368H89.8281V105.236H90.3544C90.3544 105.236 90.565 104.841 90.315 104.368" fill="#231F20"/>
<path d="M89.1465 104.395V104.671H88.3965V104.961H89.1465V105.237H89.6597V104.395H89.1465Z" fill="#231F20"/>
<path d="M90.263 105.408H89.3945V105.947C89.3945 105.947 89.8682 106 90.263 105.408Z" fill="#231F20"/>
<path d="M89.2096 105.447V105.947C89.2096 105.947 88.6833 105.789 88.5254 105.447V105.184H88.8938V105.434H89.2096V105.447Z" fill="#231F20"/>
<path d="M90.6579 95.0137H88V97.6716H90.6579V95.0137Z" stroke="#231F20" stroke-width="0.32" stroke-linecap="round" stroke-linejoin="round"/>
<path d="M89.3945 95.1714V95.6977H90.263C90.263 95.6977 89.9998 95.2766 89.3945 95.1714Z" fill="#231F20"/>
<path d="M89.2096 95.1714V95.6451H88.9333V95.8688H88.5254C88.5254 95.8688 88.5254 95.2898 89.2096 95.1714Z" fill="#231F20"/>
<path d="M90.3281 95.8687H89.8281V96.7371H90.3544C90.3544 96.7371 90.565 96.3423 90.315 95.8687" fill="#231F20"/>
<path d="M89.1465 95.894V96.1703H88.3965V96.4467H89.1465V96.7361H89.6597V95.894H89.1465Z" fill="#231F20"/>
<path d="M90.263 96.9082H89.3945V97.4477C89.3945 97.4477 89.8682 97.5003 90.263 96.9082Z" fill="#231F20"/>
<path d="M89.2096 96.9477V97.4477C89.2096 97.4477 88.6833 97.2898 88.5254 96.9477V96.6846H88.8938V96.9346H89.2096V96.9477Z" fill="#231F20"/>
<path d="M90.6579 86.6704H88V89.3283H90.6579V86.6704Z" stroke="#231F20" stroke-width="0.32" stroke-linecap="round" stroke-linejoin="round"/>
<path d="M89.3945 86.8154V87.3418H90.263C90.263 87.3418 89.9998 86.9207 89.3945 86.8154Z" fill="#231F20"/>
<path d="M89.2096 86.8154V87.2891H88.9333V87.5128H88.5254C88.5254 87.5128 88.5254 86.9339 89.2096 86.8154Z" fill="#231F20"/>
<path d="M90.3281 87.5142H89.8281V88.3826H90.3544C90.3544 88.3826 90.565 87.9878 90.315 87.5142" fill="#231F20"/>
<path d="M89.1465 87.5396V87.8159H88.3965V88.1054H89.1465V88.3817H89.6597V87.5396H89.1465Z" fill="#231F20"/>
<path d="M90.263 88.5522H89.3945V89.0917C89.3945 89.0917 89.8682 89.1444 90.263 88.5522Z" fill="#231F20"/>
<path d="M89.2096 88.5918V89.0918C89.2096 89.0918 88.6833 88.9339 88.5254 88.5918V88.3286H88.8938V88.5786H89.2096V88.5918Z" fill="#231F20"/>
<path d="M90.6579 79.4204H88V82.0783H90.6579V79.4204Z" stroke="#231F20" stroke-width="0.32" stroke-linecap="round" stroke-linejoin="round"/>
<path d="M89.3945 79.5796V80.1059H90.263C90.263 80.1059 89.9998 79.6849 89.3945 79.5796Z" fill="#231F20"/>
<path d="M89.2096 79.5796V80.0533H88.9333V80.277H88.5254C88.5254 80.277 88.5254 79.698 89.2096 79.5796Z" fill="#231F20"/>
<path d="M90.3281 80.2764H89.8281V81.1448H90.3544C90.3544 81.1448 90.565 80.7501 90.315 80.2764" fill="#231F20"/>
<path d="M89.1465 80.3022V80.5786H88.3965V80.8549H89.1465V81.1444H89.6597V80.3022H89.1465Z" fill="#231F20"/>
<path d="M90.263 81.3164H89.3945V81.8559C89.3945 81.8559 89.8682 81.9085 90.263 81.3164Z" fill="#231F20"/>
<path d="M89.2096 81.3559V81.8559C89.2096 81.8559 88.6833 81.698 88.5254 81.3559V81.0928H88.8938V81.3428H89.2096V81.3559Z" fill="#231F20"/>
<path d="M90.6579 71.3281H88V73.986H90.6579V71.3281Z" stroke="#231F20" stroke-width="0.32" stroke-linecap="round" stroke-linejoin="round"/>
<path d="M89.3945 71.4731V71.9995H90.263C90.263 71.9995 89.9998 71.5784 89.3945 71.4731Z" fill="#231F20"/>
<path d="M89.2096 71.4731V71.9468H88.9333V72.1705H88.5254C88.5254 72.1705 88.5254 71.5916 89.2096 71.4731Z" fill="#231F20"/>
<path d="M90.3281 72.1719H89.8281V73.0403H90.3544C90.3544 73.0403 90.565 72.6456 90.315 72.1719" fill="#231F20"/>
<path d="M89.1465 72.1973V72.4736H88.3965V72.7631H89.1465V73.0394H89.6597V72.1973H89.1465Z" fill="#231F20"/>
<path d="M90.263 73.21H89.3945V73.7494C89.3945 73.7494 89.8682 73.8021 90.263 73.21Z" fill="#231F20"/>
<path d="M89.2096 73.2495V73.7495C89.2096 73.7495 88.6833 73.5916 88.5254 73.2495V72.9863H88.8938V73.2363H89.2096V73.2495Z" fill="#231F20"/>
<path d="M101.92 71.3281H99.2617V73.986H101.92V71.3281Z" stroke="#231F20" stroke-width="0.32" stroke-linecap="round" stroke-linejoin="round"/>
<path d="M100.658 71.4731V71.9995H101.527C101.527 71.9995 101.263 71.5784 100.658 71.4731Z" fill="#231F20"/>
<path d="M100.473 71.4731V71.9468H100.197V72.1705H99.7891C99.7891 72.1705 99.7759 71.5916 100.473 71.4731Z" fill="#231F20"/>
<path d="M101.578 72.1719H101.078V73.0403H101.604C101.604 73.0403 101.815 72.6456 101.565 72.1719" fill="#231F20"/>
<path d="M100.408 72.1973V72.4736H99.6582V72.7631H100.408V73.0394H100.921V72.1973H100.408Z" fill="#231F20"/>
<path d="M101.527 73.21H100.658V73.7494C100.658 73.7494 101.132 73.8021 101.527 73.21Z" fill="#231F20"/>
<path d="M100.473 73.2495V73.7495C100.473 73.7495 99.947 73.5916 99.7891 73.2495V72.9863H100.157V73.2363H100.473V73.2495Z" fill="#231F20"/>
<path d="M101.92 78.5122H99.2617V81.1701H101.92V78.5122Z" stroke="#231F20" stroke-width="0.32" stroke-linecap="round" stroke-linejoin="round"/>
<path d="M100.658 78.6719V79.1982H101.527C101.527 79.1982 101.263 78.7771 100.658 78.6719Z" fill="#231F20"/>
<path d="M100.473 78.6719V79.1456H100.197V79.3693H99.7891C99.7891 79.3693 99.7759 78.7903 100.473 78.6719Z" fill="#231F20"/>
<path d="M101.578 79.3687H101.078V80.2371H101.604C101.604 80.2371 101.815 79.8423 101.565 79.3687" fill="#231F20"/>
<path d="M100.408 79.3945V79.6709H99.6582V79.9472H100.408V80.2366H100.921V79.3945H100.408Z" fill="#231F20"/>
<path d="M101.527 80.4087H100.658V80.9482C100.658 80.9482 101.132 81.0008 101.527 80.4087Z" fill="#231F20"/>
<path d="M100.473 80.4482V80.9482C100.473 80.9482 99.947 80.7903 99.7891 80.4482V80.1851H100.157V80.4351H100.473V80.4482Z" fill="#231F20"/>
<path d="M56.5798 85.5664H53.9219V88.2243H56.5798V85.5664Z" stroke="#231F20" stroke-width="0.32" stroke-linecap="round" stroke-linejoin="round"/>
<path d="M55.3164 85.7241V86.2504H56.1848C56.1848 86.2504 55.9217 85.8294 55.3164 85.7241Z" fill="#231F20"/>
<path d="M55.1315 85.7236V86.1973H54.8552V86.421H54.4473C54.4473 86.421 54.4341 85.8421 55.1315 85.7236Z" fill="#231F20"/>
<path d="M56.2519 86.4209H55.752V87.2893H56.2783C56.2783 87.2893 56.4888 86.8946 56.2388 86.4209" fill="#231F20"/>
<path d="M55.0645 86.4468V86.7231H54.3145V87.0126H55.0645V87.2889H55.5776V86.4468H55.0645Z" fill="#231F20"/>
<path d="M56.1848 87.4609H55.3164V88.0004C55.3164 88.0004 55.7901 88.053 56.1848 87.4609Z" fill="#231F20"/>
<path d="M55.1315 87.5V88C55.1315 88 54.6052 87.8421 54.4473 87.5V87.2368H54.8157V87.4868H55.1315V87.5Z" fill="#231F20"/>
<path d="M56.7634 93.75H54.1055V96.4079H56.7634V93.75Z" stroke="#231F20" stroke-width="0.32" stroke-linecap="round" stroke-linejoin="round"/>
<path d="M55.5137 93.895V94.4213H56.3821C56.3821 94.4213 56.1189 94.0003 55.5137 93.895Z" fill="#231F20"/>
<path d="M55.3268 93.895V94.3687H55.0505V94.5924H54.6426C54.6426 94.5924 54.6294 94.0134 55.3268 93.895Z" fill="#231F20"/>
<path d="M56.4336 94.5923H55.9336V95.4607H56.4599C56.4599 95.4607 56.6704 95.066 56.4204 94.5923" fill="#231F20"/>
<path d="M55.248 94.6177V94.894H54.498V95.1835H55.248V95.4598H55.7744V94.6177H55.248Z" fill="#231F20"/>
<path d="M56.3684 95.6313H55.5V96.1708C55.5 96.1708 55.9737 96.2235 56.3684 95.6313Z" fill="#231F20"/>
<path d="M55.3268 95.6714V96.1714C55.3268 96.1714 54.8005 96.0135 54.6426 95.6714V95.4082H55.011V95.6582H55.3268V95.6714Z" fill="#231F20"/>
<path d="M56.5251 70.4478H53.8672V73.1057H56.5251V70.4478Z" stroke="#231F20" stroke-width="0.32" stroke-linecap="round" stroke-linejoin="round"/>
<path d="M55.2773 70.6055V71.1318H56.1458C56.1458 71.1318 55.8826 70.7107 55.2773 70.6055Z" fill="#231F20"/>
<path d="M55.0924 70.6055V71.0792H54.8161V71.3028H54.4082C54.4082 71.3028 54.3951 70.7239 55.0924 70.6055Z" fill="#231F20"/>
<path d="M56.1953 71.3022H55.6953V72.1707H56.2216C56.2216 72.1707 56.4321 71.7759 56.1821 71.3022" fill="#231F20"/>
<path d="M55.0137 71.3281V71.6044H54.2637V71.8808H55.0137V72.1702H55.5268V71.3281H55.0137Z" fill="#231F20"/>
<path d="M56.1301 72.3423H55.2617V72.8818C55.2617 72.8818 55.7354 72.9344 56.1301 72.3423Z" fill="#231F20"/>
<path d="M55.0924 72.3818V72.8818C55.0924 72.8818 54.5661 72.7239 54.4082 72.3818V72.1187H54.7766V72.3687H55.0924V72.3818Z" fill="#231F20"/>
<path d="M56.5251 77.6445H53.8672V80.3024H56.5251V77.6445Z" stroke="#231F20" stroke-width="0.32" stroke-linecap="round" stroke-linejoin="round"/>
<path d="M55.2773 77.7896V78.3159H56.1458C56.1458 78.3159 55.8826 77.8948 55.2773 77.7896Z" fill="#231F20"/>
<path d="M55.0924 77.7896V78.2632H54.8161V78.4869H54.4082C54.4082 78.4869 54.3951 77.908 55.0924 77.7896Z" fill="#231F20"/>
<path d="M56.1953 78.4868H55.6953V79.3552H56.2216C56.2216 79.3552 56.4321 78.9605 56.1821 78.4868" fill="#231F20"/>
<path d="M55.0137 78.5122V78.7885H54.2637V79.078H55.0137V79.3543H55.5268V78.5122H55.0137Z" fill="#231F20"/>
<path d="M56.1301 79.5264H55.2617V80.0658C55.2617 80.0658 55.7354 80.1185 56.1301 79.5264Z" fill="#231F20"/>
<path d="M55.0924 79.5659V80.0659C55.0924 80.0659 54.5661 79.908 54.4082 79.5659V79.3027H54.7766V79.5527H55.0924V79.5659Z" fill="#231F20"/>
<path d="M45.5661 69.3418H42.9082V71.9997H45.5661V69.3418Z" stroke="#231F20" stroke-width="0.32" stroke-linecap="round" stroke-linejoin="round"/>
<path d="M44.3027 69.4995V70.0258H45.1712C45.1712 70.0258 44.908 69.6048 44.3027 69.4995Z" fill="#231F20"/>
<path d="M44.1178 69.4995V69.9732H43.8415V70.1969H43.4336C43.4336 70.1969 43.4336 69.6179 44.1178 69.4995Z" fill="#231F20"/>
<path d="M45.2246 70.1968H44.7246V71.0652H45.2509C45.2509 71.0652 45.4615 70.6705 45.2115 70.1968" fill="#231F20"/>
<path d="M44.0391 70.2241V70.5004H43.2891V70.7768H44.0391V71.0662H44.5654V70.2241H44.0391Z" fill="#231F20"/>
<path d="M45.1712 71.2368H44.3027V71.7763C44.3027 71.7763 44.7764 71.8289 45.1712 71.2368Z" fill="#231F20"/>
<path d="M44.1178 71.2758V71.7759C44.1178 71.7759 43.5915 71.618 43.4336 71.2758V71.0127H43.802V71.2627H44.1178V71.2758Z" fill="#231F20"/>
<path d="M68.3278 71.1851H65.6699V73.8429H68.3278V71.1851Z" stroke="#231F20" stroke-width="0.32" stroke-linecap="round" stroke-linejoin="round"/>
<path d="M67.0664 71.3428V71.8691H67.9348C67.9348 71.8691 67.6717 71.448 67.0664 71.3428Z" fill="#231F20"/>
<path d="M66.8815 71.3428V71.8165H66.6052V72.0401H66.1973C66.1973 72.0401 66.1973 71.4612 66.8815 71.3428Z" fill="#231F20"/>
<path d="M67.998 72.0396H67.498V72.908H68.0244C68.0244 72.908 68.2349 72.5132 67.9849 72.0396" fill="#231F20"/>
<path d="M66.8164 72.0659V72.3422H66.0664V72.6185H66.8164V72.908H67.3296V72.0659H66.8164Z" fill="#231F20"/>
<path d="M67.9348 73.0796H67.0664V73.6191C67.0664 73.6191 67.5401 73.6717 67.9348 73.0796Z" fill="#231F20"/>
<path d="M66.8815 73.1191V73.6191C66.8815 73.6191 66.3552 73.4612 66.1973 73.1191V72.856H66.5657V73.106H66.8815V73.1191Z" fill="#231F20"/>
<path d="M68.0251 95.749H65.3672V98.4069H68.0251V95.749Z" stroke="#231F20" stroke-width="0.32" stroke-linecap="round" stroke-linejoin="round"/>
<path d="M66.7656 95.9087V96.435H67.6341C67.6341 96.435 67.3709 96.014 66.7656 95.9087Z" fill="#231F20"/>
<path d="M66.5788 95.9087V96.3824H66.3024V96.6061H65.8945C65.8945 96.6061 65.8814 96.0271 66.5788 95.9087Z" fill="#231F20"/>
<path d="M67.6953 96.6055H67.1953V97.4739H67.7216C67.7216 97.4739 67.9322 97.0792 67.6822 96.6055" fill="#231F20"/>
<path d="M66.5137 96.6313V96.8945H65.7637V97.184H66.5137V97.4603H67.0268V96.6313H66.5137Z" fill="#231F20"/>
<path d="M67.6341 97.6455H66.7656V98.185C66.7656 98.185 67.2393 98.2376 67.6341 97.6455Z" fill="#231F20"/>
<path d="M66.5787 97.685V98.185C66.5787 98.185 66.0524 98.0272 65.8945 97.685V97.4219H66.263V97.6719H66.5787V97.685Z" fill="#231F20"/>
<path d="M68.2126 103.922H65.5547V106.58H68.2126V103.922Z" stroke="#231F20" stroke-width="0.32" stroke-linecap="round" stroke-linejoin="round"/>
<path d="M66.9473 104.08V104.606H67.8157C67.8157 104.606 67.5525 104.185 66.9473 104.08Z" fill="#231F20"/>
<path d="M66.7623 104.08V104.553H66.486V104.777H66.0781C66.0781 104.777 66.065 104.198 66.7623 104.08Z" fill="#231F20"/>
<path d="M67.8828 104.776H67.3828V105.645H67.9091C67.9091 105.645 68.1197 105.25 67.8697 104.776" fill="#231F20"/>
<path d="M66.6973 104.802V105.079H65.9473V105.355H66.6973V105.644H67.2104V104.802H66.6973Z" fill="#231F20"/>
<path d="M67.8157 105.816H66.9473V106.356C66.9473 106.356 67.421 106.409 67.8157 105.816Z" fill="#231F20"/>
<path d="M66.7623 105.856V106.356C66.7623 106.356 66.236 106.198 66.0781 105.856V105.593H66.4465V105.843H66.7623V105.856Z" fill="#231F20"/>
<path d="M67.9743 80.6182H65.3164V83.276H67.9743V80.6182Z" stroke="#231F20" stroke-width="0.32" stroke-linecap="round" stroke-linejoin="round"/>
<path d="M66.709 80.7759V81.3022H67.5774C67.5774 81.3022 67.3142 80.8811 66.709 80.7759Z" fill="#231F20"/>
<path d="M66.5241 80.7759V81.2496H66.2478V81.4732H65.8399C65.8399 81.4732 65.8267 80.8943 66.5241 80.7759Z" fill="#231F20"/>
<path d="M67.6445 81.4741H67.1445V82.3425H67.6708C67.6708 82.3425 67.8814 81.9478 67.6314 81.4741" fill="#231F20"/>
<path d="M66.4629 81.5V81.7763H65.7129V82.0658H66.4629V82.3421H66.976V81.5H66.4629Z" fill="#231F20"/>
<path d="M67.5774 82.5127H66.709V83.0522C66.709 83.0522 67.1827 83.1048 67.5774 82.5127Z" fill="#231F20"/>
<path d="M66.524 82.5517V83.0517C66.524 83.0517 65.9977 82.8939 65.8398 82.5517V82.2886H66.2083V82.5386H66.524V82.5517Z" fill="#231F20"/>
<path d="M67.9743 87.8164H65.3164V90.4743H67.9743V87.8164Z" stroke="#231F20" stroke-width="0.32" stroke-linecap="round" stroke-linejoin="round"/>
<path d="M66.709 87.9741V88.5004H67.5774C67.5774 88.5004 67.3142 88.0794 66.709 87.9741Z" fill="#231F20"/>
<path d="M66.5241 87.9741V88.4478H66.2478V88.6715H65.8399C65.8399 88.6715 65.8267 88.0925 66.5241 87.9741Z" fill="#231F20"/>
<path d="M67.6445 88.6709H67.1445V89.5393H67.6708C67.6708 89.5393 67.8814 89.1446 67.6314 88.6709" fill="#231F20"/>
<path d="M66.4629 88.6973V88.9736H65.7129V89.2499H66.4629V89.5394H66.976V88.6973H66.4629Z" fill="#231F20"/>
<path d="M67.5774 89.7114H66.709V90.2509C66.709 90.2509 67.1827 90.3035 67.5774 89.7114Z" fill="#231F20"/>
<path d="M66.524 89.7505V90.2505C66.524 90.2505 65.9977 90.0926 65.8398 89.7505V89.4873H66.2083V89.7373H66.524V89.7505Z" fill="#231F20"/>
<path d="M79.8024 110.842H77.1445V113.5H79.8024V110.842Z" stroke="#231F20" stroke-width="0.32" stroke-linecap="round" stroke-linejoin="round"/>
<path d="M78.5391 110.987V111.513H79.4075C79.4075 111.513 79.1443 111.092 78.5391 110.987Z" fill="#231F20"/>
<path d="M78.3561 110.987V111.461H78.0798V111.684H77.6719C77.6719 111.684 77.6587 111.105 78.3561 110.987Z" fill="#231F20"/>
<path d="M79.459 111.684H78.959V112.552H79.4853C79.4853 112.552 79.6958 112.158 79.4458 111.684" fill="#231F20"/>
<path d="M78.2773 111.711V111.988H77.5273V112.277H78.2773V112.554H78.8037V111.711H78.2773Z" fill="#231F20"/>
<path d="M79.4075 112.724H78.5391V113.263C78.5391 113.263 79.0127 113.316 79.4075 112.724Z" fill="#231F20"/>
<path d="M78.3561 112.763V113.263C78.3561 113.263 77.8298 113.105 77.6719 112.763V112.5H78.0403V112.75H78.3561V112.763Z" fill="#231F20"/>
<path d="M79.8024 102.092H77.1445V104.75H79.8024V102.092Z" stroke="#231F20" stroke-width="0.32" stroke-linecap="round" stroke-linejoin="round"/>
<path d="M78.5391 102.25V102.776H79.4075C79.4075 102.776 79.1443 102.355 78.5391 102.25Z" fill="#231F20"/>
<path d="M78.3561 102.25V102.723H78.0798V102.947H77.6719C77.6719 102.947 77.6587 102.368 78.3561 102.25Z" fill="#231F20"/>
<path d="M79.459 102.948H78.959V103.816H79.4853C79.4853 103.816 79.6958 103.421 79.4458 102.948" fill="#231F20"/>
<path d="M78.2773 102.974V103.25H77.5273V103.526H78.2773V103.816H78.8037V102.974H78.2773Z" fill="#231F20"/>
<path d="M79.4075 103.986H78.5391V104.526C78.5391 104.526 79.0127 104.578 79.4075 103.986Z" fill="#231F20"/>
<path d="M78.3561 104.026V104.526C78.3561 104.526 77.8298 104.368 77.6719 104.026V103.763H78.0403V104.013H78.3561V104.026Z" fill="#231F20"/>
<path d="M79.8024 94.0527H77.1445V96.7106H79.8024V94.0527Z" stroke="#231F20" stroke-width="0.32" stroke-linecap="round" stroke-linejoin="round"/>
<path d="M78.5391 94.2104V94.7368H79.4075C79.4075 94.7368 79.1443 94.3157 78.5391 94.2104Z" fill="#231F20"/>
<path d="M78.3561 94.2104V94.6841H78.0798V94.9078H77.6719C77.6719 94.9078 77.6587 94.3289 78.3561 94.2104Z" fill="#231F20"/>
<path d="M79.459 94.9072H78.959V95.7756H79.4853C79.4853 95.7756 79.6958 95.3809 79.4458 94.9072" fill="#231F20"/>
<path d="M78.2773 94.9346V95.2109H77.5273V95.4872H78.2773V95.7767H78.8037V94.9346H78.2773Z" fill="#231F20"/>
<path d="M79.4075 95.9473H78.5391V96.4867C78.5391 96.4867 79.0127 96.5394 79.4075 95.9473Z" fill="#231F20"/>
<path d="M78.3561 95.9868V96.4868C78.3561 96.4868 77.8298 96.3289 77.6719 95.9868V95.7236H78.0403V95.9736H78.3561V95.9868Z" fill="#231F20"/>
<path d="M79.8024 85.8286H77.1445V88.4865H79.8024V85.8286Z" stroke="#231F20" stroke-width="0.32" stroke-linecap="round" stroke-linejoin="round"/>
<path d="M78.5391 85.9863V86.5126H79.4075C79.4075 86.5126 79.1443 86.0916 78.5391 85.9863Z" fill="#231F20"/>
<path d="M78.3561 85.9863V86.46H78.0798V86.6837H77.6719C77.6719 86.6837 77.6587 86.1047 78.3561 85.9863Z" fill="#231F20"/>
<path d="M79.459 86.6851H78.959V87.5535H79.4853C79.4853 87.5535 79.6958 87.1587 79.4458 86.6851" fill="#231F20"/>
<path d="M78.2773 86.7109V86.9873H77.5273V87.2636H78.2773V87.553H78.8037V86.7109H78.2773Z" fill="#231F20"/>
<path d="M79.4075 87.7231H78.5391V88.2626C78.5391 88.2626 79.0127 88.3152 79.4075 87.7231Z" fill="#231F20"/>
<path d="M78.3561 87.7627V88.2627C78.3561 88.2627 77.8298 88.1048 77.6719 87.7627V87.4995H78.0403V87.7495H78.3561V87.7627Z" fill="#231F20"/>
<path d="M79.8024 78.3159H77.1445V80.9738H79.8024V78.3159Z" stroke="#231F20" stroke-width="0.32" stroke-linecap="round" stroke-linejoin="round"/>
<path d="M78.5391 78.4736V78.9999H79.4075C79.4075 78.9999 79.1443 78.5789 78.5391 78.4736Z" fill="#231F20"/>
<path d="M78.3561 78.4736V78.9473H78.0798V79.171H77.6719C77.6719 79.171 77.6587 78.5921 78.3561 78.4736Z" fill="#231F20"/>
<path d="M79.459 79.1709H78.959V80.0393H79.4853C79.4853 80.0393 79.6958 79.6446 79.4458 79.1709" fill="#231F20"/>
<path d="M78.2773 79.1982V79.4745H77.5273V79.7509H78.2773V80.0403H78.8037V79.1982H78.2773Z" fill="#231F20"/>
<path d="M79.4075 80.2104H78.5391V80.7499C78.5391 80.7499 79.0127 80.8026 79.4075 80.2104Z" fill="#231F20"/>
<path d="M78.3561 80.25V80.75C78.3561 80.75 77.8298 80.5921 77.6719 80.25V79.9868H78.0403V80.2368H78.3561V80.25Z" fill="#231F20"/>
<path d="M79.8024 70.1836H77.1445V72.8415H79.8024V70.1836Z" stroke="#231F20" stroke-width="0.32" stroke-linecap="round" stroke-linejoin="round"/>
<path d="M78.5391 70.3413V70.8676H79.4075C79.4075 70.8676 79.1443 70.4466 78.5391 70.3413Z" fill="#231F20"/>
<path d="M78.3561 70.3413V70.815H78.0798V71.0387H77.6719C77.6719 71.0387 77.6587 70.4597 78.3561 70.3413Z" fill="#231F20"/>
<path d="M79.459 71.04H78.959V71.9084H79.4853C79.4853 71.9084 79.6958 71.5137 79.4458 71.04" fill="#231F20"/>
<path d="M78.2773 71.0659V71.3422H77.5273V71.6185H78.2773V71.908H78.8037V71.0659H78.2773Z" fill="#231F20"/>
<path d="M79.4075 72.0781H78.5391V72.6176C78.5391 72.6176 79.0127 72.6702 79.4075 72.0781Z" fill="#231F20"/>
<path d="M78.3561 72.1176V72.6177C78.3561 72.6177 77.8298 72.4598 77.6719 72.1176V71.8545H78.0403V72.1045H78.3561V72.1176Z" fill="#231F20"/>
<path d="M56.738 36.75H54.0801V39.4079H56.738V36.75Z" stroke="#231F20" stroke-width="0.32" stroke-linecap="round" stroke-linejoin="round"/>
<path d="M55.4746 36.9077V37.434H56.343C56.343 37.434 56.0799 37.013 55.4746 36.9077Z" fill="#231F20"/>
<path d="M55.2897 36.9077V37.3814H55.0134V37.6051H54.6055C54.6055 37.6051 54.6055 37.0261 55.2897 36.9077Z" fill="#231F20"/>
<path d="M56.4082 37.6045H55.9082V38.4729H56.4345C56.4345 38.4729 56.645 38.0782 56.395 37.6045" fill="#231F20"/>
<path d="M55.2227 37.6318V37.9082H54.4727V38.1845H55.2227V38.4739H55.7358V37.6318H55.2227Z" fill="#231F20"/>
<path d="M56.343 38.6445H55.4746V39.184C55.4746 39.184 55.9483 39.2366 56.343 38.6445Z" fill="#231F20"/>
<path d="M55.2897 38.6841V39.1841C55.2897 39.1841 54.7634 39.0262 54.6055 38.6841V38.4209H54.9739V38.6709H55.2897V38.6841Z" fill="#231F20"/>
<path d="M68.1188 36.75H65.4609V39.4079H68.1188V36.75Z" stroke="#231F20" stroke-width="0.32" stroke-linecap="round" stroke-linejoin="round"/>
<path d="M66.8555 36.9077V37.434H67.7239C67.7239 37.434 67.4607 37.013 66.8555 36.9077Z" fill="#231F20"/>
<path d="M66.6705 36.9077V37.3814H66.3942V37.6051H65.9863C65.9863 37.6051 65.9863 37.0261 66.6705 36.9077Z" fill="#231F20"/>
<path d="M67.7891 37.6045H67.2891V38.4729H67.8154C67.8154 38.4729 68.0259 38.0782 67.7759 37.6045" fill="#231F20"/>
<path d="M66.6074 37.6318V37.9082H65.8574V38.1845H66.6074V38.4739H67.1206V37.6318H66.6074Z" fill="#231F20"/>
<path d="M67.7239 38.6445H66.8555V39.184C66.8555 39.184 67.3292 39.2366 67.7239 38.6445Z" fill="#231F20"/>
<path d="M66.6705 38.6841V39.1841C66.6705 39.1841 66.1442 39.0262 65.9863 38.6841V38.4209H66.3547V38.6709H66.6705V38.6841Z" fill="#231F20"/>
<path d="M79.5114 36.75H76.8535V39.4079H79.5114V36.75Z" stroke="#231F20" stroke-width="0.32" stroke-linecap="round" stroke-linejoin="round"/>
<path d="M78.248 36.9077V37.434H79.1165C79.1165 37.434 78.8533 37.013 78.248 36.9077Z" fill="#231F20"/>
<path d="M78.067 36.9077V37.3814H77.7907V37.6051H77.3828C77.3828 37.6051 77.3697 37.0261 78.067 36.9077Z" fill="#231F20"/>
<path d="M79.1699 37.6045H78.6699V38.4729H79.1962C79.1962 38.4729 79.4068 38.0782 79.1568 37.6045" fill="#231F20"/>
<path d="M77.9883 37.6318V37.9082H77.2383V38.1845H77.9883V38.4739H78.5146V37.6318H77.9883Z" fill="#231F20"/>
<path d="M79.1048 38.6445H78.2363V39.184C78.2363 39.184 78.71 39.2366 79.1048 38.6445Z" fill="#231F20"/>
<path d="M78.067 38.6841V39.1841C78.067 39.1841 77.5407 39.0262 77.3828 38.6841V38.4209H77.7512V38.6709H78.067V38.6841Z" fill="#231F20"/>
<path d="M90.8962 36.75H88.2383V39.4079H90.8962V36.75Z" stroke="#231F20" stroke-width="0.32" stroke-linecap="round" stroke-linejoin="round"/>
<path d="M89.6328 36.9077V37.434H90.5012C90.5012 37.434 90.2381 37.013 89.6328 36.9077Z" fill="#231F20"/>
<path d="M89.4479 36.9077V37.3814H89.1716V37.6051H88.7637C88.7637 37.6051 88.7505 37.0261 89.4479 36.9077Z" fill="#231F20"/>
<path d="M90.5547 37.6045H90.0547V38.4729H90.581C90.581 38.4729 90.7915 38.0782 90.5415 37.6045" fill="#231F20"/>
<path d="M89.3691 37.6318V37.9082H88.6191V38.1845H89.3691V38.4739H89.8955V37.6318H89.3691Z" fill="#231F20"/>
<path d="M90.5012 38.6445H89.6328V39.184C89.6328 39.184 90.1065 39.2366 90.5012 38.6445Z" fill="#231F20"/>
<path d="M89.4479 38.6841V39.1841C89.4479 39.1841 88.9216 39.0262 88.7637 38.6841V38.4209H89.1321V38.6709H89.4479V38.6841Z" fill="#231F20"/>
<path d="M102.277 36.75H99.6191V39.4079H102.277V36.75Z" stroke="#231F20" stroke-width="0.32" stroke-linecap="round" stroke-linejoin="round"/>
<path d="M101.014 36.9077V37.434H101.882C101.882 37.434 101.619 37.013 101.014 36.9077Z" fill="#231F20"/>
<path d="M100.829 36.9077V37.3814H100.552V37.6051H100.145C100.145 37.6051 100.131 37.0261 100.829 36.9077Z" fill="#231F20"/>
<path d="M101.936 37.6045H101.436V38.4729H101.962C101.962 38.4729 102.172 38.0782 101.922 37.6045" fill="#231F20"/>
<path d="M100.748 37.6318V37.9082H99.998V38.1845H100.748V38.4739H101.274V37.6318H100.748Z" fill="#231F20"/>
<path d="M101.882 38.6445H101.014V39.184C101.014 39.184 101.487 39.2366 101.882 38.6445Z" fill="#231F20"/>
<path d="M100.829 38.6841V39.1841C100.829 39.1841 100.302 39.0262 100.145 38.6841V38.4209H100.513V38.6709H100.829V38.6841Z" fill="#231F20"/>
<path d="M113.658 36.75H111V39.4079H113.658V36.75Z" stroke="#231F20" stroke-width="0.32" stroke-linecap="round" stroke-linejoin="round"/>
<path d="M112.395 36.9077V37.434H113.263C113.263 37.434 113 37.013 112.395 36.9077Z" fill="#231F20"/>
<path d="M112.212 36.9077V37.3814H111.935V37.6051H111.527C111.527 37.6051 111.514 37.0261 112.212 36.9077Z" fill="#231F20"/>
<path d="M113.316 37.6045H112.816V38.4729H113.343C113.343 38.4729 113.553 38.0782 113.303 37.6045" fill="#231F20"/>
<path d="M112.133 37.6318V37.9082H111.383V38.1845H112.133V38.4739H112.659V37.6318H112.133Z" fill="#231F20"/>
<path d="M113.263 38.6445H112.395V39.184C112.395 39.184 112.868 39.2366 113.263 38.6445Z" fill="#231F20"/>
<path d="M112.212 38.6841V39.1841C112.212 39.1841 111.685 39.0262 111.527 38.6841V38.4209H111.896V38.6709H112.212V38.6841Z" fill="#231F20"/>
<path d="M58.2618 35.3678C58.2618 35.3678 58.3539 35.4073 58.3802 35.4205C58.3802 35.5126 58.3539 35.5915 58.3539 35.6705C58.3539 35.71 58.3539 35.7494 58.3539 35.7889C58.3539 35.8942 58.3276 36.0126 58.3145 36.131C58.2487 36.1047 58.1829 36.0915 58.1302 36.0652C58.0381 36.0258 57.9592 35.9994 57.8802 35.96C57.4855 35.7494 57.0645 35.5389 56.6302 35.3152C55.7881 34.8547 54.9197 34.3284 54.025 33.8021C53.1434 33.2757 52.2223 32.7626 51.275 32.2494C50.8145 32.0257 50.3539 31.8152 49.8671 31.6178L49.0776 31.3678L48.8802 31.3021H48.8276L48.8013 31.2757H48.7223L48.3408 31.1968C46.2092 30.881 43.9592 30.8547 41.8671 30.4205C41.3539 30.3152 40.8276 30.1836 40.3408 29.9731C40.1039 29.881 39.8276 29.7363 39.6039 29.6179C39.3934 29.4863 39.196 29.3547 38.9855 29.2231C38.6039 28.9731 38.2092 28.7231 37.8408 28.4863C37.4724 28.2494 37.0776 28.0521 36.7224 27.8547C36.1039 27.4994 35.5118 27.1705 34.9855 26.8942C34.8934 26.8415 34.8145 26.8021 34.7355 26.7626C34.196 26.4731 33.7223 26.2231 33.3145 26.0126C33.3802 26.0126 33.446 26.0126 33.4987 25.9863H33.525C33.6171 25.9863 33.696 25.9863 33.775 25.96C34.1039 26.1047 34.4855 26.2626 34.8934 26.4205C35.1434 26.5257 35.4066 26.631 35.6829 26.7494C36.0908 26.9205 36.5381 27.1178 36.9855 27.3415C37.3671 27.5126 37.7618 27.6836 38.1566 27.9073C38.5513 28.131 38.9592 28.3678 39.3934 28.6047C39.5908 28.71 39.7881 28.8415 39.9987 28.9468C40.2092 29.0521 40.3802 29.131 40.6039 29.1968C41.0513 29.3679 41.5381 29.4336 42.025 29.5389C44.0118 29.881 46.2355 29.8547 48.4723 30.1705L48.9066 30.2494H48.9987L49.0381 30.2757H49.1039L49.1566 30.3152L49.3539 30.3679L50.1434 30.6047C50.6697 30.8284 51.2223 31.0784 51.7223 31.3415C52.196 31.6179 52.6829 31.8679 53.1566 32.1442C53.6171 32.4336 54.0645 32.71 54.5118 32.9863C55.3802 33.5389 56.2223 34.0784 57.025 34.5915C57.4329 34.8284 57.8276 35.0652 58.196 35.2889C58.2224 35.2889 58.2487 35.3152 58.275 35.3284" fill="#231F20"/>
<path d="M62.2247 36.4731C62.2247 36.4731 62.1984 36.5784 62.1984 36.6442C62.1984 36.6968 62.1721 36.7626 62.1589 36.8152C62.0405 36.8152 61.9089 36.8152 61.7773 36.8152C61.8037 36.7494 61.8037 36.6836 61.83 36.631C61.83 36.5784 61.8563 36.5126 61.8563 36.46C61.9747 36.46 62.0931 36.4863 62.1984 36.4863" fill="#231F20"/>
<path d="M63.8034 36.1574L63.7771 36.1837C63.6587 36.3285 63.4745 36.4601 63.2508 36.5653L63.2113 36.4601L63.1719 36.3548C63.4219 36.289 63.6192 36.1706 63.7508 36.039C63.7508 36.039 63.7771 36.0127 63.7903 36.0127V36.1048L63.8298 36.1443L63.8034 36.1574Z" fill="#231F20"/>
<path d="M63.7773 36.0139C63.7773 35.9086 63.7773 35.8033 63.7773 35.6981C63.7773 35.6981 63.7773 35.606 63.7773 35.5796V35.356C63.7773 35.5796 63.7773 35.7902 63.8037 36.0139H63.7773Z" fill="#231F20"/>
<path d="M80.5137 52.0266C78.7768 52.895 78.1058 53.4213 76.0268 54.7371C74.1847 55.9082 70.9742 56.5661 69.3689 52.9608C68.0795 50.0397 65.4742 44.2634 64.3163 39.5134C64.2768 39.3818 64.2505 39.2503 64.211 39.1055C64.1716 38.895 64.1189 38.7108 64.0795 38.5003C64.04 38.3292 64.0137 38.1582 63.9874 37.9871C63.9874 37.9608 63.9874 37.9476 63.9874 37.9213C63.8821 37.4082 63.8163 36.9213 63.79 36.4476C63.79 36.3555 63.79 36.2766 63.7637 36.1845C63.7637 36.1582 63.7637 36.145 63.7637 36.1187L63.79 36.1582L64.1584 36.724L65.0268 38.0924C65.0268 38.0924 65.0531 38.145 65.0663 38.1845L65.0926 38.2897C65.1321 38.6055 65.211 38.9608 65.2637 39.3029C65.3295 39.6582 65.4479 39.9871 65.54 40.3292C65.6321 40.6713 65.7242 41.0134 65.8689 41.3424L66.2637 42.3424L66.3558 42.5924L66.4874 42.8292L66.7637 43.3029C66.8426 43.4871 66.961 43.5924 67.0663 43.7371C67.1716 43.8687 67.2637 44.0266 67.3953 44.1318L67.4742 44.1976C66.4479 41.4608 65.5531 38.5924 65.3821 36.3555C65.1453 33.5397 65.5663 32.5529 66.7374 32.0924C66.7374 32.0266 66.711 31.9476 66.6979 31.8819C66.6584 31.7108 66.6189 31.5661 66.5926 31.395C66.7637 31.3555 66.9084 31.3292 67.0663 31.3029C67.1058 31.4608 67.1453 31.6187 67.1716 31.7766C67.1716 31.8292 67.1979 31.895 67.211 31.9476C67.2505 31.9476 67.3163 31.9213 67.3558 31.9213C68.4084 31.6845 69.3031 31.6319 70.29 31.4608C70.29 31.3819 70.29 31.3029 70.2637 31.224C70.2637 31.0792 70.2374 30.9476 70.2242 30.8029C70.3821 30.7634 70.54 30.724 70.6979 30.6845C70.6979 30.8555 70.7242 31.0134 70.7374 31.1845C70.7374 31.2503 70.7374 31.3161 70.7637 31.3818C71.4347 31.2503 72.1584 31.0529 73.0005 30.7108C73.2505 30.6055 73.4874 30.5266 73.6979 30.4608C73.6716 30.2371 73.6453 30.0134 73.6058 29.7897V29.7503C73.8953 29.6845 74.1453 29.645 74.3821 29.645C75.9084 29.6187 76.54 30.6976 77.4216 32.0661C77.4216 32.0661 80.9216 40.6713 83.8821 45.5924C86.29 49.6055 82.7637 50.8818 80.5005 52.0134" fill="#231F20"/>
<path d="M80.4208 50.355C78.855 51.1313 78.2498 51.605 76.3945 52.7893C74.7498 53.8419 71.855 54.434 70.434 51.1971C69.7629 49.6577 68.6577 47.2366 67.684 44.6314C67.6314 44.4998 67.5787 44.3682 67.5129 44.2103C66.4866 41.4603 65.5919 38.5919 65.4208 36.3682C65.184 33.5524 65.6051 32.5656 66.7761 32.105C66.9208 32.0524 67.0787 31.9998 67.2366 31.9603C67.2761 31.9603 67.3287 31.934 67.3814 31.934C68.434 31.6971 69.3287 31.6445 70.3156 31.4735C70.4735 31.4471 70.6314 31.434 70.7893 31.3945C71.4603 31.2629 72.184 31.0656 73.0261 30.7235C73.2761 30.6314 73.5129 30.5393 73.7235 30.4735C73.9998 30.3814 74.2498 30.3156 74.4603 30.2629C75.3682 30.0787 75.9077 30.2629 76.3682 30.6708C76.4077 30.7103 76.4603 30.7761 76.5129 30.8419C76.8156 31.1577 77.0919 31.5656 77.4208 32.105C77.4208 32.105 77.9472 33.4735 78.7366 35.4077C78.7761 35.4735 78.7893 35.5524 78.8287 35.6182C79.9735 38.4077 81.684 42.2761 83.2235 44.8287C85.4077 48.434 82.4603 49.355 80.4208 50.3682" fill="white"/>
<path d="M73.6827 27.5653L74.8932 34.1837L67.9985 44.6047L67.6037 44.4732L66.8406 43.9469L64.9853 40.2626L63.3406 35.3153L59.459 36.0521L50.709 30.8679L51.0248 26.46L58.4985 23.2363L73.6827 27.5653Z" fill="white"/>
<path d="M84.5128 49.3824C84.1971 49.9745 83.6971 50.4219 83.1576 50.7903C82.6313 51.1719 82.0655 51.4614 81.4997 51.7377L80.6444 52.1456L79.8286 52.6061C79.276 52.9088 78.7102 53.1982 78.1839 53.5403L76.5918 54.5535C76.0786 54.8956 75.5129 55.2377 74.9076 55.4482C73.7102 55.8956 72.2892 55.9614 71.1576 55.2772C70.0129 54.6061 69.4208 53.3561 68.9602 52.2114C68.4602 51.0666 67.9602 49.8956 67.4734 48.7377C66.9865 47.5798 66.5392 46.3956 66.0918 45.2114C65.6708 44.0272 65.2365 42.843 64.8944 41.6193L64.6181 40.7114L64.3944 39.7903C64.3681 39.6982 64.355 39.6193 64.3418 39.5403C64.3023 39.4087 64.276 39.2772 64.2365 39.1324C64.1839 38.9219 64.1313 38.6982 64.0786 38.4745V38.4482C64.0392 38.3035 64.026 38.1456 64.0129 38.0008C64.0129 37.9745 64.0129 37.9614 64.0129 37.9351C63.9471 37.4745 63.8813 37.0009 63.8418 36.5272C63.8944 36.9877 63.9865 37.4614 64.0523 37.9219C64.0786 38.2377 64.1576 38.5403 64.2234 38.8561C64.2234 38.9351 64.2629 39.0009 64.276 39.0666C64.3286 39.3035 64.3813 39.5272 64.4471 39.7772L64.6839 40.6982L64.9734 41.593C65.3286 42.8035 65.776 43.9877 66.1971 45.1719C66.6576 46.343 67.1181 47.514 67.6181 48.6851C68.105 49.843 68.6313 51.0008 69.1313 52.1456C69.3813 52.7245 69.6313 53.3035 69.9734 53.8166C70.3023 54.3298 70.7497 54.7903 71.276 55.093C72.3418 55.7377 73.6839 55.6719 74.8286 55.2245C75.4208 55.014 75.9207 54.6851 76.4602 54.3298L78.0523 53.3035C78.5786 52.9482 79.1444 52.6587 79.6839 52.3561L80.5129 51.8824L81.3681 51.4614C82.4602 50.9087 83.6313 50.3166 84.2365 49.264C84.5392 48.7377 84.605 48.1324 84.4997 47.5403C84.3944 46.9351 84.1313 46.3956 83.8287 45.8298L82.0392 42.4877C81.4208 41.3956 80.9339 40.2245 80.3944 39.093C79.855 37.9482 79.3155 36.8035 78.8286 35.6456C78.7892 35.5798 78.776 35.5009 78.7365 35.4351C78.2628 34.3561 77.8023 33.2772 77.3681 32.1719C77.0918 31.7377 76.8155 31.2772 76.5129 30.8693C76.4602 30.8166 76.4207 30.7508 76.3681 30.7114C76.2497 30.5666 76.1181 30.4219 75.9734 30.3166C75.8813 30.2245 75.776 30.1456 75.6576 30.0798C75.5523 30.0009 75.4339 29.9745 75.3155 29.9088C75.0786 29.8298 74.8286 29.7772 74.5786 29.764C74.526 29.764 74.4734 29.764 74.4076 29.764C74.3286 29.764 74.2497 29.764 74.1839 29.764C74.0523 29.764 73.9207 29.7903 73.8023 29.8035C73.7497 29.8035 73.6839 29.8298 73.6313 29.843V29.8035C73.6313 29.8035 73.6313 29.7772 73.6313 29.764C73.6839 29.7377 73.7497 29.7377 73.8023 29.7245C73.9207 29.6982 74.0523 29.6982 74.1971 29.6851C74.276 29.6851 74.3418 29.6851 74.4207 29.6851H74.5918C74.855 29.6851 75.1181 29.7377 75.3813 29.8166C75.4997 29.8824 75.6313 29.9219 75.7497 29.9877C75.855 30.0535 75.9734 30.1324 76.0655 30.2245C76.276 30.3956 76.4471 30.593 76.6313 30.7903C76.9602 31.2114 77.2365 31.6587 77.526 32.0798V32.1061C78.026 33.264 78.526 34.4219 79.0392 35.5666C79.526 36.7245 80.0655 37.8693 80.605 39.0009C81.1707 40.1324 81.6576 41.3035 82.2892 42.3824L84.0918 45.6982C84.3944 46.2377 84.6971 46.843 84.8155 47.4877C84.9208 48.1324 84.855 48.843 84.526 49.4219" fill="#231F20"/>
<path d="M72.7634 41.6177C72.6844 41.3546 72.1186 39.3941 71.3555 36.5651C71.1713 35.8151 70.8949 34.973 70.7239 34.0914C70.5397 33.2756 70.4081 32.3809 70.316 31.473C70.316 31.3941 70.316 31.3151 70.2897 31.2362C70.2897 31.0914 70.2634 30.9599 70.2502 30.8151C70.1713 29.9599 70.0923 29.1046 69.8686 28.2756C69.7765 28.0388 69.7239 27.7625 69.6186 27.5783L69.4476 27.223C69.3818 27.1178 69.316 27.0256 69.2502 26.9072C68.987 26.5125 68.6449 26.0783 68.316 25.6835C67.6713 24.8546 66.9871 24.052 66.316 23.2756C65.6318 22.4862 64.9607 21.723 64.316 20.973C63.0134 19.4862 61.816 18.0914 60.7897 16.8677C59.7765 15.6441 58.9607 14.6046 58.4213 13.8546C58.1449 13.4862 57.9476 13.1835 57.816 12.973C57.6844 12.7625 57.6055 12.6572 57.6055 12.6572C57.6055 12.6572 57.6844 12.7625 57.8423 12.9599C57.987 13.1572 58.2107 13.4467 58.5002 13.802C59.0792 14.5256 59.9607 15.4993 61.0134 16.6835C62.0792 17.8414 63.3292 19.223 64.6581 20.6835C65.3292 21.4204 66.0002 22.1835 66.6976 22.9599C67.3818 23.7362 68.0792 24.5256 68.7502 25.3677C69.0792 25.7888 69.3949 26.1967 69.6976 26.6704C69.8686 26.9072 69.987 27.1309 70.0923 27.3809C70.2107 27.6572 70.2634 27.8941 70.3423 28.1704C70.5792 29.0388 70.6449 29.8941 70.7239 30.723C70.7239 30.8941 70.7502 31.052 70.7634 31.223C70.7634 31.2888 70.7634 31.3546 70.7897 31.4204C70.8686 32.3283 70.9607 33.1967 71.1186 34.0256C71.2634 34.9204 71.487 35.7362 71.6449 36.4993C72.3028 39.3941 72.7107 41.3941 72.7502 41.6309" fill="#231F20"/>
<path d="M69.9864 43.8683C69.9864 44.342 69.8549 44.7367 69.6575 44.8946C69.4864 45.0525 69.3417 45.0657 69.3285 45.0657C69.3285 45.0657 69.4864 45.0657 69.6443 44.8814C69.7101 44.8157 69.7496 44.7236 69.8022 44.6183C69.8022 44.6183 69.8285 44.6183 69.8022 44.592C69.868 44.4078 69.9075 44.1578 69.8812 43.8814C69.8812 43.4209 69.7233 42.8683 69.5259 42.2499C69.3417 41.6578 69.1312 40.9472 68.9206 40.1972C68.9206 40.1709 68.8943 40.1709 68.8943 40.1578C68.4338 38.6314 67.9338 36.842 67.4206 34.8946C67.197 33.9867 66.9996 33.0525 66.7759 32.092C66.7759 32.0262 66.7364 31.9472 66.7364 31.8815C66.697 31.7104 66.6575 31.5657 66.6312 31.3946C66.4338 30.5262 66.2759 29.6578 65.947 28.8551C65.5654 27.8946 64.868 27.1446 64.1443 26.3815C63.447 25.5788 62.7364 24.8815 62.0259 24.1709C60.6049 22.763 59.3022 21.4209 58.2101 20.2499C57.118 19.092 56.2364 18.0788 55.6575 17.3551C55.368 16.9867 55.1443 16.6841 54.9996 16.4867C54.868 16.2893 54.7891 16.1841 54.7891 16.1841C54.7891 16.1841 55.1049 16.6051 55.7364 17.2893C56.368 17.9736 57.3022 18.9209 58.4338 20.0393C59.5785 21.1578 60.9206 22.4472 62.3549 23.8288C63.0785 24.5262 63.8285 25.263 64.5259 26.0393C65.2364 26.7762 66.0259 27.6315 66.4206 28.6841C66.7759 29.5525 66.9338 30.4604 67.0917 31.3288C67.1312 31.4867 67.1706 31.6446 67.197 31.8025C67.197 31.8551 67.2233 31.9078 67.2364 31.9736C67.4601 32.9341 67.6312 33.8946 67.8549 34.8025C68.3154 36.7367 68.7496 38.5525 69.1706 40.092C69.3417 40.8025 69.4996 41.4472 69.6312 42.013C69.7891 42.5393 69.9075 43.0788 69.947 43.5525C69.947 43.6578 69.9733 43.7762 69.9733 43.8683" fill="#231F20"/>
<path d="M61.9735 32.3163C61.9735 32.3163 61.8551 32.0795 61.6577 31.6584C61.4735 31.2374 61.184 30.6321 60.8419 29.9216C60.684 29.5663 60.4998 29.1716 60.3156 28.7637C60.1314 28.3558 59.9472 27.8952 59.6972 27.5268C59.4472 27.1584 59.0919 26.8295 58.684 26.5268C58.2761 26.2242 57.8419 25.9347 57.4077 25.6321C56.5393 25.04 55.6182 24.5137 54.8156 23.9084C54.4077 23.6189 54.0261 23.3163 53.684 23.0137C53.3287 22.7242 53.0261 22.4216 52.7366 22.1321C52.4472 21.8558 52.2366 21.5531 52.0129 21.3163C51.8024 21.0795 51.6445 20.8426 51.5261 20.6321C51.2761 20.2374 51.1445 20.0137 51.1445 20.0137C51.1445 20.0137 51.3156 20.2242 51.5919 20.5795C51.7235 20.7637 51.8945 20.9874 52.1314 21.1979C52.3682 21.4216 52.5919 21.6979 52.9077 21.9347C53.2103 22.1847 53.5129 22.4874 53.8814 22.7374C54.2366 23.0137 54.6182 23.29 55.0393 23.5531C55.8682 24.0926 56.763 24.6189 57.6708 25.1979C58.1182 25.4874 58.5656 25.7637 58.9866 26.0795C59.4208 26.3953 59.8419 26.7505 60.1314 27.211C60.434 27.6716 60.5787 28.1189 60.7498 28.54C60.9077 28.9742 61.0656 29.3689 61.1972 29.7505C61.3287 30.1321 61.4472 30.4742 61.5524 30.7768C61.6314 31.0926 61.7103 31.3558 61.7761 31.5795C61.8945 32.0268 61.9603 32.29 61.9603 32.29" fill="#231F20"/>
<path d="M75.6978 40.3547C75.6978 40.3547 75.0267 40.6178 74.6978 41.1705C74.3688 41.7231 75.1452 44.4336 75.6715 44.802C76.1978 45.1705 77.0399 45.0915 76.6846 43.5652C76.2109 41.5126 75.9609 39.8284 75.6978 40.3547Z" fill="#231F20"/>
<path d="M72.4995 42.4209C72.4995 42.4209 71.9205 43.1446 71.5784 43.434C71.0258 43.9077 71.5652 46.184 72.0784 46.7104C72.5916 47.2367 73.1179 47.0788 73.1968 46.3683C73.2758 45.6577 72.7626 41.8946 72.4995 42.4209Z" fill="#231F20"/>
<path d="M68.7751 40.0784C68.7751 40.0784 68.6041 40.381 68.0646 40.6968C67.5251 41.0126 67.4857 41.631 67.8278 42.46C68.1699 43.2889 68.8278 45.631 69.7225 44.71C70.6041 43.7889 68.8936 39.8152 68.7883 40.0784" fill="#231F20"/>
<path d="M60.5119 42.407C60.4066 42.4991 60.3277 42.4465 60.2619 42.3149C59.9593 41.6965 60.104 39.1175 60.7224 38.8675C61.0251 38.7491 61.2356 38.6307 61.3803 38.5517C61.5251 38.4596 61.5909 38.407 61.5909 38.407C61.8935 37.8807 61.1172 41.8807 60.5119 42.3938" fill="#231F20"/>
<path d="M56.3568 11C56.3568 11 56.1989 10.8552 55.87 10.6184C55.541 10.3816 55.0673 10.0394 54.4094 9.72366C54.0805 9.57892 53.7121 9.43418 53.3173 9.38155C52.9094 9.31576 52.5805 9.40787 52.041 9.56576C51.541 9.7105 51.0015 9.84208 50.4226 9.97366C49.8436 10.1052 49.2384 10.2631 48.6068 10.3684C47.9752 10.4868 47.3173 10.6184 46.6331 10.75C45.9489 10.8684 45.2384 10.9737 44.5015 11.0921C43.041 11.3289 41.4884 11.4868 39.8831 11.671C39.0805 11.7763 38.2515 11.8158 37.4226 11.8816C36.5937 11.9342 35.7515 12.0395 34.8963 12.0526C34.041 12.0658 33.1857 12.0921 32.3173 12.1052C31.8831 12.1315 31.4489 12.1052 31.0147 12.0789L29.7121 12L28.3963 11.921C27.9752 11.8684 27.541 11.8158 27.1068 11.7631C26.2252 11.6447 25.2779 11.3421 24.5279 10.8158C24.3305 10.6973 24.1594 10.5526 23.9752 10.421L23.7515 10.2368L23.4884 10.0526C23.1463 9.82892 22.8042 9.53945 22.4621 9.39471C22.1068 9.23682 21.791 9.03945 21.4226 8.89471C21.0542 8.76314 20.6858 8.63155 20.3173 8.49997C19.9489 8.38155 19.5673 8.32893 19.1989 8.23682C19.0015 8.19735 18.8568 8.15787 18.62 8.11839L18.041 8.01313C17.6594 7.93418 17.291 7.89471 16.9094 7.78945C16.5279 7.68418 16.1594 7.56576 15.8042 7.4605C15.4358 7.36839 15.0936 7.22366 14.7515 7.09208C14.4094 6.9605 14.0805 6.81577 13.7515 6.68419C13.12 6.35524 12.5147 6.0526 11.9489 5.72366C9.80418 4.3026 8.00154 3.13155 6.75154 2.30261C5.50154 1.4605 4.79102 0.986816 4.79102 0.986816C4.79102 0.986816 5.54101 1.40787 6.84364 2.15787C8.14628 2.90787 10.0015 3.98682 12.2252 5.27629C12.7779 5.55261 13.3963 5.82892 14.0147 6.10524C14.6594 6.31576 15.3042 6.6184 16.0015 6.78945C16.3437 6.88156 16.6989 6.97366 17.0542 7.06577C17.4094 7.15787 17.8042 7.18419 18.1858 7.24998L18.7647 7.34208L19.3436 7.44735C19.7515 7.5263 20.1594 7.57892 20.5673 7.68418C20.9621 7.81576 21.37 7.94734 21.7647 8.07892C22.1726 8.22366 22.5673 8.43419 22.9621 8.6184C23.3831 8.78945 23.6989 9.05261 24.0542 9.26313L24.3173 9.43418L24.5937 9.63155C24.7515 9.74997 24.9094 9.8684 25.0805 9.9605C25.7384 10.3684 26.4489 10.5789 27.2647 10.6842C27.6726 10.7368 28.0936 10.7763 28.5147 10.8158L29.7779 10.8684L31.041 10.921C31.4621 10.9473 31.8831 10.9605 32.3042 10.921C33.1463 10.8947 33.9884 10.8552 34.8305 10.8289C35.6594 10.8158 36.4884 10.7105 37.3173 10.6447C38.1331 10.5658 38.9489 10.5263 39.7384 10.421C41.3305 10.2368 42.8568 10.0526 44.3173 9.82892C45.7647 9.6184 47.1463 9.43418 48.4094 9.24997C49.6726 9.0526 50.8305 8.92103 51.8568 8.73682C52.12 8.69734 52.3436 8.65787 52.6594 8.63155C52.9489 8.63155 53.2252 8.65787 53.4621 8.72366C53.9489 8.85523 54.3305 9.09208 54.6594 9.30261C55.3042 9.74997 55.7121 10.1973 55.9752 10.5C56.2384 10.8158 56.3568 10.9868 56.3568 10.9868" fill="#231F20"/>
<path d="M75.6445 38.9466C75.6445 38.9466 75.4603 38.4072 75.1708 37.4335C75.0393 36.9466 74.8156 36.3677 74.6708 35.6703C74.5261 34.9729 74.3419 34.1835 74.184 33.3414C74.0524 32.4729 73.8945 31.5519 73.7366 30.5651C73.7366 30.5387 73.7366 30.5124 73.7366 30.4729C73.6972 30.2493 73.684 30.0256 73.6445 29.8019V29.7624C73.6445 29.7624 73.6445 29.7361 73.6445 29.7229C73.5393 28.9861 73.4208 28.2361 73.3419 27.4598C73.1972 26.3808 73.1445 25.2624 72.6051 24.4203C72.5393 24.315 72.4866 24.2098 72.4077 24.1045L72.1577 23.8282C71.9998 23.6308 71.763 23.4335 71.5656 23.2361C71.1577 22.8414 70.7366 22.4335 70.3156 22.0387C68.6577 20.4203 66.9998 18.8019 65.4866 17.2361C64.7366 16.4598 64.013 15.6835 63.3419 14.9729C62.6708 14.2361 62.0393 13.5256 61.4998 12.815C61.3945 12.6703 61.2498 12.4861 61.1051 12.3414C60.9735 12.2229 60.8419 12.0914 60.6708 11.9861C60.3682 11.7624 60.0393 11.6177 59.7235 11.4993C59.0656 11.2624 58.4735 11.1703 57.9735 11.1045C56.9603 10.9993 56.3945 11.0387 56.3945 11.0387C56.3945 11.0387 56.9603 10.9335 57.9866 10.9598C58.4998 10.9861 59.1182 11.0387 59.8156 11.2361C60.1577 11.3414 60.5261 11.4729 60.8814 11.6966C61.0656 11.8019 61.2366 11.9466 61.4077 12.0914C61.5787 12.2493 61.6972 12.3808 61.8682 12.5651C62.1577 12.8808 62.4208 13.2361 62.7498 13.565C63.0656 13.894 63.4077 14.2361 63.763 14.5914C64.4735 15.2887 65.2103 16.0256 65.9998 16.7624C67.5656 18.2624 69.2498 19.8545 70.9208 21.4466C71.3419 21.8282 71.7498 22.2361 72.1708 22.6308C72.3814 22.8414 72.5919 23.0124 72.8024 23.2493L73.1182 23.6045C73.2235 23.7229 73.2893 23.8677 73.3814 23.9993C73.5656 24.2624 73.6577 24.5651 73.7761 24.8545C73.8551 25.1572 73.9472 25.4466 73.9866 25.7229C74.0919 26.3151 74.1445 26.8677 74.1972 27.394C74.2761 28.1703 74.3551 28.9335 74.434 29.6572V29.6835V29.7229C74.4603 29.9072 74.4735 30.1045 74.4866 30.2756C74.5919 31.3414 74.7103 32.3414 74.8024 33.2624C74.8814 34.1308 75.013 34.894 75.0919 35.5914C75.1577 36.2887 75.3156 36.8808 75.3945 37.3808C75.5919 38.3808 75.6708 38.9466 75.6708 38.9466" fill="#231F20"/>
<path d="M69.3026 45.0527C69.2368 45.079 69.1579 45.079 69.0921 45.079C68.7895 45.079 68.5 45.0001 68.2237 44.908L67.7105 44.658L67.671 44.6185L67.2632 44.3159C67.0921 44.2106 66.9868 44.0527 66.8421 43.9343C66.7237 43.7895 66.5526 43.658 66.4605 43.5001L66.1447 43.0527L65.9737 42.829L65.8421 42.579L65.3158 41.5922C65.1316 41.2764 64.9868 40.9343 64.8421 40.579C64.7105 40.2369 64.5395 39.8948 64.4342 39.5396C64.3947 39.3685 64.3289 39.2106 64.2763 39.0395C64.25 38.9738 64.2368 38.908 64.2237 38.829C64.1842 38.7369 64.1579 38.6317 64.1316 38.5264L64.1053 38.4869L64.0789 38.4474V38.4211L63.4868 37.0659L63.25 36.5395L63.2105 36.4343L63.1711 36.329L63.1447 36.2896C63.0395 36.0396 62.9737 35.7632 62.8684 35.4869L62.6053 34.6974C62.5263 34.4343 62.421 34.1711 62.3553 33.8948C62.2763 33.5659 62.1842 33.2238 62.1053 32.8948C62.1053 32.8948 62.1053 32.8685 62.1053 32.8553C62.0789 32.6843 62.0395 32.5001 62 32.329V32.2896C62 32.3159 62 32.3422 62.0263 32.3685C62.1974 32.8685 62.421 33.3422 62.6184 33.829C62.7237 34.079 62.8684 34.3159 62.9868 34.5659L63.3684 35.2895C63.5 35.5264 63.6053 35.7764 63.7632 36.0132L63.8026 36.079L63.8421 36.1317L64.2105 36.6974L65.0789 38.0659C65.0789 38.0659 65.1184 38.1185 65.1184 38.158L65.1447 38.2632C65.1842 38.579 65.2632 38.9343 65.3158 39.2764C65.3816 39.6317 65.5 39.9606 65.5921 40.3027C65.6842 40.6448 65.7763 40.9869 65.921 41.3159L66.3158 42.3159L66.4079 42.5659L66.5395 42.8027L66.8158 43.2764C66.8947 43.4606 67.0132 43.5659 67.1184 43.7106C67.2237 43.8422 67.3158 44.0001 67.4474 44.1053L67.5263 44.1711L67.8421 44.4738L68.3026 44.7501C68.6184 44.908 68.9737 45.0396 69.3289 45.0264" fill="#231F20"/>
<path d="M76.8154 44.6576C76.7891 44.7497 76.7759 44.855 76.7364 44.9076C76.697 44.9866 76.697 45.0129 76.6048 45.1313C76.4733 45.276 76.3022 45.3681 76.1312 45.4208C75.9601 45.4734 75.7759 45.4866 75.6048 45.4866C75.4338 45.4602 75.2759 45.4471 75.118 45.3945C74.9469 45.355 74.8022 45.276 74.6443 45.2102C74.4996 45.1181 74.4075 45.0918 74.2496 44.9734L73.868 44.6445C73.7496 44.5392 73.6575 44.3944 73.5522 44.2629C73.447 44.1444 73.368 43.9997 73.3022 43.8681C73.2364 43.7234 73.1575 43.5918 73.1048 43.4339C73.0391 43.2629 72.9864 43.0918 72.9338 42.9076C72.9733 43.3287 73.0522 43.7497 73.118 44.1708C73.1838 44.5918 73.2496 45.0129 73.2891 45.4339L73.368 46.0787C73.3943 46.1971 73.3943 46.3155 73.368 46.4339C73.368 46.5523 73.3417 46.6708 73.3022 46.7892C73.2364 47.0392 73.0391 47.2497 72.8285 47.3813C72.7233 47.4339 72.5917 47.4866 72.4864 47.5129C72.368 47.5129 72.2496 47.5523 72.118 47.5392C71.868 47.5392 71.6575 47.4997 71.4338 47.4208C71.2233 47.3418 71.0127 47.2366 70.8285 47.1181C70.6443 46.9997 70.4733 46.855 70.3154 46.6971C70.1443 46.5392 69.9996 46.3813 69.8812 46.1971C69.7364 46.026 69.6443 45.8287 69.5391 45.6445C69.4338 45.4602 69.368 45.2497 69.2891 45.0523C69.5127 45.4208 69.7364 45.776 70.0259 46.0655C70.1575 46.2234 70.3154 46.3681 70.4733 46.4866C70.6443 46.6181 70.8022 46.7234 70.9864 46.8287C71.1575 46.9339 71.3417 47.0129 71.5259 47.0787C71.7101 47.1181 71.9075 47.1708 72.1049 47.1576C72.197 47.1576 72.2759 47.1313 72.368 47.1181C72.4601 47.0918 72.5391 47.0655 72.618 47.0129C72.618 47.0129 72.6268 47.0041 72.6443 46.9866C72.7627 46.8813 72.8812 46.7892 72.9206 46.6181C72.9601 46.5392 72.9733 46.4471 72.9864 46.3681C73.0127 46.276 73.0127 46.1839 72.9864 46.0787L72.9338 45.4471C72.8943 45.026 72.8548 44.605 72.8285 44.1708C72.8022 43.7497 72.7364 43.3287 72.7496 42.8944V42.8418C72.7496 42.4602 72.7496 42.0787 72.7496 41.6971V41.605C72.9864 42.1576 73.2364 42.6839 73.5127 43.1839C73.5785 43.3023 73.6706 43.4208 73.7496 43.5392C73.8154 43.6576 73.9075 43.776 73.9864 43.8681C74.0917 43.9734 74.1575 44.0918 74.2496 44.1708L74.5654 44.4208C74.6312 44.4866 74.8022 44.5787 74.9206 44.6576C75.0259 44.6971 75.1443 44.7629 75.2627 44.8023C75.3812 44.855 75.5127 44.8813 75.6443 44.9076C75.7496 44.9076 75.8812 44.9076 75.9864 44.9076H76.0127C76.118 44.9076 76.2233 44.855 76.3154 44.8023C76.3417 44.8023 76.4075 44.6971 76.447 44.6576C76.5127 44.605 76.4864 44.5523 76.5259 44.4997C76.6049 44.4076 76.5917 44.2629 76.6312 44.1181C76.6312 43.9734 76.6312 43.8287 76.6312 43.6708C76.6706 43.7629 76.7101 43.855 76.7496 43.9734C76.7496 44.0129 76.7891 44.0655 76.7891 44.105C76.7891 44.2629 76.8548 44.4208 76.7891 44.605" fill="#231F20"/>
<path d="M62.2624 36.0659C62.2624 36.1975 62.2361 36.3423 62.223 36.4738C62.223 36.5265 62.1966 36.5791 62.1966 36.6449C62.1966 36.6975 62.1703 36.7502 62.1703 36.8159C62.1309 36.987 62.1045 37.1449 62.0651 37.3028C61.9072 38.1186 61.7493 38.9344 61.5651 39.7502L61.3019 40.9607C61.2098 41.3817 61.144 41.7633 61.0388 42.1975C60.9598 42.4607 60.7493 42.7238 60.473 42.8028C60.2098 42.908 59.9335 42.8686 59.6967 42.8028C59.223 42.6317 58.894 42.2765 58.644 41.8949C58.4072 41.5133 58.2624 41.0923 58.144 40.6712C58.0914 40.4607 58.0651 40.2633 58.0256 40.0528C57.9993 39.8291 57.9861 39.6317 57.973 39.4212C57.9203 39.0002 57.9335 38.5791 57.9335 38.1581C57.9335 37.737 57.973 37.3159 57.9993 36.8949C58.0388 36.6186 58.0782 36.3554 58.1177 36.0923C58.144 35.9738 58.1572 35.8554 58.1835 35.7502C58.2098 35.6186 58.223 35.5002 58.2624 35.3817C58.3282 35.0791 58.4203 34.7633 58.5124 34.4607C57.7493 33.6975 57.0256 32.9344 56.3414 32.1186C56.1703 31.9212 55.9861 31.7107 55.8282 31.487C55.6572 31.2765 55.4861 31.0659 55.3282 30.8291L54.8809 30.1449C54.7756 29.9475 54.6967 29.7502 54.6045 29.5528C54.1045 29.3291 53.6177 29.0791 53.1177 28.8423C52.5782 28.5791 52.0388 28.2765 51.4993 27.9738L50.6967 27.5265C50.4335 27.3949 50.1703 27.2107 49.9203 27.0528L48.3809 26.0791L50.0124 26.8686C50.2888 27.0002 50.5519 27.1449 50.8414 27.2502L51.6835 27.5923C52.2493 27.8159 52.7888 28.0396 53.3677 28.237C53.9467 28.4475 54.5124 28.6449 55.0782 28.8291C55.1835 28.8554 55.2624 28.9212 55.3019 29.0133L55.3545 29.1317L55.5651 29.8159L55.8809 30.5002C55.9993 30.737 56.1309 30.9475 56.2624 31.1844C56.394 31.4212 56.5256 31.6449 56.6703 31.8554C57.2361 32.7502 57.8545 33.6186 58.4993 34.4607C58.4335 34.7896 58.394 35.1317 58.3545 35.4475C58.3545 35.5396 58.3282 35.6186 58.3282 35.6975C58.3282 35.737 58.3282 35.7765 58.3282 35.8159C58.3282 35.9212 58.3019 36.0396 58.3019 36.1581C58.3019 36.4081 58.2756 36.6712 58.2624 36.9212C58.2624 37.3291 58.2361 37.737 58.2624 38.1449C58.2888 38.5528 58.3019 38.9607 58.3809 39.3686L58.4598 39.9607C58.4993 40.1581 58.5388 40.3686 58.5914 40.5528C58.6967 40.9344 58.8414 41.2896 59.0388 41.6186C59.2361 41.9344 59.5256 42.1975 59.8414 42.3028C59.9861 42.3423 60.1309 42.3423 60.2493 42.3028C60.394 42.2633 60.4993 42.1712 60.5388 42.0265C60.644 41.6581 60.723 41.2238 60.8151 40.8291L61.1046 39.6186C61.1967 39.2502 61.2756 38.9081 61.3545 38.5396C61.4598 38.0923 61.5651 37.6317 61.6703 37.1844C61.7098 37.0528 61.7493 36.9212 61.7756 36.7896C61.8019 36.7238 61.8151 36.658 61.8282 36.6054C61.8282 36.5528 61.8545 36.487 61.8677 36.4344C61.9072 36.2896 61.9203 36.1449 61.9467 35.987C61.9993 35.5923 62.0256 35.1844 62.0388 34.7765C62.0651 33.9738 62.0388 33.158 61.973 32.3554V32.3028C61.973 32.3028 61.973 32.3423 61.973 32.3686C62.0124 32.5396 62.0388 32.7107 62.0651 32.8949C62.0651 32.8949 62.0651 32.9212 62.0651 32.9344C62.0914 33.1317 62.1177 33.3423 62.144 33.5528C62.1967 33.9607 62.2493 34.3686 62.2493 34.7896C62.2888 35.2107 62.2493 35.6449 62.223 36.0659" fill="#231F20"/>
<path d="M48.3955 26.0656C48.3955 26.0656 47.5928 25.9998 46.1981 25.855C45.5007 25.8024 44.6455 25.7366 43.6586 25.6708C43.4086 25.6445 43.1586 25.6314 42.9086 25.6182C42.6718 25.5919 42.3823 25.6445 42.1192 25.6445C41.5928 25.6445 41.027 25.7498 40.4349 25.8156C39.2507 25.9866 38.0007 26.3156 36.6323 26.605C36.3165 26.6708 35.9744 26.7498 35.6455 26.8156C35.527 26.8419 35.4086 26.855 35.2902 26.8813C35.1849 26.9077 35.0665 26.9208 34.9481 26.9471C34.0797 27.105 33.1718 27.2235 32.2244 27.2629C30.6586 27.3156 29.0007 27.1445 27.4218 26.605C25.8691 26.0656 24.3165 25.1971 23.0402 24.3024C22.6455 24.0656 22.4086 23.9077 22.0534 23.7103L20.9876 23.1708C20.2639 22.8024 19.5402 22.434 18.856 22.0524C17.4218 21.3287 16.1191 20.5524 14.7507 19.8945C12.0402 18.5656 9.50073 17.3156 7.34283 16.2498C5.17178 15.1708 3.36914 14.2629 2.10599 13.6445C0.842828 12.9998 0.119141 12.6313 0.119141 12.6313C0.119141 12.6313 0.882301 12.9077 2.19809 13.4208C3.50072 13.9471 5.39547 14.6445 7.63231 15.5919C9.88231 16.5129 12.4744 17.6182 15.2244 18.8945C15.9218 19.1971 16.6192 19.5392 17.3165 19.8945C18.0139 20.2498 18.7244 20.6182 19.4349 20.9735C20.1455 21.355 20.856 21.7103 21.5665 22.0524L22.6586 22.605C23.0139 22.7892 23.4349 23.0524 23.7376 23.2498C25.106 24.184 26.3823 24.9208 27.8165 25.4471C29.2376 25.9471 30.7244 26.184 32.1849 26.1577C32.5534 26.1577 32.9086 26.1313 33.2639 26.1182C33.3297 26.1182 33.3955 26.1182 33.4481 26.0919H33.4744C33.5665 26.0919 33.6455 26.0919 33.7113 26.0656C36.0534 25.855 38.277 25.2761 40.3034 25.1313C40.9086 25.0919 41.5139 25.0392 42.0797 25.0919C42.3692 25.0919 42.6191 25.0919 42.9086 25.1313C43.1586 25.1708 43.4218 25.2235 43.6586 25.2498C44.6323 25.4208 45.4744 25.5656 46.1718 25.6708C47.5665 25.9471 48.356 26.1314 48.356 26.1314" fill="#231F20"/>
</g>
<defs>
<clipPath id="clip0_21421_2390">
<rect width="150" height="128.947" fill="white"/>
</clipPath>
</defs>
</svg>
