<svg width="24" height="25" viewBox="0 0 24 25" fill="none" xmlns="http://www.w3.org/2000/svg">
<path d="M17.4982 19.0645H8.99821C7.70007 19.0641 6.4276 18.7028 5.32298 18.0209C4.21837 17.339 3.32513 16.3634 2.74308 15.2031C2.16103 14.0427 1.9131 12.7434 2.027 11.4503C2.1409 10.1571 2.61214 8.92116 3.38805 7.88044C4.16397 6.83971 5.214 6.03525 6.42081 5.55694C7.62761 5.07863 8.94365 4.94533 10.2219 5.17192C11.5001 5.39851 12.6901 5.97607 13.6589 6.84006C14.6278 7.70405 15.3373 8.82043 15.7082 10.0645H17.4982C18.6917 10.0645 19.8363 10.5386 20.6802 11.3825C21.5241 12.2264 21.9982 13.371 21.9982 14.5645C21.9982 15.7579 21.5241 16.9025 20.6802 17.7464C19.8363 18.5903 18.6917 19.0645 17.4982 19.0645Z" stroke="black" stroke-linecap="round" stroke-linejoin="round"/>
</svg>
