<svg width="34" height="39" viewBox="0 0 34 39" fill="none" xmlns="http://www.w3.org/2000/svg">
<path d="M7.47428 16.4611C9.01655 16.6802 10.5803 16.44 11.9752 15.7778L13.2762 17.5054L9.27788 20.5254C9.10592 20.6553 9.07163 20.8999 9.20132 21.0721L10.67 23.0223C10.793 23.1927 11.0523 23.2287 11.2175 23.099L15.2149 20.0798L16.2137 21.4061L12.2153 24.4259C12.0433 24.5558 12.0091 24.8004 12.1387 24.9726L13.6074 26.9229C13.7306 27.0932 13.9893 27.1297 14.1549 26.9997L18.1523 23.9804L19.4498 25.7033C17.0192 28.4778 16.7762 32.6797 19.0807 35.7398C20.3569 37.4346 22.219 38.5304 24.3237 38.8254C26.4015 39.1206 28.5186 38.5828 30.2087 37.3015C33.7062 34.6599 34.4058 29.6612 31.768 26.1586C30.4917 24.4639 28.6297 23.3681 26.525 23.0731C24.9626 22.8542 23.4082 23.0967 22.0187 23.7591L20.7232 22.0387L24.7215 19.0189C24.8935 18.889 24.9278 18.6443 24.7981 18.4722L23.3294 16.5218C23.2064 16.3515 22.9471 16.3152 22.7819 16.4451L18.7845 19.4643L17.7858 18.1381L21.7841 15.1183C21.9561 14.9883 21.9904 14.7437 21.8607 14.5715L20.392 12.6212C20.269 12.4509 20.0097 12.4147 19.8445 12.5445L15.8471 15.5637L14.5457 13.8356C16.98 11.0612 17.2245 6.85622 14.9187 3.79443C13.6424 2.09966 11.7804 1.00388 9.67569 0.70888C7.57194 0.414114 5.48202 0.955286 3.79069 2.23286C0.293191 4.87443 -0.406262 9.87302 2.23139 13.3756C3.50764 15.0704 5.36968 16.1661 7.47436 16.4611L7.47428 16.4611ZM26.4166 23.8467C28.3144 24.1126 29.9934 25.1006 31.1441 26.6285C33.523 29.7875 32.8922 34.2956 29.7379 36.6779C28.2131 37.8295 26.3287 38.3173 24.4322 38.0516C22.5343 37.7857 20.8555 36.7977 19.7048 35.2698C17.3259 32.1108 17.9567 27.6027 21.1109 25.2204C22.6344 24.0654 24.5434 23.5805 26.4166 23.8468V23.8467ZM15.4583 16.3461C15.5206 16.429 15.6134 16.4836 15.7161 16.4979C15.8187 16.5122 15.923 16.4853 16.0058 16.4228L20.0032 13.4036L21.0019 14.7298L17.0036 17.7497C16.8316 17.8796 16.7973 18.1242 16.927 18.2964L18.3957 20.2467C18.458 20.3295 18.5508 20.3842 18.6535 20.3986C18.7563 20.4128 18.8604 20.3859 18.9432 20.3234L22.9406 17.3042L23.9394 18.6304L19.941 21.6503C19.7691 21.7802 19.7348 22.0248 19.8644 22.197L21.3233 24.1342C21.0894 24.2758 20.8612 24.43 20.6401 24.597C20.4151 24.7669 20.2018 24.9468 20.0001 25.1353L18.5411 23.1979C18.4787 23.115 18.3859 23.0604 18.2833 23.0461C18.1806 23.0318 18.0764 23.0587 17.9936 23.1212L13.9962 26.1404L12.9974 24.8142L16.9958 21.7943C17.1677 21.6644 17.202 21.4198 17.0723 21.2476L15.6037 19.2973C15.5413 19.2145 15.4485 19.1598 15.3458 19.1454C15.2432 19.1311 15.139 19.1581 15.0562 19.2206L11.0587 22.2398L10.06 20.9136L14.0583 17.8936C14.2303 17.7637 14.2646 17.5191 14.1349 17.3469L12.6713 15.4034C12.9073 15.2608 13.1371 15.1056 13.3594 14.9371C13.5827 14.7683 13.7946 14.5899 13.995 14.4029L15.4583 16.3461ZM4.26147 2.85615C5.78499 1.70107 7.69397 1.21622 9.56717 1.48247C11.465 1.74841 13.144 2.73638 14.2946 4.26427C16.6735 7.42325 16.0427 11.9314 12.8884 14.3137C11.3637 15.4653 9.47928 15.9531 7.58272 15.6874C5.68483 15.4215 4.006 14.4335 2.85538 12.9056C0.476472 9.74661 1.10725 5.23841 4.26147 2.85615Z" fill="black"/>
</svg>
