<svg width="60" height="61" viewBox="0 0 60 61" fill="none" xmlns="http://www.w3.org/2000/svg">
<rect y="0.153442" width="60" height="60" rx="30" fill="#C7E7DC"/>
<path d="M30 30.1535V19.4868C30 19.1332 30.1405 18.794 30.3905 18.544C30.6406 18.2939 30.9797 18.1535 31.3333 18.1535H39.7293C40.0017 18.1535 40.2675 18.2369 40.4911 18.3926C40.7146 18.5482 40.8851 18.7686 40.9797 19.024C41.0742 19.2795 41.0882 19.5577 41.0199 19.8214C40.9515 20.0851 40.8041 20.3215 40.5973 20.4988L34.336 25.8655" stroke="white" stroke-width="1.5" stroke-linecap="round" stroke-linejoin="round"/>
<path d="M29.9987 42.1535L20.1134 32.2681C19.6132 31.7682 19.3322 31.09 19.332 30.3828V22.7068C19.3333 22.4437 19.4123 22.1868 19.559 21.9685C19.7058 21.7501 19.9137 21.5798 20.1568 21.4792C20.3999 21.3785 20.6673 21.3518 20.9254 21.4025C21.1836 21.4532 21.4211 21.579 21.608 21.7641L40.6654 40.8321" stroke="white" stroke-width="1.5" stroke-linecap="round" stroke-linejoin="round"/>
<path d="M30.2847 18.6615L41.5034 38.6161C41.6461 38.8703 41.7016 39.1643 41.6614 39.453C41.6212 39.7417 41.4875 40.0093 41.2807 40.2148L39.7234 41.7655C39.4733 42.0142 39.1348 42.1537 38.782 42.1535H22.4674C22.1645 42.1536 21.8706 42.0506 21.634 41.8615L18.3327 39.2201C18.1163 39.0471 17.9592 38.811 17.8832 38.5446C17.8072 38.2781 17.8161 37.9946 17.9086 37.7335C18.0011 37.4724 18.1727 37.2465 18.3995 37.0874C18.6262 36.9282 18.897 36.8437 19.174 36.8455L24.7274 36.8815" stroke="white" stroke-width="1.5" stroke-linecap="round" stroke-linejoin="round"/>
</svg>
