<svg width="60" height="61" viewBox="0 0 60 61" fill="none" xmlns="http://www.w3.org/2000/svg">
<rect y="0.153442" width="60" height="60" rx="30" fill="#C7E7DC"/>
<path d="M30.0013 22.1534C30.7377 22.1534 31.3346 21.5565 31.3346 20.8201C31.3346 20.0837 30.7377 19.4868 30.0013 19.4868C29.2649 19.4868 28.668 20.0837 28.668 20.8201C28.668 21.5565 29.2649 22.1534 30.0013 22.1534Z" stroke="white" stroke-width="2" stroke-linecap="round" stroke-linejoin="round"/>
<path d="M39.3333 22.1534C40.0697 22.1534 40.6667 21.5565 40.6667 20.8201C40.6667 20.0837 40.0697 19.4868 39.3333 19.4868C38.597 19.4868 38 20.0837 38 20.8201C38 21.5565 38.597 22.1534 39.3333 22.1534Z" stroke="white" stroke-width="2" stroke-linecap="round" stroke-linejoin="round"/>
<path d="M20.6654 22.1534C21.4017 22.1534 21.9987 21.5565 21.9987 20.8201C21.9987 20.0837 21.4017 19.4868 20.6654 19.4868C19.929 19.4868 19.332 20.0837 19.332 20.8201C19.332 21.5565 19.929 22.1534 20.6654 22.1534Z" stroke="white" stroke-width="2" stroke-linecap="round" stroke-linejoin="round"/>
<path d="M30.0013 31.4868C30.7377 31.4868 31.3346 30.8898 31.3346 30.1534C31.3346 29.4171 30.7377 28.8201 30.0013 28.8201C29.2649 28.8201 28.668 29.4171 28.668 30.1534C28.668 30.8898 29.2649 31.4868 30.0013 31.4868Z" stroke="white" stroke-width="2" stroke-linecap="round" stroke-linejoin="round"/>
<path d="M39.3333 31.4868C40.0697 31.4868 40.6667 30.8898 40.6667 30.1534C40.6667 29.4171 40.0697 28.8201 39.3333 28.8201C38.597 28.8201 38 29.4171 38 30.1534C38 30.8898 38.597 31.4868 39.3333 31.4868Z" stroke="white" stroke-width="2" stroke-linecap="round" stroke-linejoin="round"/>
<path d="M20.6654 31.4868C21.4017 31.4868 21.9987 30.8898 21.9987 30.1534C21.9987 29.4171 21.4017 28.8201 20.6654 28.8201C19.929 28.8201 19.332 29.4171 19.332 30.1534C19.332 30.8898 19.929 31.4868 20.6654 31.4868Z" stroke="white" stroke-width="2" stroke-linecap="round" stroke-linejoin="round"/>
<path d="M30.0013 40.8201C30.7377 40.8201 31.3346 40.2232 31.3346 39.4868C31.3346 38.7504 30.7377 38.1534 30.0013 38.1534C29.2649 38.1534 28.668 38.7504 28.668 39.4868C28.668 40.2232 29.2649 40.8201 30.0013 40.8201Z" stroke="white" stroke-width="2" stroke-linecap="round" stroke-linejoin="round"/>
<path d="M39.3333 40.8201C40.0697 40.8201 40.6667 40.2232 40.6667 39.4868C40.6667 38.7504 40.0697 38.1534 39.3333 38.1534C38.597 38.1534 38 38.7504 38 39.4868C38 40.2232 38.597 40.8201 39.3333 40.8201Z" stroke="white" stroke-width="2" stroke-linecap="round" stroke-linejoin="round"/>
<path d="M20.6654 40.8201C21.4017 40.8201 21.9987 40.2232 21.9987 39.4868C21.9987 38.7504 21.4017 38.1534 20.6654 38.1534C19.929 38.1534 19.332 38.7504 19.332 39.4868C19.332 40.2232 19.929 40.8201 20.6654 40.8201Z" stroke="white" stroke-width="2" stroke-linecap="round" stroke-linejoin="round"/>
</svg>
