<svg width="32" height="32" viewBox="0 0 32 32" fill="none" xmlns="http://www.w3.org/2000/svg">
<path d="M16.117 29.1715C23.2664 29.1715 29.0622 23.3758 29.0622 16.2264C29.0622 9.07699 23.2664 3.28125 16.117 3.28125C8.96762 3.28125 3.17188 9.07699 3.17188 16.2264C3.17188 23.3758 8.96762 29.1715 16.117 29.1715Z" stroke="black" stroke-width="1.5" stroke-linecap="round" stroke-linejoin="round"/>
<path d="M21.2936 11.0483H13.5265C12.8399 11.0483 12.1813 11.3211 11.6958 11.8066C11.2103 12.2922 10.9375 12.9507 10.9375 13.6374C10.9375 14.324 11.2103 14.9826 11.6958 15.4681C12.1813 15.9536 12.8399 16.2264 13.5265 16.2264H18.7046C19.3912 16.2264 20.0498 16.4992 20.5353 16.9847C21.0208 17.4702 21.2936 18.1288 21.2936 18.8154C21.2936 19.5021 21.0208 20.1606 20.5353 20.6461C20.0498 21.1317 19.3912 21.4045 18.7046 21.4045H10.9375" stroke="black" stroke-width="1.5" stroke-linecap="round" stroke-linejoin="round"/>
<path d="M16.1172 23.9937V8.45947" stroke="black" stroke-width="1.5" stroke-linecap="round" stroke-linejoin="round"/>
</svg>
