<svg width="35" height="35" viewBox="0 0 35 35" fill="none" xmlns="http://www.w3.org/2000/svg">
<path d="M11.5553 25.0636C14.672 25.0636 17.222 22.4711 17.222 19.3261C17.222 17.6828 16.4145 16.1245 14.7995 14.807C13.1845 13.4895 11.9662 11.5345 11.5553 9.4803C11.1445 11.5345 9.94034 13.5036 8.31117 14.807C6.68201 16.1103 5.88867 17.697 5.88867 19.3261C5.88867 22.4711 8.43867 25.0636 11.5553 25.0636Z" stroke="black" stroke-width="2" stroke-linecap="round" stroke-linejoin="round"/>
<path d="M18.0145 9.62201C18.9888 8.06527 19.6795 6.34815 20.0545 4.55034C20.7628 8.09201 22.8878 11.492 25.7211 13.7587C28.5545 16.0253 29.9711 18.717 29.9711 21.5503C29.9792 23.5086 29.4057 25.4251 28.3233 27.057C27.2408 28.689 25.6982 29.9627 23.891 30.7169C22.0838 31.471 20.0933 31.6716 18.172 31.2931C16.2506 30.9147 14.4849 29.9743 13.0986 28.5912" stroke="black" stroke-width="2" stroke-linecap="round" stroke-linejoin="round"/>
</svg>
