<svg width="60" height="61" viewBox="0 0 60 61" fill="none" xmlns="http://www.w3.org/2000/svg">
<rect y="0.153442" width="60" height="60" rx="30" fill="#C7E7DC"/>
<path d="M27.1484 15.4264C29.031 15.0621 30.9659 15.0621 32.8484 15.4264" stroke="white" stroke-width="2" stroke-linecap="round" stroke-linejoin="round"/>
<path d="M32.8484 44.8804C30.9659 45.2448 29.031 45.2448 27.1484 44.8804" stroke="white" stroke-width="2" stroke-linecap="round" stroke-linejoin="round"/>
<path d="M38.4141 17.735C40.0063 18.8138 41.3761 20.1888 42.4491 21.785" stroke="white" stroke-width="2" stroke-linecap="round" stroke-linejoin="round"/>
<path d="M15.2732 33.0034C14.9089 31.1209 14.9089 29.186 15.2732 27.3034" stroke="white" stroke-width="2" stroke-linecap="round" stroke-linejoin="round"/>
<path d="M42.4172 38.567C41.3384 40.1592 39.9634 41.529 38.3672 42.602" stroke="white" stroke-width="2" stroke-linecap="round" stroke-linejoin="round"/>
<path d="M44.7266 27.3034C45.0909 29.186 45.0909 31.1209 44.7266 33.0034" stroke="white" stroke-width="2" stroke-linecap="round" stroke-linejoin="round"/>
<path d="M17.582 21.74C18.6609 20.1478 20.0358 18.7779 21.632 17.705" stroke="white" stroke-width="2" stroke-linecap="round" stroke-linejoin="round"/>
<path d="M21.5858 42.5719C19.9936 41.4931 18.6237 40.1181 17.5508 38.5219" stroke="white" stroke-width="2" stroke-linecap="round" stroke-linejoin="round"/>
</svg>
