<svg width="37" height="41" viewBox="0 0 37 41" fill="none" xmlns="http://www.w3.org/2000/svg">
<path d="M16.7286 25.515H20.224C21.151 25.515 22.0401 25.1468 22.6956 24.4913C23.3511 23.8358 23.7193 22.9467 23.7193 22.0197C23.7193 21.0926 23.3511 20.2036 22.6956 19.5481C22.0401 18.8926 21.151 18.5243 20.224 18.5243H14.9809C13.9323 18.5243 13.0584 18.8738 12.5341 19.5729L2.74707 29.0104" stroke="black" stroke-width="1.5" stroke-linecap="round" stroke-linejoin="round"/>
<path d="M9.7373 36.0007L12.5336 33.554C13.0579 32.8549 13.9318 32.5054 14.9804 32.5054H21.9711C23.8936 32.5054 25.6413 31.8063 26.8647 30.4081L34.904 22.7183C35.5784 22.081 35.972 21.2018 35.9983 20.2743C36.0245 19.3467 35.6812 18.4468 35.0438 17.7723C34.4065 17.0979 33.5274 16.7043 32.5998 16.6781C31.6723 16.6519 30.7723 16.9952 30.0979 17.6325L22.7576 24.4485" stroke="black" stroke-width="1.5" stroke-linecap="round" stroke-linejoin="round"/>
<path d="M1 27.2628L11.4861 37.7489" stroke="black" stroke-width="1.5" stroke-linecap="round" stroke-linejoin="round"/>
<path d="M25.4667 20.0972C28.2659 20.0972 30.535 17.8281 30.535 15.0289C30.535 12.2298 28.2659 9.96063 25.4667 9.96063C22.6676 9.96063 20.3984 12.2298 20.3984 15.0289C20.3984 17.8281 22.6676 20.0972 25.4667 20.0972Z" stroke="black" stroke-width="1.5" stroke-linecap="round" stroke-linejoin="round"/>
<path d="M7.99014 13.2813C10.8858 13.2813 13.2332 10.9339 13.2332 8.03823C13.2332 5.14257 10.8858 2.79517 7.99014 2.79517C5.09447 2.79517 2.74707 5.14257 2.74707 8.03823C2.74707 10.9339 5.09447 13.2813 7.99014 13.2813Z" stroke="black" stroke-width="1.5" stroke-linecap="round" stroke-linejoin="round"/>
</svg>
