 <svg xmlns="http://www.w3.org/2000/svg" width="45" height="45" viewBox="0 0 45 45" fill="none">
                                        <path d="M24.9755 27.3854L24.9755 26.8604L25.4326 26.8604L25.4388 26.8542C25.377 26.8233 25.3153 26.7862 25.2535 26.743C25.1917 26.6998 25.1361 26.6504 25.0867 26.5948C25.0373 26.5392 24.9941 26.4712 24.9632 26.3971C24.9323 26.323 24.9138 26.2427 24.9138 26.15C24.9138 25.9647 24.9817 25.8227 25.1114 25.7239C25.2411 25.625 25.4141 25.5818 25.6303 25.5818L27.0633 25.5818L27.0633 26.1315L25.6612 26.1315C25.5376 26.1315 25.4388 26.1624 25.3709 26.218C25.3029 26.2736 25.2659 26.3601 25.2659 26.4651C25.2659 26.5577 25.2906 26.6318 25.34 26.6936C25.3894 26.7554 25.445 26.8048 25.5191 26.8418L27.0633 26.8418L27.0633 27.3916L24.9817 27.3916L24.9755 27.3854ZM27.088 31.1223L27.088 31.0358L27.1188 31.0358L27.1188 31.252L27.088 31.252L27.088 31.1655L26.8594 31.1655L26.8594 31.1284L27.088 31.1284L27.088 31.1223ZM26.8594 31.5299L27.0509 31.5299L26.8965 31.4373L26.8965 31.4187L27.0509 31.3261L26.8656 31.3261L26.8656 31.289L27.125 31.289L27.125 31.3199L26.9397 31.4311L27.125 31.5361L27.125 31.567L26.8656 31.567L26.8656 31.5299L26.8594 31.5299ZM27.0756 28.8245C27.0385 28.7566 26.9953 28.6887 26.9459 28.6331C26.8965 28.5713 26.8409 28.5157 26.7791 28.4663C26.7235 28.4169 26.6741 28.3736 26.6309 28.3366L27.0571 28.3366L27.0571 27.7869L25.865 27.7869L24.9755 27.7869L24.9755 28.3428L26.5382 28.3428C26.5877 28.386 26.6247 28.4231 26.6556 28.4663C26.6803 28.5095 26.6988 28.5466 26.6988 28.5836C26.6988 28.6084 26.6927 28.6392 26.6865 28.6763C26.6741 28.7134 26.6618 28.7504 26.6494 28.7937C26.6309 28.8307 26.6124 28.8678 26.5938 28.9048C26.5691 28.9419 26.5444 28.9728 26.5197 28.9913L26.5197 29.0345L27.1374 29.0345C27.1374 28.9542 27.125 28.8987 27.088 28.8307L27.0756 28.8245ZM24.5617 25.2977C24.5617 25.0753 24.5432 24.8653 24.5061 24.68C24.4691 24.4885 24.4135 24.3279 24.3332 24.192C24.2529 24.0562 24.1541 23.945 24.0305 23.8647C23.907 23.7844 23.7649 23.7473 23.592 23.7473L23.592 23.6547C23.6167 23.6547 23.629 23.6547 23.629 23.6547C23.8329 23.6609 24.0305 23.7041 24.2158 23.7782C24.4135 23.8647 24.5926 23.982 24.7408 24.1303C24.8953 24.2785 25.0126 24.4515 25.1053 24.6491C25.1979 24.8468 25.2411 25.063 25.2411 25.2977L24.5555 25.2977L24.5617 25.2977ZM25.0003 23.6423C25.0003 23.8153 25.0373 23.9573 25.1176 24.0809C25.1979 24.2044 25.3029 24.3032 25.445 24.3835C25.5809 24.4638 25.7476 24.5194 25.9391 24.5565C26.1306 24.5935 26.3344 24.6121 26.5629 24.6121C26.7853 24.6121 26.9953 24.5935 27.1868 24.5565C27.3783 24.5194 27.5389 24.4638 27.6809 24.3835C27.8168 24.3032 27.928 24.2044 28.0083 24.0809C28.0886 23.9573 28.1256 23.8153 28.1256 23.6423C28.1256 23.4694 28.0886 23.3273 28.0083 23.2038C27.928 23.0803 27.8168 22.9814 27.6809 22.9011C27.5389 22.8208 27.3783 22.7652 27.1868 22.7282C26.9953 22.6911 26.7915 22.6726 26.5691 22.6726C26.3468 22.6726 26.1429 22.6911 25.9515 22.7282C25.76 22.7652 25.5994 22.8208 25.4573 22.9011C25.3214 22.9814 25.2103 23.0803 25.13 23.2038C25.0497 23.3273 25.0126 23.4694 25.0126 23.6423L25.0003 23.6423ZM24.9138 23.5188C24.9261 23.3458 24.9694 23.1729 25.0373 23.0185C25.1238 22.8208 25.2411 22.6417 25.3894 22.4935C25.5376 22.3452 25.7106 22.2217 25.9082 22.129C26.1059 22.0364 26.3221 21.9932 26.5568 21.9932C26.7853 21.9932 27.0015 22.0364 27.2053 22.129C27.403 22.2217 27.5821 22.3391 27.7303 22.4935C27.8786 22.6417 27.9959 22.8208 28.0824 23.0185C28.1689 23.2161 28.2121 23.4261 28.2121 23.6423C28.2121 23.8585 28.1689 24.0685 28.0824 24.2662C27.9959 24.4638 27.8786 24.6429 27.7303 24.7912C27.5821 24.9456 27.403 25.063 27.2053 25.1556C27.0077 25.2483 26.7915 25.2915 26.5568 25.2915C26.3282 25.2915 26.1121 25.2483 25.9082 25.1556C25.7106 25.063 25.5314 24.9456 25.3894 24.7912C25.2411 24.6368 25.1238 24.4638 25.0373 24.2662C24.957 24.0809 24.92 23.8832 24.9138 23.6794C24.9138 23.6794 24.9138 23.5744 24.92 23.5126L24.9138 23.5188ZM26.3221 29.6275C26.4209 29.6337 26.5135 29.646 26.6 29.6707C26.6865 29.6893 26.7606 29.7202 26.8285 29.7572C26.8965 29.7943 26.9459 29.8375 26.983 29.8931C27.02 29.9487 27.0385 30.0105 27.0385 30.0784C27.0385 30.1896 26.9891 30.276 26.8965 30.3378C26.8038 30.3996 26.5815 30.4243 26.3715 30.4243L26.2356 30.4243L25.8773 29.6707C25.9823 29.6399 26.0935 29.6275 26.2356 29.6275L26.3221 29.6275ZM25.5809 30.9431C25.5129 30.8875 25.4512 30.8072 25.4017 30.7146C25.3523 30.6158 25.3276 30.4984 25.3276 30.3625C25.3276 30.2575 25.3461 30.1587 25.377 30.066C25.4079 29.9734 25.4635 29.8993 25.5376 29.8313C25.6056 29.7696 25.692 29.7263 25.797 29.6893L26.3715 30.9493C26.3715 30.9493 26.5815 30.9431 26.8409 30.7517C26.9335 30.6837 26.9891 30.5787 27.0447 30.4737C27.1003 30.3625 27.125 30.239 27.125 30.1031C27.125 29.9734 27.1003 29.8437 27.0447 29.7202C26.9891 29.5966 26.915 29.4854 26.81 29.3928C26.7112 29.3001 26.5877 29.2198 26.4518 29.1643C26.3097 29.1087 26.1553 29.0778 25.9823 29.0778C25.8341 29.0778 25.692 29.1025 25.5623 29.1519C25.4326 29.2013 25.3214 29.2693 25.2226 29.3557C25.1238 29.4422 25.0497 29.5472 24.9941 29.6707C24.9385 29.7943 24.9138 29.9302 24.9138 30.0846C24.9138 30.3193 24.9755 30.5169 25.0991 30.6652C25.2226 30.8134 25.3832 30.9184 25.5747 30.9802L25.587 30.9555L25.5809 30.9431Z" fill="#414141"></path>
                                        <path fill-rule="evenodd" clip-rule="evenodd" d="M21.7267 25.2734L21.7328 25.2734C21.7637 25.2981 21.7946 25.3166 21.8193 25.3352C21.844 25.3475 21.8687 25.3599 21.8934 25.3722C21.9181 25.3784 21.949 25.3846 21.9737 25.3908C22.0046 25.3969 22.0355 25.3969 22.0787 25.3969L23.0176 25.3969C23.0485 25.3969 23.0732 25.3908 23.0917 25.3846C23.1164 25.3784 23.1349 25.3722 23.1535 25.3599C23.172 25.3475 23.1905 25.3352 23.2091 25.3167C23.2276 25.2981 23.2461 25.2796 23.2646 25.2549L23.2708 25.2549L23.2708 25.5575L21.9984 26.132L23.2708 26.694L23.2708 26.9782L23.2646 26.9782C23.2461 26.9473 23.2214 26.9288 23.2029 26.9102C23.1843 26.8917 23.1596 26.8793 23.1411 26.867C23.1164 26.8546 23.0917 26.8485 23.067 26.8423C23.0361 26.8361 23.0052 26.8361 22.9682 26.8361L22.054 26.8361C22.017 26.8361 21.9861 26.8361 21.9614 26.8423C21.9367 26.8423 21.912 26.8485 21.8873 26.8546C21.8625 26.8608 21.844 26.867 21.8193 26.8793C21.7946 26.8917 21.7699 26.904 21.7452 26.9226L21.739 26.9226L21.739 26.5829L21.7452 26.5829C21.7699 26.6014 21.7946 26.6137 21.8193 26.6261C21.844 26.6385 21.8625 26.6446 21.8873 26.6508C21.912 26.657 21.9367 26.6632 21.9614 26.6632C21.9861 26.6632 22.0231 26.6693 22.054 26.6693L23.1041 26.6693L21.7761 26.0826L21.7761 26.0455L23.1102 25.4402L22.0787 25.4464C22.0417 25.4464 22.0046 25.4464 21.9737 25.4525C21.9428 25.4587 21.9181 25.4649 21.8934 25.4772C21.8687 25.4896 21.844 25.5019 21.8193 25.5205C21.7946 25.539 21.7637 25.5637 21.7328 25.5946L21.7267 25.5946L21.7267 25.2734ZM23.1102 27.3364C23.0793 27.3364 23.0546 27.3241 23.0361 27.3055C23.0176 27.287 23.0052 27.2623 23.0052 27.2314C23.0052 27.2005 23.0176 27.182 23.0361 27.1573C23.0546 27.1388 23.0793 27.1264 23.1102 27.1264C23.1411 27.1264 23.1596 27.1388 23.1843 27.1573C23.2029 27.1758 23.2152 27.2005 23.2152 27.2314C23.2152 27.2623 23.2029 27.2808 23.1843 27.3055C23.1658 27.3241 23.1411 27.3364 23.1102 27.3364ZM21.7328 27.1202C21.7761 27.1388 21.8255 27.1511 21.8749 27.1573C21.9243 27.1635 21.9799 27.1696 22.054 27.1696L22.4432 27.1696C22.4926 27.1696 22.5358 27.1573 22.5729 27.1388C22.6037 27.1202 22.6346 27.0955 22.6532 27.077L22.6593 27.077L22.7705 27.3241L22.054 27.3241C21.9799 27.3241 21.9181 27.3241 21.8749 27.3302C21.8255 27.3364 21.7822 27.3488 21.7328 27.3673L21.7267 27.3673L21.7267 27.1202L21.7328 27.1202ZM21.9614 28.3803C21.8811 28.3494 21.8193 28.3061 21.7699 28.2382C21.7205 28.1703 21.6958 28.09 21.6958 27.985C21.6958 27.917 21.7081 27.8553 21.7328 27.7997C21.7575 27.7441 21.7884 27.6947 21.8317 27.6514C21.8749 27.6082 21.9305 27.5773 21.9923 27.5588C22.054 27.5341 22.1281 27.5279 22.2023 27.5279C22.2887 27.5279 22.3629 27.5402 22.4308 27.5711C22.4987 27.602 22.5543 27.6391 22.6037 27.6885C22.6532 27.7379 22.6902 27.7935 22.7149 27.8553C22.7396 27.917 22.752 27.985 22.752 28.0529C22.752 28.1208 22.7458 28.1826 22.7273 28.2259C22.7149 28.2691 22.6964 28.3061 22.6902 28.3309L22.474 28.3494L22.4679 28.3309C22.4987 28.3123 22.5296 28.2876 22.5605 28.2691C22.5914 28.2444 22.6161 28.2197 22.6346 28.195C22.6532 28.1703 22.6717 28.1394 22.684 28.1085C22.6964 28.0776 22.7026 28.0467 22.7026 28.0158C22.7026 27.9108 22.6655 27.8305 22.5852 27.7688C22.5049 27.707 22.3999 27.6761 22.2579 27.6761C22.122 27.6761 22.017 27.707 21.9367 27.7688C21.8564 27.8305 21.8193 27.9232 21.8193 28.0406C21.8193 28.1023 21.8317 28.1579 21.8502 28.2135C21.8687 28.2691 21.9058 28.3185 21.9552 28.3556L21.949 28.3679L21.9614 28.3803ZM21.7328 28.5717C21.7575 28.5841 21.7761 28.5903 21.8008 28.5965C21.8255 28.6026 21.844 28.6088 21.8749 28.6088C21.8996 28.6088 21.9243 28.615 21.9552 28.615C21.9861 28.615 22.017 28.615 22.054 28.615L22.4493 28.615C22.5049 28.615 22.5482 28.6026 22.579 28.5841C22.6099 28.5656 22.6408 28.5409 22.6593 28.5223L22.6655 28.5223L22.7767 28.757L22.5234 28.757L22.5234 28.7694C22.5482 28.7941 22.5729 28.8126 22.6037 28.8373C22.6346 28.862 22.6593 28.8868 22.684 28.9176C22.7087 28.9423 22.7273 28.9732 22.7458 29.0041C22.7643 29.035 22.7705 29.0659 22.7705 29.1029L22.5605 29.1029L22.5605 29.0968C22.5667 29.0906 22.5729 29.0782 22.579 29.0659C22.5852 29.0535 22.5914 29.035 22.5914 29.0226C22.5976 29.0041 22.5976 28.9918 22.6037 28.9732C22.6037 28.9609 22.6099 28.9423 22.6099 28.93C22.6099 28.9115 22.5976 28.8868 22.5729 28.8559C22.5482 28.825 22.5173 28.7941 22.4802 28.7694L22.0664 28.7694C21.9923 28.7694 21.9305 28.7694 21.8873 28.7756C21.8378 28.7818 21.7946 28.7941 21.7452 28.8126L21.739 28.8126L21.739 28.5656L21.7452 28.5656L21.7328 28.5717ZM21.6958 29.7268C21.6958 29.6527 21.7081 29.5847 21.739 29.5229C21.7699 29.4612 21.807 29.4056 21.8564 29.3562C21.9058 29.3068 21.9614 29.2697 22.0231 29.245C22.0849 29.2141 22.1528 29.2018 22.227 29.2018C22.3011 29.2018 22.369 29.2141 22.4308 29.245C22.4926 29.2759 22.5543 29.3129 22.5976 29.3624C22.647 29.4118 22.684 29.4674 22.7149 29.5291C22.7458 29.5909 22.7582 29.6588 22.7582 29.733C22.7582 29.8071 22.7458 29.875 22.7149 29.9368C22.684 29.9986 22.647 30.0541 22.5976 30.1036C22.5482 30.153 22.4926 30.19 22.4308 30.2147C22.369 30.2456 22.2949 30.258 22.227 30.258C22.1528 30.258 22.0849 30.2456 22.0231 30.2147C21.9614 30.1838 21.9058 30.1468 21.8564 30.1036C21.807 30.0541 21.7699 29.9986 21.739 29.9368C21.7081 29.875 21.6958 29.8071 21.6958 29.733L21.6958 29.7268ZM21.7328 29.7268C21.7328 29.7885 21.7452 29.838 21.7699 29.8812C21.7946 29.9244 21.8317 29.9615 21.8749 29.9924C21.9181 30.0233 21.9737 30.0418 22.0293 30.0603C22.0911 30.0727 22.1528 30.0788 22.2146 30.0788C22.2826 30.0788 22.3443 30.0727 22.3999 30.0541C22.4617 30.0418 22.5111 30.0171 22.5543 29.9862C22.5976 29.9553 22.6346 29.9183 22.6655 29.875C22.6902 29.8318 22.7026 29.7824 22.7026 29.7206C22.7026 29.6588 22.6902 29.6094 22.6655 29.5662C22.6408 29.5229 22.6037 29.4859 22.5543 29.455C22.5111 29.4241 22.4555 29.4056 22.3999 29.3871C22.3381 29.3747 22.2764 29.3624 22.2146 29.3624C22.1467 29.3624 22.0849 29.3685 22.0293 29.3809C21.9675 29.3932 21.9181 29.4179 21.8749 29.4488C21.8317 29.4797 21.7946 29.5168 21.7699 29.56C21.7452 29.6032 21.7328 29.6527 21.7328 29.7144L21.7328 29.7268ZM21.7267 30.7583C21.7514 30.7768 21.7761 30.7892 21.8008 30.8015C21.8255 30.8139 21.844 30.82 21.8687 30.8262C21.8934 30.8324 21.9181 30.8386 21.9428 30.8386C21.9675 30.8386 21.9984 30.8448 22.0355 30.8448L22.9435 30.8448C22.9805 30.8448 23.0114 30.8448 23.0361 30.8386C23.0608 30.8386 23.0855 30.8324 23.1102 30.8262C23.1349 30.82 23.1535 30.8139 23.1782 30.8015C23.2029 30.7892 23.2276 30.7768 23.2523 30.7583L23.2585 30.7583L23.2585 31.098L23.2523 31.098C23.2276 31.0795 23.2029 31.0671 23.1782 31.0548C23.1535 31.0424 23.1349 31.0362 23.1102 31.0301C23.0855 31.0239 23.0608 31.0177 23.0361 31.0177C23.0114 31.0177 22.9805 31.0115 22.9435 31.0115L22.0355 31.0115C21.9984 31.0115 21.9675 31.0115 21.9428 31.0177C21.9181 31.0177 21.8934 31.0239 21.8687 31.0301C21.844 31.0362 21.8255 31.0424 21.8008 31.0548C21.7761 31.0671 21.7514 31.0795 21.7267 31.098L21.7205 31.098L21.7205 30.7583L21.7267 30.7583ZM21.7205 31.5365L21.7205 31.2895L21.7267 31.2895C21.7514 31.3018 21.7699 31.308 21.7946 31.3142C21.8193 31.3204 21.8378 31.3265 21.8687 31.3265C21.8934 31.3265 21.9181 31.3327 21.949 31.3327C21.9799 31.3327 22.0108 31.3327 22.0478 31.3327L22.4432 31.3327C22.4987 31.3327 22.542 31.3204 22.5729 31.3018C22.6037 31.2833 22.6346 31.2586 22.6532 31.2401L22.6593 31.2401L22.7705 31.4748L22.5729 31.4748L22.5729 31.4809C22.6346 31.5304 22.6779 31.586 22.7087 31.6477C22.7396 31.7095 22.7582 31.7712 22.7582 31.8454C22.7582 31.9442 22.7335 32.0183 22.6779 32.0677C22.6223 32.1171 22.5482 32.1418 22.4555 32.1418L22.054 32.1418C22.017 32.1418 21.9799 32.1418 21.9552 32.1418C21.9243 32.1418 21.8996 32.1418 21.8749 32.148C21.8502 32.148 21.8255 32.1542 21.8008 32.1604C21.7761 32.1666 21.7575 32.1727 21.7328 32.1851L21.7267 32.1851L21.7267 31.938L21.7328 31.938C21.7761 31.9565 21.8255 31.9689 21.8749 31.9751C21.9243 31.9813 21.9799 31.9813 22.054 31.9813L22.4184 31.9813C22.4493 31.9813 22.4802 31.9751 22.5111 31.9689C22.542 31.9627 22.5667 31.9504 22.5852 31.9318C22.6099 31.9133 22.6223 31.8948 22.6346 31.8639C22.647 31.833 22.6532 31.8021 22.6532 31.7651C22.6532 31.7157 22.6408 31.6662 22.6223 31.6168C22.6037 31.5674 22.5729 31.518 22.5296 31.4809L22.0478 31.4809C21.9737 31.4809 21.912 31.4809 21.8687 31.4871C21.8193 31.4933 21.7761 31.5057 21.7267 31.5242L21.7205 31.5242L21.7205 31.5365ZM21.7267 32.4198C21.7575 32.4383 21.7884 32.4507 21.8317 32.4569C21.8749 32.463 21.9367 32.4692 22.017 32.4692L22.684 32.4692L22.684 32.3395L22.7211 32.3395L22.7211 32.4692L22.9002 32.4692C22.9743 32.4692 23.0361 32.4754 23.0917 32.4939C23.1473 32.5124 23.1967 32.5372 23.2338 32.568C23.2708 32.5989 23.3017 32.636 23.3264 32.6792C23.3449 32.7225 23.3573 32.7719 23.3573 32.8213C23.3573 32.8522 23.3511 32.883 23.3449 32.9078C23.3388 32.9325 23.3326 32.951 23.3264 32.9633L23.1349 32.988L23.1288 32.9757C23.1535 32.9633 23.172 32.9448 23.1967 32.9263C23.2214 32.9078 23.2399 32.8954 23.2585 32.8769C23.277 32.8583 23.2894 32.8398 23.3017 32.8275C23.3141 32.8089 23.3202 32.7904 23.3202 32.7719C23.3202 32.7286 23.2955 32.6916 23.2399 32.6607C23.1843 32.6298 23.1041 32.6175 22.9929 32.6175L22.7211 32.6175L22.7211 32.8645L22.684 32.8645L22.684 32.6175L22.017 32.6175C21.9367 32.6175 21.8749 32.6236 21.8317 32.6298C21.7884 32.636 21.7575 32.6483 21.7267 32.6669L21.7205 32.6669L21.7205 32.4136L21.7267 32.4136L21.7267 32.4198ZM21.912 33.649C21.8811 33.6304 21.8564 33.6057 21.8317 33.5872C21.807 33.5625 21.7822 33.5378 21.7575 33.5131C21.739 33.4884 21.7205 33.4575 21.7081 33.4204C21.6958 33.3834 21.6896 33.3463 21.6896 33.3031C21.6896 33.2104 21.7205 33.1425 21.7761 33.0992C21.8317 33.056 21.912 33.0313 22.0108 33.0313L22.5358 33.0313C22.579 33.0313 22.6161 33.0251 22.6408 33.0066C22.6717 32.988 22.6902 32.9695 22.7087 32.9448L22.7149 32.9448L22.7149 33.1857L22.0417 33.1857C21.8873 33.1857 21.807 33.2536 21.807 33.3895C21.807 33.4513 21.8193 33.5007 21.844 33.5439C21.8687 33.5872 21.8996 33.6181 21.9367 33.6428L22.5296 33.6428C22.6099 33.6428 22.6655 33.6119 22.7087 33.5501L22.7149 33.5501L22.7149 33.7972L22.0046 33.7972C21.9614 33.7972 21.9243 33.7972 21.8996 33.8034C21.8749 33.8095 21.8502 33.8095 21.8317 33.8219C21.8131 33.8281 21.8008 33.8404 21.7884 33.8528C21.7761 33.8651 21.7699 33.8775 21.7575 33.896L21.7514 33.896L21.6834 33.6613L21.8996 33.6613L21.912 33.649ZM22.5049 34.631L22.4987 34.6187C22.579 34.5754 22.6346 34.526 22.6655 34.4766C22.6964 34.4272 22.7087 34.3778 22.7087 34.3284C22.7087 34.2666 22.6902 34.2172 22.6593 34.1801C22.6284 34.1431 22.5852 34.1246 22.5358 34.1246C22.5049 34.1246 22.474 34.1307 22.4555 34.1493C22.4308 34.1616 22.4123 34.1863 22.3999 34.211C22.3814 34.2357 22.369 34.2666 22.3505 34.2975C22.3381 34.3284 22.3258 34.3654 22.3073 34.4025C22.2949 34.4396 22.2764 34.4766 22.2579 34.5137C22.2393 34.5507 22.2208 34.5816 22.1961 34.6063C22.1714 34.6372 22.1405 34.6557 22.1034 34.6743C22.0664 34.6928 22.0231 34.699 21.9737 34.699C21.8749 34.699 21.807 34.6619 21.7514 34.594C21.702 34.526 21.6772 34.4334 21.6772 34.316C21.6772 34.2543 21.6834 34.1987 21.6958 34.1493C21.7081 34.0998 21.7205 34.0566 21.739 34.0195L21.9799 34.001L21.9861 34.0134C21.8934 34.0566 21.8255 34.106 21.7884 34.1554C21.7452 34.2048 21.7267 34.2666 21.7267 34.3407C21.7267 34.4149 21.7452 34.4766 21.7884 34.5137C21.8317 34.5507 21.8749 34.5693 21.9243 34.5693C21.9552 34.5693 21.9799 34.5631 22.0046 34.5507C22.0293 34.5384 22.0478 34.5199 22.0664 34.5013C22.0849 34.4766 22.1034 34.4519 22.1158 34.421C22.1281 34.3901 22.1405 34.3593 22.159 34.3222C22.1714 34.2851 22.1899 34.2543 22.2023 34.2172C22.2208 34.1801 22.2393 34.1493 22.264 34.1184C22.2887 34.0875 22.3196 34.0628 22.3505 34.0443C22.3876 34.0257 22.4246 34.0134 22.474 34.0134C22.5234 34.0134 22.5667 34.0257 22.6037 34.0443C22.6408 34.0628 22.6655 34.0937 22.6902 34.1246C22.7149 34.1554 22.7273 34.1987 22.7335 34.2357C22.7396 34.279 22.7458 34.3222 22.7458 34.3654C22.7458 34.4087 22.7396 34.4581 22.7335 34.5013C22.7273 34.5446 22.7149 34.5816 22.7026 34.6125L22.4987 34.631L22.5049 34.631ZM23.1041 35.0572C23.0732 35.0572 23.0485 35.0449 23.0299 35.0263C23.0114 35.0078 22.999 34.9831 22.999 34.9522C22.999 34.9213 23.0114 34.9028 23.0299 34.8781C23.0485 34.8596 23.0732 34.8472 23.1041 34.8472C23.1349 34.8472 23.1535 34.8596 23.1782 34.8781C23.1967 34.8966 23.2091 34.9213 23.2091 34.9522C23.2091 34.9831 23.1967 35.0016 23.1782 35.0263C23.1596 35.0449 23.1349 35.0572 23.1041 35.0572ZM21.7267 34.841C21.7699 34.8596 21.8193 34.8719 21.8687 34.8781C21.9181 34.8843 21.9737 34.8905 22.0478 34.8905L22.437 34.8905C22.4864 34.8905 22.5296 34.8781 22.5667 34.8596C22.5976 34.841 22.6284 34.8163 22.647 34.7978L22.6532 34.7978L22.7643 35.0449L22.0478 35.0449C21.9737 35.0449 21.912 35.0449 21.8687 35.0511C21.8193 35.0572 21.7761 35.0696 21.7267 35.0881L21.7205 35.0881L21.7205 34.841L21.7267 34.841ZM21.6896 35.7675C21.6896 35.6934 21.702 35.6255 21.7328 35.5637C21.7637 35.5019 21.8008 35.4464 21.8502 35.3969C21.8996 35.3475 21.9552 35.3105 22.017 35.2858C22.0787 35.2549 22.1467 35.2425 22.2208 35.2425C22.2949 35.2425 22.3629 35.2549 22.4246 35.2858C22.4864 35.3166 22.5482 35.3537 22.5914 35.4031C22.6408 35.4525 22.6779 35.5081 22.7087 35.5699C22.7396 35.6317 22.752 35.6996 22.752 35.7737C22.752 35.8478 22.7396 35.9158 22.7087 35.9775C22.6779 36.0393 22.6408 36.0949 22.5914 36.1443C22.542 36.1937 22.4864 36.2308 22.4246 36.2555C22.3629 36.2864 22.2887 36.2987 22.2208 36.2987C22.1467 36.2987 22.0787 36.2864 22.017 36.2555C21.9552 36.2246 21.8996 36.1876 21.8502 36.1443C21.8008 36.0949 21.7637 36.0393 21.7328 35.9775C21.702 35.9158 21.6896 35.8478 21.6896 35.7737L21.6896 35.7675ZM21.7267 35.7675C21.7267 35.8293 21.739 35.8787 21.7637 35.922C21.7884 35.9652 21.8255 36.0023 21.8687 36.0331C21.912 36.064 21.9675 36.0826 22.0231 36.1011C22.0849 36.1134 22.1467 36.1196 22.2084 36.1196C22.2764 36.1196 22.3381 36.1134 22.3937 36.0949C22.4555 36.0826 22.5049 36.0578 22.5482 36.027C22.5914 35.9961 22.6284 35.959 22.6593 35.9158C22.684 35.8725 22.6964 35.8231 22.6964 35.7614C22.6964 35.6996 22.684 35.6502 22.6593 35.6069C22.6346 35.5637 22.5976 35.5267 22.5482 35.4958C22.5049 35.4649 22.4493 35.4464 22.3937 35.4278C22.332 35.4155 22.2702 35.4031 22.2084 35.4031C22.1405 35.4031 22.0787 35.4093 22.0231 35.4216C21.9614 35.434 21.912 35.4587 21.8687 35.4896C21.8255 35.5205 21.7884 35.5575 21.7637 35.6008C21.739 35.644 21.7267 35.6934 21.7267 35.7552L21.7267 35.7675ZM21.7205 36.7126L21.7205 36.4655L21.7267 36.4655C21.7514 36.4779 21.7699 36.484 21.7946 36.4902C21.8193 36.4964 21.8378 36.5026 21.8687 36.5026C21.8934 36.5026 21.9181 36.5087 21.949 36.5087C21.9799 36.5087 22.0108 36.5087 22.0478 36.5087L22.4432 36.5087C22.4987 36.5087 22.542 36.4964 22.5729 36.4779C22.6037 36.4593 22.6346 36.4346 22.6532 36.4161L22.6593 36.4161L22.7705 36.6508L22.5729 36.6508L22.5729 36.657C22.6346 36.7064 22.6779 36.762 22.7087 36.8237C22.7396 36.8855 22.7582 36.9473 22.7582 37.0214C22.7582 37.1202 22.7335 37.1943 22.6779 37.2438C22.6223 37.2932 22.5482 37.3179 22.4555 37.3179L22.054 37.3179C22.017 37.3179 21.9799 37.3179 21.9552 37.3179C21.9243 37.3179 21.8996 37.3179 21.8749 37.3241C21.8502 37.3241 21.8255 37.3302 21.8008 37.3364C21.7761 37.3426 21.7575 37.3488 21.7328 37.3611L21.7267 37.3611L21.7267 37.1141L21.7328 37.1141C21.7761 37.1326 21.8255 37.1449 21.8749 37.1511C21.9243 37.1573 21.9799 37.1573 22.054 37.1573L22.4184 37.1573C22.4493 37.1573 22.4802 37.1511 22.5111 37.1449C22.542 37.1388 22.5667 37.1264 22.5852 37.1079C22.6099 37.0893 22.6223 37.0708 22.6346 37.0399C22.647 37.009 22.6532 36.9782 22.6532 36.9411C22.6532 36.8917 22.6408 36.8423 22.6223 36.7929C22.6037 36.7435 22.5729 36.694 22.5296 36.657L22.0478 36.657C21.9737 36.657 21.912 36.657 21.8687 36.6632C21.8193 36.6693 21.7761 36.6817 21.7267 36.7002L21.7205 36.7002L21.7205 36.7126Z" fill="#414141"></path>
                                        <path d="M24.8955 31.3328L24.8955 39.1833" stroke="#414141" stroke-width="0.5"></path>
                                        <path d="M23.2588 33.5811L30 33.5815" stroke="#414141" stroke-width="0.5"></path>
                                        <path fill-rule="evenodd" clip-rule="evenodd" d="M26.353 41.1345C22.159 41.5978 15.3029 41.2581 15.0003 40.1216L15.0003 20.6775C15.0003 20.6775 14.9385 19.646 16.4518 19.2383L17.6995 19.1333L22.2702 19.1333L26.8409 19.1333L28.0886 19.2383C29.6081 19.646 29.5401 20.6775 29.5401 20.6775L29.5401 40.5674" stroke="#414141" stroke-miterlimit="2.61313"></path>
                                        <path fill-rule="evenodd" clip-rule="evenodd" d="M15.0312 14.5436L15.0312 19.1205L22.2702 19.1205L29.5093 19.1205L29.5093 14.5436C28.7186 14.2842 22.2702 14.2842 22.2702 14.2842C22.2702 14.2842 15.8218 14.2842 15.0312 14.5436Z" fill="#C7E7DC" stroke="#414141" stroke-miterlimit="2.61313"></path>
                                        <path fill-rule="evenodd" clip-rule="evenodd" d="M16.1736 14.4136C16.1736 13.3512 16.1057 11.8009 16.2539 10.3123C16.4454 8.36666 16.9951 6.53219 18.5146 6.01953L22.2453 6.01953L25.976 6.01953C28.669 6.9275 28.3169 11.9676 28.3169 14.4136C26.223 14.2901 22.27 14.2901 22.27 14.2901L22.2453 14.2901C21.9241 14.2901 18.1625 14.2962 16.1736 14.4136Z" fill="#C7E7DC" stroke="#414141" stroke-miterlimit="2.61313"></path>
                                        <path d="M16.1676 12.1162C19.608 11.6468 24.8643 11.6468 28.2985 12.1162" stroke="#414141" stroke-miterlimit="2.61313"></path>
                                        <path d="M18.0144 4.88306L18.0144 11.8133" stroke="#414141" stroke-miterlimit="2.61313" stroke-linecap="round" stroke-linejoin="round"></path>
                                        <path d="M19.7068 4.88306L19.7068 11.8133" stroke="#414141" stroke-miterlimit="2.61313" stroke-linecap="round" stroke-linejoin="round"></path>
                                        <path d="M21.4056 4.88306L21.4056 11.8133" stroke="#414141" stroke-miterlimit="2.61313" stroke-linecap="round" stroke-linejoin="round"></path>
                                        <path d="M23.1039 4.88306L23.1039 11.8133" stroke="#414141" stroke-miterlimit="2.61313" stroke-linecap="round" stroke-linejoin="round"></path>
                                        <path d="M24.8027 4.88306L24.8027 11.8133" stroke="#414141" stroke-miterlimit="2.61313" stroke-linecap="round" stroke-linejoin="round"></path>
                                        <path d="M26.4951 4.88306L26.4951 11.8133" stroke="#414141" stroke-miterlimit="2.61313" stroke-linecap="round" stroke-linejoin="round"></path>
                                    </svg>