<svg width="60" height="61" viewBox="0 0 60 61" fill="none" xmlns="http://www.w3.org/2000/svg">
<rect y="0.153442" width="60" height="60" rx="30" fill="#C7E7DC"/>
<path d="M16.668 22.1535C17.468 22.8201 18.268 23.4868 20.0013 23.4868C23.3346 23.4868 23.3346 20.8201 26.668 20.8201C30.1346 20.8201 29.868 23.4868 33.3346 23.4868C36.668 23.4868 36.668 20.8201 40.0013 20.8201C41.7346 20.8201 42.5346 21.4868 43.3346 22.1535" stroke="white" stroke-width="2" stroke-linecap="round" stroke-linejoin="round"/>
<path d="M16.668 30.1535C17.468 30.8201 18.268 31.4868 20.0013 31.4868C23.3346 31.4868 23.3346 28.8201 26.668 28.8201C30.1346 28.8201 29.868 31.4868 33.3346 31.4868C36.668 31.4868 36.668 28.8201 40.0013 28.8201C41.7346 28.8201 42.5346 29.4868 43.3346 30.1535" stroke="white" stroke-width="2" stroke-linecap="round" stroke-linejoin="round"/>
<path d="M16.668 38.1535C17.468 38.8201 18.268 39.4868 20.0013 39.4868C23.3346 39.4868 23.3346 36.8201 26.668 36.8201C30.1346 36.8201 29.868 39.4868 33.3346 39.4868C36.668 39.4868 36.668 36.8201 40.0013 36.8201C41.7346 36.8201 42.5346 37.4868 43.3346 38.1535" stroke="white" stroke-width="2" stroke-linecap="round" stroke-linejoin="round"/>
</svg>
