<svg width="60" height="61" viewBox="0 0 60 61" fill="none" xmlns="http://www.w3.org/2000/svg">
<rect y="0.153442" width="60" height="60" rx="30" fill="#C7E7DC"/>
<path d="M40.2096 43.2784C41.8205 43.2784 43.1263 41.9726 43.1263 40.3618C43.1263 38.7509 41.8205 37.4451 40.2096 37.4451C38.5988 37.4451 37.293 38.7509 37.293 40.3618C37.293 41.9726 38.5988 43.2784 40.2096 43.2784Z" stroke="white" stroke-width="2" stroke-linecap="round" stroke-linejoin="round"/>
<path d="M19.7917 22.8618C21.4025 22.8618 22.7083 21.5559 22.7083 19.9451C22.7083 18.3343 21.4025 17.0284 19.7917 17.0284C18.1808 17.0284 16.875 18.3343 16.875 19.9451C16.875 21.5559 18.1808 22.8618 19.7917 22.8618Z" stroke="white" stroke-width="2" stroke-linecap="round" stroke-linejoin="round"/>
<path d="M21.9492 17.9909C24.7537 16.1321 28.1147 15.3002 31.4625 15.6363C34.8102 15.9723 37.9388 17.4556 40.3179 19.8347C42.697 22.2138 44.1803 25.3424 44.5164 28.6902C44.8524 32.0379 44.0205 35.3989 42.1617 38.2034" stroke="white" stroke-width="2" stroke-linecap="round" stroke-linejoin="round"/>
<path d="M21.8477 22.0013L38.1518 38.3055" stroke="white" stroke-width="2" stroke-linecap="round" stroke-linejoin="round"/>
<path d="M17.8377 22.1034C15.9789 24.9079 15.1471 28.2689 15.4831 31.6167C15.8191 34.9644 17.3024 38.093 19.6815 40.4721C22.0607 42.8513 25.1892 44.3345 28.537 44.6706C31.8848 45.0066 35.2457 44.1747 38.0502 42.3159" stroke="white" stroke-width="2" stroke-linecap="round" stroke-linejoin="round"/>
</svg>
