<svg width="112" height="30" viewBox="0 0 112 30" fill="none" xmlns="http://www.w3.org/2000/svg">
<path d="M27.6298 29.3619C25.6948 29.0807 24.0024 28.2627 22.71 26.9842C21.632 25.9179 20.933 24.7452 20.4178 23.1384C19.6134 20.6298 19.6131 17.4044 20.417 14.9469C21.1962 12.5653 22.9506 10.4922 25.0976 9.41588C28.071 7.92533 32.2559 8.01897 35.0098 9.63766C37.4882 11.0944 38.9894 13.683 39.4071 17.2195C39.5347 18.2993 39.4519 20.58 39.251 21.5214C38.4289 25.3748 36.0348 28.0666 32.527 29.081C32.149 29.1903 31.5629 29.3183 31.2245 29.3652C30.5085 29.4648 28.3229 29.4627 27.6298 29.3619ZM30.5248 27.8146C31.0901 27.6469 31.7872 26.994 32.159 26.2841C32.9264 24.8187 33.2692 22.6515 33.2777 19.2104C33.2883 14.8978 32.6113 12.1535 31.1824 10.7167C30.5824 10.1133 30.1569 9.92591 29.3897 9.9271C27.687 9.92981 26.6063 11.7049 26.1794 15.2002C25.9831 16.807 25.9821 20.6346 26.1775 22.0393C26.7823 26.3868 28.3439 28.4613 30.5248 27.8146ZM61.9027 29.3609C61.111 29.2808 58.6918 28.8787 57.8467 28.6868L57.2621 28.554L57.3076 25.4363C57.4174 17.9297 57.4312 13.8318 57.3601 9.84661C57.2906 5.94268 57.2703 5.52996 57.1195 4.95244C56.9284 4.22071 56.6527 3.71036 56.3211 3.47456C56.1923 3.38299 55.8423 3.25317 55.5434 3.18607C54.5498 2.96318 54.6037 2.99888 54.5773 2.54623C54.562 2.28548 54.5903 2.11319 54.6571 2.06035C54.7466 1.98942 62.8965 0.437032 63.1561 0.441416C63.2307 0.442691 63.2412 1.4833 63.203 5.0652C63.1759 7.60736 63.1723 9.68731 63.1952 9.68731C63.2181 9.68731 63.5159 9.55853 63.857 9.40114C64.8853 8.92673 65.833 8.72089 67.2095 8.67292C68.1258 8.64104 68.5504 8.66104 69.0205 8.75811C72.0947 9.39333 74.3697 11.9061 75.1646 15.5446C75.372 16.4937 75.4491 18.8527 75.3115 20.0342C75.1942 21.0413 74.8593 22.3982 74.5109 23.2787C73.196 26.6014 70.3752 28.7691 66.6328 29.3325C65.7708 29.4621 63.0639 29.4785 61.9027 29.3609ZM65.101 27.7761C65.6807 27.6662 66.131 27.4358 66.6146 27.0016C67.8266 25.9136 68.7377 23.6671 69.0961 20.8838C69.2421 19.7502 69.2224 17.1671 69.0607 16.2209C68.6231 13.6619 67.6828 11.98 66.3111 11.3028C65.7421 11.0219 65.6544 11.0021 64.9793 11.0021C64.4966 11.0021 64.0814 11.0537 63.7283 11.1576L63.1998 11.3131L63.1609 14.2257C63.1108 17.9567 63.2324 27.2975 63.3344 27.5655C63.3995 27.7365 63.4712 27.7728 63.7943 27.7982C64.5547 27.8579 64.6805 27.8556 65.101 27.7761ZM84.8454 29.3214C80.8864 28.6084 78.0551 25.8047 77.13 21.6814C77.011 21.1512 76.9584 20.5576 76.9286 19.4096C76.8813 17.5934 77.0293 16.466 77.4986 15.0651C78.3999 12.3755 80.0151 10.4696 82.3614 9.32734C84.8378 8.12169 88.2236 8.04272 90.4153 9.13951C92.8829 10.3744 94.3348 12.8401 94.7031 16.4212C94.7528 16.9034 94.7814 17.4771 94.767 17.6962L94.7408 18.0947L82.9303 18.1356L82.9527 18.8323C83.0049 20.4464 83.3524 21.8741 83.9951 23.1153C84.2873 23.6795 84.5198 23.987 85.0848 24.5566C86.361 25.8434 87.6306 26.3415 89.6335 26.3415C91.0856 26.3415 92.1299 26.0521 93.2221 25.347C93.528 25.1495 93.838 24.9879 93.9109 24.9879C94.0776 24.9879 94.4614 25.4813 94.4614 25.6957C94.4614 26.047 93.3164 27.1793 92.1997 27.9326C91.2851 28.5496 89.8346 29.1084 88.5768 29.328C87.696 29.4821 85.7172 29.4785 84.8454 29.3214ZM87.351 16.3318L88.7394 16.2836L88.6893 15.2987C88.5131 11.8258 87.6621 9.9279 86.2818 9.92949C84.7816 9.93117 83.5827 11.8572 83.0843 15.0665C83.023 15.461 82.9723 15.9288 82.9715 16.1061L82.97 16.4284L84.4663 16.4043C85.2893 16.3908 86.5874 16.3583 87.351 16.3318ZM100.806 29.3988C99.3838 29.2466 97.1212 28.7519 96.3678 28.4285L95.9998 28.2707L95.9496 26.45C95.922 25.4488 95.8902 24.1099 95.8789 23.4749L95.8583 22.3204L96.0789 22.2148C96.2002 22.1568 96.4449 22.1025 96.6229 22.0943L96.9463 22.0793L97.2219 22.7566C98.297 25.3992 99.558 26.824 101.205 27.2574C101.833 27.4228 103.011 27.4243 103.476 27.2602C104.779 26.801 105.494 25.8158 105.5 24.47C105.507 22.8762 104.63 22.1104 101.316 20.8176C99.2624 20.0166 98.5461 19.6044 97.6933 18.7327C96.7732 17.7923 96.3317 16.7219 96.2488 15.231C96.1486 13.4295 96.7131 11.9107 97.9643 10.6166C99.2234 9.31419 100.858 8.60829 103.084 8.40539C105.045 8.22672 108.055 8.642 109.632 9.30877L109.919 9.43038L109.971 11.0531C109.999 11.9455 110.028 13.1419 110.036 13.7117L110.049 14.7476L109.663 14.8909C109.052 15.1173 109.012 15.089 108.672 14.1899C107.719 11.6697 106.613 10.4773 104.889 10.113C103.838 9.891 102.96 10.1297 102.322 10.8109C101.824 11.3423 101.63 11.8142 101.583 12.6067C101.532 13.4652 101.686 13.9294 102.211 14.5034C102.858 15.2109 103.919 15.8216 106.032 16.7034C108.621 17.7835 109.855 18.7004 110.527 20.0405C110.963 20.9109 111.086 21.6061 111.042 22.9442C111.01 23.9483 110.977 24.1546 110.749 24.8287C110.003 27.0266 108.319 28.4736 105.718 29.1521C104.837 29.3819 104.712 29.3937 102.96 29.413C101.951 29.4238 100.981 29.4176 100.806 29.3988ZM0.156836 28.9198C0.090522 28.8931 0.0570855 28.6945 0.0570855 28.3268C0.0570855 27.6664 0.0150305 27.696 1.294 27.4591C2.27507 27.2773 2.62595 27.0915 3.05919 26.5243C3.89909 25.4245 4.08064 23.3071 4.08255 14.5883C4.08431 6.40035 3.9263 4.6779 3.05767 3.4124C2.67223 2.85097 2.02274 2.54607 0.934813 2.41601L0.0969061 2.31584L0.0507812 1.0093L0.313326 0.962598C0.457765 0.936938 5.53046 0.9261 11.5861 0.938452L22.5965 0.961084C22.5965 0.961084 22.6196 1.10453 22.648 1.27985C22.6764 1.45517 22.723 3.25349 22.7516 5.27606L22.8035 8.95351L22.2359 9.12572C21.3814 9.38488 21.3865 9.38807 21.0021 8.37232C20.0579 5.87734 18.9751 4.4397 17.4935 3.71371C16.4717 3.21301 15.9993 3.15252 13.1136 3.15252H10.6023L10.5589 3.5709C10.4777 4.35547 10.3496 9.40241 10.3505 11.7791L10.3514 14.15L11.0895 14.1457C11.4956 14.1434 12.2961 14.1136 12.8686 14.0794C13.7291 14.028 13.9849 13.9824 14.3449 13.816C15.2295 13.407 15.8313 12.507 16.2001 11.0414L16.3904 10.2848L17.693 10.2385V19.8144L16.3899 19.7681L16.2049 19.011C15.8575 17.5885 15.1887 16.5702 14.3622 16.2051C13.9806 16.0366 13.0362 15.9407 11.2092 15.8852L10.3514 15.8591V17.6579C10.3514 19.618 10.4593 22.2697 10.5976 23.7089C10.7904 25.7152 11.3039 26.8237 12.2258 27.225C12.4019 27.3015 12.9589 27.4259 13.4636 27.5014C13.9683 27.5769 14.4442 27.6711 14.521 27.7108C14.7158 27.8112 14.7272 28.8503 14.5345 28.9241C14.3835 28.9821 0.300637 28.9777 0.156836 28.9198ZM39.4947 28.9047C39.4219 28.8585 39.3981 28.6746 39.4149 28.288L39.4388 27.7374L39.7181 27.6781C39.8717 27.6454 40.2017 27.5805 40.4513 27.5339C41.224 27.3898 41.668 26.971 41.918 26.1506C42.1216 25.4823 42.2113 23.3444 42.2159 19.051C42.2216 13.8002 42.1121 12.5601 41.5804 11.8572C41.2923 11.4762 41.0845 11.3679 40.3853 11.2339C40.0403 11.1677 39.6772 11.0968 39.5785 11.0763C39.4185 11.043 39.3989 10.991 39.3989 10.6004C39.3989 10.2207 39.4229 10.1521 39.5785 10.0882C39.8172 9.99014 47.7228 8.41209 47.9753 8.41209H48.1724L48.1337 9.58754C48.1124 10.234 48.0785 11.1754 48.0582 11.6794L48.0214 12.5959L48.3078 12.0801C49.2246 10.4291 50.2528 9.40409 51.62 8.77843C52.3705 8.43488 52.8714 8.33239 53.7986 8.33239C54.8982 8.33239 55.9976 8.69069 55.9976 9.04914C55.9976 9.29013 54.0601 14.4025 53.9533 14.4434C53.9012 14.4633 53.5228 14.3189 53.1126 14.1222C52.257 13.7122 51.4543 13.5118 50.6752 13.5135C49.7048 13.5155 48.6208 13.8725 48.193 14.3309C48.0099 14.5269 48.009 14.5387 47.9635 17.4666C47.9185 20.3662 48.0152 23.9031 48.1785 25.3256C48.3176 26.5375 48.6401 27.134 49.306 27.4119C49.5282 27.5045 50.9338 27.6969 51.3925 27.6974C51.4273 27.6974 51.4452 27.9753 51.4324 28.315L51.4091 28.9326L45.5038 28.9516C42.2558 28.9622 39.5517 28.9411 39.4947 28.9047Z" fill="black"/>
</svg>
