<svg width="37" height="28" viewBox="0 0 37 28" fill="none" xmlns="http://www.w3.org/2000/svg">
<g opacity="0.8" clip-path="url(#clip0_37905_1364)">
<path fill-rule="evenodd" clip-rule="evenodd" d="M19.0285 0.655762H21.4664V18.007H14.8975C14.4099 15.9657 12.9043 14.4347 10.2468 14.4347C7.5892 14.4347 6.08361 15.9657 5.59603 18.007H4.88878C4.88878 18.007 4.88878 18.007 4.88878 17.4967C4.88878 16.476 3.91363 14.945 2.93848 14.4347V0.655763L19.0285 0.655762Z" stroke="black" stroke-miterlimit="2.61313" stroke-linecap="round" stroke-linejoin="round"/>
<path fill-rule="evenodd" clip-rule="evenodd" d="M10.2514 16.7461C11.7141 16.7461 12.6892 17.7668 12.6892 19.2978C12.6892 20.8287 11.7141 21.8494 10.2514 21.8494C8.78863 21.8494 7.81348 20.8287 7.81348 19.2978C7.81348 17.7668 8.78863 16.7461 10.2514 16.7461Z" stroke="black" stroke-miterlimit="2.61313" stroke-linecap="round" stroke-linejoin="round"/>
<path fill-rule="evenodd" clip-rule="evenodd" d="M29.7201 16.7461C31.1828 16.7461 32.158 17.7668 32.158 19.2978C32.158 20.8287 31.1828 21.8494 29.7201 21.8494C28.2574 21.8494 27.2822 20.8287 27.2822 19.2978C27.2822 17.7668 28.2574 16.7461 29.7201 16.7461Z" stroke="black" stroke-miterlimit="2.61313" stroke-linecap="round" stroke-linejoin="round"/>
<path fill-rule="evenodd" clip-rule="evenodd" d="M24.6878 5.0083H30.5387L34.9269 10.622V18.2769H34.166C33.6785 16.2356 32.1729 14.7046 29.5635 14.7046C26.8578 14.7046 25.3522 16.2356 24.8646 18.2769H24.2002V5.0083H24.6878Z" stroke="black" stroke-miterlimit="2.61313" stroke-linecap="round" stroke-linejoin="round"/>
<path d="M34.3447 10.2266L24.3447 10.2266" stroke="black"/>
<path d="M26.8447 5.22656L26.8447 10.2266" stroke="black"/>
<path d="M17.4957 0.655762H3.1416V12.4603H17.4957V0.655762Z" stroke="black" stroke-miterlimit="2.61313" stroke-linecap="round" stroke-linejoin="round"/>
<path d="M10.5667 8.16485C10.2994 8.14303 10.0522 8.07756 9.81011 7.96846C9.51251 7.82662 9.24517 7.63568 9.01818 7.39565C8.79119 7.15561 8.6096 6.87193 8.46837 6.54461C8.33722 6.22275 8.2666 5.86815 8.2666 5.49173C8.2666 5.12077 8.33722 4.76617 8.47341 4.43885C8.6096 4.11153 8.79119 3.82785 9.02322 3.58236C9.25021 3.33687 9.51755 3.14593 9.81516 3.00955C10.1128 2.87317 10.4255 2.80225 10.7534 2.80225C11.0812 2.80225 11.399 2.87317 11.6966 3.00955C11.9993 3.15139 12.2666 3.34233 12.4936 3.58236C12.7256 3.82785 12.9072 4.11153 13.0434 4.43885C13.1796 4.76617 13.2502 5.11531 13.2502 5.49173C13.2502 5.86815 13.1796 6.21729 13.0434 6.54461C12.9072 6.87193 12.7206 7.15561 12.4936 7.39565C12.2616 7.63568 11.9993 7.82662 11.6966 7.96846C11.4142 8.09393 11.1165 8.16485 10.8089 8.17031C10.8139 8.17031 10.6575 8.17576 10.5667 8.16485ZM10.7534 8.02301C11.0106 8.02301 11.2326 7.95755 11.4142 7.83207C11.6008 7.7066 11.7521 7.52658 11.8681 7.30291C11.9892 7.07924 12.0749 6.81192 12.1304 6.50097C12.1859 6.19547 12.2162 5.85724 12.2162 5.48628C12.2162 5.12077 12.1859 4.78254 12.1304 4.47158C12.08 4.16608 11.9942 3.89332 11.8732 3.66965C11.7521 3.44598 11.6008 3.26595 11.4192 3.13502C11.2326 3.00409 11.0157 2.93863 10.7584 2.93863C10.5012 2.93863 10.2792 3.00409 10.0976 3.13502C9.911 3.26595 9.75967 3.44052 9.64366 3.66965C9.52764 3.89877 9.44189 4.16608 9.38136 4.47704C9.32587 4.78799 9.29561 5.12622 9.29561 5.48628C9.29561 5.84633 9.32587 6.18456 9.38136 6.49551C9.43685 6.80647 9.5226 7.07378 9.64366 7.29745C9.75967 7.52112 9.911 7.70115 10.0976 7.82662C10.2792 7.963 10.5012 8.02301 10.7534 8.02301Z" fill="black"/>
<path d="M13.2511 8.73757C12.9131 8.73757 12.6004 8.7703 12.3179 8.83031C12.0355 8.89032 11.7883 8.98852 11.5764 9.11399C11.3696 9.24492 11.2032 9.40858 11.0872 9.60497C10.9711 9.80137 10.9106 10.0414 10.9106 10.3142H10.7744C10.7744 10.276 10.7744 10.2542 10.7744 10.2542C10.7845 9.92138 10.845 9.59952 10.961 9.29402C11.0922 8.97215 11.2687 8.68302 11.4907 8.43207C11.7126 8.18113 11.9749 7.98473 12.2776 7.83744C12.5802 7.69014 12.903 7.61377 13.2511 7.61377V8.73757Z" fill="black"/>
</g>
<defs>
<clipPath id="clip0_37905_1364">
<rect width="36" height="27" fill="white" transform="translate(0.5 0.226562)"/>
</clipPath>
</defs>
</svg>
