<svg width="18" height="18" viewBox="0 0 18 18" fill="none" xmlns="http://www.w3.org/2000/svg">
<g clip-path="url(#clip0_37992_791)">
<path d="M16.1836 5.32361H1.47771C0.970097 5.32361 0.558594 5.73511 0.558594 6.24273V8.08096C0.558594 8.58858 0.970097 9.00008 1.47771 9.00008H16.1836C16.6912 9.00008 17.1027 8.58858 17.1027 8.08096V6.24273C17.1027 5.73511 16.6912 5.32361 16.1836 5.32361Z" stroke="white" stroke-width="1.32353" stroke-linecap="round" stroke-linejoin="round"/>
<path d="M8.83203 5.32361V17.2721" stroke="white" stroke-width="1.32353" stroke-linecap="round" stroke-linejoin="round"/>
<path d="M15.2622 9V15.4338C15.2622 15.9214 15.0685 16.3889 14.7238 16.7337C14.379 17.0784 13.9115 17.2721 13.4239 17.2721H4.23277C3.74524 17.2721 3.27767 17.0784 2.93294 16.7337C2.5882 16.3889 2.39453 15.9214 2.39453 15.4338V9" stroke="white" stroke-width="1.32353" stroke-linecap="round" stroke-linejoin="round"/>
<path d="M4.69233 5.32353C4.08291 5.32353 3.49846 5.08144 3.06754 4.65052C2.63662 4.2196 2.39453 3.63515 2.39453 3.02574C2.39453 2.41632 2.63662 1.83187 3.06754 1.40095C3.49846 0.970029 4.08291 0.727941 4.69233 0.727941C5.57899 0.712493 6.44786 1.1427 7.18565 1.96246C7.92343 2.78223 8.49589 3.9535 8.82835 5.32353C9.16082 3.9535 9.73327 2.78223 10.4711 1.96246C11.2088 1.1427 12.0777 0.712493 12.9644 0.727941C13.5738 0.727941 14.1582 0.970029 14.5892 1.40095C15.0201 1.83187 15.2622 2.41632 15.2622 3.02574C15.2622 3.63515 15.0201 4.2196 14.5892 4.65052C14.1582 5.08144 13.5738 5.32353 12.9644 5.32353" stroke="white" stroke-width="1.32353" stroke-linecap="round" stroke-linejoin="round"/>
</g>
<defs>
<clipPath id="clip0_37992_791">
<rect width="17.6471" height="17.6471" fill="white" transform="translate(0.0078125 0.176514)"/>
</clipPath>
</defs>
</svg>
