<svg xmlns="http://www.w3.org/2000/svg" width="91" height="30" viewBox="0 0 91 30" fill="none">
  <g clip-path="url(#clip0_15556_1444)">
    <mask id="mask0_15556_1444" style="mask-type:luminance" maskUnits="userSpaceOnUse" x="0" y="0" width="13" height="30">
      <path d="M12.5885 0.123047H0.271484V29.1101H12.5885V0.123047Z" fill="white"/>
    </mask>
    <g mask="url(#mask0_15556_1444)">
      <path d="M7.0607 14.5053V14.8516H8.43338V23.7678C8.43338 26.5626 7.76559 28.6773 6.52894 28.6773C3.96907 28.6773 3.40021 19.0685 3.40021 14.4929C3.40021 10.9561 4.16693 0.407477 6.45474 0.407477C9.4227 0.407477 10.1894 9.01456 10.4739 10.1276L10.6099 10.1152L10.2018 0.333277H10.041C10.0039 0.592974 9.94209 0.852671 9.84316 1.11237C9.4969 1.90382 8.69308 1.75543 8.27261 1.14947C7.69139 0.308545 7.18436 0.123047 6.45474 0.123047C2.12646 0.123047 0.271484 9.43502 0.271484 14.5053C0.271484 20.6143 1.86676 29.0978 6.45474 29.1101C7.85215 29.1101 8.91567 27.0449 9.91736 27.0449C10.8201 27.0449 10.8448 28.2445 11.0427 28.8257H11.2035V14.8516H12.5885V14.5053H7.0607Z" fill="#C2BCB1"/>
    </g>
    <path d="M69.9788 28.344V0.346263H68.7793V0H73.9114V0.346263H72.6995L72.7118 28.344H73.9114V28.6903H68.7793V28.344H69.9788Z" fill="#C2BCB1"/>
    <path d="M19.2786 0H25.1156C27.9104 0 29.7159 3.19056 29.7159 7.01181C29.7159 10.8331 28.1948 14.3699 25.8452 14.3699C25.5361 14.3699 25.5608 14.5677 25.8452 14.5677C27.255 14.5677 28.3061 16.2249 28.5287 16.6577C29.3944 18.4385 28.7884 26.6127 29.6541 27.4165C30.3837 28.0967 30.9155 27.0332 31.002 26.8724L31.0886 26.9342C31.0762 27.0084 30.4456 29.1231 28.875 29.1231C27.5642 29.1231 26.9087 27.4784 26.7232 26.452C26.4141 24.7701 26.513 19.638 26.3522 18.5992C26.2038 17.6965 25.8081 15.0129 24.5838 14.778C24.1386 14.6914 23.6934 14.6543 23.2482 14.679V28.443H24.4849V28.7892H19.1055V28.443H20.4781V0.346263H19.2662L19.2786 0ZM23.3966 0.432828V14.1349C23.9779 14.1349 24.9425 14.1967 25.9441 12.923C26.8716 11.7482 27.2426 8.78022 27.2426 6.55425C27.2426 4.19225 26.0307 0.42046 24.4849 0.42046L23.3966 0.432828Z" fill="#C2BCB1"/>
    <path d="M37.0107 28.344L42.2541 0L47.1142 28.344H48.2148V28.6903H43.1693V28.344H44.2699L42.8972 20.4418H38.8781L37.4436 28.3564H38.8657V28.7027H35.7988V28.3688L37.0107 28.344ZM38.9523 20.0832H42.8477L40.968 9.01518L38.9523 20.0832Z" fill="#C2BCB1"/>
    <path d="M79.8232 28.344L85.079 0L89.939 28.344H91.0397V28.6903H85.9941V28.344H87.0947L85.7221 20.4418H81.6906L80.2561 28.3564H81.6782V28.7027H78.6113V28.3688L79.8232 28.344ZM81.7648 20.0832H85.6602L83.7805 9.01518L81.7648 20.0832Z" fill="#C2BCB1"/>
    <path d="M55.412 28.344H58.6644C60.1855 28.2822 62.0528 26.8106 62.0528 22.7296L62.0652 20.3182H62.3496V28.6903H52.5059L59.1838 0.346263H56.0674C54.1011 0.346263 53.0129 3.41316 53.0129 6.23272C53.0129 6.96234 52.9882 8.35976 52.9882 8.35976H52.7037V0H62.2754L55.412 28.344Z" fill="#C2BCB1"/>
  </g>
  <defs>
    <clipPath id="clip0_15556_1444">
      <rect width="90.7297" height="29.1231" fill="white" transform="translate(0.269531)"/>
    </clipPath>
  </defs>
</svg>