<svg width="28" height="13" viewBox="0 0 28 13" fill="none" xmlns="http://www.w3.org/2000/svg">
<g opacity="0.2">
<ellipse cx="6.5009" cy="6.33276" rx="6.19231" ry="6" fill="black"/>
<path d="M26.7616 4.99687C26.6195 4.99687 26.4831 5.0455 26.3826 5.13205C26.282 5.21861 26.2256 5.336 26.2256 5.45841V8.59687C26.2256 8.71928 26.282 8.83667 26.3826 8.92323C26.4831 9.00978 26.6195 9.05841 26.7616 9.05841C26.9038 9.05841 27.0401 9.00978 27.1407 8.92323C27.2412 8.83667 27.2977 8.71928 27.2977 8.59687V5.45841C27.2977 5.336 27.2412 5.21861 27.1407 5.13205C27.0401 5.0455 26.9038 4.99687 26.7616 4.99687ZM26.7616 3.10456C26.6165 3.10926 26.479 3.16162 26.3773 3.25088C26.2756 3.34015 26.2175 3.45955 26.2148 3.58456V3.65841C26.2146 3.71863 26.2289 3.77823 26.2569 3.83343C26.2848 3.88862 26.3258 3.93821 26.3773 3.97901C26.4287 4.01982 26.4894 4.05097 26.5556 4.07046C26.6218 4.08996 26.6919 4.09738 26.7616 4.09225C26.9021 4.08769 27.0354 4.03759 27.1348 3.95201C27.2342 3.86642 27.2924 3.75167 27.2977 3.63072V3.51995C27.2981 3.46129 27.2841 3.40322 27.2566 3.34956C27.229 3.2959 27.1886 3.24786 27.138 3.20862C27.0873 3.16938 27.0276 3.13982 26.9627 3.12188C26.8979 3.10395 26.8293 3.09804 26.7616 3.10456Z" fill="white"/>
</g>
</svg>
