<svg width="41" height="41" viewBox="0 0 41 41" fill="none" xmlns="http://www.w3.org/2000/svg">
<rect x="0.75" y="0.565918" width="40" height="40" rx="20" fill="#F6F6F7"/>
<g clip-path="url(#clip0_2012_800)">
<path d="M29.007 21.4468C29.007 26.547 25.4369 29.0971 21.1936 30.5761C20.9714 30.6514 20.73 30.6478 20.5101 30.5659C16.2566 29.0971 12.6865 26.547 12.6865 21.4468V14.3066C12.6865 14.0361 12.794 13.7767 12.9853 13.5854C13.1766 13.3941 13.436 13.2866 13.7066 13.2866C15.7466 13.2866 18.2967 12.0626 20.0715 10.5121C20.2876 10.3275 20.5625 10.2261 20.8467 10.2261C21.131 10.2261 21.4059 10.3275 21.622 10.5121C23.407 12.0728 25.9469 13.2866 27.9869 13.2866C28.2575 13.2866 28.5169 13.3941 28.7082 13.5854C28.8995 13.7767 29.007 14.0361 29.007 14.3066V21.4468Z" stroke="#FF5429" stroke-linecap="round" stroke-linejoin="round"/>
<path d="M17.1785 20.4281L19.8517 23.1013L25.1981 17.7549" stroke="#FF5429" stroke-linecap="round" stroke-linejoin="round"/>
</g>
<defs>
<clipPath id="clip0_2012_800">
<rect width="18.3333" height="22" fill="white" transform="translate(11.5833 9.56592)"/>
</clipPath>
</defs>
</svg>
