<svg width="51" height="46" viewBox="0 0 51 46" fill="none" xmlns="http://www.w3.org/2000/svg">
<path d="M25.8347 14.2305C26.1998 14.253 26.6772 14.3037 27.1082 14.3037C27.4273 14.3038 27.9717 14.464 28.4363 14.79C28.8964 15.1129 29.2008 15.5409 29.2009 16.042C29.2009 16.5878 28.9197 17.1675 28.4294 17.6191C27.9422 18.0679 27.2749 18.3643 26.5535 18.3643C25.7748 18.3642 24.8699 18.1796 24.1736 17.8242C23.4683 17.4642 23.0759 16.9874 23.0759 16.4307C23.0761 15.8116 23.4031 15.3305 23.8357 14.9619C24.1621 14.6838 24.5274 14.4887 24.7947 14.3721L25.0242 14.2812L25.0369 14.2773L25.0486 14.2715C25.1009 14.2492 25.1916 14.2287 25.3357 14.2207C25.4763 14.2129 25.643 14.2186 25.8347 14.2305Z" stroke="#212428" stroke-width="0.8"/>
<path d="M10.7827 5.49268C12.646 5.40045 15.269 5.52917 18.7417 6.16064C19.6965 6.8418 20.1918 7.33044 20.4224 7.7417C20.6354 8.12173 20.6378 8.46273 20.4849 8.93701C20.405 9.1847 20.285 9.46006 20.1323 9.78857C19.9828 10.1102 19.8009 10.4867 19.6138 10.9077C19.2825 11.6531 18.9246 12.5633 18.6333 13.7202L18.5132 14.2319C18.2111 15.6044 17.9871 16.5413 17.7788 17.2153C17.5709 17.8882 17.3867 18.2692 17.1763 18.5454C16.9663 18.8209 16.711 19.0189 16.2993 19.3022C15.891 19.5833 15.3473 19.9369 14.6294 20.5063C12.1558 22.4681 7.7853 21.7666 4.64795 17.1987L4.34814 16.7446C3.15835 14.8675 3.38643 12.7334 4.21826 10.7651C5.0403 8.82014 6.42754 7.10456 7.46729 6.11084C7.88089 5.88971 8.94185 5.58381 10.7827 5.49268Z" stroke="#212428" stroke-width="0.8"/>
<path d="M10.7986 6.81641C12.3428 6.73912 14.5189 6.84679 17.4021 7.37598C18.1875 7.94386 18.5872 8.3458 18.7712 8.67773C18.9385 8.97936 18.9423 9.24926 18.8181 9.63867C18.7527 9.84359 18.6543 10.072 18.5271 10.3486C18.403 10.6185 18.2507 10.9375 18.0945 11.293C17.8173 11.9236 17.518 12.6944 17.2742 13.6738L17.1736 14.1064C16.9218 15.2633 16.736 16.0508 16.5632 16.6162C16.3908 17.1804 16.2391 17.4934 16.0701 17.7178C15.9017 17.9412 15.6966 18.1035 15.3542 18.3418C15.0998 18.5189 14.7799 18.7319 14.3826 19.0303L13.9587 19.3594C11.9421 20.9769 8.34184 20.4201 5.73804 16.5859L5.48901 16.2051C4.51181 14.6463 4.69607 12.8693 5.3855 11.2197C6.06526 9.59355 7.21282 8.15791 8.07397 7.32422C8.41102 7.14581 9.28035 6.89241 10.7986 6.81641Z" stroke="#212428" stroke-width="0.8"/>
<path d="M13.2698 12.4834C13.7119 12.4837 14.0762 12.8461 14.0764 13.3018C14.0764 13.7576 13.712 14.1208 13.2698 14.1211C12.8274 14.1211 12.4622 13.7577 12.4622 13.3018C12.4623 12.8459 12.8275 12.4834 13.2698 12.4834Z" stroke="#212428" stroke-width="0.8"/>
<path d="M12.4631 15.7344C12.9052 15.7346 13.2696 16.0971 13.2698 16.5527C13.2698 17.0086 12.9053 17.3718 12.4631 17.3721C12.0207 17.3721 11.6555 17.0087 11.6555 16.5527C11.6557 16.0969 12.0208 15.7344 12.4631 15.7344Z" stroke="#212428" stroke-width="0.8"/>
<path d="M8.43872 15.3281C8.88081 15.3284 9.24517 15.6908 9.24536 16.1465C9.24536 16.6023 8.88092 16.9656 8.43872 16.9658C7.99631 16.9658 7.6311 16.6025 7.6311 16.1465C7.63129 15.6907 7.99643 15.3281 8.43872 15.3281Z" stroke="#212428" stroke-width="0.8"/>
<path d="M8.03564 12.0762C8.47773 12.0764 8.8421 12.4389 8.84229 12.8945C8.84229 13.3504 8.47784 13.7136 8.03564 13.7139C7.59324 13.7139 7.22803 13.3505 7.22803 12.8945C7.22822 12.4387 7.59335 12.0762 8.03564 12.0762Z" stroke="#212428" stroke-width="0.8"/>
<path d="M10.8538 9.23193C11.2958 9.23219 11.6602 9.59464 11.6604 10.0503C11.6604 10.5061 11.296 10.8694 10.8538 10.8696C10.4114 10.8696 10.0461 10.5063 10.0461 10.0503C10.0463 9.59448 10.4115 9.23193 10.8538 9.23193Z" stroke="#212428" stroke-width="0.8"/>
<path d="M15.6824 9.23193C16.1245 9.23219 16.4888 9.59464 16.489 10.0503C16.489 10.5061 16.1246 10.8694 15.6824 10.8696C15.24 10.8696 14.8748 10.5063 14.8748 10.0503C14.8749 9.59448 15.2401 9.23193 15.6824 9.23193Z" stroke="#212428" stroke-width="0.8"/>
<path d="M35.5044 16.6914C35.8097 16.6851 36.2281 16.7452 36.8989 16.8857C37.5658 17.0255 38.4424 17.2361 39.6577 17.5146C40.8501 17.7879 42.3579 18.1233 44.2856 18.5176C44.8186 18.9346 45.2868 19.2832 45.6948 19.583C46.1242 19.8986 46.4793 20.1562 46.7778 20.3887C47.3794 20.8572 47.6834 21.1761 47.8374 21.5479C47.9918 21.9209 48.0198 22.4095 47.9038 23.2764C47.8459 23.7091 47.7556 24.2171 47.6372 24.8301L47.2036 27.0146C46.868 28.7099 46.6192 29.8725 46.3862 30.7109C46.1534 31.5489 45.9437 32.033 45.7007 32.3877C45.4595 32.7396 45.1682 32.9903 44.7114 33.3398C44.3705 33.6007 43.9467 33.9102 43.4204 34.3447L42.8589 34.8242C41.4126 36.0995 39.4426 36.4609 37.3843 35.75C35.4472 35.081 33.421 33.4541 31.73 30.7188L31.396 30.1572C30.0475 27.7923 30.3118 25.1058 31.2437 22.6543C32.165 20.2306 33.7183 18.0987 34.8784 16.8672C35.0645 16.754 35.2399 16.6969 35.5044 16.6914Z" stroke="#212428" stroke-width="0.8"/>
<path d="M35.9763 17.937C36.1782 17.914 36.4676 17.9333 36.9744 18.0239C37.9824 18.2042 39.661 18.6239 42.8552 19.3188C43.2888 19.6796 43.6744 19.9853 44.0144 20.2515C44.3763 20.5348 44.6799 20.7692 44.9392 20.9839C45.4602 21.4151 45.7489 21.7247 45.9099 22.0835C46.0695 22.4395 46.1258 22.8957 46.0603 23.6646C46.011 24.2432 45.8956 24.9689 45.7244 25.9233L45.5349 26.9575C45.259 28.4411 45.0543 29.4575 44.863 30.1899C44.6718 30.9225 44.5015 31.3424 44.3054 31.647C44.1119 31.9476 43.8778 32.1616 43.5037 32.4663C43.2242 32.694 42.8744 32.9655 42.4402 33.3472L41.9773 33.7681C40.8092 34.8645 39.2251 35.1738 37.5632 34.563C35.9931 33.9858 34.3361 32.5764 32.949 30.188L32.6755 29.6978C31.5733 27.6402 31.7878 25.298 32.5525 23.1567C33.3078 21.0417 34.5814 19.1822 35.531 18.1089C35.6897 18.0051 35.8108 17.9559 35.9763 17.937Z" stroke="#212428" stroke-width="0.8"/>
<path d="M38.7505 26.5508C39.1926 26.551 39.5569 26.9135 39.5571 27.3691C39.5571 27.825 39.1927 28.1882 38.7505 28.1885C38.3081 28.1885 37.9429 27.8251 37.9429 27.3691C37.9431 26.9133 38.3082 26.5508 38.7505 26.5508Z" stroke="#212428" stroke-width="0.8"/>
<path d="M36.2356 20.0352C36.6777 20.0354 37.042 20.3979 37.0422 20.8535C37.0422 21.3093 36.6778 21.6726 36.2356 21.6729C35.7932 21.6729 35.428 21.3095 35.428 20.8535C35.4282 20.3977 35.7933 20.0352 36.2356 20.0352Z" stroke="#212428" stroke-width="0.8"/>
<path d="M41.7275 28.5361C42.1696 28.5364 42.534 28.8988 42.5342 29.3545C42.5342 29.8103 42.1697 30.1736 41.7275 30.1738C41.2851 30.1738 40.9199 29.8105 40.9199 29.3545C40.9201 28.8987 41.2852 28.5361 41.7275 28.5361Z" stroke="#212428" stroke-width="0.8"/>
<path d="M35.9077 29.4634C36.3498 29.4636 36.7142 29.8261 36.7144 30.2817C36.7144 30.7376 36.3499 31.1008 35.9077 31.1011C35.4653 31.1011 35.1001 30.7377 35.1001 30.2817C35.1003 29.8259 35.4654 29.4634 35.9077 29.4634Z" stroke="#212428" stroke-width="0.8"/>
<path d="M35.5054 26.2124C35.9475 26.2127 36.3118 26.5751 36.312 27.0308C36.312 27.4866 35.9476 27.8498 35.5054 27.8501C35.063 27.8501 34.6978 27.4867 34.6978 27.0308C34.6979 26.5749 35.0631 26.2124 35.5054 26.2124Z" stroke="#212428" stroke-width="0.8"/>
<path d="M38.3223 23.3682C38.7643 23.3684 39.1287 23.7309 39.1289 24.1865C39.1289 24.6423 38.7645 25.0056 38.3223 25.0059C37.8799 25.0059 37.5146 24.6425 37.5146 24.1865C37.5148 23.7307 37.88 23.3682 38.3223 23.3682Z" stroke="#212428" stroke-width="0.8"/>
<path d="M42.623 23.8008C43.0651 23.801 43.4295 24.1635 43.4297 24.6191C43.4297 25.075 43.0652 25.4382 42.623 25.4385C42.1806 25.4385 41.8154 25.0751 41.8154 24.6191C41.8156 24.1633 42.1808 23.8008 42.623 23.8008Z" stroke="#212428" stroke-width="0.8"/>
<path d="M24.1484 33.1904C24.2389 34.0275 24.3447 35.3158 24.376 36.5625C24.3922 37.2079 24.3881 37.8369 24.3535 38.3838C24.3272 38.7998 24.284 39.1528 24.2236 39.4238L24.1572 39.667C24.0313 40.0447 23.8257 40.3705 23.5713 40.5381C23.3509 40.6831 23.0357 40.7494 22.5498 40.4922C22.0375 40.2209 21.3628 39.5987 20.5264 38.3828C19.7011 37.1831 18.7387 35.436 17.6328 32.9541C17.4479 31.3433 18.0743 30.3798 18.915 29.7949C19.718 29.2363 20.7415 29.0104 21.5137 28.9746L24.1484 33.1904Z" stroke="#212428" stroke-width="0.8"/>
<path d="M6.13672 26.1162L6.21387 26.417L6.62988 28.0303L6.63965 28.0703L6.6416 28.1113C6.65561 28.4175 6.67283 28.9064 6.67773 29.3809C6.68133 29.7285 6.67855 30.0873 6.66113 30.3613L6.63867 30.6035C6.61746 30.758 6.57292 30.9848 6.4707 31.1484C6.42284 31.225 6.29261 31.3981 6.05273 31.4062C5.81858 31.4141 5.67016 31.2573 5.60449 31.1729C5.4631 30.991 5.33997 30.675 5.21484 30.2334C5.08411 29.772 4.93571 29.1153 4.76855 28.2021L4.76465 28.1758L4.7627 28.1504C4.72719 27.4608 4.8345 26.9698 5.03223 26.6357C5.23154 26.2991 5.53249 26.1162 5.82715 26.1162H6.13672Z" stroke="#212428" stroke-width="0.8"/>
<path d="M13.8459 24.9932L13.9622 25.1064L14.3772 25.5098L14.469 25.5986L14.4924 25.7246C14.5088 25.8142 14.5277 25.9542 14.5334 26.0938C14.5363 26.1635 14.5366 26.2428 14.5286 26.3193C14.5232 26.3701 14.512 26.4429 14.4836 26.5186L14.4495 26.5947C14.3893 26.7042 14.2856 26.8107 14.137 26.8701C13.984 26.9313 13.8167 26.9291 13.6545 26.877C13.391 26.7922 13.1193 26.5698 12.8245 26.2002L12.6965 26.0332L12.6448 25.9629L12.6272 25.8779C12.5878 25.6868 12.63 25.5035 12.7395 25.3574C12.8379 25.2263 12.971 25.1504 13.0774 25.1055C13.2887 25.0163 13.531 24.9932 13.6838 24.9932H13.8459Z" stroke="#212428" stroke-width="0.8"/>
</svg>
