<svg width="48" height="260" viewBox="0 0 48 260" fill="none" xmlns="http://www.w3.org/2000/svg">
<rect x="0.582031" y="0.226562" width="47" height="47" rx="23.5" fill="black"/>
<path d="M21.262 32.7266V32.6786C21.502 32.3586 21.702 32.0706 21.862 31.8146C22.022 31.5426 22.142 31.2706 22.222 30.9986C22.318 30.7266 22.382 30.4306 22.414 30.1106C22.446 29.7906 22.462 29.4146 22.462 28.9826V18.8786H20.35V18.6386C21.342 18.1746 22.278 17.6306 23.158 17.0066C24.038 16.3826 24.87 15.6626 25.654 14.8466H25.942V28.9826C25.942 29.4146 25.958 29.7906 25.99 30.1106C26.022 30.4306 26.078 30.7266 26.158 30.9986C26.254 31.2706 26.382 31.5426 26.542 31.8146C26.702 32.0706 26.902 32.3586 27.142 32.6786V32.7266H21.262Z" fill="white"/>
<line x1="24.832" y1="49.2232" x2="25.332" y2="198.315" stroke="url(#paint0_linear_39190_384)" stroke-width="2"/>
<rect x="1.08203" y="200.818" width="46" height="46" rx="23" fill="white"/>
<rect x="1.08203" y="200.818" width="46" height="46" rx="23" stroke="#DDD9D9"/>
<path d="M17.678 232.818V232.482C19.262 231.042 20.582 229.738 21.638 228.57C22.694 227.386 23.542 226.29 24.182 225.282C24.838 224.274 25.302 223.322 25.574 222.426C25.846 221.514 25.982 220.602 25.982 219.69C25.982 218.362 25.75 217.314 25.286 216.546C24.822 215.778 24.134 215.394 23.222 215.394C22.774 215.394 22.35 215.506 21.95 215.73C21.55 215.954 21.166 216.274 20.798 216.69C20.43 217.09 20.078 217.57 19.742 218.13C19.406 218.69 19.07 219.306 18.734 219.978L18.494 219.906L19.118 215.658C19.55 215.482 20.11 215.314 20.798 215.154C21.486 214.978 22.326 214.89 23.318 214.89C24.39 214.89 25.31 215.01 26.078 215.25C26.862 215.49 27.502 215.826 27.998 216.258C28.494 216.674 28.862 217.17 29.102 217.746C29.342 218.322 29.462 218.946 29.462 219.618C29.462 220.466 29.27 221.298 28.886 222.114C28.518 222.93 27.966 223.762 27.23 224.61C26.51 225.442 25.606 226.306 24.518 227.202C23.43 228.082 22.182 229.018 20.774 230.01H25.262C26.366 230.01 27.27 229.802 27.974 229.386C28.694 228.954 29.31 228.434 29.822 227.826L30.014 227.874L28.502 232.818H17.678Z" fill="#DDD9D9"/>
<defs>
<linearGradient id="paint0_linear_39190_384" x1="23.332" y1="49.2282" x2="23.832" y2="198.32" gradientUnits="userSpaceOnUse">
<stop/>
<stop offset="1" stop-color="#EEEAEA"/>
</linearGradient>
</defs>
</svg>
