<svg width="47" height="256" viewBox="0 0 47 256" fill="none" xmlns="http://www.w3.org/2000/svg">
<rect x="5.57031" y="0.5" width="35.8584" height="35.8584" rx="17.9292" fill="black"/>
<path d="M21.3482 24.5625V24.5259C21.5313 24.2817 21.6838 24.062 21.8059 23.8667C21.928 23.6592 22.0195 23.4517 22.0806 23.2441C22.1538 23.0366 22.2027 22.8108 22.2271 22.5666C22.2515 22.3225 22.2637 22.0356 22.2637 21.706V13.9972H20.6523V13.8141C21.4092 13.4601 22.1233 13.0451 22.7947 12.569C23.4661 12.0929 24.1009 11.5436 24.699 10.921H24.9187V21.706C24.9187 22.0356 24.9309 22.3225 24.9554 22.5666C24.9798 22.8108 25.0225 23.0366 25.0835 23.2441C25.1568 23.4517 25.2544 23.6592 25.3765 23.8667C25.4986 24.062 25.6512 24.2817 25.8343 24.5259V24.5625H21.3482Z" fill="white"/>
<line x1="24.5" y1="38.3584" x2="24.5" y2="217.995" stroke="url(#paint0_linear_39190_418)" stroke-width="2"/>
<rect x="5.95178" y="220.377" width="35.0955" height="35.0955" rx="17.5477" fill="white"/>
<rect x="5.95178" y="220.377" width="35.0955" height="35.0955" rx="17.5477" stroke="#DDD9D9" stroke-width="0.762945"/>
<path d="M18.6143 244.057V243.801C19.8228 242.702 20.8298 241.708 21.6355 240.816C22.4412 239.913 23.0882 239.077 23.5765 238.308C24.0769 237.539 24.4309 236.812 24.6385 236.129C24.846 235.433 24.9498 234.737 24.9498 234.041C24.9498 233.028 24.7727 232.229 24.4187 231.643C24.0647 231.057 23.5398 230.764 22.844 230.764C22.5022 230.764 22.1787 230.849 21.8736 231.02C21.5684 231.191 21.2754 231.435 20.9946 231.753C20.7139 232.058 20.4453 232.424 20.189 232.851C19.9326 233.278 19.6763 233.748 19.4199 234.261L19.2368 234.206L19.7129 230.965C20.0425 230.831 20.4697 230.703 20.9946 230.581C21.5196 230.446 22.1604 230.379 22.9173 230.379C23.7351 230.379 24.4371 230.471 25.023 230.654C25.6211 230.837 26.1094 231.093 26.4878 231.423C26.8663 231.74 27.147 232.119 27.3301 232.558C27.5132 232.998 27.6048 233.474 27.6048 233.987C27.6048 234.633 27.4583 235.268 27.1653 235.891C26.8846 236.513 26.4634 237.148 25.9019 237.795C25.3526 238.43 24.6629 239.089 23.8328 239.773C23.0027 240.444 22.0506 241.158 20.9763 241.915H24.4004C25.2427 241.915 25.9324 241.756 26.4695 241.439C27.0189 241.109 27.4888 240.713 27.8795 240.249L28.0259 240.285L26.8724 244.057H18.6143Z" fill="#DDD9D9"/>
<defs>
<linearGradient id="paint0_linear_39190_418" x1="23" y1="38.3584" x2="23" y2="217.995" gradientUnits="userSpaceOnUse">
<stop/>
<stop offset="1" stop-color="#EEEAEA"/>
</linearGradient>
</defs>
</svg>
