<svg width="23" height="11" viewBox="0 0 23 11" fill="none" xmlns="http://www.w3.org/2000/svg">
<path d="M0.777344 4.52656C0.390744 4.52656 0.0773438 4.83996 0.0773438 5.22656C0.0773438 5.61316 0.390744 5.92656 0.777344 5.92656V4.52656ZM22.0765 5.72154C22.3499 5.44817 22.3499 5.00495 22.0765 4.73159L17.6217 0.276815C17.3484 0.00344801 16.9052 0.00344801 16.6318 0.276815C16.3584 0.550182 16.3584 0.993398 16.6318 1.26676L20.5916 5.22656L16.6318 9.18636C16.3584 9.45973 16.3584 9.90294 16.6318 10.1763C16.9052 10.4497 17.3484 10.4497 17.6217 10.1763L22.0765 5.72154ZM0.777344 5.22656V5.92656H21.5815V5.22656V4.52656H0.777344V5.22656Z" fill="black"/>
</svg>
