 <svg xmlns="http://www.w3.org/2000/svg" width="112" height="112" viewBox="0 0 112 112"
                                    fill="none">
                                    <path
                                        d="M66.319 83.315C63.4089 84.7932 60.1139 85.6246 56.6187 85.6246C44.7166 85.6246 35.0625 75.9705 35.0625 64.0684C35.0625 63.5603 35.0779 63.0676 35.1087 62.5749C35.1087 62.5749 33.6921 53.2903 56.6187 19.9243C77.8516 50.8267 78.2057 61.0813 78.1442 62.4209"
                                        stroke="black" stroke-width="1.2" stroke-miterlimit="2.61313"
                                        stroke-linecap="round" stroke-linejoin="round" />
                                    <path d="M57.9339 75.8475C50.2044 75.8475 43.9531 69.5808 43.9531 61.8667"
                                        stroke="black" stroke-width="1.2" stroke-miterlimit="2.61313"
                                        stroke-linecap="round" stroke-linejoin="round" />
                                    <path
                                        d="M27.7599 42.8509C34.3928 42.8509 39.7698 37.4738 39.7698 30.841C39.7698 24.2081 34.3928 18.8311 27.7599 18.8311C21.127 18.8311 15.75 24.2081 15.75 30.841C15.75 37.4738 21.127 42.8509 27.7599 42.8509Z"
                                        stroke="black" stroke-width="1.2" stroke-miterlimit="2.61313"
                                        stroke-linecap="round" stroke-linejoin="round" />
                                    <path d="M28.2499 36.6918C24.7548 36.6918 21.9062 33.8587 21.9062 30.3481"
                                        stroke="black" stroke-width="1.2" stroke-miterlimit="2.61313"
                                        stroke-linecap="round" stroke-linejoin="round" />
                                    <path
                                        d="M80.7553 93.1693C89.31 93.1693 96.245 86.2344 96.245 77.6796C96.245 69.1249 89.31 62.1899 80.7553 62.1899C72.2006 62.1899 65.2656 69.1249 65.2656 77.6796C65.2656 86.2344 72.2006 93.1693 80.7553 93.1693Z"
                                        stroke="black" stroke-width="1.2" stroke-miterlimit="2.61313"
                                        stroke-linecap="round" stroke-linejoin="round" />
                                    <path fill-rule="evenodd" clip-rule="evenodd"
                                        d="M80.0674 71.7673V70.8588C80.0674 70.4585 80.283 70.2275 80.6833 70.2275H80.8065C81.176 70.2275 81.407 70.4123 81.407 70.7818V71.7211C82.2538 71.7827 83.0545 72.0752 83.7474 72.5525C84.0707 72.7681 84.0861 73.076 83.9321 73.3994L83.7166 73.7997C83.501 74.1692 83.1777 74.2 82.8389 73.9845C82.2384 73.5995 81.561 73.3532 80.8373 73.3532C79.9135 73.3532 78.8664 73.8921 78.8664 74.9237C78.8664 77.0793 84.4557 76.6636 84.4557 80.3436C84.4557 82.1605 83.1315 83.3768 81.407 83.6078V84.4854C81.407 84.8704 81.2068 85.1167 80.8065 85.1167H80.6833C80.3138 85.1167 80.0674 84.932 80.0674 84.547V83.6078C79.0512 83.5 78.112 83.0997 77.3113 82.4684C77.0034 82.222 76.9726 81.8987 77.2189 81.5908L77.4807 81.2212C77.727 80.8825 78.035 80.8825 78.3737 81.098C79.0666 81.6215 79.9135 81.9603 80.7911 81.9603C81.7611 81.9603 82.685 81.4368 82.685 80.3744C82.685 78.111 77.0957 78.4497 77.0957 74.9391C77.0957 73.2146 78.4507 71.9982 80.0828 71.7211L80.0674 71.7673Z"
                                        fill="black" />
                                    <path d="M91.4897 82.1602C89.7344 86.3636 85.5926 89.3045 80.7578 89.3045"
                                        stroke="black" stroke-width="1.2" stroke-miterlimit="2.61313"
                                        stroke-linecap="round" stroke-linejoin="round" />
                                    <path d="M88.2266 68.7646C89.3044 69.6731 90.2128 70.7663 90.9211 71.9981"
                                        stroke="black" stroke-width="1.2" stroke-miterlimit="2.61313"
                                        stroke-linecap="round" stroke-linejoin="round" />
                                </svg>