<svg width="51" height="46" viewBox="0 0 51 46" fill="none" xmlns="http://www.w3.org/2000/svg">
<path d="M29.6206 28.4632C29.6206 26.0038 31.4651 24.7741 32.08 24.4667C32.5859 24.1593 33.6171 24.4667 34.5394 24.4667C35.4617 24.4667 37.3062 25.6964 37.3062 27.8484C37.3062 30.0003 35.7691 32.1523 33.9245 32.1523C32.08 32.1523 29.6206 30.9226 29.6206 28.4632Z" stroke="#212428" stroke-width="0.9"/>
<path d="M13.1004 28.6001C15.9454 28.0393 17.7959 29.9306 18.2942 30.5844C18.7673 31.1099 18.6509 32.3942 18.865 33.48C19.079 34.5658 18.0845 37.0179 15.5952 37.5085C13.1058 37.9992 10.2597 36.6801 9.83171 34.5084C9.40368 32.3367 10.2555 29.1608 13.1004 28.6001Z" stroke="#212428" stroke-width="0.9"/>
<path d="M19.4751 32.6868C19.4751 30.1737 21.8361 28.9171 22.6231 28.603C23.2706 28.2889 24.5906 28.603 25.7711 28.603C26.9516 28.603 29.3127 29.8595 29.3127 32.0585C29.3127 34.2574 27.3451 36.4564 24.9841 36.4564C22.6231 36.4564 19.4751 35.1998 19.4751 32.6868Z" stroke="#212428" stroke-width="0.9"/>
<path d="M26.8526 42.6049C24.6392 42.1131 24.9056 39.5307 25.3155 38.301C25.4068 37.9936 26.2379 37.0713 26.8526 36.4564C27.4674 35.8416 29.3121 35.5342 31.1566 34.9193C33.0012 34.3045 34.5383 32.7674 37.92 31.8451C41.3016 30.9228 42.5313 34.6119 42.8387 35.8416C43.1462 37.0713 41.609 39.5307 39.4571 40.1455C37.3051 40.7604 36.6903 41.9901 35.768 42.6049C34.8457 43.2198 29.6194 43.2198 26.8526 42.6049Z" stroke="#212428" stroke-width="0.9"/>
<path d="M16.9939 21.3291C14.865 22.1442 13.4501 19.641 13.0088 18.2875C12.8894 17.9555 12.9884 16.6416 13.1043 15.731C13.2202 14.8204 14.5406 13.4879 15.6665 11.8756C16.7923 10.2633 17.0822 7.9867 19.2759 5.21742C21.4696 2.44813 24.2856 6.92189 25.316 7.8661C26.3464 8.8103 27.1675 10.11 25.7892 11.8978C24.4109 13.6855 24.1472 14.6449 23.7788 15.731C23.4103 16.817 19.655 20.3101 16.9939 21.3291Z" stroke="#212428" stroke-width="0.9"/>
<path d="M19.055 28.8C15.9632 29.4726 15.4147 26.9903 15.5268 25.665C15.5401 25.3394 16.3151 24.0805 16.9119 23.2106C17.5087 22.3407 19.8354 21.128 22.0547 19.636C24.274 18.1439 25.7663 15.969 29.9064 13.4199C34.0466 10.8708 36.9549 13.6024 37.7891 14.5647C38.6233 15.5271 37.4525 18.5404 34.8276 20.188C32.2027 21.8355 28.2875 22.0545 27.285 23.08C26.2825 24.1055 22.9198 27.9593 19.055 28.8Z" stroke="#212428" stroke-width="0.9"/>
</svg>
