<svg width="51" height="46" viewBox="0 0 51 46" fill="none" xmlns="http://www.w3.org/2000/svg">
<path d="M30.9128 40.9116C31.2779 40.965 31.5583 41.2766 31.5583 41.6528C31.5582 42.0676 31.2231 42.4028 30.8083 42.4028C30.3937 42.4027 30.0585 42.0675 30.0583 41.6528C30.0583 41.306 30.2936 41.0167 30.6218 40.9302L30.7703 40.8901L30.9128 40.9116ZM24.5603 38.7505C24.8143 38.4995 25.2008 38.4643 25.488 38.6431L25.6111 38.7202L25.7029 38.8472C25.8856 39.1019 25.8902 39.4466 25.7117 39.7056L25.6238 39.811C25.3291 40.1057 24.8559 40.1056 24.5613 39.811C24.2671 39.5168 24.2661 39.0443 24.5593 38.7495L24.5603 38.7505ZM36.0837 38.6792C36.3422 38.4879 36.6916 38.4835 36.9509 38.6616L37.0554 38.7485C37.3501 39.0432 37.3501 39.5164 37.0554 39.811C36.7791 40.0871 36.3463 40.1045 36.0505 39.8628L35.9939 39.811L35.9919 39.8091L35.9089 39.7124C35.7388 39.473 35.729 39.1519 35.8816 38.8979L35.9558 38.7729L36.0837 38.6792ZM30.9519 28.9097C32.0966 28.9422 33.1348 29.3883 33.9265 30.1069L34.0808 30.2466L34.2205 30.397C34.9548 31.1842 35.4138 32.227 35.4626 33.3774L35.4714 33.5845L35.4626 33.7788C35.4098 34.9247 34.9473 35.9641 34.2126 36.7476L34.0828 36.8843L33.9197 37.0327C33.1273 37.7437 32.0962 38.1855 30.9548 38.2222L30.7478 38.228L30.5476 38.2183C29.4231 38.1573 28.4082 37.6989 27.6365 36.98L27.5125 36.8638L27.3523 36.687C26.6499 35.9116 26.2069 34.8963 26.1541 33.7788L26.1423 33.5464L26.1501 33.3765C26.1949 32.2554 26.6327 31.2367 27.3347 30.4575L27.489 30.2856L27.6199 30.1646C28.3962 29.437 29.4153 28.9745 30.5437 28.9136L30.7371 28.9028L30.9519 28.9097ZM22.7195 32.8179C23.0816 32.8179 23.389 33.0822 23.4539 33.4292L23.4832 33.5894L23.4558 33.7183C23.3814 34.0634 23.0791 34.3179 22.7195 34.3179C22.3047 34.3178 21.9695 33.9827 21.9695 33.5679C21.9696 33.1531 22.3048 32.818 22.7195 32.8179ZM38.8933 32.8179H38.8972C39.312 32.8179 39.6471 33.1531 39.6472 33.5679C39.6472 33.9827 39.3121 34.3179 38.8972 34.3179C38.5353 34.3178 38.2323 34.0615 38.1619 33.7212L38.1316 33.5757L38.1589 33.4292C38.2239 33.0813 38.5277 32.8179 38.8933 32.8179ZM24.5574 27.3208C24.8337 27.0447 25.2665 27.0272 25.5623 27.269L25.6189 27.3208C25.8816 27.5835 25.9067 27.9972 25.6882 28.2925L25.5945 28.4194L25.4705 28.4946C25.2183 28.6464 24.8963 28.6352 24.655 28.4653L24.5574 28.3833C24.2811 28.107 24.2639 27.6742 24.5056 27.3784L24.5574 27.3208ZM35.989 27.3169C36.2653 27.0406 36.6981 27.0233 36.9939 27.2651L37.0515 27.3169C37.3275 27.5932 37.345 28.0261 37.1033 28.3218L37.0515 28.3784L37.0496 28.3804C36.7916 28.641 36.3843 28.6687 36.0867 28.4575L35.9607 28.3677L35.8845 28.2437C35.7263 27.9866 35.7352 27.6594 35.906 27.4155L35.989 27.3169ZM30.8044 24.729C31.2191 24.7292 31.5543 25.0643 31.5544 25.479C31.5544 25.8565 31.2768 26.1658 30.9089 26.2192L30.7673 26.2397L30.614 26.2007C30.2909 26.1183 30.0544 25.828 30.0544 25.479C30.0545 25.0642 30.3896 24.729 30.8044 24.729Z" stroke="#212428" stroke-width="0.735"/>
<path d="M36.6177 22.6779C36.6935 22.7506 36.7048 22.8668 36.6457 22.9505C36.5786 23.0449 36.4482 23.0675 36.3537 23.0007C36.2592 22.9335 36.237 22.8024 36.3041 22.7079C36.3588 22.6312 36.4573 22.602 36.549 22.6363L36.59 22.651L36.6177 22.6779ZM34.7412 19.9163C34.8405 19.9001 34.9348 19.9551 34.9711 20.0413L34.9863 20.0772L34.9865 20.1241C34.9869 20.1993 34.9468 20.2681 34.8834 20.3048L34.8141 20.3298C34.7133 20.3469 34.6185 20.2908 34.5833 20.1994L34.572 20.1579C34.5526 20.0434 34.6272 19.9368 34.7412 19.9163ZM39.5869 23.3323C39.6903 23.3304 39.7797 23.4039 39.7967 23.5041C39.8138 23.6049 39.7569 23.6991 39.6655 23.7343L39.6248 23.7461C39.5241 23.7632 39.4292 23.7071 39.394 23.6158L39.3828 23.5743L39.3817 23.5723L39.3821 23.5043C39.3934 23.4376 39.438 23.3781 39.5043 23.3491L39.5408 23.3332L39.5869 23.3323ZM40.2357 17.6522C40.6726 17.9815 40.9538 18.4417 41.0635 18.9407L41.0847 19.0373L41.0981 19.1366C41.1663 19.6461 41.0569 20.1797 40.7572 20.642L40.7033 20.7247L40.6464 20.7981C40.3085 21.2302 39.8403 21.507 39.3375 21.6089L39.2541 21.6252L39.1443 21.6382C38.6384 21.696 38.1144 21.5837 37.6593 21.282L37.5748 21.2255L37.502 21.1678C37.0807 20.833 36.8118 20.3735 36.71 19.8796L36.6946 19.8052L36.6808 19.6863C36.6217 19.1899 36.7305 18.6716 37.0194 18.2212L37.0841 18.1199L37.1278 18.0634C37.4555 17.6388 37.9082 17.3637 38.397 17.2544L38.5015 17.2304L38.5899 17.2189C39.0941 17.1502 39.6189 17.2512 40.0751 17.5394L40.1448 17.5829L40.2357 17.6522ZM35.6086 16.8396C35.6893 16.8972 35.7174 17.0078 35.676 17.0971L35.6561 17.1404L35.6318 17.1628C35.5571 17.2311 35.4465 17.2381 35.366 17.1812C35.2716 17.1141 35.2489 16.9837 35.3158 16.8892C35.3829 16.7947 35.5141 16.7725 35.6086 16.8396ZM42.4138 21.6724L42.4162 21.6741C42.5106 21.7412 42.5321 21.8718 42.465 21.9662C42.3979 22.0605 42.2681 22.0825 42.1737 22.0156C42.0912 21.9571 42.0631 21.8492 42.1018 21.761L42.1189 21.7216L42.1485 21.6935C42.2199 21.6244 42.3317 21.6143 42.4138 21.6724ZM38.1562 15.1058C38.2569 15.0887 38.3517 15.1448 38.387 15.2362L38.3982 15.2777C38.4151 15.3779 38.3557 15.476 38.2573 15.5082L38.2127 15.5221L38.1738 15.5196C38.0803 15.5124 38.0003 15.4423 37.9843 15.3479C37.9672 15.2471 38.024 15.1528 38.1154 15.1176L38.1562 15.1058ZM42.9686 18.5198C43.0694 18.5027 43.1636 18.5595 43.1988 18.6509L43.2106 18.6917C43.2277 18.7924 43.1716 18.8872 43.0803 18.9225L43.0388 18.9337L43.0368 18.9347C42.9398 18.9517 42.8421 18.8947 42.8074 18.7957L42.7924 18.7527L42.7951 18.7152C42.8001 18.6416 42.8421 18.5776 42.9026 18.5436L42.9686 18.5198ZM41.4272 15.8513C41.5217 15.9184 41.544 16.0496 41.4768 16.1441C41.4317 16.2074 41.3573 16.2381 41.2833 16.2294L41.2102 16.2075L41.1756 16.1888L41.146 16.1546C41.0859 16.0839 41.0795 15.9804 41.1353 15.9015C41.2023 15.8071 41.3327 15.7844 41.4272 15.8513Z" stroke="#212428" stroke-width="0.735"/>
<path d="M15.6047 16.6167C15.9435 16.6623 16.2493 16.8319 16.4602 17.1011C16.6742 17.3742 16.7695 17.7034 16.7327 18.0503L16.719 18.1763C16.666 18.4185 16.5435 18.6393 16.3625 18.813L16.2659 18.897L16.2629 18.8999C16.0312 19.0882 15.7463 19.1772 15.4651 19.1772C15.1286 19.1772 14.8012 19.0528 14.553 18.8062L14.4514 18.6929C14.2647 18.4541 14.1686 18.1724 14.1721 17.8735L14.1799 17.7446C14.212 17.45 14.3448 17.1786 14.5588 16.9731L14.6555 16.8892C14.8945 16.7019 15.1766 16.6053 15.4758 16.6089L15.6047 16.6167ZM15.3079 17.0142C15.1834 17.0331 15.0585 17.077 14.9475 17.1528L14.8831 17.2026C14.6925 17.3506 14.5739 17.5684 14.55 17.8071C14.5258 18.0505 14.6006 18.2781 14.7395 18.4634L14.9387 18.314L14.7395 18.4644L14.7454 18.4712C15.0574 18.8552 15.6238 18.9297 16.0227 18.6157L16.0217 18.6147C16.2166 18.4668 16.3384 18.2471 16.3625 18.0054C16.3808 17.8229 16.3432 17.6492 16.2649 17.4956L16.1731 17.3491C16.0251 17.1518 15.8033 17.0287 15.5598 17.0044L15.5481 17.0034H15.4563L15.3079 17.0142Z" stroke="#212428" stroke-width="0.5"/>
<path d="M20.4624 15.9575C20.6873 15.7866 21.0038 15.824 21.1792 16.0425C21.3509 16.2677 21.3136 16.5838 21.0942 16.7593C20.8689 16.9304 20.5526 16.8939 20.3774 16.6743C20.207 16.4492 20.2437 16.1326 20.4624 15.9575Z" stroke="#212428" stroke-width="0.63"/>
<path d="M23.0339 9.37646C23.6128 8.91051 24.4513 8.97384 24.9578 9.49951L25.0544 9.60986L25.0574 9.61377C25.5231 10.1926 25.4597 11.0312 24.9343 11.5376L24.823 11.6343L24.8201 11.6372C24.2412 12.1032 23.4017 12.0398 22.8953 11.5142L22.7986 11.4028L22.7966 11.3999L22.7107 11.2808C22.341 10.7104 22.4287 9.9479 22.9197 9.4751L23.03 9.37842L23.0339 9.37646Z" stroke="#212428" stroke-width="0.63"/>
<path d="M31.2476 10.161C31.2292 9.90334 31.0083 9.72849 30.7507 9.73769L29.0114 9.88493C28.9746 9.72849 28.9286 9.58124 28.8733 9.434L30.4746 8.46773C30.6955 8.33889 30.7599 8.05361 30.631 7.83275C30.5022 7.61189 30.2169 7.54747 29.9961 7.67631L28.496 8.57816C28.4224 8.44933 28.3488 8.31129 28.266 8.19165L29.3979 6.95851C29.5727 6.77445 29.5543 6.47997 29.3703 6.30512C29.1862 6.13947 28.8917 6.14868 28.7169 6.33273L27.6954 7.44624C27.4653 7.17937 27.2077 6.9401 26.9316 6.72844L27.6034 5.11799C27.7046 4.88792 27.5942 4.61184 27.3549 4.51982C27.1157 4.41859 26.8488 4.52902 26.7567 4.76829L26.1494 6.21309C25.9101 6.07506 25.6524 5.96462 25.3948 5.8634L25.5144 4.06889C25.5328 3.81122 25.3395 3.59956 25.0819 3.58115C24.8334 3.56275 24.6125 3.756 24.5941 4.00447L24.4837 5.60572C24.1984 5.55051 23.9131 5.5045 23.6279 5.48609L23.3058 3.7376C23.2598 3.48913 23.0205 3.32348 22.772 3.36949C22.5236 3.41551 22.3579 3.65477 22.4039 3.90324L22.7076 5.5137C22.3947 5.55051 22.0818 5.60572 21.7781 5.68855L21.0143 4.25294C20.8947 4.03208 20.6186 3.94005 20.3886 4.05969C20.1677 4.17932 20.0757 4.4554 20.1953 4.68546L20.8947 6.00144C20.8947 6.00144 20.8671 6.01064 20.8487 6.01984C20.545 6.15788 20.2597 6.34193 19.9928 6.52598L19.2014 5.54131C19.045 5.34805 18.7505 5.31124 18.5572 5.47689C18.364 5.63333 18.3272 5.92781 18.4928 6.12107L19.2934 7.10575C19.0358 7.35422 18.7965 7.62109 18.5848 7.91558L17.6186 6.99532C17.4345 6.82047 17.14 6.82967 16.9652 7.01372C16.7903 7.19777 16.7995 7.49226 16.9836 7.6671L18.0971 8.7254C17.9959 8.91866 17.8854 9.11191 17.8118 9.31437C17.775 9.4156 17.7198 9.51683 17.683 9.60885L16.9192 8.67019C16.7627 8.47693 16.4682 8.44012 16.275 8.60577C16.0817 8.76221 16.0449 9.0567 16.2106 9.24995L17.2045 10.4739C16.9744 10.796 16.6891 11.0905 16.3854 11.3389L15.6952 9.75609C15.594 9.52603 15.3271 9.4156 15.0879 9.51683C14.8578 9.61806 14.7474 9.89413 14.8486 10.1242L15.6032 11.8635C15.2903 12.0291 14.959 12.1672 14.6093 12.2684L14.1032 10.6579C14.0296 10.4187 13.7719 10.2806 13.5234 10.3543C13.2841 10.4279 13.1461 10.6856 13.2197 10.934L13.6983 12.4525C13.2841 12.5169 12.8976 12.6181 12.5203 12.7561L11.8025 11.477C11.6737 11.2561 11.3976 11.1733 11.1768 11.3021C10.9559 11.431 10.8731 11.707 11.0019 11.9279L11.6829 13.1427C11.2412 13.3911 10.8363 13.704 10.4774 14.0629L9.28102 13.1427C9.07856 12.9862 8.79328 13.023 8.63684 13.2255C8.4804 13.4279 8.51721 13.7132 8.71966 13.8697L9.86999 14.7623C9.58471 15.1396 9.35464 15.5537 9.17059 15.9955L7.25645 15.8574C7.00798 15.839 6.78712 16.0323 6.76871 16.2807C6.75031 16.5384 6.94356 16.7593 7.19203 16.7777L8.87611 16.8973C8.76568 17.3482 8.71046 17.8176 8.71046 18.2961L6.33619 18.8667C6.08772 18.9311 5.94048 19.1796 5.9957 19.4188C6.05091 19.6305 6.23496 19.7685 6.44662 19.7685C6.48343 19.7685 6.52024 19.7685 6.55705 19.7593L8.80249 19.2164C8.8577 19.5569 8.94052 19.8882 9.06016 20.2102L7.02639 21.2593C6.79632 21.379 6.7135 21.6551 6.82393 21.8759C6.90675 22.0324 7.0632 22.1244 7.23804 22.1244C7.31167 22.1244 7.38529 22.106 7.4497 22.0692L9.43746 21.0477C9.61231 21.3698 9.81477 21.6643 10.0448 21.9495L8.43438 23.4588C8.25033 23.6336 8.24113 23.9189 8.41598 24.1121C8.508 24.2134 8.62764 24.2594 8.74727 24.2594C8.8577 24.2594 8.97733 24.2226 9.06016 24.1305L10.6798 22.6121C10.7718 22.6949 10.8639 22.7778 10.9651 22.8606C11.0847 22.9526 11.2136 23.0262 11.3332 23.1091L10.2933 25.1336C10.1737 25.3637 10.2657 25.6398 10.4958 25.7502C10.5602 25.787 10.6338 25.8054 10.7074 25.8054C10.8731 25.8054 11.0387 25.7134 11.1215 25.557L12.143 23.5692C12.3271 23.652 12.5111 23.744 12.7044 23.8177L12.6308 26.0447C12.6308 26.3024 12.824 26.514 13.0725 26.5232H13.0909C13.3394 26.5232 13.5418 26.33 13.551 26.0815L13.6246 24.0477C13.9283 24.1029 14.2412 24.1213 14.5541 24.1213L14.6645 25.9895C14.6829 26.2379 14.8854 26.422 15.1247 26.422C15.1247 26.422 15.1431 26.422 15.1523 26.422C15.4099 26.4036 15.6032 26.1919 15.5848 25.9343L15.4744 24.0569C15.7873 24.0201 16.0909 23.9741 16.3946 23.9189L16.7719 25.833C16.8179 26.0539 17.0112 26.2011 17.2229 26.2011C17.2505 26.2011 17.2781 26.2011 17.3149 26.2011C17.5634 26.1551 17.729 25.9066 17.6738 25.6582L17.2873 23.7256C17.5081 23.6704 17.7198 23.6152 17.9407 23.5508L18.5112 25.4925C18.5664 25.695 18.7505 25.8238 18.9529 25.8238C18.999 25.8238 19.0358 25.8238 19.0818 25.8054C19.3303 25.7318 19.4683 25.4833 19.3947 25.2349L18.8241 23.2747C19.1554 23.1551 19.4867 23.0354 19.8088 22.8974L20.683 24.7747C20.7567 24.9404 20.9315 25.0416 21.0972 25.0416C21.1616 25.0416 21.226 25.0324 21.2904 24.9956C21.5205 24.8852 21.6217 24.6183 21.5113 24.3882L20.637 22.5201C20.9131 22.3821 21.1708 22.244 21.4377 22.0968L22.5972 23.7809C22.6892 23.9097 22.8272 23.9833 22.9745 23.9833C23.0665 23.9833 23.1585 23.9557 23.2322 23.9005C23.4438 23.7532 23.4898 23.468 23.3518 23.2563L22.2291 21.6182C22.4407 21.4802 22.6524 21.3422 22.864 21.1949L24.1708 22.7041C24.2628 22.8054 24.3917 22.8606 24.5205 22.8606C24.631 22.8606 24.7322 22.8238 24.8242 22.7502C25.0175 22.5845 25.0359 22.29 24.8702 22.0968L23.6095 20.6428C23.8119 20.4863 23.996 20.3115 24.1892 20.1458L25.3488 21.4802C25.4408 21.5814 25.5696 21.6366 25.6984 21.6366C25.8089 21.6366 25.9101 21.5998 26.0021 21.5262C26.1954 21.3606 26.2138 21.0661 26.0481 20.8728L24.8702 19.5108C25.0635 19.3268 25.2475 19.1427 25.4224 18.9403L26.8212 20.1734C26.904 20.2471 27.0144 20.2839 27.1249 20.2839C27.2537 20.2839 27.3825 20.2286 27.4746 20.1274C27.6402 19.9342 27.6218 19.6489 27.4285 19.474L26.0297 18.2409C26.2874 17.928 26.5267 17.6151 26.7659 17.2838L28.1555 18.3421C28.2384 18.4065 28.3396 18.4341 28.4316 18.4341C28.5697 18.4341 28.7077 18.3697 28.7997 18.2501C28.9562 18.0476 28.9102 17.7624 28.7077 17.6059L27.2721 16.52C27.4561 16.2347 27.6218 15.9402 27.7874 15.6458L29.2414 16.5476C29.3151 16.5936 29.3979 16.6212 29.4807 16.6212C29.6372 16.6212 29.7844 16.5476 29.8672 16.4004C30.0053 16.1887 29.9316 15.9034 29.72 15.7654L28.2016 14.8175C28.3396 14.5322 28.4684 14.247 28.5881 13.9525L30.2261 14.4862C30.2721 14.5046 30.3182 14.5046 30.3734 14.5046C30.5666 14.5046 30.7507 14.385 30.8151 14.1917C30.8979 13.9525 30.7599 13.6948 30.5206 13.612L28.9194 13.0874C29.0022 12.8298 29.0666 12.5721 29.1034 12.3144L30.6494 12.4985C30.6494 12.4985 30.6863 12.4985 30.7047 12.4985C30.9347 12.4985 31.1372 12.3236 31.1648 12.0936C31.1924 11.8451 31.0175 11.615 30.7599 11.5874L29.1862 11.4034C29.1862 11.2009 29.1862 10.9984 29.1586 10.796L30.8243 10.6579C31.0728 10.6395 31.266 10.4095 31.2476 10.161ZM12.1062 21.425C11.2596 20.7624 10.7258 19.8053 10.597 18.7378C10.3301 16.5292 11.913 14.523 14.1124 14.2562C16.6063 13.9525 18.6861 12.3052 19.5511 9.95855C19.9192 8.94627 20.6646 8.14564 21.6401 7.69471C22.1739 7.44624 22.7536 7.31741 23.3334 7.31741C23.8027 7.31741 24.272 7.40023 24.723 7.56588C25.4224 7.82355 26.0297 8.26527 26.4899 8.84504C27.3641 9.95855 27.6034 11.4126 27.1156 12.7377C25.2015 17.9464 20.591 21.5998 15.0787 22.2532C14.0112 22.3821 12.9529 22.0876 12.1154 21.425H12.1062Z" stroke="#212428" stroke-width="0.63" stroke-linejoin="round"/>
</svg>
