<svg width="24" height="25" viewBox="0 0 24 25" fill="none" xmlns="http://www.w3.org/2000/svg">
<path d="M9.71402 16.1052H8.97646L6.01001 11.6069V16.1052H5.27245V10.4479H6.01001L8.97646 14.9381V10.4479H9.71402V16.1052ZM12.8436 16.162C12.4708 16.162 12.1357 16.0971 11.8386 15.9674C11.5468 15.8324 11.3171 15.6486 11.1496 15.4163C10.9821 15.1785 10.8957 14.9057 10.8903 14.5977H11.6765C11.7035 14.8624 11.8115 15.0867 12.0007 15.2704C12.1952 15.4487 12.4762 15.5379 12.8436 15.5379C13.1948 15.5379 13.4704 15.4514 13.6703 15.2785C13.8756 15.1002 13.9783 14.8733 13.9783 14.5977C13.9783 14.3815 13.9189 14.2059 13.8 14.0709C13.6811 13.9358 13.5325 13.8331 13.3542 13.7629C13.1759 13.6926 12.9354 13.617 12.6329 13.5359C12.26 13.4387 11.9601 13.3414 11.7332 13.2441C11.5117 13.1469 11.3198 12.9956 11.1577 12.7903C11.001 12.5795 10.9227 12.2985 10.9227 11.9473C10.9227 11.6393 11.001 11.3665 11.1577 11.1287C11.3144 10.891 11.5333 10.7072 11.8142 10.5776C12.1006 10.4479 12.4275 10.383 12.795 10.383C13.3245 10.383 13.7568 10.5154 14.0918 10.7802C14.4322 11.045 14.624 11.3962 14.6672 11.8339H13.8567C13.8297 11.6177 13.7162 11.4286 13.5163 11.2665C13.3164 11.099 13.0516 11.0152 12.722 11.0152C12.414 11.0152 12.1628 11.0963 11.9682 11.2584C11.7737 11.4151 11.6765 11.6366 11.6765 11.923C11.6765 12.1283 11.7332 12.2958 11.8467 12.4255C11.9655 12.5552 12.1087 12.6552 12.2762 12.7254C12.4491 12.7903 12.6896 12.8659 12.9976 12.9524C13.3704 13.055 13.6703 13.1577 13.8973 13.2603C14.1242 13.3576 14.3187 13.5116 14.4808 13.7223C14.6429 13.9277 14.724 14.2086 14.724 14.5653C14.724 14.8408 14.651 15.1002 14.5051 15.3433C14.3592 15.5865 14.1431 15.7837 13.8567 15.935C13.5703 16.0863 13.2326 16.162 12.8436 16.162ZM19.0838 10.456V11.0558H16.628V12.9605H18.6218V13.5602H16.628V16.1052H15.8904V10.456H19.0838Z" fill="black"/>
<circle cx="12" cy="13" r="10.5417" stroke="black" stroke-width="0.916645"/>
</svg>
