<svg width="137" height="101" viewBox="0 0 137 101" fill="none" xmlns="http://www.w3.org/2000/svg">
<path d="M48.2351 79.272C48.4737 79.5345 49.1514 80.0881 49.9531 80.2026M53.1028 80.2026C52.6256 80.5844 51.3275 81.2907 49.9531 81.0616M47.1613 79.8447C47.209 80.6083 48.2064 82.0925 51.8143 81.9207M52.7449 82.3502C51.9813 82.7797 50.0104 83.381 48.2351 82.3502M59.9034 80.2026C59.3546 80.2981 58.0308 80.4989 57 81.2434M42.3651 89.2223C41.7686 89.8666 40.5612 91.6276 40.5039 93.5174M48.9511 69.3217C48.6409 70.0853 47.9918 71.7556 47.8773 72.3283C47.7341 73.0441 47.6625 74.7621 50.5259 75.1917C52.8167 75.5353 53.4847 74.2372 53.5324 73.5452L54.0334 70.2523C53.938 69.9421 53.3605 69.2644 51.8143 69.0354C49.8815 68.749 49.0662 69.0354 48.9511 69.3217Z" stroke="black" stroke-width="0.7" stroke-linecap="round"/>
<path d="M54.5 78.7434L59 83.2434" stroke="black" stroke-width="0.7" stroke-linecap="round" stroke-linejoin="round"/>
<path d="M73 41.2434C71 41.2434 68.8825 41.4037 68.4226 44.0809M72.9324 40.1152C71.811 39.9481 69.3389 39.972 68.4226 41.4037C67.2772 43.1933 68.7089 45.1977 71.286 46.5578C72.0735 46.8441 73.9777 47.3309 75.2949 46.9873" stroke="black" stroke-width="0.7" stroke-linecap="round"/>
<path d="M72.9176 42.8567C72.1289 42.833 70.7186 43.3978 70.0678 44.6446M72.921 41.7434C71.8847 41.7434 70.2147 42.2534 69.7415 43.1602C69.6515 43.3002 69.5958 43.4435 69.574 43.5852M75.5 44.341C75.5 44.341 74.467 45.3305 72.4011 45.3305C70.4484 45.3305 69.4524 44.3748 69.574 43.5852M69.574 43.5852C69.5182 43.7977 69.44 44.3644 69.574 44.9311L69.7415 45.5626C70.3084 45.9876 72.2624 47.3402 74.9835 46.3201" stroke="black" stroke-width="0.7" stroke-linecap="round"/>
<path d="M31 78.2434C36.5 71.7434 45 74.7434 47 70.7434M41.7944 93.0163C41.8421 92.2051 43.2261 89.5087 43.2261 89.5087C43.0113 90.2961 42.8395 92.1001 43.8703 93.0163M32 86.7434C36 83.2434 41 82.2434 45.5 82.2434" stroke="black" stroke-width="0.7" stroke-linecap="round"/>
<path d="M43.2246 89.6517C43.4632 89.0313 44.0979 87.4039 44.7279 85.8577C45.5153 83.9249 45.4437 82.1353 45.5153 79.8445C45.5869 77.5538 45.229 75.5494 46.7323 71.7555C47.5201 69.7671 48.2686 68.6635 49.0809 68.1046M38.5 100.031C39.7408 100.031 42.5803 99.8167 44.012 98.9577C45.8017 97.8839 46.3028 98.2418 49.2377 97.4544C50.3571 97.1541 51.0703 96.0208 51.5284 94.5748M51.5284 94.5748C52.2715 92.2292 52.3432 89.0607 52.3875 87.2894C52.459 84.426 53.8907 81.3478 54.1771 80.1309C54.3083 79.5731 54.4697 78.5189 54.6128 77.1959M51.5284 94.5748C53.0795 94.1268 56.6539 92.873 58.5438 91.4413C60.9061 89.6517 62.9104 89.2222 64.6285 88.5779C66.3465 87.9336 66.0602 87.2894 69.4962 84.9271C72.9323 82.5648 77.5137 81.2762 80.0908 77.1959C82.6679 73.1156 83.8848 69.4647 84.3859 67.6751C84.7868 66.2434 84.5529 64.931 84.3859 64.4538M54.6128 77.1959C54.782 75.6326 54.9257 73.694 54.9645 71.7555C55.0361 68.1762 53.4612 67.9615 51.5284 67.6751C50.6086 67.5388 49.8185 67.5971 49.0809 68.1046M54.6128 77.1959C58.5479 80.3456 68.6086 84.6694 77.3706 76.7664L87.2493 59.0849M87.2493 59.0849C88.514 56.9135 89.4971 50.8527 83.3121 43.9805C86.963 48.1324 89.2537 59.0849 77.2274 61.8052C65.2012 64.5254 54.3918 55.0762 54.9645 46.6292C55.4227 39.8716 63.0297 37.4658 66.776 37.1076M87.2493 59.0849C81.6943 66.9306 70.236 65.3128 65.2012 63.5232C53.1176 58.8272 51.8148 49.6835 52.6738 45.6986M49.0809 68.1046C48.8138 67.7228 48.44 66.1718 49.0809 63.0221C49.7218 59.8724 51.7432 50.1607 52.6738 45.6986M52.6738 45.6986C53.6452 42.4475 57.7357 37.039 66.776 37.1076M72.9323 37.8958C70.6645 37.3628 68.6176 37.1215 66.776 37.1076M73 39.2434C71.8069 38.9332 68.7599 38.7963 67.5 40.7434M67.5 40.7434C65.9251 43.1773 68.5 49.2434 75.7957 47.6314M67.5 40.7434C66.6717 41.903 66.3519 43.3903 66 44.7434M77.5138 47.6314L77.0203 48.9199M66 46.2434C65.2356 47.1908 64.478 50.0078 66.7115 51.9549L65.9956 52.456M66 46.2434C66 45.7434 65.9201 45.0507 66 44.7434M66 46.2434C65.9092 48.5635 67.6877 50.4495 69.6394 51.4254C71.0473 51.9503 74.3354 52.5994 76.2252 50.9959L76.6913 49.7789M65.9956 52.456C62.9032 49.478 64.5862 45.7933 66 44.7434M65.9956 52.456L66.7115 53.2434L67.4273 53.7445M67.4273 53.7445L68 53.2434C71.109 55.1205 77.7135 54.9603 76.6913 49.7789M67.4273 53.7445C69.3107 55.1884 72.4924 55.722 74.9367 54.7183C77.2208 53.7803 78.3728 50.9959 77.0203 48.9199M76.6913 49.7789L77.0203 48.9199" stroke="black" stroke-width="0.7" stroke-linecap="round"/>
<path d="M66.9201 49.3495C66.5622 50.4949 67.7622 52.5562 72 53.2434C72.9783 53.315 74.5 52.7434 74.5 51.7434M76 51.2434C76 51.8877 75.5 53.7434 72.9328 54.2434M66.5 48.2434C66.1659 48.8399 65.5 49.7434 66.5 51.7434M52.3164 2.6762C53.6288 3.20116 56.3538 4.88101 56.7547 7.4008C57.2558 10.5505 61.7656 16.3489 65.2017 20.4292C68.6378 24.5096 72.1454 28.7331 72.6465 33.8872C72.7976 35.4411 72.8856 36.8946 72.9328 38.1667M72.9328 42.6206C72.9806 43.2887 73.6674 44.5247 75.5 44.1238M72.9328 42.6206C72.9775 41.8771 73.0109 40.27 72.9328 38.1667M72.9328 42.6206C74.293 42.9785 76.3689 40.8309 76.7984 40.3298C77.2279 39.8287 77.2279 37.6812 76.7984 36.679C76.3689 35.6768 75.3667 36.1063 74.293 36.679C73.4339 37.1372 73.0283 37.8617 72.9328 38.1667M75.5 44.1238C76.8644 42.7388 79.4173 39.6057 80.595 36.8938M75.5 44.1238C75.1421 45.2215 74.7082 47.517 76.3689 47.9178M77.1564 17.6374C76.87 14.774 76.1542 12.0538 75.152 10.6221M77.1564 17.6374C77.9008 15.9767 78.1824 12.6504 78.2301 11.1948M77.1564 17.6374C77.729 17.542 79.3755 16.7784 81.3799 14.4877C82.0617 13.7085 82.3883 12.8603 82.6353 11.9822M77.1564 17.6374C77.2388 18.4623 77.3867 19.3287 77.5844 20.2145M86.5507 3.14833C81.7571 5.18039 81.6662 7.74341 82.6353 11.9822M84 6.74341C83.286 7.60243 84.3841 10.7796 82.6353 11.9822M82.6353 11.9822C82.885 12.5072 84.1144 15.4989 85.8897 16.2434C85.675 16.0525 85.2311 13.4712 86.3192 11.6959M88.8247 13.6287C87.7509 13.7957 85.6034 14.6022 85.6034 16.4921C85.6034 18.3819 85.7943 23.1017 85.8897 25.2254M85.8897 25.2254L88.1804 25.8697C87.3214 25.5118 85.5318 25.0966 85.2454 26.2992C85.0353 27.1819 84.2575 28.9037 83.5496 30.5227M85.8897 25.2254C82.6254 23.7365 81.7139 21.9325 81.6662 21.2167C79.2037 21.3885 77.919 20.6201 77.5844 20.2145M82.0241 35.6768C81.9764 35.5098 81.9812 34.8321 82.382 33.4577C82.5889 32.7484 83.052 31.661 83.5496 30.5227M84.3148 35.6768C83.4814 35.4859 81.5706 35.4621 80.595 36.8938M80.595 36.8938C80.7767 36.4754 80.9224 36.0671 81.0219 35.6768C81.6752 33.114 81.376 31.2215 80.7187 29.3058M76.3689 47.9178C76.7524 47.8224 78.1345 47.159 80.595 45.2692C80.7896 45.1197 80.9802 44.9769 81.1668 44.8397M76.3689 47.9178C76.3689 47.3929 76.6123 46.1282 77.5859 45.2692C78.8028 44.1954 80.595 43.7659 81.1668 44.1238C81.6242 44.4102 81.3574 44.7204 81.1668 44.8397M94.981 0.743408C96.1502 1.65015 98.4457 3.77861 98.2739 5.0385C98.2565 5.16626 98.2339 5.31004 98.2066 5.46801M98.2066 5.46801C97.8984 7.2572 96.9989 10.866 96.3411 13.6287C95.9412 15.3083 95.2508 18.7305 94.657 21.8609M98.2066 5.46801C98.754 8.2121 100.164 14.4304 101.424 17.3511C102.998 21.0019 107.007 29.7353 105.576 31.8112C104.144 33.8872 98.7034 38.4686 96.3411 40.1151C93.9788 41.7615 93.0482 42.2626 90.6143 42.6206C88.6672 42.9069 84.5225 43.5034 82.6935 43.7659M82.6935 43.7659C84.6439 42.4352 86.0472 41.5367 86.9635 39.5424C87.4683 38.4438 88.0223 37.4313 88.6001 36.4643M82.6935 43.7659C82.2175 44.0907 81.7089 44.4412 81.1668 44.8397M88.6001 36.4643C89.4152 35.0999 90.2776 33.8257 91.1154 32.5271C91.1534 32.4682 91.1909 32.4107 91.228 32.3548M88.6001 36.4643C89.1999 36.2018 90.6286 35.6768 91.5449 35.6768M91.5449 35.6768C92.4612 35.6768 92.9289 36.2018 93.0482 36.4643M91.5449 35.6768C91.4733 35.2473 91.6022 34.2022 92.6903 33.4577C93.3208 33.0263 93.8437 32.6872 94.3087 32.3548M100.278 29.3058C98.1049 29.4445 97.216 29.7624 96.6274 30.221M96.6274 30.221C96.3049 30.4724 96.0725 30.7659 95.7684 31.0954C95.3076 31.5946 94.8469 31.9702 94.3087 32.3548M96.6274 30.221C96.1741 29.9875 95.2244 28.9765 95.0526 26.8003C94.8808 24.6241 94.7173 22.6007 94.657 21.8609M94.657 21.8609C94.1878 24.3341 93.7788 26.6251 93.6209 27.7309C93.2725 30.1698 92.5849 30.3024 91.228 32.3548M77.5844 20.2145C78.0732 22.4036 78.867 24.7108 79.7334 26.8003C80.0961 27.675 80.4397 28.4925 80.7187 29.3058M80.7187 29.3058C81.1926 29.4251 82.4221 29.8355 83.5496 30.5227M91.228 32.3548H94.3087M77.1564 30.8091C76.1064 31.2147 73.9494 32.1692 73.7203 32.7418M78.3017 29.8784C77.5859 29.7591 75.8535 29.721 74.6509 30.5227C73.1476 31.5249 72.7181 31.1363 73.5055 30.221C74.293 29.3058 75.152 28.8047 76.3689 28.8047M76.7984 27.7309C75.8607 27.5161 73.7748 27.4302 72.9328 28.8047M91.5449 28.0888C91.5211 29.0331 91.6308 30.7814 92.2608 30.221M65.2017 15.5615C65.6789 16.7784 66.9913 19.4127 68.423 20.2145" stroke="black" stroke-width="0.7" stroke-linecap="round" stroke-linejoin="round"/>
<path d="M81.7383 21.3598C81.8099 20.7632 82.1535 19.3411 82.9552 18.4248" stroke="black" stroke-width="0.7" stroke-linecap="round"/>
</svg>
