<svg width="27" height="27" viewBox="0 0 27 27" fill="none" xmlns="http://www.w3.org/2000/svg">
<g opacity="0.8">
<circle opacity="0.9" cx="13.0547" cy="13.4956" r="12.5" stroke="black"/>
<path d="M10.0088 17.5003L8.8715 19.6158V20.7456H8.19682V19.6158L7.05469 17.5003H7.81611L8.53898 18.9834L9.25703 17.5003H10.0088Z" fill="black"/>
<path d="M11.087 18.0256V18.8393H12.2195V19.3554H11.087V20.2156H12.3641V20.7456H10.4124V17.4956H12.3641V18.0256H11.087Z" fill="black"/>
<path d="M15.0543 20.1272H13.7146L13.4929 20.7456H12.7845L13.9941 17.4956H14.7796L15.9892 20.7456H15.276L15.0543 20.1272ZM14.8711 19.6065L14.3844 18.2488L13.8977 19.6065H14.8711Z" fill="black"/>
<path d="M18.1907 20.7456L17.4485 19.4809H17.1305V20.7456H16.4558V17.5003H17.7184C17.9786 17.5003 18.2003 17.5452 18.3834 17.6351C18.5665 17.7219 18.7031 17.8412 18.793 17.9931C18.8862 18.1419 18.9328 18.3093 18.9328 18.4952C18.9328 18.7091 18.8685 18.9029 18.74 19.0764C18.6115 19.2469 18.4204 19.3647 18.1666 19.4298L18.9714 20.7456H18.1907ZM17.1305 18.9927H17.6943C17.8774 18.9927 18.014 18.9509 18.1039 18.8672C18.1939 18.7804 18.2388 18.6611 18.2388 18.5092C18.2388 18.3604 18.1939 18.2457 18.1039 18.1651C18.014 18.0814 17.8774 18.0396 17.6943 18.0396H17.1305V18.9927Z" fill="black"/>
<path d="M11.0117 6.77956V5.49561H13.7117V14.4956H12.2189V6.77956H11.0117Z" fill="black"/>
</g>
</svg>
