<svg width="91" height="65" viewBox="0 0 91 65" fill="none" xmlns="http://www.w3.org/2000/svg">
<g clip-path="url(#clip0_21406_1777)">
<mask id="mask0_21406_1777" style="mask-type:luminance" maskUnits="userSpaceOnUse" x="-9" y="-4" width="100" height="72">
<path d="M-8.16992 66.1856C-8.16992 66.3402 -8.14791 66.4874 -8.11123 66.6273C-7.92049 67.3339 -7.27492 67.8565 -6.50463 67.8565H88.7474C89.6644 67.8565 90.4127 67.1131 90.4127 66.1856V-1.34232C90.4127 -2.26242 89.6717 -3.00586 88.7474 -3.00586H-6.51196C-7.42897 -3.00586 -8.16992 -2.26242 -8.16992 -1.34232V66.1856Z" fill="white"/>
</mask>
<g mask="url(#mask0_21406_1777)">
<path d="M8.27779 48.9463C7.93299 50.0283 7.37544 51.0367 6.64917 51.9127C4.75645 54.1577 2.43824 55.9979 -0.17341 57.3302C-1.69198 58.1031 -3.30593 58.5815 -4.94922 58.7729C-3.29126 58.5815 -1.66264 58.0957 -0.144065 57.3228C2.46759 55.9905 4.7858 54.143 6.67118 51.8979C7.40479 51.0294 7.955 50.0209 8.29979 48.9315L9.18747 45.3027C9.32685 44.5298 9.5396 43.779 9.84038 43.0576C9.5396 43.7863 9.31218 44.5445 9.18013 45.3174L8.28512 48.9463H8.27779Z" fill="white"/>
<path d="M8.27779 48.9463C7.93299 50.0283 7.37544 51.0367 6.64917 51.9127C4.75645 54.1577 2.43824 55.9979 -0.17341 57.3302C-1.69198 58.1031 -3.30593 58.5815 -4.94922 58.7729C-3.29126 58.5815 -1.66264 58.0957 -0.144065 57.3228C2.46759 55.9905 4.7858 54.143 6.67118 51.8979C7.40479 51.0294 7.955 50.0209 8.29979 48.9315L9.18747 45.3027C9.32685 44.5298 9.5396 43.779 9.84038 43.0576C9.5396 43.7863 9.31218 44.5445 9.18013 45.3174L8.28512 48.9463H8.27779Z" stroke="#231F20" stroke-width="0.37" stroke-linejoin="bevel"/>
<path d="M-1.61809 28.2919L17.7786 26.518C18.5929 26.4444 19.3705 26.8787 19.7373 27.6148L21.0285 30.2499C21.1312 30.456 21.1899 30.6768 21.2119 30.8977C21.1899 30.6621 21.1238 30.4339 21.0211 30.2131L19.7226 27.5779C19.3632 26.8419 18.5856 26.4002 17.7639 26.4812L-1.63276 28.2846C-1.75748 28.3067 -1.86752 28.2846 -1.96289 28.2478C-1.86752 28.2993 -1.75014 28.314 -1.62543 28.2919" fill="white"/>
<path d="M-1.61809 28.2919L17.7786 26.518C18.5929 26.4444 19.3705 26.8787 19.7373 27.6148L21.0285 30.2499C21.1312 30.456 21.1899 30.6768 21.2119 30.8977C21.1899 30.6621 21.1238 30.4339 21.0211 30.2131L19.7226 27.5779C19.3632 26.8419 18.5855 26.4002 17.7639 26.4812L-1.63276 28.2846C-1.75748 28.3067 -1.86752 28.2846 -1.96289 28.2478C-1.86752 28.2993 -1.75014 28.314 -1.62543 28.2919H-1.61809Z" stroke="#231F20" stroke-width="0.37" stroke-linejoin="bevel"/>
<path d="M24.9099 13.2611C25.4821 13.1727 26.091 13.4083 26.5018 13.7174C26.7146 13.8867 26.876 14.1076 26.9933 14.3505C26.876 14.0855 26.7072 13.8499 26.4725 13.6733C26.0617 13.3568 25.4528 13.1286 24.8805 13.2169C14.4633 14.8289 3.95062 15.6313 -6.55469 15.6313C3.96529 15.646 14.4853 14.8584 24.9172 13.2611" fill="white"/>
<path d="M24.9099 13.2611C25.4821 13.1727 26.091 13.4083 26.5018 13.7174C26.7146 13.8867 26.876 14.1076 26.9933 14.3505C26.876 14.0855 26.7072 13.8499 26.4725 13.6733C26.0617 13.3568 25.4528 13.1286 24.8805 13.2169C14.4633 14.8289 3.95062 15.6313 -6.55469 15.6313C3.96529 15.646 14.4853 14.8584 24.9172 13.2611H24.9099Z" stroke="#231F20" stroke-width="0.37" stroke-linejoin="bevel"/>
<path d="M26.985 14.3579C27.0951 14.6155 27.1537 14.9026 27.1537 15.1823V22.8081C27.1537 23.7945 26.4348 24.6262 25.4664 24.7734C16.465 26.1131 7.3976 26.886 -1.69917 27.0921C-1.91926 27.0921 -2.11733 27.2246 -2.2127 27.416C-2.3154 27.6073 -2.26405 27.8282 -2.17602 28.0269C-2.132 28.13 -2.0513 28.2036 -1.95593 28.2477C-2.04397 28.2036 -2.11733 28.13 -2.16135 28.0343C-2.24938 27.8355 -2.2934 27.6221 -2.19803 27.4233C-2.09532 27.2319 -1.89724 27.1068 -1.6845 27.0994C7.41228 26.9081 16.487 26.1499 25.4811 24.8176C26.4495 24.6704 27.1684 23.8386 27.1684 22.8596V15.2338C27.1831 14.9321 27.1097 14.6303 26.9777 14.3579H26.985Z" stroke="#231F20" stroke-width="0.37" stroke-linejoin="bevel"/>
<path d="M15.9963 36.0206L12.5777 39.0459C11.9835 39.6421 11.4406 40.2899 10.9637 40.9818C10.5162 41.6295 10.1348 42.3215 9.83398 43.0502C10.1348 42.3362 10.5089 41.6443 10.9564 41.0039C11.4406 40.312 11.9761 39.6642 12.5777 39.068L16.0036 36.0427L20.42 32.723C21.0142 32.2887 21.3003 31.5821 21.2196 30.8901C21.2856 31.5747 20.9995 32.2666 20.42 32.6862L16.0036 36.0133L15.9963 36.0206Z" stroke="#231F20" stroke-width="0.37" stroke-linejoin="bevel"/>
<path d="M-7.90625 58.7947C-7.46608 58.8389 -7.02591 58.8684 -6.58575 58.8757C-6.13825 58.8757 -5.69075 58.8389 -5.24324 58.8021C-5.14787 58.7947 -5.04517 58.8021 -4.94246 58.7874C-3.29917 58.596 -1.67789 58.1176 -0.166653 57.3447C2.445 56.0124 4.76321 54.1722 6.65593 51.9271C7.38954 51.0585 7.93975 50.0501 8.28454 48.9607L9.17955 45.3319C9.31894 44.5516 9.53902 43.7934 9.8398 43.0721C10.1406 42.3434 10.5147 41.6515 10.9696 41.0037C11.4537 40.3118 11.9893 39.664 12.5835 39.0678L16.0021 36.0425L20.4185 32.7154C20.998 32.2885 21.2841 31.5966 21.2181 30.9194C21.1961 30.6986 21.1374 30.4851 21.0347 30.2717L19.7435 27.6365C19.3841 26.9004 18.6064 26.4588 17.7848 26.5324L-1.61187 28.3137C-1.74392 28.3358 -1.85396 28.3137 -1.94933 28.2695C-2.0447 28.2254 -2.1254 28.1518 -2.16941 28.0487" fill="white"/>
<path d="M-2.17578 28.0272C-2.26381 27.8284 -2.30783 27.615 -2.21246 27.4162C-2.11709 27.2175 -1.91168 27.0997 -1.69893 27.0923C7.39784 26.8862 16.4726 26.1134 25.4667 24.7737C26.435 24.6265 27.154 23.7947 27.154 22.8084V15.1826C27.154 14.8955 27.0953 14.6158 26.9853 14.3582C26.8679 14.1153 26.7138 13.8944 26.4937 13.7251C26.0902 13.4086 25.474 13.1804 24.9091 13.2688C14.4772 14.8661 3.95721 15.6537 -6.56277 15.639C-17.0828 15.639 -27.6027 14.8366 -38.0273 13.2246" fill="white"/>
<path d="M24.1753 15.3809C24.1753 15.2042 24.2707 15.0423 24.4247 14.9539C24.5788 14.8656 24.7695 14.8656 24.9162 14.9539C25.0703 15.0423 25.1657 15.2042 25.1657 15.3809V22.7269C25.1583 22.9993 24.9309 23.2201 24.6595 23.2201C24.3881 23.2201 24.168 22.9993 24.168 22.7196V15.3735L24.1753 15.3809Z" fill="white"/>
<path d="M14.2278 16.7579C14.2938 16.596 14.4479 16.4782 14.6239 16.4561L21.8867 15.5728C22.1581 15.5434 22.4075 15.7348 22.4369 16.0071C22.4736 16.2795 22.2755 16.5297 22.0041 16.5592L14.734 17.4425C14.5579 17.4645 14.3892 17.3909 14.2791 17.2511C14.1764 17.1112 14.1471 16.9198 14.2204 16.7579" fill="white"/>
<path d="M-7.9048 58.7947C-7.46463 58.8389 -7.02447 58.8683 -6.5843 58.8757C-6.1368 58.8757 -5.6893 58.8388 -5.24179 58.802C-5.14643 58.7947 -5.04372 58.8021 -4.94101 58.7873C-3.29772 58.596 -1.67644 58.1175 -0.165203 57.3446C2.44645 56.0123 4.76466 54.1721 6.65738 51.9271C7.39099 51.0585 7.9412 50.0501 8.28599 48.9607L9.181 45.3318C9.32038 44.5516 9.54047 43.7934 9.84125 43.072C10.142 42.3433 10.5162 41.6514 10.971 41.0036C11.4552 40.3117 11.9907 39.664 12.585 39.0678L16.0036 36.0425L20.4199 32.7154C20.9995 32.2885 21.2856 31.5966 21.2196 30.9194C21.1975 30.6985 21.1389 30.4851 21.0361 30.2716L19.745 27.6364C19.3855 26.9004 18.6079 26.4587 17.7863 26.5323L-1.61042 28.3136C-1.74247 28.3357 -1.85251 28.3136 -1.94788 28.2695C-2.04325 28.2253 -2.12395 28.1517 -2.16796 28.0486C-2.256 27.8499 -2.30002 27.6364 -2.20465 27.4377C-2.10928 27.239 -1.90386 27.1212 -1.69111 27.1138C7.40566 26.9077 16.4804 26.1348 25.4745 24.7952C26.4429 24.648 27.1618 23.8162 27.1618 22.8298V15.2041C27.1618 14.917 27.1031 14.6373 26.9931 14.3797C26.8757 14.1367 26.7216 13.9159 26.5016 13.7466C26.0981 13.4301 25.4818 13.2019 24.917 13.2903C14.485 14.8875 3.96502 15.6752 -6.55496 15.6604C-17.0749 15.6604 -27.5949 14.8581 -38.0195 13.2461" stroke="#231F20" stroke-width="0.37" stroke-linejoin="bevel"/>
<path d="M24.1753 15.3809C24.1753 15.2042 24.2707 15.0423 24.4247 14.9539C24.5788 14.8656 24.7695 14.8656 24.9162 14.9539C25.0703 15.0423 25.1657 15.2042 25.1657 15.3809V22.7269C25.1583 22.9993 24.9309 23.2201 24.6595 23.2201C24.3881 23.2201 24.168 22.9993 24.168 22.7196V15.3735L24.1753 15.3809Z" stroke="#231F20" stroke-width="0.37" stroke-linejoin="bevel"/>
<path d="M14.2278 16.7579C14.2938 16.596 14.4479 16.4782 14.6239 16.4561L21.8867 15.5728C22.1581 15.5434 22.4075 15.7348 22.4369 16.0071C22.4736 16.2795 22.2755 16.5297 22.0041 16.5592L14.734 17.4425C14.5579 17.4645 14.3892 17.3909 14.2791 17.2511C14.1764 17.1112 14.1471 16.9198 14.2204 16.7579H14.2278Z" stroke="#231F20" stroke-width="0.37" stroke-linejoin="bevel"/>
<path d="M70.3927 15.5718H25.1582V22.5351H70.3927V15.5718Z" fill="white"/>
<path d="M70.3927 15.5718H25.1582V22.5351H70.3927V15.5718Z" stroke="#231F20" stroke-width="0.37" stroke-linejoin="bevel"/>
<path d="M33.7273 15.7865V21.8076C33.7273 22.0579 33.5219 22.264 33.2724 22.264H31.7832V15.3228H33.2724C33.5219 15.3228 33.7273 15.5289 33.7273 15.7791" fill="white"/>
<path d="M33.7273 15.7865V21.8076C33.7273 22.0579 33.5219 22.264 33.2724 22.264H31.7832V15.3228H33.2724C33.5219 15.3228 33.7273 15.5289 33.7273 15.7791V15.7865Z" stroke="#231F20" stroke-width="0.37" stroke-linejoin="bevel"/>
<path d="M31.7761 15.2998H24.7188V22.2631H31.7761V15.2998Z" fill="white"/>
<path d="M31.7761 15.2998H24.7188V22.2631H31.7761V15.2998Z" stroke="#231F20" stroke-width="0.37" stroke-linejoin="bevel"/>
<path d="M24.7188 22.271L25.1663 22.536" stroke="#231F20" stroke-width="0.37" stroke-miterlimit="10"/>
<path d="M53.168 -29.7407V15.6459L60.1079 16.4924V-29.7407" fill="white"/>
<path d="M53.168 -29.7407V15.6459L60.1079 16.4924V-29.7407" stroke="#231F20" stroke-width="0.37" stroke-linejoin="bevel"/>
<path d="M96.1137 48.9237C95.7689 50.0058 95.2114 51.0142 94.4851 51.8901C92.5924 54.1352 90.2742 55.9754 87.6625 57.3077C86.1439 58.0806 84.53 58.559 82.8867 58.7504C84.5447 58.559 86.1733 58.0732 87.6919 57.3003C90.3035 55.968 92.6217 54.1205 94.5071 51.8754C95.2407 51.0069 95.7909 49.9984 96.1357 48.909L97.0234 45.2802C97.1555 44.5073 97.3755 43.7565 97.6763 43.0425C97.3755 43.7712 97.1481 44.5294 97.0161 45.3022L96.1211 48.9311L96.1137 48.9237Z" fill="white"/>
<path d="M96.1137 48.9237C95.7689 50.0058 95.2114 51.0142 94.4851 51.8901C92.5924 54.1352 90.2742 55.9754 87.6625 57.3077C86.1439 58.0806 84.53 58.559 82.8867 58.7504C84.5447 58.559 86.1733 58.0732 87.6919 57.3003C90.3035 55.968 92.6217 54.1205 94.5071 51.8754C95.2407 51.0069 95.7909 49.9984 96.1357 48.909L97.0234 45.2802C97.1555 44.5073 97.3755 43.7565 97.6763 43.0425C97.3755 43.7712 97.1481 44.5294 97.0161 45.3022L96.1211 48.9311L96.1137 48.9237Z" stroke="#231F20" stroke-width="0.37" stroke-linejoin="bevel"/>
<path d="M86.2178 28.27L105.615 26.4961C106.429 26.4225 107.206 26.8567 107.573 27.5928L108.864 30.228C108.967 30.4341 109.026 30.6549 109.048 30.8757C109.026 30.6402 108.96 30.412 108.857 30.1912L107.559 27.556C107.199 26.8199 106.414 26.3856 105.6 26.4593L86.2032 28.2627C86.0785 28.2847 85.9684 28.2627 85.873 28.2259C85.9684 28.2774 86.0858 28.2921 86.2105 28.27" fill="white"/>
<path d="M86.2178 28.27L105.615 26.4961C106.429 26.4225 107.206 26.8567 107.573 27.5928L108.864 30.228C108.967 30.4341 109.026 30.6549 109.048 30.8757C109.026 30.6402 108.96 30.412 108.857 30.1912L107.559 27.556C107.199 26.8199 106.414 26.3856 105.6 26.4593L86.2032 28.2627C86.0785 28.2847 85.9684 28.2627 85.873 28.2259C85.9684 28.2774 86.0858 28.2921 86.2105 28.27H86.2178Z" stroke="#231F20" stroke-width="0.37" stroke-linejoin="bevel"/>
<path d="M65.1255 44.0953C65.0228 43.9775 64.8981 43.8892 64.766 43.823C64.6266 43.7567 64.4799 43.7052 64.3185 43.6758C64.2011 43.6463 64.0764 43.6316 63.9517 43.6169L63.6949 43.6021L63.2327 43.6169L62.9246 43.6389L62.7045 43.6537L62.4111 43.6758L61.5821 43.7788H61.5528C61.5161 43.7935 61.4721 43.7788 61.4501 43.742L60.3203 42.0122V42.0269L61.4648 43.7641C61.4648 43.7641 61.5234 43.8156 61.5675 43.8082H61.5968L62.4258 43.6978L62.7192 43.6758L62.9393 43.661L63.2474 43.6389L63.7096 43.6242L63.9664 43.6389C64.0911 43.6537 64.2158 43.6684 64.3332 43.6978C64.4946 43.7346 64.6413 43.7788 64.7807 43.845C64.9201 43.9113 65.0448 43.9996 65.1401 44.1174C65.1842 44.1689 65.2208 44.2205 65.2355 44.2499C65.2355 44.2499 65.2355 44.2352 65.2282 44.2352C65.2135 44.2057 65.1768 44.1468 65.1328 44.0953" fill="white"/>
<path d="M65.1255 44.0953C65.0228 43.9775 64.8981 43.8892 64.766 43.823C64.6266 43.7567 64.4799 43.7052 64.3185 43.6758C64.2011 43.6463 64.0764 43.6316 63.9517 43.6169L63.6949 43.6021L63.2327 43.6169L62.9246 43.6389L62.7045 43.6537L62.4111 43.6758L61.5821 43.7788H61.5528C61.5161 43.7935 61.4721 43.7788 61.4501 43.742L60.3203 42.0122V42.0269L61.4648 43.7641C61.4648 43.7641 61.5234 43.8156 61.5675 43.8082H61.5968L62.4258 43.6978L62.7192 43.6758L62.9393 43.661L63.2474 43.6389L63.7096 43.6242L63.9664 43.6389C64.0911 43.6537 64.2158 43.6684 64.3332 43.6978C64.4946 43.7346 64.6413 43.7788 64.7807 43.845C64.9201 43.9113 65.0448 43.9996 65.1401 44.1174C65.1842 44.1689 65.2208 44.2205 65.2355 44.2499C65.2355 44.2499 65.2355 44.2352 65.2282 44.2352C65.2135 44.2057 65.1768 44.1468 65.1328 44.0953H65.1255Z" stroke="#231F20" stroke-width="0.37" stroke-linejoin="bevel"/>
<path d="M112.715 13.1943C102.297 14.8063 91.7846 15.6087 81.2793 15.6087C91.7993 15.6234 102.319 14.8358 112.751 13.2385" fill="white"/>
<path d="M112.715 13.1943C102.297 14.8063 91.7846 15.6087 81.2793 15.6087C91.7993 15.6234 102.319 14.8358 112.751 13.2385" stroke="#231F20" stroke-width="0.37" stroke-linejoin="bevel"/>
<path d="M76.9065 27.3865C76.8038 27.1952 76.6057 27.07 76.393 27.0627C67.2962 26.8492 58.2288 26.0616 49.2274 24.7072C48.3544 24.5011 47.6061 23.6841 47.5401 22.7419V15.1161C47.5547 14.6965 47.6868 14.2917 47.9289 13.9604C47.6721 14.299 47.5254 14.726 47.5254 15.1603V22.786C47.5914 23.7282 48.3397 24.5453 49.2127 24.7514C58.2141 26.091 67.2815 26.8639 76.3783 27.07C76.5984 27.07 76.7891 27.1952 76.8918 27.3939C76.9945 27.5853 76.9799 27.8208 76.8552 28.0048C76.7965 28.0932 76.7158 28.1594 76.6204 28.2036C76.7158 28.1594 76.8038 28.0858 76.8625 27.9975C76.9872 27.8135 76.9945 27.5853 76.8992 27.3865" fill="white"/>
<path d="M76.9065 27.3865C76.8038 27.1952 76.6057 27.07 76.393 27.0627C67.2962 26.8492 58.2288 26.0616 49.2274 24.7072C48.3544 24.5011 47.6061 23.6841 47.5401 22.7419V15.1161C47.5547 14.6965 47.6868 14.2917 47.9289 13.9604C47.6721 14.299 47.5254 14.726 47.5254 15.1603V22.786C47.5914 23.7282 48.3397 24.5453 49.2127 24.7514C58.2141 26.091 67.2815 26.8639 76.3783 27.07C76.5984 27.07 76.7891 27.1952 76.8918 27.3939C76.9945 27.5853 76.9799 27.8208 76.8552 28.0048C76.7965 28.0932 76.7158 28.1594 76.6204 28.2036C76.7158 28.1594 76.8038 28.0858 76.8625 27.9975C76.9872 27.8135 76.9945 27.5853 76.8992 27.3865H76.9065Z" stroke="#231F20" stroke-width="0.37" stroke-linejoin="bevel"/>
<path d="M61.1132 38.1256C61.0912 38.0814 61.0545 38.0373 61.0251 37.9931C61.0031 37.9637 60.9811 37.9416 60.9591 37.9121C60.9445 37.8974 60.9298 37.8827 60.9151 37.8606C60.9004 37.8459 60.8858 37.8238 60.8711 37.8091C60.8564 37.7944 60.8417 37.7796 60.8197 37.7649L58.6849 35.9615L54.2759 32.6271C53.6964 32.2002 53.4103 31.5082 53.4763 30.8311C53.3956 31.523 53.6817 32.237 54.2686 32.6639L58.6849 35.991L60.8197 37.787C60.8197 37.787 60.8564 37.8165 60.8711 37.8312C60.8858 37.8459 60.9004 37.8606 60.9151 37.8827C60.9298 37.8974 60.9445 37.9121 60.9591 37.9342C60.9811 37.9563 61.0031 37.9858 61.0251 38.0152C61.0545 38.0594 61.0838 38.1035 61.1132 38.1477C61.2306 38.3538 61.2892 38.5673 61.3186 38.7807C61.3186 38.7807 61.3186 38.7807 61.3186 38.7734C61.2966 38.5525 61.2306 38.3317 61.1132 38.1256Z" fill="white"/>
<path d="M61.1132 38.1256C61.0912 38.0814 61.0545 38.0373 61.0251 37.9931C61.0031 37.9637 60.9811 37.9416 60.9591 37.9121C60.9445 37.8974 60.9298 37.8827 60.9151 37.8606C60.9004 37.8459 60.8858 37.8238 60.8711 37.8091C60.8564 37.7944 60.8417 37.7796 60.8197 37.7649L58.6849 35.9615L54.2759 32.6271C53.6964 32.2002 53.4103 31.5082 53.4763 30.8311C53.3956 31.523 53.6817 32.237 54.2686 32.6639L58.6849 35.991L60.8197 37.787C60.8197 37.787 60.8564 37.8165 60.8711 37.8312C60.8858 37.8459 60.9004 37.8606 60.9151 37.8827C60.9298 37.8974 60.9445 37.9121 60.9591 37.9342C60.9811 37.9563 61.0031 37.9858 61.0251 38.0152C61.0545 38.0594 61.0838 38.1035 61.1132 38.1477C61.2306 38.3538 61.2892 38.5673 61.3186 38.7807C61.3186 38.7807 61.3186 38.7807 61.3186 38.7734C61.2966 38.5525 61.2306 38.3317 61.1132 38.1256Z" stroke="#231F20" stroke-width="0.37" stroke-linejoin="bevel"/>
<path d="M79.9302 58.7653C79.8202 58.7579 79.7175 58.7652 79.6074 58.7432C79.7175 58.7579 79.8202 58.7505 79.9302 58.7653Z" fill="white"/>
<path d="M79.9302 58.7653C79.8202 58.7579 79.7175 58.7652 79.6074 58.7432C79.7175 58.7579 79.8202 58.7505 79.9302 58.7653Z" stroke="#231F20" stroke-width="0.37" stroke-linejoin="bevel"/>
<path d="M82.5847 58.7661C82.1372 58.8103 81.6897 58.8397 81.2422 58.8397C81.6897 58.8397 82.1372 58.8029 82.5847 58.7661Z" fill="white"/>
<path d="M82.5847 58.7661C82.1372 58.8103 81.6897 58.8397 81.2422 58.8397C81.6897 58.8397 82.1372 58.8029 82.5847 58.7661Z" stroke="#231F20" stroke-width="0.37" stroke-linejoin="bevel"/>
<path d="M49.8077 13.1947C60.2324 14.8067 70.7523 15.609 81.2723 15.609C70.7597 15.5943 60.2544 14.7772 49.8371 13.1505C49.2649 13.0622 48.6853 13.2241 48.2451 13.6069C48.1204 13.7099 48.0177 13.8277 47.9297 13.9602C48.0104 13.8498 48.1058 13.7467 48.2158 13.6584C48.656 13.283 49.2355 13.1137 49.8077 13.202V13.1947Z" stroke="#231F20" stroke-width="0.37" stroke-linejoin="bevel"/>
<path d="M54.9584 27.5552C55.3179 26.8191 56.1029 26.3848 56.9172 26.4585L76.3139 28.2619C76.4239 28.2692 76.534 28.2471 76.6293 28.203C76.534 28.2471 76.4312 28.2692 76.3212 28.2545L56.9245 26.4217C56.1102 26.348 55.3326 26.7823 54.9658 27.5184L53.6673 30.1536C53.5573 30.3744 53.4986 30.6026 53.4766 30.8381C53.4986 30.6173 53.5573 30.3965 53.66 30.1904L54.9584 27.5552Z" stroke="#231F20" stroke-width="0.37" stroke-linejoin="bevel"/>
<path d="M113.302 24.7515C104.301 26.0911 95.2335 26.864 86.1368 27.0701C85.9167 27.0701 85.7186 27.1952 85.6232 27.394C85.5205 27.5854 85.5719 27.8062 85.6599 27.9976C85.7039 28.1006 85.7846 28.1742 85.88 28.2184C85.792 28.1742 85.7186 28.1006 85.6746 28.0049C85.5866 27.8062 85.5425 27.5927 85.6379 27.4014C85.7406 27.21 85.9387 27.0848 86.1514 27.0775C95.2482 26.8861 104.323 26.1279 113.317 24.7956" stroke="#231F20" stroke-width="0.37" stroke-linejoin="bevel"/>
<path d="M81.2424 58.8461C80.8022 58.8461 80.362 58.8093 79.9219 58.7725C80.362 58.8166 80.8022 58.8461 81.2424 58.8461Z" stroke="#231F20" stroke-width="0.37" stroke-linejoin="bevel"/>
<path d="M60.8116 40.9821C60.995 40.592 61.1344 40.2092 61.2297 39.8338C61.3178 39.4879 61.3544 39.1419 61.3178 38.8107C61.3178 38.8107 61.3178 38.7959 61.3178 38.7886C61.3544 39.1198 61.3178 39.4584 61.2297 39.8044C61.1344 40.1798 60.9876 40.5625 60.8116 40.9526C60.6575 41.2765 60.4961 41.593 60.3127 41.9022C60.2907 41.9316 60.298 41.9758 60.3127 42.0052V42.02C60.3127 42.02 60.3054 41.9611 60.3127 41.9316C60.4961 41.6225 60.6575 41.306 60.8116 40.9821Z" stroke="#231F20" stroke-width="0.37" stroke-linejoin="bevel"/>
<path d="M82.8867 58.751C82.784 58.7657 82.6886 58.7583 82.5859 58.7657C82.6813 58.7583 82.784 58.7657 82.8867 58.751Z" stroke="#231F20" stroke-width="0.37" stroke-linejoin="bevel"/>
<path d="M68.0167 51.8689C67.2831 51.0003 66.7329 49.9919 66.3881 48.9025L65.5004 45.2736L65.3684 44.6332C65.3537 44.567 65.339 44.5081 65.317 44.4418C65.295 44.3756 65.2657 44.3167 65.2363 44.2578C65.2657 44.3093 65.295 44.3682 65.3097 44.4271C65.3244 44.4934 65.339 44.5522 65.3537 44.6185L65.4858 45.2662L66.3734 48.9025C66.7182 49.9919 67.2684 51.0003 67.9947 51.8689C69.8801 54.1213 72.191 55.9688 74.8026 57.3085C76.3285 58.0887 77.9498 58.5746 79.6078 58.7659C77.9645 58.5746 76.3432 58.0887 74.832 57.3159C72.2203 55.9836 69.9021 54.136 68.0167 51.891V51.8689Z" stroke="#231F20" stroke-width="0.37" stroke-linejoin="bevel"/>
<path d="M112.745 13.239C102.313 14.8363 91.7934 15.6239 81.2734 15.6092C70.7534 15.6092 60.2334 14.8069 49.8088 13.1949C49.2366 13.1065 48.6571 13.2758 48.2169 13.6512C48.1068 13.7396 48.0115 13.8426 47.9308 13.953C47.6887 14.2843 47.5566 14.6891 47.5566 15.1087V22.7344C47.608 23.6766 48.3636 24.4937 49.2293 24.6998C58.2233 26.0542 67.2981 26.8418 76.3949 27.0552C76.615 27.0552 76.813 27.1877 76.9084 27.3791C77.0111 27.5705 76.9965 27.806 76.8717 27.99C76.813 28.0784 76.725 28.152 76.6296 28.1961C76.5343 28.2477 76.4242 28.2698 76.3142 28.255L56.9175 26.4516C56.1032 26.378 55.3256 26.8123 54.9588 27.5484L53.6603 30.1836C53.5576 30.3897 53.4989 30.6105 53.4769 30.8313C53.4109 31.5159 53.697 32.2078 54.2765 32.6273L58.6855 35.9618L60.8203 37.7652C60.8203 37.7652 60.857 37.7946 60.8717 37.8094C60.8863 37.8241 60.901 37.8388 60.9157 37.8609C60.9304 37.8756 60.945 37.8903 60.9597 37.9124C60.9817 37.9345 61.0037 37.9639 61.0184 37.9934C61.0478 38.0375 61.0771 38.0817 61.1064 38.1259C61.2238 38.3393 61.2898 38.5528 61.3118 38.7736C61.3118 38.7736 61.3118 38.7736 61.3118 38.781C61.3118 38.781 61.3118 38.7957 61.3118 38.8031C61.3485 39.1343 61.3118 39.4802 61.2238 39.8262C61.1284 40.2016 60.9891 40.5844 60.8057 40.9745C60.6516 41.2984 60.4902 41.6149 60.3068 41.924C60.2921 41.9535 60.2995 41.9829 60.3068 42.0124L61.4366 43.7421C61.4366 43.7421 61.4952 43.7937 61.5393 43.7863H61.5686L62.3976 43.6759L62.691 43.6538L62.9111 43.6391L63.2192 43.617L63.6814 43.6023L63.9382 43.617C64.0629 43.6317 64.1876 43.6465 64.305 43.6759C64.4664 43.7127 64.6131 43.7569 64.7525 43.8231C64.8919 43.8894 65.0093 43.9777 65.112 44.0955C65.156 44.147 65.2 44.2059 65.2073 44.2353C65.2073 44.2353 65.2073 44.25 65.2147 44.25C65.244 44.3089 65.2807 44.3678 65.2954 44.4341C65.31 44.5003 65.332 44.5592 65.3467 44.6254L65.4788 45.2732L66.3664 48.9021C66.7112 49.9915 67.2614 50.9925 67.995 51.8685C69.8804 54.1135 72.1986 55.9611 74.8103 57.2934C76.3215 58.0663 77.9428 58.5521 79.5861 58.7434C79.6961 58.7582 79.7988 58.7508 79.9089 58.7655C80.3491 58.8097 80.7892 58.8391 81.2294 58.8465C81.6769 58.8465 82.1244 58.8097 82.5719 58.7729C82.6673 58.7655 82.77 58.7729 82.8727 58.7582C84.516 58.5668 86.1372 58.0883 87.6485 57.3155C90.2601 55.9832 92.5783 54.143 94.4711 51.8979C95.2047 51.0293 95.7549 50.0209 96.0997 48.9315L96.9947 45.3026C97.1341 44.5224 97.3542 43.7642 97.6549 43.0429C97.9557 42.3142 98.3299 41.6222 98.7847 40.9745C99.2689 40.2826 99.8044 39.6348 100.399 39.0386L103.817 36.0133L108.234 32.6862C108.813 32.2593 109.099 31.5674 109.033 30.8902C109.011 30.6694 108.953 30.4559 108.85 30.2425L107.559 27.6073C107.199 26.8712 106.422 26.4296 105.6 26.5032L86.2033 28.2845C86.0712 28.3066 85.9612 28.2845 85.8658 28.2403C85.7704 28.1962 85.6897 28.1225 85.6457 28.0195" fill="white"/>
<path d="M85.6587 27.9976C85.5707 27.7989 85.5266 27.5854 85.622 27.3867C85.7174 27.1879 85.9228 27.0701 86.1355 27.0628C95.2323 26.8567 104.307 26.0838 113.301 24.7441" fill="white"/>
<path d="M50.5553 22.6171C50.5553 22.8895 50.3352 23.1103 50.0638 23.1103C49.7923 23.1103 49.5723 22.8895 49.5723 22.6098V15.2637C49.5796 15.087 49.675 14.9251 49.829 14.8368C49.9831 14.7484 50.1738 14.7484 50.3206 14.8368C50.4746 14.9251 50.57 15.087 50.57 15.2637V22.6098L50.5553 22.6171Z" fill="white"/>
<path d="M59.9972 17.3609L52.7345 16.4555C52.5584 16.4335 52.4117 16.3231 52.3383 16.1538C52.2723 15.9918 52.2943 15.8004 52.397 15.6606C52.507 15.5207 52.6758 15.4471 52.8518 15.4692L60.1146 16.3746C60.386 16.4114 60.5768 16.6543 60.5474 16.9266C60.5107 17.199 60.2687 17.3904 59.9972 17.3609Z" fill="white"/>
<path d="M112.745 13.239C102.313 14.8363 91.7934 15.6239 81.2734 15.6092C70.7534 15.6092 60.2334 14.8069 49.8088 13.1949C49.2366 13.1065 48.6571 13.2758 48.2169 13.6512C48.1068 13.7396 48.0115 13.8426 47.9308 13.953C47.6887 14.2843 47.5566 14.6891 47.5566 15.1087V22.7344C47.608 23.6766 48.3636 24.4937 49.2293 24.6998C58.2233 26.0542 67.2981 26.8418 76.3949 27.0552C76.615 27.0552 76.813 27.1877 76.9084 27.3791C77.0111 27.5705 76.9965 27.806 76.8717 27.99C76.813 28.0784 76.725 28.152 76.6296 28.1961C76.5343 28.2477 76.4242 28.2698 76.3142 28.255L56.9175 26.4516C56.1032 26.378 55.3256 26.8123 54.9588 27.5484L53.6603 30.1836C53.5576 30.3897 53.4989 30.6105 53.4769 30.8313C53.4109 31.5159 53.697 32.2078 54.2765 32.6273L58.6855 35.9618L60.8203 37.7652C60.8203 37.7652 60.857 37.7946 60.8717 37.8094C60.8863 37.8241 60.901 37.8388 60.9157 37.8609C60.9304 37.8756 60.945 37.8903 60.9597 37.9124C60.9817 37.9345 61.0037 37.9639 61.0184 37.9934C61.0478 38.0375 61.0771 38.0817 61.1064 38.1259C61.2238 38.3393 61.2898 38.5528 61.3118 38.7736C61.3118 38.7736 61.3118 38.7736 61.3118 38.781C61.3118 38.781 61.3118 38.7957 61.3118 38.8031C61.3485 39.1343 61.3118 39.4802 61.2238 39.8262C61.1284 40.2016 60.9891 40.5844 60.8057 40.9745C60.6516 41.2984 60.4902 41.6149 60.3068 41.924C60.2921 41.9535 60.2995 41.9829 60.3068 42.0124L61.4366 43.7421C61.4366 43.7421 61.4952 43.7937 61.5393 43.7863H61.5686L62.3976 43.6759L62.691 43.6538L62.9111 43.6391L63.2192 43.617L63.6814 43.6023L63.9382 43.617C64.0629 43.6317 64.1876 43.6465 64.305 43.6759C64.4664 43.7127 64.6131 43.7569 64.7525 43.8231C64.8919 43.8894 65.0093 43.9777 65.112 44.0955C65.156 44.147 65.2 44.2059 65.2073 44.2353C65.2073 44.2353 65.2073 44.25 65.2147 44.25C65.244 44.3089 65.2807 44.3678 65.2954 44.4341C65.31 44.5003 65.332 44.5592 65.3467 44.6254L65.4788 45.2732L66.3664 48.9021C66.7112 49.9915 67.2614 50.9925 67.995 51.8685C69.8804 54.1135 72.1986 55.9611 74.8103 57.2934C76.3215 58.0663 77.9428 58.5521 79.5861 58.7434C79.6961 58.7582 79.7988 58.7508 79.9089 58.7655C80.3491 58.8097 80.7892 58.8391 81.2294 58.8465C81.6769 58.8465 82.1244 58.8097 82.5719 58.7729C82.6673 58.7655 82.77 58.7729 82.8727 58.7582C84.516 58.5668 86.1372 58.0883 87.6485 57.3155C90.2601 55.9832 92.5783 54.143 94.4711 51.8979C95.2047 51.0293 95.7549 50.0209 96.0997 48.9315L96.9947 45.3026C97.1341 44.5224 97.3542 43.7642 97.6549 43.0429C97.9557 42.3142 98.3299 41.6222 98.7847 40.9745C99.2689 40.2826 99.8044 39.6348 100.399 39.0386L103.817 36.0133L108.234 32.6862C108.813 32.2593 109.099 31.5674 109.033 30.8902C109.011 30.6694 108.953 30.4559 108.85 30.2425L107.559 27.6073C107.199 26.8712 106.422 26.4296 105.6 26.5032L86.2033 28.2845C86.0712 28.3066 85.9612 28.2845 85.8658 28.2403C85.7704 28.1962 85.6897 28.1225 85.6457 28.0195C85.5577 27.8208 85.5137 27.6073 85.609 27.4085C85.7044 27.2098 85.9098 27.092 86.1226 27.0847C95.2193 26.8786 104.294 26.1057 113.288 24.766" stroke="#231F20" stroke-width="0.37" stroke-linejoin="bevel"/>
<path d="M50.5553 22.6171C50.5553 22.8895 50.3352 23.1103 50.0638 23.1103C49.7923 23.1103 49.5723 22.8895 49.5723 22.6098V15.2637C49.5796 15.087 49.675 14.9251 49.829 14.8368C49.9831 14.7484 50.1738 14.7484 50.3206 14.8368C50.4746 14.9251 50.57 15.087 50.57 15.2637V22.6098L50.5553 22.6171Z" stroke="#231F20" stroke-width="0.37" stroke-linejoin="bevel"/>
<path d="M59.9972 17.3609L52.7345 16.4555C52.5584 16.4335 52.4117 16.3231 52.3383 16.1538C52.2723 15.9918 52.2943 15.8004 52.397 15.6606C52.507 15.5207 52.6758 15.4471 52.8518 15.4692L60.1146 16.3746C60.386 16.4114 60.5768 16.6543 60.5474 16.9266C60.5107 17.199 60.2687 17.3904 59.9972 17.3609Z" stroke="#231F20" stroke-width="0.37" stroke-linejoin="bevel"/>
<path d="M52.9043 9.01416V16.0879L59.8443 16.9344V9.85329L52.9043 9.01416Z" fill="white"/>
<path d="M52.9043 9.01416V16.0879L59.8442 16.9344V9.85329L52.9043 9.01416Z" stroke="#231F20" stroke-width="0.37" stroke-linejoin="bevel"/>
<path d="M59.8438 16.9343L60.1079 16.4927" stroke="#231F20" stroke-width="0.37" stroke-miterlimit="10"/>
<path d="M53.4236 7.04102L59.4539 7.87278C59.7033 7.87278 59.9087 8.07889 59.9087 8.32915V9.72034L52.9688 8.88857V7.49738C52.9688 7.24711 53.1742 7.04102 53.4236 7.04102Z" fill="white"/>
<path d="M53.4236 7.04102L59.4539 7.87278C59.7033 7.87278 59.9087 8.07889 59.9087 8.32915V9.72034L52.9688 8.88857V7.49738C52.9688 7.24711 53.1742 7.04102 53.4236 7.04102Z" stroke="#231F20" stroke-width="0.37" stroke-linejoin="bevel"/>
<path d="M44.0998 0.96875H43.6523V63.0276H44.0998V0.96875Z" fill="#231F20"/>
<path d="M54.5541 67.989C52.6834 50.0434 60.269 42.7194 60.5991 42.4839L61.1786 43.2862C61.1053 43.3377 53.7325 50.6691 55.5445 67.9817H54.5615L54.5541 67.989Z" fill="white"/>
<path d="M54.5541 67.989C52.6834 50.0434 60.269 42.7194 60.5991 42.4839L61.1786 43.2862C61.1053 43.3377 53.7325 50.6691 55.5445 67.9817H54.5615L54.5541 67.989Z" stroke="#231F20" stroke-width="0.37" stroke-linejoin="bevel"/>
<path d="M-20.9121 1.07861H0.634043V69.0629H-20.9121" fill="white"/>
<path d="M81.5219 22.3069H81.0891V21.9315C81.0597 21.9756 81.0304 22.0271 81.001 22.0787C80.9644 22.1302 80.9277 22.1744 80.8837 22.2185C80.8323 22.2627 80.781 22.2921 80.7223 22.3216C80.6636 22.351 80.5902 22.3657 80.5169 22.3657C80.3628 22.3657 80.2454 22.3142 80.1721 22.2038C80.0914 22.0934 80.0547 21.9535 80.0547 21.7769V20.5992H80.5022V21.7474C80.5022 21.8505 80.5242 21.9315 80.5682 21.983C80.6122 22.0419 80.6856 22.064 80.7736 22.064C80.847 22.064 80.913 22.0419 80.9644 22.0051C81.0157 21.9683 81.0524 21.9167 81.0817 21.8578V20.5918H81.5292V22.2995L81.5219 22.3069Z" fill="#231F20"/>
<path d="M84.4336 21.8076C84.3896 21.8665 84.3236 21.9106 84.2429 21.9548C84.1622 21.999 84.0668 22.0137 83.9568 22.0137C83.8687 22.0137 83.7881 21.999 83.7147 21.9695C83.6413 21.9401 83.5753 21.9033 83.524 21.837C83.4726 21.7855 83.4359 21.7119 83.4066 21.6236L84.441 21.1525C84.441 21.1525 84.441 20.9758 84.2796 20.7697C84.2209 20.6961 84.1402 20.6446 84.0522 20.6004C83.9641 20.5563 83.8614 20.5342 83.7514 20.5342C83.6413 20.5342 83.5386 20.5563 83.4359 20.6004C83.3332 20.6446 83.2452 20.7108 83.1645 20.7918C83.0838 20.8728 83.0251 20.9758 82.9737 21.0862C82.9297 21.204 82.9004 21.3291 82.9004 21.469C82.9004 21.5941 82.9224 21.7045 82.9591 21.815C82.9958 21.918 83.0544 22.0137 83.1278 22.0947C83.2012 22.1756 83.2892 22.2345 83.3919 22.2787C83.4946 22.3229 83.6046 22.3449 83.7294 22.3449C83.9201 22.3449 84.0815 22.2934 84.2062 22.1904C84.3309 22.0873 84.419 21.9622 84.463 21.8002L84.441 21.7855L84.4336 21.8076ZM83.3552 21.204C83.3552 21.123 83.3699 21.0494 83.3919 20.9758C83.4139 20.9022 83.4359 20.8433 83.4653 20.7918C83.4946 20.7403 83.5313 20.6961 83.5753 20.6667C83.6193 20.6372 83.6707 20.6225 83.7294 20.6225C83.8247 20.6225 83.8908 20.6593 83.9421 20.7403C83.9935 20.8213 84.0155 20.9979 84.0155 21.1672V21.2776L83.3992 21.5721C83.3772 21.4837 83.3626 21.3954 83.3626 21.2776V21.204H83.3552Z" fill="#231F20"/>
<path d="M78.3521 22.3591C78.2054 22.3443 78.0734 22.3149 77.9413 22.2634C77.7799 22.1898 77.6332 22.0941 77.5085 21.9763C77.3838 21.8585 77.2884 21.7113 77.2077 21.5494C77.1343 21.3874 77.0977 21.2108 77.0977 21.0194C77.0977 20.828 77.1343 20.6513 77.2077 20.4894C77.2811 20.3275 77.3838 20.1803 77.5085 20.0625C77.6332 19.9374 77.7726 19.8417 77.9413 19.7754C78.1027 19.7092 78.2714 19.6724 78.4548 19.6724C78.6382 19.6724 78.807 19.7092 78.9684 19.7754C79.1298 19.849 79.2765 19.9447 79.4012 20.0625C79.5259 20.1876 79.6286 20.3275 79.702 20.4894C79.7753 20.6513 79.812 20.828 79.812 21.0194C79.812 21.2108 79.7753 21.3874 79.702 21.5494C79.6286 21.7113 79.5259 21.8585 79.4012 21.9763C79.2765 22.0941 79.1298 22.1898 78.9684 22.2634C78.8143 22.3296 78.6529 22.3591 78.4842 22.3664C78.4842 22.3664 78.3961 22.3664 78.3521 22.3664M78.4548 22.2854C78.5942 22.2854 78.7116 22.256 78.8143 22.1898C78.917 22.1235 78.9977 22.0352 79.0637 21.9248C79.1298 21.8144 79.1738 21.6745 79.2104 21.5199C79.2398 21.3653 79.2545 21.196 79.2545 21.012C79.2545 20.828 79.2398 20.6587 79.2104 20.5041C79.1811 20.3496 79.1298 20.2171 79.0637 20.0993C78.9977 19.9889 78.917 19.8932 78.8143 19.8343C78.7116 19.7681 78.5942 19.7386 78.4548 19.7386C78.3154 19.7386 78.1981 19.7681 78.0954 19.8343C77.9927 19.9005 77.912 19.9889 77.8459 20.1067C77.7799 20.2244 77.7359 20.3569 77.7066 20.5115C77.6772 20.6661 77.6625 20.8354 77.6625 21.0194C77.6625 21.2034 77.6772 21.3727 77.7066 21.5273C77.7359 21.6819 77.7873 21.8217 77.8459 21.9321C77.912 22.0499 77.9927 22.1382 78.0954 22.1971C78.1981 22.256 78.3154 22.2928 78.4548 22.2928" fill="#231F20"/>
<path d="M79.8132 22.6458C79.6298 22.6458 79.4611 22.6605 79.307 22.69C79.153 22.7194 79.0209 22.7709 78.9035 22.8372C78.7935 22.9034 78.6981 22.9844 78.6394 23.0875C78.5734 23.1832 78.5441 23.3083 78.5441 23.4481H78.4707V23.4187C78.4707 23.2494 78.5147 23.0948 78.5734 22.9402C78.6468 22.7783 78.7348 22.6311 78.8595 22.506C78.9769 22.3808 79.1236 22.2778 79.285 22.2042C79.4464 22.1305 79.6298 22.0938 79.8132 22.0938V22.6532V22.6458Z" fill="#231F20"/>
<path d="M82.6947 20.5921C82.636 20.6215 82.5847 20.6583 82.5407 20.6951C82.4893 20.7393 82.4453 20.7834 82.4086 20.835C82.3719 20.8791 82.3353 20.9159 82.2986 20.9527V20.5994H81.8438V21.5784V22.3071H82.2986V21.0263C82.3279 20.9895 82.3646 20.9527 82.4013 20.9306C82.438 20.9086 82.4673 20.8938 82.4967 20.8938C82.5187 20.8938 82.5407 20.8938 82.5774 20.9086C82.6067 20.9159 82.636 20.9307 82.6727 20.938C82.7021 20.9527 82.7314 20.9675 82.7681 20.9895C82.7974 21.0043 82.8195 21.0263 82.8415 21.0484H82.8781V20.5405C82.8121 20.5405 82.7681 20.5479 82.7094 20.5773" fill="#231F20"/>
</g>
</g>
<defs>
<clipPath id="clip0_21406_1777">
<rect width="91" height="64.9044" fill="white"/>
</clipPath>
</defs>
</svg>
