<svg width="24" height="25" viewBox="0 0 24 25" fill="none" xmlns="http://www.w3.org/2000/svg">
<path d="M16.0191 12.2051L21.4991 15.3351C21.653 15.4223 21.781 15.5488 21.8701 15.7016C21.9592 15.8545 22.0061 16.0282 22.0061 16.2051C22.0061 16.382 21.9592 16.5557 21.8701 16.7085C21.781 16.8614 21.653 16.9879 21.4991 17.0751L12.9991 21.9451C12.6951 22.1206 12.3502 22.213 11.9991 22.213C11.6481 22.213 11.3032 22.1206 10.9991 21.9451L2.49914 17.0751C2.34524 16.9879 2.21723 16.8614 2.12817 16.7085C2.03911 16.5557 1.99219 16.382 1.99219 16.2051C1.99219 16.0282 2.03911 15.8545 2.12817 15.7016C2.21723 15.5488 2.34524 15.4223 2.49914 15.3351L7.97914 12.2051" stroke="black" stroke-linecap="round" stroke-linejoin="round"/>
<path d="M12.9991 13.9452C12.6951 14.1208 12.3502 14.2132 11.9991 14.2132C11.6481 14.2132 11.3032 14.1208 10.9991 13.9452L2.49914 9.07521C2.34524 8.988 2.21723 8.86152 2.12817 8.70868C2.03911 8.55584 1.99219 8.38211 1.99219 8.20521C1.99219 8.02832 2.03911 7.85459 2.12817 7.70175C2.21723 7.54891 2.34524 7.42243 2.49914 7.33522L10.9991 2.46521C11.3032 2.28968 11.6481 2.19727 11.9991 2.19727C12.3502 2.19727 12.6951 2.28968 12.9991 2.46521L21.4991 7.33522C21.653 7.42243 21.781 7.54891 21.8701 7.70175C21.9592 7.85459 22.0061 8.02832 22.0061 8.20521C22.0061 8.38211 21.9592 8.55584 21.8701 8.70868C21.781 8.86152 21.653 8.988 21.4991 9.07521L12.9991 13.9452Z" stroke="black" stroke-linecap="round" stroke-linejoin="round"/>
</svg>
