<svg width="50" height="30" viewBox="0 0 50 30" fill="none" xmlns="http://www.w3.org/2000/svg">
<g id="Frame 1073714381">
<path id="Subtract" fill-rule="evenodd" clip-rule="evenodd" d="M0.603856 0.898283H12.495C15.7827 0.898283 22.7084 1.9737 24.847 7.62736C27.8336 -1.21176 39.1135 0.197316 46.7638 1.15298C46.9055 1.17068 47.0459 1.18823 47.185 1.20555C47.3591 1.24652 47.7074 1.39605 47.7074 1.66644V8.39551C47.6767 8.55939 47.4923 8.83797 47.0007 8.64133C46.5091 8.44468 43.375 7.2484 41.8694 6.67484C41.5007 6.55193 40.6956 6.48433 40.4252 7.19719C40.0872 8.08825 41.009 9.01004 42.2995 9.62457C43.59 10.2391 48.1683 12.4514 49.5202 16.5995C50.8722 20.7475 49.1822 27.0157 42.2688 28.8286C36.7381 30.2788 29.6812 28.8183 26.8442 27.9068C26.7213 27.8555 26.4755 27.6794 26.4755 27.3844V19.3341C26.4755 19.1293 26.6168 18.7749 27.1822 18.9961C27.7475 19.2173 31.1664 20.8909 32.8051 21.7C33.2353 21.8639 34.1939 21.9766 34.5872 21.1162C35.0714 20.0571 33.2905 19.0873 32.9136 18.8821L32.8973 18.8732C32.8631 18.8546 32.7833 18.8181 32.6651 18.7641C31.6131 18.2838 27.5273 16.418 25.6766 13.4346C25.6662 13.543 25.6564 13.6659 25.6455 13.8015C25.432 16.4752 24.8214 24.1196 11.6039 23.3593V28.552C11.5937 28.6852 11.4748 28.9515 11.0815 28.9515H0.419498C0.296592 28.9412 0.0507812 28.8101 0.0507812 28.3677V1.3899C0.0507812 1.22603 0.161396 0.898283 0.603856 0.898283ZM12.0955 7.19719C12.5974 7.21767 13.6011 7.54747 13.6011 8.70278V16.7531C13.5601 17.1423 13.214 17.9576 12.157 18.105C11.9726 18.1255 11.6039 18.0006 11.6039 17.3369V7.75026C11.6039 7.5659 11.7022 7.19719 12.0955 7.19719Z" fill="black"/>
</g>
</svg>
