<svg width="43" height="21" viewBox="0 0 43 21" fill="none" xmlns="http://www.w3.org/2000/svg">
<g clip-path="url(#clip0_2012_912)">
<path fill-rule="evenodd" clip-rule="evenodd" d="M5.00884 13.8779C5.67689 14.1639 6.35886 14.3355 7.09649 14.3927C7.34703 14.4213 7.77847 14.407 7.76457 14.407C8.61353 14.3927 9.4347 14.2068 10.2141 13.8779C11.0491 13.5061 11.7729 13.0056 12.4131 12.3763C13.0394 11.747 13.5543 11.0034 13.9301 10.1454C14.3059 9.28731 14.5007 8.37207 14.5007 7.38531C14.5007 6.39856 14.3059 5.48328 13.9301 4.62523C13.5543 3.76717 13.0533 3.02353 12.4131 2.37999C11.7868 1.75075 11.0491 1.25022 10.2141 0.878395C9.39295 0.520873 8.51614 0.334961 7.61147 0.334961C6.70681 0.334961 5.8439 0.520873 5.02275 0.878395C4.20161 1.23592 3.46397 1.73645 2.83767 2.37999C2.19745 3.02353 1.69641 3.76717 1.32063 4.62523C0.944849 5.48328 0.75 6.41285 0.75 7.38531C0.75 8.37207 0.944849 9.3016 1.30671 10.1454C1.69641 11.0034 2.19745 11.747 2.82375 12.3763C3.45005 13.0056 4.18769 13.5061 5.00884 13.8779ZM9.4347 13.5204C8.93367 13.8493 8.32124 14.0209 7.61147 14.0209C6.91555 14.0209 6.30319 13.8636 5.80215 13.5061C5.28719 13.1772 4.86966 12.7052 4.54955 12.1189C4.21553 11.5326 3.97892 10.8318 3.82583 10.0167C3.67273 9.20151 3.58923 8.31485 3.58923 7.37102C3.58923 6.42714 3.67273 5.54049 3.82583 4.72533C3.99284 3.91018 4.22944 3.20944 4.54955 2.6088C4.86966 2.00817 5.28719 1.55054 5.80215 1.20731C6.30319 0.864094 6.91555 0.692483 7.62537 0.692483C8.3352 0.692483 8.93367 0.864094 9.4486 1.20731C9.94963 1.55054 10.3672 2.02247 10.7012 2.6088C11.0352 3.19514 11.2718 3.91018 11.411 4.71104C11.5641 5.52619 11.6476 6.41285 11.6476 7.37102C11.6476 8.34348 11.5641 9.23009 11.411 10.0309C11.2579 10.8461 11.0213 11.5469 10.6873 12.1332C10.3672 12.7195 9.94963 13.1915 9.4347 13.5204ZM37.9941 11.5326C37.7574 11.8329 37.4373 12.076 37.0337 12.2906C36.6301 12.5051 36.143 12.6052 35.5724 12.6052C35.127 12.6052 34.7234 12.5337 34.3337 12.3906C33.9579 12.2477 33.6378 12.0189 33.3594 11.7185C33.1089 11.4325 32.9141 11.0607 32.761 10.6173L37.9941 8.17188C37.9941 8.17188 37.9801 7.27093 37.1729 6.16979C36.8806 5.78365 36.4631 5.52624 36.0038 5.29742C35.5445 5.0686 35.0296 4.9542 34.459 4.9542C33.9022 4.9542 33.3733 5.0686 32.8584 5.31172C32.3434 5.54053 31.8842 5.88376 31.4945 6.31276C31.1047 6.74183 30.7846 7.25664 30.5481 7.85725C30.3114 8.45793 30.1862 9.11576 30.1862 9.8594C30.1862 10.5029 30.2836 11.1036 30.4785 11.647C30.6733 12.2048 30.9516 12.691 31.3274 13.0914C31.6893 13.5061 32.1346 13.8208 32.6496 14.0639C33.1646 14.2927 33.7352 14.4214 34.3754 14.4214C35.3636 14.4214 36.1708 14.1497 36.7971 13.6205C37.4234 13.0914 37.8549 12.4049 38.1054 11.6041L37.9941 11.5326ZM32.5104 8.37212C32.5383 7.9574 32.5939 7.57127 32.6775 7.19942C32.761 6.82763 32.8862 6.49871 33.0393 6.22696C33.1924 5.94096 33.3733 5.72644 33.6099 5.56914C33.8326 5.41183 34.0971 5.32602 34.3894 5.32602C34.8625 5.32602 35.2105 5.52624 35.461 5.94096C35.7116 6.3414 35.8229 7.28522 35.8229 8.17188V8.74391L32.6914 10.2741C32.58 9.81653 32.5104 9.35888 32.5104 8.74391V8.37212ZM23.1858 14.1352H21.0007V12.1759L20.9868 12.1617C20.8615 12.4191 20.7084 12.6765 20.5275 12.9482C20.3465 13.2199 20.1517 13.4487 19.9012 13.6632C19.6646 13.8778 19.3862 14.0637 19.08 14.1924C18.7739 14.3354 18.4259 14.4069 18.0501 14.4069C17.2707 14.4069 16.6862 14.1352 16.2826 13.5774C15.8789 13.0197 15.6841 12.2903 15.6841 11.3608V5.22571H17.9666V11.2178C17.9666 11.7469 18.0779 12.1617 18.3146 12.462C18.5512 12.7623 18.8991 12.9053 19.3445 12.9053C19.7342 12.9053 20.0404 12.8052 20.2909 12.605C20.5414 12.4048 20.7502 12.1474 20.9033 11.8327V5.22571H23.1858V14.1352ZM14.5006 15.8941C13.5682 15.8941 12.7053 15.9799 11.9259 16.1373C11.1465 16.2946 10.4645 16.552 9.87997 16.8809C9.30935 17.2241 8.85006 17.6532 8.52992 18.168C8.20984 18.6828 8.04279 19.312 8.04279 20.0271H7.66701V19.8698C7.69486 18.9974 7.8619 18.1537 8.18199 17.3528C8.54388 16.5091 9.03095 15.7511 9.64338 15.0933C10.2558 14.4354 10.9795 13.9206 11.8145 13.5345C12.6496 13.1484 13.5403 12.9482 14.5006 12.9482V15.8941ZM28.3764 5.71174C28.613 5.48292 28.8775 5.29701 29.1698 5.154C29.462 5.011 29.6986 4.93949 30.0187 4.95379V7.61374H29.8378C29.7543 7.49936 29.629 7.39927 29.476 7.29912C29.3229 7.21332 29.1698 7.12751 29.0027 7.056C28.8496 6.98449 28.6826 6.92733 28.5295 6.8844C28.3764 6.84153 28.2512 6.81289 28.1399 6.81289C28.0007 6.81289 27.8337 6.87011 27.6527 6.98449C27.4857 7.09893 27.3048 7.25624 27.1377 7.47072L27.1517 14.1349H24.8274V10.3452L24.8413 5.22551H27.1377V7.056C27.2807 6.89694 27.4338 6.71696 27.597 6.52498C27.6245 6.49258 27.6524 6.45983 27.6805 6.4268C27.9032 6.16934 28.1259 5.92625 28.3764 5.71174Z" fill="#212428"/>
<path d="M39.9167 5.87354V6.12714H39.5008V7.44006H39.1877V6.12714H38.7717V5.87354H39.9167Z" fill="#212428"/>
<path d="M41.9401 5.87354V7.44006H41.627V6.42118L41.2089 7.44006H40.9718L40.5514 6.42118V7.44006H40.2383V5.87354H40.5939L41.0903 7.03833L41.5868 5.87354H41.9401Z" fill="#212428"/>
</g>
<defs>
<clipPath id="clip0_2012_912">
<rect width="41.6352" height="19.6923" fill="white" transform="translate(0.75 0.334961)"/>
</clipPath>
</defs>
</svg>
