<svg width="24" height="25" viewBox="0 0 24 25" fill="none" xmlns="http://www.w3.org/2000/svg">
<path d="M21.7852 17.1089C21.7852 14.5132 20.754 12.0238 18.9186 10.1884C17.0831 8.35292 14.5937 7.32178 11.998 7.32178C9.40234 7.32178 6.91295 8.35292 5.07752 10.1884C3.24208 12.0238 2.21094 14.5132 2.21094 17.1089" stroke="black" stroke-width="0.7" stroke-linecap="round" stroke-linejoin="round"/>
<path d="M6.125 17.1086C6.125 15.5512 6.74368 14.0575 7.84495 12.9563C8.94621 11.855 10.4398 11.2363 11.9973 11.2363C13.5547 11.2363 15.0483 11.855 16.1496 12.9563C17.2508 14.0575 17.8695 15.5512 17.8695 17.1086" stroke="black" stroke-width="0.7" stroke-linecap="round" stroke-linejoin="round"/>
<path d="M10.043 17.1088C10.043 16.5896 10.2492 16.0918 10.6163 15.7247C10.9834 15.3576 11.4813 15.1514 12.0004 15.1514C12.5195 15.1514 13.0174 15.3576 13.3845 15.7247C13.7516 16.0918 13.9578 16.5896 13.9578 17.1088" stroke="black" stroke-width="0.7" stroke-linecap="round" stroke-linejoin="round"/>
</svg>
