<svg width="24" height="25" viewBox="0 0 24 25" fill="none" xmlns="http://www.w3.org/2000/svg">
<path d="M2.95312 6.78747C3.49592 7.2398 4.03871 7.69213 5.21477 7.69213C7.47641 7.69213 7.47641 5.88281 9.73805 5.88281C12.0902 5.88281 11.9092 7.69213 14.2613 7.69213C16.523 7.69213 16.523 5.88281 18.7846 5.88281C19.9607 5.88281 20.5035 6.33514 21.0463 6.78747" stroke="black" stroke-width="0.8" stroke-linecap="round" stroke-linejoin="round"/>
<path d="M2.95312 12.2152C3.49592 12.6675 4.03871 13.1199 5.21477 13.1199C7.47641 13.1199 7.47641 11.3105 9.73805 11.3105C12.0902 11.3105 11.9092 13.1199 14.2613 13.1199C16.523 13.1199 16.523 11.3105 18.7846 11.3105C19.9607 11.3105 20.5035 11.7629 21.0463 12.2152" stroke="black" stroke-width="0.8" stroke-linecap="round" stroke-linejoin="round"/>
<path d="M2.95312 17.6434C3.49592 18.0958 4.03871 18.5481 5.21477 18.5481C7.47641 18.5481 7.47641 16.7388 9.73805 16.7388C12.0902 16.7388 11.9092 18.5481 14.2613 18.5481C16.523 18.5481 16.523 16.7388 18.7846 16.7388C19.9607 16.7388 20.5035 17.1911 21.0463 17.6434" stroke="black" stroke-width="0.8" stroke-linecap="round" stroke-linejoin="round"/>
</svg>
