<svg width="24" height="25" viewBox="0 0 24 25" fill="none" xmlns="http://www.w3.org/2000/svg">
<path d="M20.0406 13.8154C20.0406 15.5128 19.3663 17.1407 18.1661 18.3409C16.9659 19.5411 15.338 20.2154 13.6406 20.2154" stroke="black" stroke-width="0.7" stroke-linecap="round" stroke-linejoin="round"/>
<path d="M16.8406 11.4151V10.6151C16.8406 10.1908 16.672 9.78382 16.372 9.48376C16.0719 9.18371 15.665 9.01514 15.2406 9.01514C14.8163 9.01514 14.4093 9.18371 14.1093 9.48376C13.8092 9.78382 13.6406 10.1908 13.6406 10.6151" stroke="black" stroke-width="0.7" stroke-linecap="round" stroke-linejoin="round"/>
<path d="M13.6414 10.6153V9.81533C13.6414 9.39098 13.4728 8.98402 13.1728 8.68396C12.8727 8.3839 12.4657 8.21533 12.0414 8.21533C11.6171 8.21533 11.2101 8.3839 10.91 8.68396C10.61 8.98402 10.4414 9.39098 10.4414 9.81533V10.6153" stroke="black" stroke-width="0.7" stroke-linecap="round" stroke-linejoin="round"/>
<path d="M10.4422 10.2153V5.81533C10.4422 5.39098 10.2736 4.98402 9.97355 4.68396C9.67349 4.3839 9.26653 4.21533 8.84218 4.21533C8.41784 4.21533 8.01087 4.3839 7.71082 4.68396C7.41076 4.98402 7.24219 5.39098 7.24219 5.81533V13.8153" stroke="black" stroke-width="0.7" stroke-linecap="round" stroke-linejoin="round"/>
<path d="M16.8415 11.4154C16.8415 10.9911 17.01 10.5841 17.3101 10.2841C17.6101 9.984 18.0171 9.81543 18.4414 9.81543C18.8658 9.81543 19.2728 9.984 19.5728 10.2841C19.8729 10.5841 20.0414 10.9911 20.0414 11.4154V13.8154C20.0414 15.5128 19.3672 17.1407 18.1669 18.3409C16.9667 19.5411 15.3388 20.2154 13.6415 20.2154H12.0415C9.80147 20.2154 8.44148 19.5274 7.24948 18.3434L4.36949 15.4634C4.09424 15.1586 3.94676 14.7595 3.95759 14.349C3.96842 13.9384 4.13673 13.5477 4.42766 13.2578C4.7186 12.9679 5.10989 12.801 5.5205 12.7916C5.93112 12.7822 6.32961 12.9311 6.63348 13.2074L8.04148 14.6154" stroke="black" stroke-width="0.7" stroke-linecap="round" stroke-linejoin="round"/>
</svg>
