<svg width="24" height="25" viewBox="0 0 24 25" fill="none" xmlns="http://www.w3.org/2000/svg">
<path d="M19.6124 13.1141C19.6124 17.6133 16.463 19.8629 12.7196 21.1677C12.5236 21.2342 12.3106 21.231 12.1167 21.1587C8.36432 19.8629 5.21484 17.6133 5.21484 13.1141V6.81513C5.21484 6.57648 5.30965 6.3476 5.4784 6.17884C5.64716 6.01009 5.87604 5.91528 6.11469 5.91528C7.91439 5.91528 10.164 4.83547 11.7298 3.46769C11.9204 3.30482 12.1629 3.21533 12.4136 3.21533C12.6644 3.21533 12.9069 3.30482 13.0975 3.46769C14.6723 4.84446 16.9129 5.91528 18.7126 5.91528C18.9512 5.91528 19.1801 6.01009 19.3489 6.17884C19.5176 6.3476 19.6124 6.57648 19.6124 6.81513V13.1141Z" stroke="black" stroke-width="0.7" stroke-linecap="round" stroke-linejoin="round"/>
<path d="M9.71484 12.2142L11.5145 14.0139L15.1139 10.4146" stroke="black" stroke-width="0.7" stroke-linecap="round" stroke-linejoin="round"/>
</svg>
