<svg width="137" height="100" viewBox="0 0 137 100" fill="none" xmlns="http://www.w3.org/2000/svg">
<g clip-path="url(#clip0_21287_3037)">
<path d="M53.0195 4.9375C53.0195 4.9375 65.1466 17.6812 67.202 21.5866C69.2575 25.4919 69.8741 28.575 73.5739 30.836C77.2737 33.097 79.7402 34.1247 79.7402 34.1247" stroke="black" stroke-width="0.7" stroke-miterlimit="10"/>
<path d="M79.7422 24.6702C79.7422 24.6702 83.0309 29.8088 87.9639 30.4254C92.897 31.042 91.8693 32.0698 96.8023 33.0975C101.735 34.1252 100.913 34.1252 100.708 32.6864C100.502 31.2476 100.708 34.1252 101.735 34.1252C102.763 34.1252 104.407 32.4808 104.407 32.4808C104.407 32.4808 101.53 34.1252 102.763 34.9474C103.996 35.7695 106.052 37.6194 106.874 39.2638C107.696 40.9081 107.696 42.3469 107.902 43.7857C108.107 45.2245 107.902 44.6079 108.107 44.8135C108.313 45.6356 108.929 46.2523 108.929 46.2523" stroke="black" stroke-width="0.7" stroke-miterlimit="10"/>
<path d="M108.108 44.6073C108.108 44.6073 106.463 46.8683 106.875 50.157C107.286 53.4457 108.108 55.2956 109.341 56.1178C110.574 56.94 112.219 57.1455 113.041 55.2956C113.863 53.4457 115.096 49.1293 115.713 48.3071C116.33 47.485 117.974 46.6628 117.152 44.1963C116.33 41.7297 113.658 34.5357 113.452 32.0692C113.246 29.8082 113.452 28.1639 112.424 26.725C111.397 25.2862 109.547 24.8752 109.547 23.6419C109.547 22.4086 109.958 21.792 110.369 21.3809C110.78 20.9698 111.191 19.7366 111.191 19.7366" stroke="black" stroke-width="0.7" stroke-miterlimit="10"/>
<path d="M107.691 23.4368L109.747 24.8756" stroke="black" stroke-width="0.7" stroke-miterlimit="10"/>
<path d="M112.01 21.9978C112.01 21.9978 111.599 23.8477 110.16 25.2865" stroke="black" stroke-width="0.7" stroke-miterlimit="10"/>
<path d="M115.095 22.8201C115.095 22.8201 114.478 25.4921 112.012 26.5198" stroke="black" stroke-width="0.7" stroke-miterlimit="10"/>
<path d="M119.611 50.9797L112.828 55.7072" stroke="black" stroke-width="0.7" stroke-miterlimit="10"/>
<path d="M110.778 56.7344L93.3064 67.8337C93.3064 67.8337 91.8676 67.8337 88.99 64.3395C86.1123 60.8452 87.3456 62.284 86.5234 61.0508" stroke="black" stroke-width="0.7" stroke-miterlimit="10"/>
<path d="M81.5872 51.5965C81.5872 51.5965 77.2708 43.5803 76.6542 40.4972C75.832 37.414 75.832 35.9752 75.832 35.9752L87.1369 30.22" stroke="black" stroke-width="0.7" stroke-miterlimit="10"/>
<path d="M75.832 36.1804C75.832 36.1804 77.2708 35.1527 83.8482 45.2243C90.4256 55.296 94.5365 66.8064 93.3032 68.0397" stroke="black" stroke-width="0.7" stroke-miterlimit="10"/>
<path d="M120.025 28.9864C119.203 27.5476 118.175 25.9032 117.353 24.6699C115.914 22.409 114.27 15.8316 110.981 15.2149C102.143 13.7761 89.1933 11.9262 86.5213 11.3096C83.8492 10.693 62.4727 -15 62.4727 -15" stroke="black" stroke-width="0.7" stroke-miterlimit="10"/>
<path d="M117.559 37.8247L119.82 36.5914C119.614 30.6307 115.503 28.5752 115.503 28.5752L113.242 30.014C113.242 30.014 116.531 35.1526 118.175 39.0579C119.82 42.9633 120.847 48.7185 119.82 50.9795C119.82 50.9795 120.642 50.9795 121.258 50.9795C121.875 50.9795 122.903 47.2797 122.697 45.4298C122.492 43.5799 122.286 32.8916 121.875 31.8639" stroke="black" stroke-width="0.7" stroke-miterlimit="10"/>
<path d="M70.7011 28.3698C70.7011 28.3698 69.2623 26.3144 70.4956 23.2312" stroke="black" stroke-width="0.7" stroke-miterlimit="10"/>
<path d="M69.0529 25.0808C69.0529 25.0808 68.2307 23.2309 70.9028 20.3533C73.3693 17.4757 74.1915 16.2424 74.1915 16.2424" stroke="black" stroke-width="0.7" stroke-miterlimit="10"/>
<path d="M86.5186 49.3354L69.6641 57.7628" stroke="black" stroke-width="0.7" stroke-miterlimit="10"/>
<path d="M87.9617 52.2126L81.5898 55.0903" stroke="black" stroke-width="0.7" stroke-miterlimit="10"/>
<path d="M124.342 30.8364L119.203 33.714" stroke="black" stroke-width="0.7" stroke-miterlimit="10"/>
<path d="M117.359 30.4251L124.348 26.5198C124.348 26.5198 124.964 26.5198 125.581 26.5198C125.581 26.5198 128.253 28.1641 124.348 30.6306" stroke="black" stroke-width="0.7" stroke-miterlimit="10"/>
<path d="M22.1869 88.1832L5.33236 96.6105L2.66029 97.8438C2.66029 97.8438 0.810399 98.2548 1.01594 95.3772L17.8705 86.95" stroke="black" stroke-width="0.7" stroke-miterlimit="10"/>
<path d="M114.48 51.5962C114.48 51.5962 114.48 51.5962 112.836 51.5962C111.191 51.5962 111.397 50.774 110.575 52.4183C109.752 54.0627 109.958 57.1458 112.424 56.1181" stroke="black" stroke-width="0.7" stroke-miterlimit="10"/>
<path d="M121.46 39.6748C121.46 39.6748 120.021 39.6748 118.582 40.7025" stroke="black" stroke-width="0.7" stroke-miterlimit="10"/>
<path d="M117.355 46.0466C117.355 46.0466 116.533 46.6633 115.3 46.6633C114.067 46.6633 114.067 47.0743 113.039 47.0743" stroke="black" stroke-width="0.7" stroke-miterlimit="10"/>
<path d="M48.6992 58.3791C48.6992 58.3791 49.3159 58.9957 52.6046 58.7902C58.3598 58.3791 61.4429 59.2013 61.4429 59.2013C61.4429 59.2013 64.7316 58.5846 68.8425 57.968C72.9534 57.3514 79.5308 55.9125 81.3807 55.2959C83.2306 54.6793 88.3692 53.2405 88.3692 53.2405" stroke="black" stroke-width="0.7" stroke-miterlimit="10"/>
<path d="M11.9141 86.3329C11.9141 86.3329 14.9972 86.3329 20.3414 87.5662C25.6855 88.7994 36.9904 94.9657 41.1013 95.9934C45.2121 97.0212 52.2006 98.2544 52.8173 96.4045C53.4339 94.5546 53.6394 95.3768 55.2838 93.3214C56.9281 91.2659 55.6949 91.0604 57.1337 89.2105C58.5725 87.3606 58.3669 87.155 57.9558 85.0996C57.7503 83.0442 58.778 83.2497 60.6279 82.222C62.4778 81.1943 62.8889 79.3444 62.4778 77.289C62.0667 75.2335 60.8335 74.0002 62.4778 71.7393C64.1222 69.4783 66.5887 68.245 69.4663 67.2173C72.3439 66.1896 73.9883 65.573 77.4825 64.1342C80.9767 62.6954 80.5657 63.1064 84.2654 61.6676C87.9652 60.2288 89.1985 59.8178 90.8428 58.79" stroke="black" stroke-width="0.7" stroke-miterlimit="10"/>
<path d="M7.17969 61.6678C7.17969 61.6678 12.9349 62.9011 16.2236 63.1066C19.5123 63.3122 25.2675 57.968 29.1729 56.7348C33.0782 55.5015 39.2445 51.3906 42.5332 51.3906C45.8219 51.3906 47.6718 51.8017 50.3439 52.8294C53.0159 53.8571 53.427 54.0627 57.949 55.0904C62.4709 56.1181 66.1707 56.3237 66.1707 56.3237C66.1707 56.3237 69.8705 56.3237 69.4594 57.5569" stroke="black" stroke-width="0.7" stroke-miterlimit="10"/>
<path d="M62.6797 77.2892C62.6797 77.2892 65.1462 74.6171 65.5573 73.1783C65.9684 71.7395 65.5573 70.7118 64.9407 69.4785" stroke="black" stroke-width="0.7" stroke-miterlimit="10"/>
<path d="M57.7515 70.5063C57.7515 70.5063 55.285 71.7396 53.6406 71.7396" stroke="black" stroke-width="0.7" stroke-miterlimit="10"/>
<path d="M1.01562 95.3767C1.01562 95.3767 2.86552 95.7878 2.65997 97.8433" stroke="black" stroke-width="0.7" stroke-miterlimit="10"/>
<path d="M125.368 26.7256C125.985 25.6979 126.602 24.8757 127.218 25.0813C128.041 25.0813 128.041 27.1367 127.629 29.1921C127.218 31.2476 125.985 32.6864 125.163 32.4809C124.341 32.2753 124.546 31.6587 124.546 30.8365" stroke="black" stroke-width="0.7" stroke-miterlimit="10"/>
<path d="M130.601 35.794C132.387 34.5847 133.474 33.071 133.028 32.413C132.583 31.755 130.774 32.2019 128.988 33.4111C127.202 34.6203 126.115 36.134 126.561 36.792C127.006 37.45 128.815 37.0032 130.601 35.794Z" stroke="black" stroke-width="0.7" stroke-miterlimit="10"/>
<path d="M132.972 32.686L134 34.5359C134 34.5359 133.383 36.7969 129.889 38.2357C129.889 38.2357 128.656 38.8524 128.039 38.6468L126.395 36.7969" stroke="black" stroke-width="0.7" stroke-miterlimit="10"/>
<path d="M127.222 25.0808L129.277 25.6974C129.277 25.6974 130.305 27.9584 128.661 31.2471C128.661 31.2471 128.25 32.4804 127.427 32.8915L124.961 32.4804" stroke="black" stroke-width="0.7" stroke-miterlimit="10"/>
</g>
<defs>
<clipPath id="clip0_21287_3037">
<rect width="137" height="100" fill="white"/>
</clipPath>
</defs>
</svg>
