<svg xmlns="http://www.w3.org/2000/svg" width="40" height="40" viewBox="0 0 40 40" fill="none">
  <path d="M26.0785 30.7308L26.0783 30.7308C26.0472 30.7332 26.0159 30.7355 25.9841 30.738C25.4266 30.7805 24.7476 30.8323 23.9227 30.8561C21.7363 30.9248 20.4518 30.8496 19.6349 30.6081C19.2227 30.4862 18.925 30.3208 18.6897 30.1074C18.4556 29.8952 18.2898 29.6412 18.1341 29.3536C17.9032 28.9324 17.8897 28.4741 17.9667 28.0346C18.0435 27.5967 18.2125 27.1649 18.3586 26.7918L18.3614 26.7848L18.3616 26.7849C18.4756 26.5388 18.5557 26.2784 18.5997 26.0108C18.596 25.9697 18.5636 25.9045 18.479 25.8067C18.4121 25.7295 18.3286 25.6491 18.237 25.561C18.2137 25.5385 18.1899 25.5156 18.1658 25.4922C17.9656 25.3634 17.7931 25.1962 17.6582 25.0001C17.5207 24.8003 17.4253 24.5747 17.3775 24.337L17.3744 24.3219L17.3752 24.3064C17.3866 24.0695 17.4544 23.8387 17.5731 23.6334C17.6905 23.4304 17.8542 23.258 18.0508 23.1303C18.1236 23.0695 18.195 23.0076 18.2512 22.9501C18.2739 22.9268 18.2928 22.9056 18.3077 22.8866C18.2234 22.8104 18.1298 22.7449 18.0291 22.6917L18.0211 22.6874L18.0213 22.6872L18.0172 22.6846C17.8451 22.5771 17.6284 22.4416 17.4584 22.2615C17.2838 22.0766 17.1517 21.8379 17.1626 21.5268L17.1629 21.5189L17.1641 21.5112C17.2012 21.282 17.3002 21.0672 17.4504 20.8902C17.5979 20.7163 17.7892 20.5853 18.0044 20.5105C18.1921 20.4026 18.3278 20.3174 18.4195 20.2171C18.4987 20.1305 18.5473 20.0298 18.5552 19.881C18.4041 19.6997 18.239 19.5306 18.0615 19.3752L18.0571 19.3714L18.0572 19.3713C18.0459 19.3605 18.0345 19.3495 18.023 19.3385C17.6378 18.9687 17.1507 18.5012 16.8517 18.0068C16.6969 17.7509 16.5867 17.4788 16.5714 17.2015C16.5559 16.9201 16.6387 16.6424 16.8537 16.3827L16.8627 16.3719L16.8632 16.3725C17.2053 16.0423 17.5926 15.7624 18.0133 15.5411C19.3313 14.7354 21.2902 13.5371 22.1244 10.869C22.6257 9.25859 23.3875 7.74122 24.3796 6.3772C24.4158 6.32582 24.4618 6.28212 24.5151 6.24866C24.5686 6.21499 24.6283 6.19236 24.6908 6.18208C24.7532 6.17181 24.817 6.17411 24.8785 6.18885L24.8494 6.31035L24.8785 6.18885C24.9401 6.20358 24.998 6.23046 25.049 6.2679L25.05 6.26864L25.05 6.26864C25.151 6.34434 25.2182 6.45666 25.2371 6.58142C25.2561 6.70617 25.2253 6.83338 25.1513 6.93564L25.151 6.93609C24.218 8.21462 23.502 9.63818 23.0319 11.1495M26.0785 30.7308L19.375 19.7874M26.0785 30.7308C26.7021 30.6821 27.1637 30.6464 27.5401 30.6687C27.9116 30.6908 28.1904 30.769 28.4489 30.9434C28.711 31.1202 28.962 31.4023 29.2645 31.8511C29.5667 32.2993 29.9136 32.9033 30.3715 33.7159C30.4113 33.7914 30.4714 33.8545 30.5449 33.898C30.6141 33.939 30.6927 33.9611 30.773 33.9624C30.8437 33.9779 30.9172 33.9766 30.9875 33.9584L31.0034 33.9543L31.0177 33.9463C31.1279 33.8841 31.2092 33.781 31.244 33.6593C31.2787 33.5377 31.2642 33.4072 31.2034 33.2962L31.2033 33.2959C30.1768 31.4296 29.6748 30.6156 28.9179 30.1262C28.1605 29.6365 27.3307 29.6995 26.0541 29.7964L26.0031 29.8003L26.0028 29.8003C25.8821 29.8097 25.7557 29.8207 25.6233 29.8323C25.1337 29.875 24.5627 29.9249 23.8938 29.9249V29.9248M26.0785 30.7308L23.8938 29.9248M23.0319 11.1495L22.9125 11.1124M23.0319 11.1495L22.9125 11.1124M23.0319 11.1495C22.092 14.1725 19.8544 15.5493 18.5016 16.3572L18.4971 16.3599L18.497 16.3598C18.1706 16.5366 17.8662 16.7513 17.5902 16.9994C17.5436 17.0572 17.5304 17.1387 17.5688 17.2635C17.609 17.3941 17.7002 17.5491 17.8274 17.7187C18.0592 18.0277 18.386 18.3537 18.6575 18.6245C18.6829 18.6498 18.7078 18.6747 18.7322 18.699C18.7746 18.7415 18.8151 18.7818 18.8535 18.8201C19.0659 19.0316 19.2182 19.1834 19.3186 19.3109C19.4443 19.4706 19.5 19.6065 19.5 19.7874M22.9125 11.1124C23.3867 9.58794 24.1089 8.15203 25.05 6.8624L17.5 16.9124C17.7851 16.6551 18.0998 16.4327 18.4375 16.2499C19.7875 15.4437 21.9875 14.0874 22.9125 11.1124ZM19.5 19.7874H19.375M19.5 19.7874C19.5 19.7873 19.5 19.7872 19.5 19.787L19.375 19.7874M19.5 19.7874C19.5009 20.1241 19.4022 20.4536 19.2163 20.7343C19.0318 21.0128 18.7697 21.231 18.4625 21.3619M19.375 19.7874C19.3759 20.0996 19.2844 20.4051 19.1121 20.6653C18.9397 20.9256 18.6941 21.129 18.4063 21.2499M18.4625 21.3619C18.4648 21.3605 18.4671 21.3591 18.4694 21.3578L18.4063 21.2499M18.4625 21.3619C18.3363 21.4358 18.2516 21.4878 18.1971 21.5317C18.1701 21.5534 18.1559 21.569 18.1488 21.5794C18.1486 21.5796 18.1484 21.5799 18.1482 21.5802M18.4625 21.3619C18.4599 21.363 18.4573 21.3641 18.4547 21.3651L18.4063 21.2499M18.4063 21.2499L18.1482 21.5802M18.1482 21.5802C18.1446 21.575 18.1426 21.5714 18.1417 21.5693C18.1413 21.5686 18.1412 21.5683 18.1412 21.5683C18.1412 21.5682 18.1444 21.5758 18.1435 21.589L18.1438 21.5881C18.1442 21.5871 18.1453 21.5845 18.1482 21.5802ZM18.1482 21.5802C18.1506 21.5838 18.1538 21.5881 18.1579 21.5932C18.1782 21.6185 18.2107 21.6504 18.2543 21.6874C18.3401 21.7601 18.4529 21.8391 18.5548 21.907M18.1482 21.5802L18.5548 21.907M18.5548 21.907C18.5541 21.9066 18.5534 21.9062 18.5527 21.9057L18.4875 22.0124L18.5569 21.9084C18.5562 21.9079 18.5555 21.9075 18.5548 21.907ZM23.8938 29.9248L23.8898 29.925M23.8938 29.9248L23.8898 29.925M23.8898 29.925C21.7013 29.9938 20.5606 29.9065 19.9196 29.7183C19.6033 29.6254 19.4157 29.5098 19.2843 29.3813C19.1507 29.2508 19.0674 29.1004 18.9665 28.9159C18.8563 28.7053 18.8571 28.429 18.9261 28.1107C18.9944 27.7953 19.1241 27.4624 19.2463 27.1489L23.8898 29.925ZM18.6878 23.8501C18.6901 23.8481 18.6924 23.8461 18.6947 23.8441L18.6125 23.7499L18.6797 23.8553C18.6824 23.8536 18.6851 23.8519 18.6878 23.8501ZM18.7907 24.7956C18.7877 24.7935 18.7846 24.7915 18.7815 24.7894L18.7125 24.8937L18.7985 24.8029C18.7959 24.8005 18.7933 24.798 18.7907 24.7956Z" fill="black" stroke="black" stroke-width="0.25"/>
  <path d="M27.6062 14.5875V14.5875L27.6094 14.5875L27.8517 14.5812C27.9771 14.5808 28.0972 14.5308 28.1859 14.4421C28.2749 14.353 28.325 14.2322 28.325 14.1063L28.325 14.1041C28.3228 13.9794 28.2723 13.8604 28.1841 13.7722C28.0959 13.6839 27.9769 13.6334 27.8522 13.6313L27.8522 13.6312L27.8488 13.6313C26.4772 13.6437 25.6597 13.5332 25.1888 13.4221C24.9536 13.3666 24.806 13.3112 24.7195 13.2717C24.6762 13.2519 24.6484 13.2361 24.6326 13.2264C24.6247 13.2215 24.6199 13.2181 24.6176 13.2164C24.6171 13.2161 24.6168 13.2158 24.6165 13.2157L24.4125 13.0437V13.281L23.9003 13.6622L23.8003 13.7367L23.8745 13.8369C23.9592 13.9513 24.1754 14.1376 24.7223 14.2959C25.2698 14.4542 26.1592 14.5875 27.6062 14.5875Z" fill="black" stroke="black" stroke-width="0.25"/>
  <path d="M24.83 14.3063L24.83 14.3063H24.8313H24.8438H24.8512L24.8586 14.3054C24.9833 14.2906 25.0974 14.2275 25.1762 14.1297C25.2547 14.0323 25.2923 13.9083 25.2809 13.7838C25.2455 13.2576 25.3281 12.7302 25.5225 12.2399L25.5268 12.2291L25.529 12.2177C25.5496 12.1119 25.5336 12.0022 25.4837 11.9067C25.4337 11.8112 25.3527 11.7355 25.254 11.6921C25.1554 11.6487 25.0449 11.6401 24.9407 11.6678C24.8365 11.6955 24.7448 11.7578 24.6808 11.8445L24.671 11.8578L24.6649 11.8731C24.4145 12.51 24.3092 13.1947 24.3566 13.8775L24.3564 13.8775L24.3572 13.8842C24.3715 13.9999 24.4274 14.1064 24.5143 14.1841C24.6013 14.2617 24.7135 14.3052 24.83 14.3063Z" fill="black" stroke="black" stroke-width="0.25"/>
  <path d="M29.2579 11.9489L29.0569 11.95C28.9912 11.9504 28.9261 11.9369 28.8659 11.9105C28.8057 11.8841 28.7518 11.8453 28.7076 11.7967M29.2579 11.9489L28.8 11.7125M29.2579 11.9489L29.2263 11.8856M29.2579 11.9489L29.2263 11.8856M28.7076 11.7967C28.7076 11.7967 28.7075 11.7966 28.7075 11.7966L28.8 11.7125M28.7076 11.7967C28.7076 11.7967 28.7077 11.7968 28.7077 11.7968L28.8 11.7125M28.7076 11.7967C28.2139 11.2565 27.6351 10.6948 27.1274 10.2684C26.8733 10.055 26.6394 9.87737 26.4443 9.75346C26.3467 9.69148 26.2611 9.64438 26.1892 9.61297C26.1206 9.58299 26.0725 9.57094 26.0424 9.56901M28.8 11.7125C27.8062 10.625 26.4687 9.45 26.0375 9.44375M26.0424 9.56901C26.0454 9.56866 26.0483 9.56831 26.0513 9.56798L26.0375 9.44375M26.0424 9.56901C25.8525 9.59151 25.6701 9.65665 25.5089 9.7596C25.3455 9.86397 25.2081 10.0044 25.1074 10.1701C25.0755 10.2249 25.0331 10.2729 24.9827 10.3114C24.932 10.3501 24.8741 10.3785 24.8124 10.3949C24.7507 10.4113 24.6864 10.4154 24.6231 10.407C24.5598 10.3985 24.4988 10.3777 24.4435 10.3456C24.3883 10.3136 24.3399 10.271 24.3011 10.2202C24.2624 10.1695 24.234 10.1116 24.2176 10.0499C24.2011 9.98821 24.1971 9.92387 24.2055 9.86057C24.214 9.79728 24.2348 9.73627 24.2669 9.68104L24.2685 9.67829L24.2685 9.67831C24.455 9.37476 24.7119 9.12059 25.0174 8.93729C25.3229 8.75399 25.668 8.64696 26.0236 8.62523L26.0312 8.62477V8.625C26.3684 8.625 26.9239 8.79153 28.1768 9.90663L28.1823 9.91146L28.1821 9.91161L29.0134 10.7429L29.3946 11.1241L29.4016 11.1311L29.4013 11.1313C29.4604 11.2005 29.4987 11.2851 29.5116 11.3751C29.5246 11.4652 29.5118 11.5571 29.4747 11.6402L29.3606 11.5892L29.4747 11.6402C29.4376 11.7233 29.3777 11.7941 29.3019 11.8445C29.2779 11.8605 29.2526 11.8742 29.2263 11.8856M26.0424 9.56901C26.0401 9.56886 26.0378 9.56877 26.0357 9.56874L26.0375 9.44375M26.0375 9.44375L29.2263 11.8856" fill="black" stroke="black" stroke-width="0.25"/>
  <path d="M18.325 23.9C18.2446 23.9078 18.1641 23.8875 18.0969 23.8426C18.0298 23.7977 17.9803 23.7309 17.9567 23.6537C17.9332 23.5764 17.9371 23.4934 17.9678 23.4187C17.9984 23.344 18.054 23.2822 18.125 23.2438L18.6438 22.9375L18.3938 22.7875C18.3527 22.7629 18.3169 22.7304 18.2885 22.692C18.26 22.6535 18.2393 22.6098 18.2277 22.5634C18.2161 22.517 18.2138 22.4687 18.2208 22.4214C18.2278 22.3741 18.2441 22.3286 18.2688 22.2875C18.2934 22.2465 18.3259 22.2107 18.3643 22.1822C18.4028 22.1537 18.4465 22.1331 18.4929 22.1215C18.5393 22.1099 18.5876 22.1075 18.6349 22.1146C18.6822 22.1216 18.7277 22.1379 18.7688 22.1625L19.5 22.625C19.5513 22.6561 19.5934 22.7003 19.622 22.753C19.6505 22.8057 19.6645 22.8651 19.6625 22.925C19.6632 22.9855 19.648 23.045 19.6184 23.0977C19.5888 23.1503 19.5458 23.1943 19.4938 23.225L18.4813 23.85C18.4335 23.878 18.3802 23.8951 18.325 23.9Z" fill="black"/>
  <path d="M13.0438 10.1563C12.9527 10.1553 12.8655 10.1196 12.8 10.0563C12.7659 10.0243 12.7389 9.9855 12.7206 9.94246C12.7023 9.89943 12.6932 9.85306 12.6938 9.8063C12.6932 9.75954 12.7023 9.71318 12.7206 9.67014C12.7389 9.6271 12.7659 9.58834 12.8 9.5563C12.8319 9.5224 12.8707 9.49588 12.9139 9.47861C12.9571 9.46133 13.0036 9.45372 13.05 9.4563H13.0875C13.1803 9.4563 13.2694 9.49318 13.335 9.55882C13.4006 9.62445 13.4375 9.71348 13.4375 9.8063C13.4375 9.89913 13.4006 9.98815 13.335 10.0538C13.2694 10.1194 13.1803 10.1563 13.0875 10.1563H13.0438Z" fill="black"/>
  <path d="M16.0938 13.9062C16.0471 13.906 16.001 13.8965 15.958 13.8783C15.9151 13.86 15.8763 13.8334 15.8438 13.7999C15.7801 13.7322 15.7444 13.6429 15.7438 13.5499V13.4999C15.7438 13.4071 15.7806 13.3181 15.8463 13.2524C15.9119 13.1868 16.0009 13.1499 16.0938 13.1499C16.1872 13.1499 16.2769 13.1866 16.3435 13.252C16.4101 13.3175 16.4484 13.4065 16.45 13.4999V13.5499C16.4499 13.5966 16.4404 13.6427 16.4221 13.6856C16.4039 13.7286 16.3773 13.7674 16.3438 13.7999C16.3122 13.8346 16.2736 13.8621 16.2304 13.8804C16.1873 13.8987 16.1406 13.9075 16.0938 13.9062Z" fill="black"/>
  <path d="M16.0875 6.46257C15.9947 6.46257 15.9056 6.42569 15.84 6.36005C15.7744 6.29442 15.7375 6.20539 15.7375 6.11257V6.06257C15.7375 5.96948 15.7733 5.87997 15.8375 5.81257C15.87 5.77909 15.9088 5.75244 15.9518 5.7342C15.9947 5.71595 16.0408 5.70647 16.0875 5.70632C16.1333 5.70584 16.1787 5.71506 16.2207 5.73337C16.2627 5.75168 16.3004 5.77867 16.3312 5.81257C16.3653 5.8446 16.3923 5.88337 16.4106 5.9264C16.4289 5.96944 16.4381 6.01581 16.4375 6.06257V6.11257C16.4359 6.20489 16.3985 6.29298 16.3332 6.35828C16.2679 6.42357 16.1798 6.46096 16.0875 6.46257Z" fill="black"/>
  <path d="M19.1312 10.1563H19.0875C18.9947 10.1563 18.9056 10.1194 18.84 10.0538C18.7744 9.98815 18.7375 9.89913 18.7375 9.8063C18.7375 9.71348 18.7744 9.62445 18.84 9.55882C18.9056 9.49318 18.9947 9.4563 19.0875 9.4563H19.1312C19.1777 9.45372 19.2241 9.46133 19.2673 9.47861C19.3105 9.49588 19.3494 9.5224 19.3812 9.5563C19.4153 9.58834 19.4423 9.6271 19.4606 9.67014C19.4789 9.71318 19.4881 9.75954 19.4875 9.8063C19.4873 9.85295 19.4779 9.8991 19.4596 9.94203C19.4414 9.98496 19.4147 10.0238 19.3812 10.0563C19.3135 10.12 19.2242 10.1557 19.1312 10.1563Z" fill="black"/>
  <path d="M16.5187 6.11113L16.5187 6.11245C16.5187 7.96288 17.6877 9.3812 19.0875 9.3812C19.2002 9.3812 19.3083 9.42598 19.388 9.50568C19.4677 9.58538 19.5125 9.69348 19.5125 9.8062C19.5125 9.91892 19.4677 10.027 19.388 10.1067C19.3083 10.1864 19.2002 10.2312 19.0875 10.2312C17.6881 10.2312 16.5187 11.6803 16.5187 13.5V13.5013H16.5187C16.5167 13.6143 16.4704 13.7221 16.3898 13.8013C16.3091 13.8806 16.2006 13.925 16.0875 13.925C15.9748 13.925 15.8667 13.8802 15.787 13.8005C15.7073 13.7208 15.6625 13.6127 15.6625 13.5C15.6625 11.6496 14.4936 10.2312 13.0875 10.2312C12.9748 10.2312 12.8667 10.1864 12.787 10.1067C12.7073 10.027 12.6625 9.91892 12.6625 9.8062C12.6625 9.69348 12.7073 9.58538 12.787 9.50568C12.8667 9.42598 12.9748 9.3812 13.0875 9.3812C14.4932 9.3812 15.6625 7.932 15.6625 6.11245C15.6625 5.99973 15.7073 5.89163 15.787 5.81193C15.8667 5.73223 15.9748 5.68745 16.0875 5.68745L16.5187 6.11113ZM16.5187 6.11113C16.5167 5.99808 16.4704 5.89032 16.3898 5.81107C16.3091 5.73183 16.2006 5.68744 16.0875 5.68745L16.5187 6.11113ZM17.5777 9.8062C16.9245 10.2072 16.406 10.7937 16.0879 11.4902C15.7729 10.7934 15.2559 10.2066 14.6036 9.8062C15.2559 9.40578 15.7729 8.81896 16.0879 8.1222C16.406 8.81868 16.9245 9.40516 17.5777 9.8062Z" fill="black" stroke="black" stroke-width="0.15"/>
  <path d="M9.21251 22.2374C9.12147 22.2365 9.03425 22.2007 8.96876 22.1374C8.9347 22.1054 8.90767 22.0666 8.88938 22.0236C8.87109 21.9806 8.86194 21.9342 8.86251 21.8874C8.86267 21.8408 8.87215 21.7946 8.8904 21.7517C8.90864 21.7088 8.93529 21.6699 8.96876 21.6374C9.00156 21.6048 9.04061 21.5791 9.08356 21.5619C9.12652 21.5448 9.17251 21.5364 9.21876 21.5374C9.31159 21.5374 9.40061 21.5743 9.46625 21.6399C9.53189 21.7056 9.56876 21.7946 9.56876 21.8874C9.56876 21.9803 9.53189 22.0693 9.46625 22.1349C9.40061 22.2006 9.31159 22.2374 9.21876 22.2374H9.21251Z" fill="black"/>
  <path d="M11.1312 24.5999C11.0851 24.6007 11.0392 24.5923 10.9963 24.575C10.9535 24.5577 10.9145 24.5319 10.8819 24.4993C10.8492 24.4666 10.8235 24.4277 10.8062 24.3848C10.7889 24.342 10.7804 24.2961 10.7812 24.2499C10.7812 24.1571 10.8181 24.0681 10.8838 24.0024C10.9494 23.9368 11.0384 23.8999 11.1312 23.8999C11.2241 23.8999 11.3131 23.9368 11.3787 24.0024C11.4444 24.0681 11.4812 24.1571 11.4812 24.2499C11.4838 24.2963 11.4762 24.3428 11.4589 24.386C11.4417 24.4292 11.4151 24.4681 11.3812 24.4999C11.3138 24.5641 11.2243 24.5999 11.1312 24.5999Z" fill="black"/>
  <path d="M11.1312 19.9125C11.0379 19.9109 10.9488 19.8727 10.8834 19.806C10.8179 19.7394 10.7812 19.6497 10.7813 19.5563V19.525C10.7831 19.4323 10.8186 19.3434 10.8812 19.275C10.949 19.2114 11.0383 19.1757 11.1312 19.175C11.2243 19.175 11.3138 19.2109 11.3812 19.275C11.4145 19.3074 11.4406 19.3464 11.4578 19.3894C11.475 19.4325 11.483 19.4787 11.4813 19.525V19.5563C11.4813 19.6497 11.4446 19.7394 11.3791 19.806C11.3137 19.8727 11.2246 19.9109 11.1312 19.9125Z" fill="black"/>
  <path d="M13.05 22.2374H13.0188C12.9259 22.2374 12.8369 22.2005 12.7713 22.1349C12.7056 22.0692 12.6688 21.9802 12.6688 21.8874C12.6704 21.794 12.7087 21.705 12.7753 21.6395C12.8419 21.574 12.9316 21.5374 13.025 21.5374C13.0724 21.5347 13.1198 21.5423 13.164 21.5595C13.2082 21.5768 13.2482 21.6033 13.2813 21.6374C13.3467 21.7045 13.3846 21.7937 13.3875 21.8874C13.3874 21.934 13.3779 21.9802 13.3596 22.0231C13.3414 22.066 13.3147 22.1049 13.2813 22.1374C13.2196 22.1988 13.137 22.2345 13.05 22.2374Z" fill="black"/>
  <path d="M10.8307 24.5193C10.9104 24.599 11.0185 24.6438 11.1312 24.6438C11.244 24.6438 11.3521 24.599 11.4318 24.5193C11.5115 24.4396 11.5562 24.3315 11.5562 24.2188C11.5562 23.1481 12.2327 22.3126 13.025 22.3126C13.1377 22.3126 13.2458 22.2678 13.3255 22.1881C13.4052 22.1084 13.45 22.0003 13.45 21.8875C13.45 21.7748 13.4052 21.6667 13.3255 21.587C13.2458 21.5073 13.1377 21.4625 13.025 21.4625C12.2327 21.4625 11.5562 20.627 11.5562 19.5563C11.5562 19.4436 11.5115 19.3355 11.4318 19.2558C11.3521 19.1761 11.244 19.1313 11.1312 19.1313C11.0185 19.1313 10.9104 19.1761 10.8307 19.2558C10.751 19.3355 10.7062 19.4436 10.7062 19.5563C10.7062 20.6275 10.0357 21.4625 9.24374 21.4625C9.18792 21.4625 9.13266 21.4735 9.0811 21.4949C9.02953 21.5163 8.98268 21.5476 8.94322 21.587C8.90375 21.6265 8.87245 21.6733 8.85109 21.7249C8.82973 21.7765 8.81874 21.8317 8.81874 21.8875C8.81874 21.9434 8.82973 21.9986 8.85109 22.0502C8.87245 22.1018 8.90375 22.1486 8.94322 22.1881C8.98268 22.2275 9.02953 22.2588 9.0811 22.2802C9.13266 22.3016 9.18792 22.3126 9.24374 22.3126C10.0357 22.3126 10.7062 23.1476 10.7062 24.2188C10.7062 24.3315 10.751 24.4396 10.8307 24.5193ZM11.7871 21.875C11.5256 22.078 11.3036 22.3273 11.1321 22.6102C10.9631 22.3254 10.7408 22.0758 10.4772 21.875C10.7408 21.6743 10.9631 21.4247 11.1321 21.1399C11.3036 21.4228 11.5256 21.6721 11.7871 21.875Z" fill="black" stroke="black" stroke-width="0.15"/>
  <path d="M14.6375 32.8501C14.5402 32.8527 14.4459 32.8167 14.375 32.7501C14.3096 32.6829 14.2717 32.5938 14.2688 32.5001C14.2682 32.4533 14.2773 32.4069 14.2956 32.3639C14.3139 32.3209 14.341 32.2821 14.375 32.2501C14.4066 32.2158 14.4454 32.1891 14.4887 32.1718C14.5319 32.1545 14.5785 32.1471 14.625 32.1501C14.671 32.1501 14.7165 32.1591 14.759 32.1767C14.8014 32.1943 14.84 32.2201 14.8725 32.2526C14.905 32.2851 14.9308 32.3237 14.9484 32.3661C14.966 32.4086 14.975 32.4541 14.975 32.5001C14.975 32.546 14.966 32.5915 14.9484 32.634C14.9308 32.6765 14.905 32.7151 14.8725 32.7476C14.84 32.7801 14.8014 32.8058 14.759 32.8234C14.7165 32.841 14.671 32.8501 14.625 32.8501H14.6375Z" fill="black"/>
  <path d="M15.8438 34.2937C15.7971 34.2935 15.751 34.284 15.708 34.2658C15.6651 34.2475 15.6263 34.2209 15.5938 34.1874C15.5301 34.1197 15.4944 34.0304 15.4938 33.9374C15.4938 33.8446 15.5306 33.7556 15.5963 33.6899C15.6619 33.6243 15.7509 33.5874 15.8438 33.5874C15.9366 33.5874 16.0256 33.6243 16.0913 33.6899C16.1569 33.7556 16.1938 33.8446 16.1938 33.9374C16.1968 33.9839 16.1894 34.0305 16.1721 34.0737C16.1548 34.117 16.128 34.1558 16.0938 34.1874C16.0617 34.2215 16.023 34.2485 15.9799 34.2668C15.9369 34.2851 15.8905 34.2942 15.8438 34.2937Z" fill="black"/>
  <path d="M15.8438 31.4312C15.7504 31.4296 15.6614 31.3914 15.5959 31.3247C15.5304 31.2581 15.4938 31.1684 15.4938 31.075C15.4938 30.9819 15.5296 30.8924 15.5938 30.825C15.6263 30.7915 15.6651 30.7649 15.708 30.7466C15.751 30.7284 15.7971 30.7189 15.8438 30.7188C15.9369 30.7187 16.0264 30.7546 16.0938 30.8187C16.1277 30.8506 16.1542 30.8895 16.1715 30.9327C16.1887 30.9759 16.1964 31.0223 16.1938 31.0687C16.1946 31.1155 16.1862 31.162 16.1691 31.2056C16.1519 31.2491 16.1264 31.2888 16.0939 31.3225C16.0614 31.3562 16.0225 31.3831 15.9796 31.4018C15.9367 31.4204 15.8906 31.4304 15.8438 31.4312Z" fill="black"/>
  <path d="M17.0687 32.8499C17.0228 32.8499 16.9773 32.8409 16.9348 32.8233C16.8923 32.8057 16.8538 32.7799 16.8213 32.7474C16.7888 32.7149 16.763 32.6763 16.7454 32.6339C16.7278 32.5914 16.7187 32.5459 16.7187 32.4999C16.7179 32.4543 16.7262 32.4089 16.7431 32.3665C16.76 32.324 16.7852 32.2854 16.8172 32.2528C16.8492 32.2202 16.8874 32.1944 16.9295 32.1767C16.9716 32.159 17.0168 32.1499 17.0625 32.1499C17.1099 32.1473 17.1573 32.1548 17.2015 32.1721C17.2457 32.1893 17.2857 32.2159 17.3187 32.2499C17.3528 32.282 17.3798 32.3207 17.3981 32.3638C17.4164 32.4068 17.4256 32.4532 17.425 32.4999C17.4248 32.5466 17.4154 32.5927 17.3971 32.6357C17.3789 32.6786 17.3522 32.7174 17.3187 32.7499C17.251 32.8136 17.1617 32.8493 17.0687 32.8499Z" fill="black"/>
  <path d="M15.8424 34.3501L15.8424 34.3501L15.8451 34.3501C15.9581 34.3481 16.0659 34.3018 16.1451 34.2211C16.2244 34.1405 16.2688 34.0319 16.2688 33.9188H16.2691L16.2685 33.9121C16.2471 33.6771 16.3175 33.443 16.4651 33.2588C16.6116 33.0759 16.823 32.9564 17.0552 32.9251C17.166 32.9237 17.2721 32.8791 17.3505 32.8006C17.4302 32.7209 17.475 32.6128 17.475 32.5001C17.475 32.3874 17.4302 32.2793 17.3505 32.1996C17.272 32.1211 17.166 32.0765 17.0552 32.0751C16.8219 32.0438 16.6096 31.9235 16.4629 31.7393C16.3152 31.5539 16.2455 31.3183 16.2684 31.0824L16.2688 31.0824V31.0751C16.2688 30.9624 16.224 30.8543 16.1443 30.7746C16.0646 30.6949 15.9565 30.6501 15.8438 30.6501C15.731 30.6501 15.6229 30.6949 15.5432 30.7746C15.4635 30.8543 15.4188 30.9624 15.4188 31.0751H15.4184L15.4192 31.0829C15.4437 31.3181 15.3754 31.5536 15.2287 31.7391C15.083 31.9234 14.8714 32.0438 14.6386 32.0751C14.5277 32.0765 14.4217 32.1211 14.3432 32.1996C14.2635 32.2793 14.2188 32.3874 14.2188 32.5001C14.2188 32.6128 14.2635 32.7209 14.3432 32.8006C14.4217 32.8791 14.5277 32.9237 14.6386 32.9251C14.8702 32.9564 15.0809 33.076 15.2265 33.259C15.373 33.4433 15.4421 33.6773 15.4191 33.9115L15.4188 33.9115L15.4188 33.9188C15.4187 34.0319 15.4631 34.1405 15.5424 34.2211C15.6216 34.3018 15.7294 34.3481 15.8424 34.3501ZM16.0073 32.5001C15.9491 32.5555 15.8944 32.6146 15.8438 32.6771C15.7931 32.6146 15.7385 32.5555 15.6802 32.5001C15.7385 32.4447 15.7931 32.3856 15.8438 32.3231C15.8944 32.3856 15.9491 32.4447 16.0073 32.5001Z" fill="black" stroke="black" stroke-width="0.15"/>
</svg>