<svg width="291" height="291" viewBox="0 0 291 291" fill="none" xmlns="http://www.w3.org/2000/svg">
<g clip-path="url(#clip0_38188_3444)">
<path d="M117.191 252.248C176.304 268.087 237.107 232.85 252.998 173.545C268.889 114.239 233.85 53.3217 174.737 37.4824C115.624 21.6431 54.821 56.8796 38.93 116.185C23.0391 175.491 58.0777 236.408 117.191 252.248Z" fill="#C7E7DC" stroke="#04162E" stroke-width="6.22484"/>
<path d="M85.8328 162.991C92.1362 183.861 109.047 200.852 131.719 206.128C154.391 211.404 177.07 203.628 191.949 187.687M93.1376 110.486C107.134 88.5874 133.776 76.7753 160.408 82.9732C187.039 89.171 205.721 111.531 208.6 137.357" stroke="#04162E" stroke-width="0.901329"/>
<path d="M120.679 239.254C172.638 253.177 226.083 222.204 240.051 170.075C254.019 117.946 223.221 64.4011 171.261 50.4785C119.301 36.556 65.8565 67.5284 51.8886 119.657C37.9207 171.786 68.7191 225.331 120.679 239.254Z" stroke="#04162E" stroke-width="1.86745"/>
<path d="M68.7495 184.253C68.6751 184.212 68.4313 184.095 68.0599 183.885C67.678 183.652 67.3809 183.484 67.1898 183.368C66.9671 183.241 66.6699 183.02 66.2667 182.745C65.8528 182.449 65.513 182.143 65.2368 181.857C64.95 181.55 64.6417 181.148 64.3016 180.681C63.9614 180.216 63.6528 179.707 63.3761 179.156C62.141 176.696 61.9019 174.317 62.6799 172.009C63.4368 169.711 64.9896 167.995 67.2961 166.827C69.6026 165.659 71.9114 165.448 74.2229 166.245C76.5342 167.043 78.3607 168.724 79.681 171.354C80.4689 172.923 81.046 174.917 81.3911 177.296L78.1551 179.465L77.9957 179.307C78.9657 177.54 79.5235 176.061 79.711 174.849C79.8988 173.636 79.7156 172.48 79.162 171.377C78.2249 169.511 76.7921 168.455 74.8847 168.197C72.977 167.94 70.8912 168.384 68.6272 169.53C67.1459 170.28 65.9193 171.113 65.0107 172.052C64.0912 172.97 63.4901 174.046 63.239 175.236C62.9666 176.438 63.1603 177.67 63.7992 178.941C64.3954 180.129 65.1391 180.923 66.0935 181.344C67.0163 181.754 68.0225 181.697 69.1229 181.139C69.8635 180.764 70.4346 180.369 70.8573 179.996C71.2589 179.633 71.7026 179.089 72.1456 178.386L72.1879 178.365L74.275 182.52L74.2326 182.541C73.3956 182.514 72.7071 182.569 72.1672 182.71C71.6062 182.861 70.9078 183.161 70.019 183.611L68.7495 184.253Z" fill="#04162E"/>
<path d="M74.0535 198.004C72.9359 196.471 72.3967 194.926 72.488 193.358C72.5791 191.792 73.4354 190.428 75.0806 189.221L81.0688 184.827C81.8724 184.237 82.4427 183.73 82.832 183.298C83.2023 182.879 83.5651 182.289 83.9348 181.547L83.973 181.519L86.6967 185.256L86.6584 185.284C85.3055 185.483 83.9761 186.076 82.6751 187.03L76.7443 191.382C73.798 193.544 73.1908 195.813 74.9228 198.189C75.8866 199.512 77.0198 200.18 78.3609 200.167C79.6688 200.148 80.9966 199.674 82.3359 198.691L87.7502 194.718C88.6111 194.087 89.2299 193.486 89.6018 192.948C89.9595 192.391 90.2682 191.606 90.5135 190.573L90.5517 190.545L92.8149 193.649L92.8461 193.773C91.7767 193.676 90.9374 193.733 90.3143 193.926C89.6771 194.098 88.9323 194.527 88.0714 195.159L82.6763 199.118C81.1457 200.241 79.642 200.756 78.1458 200.678C76.6497 200.599 75.2966 199.709 74.0535 198.004Z" fill="#04162E"/>
<path d="M96.3665 200.283L90.1009 204.098L94.1908 207.292L96.3665 200.283ZM85.2831 209.255L82.7619 207.286L82.7909 207.249C83.537 207.138 84.1897 206.955 84.7634 206.68C85.3373 206.405 86.1129 205.986 87.0717 205.409L99.335 197.931L99.7082 198.222L95.3897 212.236C94.816 214.017 94.5892 215.467 94.7435 216.582L94.7142 216.62L90.9979 213.717L91.0271 213.679C91.3698 213.586 91.7648 213.232 92.1791 212.622C92.5936 212.011 92.9588 211.271 93.2406 210.407L94.0485 207.784L89.66 204.356L88.4512 205.1C86.4865 206.278 85.4412 207.661 85.3121 209.218L85.2831 209.255Z" fill="#04162E"/>
<path d="M99.0766 219.496C99.7388 219.036 100.253 218.553 100.64 218.111C101.006 217.658 101.417 217.015 101.862 216.148L105.881 208.331C106.315 207.486 106.61 206.756 106.765 206.195C106.9 205.622 106.983 204.943 106.983 204.115L107.004 204.073L112.373 206.841C115.909 208.665 117.058 210.834 115.798 213.285C115.32 214.214 114.655 214.888 113.802 215.303C112.949 215.718 111.91 215.824 110.736 215.62L110.711 221.835C110.676 222.94 110.74 223.747 110.882 224.248C111.013 224.77 111.292 225.315 111.719 225.883L111.643 226.031L107.938 224.12L107.982 214.708L106.151 213.763L104.284 217.397C103.827 218.284 103.511 219.004 103.366 219.544C103.211 220.105 103.149 220.795 103.181 221.613L103.159 221.655L99.054 219.539L99.0766 219.496ZM111.692 207.024L111.061 206.699C110.64 206.482 110.292 206.329 110.039 206.199L106.368 213.34L108.01 214.187C110.221 215.327 111.999 214.614 113.345 211.994C113.878 210.958 114.038 210.025 113.826 209.194C113.603 208.385 112.913 207.654 111.692 207.024Z" fill="#04162E"/>
<path d="M124.969 216.012L120.352 221.721L125.279 223.342L124.969 216.012ZM117.549 228.204L114.512 227.204L114.526 227.16C115.192 226.803 115.746 226.41 116.193 225.957C116.641 225.503 117.231 224.848 117.939 223.98L126.974 212.795L127.424 212.942L128.072 227.587C128.13 229.457 128.405 230.898 128.925 231.895L128.911 231.94L124.434 230.468L124.448 230.423C124.739 230.218 124.993 229.751 125.178 229.037C125.363 228.322 125.457 227.503 125.432 226.594L125.31 223.853L120.023 222.114L119.135 223.223C117.681 224.995 117.162 226.65 117.564 228.158L117.549 228.204Z" fill="#04162E"/>
<path d="M135.923 217.847L135.501 228.006C135.446 229.073 135.499 229.908 135.681 230.536C135.862 231.163 136.275 231.898 136.895 232.76L136.893 232.808L133.25 232.628L133.253 232.581C133.861 231.802 134.3 231.11 134.52 230.503C134.741 229.895 134.879 229.045 134.934 227.977L135.406 218.677C135.374 217.914 135.239 217.29 135.026 216.827C134.787 216.387 134.363 215.866 133.728 215.288L133.731 215.24L137.516 215.428L146.742 229.419L147.117 220.636C147.171 219.593 147.095 218.756 146.937 218.13C146.778 217.504 146.437 216.749 145.912 215.891L145.914 215.843L149.321 216.012L149.319 216.06C148.684 216.884 148.269 217.577 148.049 218.185C147.828 218.792 147.691 219.618 147.638 220.662L146.995 233.308L146.14 233.337L135.923 217.847Z" fill="#04162E"/>
<path d="M164.629 231.276L160.08 232.086L160.071 232.04C160.322 231.272 160.44 230.575 160.482 229.989C160.5 229.407 160.439 228.646 160.271 227.687L158.079 215.197L155.552 215.744C155.253 215.821 154.921 216.121 154.536 216.672C154.152 217.223 153.842 217.785 153.574 218.315C153.287 218.872 152.973 219.555 152.607 220.344C152.504 220.58 152.411 220.741 152.382 220.842L152.182 220.806L152.223 215.83L166.478 213.292L168.21 217.953L168.035 218.056C167.84 217.898 167.517 217.57 167.077 217.117C166.614 216.669 166.264 216.321 165.977 216.059C165.695 215.819 165.38 215.538 165.011 215.218C164.643 214.897 164.317 214.69 164.052 214.545C163.761 214.403 163.512 214.35 163.321 214.361L160.762 214.72L162.953 227.209C163.126 228.192 163.308 228.955 163.519 229.473C163.734 230.013 164.101 230.599 164.621 231.23L164.629 231.276Z" fill="#04162E"/>
<path d="M189.357 223.465L178.132 228.087L178.113 228.043C178.146 226.49 177.937 225.165 177.471 224.022L173.938 215.365C173.661 214.684 173.352 214.118 173.006 213.644C172.668 213.193 172.198 212.668 171.586 212.047L171.568 212.003L181.697 207.833L184.149 211.392L184 211.53C183.793 211.462 183.219 211.184 182.3 210.69C181.369 210.227 180.64 209.885 180.102 209.696C179.564 209.507 179.164 209.466 178.869 209.562L175.101 210.934L178.131 218.361L180.018 217.584C180.258 217.485 180.485 217.289 180.699 216.995C180.89 216.712 181.06 216.436 181.155 216.167C181.259 215.918 181.37 215.565 181.489 215.105C181.609 214.645 181.717 214.344 181.795 214.158L181.992 214.076L184.018 219.042L183.821 219.123C183.706 219.094 183.441 218.946 182.991 218.721C182.541 218.496 182.214 218.323 181.988 218.21C181.742 218.106 181.45 218.021 181.094 217.963C180.737 217.904 180.438 217.924 180.197 218.023L178.311 218.8L181.395 226.359L185.236 224.598C185.783 224.373 186.277 223.886 186.724 223.164C187.15 222.45 187.488 221.771 187.685 221.125C187.883 220.48 188.123 219.687 188.344 218.724L188.547 218.718L189.357 223.465Z" fill="#04162E"/>
<path d="M205.278 212.281L195.433 219.4L195.405 219.362C195.076 217.845 194.565 216.605 193.845 215.603L188.395 208.015C187.966 207.418 187.534 206.939 187.087 206.561C186.654 206.201 186.074 205.801 185.335 205.341L185.307 205.302L194.19 198.878L197.403 201.764L197.29 201.933C197.073 201.915 196.45 201.78 195.441 201.515C194.427 201.282 193.639 201.12 193.071 201.063C192.504 201.005 192.105 201.059 191.841 201.221L188.495 203.436L193.171 209.945L194.824 208.749C195.035 208.597 195.211 208.353 195.35 208.018C195.471 207.697 195.571 207.391 195.601 207.105C195.644 206.84 195.67 206.47 195.679 205.995C195.689 205.52 195.724 205.202 195.756 205.003L195.929 204.879L199.056 209.231L198.883 209.356C198.764 209.354 198.472 209.272 197.982 209.159C197.491 209.045 197.132 208.953 196.887 208.896C196.623 208.854 196.32 208.839 195.959 208.866C195.599 208.892 195.313 208.982 195.101 209.135L193.447 210.331L198.207 216.957L201.532 214.346C202.012 213.999 202.38 213.411 202.647 212.603C202.895 211.81 203.066 211.072 203.107 210.398C203.149 209.724 203.199 208.898 203.19 207.909L203.385 207.856L205.278 212.281Z" fill="#04162E"/>
<path d="M77.7149 96.1347L77.622 96.3463C75.8127 95.8175 74.3783 95.5969 73.3207 95.7185C72.2468 95.858 71.4077 96.2442 70.7888 96.929C70.235 97.5418 69.9928 98.2069 70.0419 98.8758C70.0751 99.562 70.4128 100.164 71.0228 100.718C71.3457 101.012 71.6994 101.235 72.1005 101.37C72.5016 101.504 72.8831 101.588 73.2089 101.589C73.5366 101.624 73.9619 101.552 74.4702 101.423C74.9787 101.294 75.3845 101.171 75.6876 101.052C75.9905 100.935 76.4451 100.757 77.0333 100.504C77.6738 100.265 78.1787 100.068 78.5665 99.9284C78.9382 99.8059 79.4286 99.661 80.0234 99.5456C80.6182 99.4294 81.1478 99.386 81.5782 99.4159C82.0264 99.4625 82.5301 99.5919 83.0549 99.8068C83.5978 100.038 84.1278 100.355 84.5943 100.778C85.8679 101.936 86.4114 103.251 86.2593 104.72C86.0908 106.208 85.386 107.602 84.1483 108.971C83.0408 110.197 81.7003 111.21 80.0938 112.047L76.4494 109.391L76.5258 109.198C78.4363 109.687 80.0043 109.833 81.2477 109.65C82.5092 109.483 83.4964 108.97 84.2456 108.141C84.9458 107.366 85.2501 106.559 85.1744 105.704C85.0827 104.865 84.686 104.111 83.9866 103.475C83.215 102.775 82.3593 102.456 81.4171 102.486C80.4931 102.532 79.4079 102.793 78.1793 103.285C77.658 103.5 77.288 103.656 77.0518 103.736C76.8172 103.852 76.4619 103.955 75.9715 104.1C75.499 104.261 75.1095 104.367 74.8195 104.399C74.5474 104.446 74.1887 104.482 73.7781 104.502C73.3511 104.541 72.9893 104.507 72.6762 104.42C72.3633 104.332 72.0307 104.195 71.6787 104.005C71.3102 103.835 70.9546 103.577 70.6318 103.284C69.4836 102.241 68.9808 101.062 69.1234 99.7471C69.2839 98.4491 69.8925 97.1976 70.9675 96.0081C71.8632 95.0172 72.922 94.2075 74.1421 93.5448L77.7149 96.1347Z" fill="#04162E"/>
<path d="M84.5186 85.5998L87.639 92.4255L91.3613 88.6275L84.5186 85.5998ZM92.291 97.9308L89.9964 100.272L89.9619 100.238C89.9387 99.465 89.8305 98.7787 89.62 98.1624C89.4098 97.5453 89.0775 96.7071 88.6068 95.6633L82.4882 82.3032L82.8281 81.9563L96.5133 87.9768C98.2499 88.7677 99.6923 89.1663 100.84 89.1382L100.874 89.1723L97.4922 92.6233L97.4576 92.5892C97.4034 92.2289 97.0913 91.7858 96.5223 91.2923C95.953 90.7995 95.2469 90.3427 94.4043 89.9556L91.8426 88.8291L87.8485 92.9042L88.4584 94.2218C89.4176 96.3597 90.695 97.5846 92.2565 97.8968L92.291 97.9308Z" fill="#04162E"/>
<path d="M112.253 83.4098L108.535 86.3402L108.505 86.302C108.362 85.4888 108.134 84.8039 107.889 84.2556C107.626 83.7222 107.204 83.0662 106.591 82.2834L98.6054 72.0881L96.5873 73.8025C96.3545 74.0169 96.199 74.4483 96.1168 75.1307C96.0346 75.8131 96.0247 76.4695 96.0377 77.0767C96.0468 77.7181 96.0925 78.4851 96.1408 79.3734C96.161 79.6354 96.1554 79.8251 96.1771 79.9315L95.9798 79.9945L93.6235 75.4904L105.271 66.3085L109.076 69.6704L108.968 69.848C108.715 69.8005 108.266 69.6603 107.651 69.4656C107.017 69.2861 106.534 69.1418 106.149 69.0439C105.779 68.965 105.36 68.8631 104.873 68.753C104.386 68.6428 103.993 68.6132 103.683 68.6107C103.353 68.6233 103.103 68.6971 102.935 68.7983L100.798 70.3599L108.783 80.5552C109.411 81.3571 109.943 81.9571 110.382 82.3211C110.836 82.7042 111.45 83.0543 112.223 83.3717L112.253 83.4098Z" fill="#04162E"/>
<path d="M121.31 79.0128C121.382 78.1898 121.37 77.4815 121.253 76.8976C121.146 76.3362 120.899 75.5705 120.499 74.6326L116.98 66.37C116.581 65.4322 116.209 64.7463 115.87 64.2582C115.539 63.7925 115.038 63.2948 114.386 62.7557L114.367 62.7111L118.713 60.8441L118.732 60.8888C118.648 61.7438 118.659 62.4521 118.767 63.0136C118.883 63.5974 119.143 64.3311 119.543 65.269L123.062 73.5316C123.461 74.4695 123.82 75.1873 124.15 75.653C124.489 76.141 124.991 76.6387 125.655 77.1459L125.675 77.1905L121.329 79.0574L121.31 79.0128Z" fill="#04162E"/>
<path d="M139.558 60.9393L139.352 61.0425C138.298 59.4773 137.335 58.3891 136.444 57.8062C135.529 57.2267 134.639 56.9875 133.727 57.1192C132.912 57.2372 132.302 57.5953 131.914 58.1421C131.503 58.6925 131.379 59.373 131.496 60.1906C131.557 60.6235 131.688 61.022 131.91 61.3823C132.132 61.7428 132.373 62.052 132.622 62.2611C132.852 62.4978 133.225 62.7139 133.698 62.94C134.171 63.1662 134.562 63.3307 134.87 63.4334C135.178 63.5359 135.64 63.6899 136.254 63.8713C136.898 64.0972 137.412 64.2683 137.799 64.4085C138.162 64.5525 138.632 64.7547 139.163 65.046C139.694 65.3374 140.129 65.6426 140.44 65.941C140.755 66.2636 141.06 66.6858 141.328 67.1872C141.598 67.7125 141.804 68.2964 141.892 68.9216C142.135 70.6292 141.717 71.9903 140.664 73.026C139.588 74.0652 138.159 74.6891 136.336 74.9526C134.705 75.1884 133.03 75.1116 131.262 74.7293L130.149 70.3495L130.331 70.2497C131.488 71.8493 132.602 72.9646 133.674 73.6194C134.75 74.2984 135.836 74.5341 136.94 74.3745C137.971 74.2254 138.718 73.7983 139.205 73.0898C139.668 72.3848 139.843 71.5496 139.71 70.6118C139.562 69.5777 139.107 68.7845 138.363 68.2048C137.623 67.6491 136.623 67.1557 135.365 66.7484C134.828 66.5808 134.444 66.4645 134.211 66.3754C133.957 66.3139 133.619 66.1667 133.149 65.9645C132.683 65.7865 132.316 65.6187 132.073 65.4574C131.834 65.3203 131.535 65.1179 131.206 64.871C130.854 64.6276 130.597 64.3702 130.412 64.1024C130.227 63.8347 130.059 63.5152 129.908 63.1443C129.733 62.7769 129.624 62.351 129.562 61.9181C129.343 60.379 129.707 59.1485 130.653 58.2263C131.603 57.3282 132.867 56.7528 134.45 56.5238C135.769 56.333 137.099 56.3863 138.459 56.6558L139.558 60.9393Z" fill="#04162E"/>
<path d="M153.136 74.161L148.445 73.6005L148.451 73.5522C148.923 72.8744 149.245 72.2277 149.46 71.666C149.649 71.1012 149.815 70.3378 149.933 69.3485L151.008 60.4218C151.124 59.4567 151.148 58.6519 151.098 58.0586C151.024 57.4624 150.861 56.7821 150.566 55.9881L150.572 55.9401L162.407 57.3541L162.828 61.7607L162.605 61.783C162.394 61.5131 162.019 60.9788 161.484 60.1562C160.946 59.3577 160.486 58.7152 160.081 58.2264C159.674 57.7617 159.315 57.4986 159.002 57.4611L154.26 56.7232L153.301 64.685L155.851 64.9896C156.115 65.0213 156.416 64.9592 156.752 64.8036C157.063 64.645 157.351 64.4836 157.57 64.2896C157.785 64.1194 158.061 63.8588 158.396 63.5072C158.731 63.1557 158.977 62.9403 159.139 62.8128L159.355 62.8387L158.698 68.2911L158.482 68.2652C158.394 68.1814 158.231 67.9172 157.941 67.4909C157.651 67.0647 157.445 66.7465 157.299 66.5332C157.13 66.3173 156.914 66.0956 156.624 65.8652C156.334 65.6347 156.057 65.5037 155.792 65.4721L153.243 65.1675L152.7 69.6791C152.578 70.6924 152.53 71.4944 152.584 72.0637C152.634 72.6571 152.82 73.3401 153.142 74.1128L153.136 74.161Z" fill="#04162E"/>
<path d="M172.978 63.7324L168.105 69.4476L173.1 71.236L172.978 63.7324ZM165.068 76.0007L161.989 74.8982L162.006 74.8526C162.695 74.5058 163.271 74.1183 163.742 73.6672C164.211 73.2159 164.832 72.5604 165.58 71.6924L175.113 60.4958L175.569 60.6591L175.843 75.6514C175.854 77.5652 176.096 79.0459 176.601 80.0786L176.585 80.1244L172.047 78.4995L172.063 78.4537C172.366 78.2525 172.637 77.7817 172.845 77.0559C173.053 76.3302 173.172 75.4951 173.171 74.5652L173.118 71.7589L167.759 69.8399L166.822 70.95C165.288 72.7238 164.713 74.4023 165.085 75.9549L165.068 76.0007Z" fill="#04162E"/>
<path d="M191.943 88.7243C191.478 88.733 190.584 88.5026 189.264 88.0335C187.943 87.5643 186.717 86.8923 185.605 86.0322C183.42 84.3416 182.209 82.2994 181.949 79.8563C181.674 77.4325 182.352 75.162 183.966 73.0639C185.552 71.0046 187.595 69.8211 190.149 69.5239C192.668 69.231 195.038 69.9277 197.261 71.6479C198.929 72.9381 200.302 74.4916 201.381 76.3088L199.334 79.7619L199.136 79.701C199.22 77.5248 199.095 75.861 198.781 74.7586C198.467 73.6562 197.789 72.6705 196.715 71.84C195.029 70.535 193.274 70.1914 191.506 70.8196C189.723 71.467 188.031 72.8302 186.401 74.9473C184.771 77.0645 183.885 79.0504 183.712 80.9436C183.539 82.8367 184.272 84.3868 185.902 85.6473C187.166 86.626 188.497 87.0418 189.934 86.9245C191.351 86.7922 193.011 86.2646 194.93 85.3226L195.039 85.499L191.943 88.7243Z" fill="#04162E"/>
<path d="M199.267 100.475L196.351 96.7518L196.389 96.7217C197.201 96.5763 197.884 96.3465 198.431 96.1005C198.963 95.8352 199.618 95.4116 200.4 94.7954L210.579 86.7707L208.874 84.7499C208.66 84.5166 208.23 84.3614 207.55 84.2801C206.869 84.1989 206.215 84.1899 205.609 84.204C204.97 84.2141 204.205 84.2612 203.319 84.3111C203.058 84.3318 202.868 84.3264 202.762 84.3483L202.699 84.1505L207.195 81.7803L216.332 93.4459L212.974 97.267L212.796 97.1593C212.844 96.9055 212.985 96.455 213.18 95.8379C213.36 95.2018 213.505 94.7173 213.603 94.331C213.682 93.9598 213.785 93.5394 213.896 93.0508C214.006 92.5621 214.036 92.1677 214.039 91.8565C214.027 91.5263 213.953 91.2752 213.853 91.1076L212.299 88.9663L202.12 96.9912C201.319 97.6223 200.72 98.1565 200.356 98.5974C199.974 99.0536 199.623 99.6693 199.305 100.445L199.267 100.475Z" fill="#04162E"/>
<path d="M204.205 107.153C205.029 107.152 205.731 107.077 206.301 106.909C206.85 106.753 207.59 106.439 208.487 105.957L216.398 101.714C217.296 101.232 217.946 100.801 218.402 100.419C218.837 100.048 219.288 99.5029 219.768 98.8046L219.811 98.7817L222.035 102.959L221.992 102.982C221.135 102.973 220.432 103.047 219.884 103.204C219.314 103.372 218.607 103.696 217.709 104.177L209.798 108.42C208.901 108.902 208.218 109.323 207.784 109.694C207.327 110.076 206.875 110.622 206.427 111.33L206.385 111.353L204.162 107.176L204.205 107.153Z" fill="#04162E"/>
<path d="M211.246 121.947C210.531 119.703 210.744 117.416 211.908 115.077C213.071 112.739 214.846 111.199 217.246 110.426C219.623 109.661 221.958 109.879 224.279 111.096C226.6 112.313 228.119 114.043 228.834 116.287C229.29 117.721 229.348 119.259 228.99 120.853C228.633 122.447 227.918 123.877 226.828 125.17C225.709 126.449 224.371 127.364 222.802 127.869C221.21 128.382 219.593 128.418 217.965 128.023C216.331 127.605 214.923 126.86 213.734 125.763C212.522 124.674 211.703 123.381 211.246 121.947ZM211.708 121.798C212.319 123.719 213.522 124.939 215.355 125.419C217.165 125.908 219.327 125.748 221.867 124.931C224.359 124.129 226.228 122.966 227.442 121.505C228.655 120.043 228.976 118.333 228.372 116.436C227.76 114.516 226.519 113.334 224.686 112.853C222.853 112.371 220.674 112.562 218.182 113.364C215.689 114.166 213.828 115.275 212.614 116.737C211.401 118.199 211.096 119.878 211.708 121.798Z" fill="#04162E"/>
<path d="M230.714 133.302L220.505 135.141C219.43 135.324 218.609 135.562 218.024 135.884C217.44 136.206 216.799 136.783 216.075 137.596L216.027 137.604L215.408 133.915L215.456 133.907C216.365 134.343 217.15 134.629 217.803 134.715C218.457 134.8 219.333 134.749 220.408 134.566L229.774 132.969C230.526 132.767 231.119 132.494 231.533 132.176C231.919 131.84 232.344 131.299 232.781 130.535L232.829 130.527L233.472 134.359L221.564 146.713L230.392 145.134C231.443 144.955 232.259 144.692 232.848 144.395C233.437 144.098 234.114 143.588 234.853 142.871L234.9 142.862L235.48 146.312L235.432 146.32C234.472 145.868 233.691 145.606 233.037 145.521C232.384 145.435 231.532 145.482 230.48 145.662L217.746 147.832L217.529 146.982L230.714 133.302Z" fill="#04162E"/>
<path d="M84.4141 152.914L84.4409 152.814C85.1145 152.283 85.6877 151.797 86.1605 151.355C86.6422 150.88 87.0411 150.383 87.3576 149.863C87.7071 149.352 88.0037 148.774 88.2476 148.128C88.4916 147.482 88.7335 146.712 88.9733 145.817L94.5858 124.87L90.2217 123.701L90.3551 123.203C92.6627 122.79 94.899 122.181 97.0639 121.375C99.229 120.568 101.348 119.536 103.421 118.279L104.017 118.438L96.1642 147.743C95.9244 148.638 95.7486 149.427 95.6368 150.108C95.5252 150.789 95.4766 151.434 95.4908 152.042C95.5379 152.659 95.6515 153.294 95.8309 153.946C96.0194 154.565 96.2727 155.273 96.5909 156.069L96.5642 156.169L84.4141 152.914ZM114.925 161.888C112.809 161.321 110.937 160.305 109.31 158.838C107.716 157.379 106.452 155.619 105.517 153.555C104.591 151.459 104.021 149.155 103.808 146.645C103.636 144.111 103.91 141.5 104.63 138.813C105.359 136.093 106.427 133.696 107.834 131.619C109.249 129.51 110.878 127.796 112.719 126.476C114.562 125.157 116.537 124.264 118.646 123.798C120.788 123.341 122.934 123.4 125.083 123.976C127.232 124.552 129.12 125.574 130.747 127.041C132.374 128.507 133.671 130.277 134.639 132.349C135.607 134.422 136.178 136.726 136.349 139.26C136.563 141.77 136.305 144.385 135.576 147.105C134.856 149.791 133.772 152.185 132.323 154.285C130.883 156.353 129.221 158.059 127.338 159.402C125.495 160.722 123.487 161.605 121.312 162.053C119.169 162.511 117.04 162.455 114.925 161.888ZM115.205 160.844C116.659 161.233 118.002 161.114 119.234 160.484C120.508 159.829 121.656 158.786 122.678 157.354C123.732 155.93 124.685 154.159 125.536 152.04C126.387 149.922 127.155 147.586 127.84 145.032C128.533 142.445 129.04 140.021 129.362 137.761C129.684 135.501 129.744 133.491 129.543 131.731C129.375 129.979 128.914 128.522 128.163 127.361C127.411 126.2 126.291 125.419 124.803 125.021C123.348 124.631 122.005 124.751 120.773 125.381C119.574 126.02 118.464 127.055 117.443 128.488C116.421 129.921 115.484 131.696 114.633 133.815C113.816 135.941 113.06 138.299 112.367 140.886C111.682 143.44 111.163 145.843 110.807 148.094C110.485 150.354 110.409 152.36 110.577 154.112C110.745 155.863 111.185 157.331 111.895 158.517C112.646 159.679 113.75 160.454 115.205 160.844ZM148.367 170.849C146.25 170.282 144.379 169.265 142.752 167.798C141.159 166.34 139.894 164.58 138.959 162.516C138.032 160.42 137.463 158.116 137.249 155.605C137.078 153.071 137.352 150.46 138.072 147.774C138.801 145.054 139.869 142.656 141.275 140.58C142.691 138.471 144.32 136.756 146.161 135.437C148.003 134.117 149.979 133.224 152.088 132.759C154.231 132.302 156.376 132.361 158.525 132.937C160.674 133.513 162.562 134.534 164.188 136.001C165.815 137.468 167.113 139.238 168.081 141.31C169.05 143.383 169.62 145.686 169.791 148.22C170.004 150.731 169.746 153.346 169.018 156.066C168.298 158.752 167.214 161.146 165.765 163.246C164.325 165.314 162.663 167.019 160.779 168.363C158.937 169.682 156.929 170.566 154.753 171.014C152.611 171.471 150.482 171.416 148.367 170.849ZM148.647 169.804C150.101 170.194 151.444 170.075 152.676 169.445C153.95 168.79 155.098 167.747 156.119 166.315C157.174 164.891 158.127 163.119 158.978 161.001C159.829 158.883 160.597 156.547 161.281 153.993C161.975 151.405 162.482 148.982 162.804 146.722C163.126 144.462 163.187 142.452 162.985 140.692C162.817 138.94 162.356 137.483 161.604 136.322C160.853 135.16 159.733 134.38 158.245 133.981C156.79 133.592 155.447 133.712 154.215 134.342C153.016 134.98 151.906 136.016 150.884 137.449C149.863 138.881 148.926 140.657 148.075 142.775C147.258 144.902 146.502 147.259 145.808 149.847C145.124 152.401 144.604 154.804 144.249 157.054C143.927 159.315 143.85 161.32 144.019 163.072C144.187 164.823 144.626 166.292 145.336 167.478C146.088 168.639 147.191 169.414 148.647 169.804ZM179.132 159.842C176.851 159.231 175.121 157.755 174.054 155.389C172.924 153.06 172.771 150.459 173.53 147.623C174.29 144.787 175.724 142.611 177.817 141.146C179.911 139.68 182.147 139.266 184.478 139.891C186.76 140.502 188.476 142.029 189.656 144.372C190.835 146.714 191.039 149.328 190.292 152.114C189.546 154.9 188.063 157.063 185.856 158.551C183.65 160.04 181.414 160.454 179.132 159.842ZM179.332 159.096C181.861 159.774 183.977 157.034 185.63 150.865C187.27 144.745 186.807 141.315 184.278 140.637C182.89 140.265 181.734 140.809 180.812 142.269C179.839 143.714 178.979 145.936 178.192 148.872C177.392 151.857 177.026 154.212 177.146 155.951C177.214 157.676 177.944 158.724 179.332 159.096ZM193.208 182.491C190.927 181.88 189.197 180.404 188.13 178.038C187 175.709 186.847 173.108 187.607 170.272C188.366 167.436 189.8 165.26 191.893 163.795C193.987 162.33 196.223 161.915 198.554 162.54C200.836 163.151 202.552 164.678 203.732 167.021C204.912 169.363 205.115 171.977 204.368 174.763C203.622 177.549 202.139 179.712 199.933 181.201C197.726 182.689 195.49 183.103 193.208 182.491ZM193.408 181.745C195.937 182.423 198.053 179.683 199.707 173.514C201.346 167.394 200.883 163.964 198.354 163.287C196.966 162.915 195.81 163.458 194.888 164.917C193.915 166.363 193.055 168.585 192.268 171.521C191.468 174.506 191.103 176.861 191.222 178.6C191.291 180.324 192.02 181.373 193.408 181.745ZM171.248 175.381L206.742 146.07L207.474 146.906L171.905 176.303L171.248 175.381Z" fill="#04162E"/>
</g>
<defs>
<clipPath id="clip0_38188_3444">
<rect width="236.848" height="236.848" fill="white" transform="translate(62.1992 -0.00195312) rotate(15)"/>
</clipPath>
</defs>
</svg>
