<svg width="36" height="35" viewBox="0 0 36 35" fill="none" xmlns="http://www.w3.org/2000/svg">
<g opacity="0.8">
<path d="M24.856 17.4219C24.856 21.4777 24.0716 25.1129 22.8368 27.706C21.5753 30.3551 19.9792 31.6719 18.4632 31.6719C16.9472 31.6719 15.351 30.3551 14.0896 27.706C12.8547 25.1129 12.0703 21.4777 12.0703 17.4219C12.0703 13.366 12.8547 9.73088 14.0896 7.13772C15.351 4.48864 16.9472 3.17188 18.4632 3.17188C19.9792 3.17188 21.5753 4.48864 22.8368 7.13772C24.0716 9.73088 24.856 13.366 24.856 17.4219Z" stroke="black" stroke-width="1.5"/>
<path d="M15.2652 22.9581C11.7527 20.9302 8.9968 18.4333 7.36848 16.0673C5.70504 13.6503 5.36277 11.6096 6.12077 10.2967C6.87877 8.98384 8.81719 8.25992 11.7421 8.49199C14.6053 8.71917 18.1456 9.85742 21.6581 11.8854C25.1705 13.9133 27.9265 16.4102 29.5548 18.7761C31.2182 21.1932 31.5605 23.2338 30.8025 24.5467C30.0445 25.8596 28.1061 26.5836 25.1812 26.3515C22.318 26.1243 18.7777 24.986 15.2652 22.9581Z" stroke="black" stroke-width="1.5"/>
<path d="M15.2655 11.8856C18.778 9.85771 22.3183 8.71945 25.1815 8.49228C28.1064 8.2602 30.0448 8.98412 30.8028 10.297C31.5608 11.6099 31.2185 13.6506 29.5551 16.0676C27.9267 18.4336 25.1708 20.9305 21.6584 22.9584C18.1459 24.9863 14.6056 26.1246 11.7424 26.3518C8.81748 26.5838 6.87906 25.8599 6.12106 24.547C5.36306 23.2341 5.70533 21.1934 7.36878 18.7764C8.9971 16.4104 11.753 13.9136 15.2655 11.8856Z" stroke="black" stroke-width="1.5"/>
</g>
</svg>
