<svg width="31" height="35" viewBox="0 0 31 35" fill="none" xmlns="http://www.w3.org/2000/svg">
<g clip-path="url(#clip0_36730_1675)">
<path d="M18.4909 9.65005C18.2314 9.91486 18.086 10.2709 18.086 10.6417C18.086 11.0125 18.2314 11.3686 18.4909 11.6334L20.7576 13.9C21.0224 14.1596 21.3784 14.305 21.7493 14.305C22.1201 14.305 22.4761 14.1596 22.7409 13.9L28.0818 8.55922C28.7941 10.1334 29.0098 11.8873 28.7001 13.5872C28.3904 15.287 27.5699 16.8522 26.3482 18.0739C25.1264 19.2957 23.5613 20.1161 21.8614 20.4259C20.1615 20.7356 18.4076 20.5199 16.8334 19.8075L7.04427 29.5967C6.48068 30.1603 5.7163 30.4769 4.91927 30.4769C4.12224 30.4769 3.35785 30.1603 2.79427 29.5967C2.23068 29.0331 1.91406 28.2687 1.91406 27.4717C1.91406 26.6747 2.23068 25.9103 2.79427 25.3467L12.5834 15.5575C11.8711 13.9834 11.6554 12.2295 11.9651 10.5296C12.2748 8.82972 13.0953 7.2646 14.317 6.04282C15.5388 4.82104 17.1039 4.00062 18.8038 3.6909C20.5037 3.38118 22.2576 3.59687 23.8318 4.30922L18.5051 9.63588L18.4909 9.65005Z" stroke="black" stroke-width="2" stroke-linecap="round" stroke-linejoin="round"/>
</g>
<defs>
<clipPath id="clip0_36730_1675">
<rect width="30" height="34" fill="white" transform="translate(0.22168 0.271973)"/>
</clipPath>
</defs>
</svg>
