<svg width="48" height="48" viewBox="0 0 48 48" fill="none" xmlns="http://www.w3.org/2000/svg">
<path d="M33.7101 40.2969L33.5701 40.4462L33.3914 40.6065C32.5294 41.3801 31.4083 41.8611 30.1666 41.9009L29.9395 41.9081L29.7243 41.8965C28.5012 41.8303 27.3979 41.3318 26.5584 40.5497L26.4253 40.4257L26.2485 40.2305C25.4846 39.3871 25.0031 38.2833 24.9457 37.0677L24.9337 36.814L24.941 36.6308C24.9896 35.4112 25.4664 34.3036 26.2299 33.4562L26.3957 33.2723L26.5401 33.1369C27.3846 32.3455 28.4924 31.8428 29.7194 31.7766L29.925 31.7655L30.1636 31.7722C31.4086 31.8076 32.5379 32.2927 33.399 33.0743L33.5661 33.226L33.7189 33.3898C34.5176 34.2458 35.0169 35.3803 35.07 36.632L35.0797 36.8602L35.0701 37.0683C35.0126 38.3148 34.5091 39.4449 33.7101 40.2969ZM35.7832 31.0143L35.7089 30.8937C35.5302 30.6036 35.5684 30.2239 35.8115 29.9808C36.1015 29.6907 36.5663 29.6907 36.8564 29.9808C37.1464 30.2708 37.1464 30.7356 36.8563 31.0257L36.8544 31.0276C36.602 31.2829 36.2017 31.3114 35.9075 31.1026L35.7832 31.0143ZM29.9683 28.6283L29.8158 28.5894C29.4979 28.5085 29.2655 28.2232 29.2655 27.8801C29.2655 27.472 29.5949 27.1426 30.003 27.1426C30.4112 27.1426 30.7406 27.472 30.7406 27.8801C30.7406 28.2507 30.469 28.5556 30.1059 28.6083L29.9683 28.6283ZM24.1699 31.0665L24.0476 31.1401C23.7642 31.3108 23.3912 31.272 23.1497 31.0305C22.8597 30.7405 22.8597 30.2757 23.1497 29.9856C23.4398 29.6956 23.9046 29.6956 24.1946 29.9856C24.4523 30.2433 24.478 30.6502 24.2627 30.941L24.1699 31.0665ZM35.7803 42.6673L35.9058 42.5744C36.1967 42.3592 36.6035 42.3849 36.8612 42.6425C37.1513 42.9326 37.1513 43.3974 36.8612 43.6874C36.5712 43.9775 36.1064 43.9775 35.8163 43.6874L35.8142 43.6853C35.5728 43.4467 35.5344 43.0758 35.7067 42.7895L35.7803 42.6673ZM21.8004 36.8613L21.7736 36.986C21.7001 37.327 21.4021 37.5765 21.0491 37.5765C20.6409 37.5765 20.3115 37.2471 20.3115 36.839C20.3115 36.4308 20.6409 36.1014 21.0491 36.1014C21.4045 36.1014 21.7071 36.361 21.7708 36.7025L21.8004 36.8613ZM24.1874 42.6146L24.2777 42.7405C24.4831 43.0269 24.459 43.4279 24.1995 43.6874C23.9094 43.9775 23.4446 43.9775 23.1546 43.6874C22.8649 43.3977 22.8645 42.9337 23.1536 42.6436C23.4039 42.3971 23.7838 42.3634 24.0655 42.5388L24.1874 42.6146ZM29.9702 45.0442L30.1102 45.0647C30.4706 45.1174 30.7454 45.424 30.7454 45.7929C30.7454 46.2011 30.416 46.5305 30.0079 46.5305C29.5998 46.5305 29.2704 46.2011 29.2704 45.7929C29.2704 45.4529 29.5002 45.1681 29.8248 45.0826L29.9702 45.0442ZM38.2133 36.8462L38.2401 36.7025C38.304 36.3598 38.6028 36.1014 38.9619 36.1014H38.9667C39.3749 36.1014 39.7043 36.4308 39.7043 36.839C39.7043 37.2471 39.3749 37.5765 38.9667 37.5765C38.6106 37.5765 38.3123 37.3245 38.2431 36.99L38.2133 36.8462Z" stroke="black"/>
<path d="M40.7778 24.4669L40.6845 24.4859L40.5717 24.4988C40.0323 24.5605 39.4743 24.4401 38.9891 24.1185L38.9 24.0594L38.8211 23.9967C38.3722 23.6398 38.0863 23.1509 37.9778 22.6244L37.9609 22.5425L37.946 22.4177C37.883 21.8887 37.9984 21.3368 38.3064 20.8566L38.3714 20.7551L38.4228 20.6886C38.7723 20.2358 39.2542 19.9426 39.7752 19.8261L39.8899 19.8005L39.981 19.7881C40.5187 19.7148 41.0774 19.8233 41.5635 20.1305L41.6449 20.182L41.7353 20.2501C42.201 20.6011 42.5002 21.0918 42.6171 21.6237L42.6399 21.7276L42.6539 21.8322C42.7267 22.3751 42.61 22.9434 42.2903 23.4366L42.232 23.5265L42.1724 23.6028C41.8121 24.0636 41.3137 24.3583 40.7778 24.4669ZM44.7169 21.384L44.7185 21.3602C44.7229 21.2926 44.7728 21.2397 44.8335 21.2294L44.7499 20.7364L44.8335 21.2294C44.9105 21.2164 44.9811 21.2666 44.9942 21.3436L45.4872 21.26L44.9942 21.3436C45.0072 21.4205 44.957 21.4912 44.88 21.5043L44.8773 21.5048C44.8165 21.5154 44.7506 21.4806 44.7266 21.4119L44.7169 21.384ZM42.8915 18.4822L42.8702 18.457C42.8304 18.4101 42.8265 18.3427 42.8634 18.2908C42.908 18.228 42.994 18.2134 43.0568 18.258C43.1197 18.3026 43.1342 18.3886 43.0896 18.4514C43.0505 18.5066 42.9771 18.526 42.9125 18.4929L42.8915 18.4822ZM39.54 17.7239L39.5144 17.722C39.4524 17.7173 39.4001 17.67 39.3896 17.6083C39.3766 17.5314 39.4268 17.4607 39.5038 17.4476L39.4202 16.9546L39.5038 17.4476C39.5808 17.4346 39.6515 17.4848 39.6645 17.5618C39.6755 17.6264 39.6372 17.6921 39.5709 17.7138L39.54 17.7239ZM41.0414 26.5612L41.074 26.5605C41.1437 26.5592 41.2014 26.6086 41.2124 26.6732C41.2254 26.7502 41.1753 26.8209 41.0983 26.834C41.0213 26.847 40.9506 26.7968 40.9375 26.7198L40.937 26.7169C40.9269 26.659 40.9578 26.5976 41.0179 26.5714L41.0414 26.5612ZM36.6416 19.5536L36.6289 19.5652C36.5772 19.6125 36.5033 19.6155 36.451 19.5784C36.3882 19.5338 36.3736 19.4478 36.4182 19.385C36.4628 19.3222 36.5488 19.3076 36.6116 19.3522C36.664 19.3893 36.6837 19.4625 36.6562 19.522L36.6416 19.5536ZM35.8843 22.8828L35.8844 22.9147C35.8847 22.9811 35.8372 23.0388 35.77 23.0501L35.8536 23.5431L35.77 23.0501C35.693 23.0632 35.6223 23.013 35.6093 22.936L35.1163 23.0195L35.6093 22.936C35.5963 22.8595 35.6458 22.7892 35.722 22.7755C35.7885 22.7653 35.8507 22.8026 35.8742 22.8587L35.8843 22.8828ZM37.702 25.7932L37.719 25.8095C37.7713 25.8594 37.7768 25.937 37.7386 25.9908C37.694 26.0536 37.608 26.0682 37.5452 26.0236C37.4824 25.979 37.4678 25.893 37.5124 25.8302C37.5475 25.7808 37.6114 25.7592 37.6756 25.7833L37.702 25.7932ZM43.9545 24.7385L43.9746 24.7191C44.0225 24.6727 44.0962 24.6673 44.1496 24.7052L44.1516 24.7067C44.2144 24.7513 44.229 24.8373 44.1844 24.9001C44.1398 24.9629 44.0538 24.9775 43.991 24.9329C43.9361 24.894 43.9177 24.8223 43.9432 24.7643L43.9545 24.7385Z" stroke="black"/>
<path d="M11.5985 17.4294L11.584 17.5653C11.5204 17.8426 11.365 18.0908 11.1349 18.2711L11.1349 18.271L11.1281 18.2766C10.8993 18.4625 10.616 18.5519 10.3324 18.5519C9.9451 18.5519 9.57392 18.3899 9.31828 18.0694C9.10366 17.7948 9.00895 17.4665 9.04589 17.1179C9.08255 16.782 9.24973 16.477 9.5197 16.2654C9.79313 16.0511 10.1201 15.9559 10.4673 15.9914C10.8093 16.0375 11.1148 16.2077 11.3251 16.4759C11.5406 16.7509 11.6357 17.08 11.5985 17.4294ZM9.32088 18.0575L9.3267 18.0653L9.33282 18.0728C9.76504 18.6048 10.5506 18.7098 11.1061 18.2762C11.3805 18.0682 11.5503 17.7582 11.5842 17.4199C11.6182 17.0795 11.5136 16.763 11.3236 16.5096C11.1156 16.2323 10.804 16.0607 10.4637 16.0267L10.4389 16.0242H10.414H10.4138H10.4136H10.4134H10.4132H10.4131H10.4129H10.4127H10.4125H10.4123H10.4122H10.412H10.4118H10.4116H10.4115H10.4113H10.4111H10.4109H10.4107H10.4106H10.4104H10.4102H10.41H10.4098H10.4097H10.4095H10.4093H10.4091H10.4089H10.4088H10.4086H10.4084H10.4082H10.408H10.4079H10.4077H10.4075H10.4073H10.4072H10.407H10.4068H10.4066H10.4064H10.4063H10.4061H10.4059H10.4057H10.4055H10.4054H10.4052H10.405H10.4048H10.4046H10.4045H10.4043H10.4041H10.4039H10.4037H10.4036H10.4034H10.4032H10.403H10.4029H10.4027H10.4025H10.4023H10.4021H10.402H10.4018H10.4016H10.4014H10.4012H10.4011H10.4009H10.4007H10.4005H10.4003H10.4002H10.4H10.3998H10.3996H10.3994H10.3993H10.3991H10.3989H10.3987H10.3986H10.3984H10.3982H10.398H10.3978H10.3977H10.3975H10.3973H10.3971H10.3969H10.3968H10.3966H10.3964H10.3962H10.396H10.3959H10.3957H10.3955H10.3953H10.3951H10.395H10.3948H10.3946H10.3944H10.3943H10.3941H10.3939H10.3937H10.3935H10.3934H10.3932H10.393H10.3928H10.3926H10.3925H10.3923H10.3921H10.3919H10.3917H10.3916H10.3914H10.3912H10.391H10.3908H10.3907H10.3905H10.3903H10.3901H10.39H10.3898H10.3896H10.3894H10.3892H10.3891H10.3889H10.3887H10.3885H10.3883H10.3882H10.388H10.3878H10.3876H10.3874H10.3873H10.3871H10.3869H10.3867H10.3865H10.3864H10.3862H10.386H10.3858H10.3857H10.3855H10.3853H10.3851H10.3849H10.3848H10.3846H10.3844H10.3842H10.384H10.3839H10.3837H10.3835H10.3833H10.3831H10.383H10.3828H10.3826H10.3824H10.3822H10.3821H10.3819H10.3817H10.3815H10.3814H10.3812H10.381H10.3808H10.3806H10.3805H10.3803H10.3801H10.3799H10.3797H10.3796H10.3794H10.3792H10.379H10.3788H10.3787H10.3785H10.3783H10.3781H10.3779H10.3778H10.3776H10.3774H10.3772H10.3771H10.3769H10.3767H10.3765H10.3763H10.3762H10.376H10.3758H10.3756H10.3754H10.3753H10.3751H10.3749H10.3747H10.3745H10.3744H10.3742H10.374H10.3738H10.3736H10.3735H10.3733H10.3731H10.3729H10.3728H10.3726H10.3724H10.3722H10.372H10.3719H10.3717H10.3715H10.3713H10.3711H10.371H10.3708H10.3706H10.3704H10.3702H10.3701H10.3699H10.3697H10.3695H10.3693H10.3692H10.369H10.3688H10.3686H10.3685H10.3683H10.3681H10.3679H10.3677H10.3676H10.3674H10.3672H10.367H10.3668H10.3667H10.3665H10.3663H10.3661H10.3659H10.3658H10.3656H10.3654H10.3652H10.365H10.3649H10.3647H10.3645H10.3643H10.3642H10.364H10.3638H10.3636H10.3634H10.3633H10.3631H10.3629H10.3627H10.3625H10.3624H10.3622H10.362H10.3618H10.3616H10.3615H10.3613H10.3611H10.3609H10.3607H10.3606H10.3604H10.3602H10.36H10.3599H10.3597H10.3595H10.3593H10.3591H10.359H10.3588H10.3586H10.3584H10.3582H10.3581H10.3579H10.3577H10.3575H10.3573H10.3572H10.357H10.3568H10.3566H10.3564H10.3563H10.3561H10.3559H10.3557H10.3555H10.3554H10.3552H10.355H10.3548H10.3547H10.3545H10.3543H10.3541H10.3539H10.3538H10.3536H10.3534H10.3532H10.353H10.3529H10.3527H10.3525H10.3523H10.3521H10.352H10.3518H10.3516H10.3514H10.3512H10.3511H10.3509H10.3507H10.3505H10.3504H10.3502H10.35H10.3498H10.3496H10.3495H10.3493H10.3491H10.3489H10.3487H10.3486H10.3484H10.3482H10.348H10.3478H10.3477H10.3475H10.3473H10.3471H10.3469H10.3468H10.3466H10.3464H10.3462H10.3461H10.3459H10.3457H10.3455H10.3453H10.3452H10.345H10.3448H10.3446H10.3444H10.3443H10.3441H10.3439H10.3437H10.3435H10.3434H10.3432H10.343H10.3428H10.3426H10.3425H10.3423H10.3421H10.3419H10.3418H10.3416H10.3414H10.3412H10.341H10.3409H10.3407H10.3405H10.3403H10.3401H10.34H10.3398H10.3396H10.3394H10.3392H10.3391H10.3389H10.3387H10.3385H10.3383H10.3382H10.338H10.3378H10.3376H10.3375H10.3373H10.3371H10.3369H10.3367H10.3366H10.3364H10.3362H10.336H10.3358H10.3357H10.3355H10.3353H10.3351H10.3349H10.3348H10.3346H10.3344H10.3342H10.334H10.3339H10.3337H10.3335H10.3333H10.3332H10.333H10.3328H10.3326H10.3324H10.3323H10.3321H10.3319H10.3317H10.3315H10.3314H10.3312H10.331H10.3308H10.3306H10.3305H10.3303H10.3301H10.3299H10.3297H10.3296H10.3294H10.3292H10.329H10.3289H10.3287H10.3285H10.3283H10.3281H10.328H10.3278H10.3276H10.3274H10.3272H10.3271H10.3269H10.3267H10.3265H10.3263H10.3262H10.326H10.3258H10.3256H10.3254H10.3253H10.3251H10.3249H10.3247H10.3246H10.3244H10.3242H10.324H10.3238H10.3237H10.3235H10.3233H10.3231H10.3229H10.3228H10.3226H10.3224H10.3222C10.0602 16.0242 9.76994 16.0998 9.53166 16.2961C9.26115 16.504 9.09383 16.8116 9.06028 17.1472C9.02624 17.4876 9.13087 17.8042 9.32088 18.0575Z" stroke="black"/>
<path d="M17.0726 14.6506C17.2122 14.8355 17.1805 15.0912 17.0055 15.233C16.8206 15.3726 16.565 15.3409 16.4232 15.1659C16.2836 14.981 16.3152 14.7254 16.4902 14.5836C16.6751 14.444 16.9308 14.4756 17.0726 14.6506Z" stroke="black"/>
<path d="M21.1329 9.55659L21.1329 9.55655L21.1277 9.56073C20.5096 10.0582 19.5944 9.9531 19.1033 9.32599L19.1033 9.32597L19.0991 9.32077C18.6017 8.70275 18.7067 7.78749 19.3339 7.29638L19.3339 7.29641L19.3391 7.29223C19.9571 6.7948 20.8724 6.89986 21.3635 7.52697L21.3634 7.527L21.3676 7.53219C21.865 8.15022 21.76 9.06548 21.1329 9.55659Z" stroke="black"/>
<mask id="path-6-inside-1_36614_2404" fill="white">
<path d="M28.3419 8.04388C28.3216 7.7585 28.0769 7.56484 27.7915 7.57503L25.8652 7.73811C25.8244 7.56484 25.7735 7.40176 25.7123 7.23869L27.4858 6.16849C27.7304 6.0258 27.8017 5.70984 27.659 5.46522C27.5164 5.2206 27.2004 5.14926 26.9558 5.29195L25.2944 6.2908C25.2129 6.14811 25.1313 5.99522 25.0396 5.86272L26.2933 4.49695C26.4869 4.2931 26.4665 3.96694 26.2627 3.77329C26.0588 3.58983 25.7327 3.60002 25.539 3.80387L24.4077 5.03714C24.1529 4.74156 23.8675 4.47656 23.5617 4.24214L24.3058 2.45848C24.4179 2.20367 24.2956 1.8979 24.0306 1.79597C23.7656 1.68386 23.47 1.80617 23.3681 2.07117L22.6954 3.67137C22.4304 3.51848 22.145 3.39617 21.8596 3.28406L21.9921 1.29655C22.0125 1.01116 21.7985 0.776738 21.5131 0.756354C21.2379 0.735969 20.9933 0.950008 20.9729 1.2252L20.8506 2.99867C20.5346 2.93752 20.2186 2.88655 19.9027 2.86617L19.5459 0.929624C19.495 0.65443 19.23 0.470968 18.9548 0.52193C18.6796 0.572891 18.4961 0.837892 18.5471 1.11309L18.8834 2.89675C18.5369 2.93752 18.1904 2.99867 17.854 3.0904L17.008 1.5004C16.8755 1.25578 16.5698 1.15386 16.315 1.28636C16.0704 1.41886 15.9684 1.72463 16.1009 1.97944L16.8755 3.43694C16.8755 3.43694 16.845 3.44713 16.8246 3.45733C16.4882 3.61021 16.1723 3.81406 15.8767 4.0179L15.0002 2.92732C14.8269 2.71328 14.5007 2.67252 14.2867 2.85598C14.0726 3.02925 14.0319 3.3554 14.2153 3.56944L15.1021 4.66002C14.8167 4.93522 14.5517 5.23079 14.3173 5.55695L13.2471 4.53771C13.0432 4.34406 12.7171 4.35425 12.5234 4.5581C12.3298 4.76195 12.3399 5.0881 12.5438 5.28176L13.7771 6.45388C13.665 6.66792 13.5426 6.88195 13.4611 7.10619C13.4203 7.2183 13.3592 7.33042 13.3184 7.43234L12.4725 6.39272C12.2992 6.17868 11.973 6.13791 11.759 6.32138C11.545 6.49465 11.5042 6.8208 11.6876 7.03484L12.7884 8.39042C12.5336 8.74715 12.2176 9.07331 11.8813 9.3485L11.1169 7.59542C11.0048 7.34061 10.7092 7.2183 10.4442 7.33042C10.1894 7.44253 10.0671 7.7483 10.1792 8.00311L11.0149 9.92947C10.6684 10.1129 10.3015 10.2658 9.91417 10.3779L9.35359 8.59427C9.27206 8.32927 8.98667 8.17638 8.71148 8.25792C8.44648 8.33946 8.29359 8.62485 8.37513 8.90004L8.90513 10.5818C8.44647 10.6531 8.0184 10.7652 7.60051 10.9181L6.80551 9.50139C6.66282 9.25677 6.35705 9.16504 6.11243 9.30773C5.86781 9.45043 5.77608 9.7562 5.91877 10.0008L6.67301 11.3462C6.18377 11.6214 5.73531 11.9679 5.33781 12.3654L4.0128 11.3462C3.78857 11.1729 3.47261 11.2137 3.29934 11.4379C3.12607 11.6622 3.16684 11.9781 3.39107 12.1514L4.66511 13.1401C4.34915 13.5579 4.09434 14.0166 3.8905 14.5058L1.77049 14.3529C1.49529 14.3326 1.25068 14.5466 1.23029 14.8218C1.20991 15.1072 1.42395 15.3518 1.69914 15.3722L3.56434 15.5047C3.44203 16.0041 3.38088 16.5239 3.38088 17.0539L0.751253 17.6858C0.476059 17.7572 0.312983 18.0324 0.374137 18.2974C0.435291 18.5318 0.639136 18.6847 0.87356 18.6847C0.914329 18.6847 0.955101 18.6847 0.995871 18.6745L3.4828 18.0732C3.54396 18.4503 3.63569 18.8172 3.76819 19.1739L1.51568 20.3359C1.26087 20.4684 1.16914 20.7741 1.29145 21.0187C1.38318 21.192 1.55645 21.2939 1.7501 21.2939C1.83164 21.2939 1.91318 21.2735 1.98453 21.2328L4.18607 20.1014C4.37973 20.4582 4.60396 20.7843 4.85877 21.1003L3.07511 22.7718C2.87126 22.9655 2.86107 23.2814 3.05473 23.4955C3.15665 23.6076 3.28915 23.6586 3.42165 23.6586C3.54395 23.6586 3.67646 23.6178 3.76819 23.5159L5.56204 21.8341C5.66396 21.9259 5.76589 22.0176 5.878 22.1093C6.0105 22.2112 6.1532 22.2928 6.2857 22.3845L5.13396 24.6268C5.00146 24.8816 5.10338 25.1874 5.35819 25.3097C5.42954 25.3505 5.51108 25.3709 5.59262 25.3709C5.77608 25.3709 5.95954 25.2689 6.05127 25.0957L7.18262 22.8941C7.38647 22.9859 7.59032 23.0878 7.80436 23.1693L7.72282 25.6359C7.72282 25.9213 7.93686 26.1557 8.21205 26.1659H8.23244C8.50763 26.1659 8.73186 25.9518 8.74205 25.6766L8.82359 23.4241C9.15994 23.4853 9.50648 23.5057 9.85302 23.5057L9.97532 25.5747C9.99571 25.8499 10.2199 26.0538 10.4849 26.0538C10.4849 26.0538 10.5053 26.0538 10.5155 26.0538C10.8009 26.0334 11.0149 25.799 10.9946 25.5136L10.8723 23.4343C11.2188 23.3936 11.5551 23.3426 11.8915 23.2814L12.3094 25.4014C12.3603 25.6461 12.5744 25.8091 12.8088 25.8091C12.8394 25.8091 12.87 25.8091 12.9107 25.8091C13.1859 25.7582 13.3694 25.483 13.3082 25.2078L12.8801 23.0674C13.1248 23.0062 13.3592 22.9451 13.6038 22.8737L14.2357 25.0243C14.2969 25.2486 14.5007 25.3913 14.725 25.3913C14.7759 25.3913 14.8167 25.3913 14.8677 25.3709C15.1428 25.2893 15.2957 25.0141 15.2142 24.7389L14.5823 22.568C14.9492 22.4355 15.3161 22.303 15.6728 22.1501L16.6411 24.2293C16.7227 24.4128 16.9163 24.5249 17.0998 24.5249C17.1711 24.5249 17.2425 24.5147 17.3138 24.4739C17.5686 24.3516 17.6807 24.0561 17.5584 23.8013L16.5902 21.7322C16.8959 21.5793 17.1813 21.4264 17.4769 21.2634L18.7611 23.1286C18.8631 23.2712 19.0159 23.3528 19.179 23.3528C19.2809 23.3528 19.3829 23.3222 19.4644 23.2611C19.6988 23.098 19.7498 22.782 19.5969 22.5476L18.3534 20.7334C18.5879 20.5805 18.8223 20.4276 19.0567 20.2645L20.504 21.9361C20.6059 22.0482 20.7486 22.1093 20.8913 22.1093C21.0136 22.1093 21.1258 22.0686 21.2277 21.987C21.4417 21.8036 21.4621 21.4774 21.2786 21.2634L19.8823 19.653C20.1065 19.4797 20.3104 19.286 20.5244 19.1026L21.8086 20.5805C21.9106 20.6926 22.0533 20.7537 22.196 20.7537C22.3183 20.7537 22.4304 20.713 22.5323 20.6314C22.7463 20.448 22.7667 20.1218 22.5833 19.9078L21.2786 18.3993C21.4927 18.1955 21.6965 17.9916 21.8902 17.7674L23.4394 19.1332C23.5312 19.2147 23.6535 19.2555 23.7758 19.2555C23.9185 19.2555 24.0612 19.1943 24.1631 19.0822C24.3465 18.8682 24.3261 18.5522 24.1121 18.3585L22.5629 16.9928C22.8483 16.6462 23.1133 16.2997 23.3783 15.9328L24.9173 17.1049C25.009 17.1762 25.1212 17.2068 25.2231 17.2068C25.376 17.2068 25.5289 17.1355 25.6308 17.003C25.804 16.7787 25.7531 16.4628 25.5288 16.2895L23.9388 15.0868C24.1427 14.7708 24.3261 14.4447 24.5096 14.1185L26.12 15.1174C26.2015 15.1683 26.2933 15.1989 26.385 15.1989C26.5583 15.1989 26.7214 15.1174 26.8131 14.9543C26.966 14.7199 26.8844 14.4039 26.65 14.251L24.9683 13.2012C25.1212 12.8852 25.2638 12.5693 25.3963 12.2431L27.2106 12.8343C27.2615 12.8547 27.3125 12.8547 27.3737 12.8547C27.5877 12.8547 27.7915 12.7222 27.8629 12.5081C27.9546 12.2431 27.8017 11.9577 27.5367 11.866L25.7633 11.285C25.855 10.9997 25.9263 10.7143 25.9671 10.4289L27.6794 10.6327C27.6794 10.6327 27.7202 10.6327 27.7406 10.6327C27.9954 10.6327 28.2196 10.4391 28.2502 10.1843C28.2808 9.90908 28.0871 9.65427 27.8017 9.6237L26.0589 9.41985C26.0589 9.19562 26.0589 8.97139 26.0283 8.74715L27.8731 8.59427C28.1483 8.57388 28.3623 8.31908 28.3419 8.04388ZM7.14185 20.5193C6.20416 19.7855 5.613 18.7255 5.47031 17.5431C5.17473 15.097 6.92781 12.8751 9.36379 12.5795C12.1259 12.2431 14.4294 10.4187 15.3875 7.81965C15.7952 6.69849 16.6207 5.81176 17.7011 5.31233C18.2923 5.03714 18.9344 4.89445 19.5765 4.89445C20.0963 4.89445 20.6161 4.98618 21.1156 5.16964C21.8902 5.45503 22.5629 5.94426 23.0725 6.58638C24.0408 7.81965 24.3058 9.43004 23.7656 10.8977C21.6456 16.6666 16.5392 20.713 10.434 21.4366C9.25167 21.5793 8.07955 21.2532 7.15205 20.5193H7.14185Z"/>
</mask>
<path d="M28.3419 8.04388C28.3216 7.7585 28.0769 7.56484 27.7915 7.57503L25.8652 7.73811C25.8244 7.56484 25.7735 7.40176 25.7123 7.23869L27.4858 6.16849C27.7304 6.0258 27.8017 5.70984 27.659 5.46522C27.5164 5.2206 27.2004 5.14926 26.9558 5.29195L25.2944 6.2908C25.2129 6.14811 25.1313 5.99522 25.0396 5.86272L26.2933 4.49695C26.4869 4.2931 26.4665 3.96694 26.2627 3.77329C26.0588 3.58983 25.7327 3.60002 25.539 3.80387L24.4077 5.03714C24.1529 4.74156 23.8675 4.47656 23.5617 4.24214L24.3058 2.45848C24.4179 2.20367 24.2956 1.8979 24.0306 1.79597C23.7656 1.68386 23.47 1.80617 23.3681 2.07117L22.6954 3.67137C22.4304 3.51848 22.145 3.39617 21.8596 3.28406L21.9921 1.29655C22.0125 1.01116 21.7985 0.776738 21.5131 0.756354C21.2379 0.735969 20.9933 0.950008 20.9729 1.2252L20.8506 2.99867C20.5346 2.93752 20.2186 2.88655 19.9027 2.86617L19.5459 0.929624C19.495 0.65443 19.23 0.470968 18.9548 0.52193C18.6796 0.572891 18.4961 0.837892 18.5471 1.11309L18.8834 2.89675C18.5369 2.93752 18.1904 2.99867 17.854 3.0904L17.008 1.5004C16.8755 1.25578 16.5698 1.15386 16.315 1.28636C16.0704 1.41886 15.9684 1.72463 16.1009 1.97944L16.8755 3.43694C16.8755 3.43694 16.845 3.44713 16.8246 3.45733C16.4882 3.61021 16.1723 3.81406 15.8767 4.0179L15.0002 2.92732C14.8269 2.71328 14.5007 2.67252 14.2867 2.85598C14.0726 3.02925 14.0319 3.3554 14.2153 3.56944L15.1021 4.66002C14.8167 4.93522 14.5517 5.23079 14.3173 5.55695L13.2471 4.53771C13.0432 4.34406 12.7171 4.35425 12.5234 4.5581C12.3298 4.76195 12.3399 5.0881 12.5438 5.28176L13.7771 6.45388C13.665 6.66792 13.5426 6.88195 13.4611 7.10619C13.4203 7.2183 13.3592 7.33042 13.3184 7.43234L12.4725 6.39272C12.2992 6.17868 11.973 6.13791 11.759 6.32138C11.545 6.49465 11.5042 6.8208 11.6876 7.03484L12.7884 8.39042C12.5336 8.74715 12.2176 9.07331 11.8813 9.3485L11.1169 7.59542C11.0048 7.34061 10.7092 7.2183 10.4442 7.33042C10.1894 7.44253 10.0671 7.7483 10.1792 8.00311L11.0149 9.92947C10.6684 10.1129 10.3015 10.2658 9.91417 10.3779L9.35359 8.59427C9.27206 8.32927 8.98667 8.17638 8.71148 8.25792C8.44648 8.33946 8.29359 8.62485 8.37513 8.90004L8.90513 10.5818C8.44647 10.6531 8.0184 10.7652 7.60051 10.9181L6.80551 9.50139C6.66282 9.25677 6.35705 9.16504 6.11243 9.30773C5.86781 9.45043 5.77608 9.7562 5.91877 10.0008L6.67301 11.3462C6.18377 11.6214 5.73531 11.9679 5.33781 12.3654L4.0128 11.3462C3.78857 11.1729 3.47261 11.2137 3.29934 11.4379C3.12607 11.6622 3.16684 11.9781 3.39107 12.1514L4.66511 13.1401C4.34915 13.5579 4.09434 14.0166 3.8905 14.5058L1.77049 14.3529C1.49529 14.3326 1.25068 14.5466 1.23029 14.8218C1.20991 15.1072 1.42395 15.3518 1.69914 15.3722L3.56434 15.5047C3.44203 16.0041 3.38088 16.5239 3.38088 17.0539L0.751253 17.6858C0.476059 17.7572 0.312983 18.0324 0.374137 18.2974C0.435291 18.5318 0.639136 18.6847 0.87356 18.6847C0.914329 18.6847 0.955101 18.6847 0.995871 18.6745L3.4828 18.0732C3.54396 18.4503 3.63569 18.8172 3.76819 19.1739L1.51568 20.3359C1.26087 20.4684 1.16914 20.7741 1.29145 21.0187C1.38318 21.192 1.55645 21.2939 1.7501 21.2939C1.83164 21.2939 1.91318 21.2735 1.98453 21.2328L4.18607 20.1014C4.37973 20.4582 4.60396 20.7843 4.85877 21.1003L3.07511 22.7718C2.87126 22.9655 2.86107 23.2814 3.05473 23.4955C3.15665 23.6076 3.28915 23.6586 3.42165 23.6586C3.54395 23.6586 3.67646 23.6178 3.76819 23.5159L5.56204 21.8341C5.66396 21.9259 5.76589 22.0176 5.878 22.1093C6.0105 22.2112 6.1532 22.2928 6.2857 22.3845L5.13396 24.6268C5.00146 24.8816 5.10338 25.1874 5.35819 25.3097C5.42954 25.3505 5.51108 25.3709 5.59262 25.3709C5.77608 25.3709 5.95954 25.2689 6.05127 25.0957L7.18262 22.8941C7.38647 22.9859 7.59032 23.0878 7.80436 23.1693L7.72282 25.6359C7.72282 25.9213 7.93686 26.1557 8.21205 26.1659H8.23244C8.50763 26.1659 8.73186 25.9518 8.74205 25.6766L8.82359 23.4241C9.15994 23.4853 9.50648 23.5057 9.85302 23.5057L9.97532 25.5747C9.99571 25.8499 10.2199 26.0538 10.4849 26.0538C10.4849 26.0538 10.5053 26.0538 10.5155 26.0538C10.8009 26.0334 11.0149 25.799 10.9946 25.5136L10.8723 23.4343C11.2188 23.3936 11.5551 23.3426 11.8915 23.2814L12.3094 25.4014C12.3603 25.6461 12.5744 25.8091 12.8088 25.8091C12.8394 25.8091 12.87 25.8091 12.9107 25.8091C13.1859 25.7582 13.3694 25.483 13.3082 25.2078L12.8801 23.0674C13.1248 23.0062 13.3592 22.9451 13.6038 22.8737L14.2357 25.0243C14.2969 25.2486 14.5007 25.3913 14.725 25.3913C14.7759 25.3913 14.8167 25.3913 14.8677 25.3709C15.1428 25.2893 15.2957 25.0141 15.2142 24.7389L14.5823 22.568C14.9492 22.4355 15.3161 22.303 15.6728 22.1501L16.6411 24.2293C16.7227 24.4128 16.9163 24.5249 17.0998 24.5249C17.1711 24.5249 17.2425 24.5147 17.3138 24.4739C17.5686 24.3516 17.6807 24.0561 17.5584 23.8013L16.5902 21.7322C16.8959 21.5793 17.1813 21.4264 17.4769 21.2634L18.7611 23.1286C18.8631 23.2712 19.0159 23.3528 19.179 23.3528C19.2809 23.3528 19.3829 23.3222 19.4644 23.2611C19.6988 23.098 19.7498 22.782 19.5969 22.5476L18.3534 20.7334C18.5879 20.5805 18.8223 20.4276 19.0567 20.2645L20.504 21.9361C20.6059 22.0482 20.7486 22.1093 20.8913 22.1093C21.0136 22.1093 21.1258 22.0686 21.2277 21.987C21.4417 21.8036 21.4621 21.4774 21.2786 21.2634L19.8823 19.653C20.1065 19.4797 20.3104 19.286 20.5244 19.1026L21.8086 20.5805C21.9106 20.6926 22.0533 20.7537 22.196 20.7537C22.3183 20.7537 22.4304 20.713 22.5323 20.6314C22.7463 20.448 22.7667 20.1218 22.5833 19.9078L21.2786 18.3993C21.4927 18.1955 21.6965 17.9916 21.8902 17.7674L23.4394 19.1332C23.5312 19.2147 23.6535 19.2555 23.7758 19.2555C23.9185 19.2555 24.0612 19.1943 24.1631 19.0822C24.3465 18.8682 24.3261 18.5522 24.1121 18.3585L22.5629 16.9928C22.8483 16.6462 23.1133 16.2997 23.3783 15.9328L24.9173 17.1049C25.009 17.1762 25.1212 17.2068 25.2231 17.2068C25.376 17.2068 25.5289 17.1355 25.6308 17.003C25.804 16.7787 25.7531 16.4628 25.5288 16.2895L23.9388 15.0868C24.1427 14.7708 24.3261 14.4447 24.5096 14.1185L26.12 15.1174C26.2015 15.1683 26.2933 15.1989 26.385 15.1989C26.5583 15.1989 26.7214 15.1174 26.8131 14.9543C26.966 14.7199 26.8844 14.4039 26.65 14.251L24.9683 13.2012C25.1212 12.8852 25.2638 12.5693 25.3963 12.2431L27.2106 12.8343C27.2615 12.8547 27.3125 12.8547 27.3737 12.8547C27.5877 12.8547 27.7915 12.7222 27.8629 12.5081C27.9546 12.2431 27.8017 11.9577 27.5367 11.866L25.7633 11.285C25.855 10.9997 25.9263 10.7143 25.9671 10.4289L27.6794 10.6327C27.6794 10.6327 27.7202 10.6327 27.7406 10.6327C27.9954 10.6327 28.2196 10.4391 28.2502 10.1843C28.2808 9.90908 28.0871 9.65427 27.8017 9.6237L26.0589 9.41985C26.0589 9.19562 26.0589 8.97139 26.0283 8.74715L27.8731 8.59427C28.1483 8.57388 28.3623 8.31908 28.3419 8.04388ZM7.14185 20.5193C6.20416 19.7855 5.613 18.7255 5.47031 17.5431C5.17473 15.097 6.92781 12.8751 9.36379 12.5795C12.1259 12.2431 14.4294 10.4187 15.3875 7.81965C15.7952 6.69849 16.6207 5.81176 17.7011 5.31233C18.2923 5.03714 18.9344 4.89445 19.5765 4.89445C20.0963 4.89445 20.6161 4.98618 21.1156 5.16964C21.8902 5.45503 22.5629 5.94426 23.0725 6.58638C24.0408 7.81965 24.3058 9.43004 23.7656 10.8977C21.6456 16.6666 16.5392 20.713 10.434 21.4366C9.25167 21.5793 8.07955 21.2532 7.15205 20.5193H7.14185Z" stroke="black" stroke-width="2" mask="url(#path-6-inside-1_36614_2404)"/>
</svg>
