<svg width="62" height="33" viewBox="0 0 62 33" fill="none" xmlns="http://www.w3.org/2000/svg">
<g clip-path="url(#clip0_36695_3928)">
<path d="M50.6979 18.6575L49.8717 17.538H40.0229L44.0283 23.3215C39.8612 24.1357 35.9277 20.6513 35.9816 16.598C36.0414 12.4549 39.3822 9.35356 43.3816 9.38356C47.7702 9.40746 52.1467 14.1373 50.6979 18.6575ZM56.6072 25.7642C56.6072 25.7642 59.5289 21.9505 59.5408 16.9871C59.5648 7.23416 52.7335 0.899807 43.202 0.881846C37.6819 0.875859 32.994 3.57005 30.1502 7.50955C31.3296 9.18597 32.0181 10.8025 32.2995 11.8742H27.935C27.7134 12.5627 27.5398 13.2692 27.4141 13.9936H32.8024C32.9282 14.7899 32.994 15.6041 32.994 16.4364C32.994 19.7772 31.9463 22.8724 30.1622 25.423C32.9401 29.4164 37.5443 32.3141 43.2559 32.3141C47.0457 32.3141 49.722 30.6976 50.207 30.4402L51.2128 31.7633H60.9118L56.6072 25.7642Z" fill="#D9D9D9"/>
<path d="M18.2554 21.3942H22.2668C22.2668 21.5739 20.2132 23.5736 17.1239 23.5736C13.7292 23.5736 9.88546 20.8913 9.8076 16.5986C9.72979 12.1502 13.5735 9.2345 17.1239 9.36018C20.0036 9.46201 21.0993 10.2882 22.7098 11.8688C22.7098 11.8688 25.0328 11.8688 27.3917 11.8748H32.2951C32.0138 10.8031 31.3252 9.18656 30.1458 7.5102C30.044 7.37247 29.9482 7.22879 29.8404 7.09106C27.4815 3.94787 23.3804 0.762728 17.0041 0.750754C9.51426 0.73878 3.73669 5.74998 1.83279 11.8748C1.80885 11.9467 1.7849 12.0245 1.76693 12.0963C1.76693 12.1023 1.76693 12.1023 1.76095 12.1083C1.37179 13.4793 1.15625 14.9282 1.15625 16.419C1.16822 17.8499 1.35382 19.2209 1.69509 20.5142C2.8985 24.9865 6.02376 28.6746 10.1489 30.6563C10.1848 30.6742 10.2148 30.6862 10.2506 30.7042C10.2686 30.7162 10.2926 30.7222 10.3165 30.7342C12.394 31.6801 14.729 32.207 17.2137 32.2249C22.4703 32.183 27.1223 29.6086 29.9901 25.6691C30.05 25.5852 30.1039 25.5014 30.1637 25.4176C31.9479 22.8671 32.9956 19.7718 32.9956 16.431C32.9956 15.5987 32.9298 14.7845 32.8041 13.9883H18.2554V21.3942Z" fill="#D9D9D9"/>
</g>
<defs>
<clipPath id="clip0_36695_3928">
<rect width="60.8627" height="32" fill="white" transform="translate(0.78125 0.750732)"/>
</clipPath>
</defs>
</svg>
