<svg width="207" height="34" viewBox="0 0 207 34" fill="none" xmlns="http://www.w3.org/2000/svg">
<g clip-path="url(#clip0_36695_3914)">
<path d="M80.8662 13.1017H83.3044V11.3104C83.3044 8.82244 82.1434 7.68628 79.672 7.68628H74.4556C71.9677 7.68628 70.8232 8.84732 70.8232 11.3104V13.5164C70.8232 16.1039 72.4818 16.7507 74.5634 17.2151L79.5393 18.3347C80.6008 18.5918 81.0653 18.9235 81.0653 20.0431V22.2159C81.0653 23.2277 80.6838 23.6175 79.6388 23.6175H74.6381C73.6263 23.6175 73.2614 23.2277 73.2614 22.2159V20.1924H70.7734V22.191C70.7734 24.679 71.9428 25.8152 74.4058 25.8152H79.9623C82.4502 25.8152 83.5947 24.6541 83.5947 22.191V19.7031C83.5947 17.1156 81.936 16.4688 79.8545 15.996L74.8786 14.8599C73.817 14.6277 73.3526 14.2876 73.3526 13.2012V11.2855C73.3526 10.2737 73.7424 9.88397 74.779 9.88397H79.473C80.5096 9.88397 80.8994 10.2737 80.8994 11.2855L80.8662 13.1017Z" fill="#D9D9D9"/>
<path d="M87.5938 25.8154H90.0817V17.6798H98.3749V25.8154H100.863V7.68652H98.3749V15.4075H90.0817V7.68652H87.5938V25.8154Z" fill="#D9D9D9"/>
<path d="M114.85 25.8154C117.338 25.8154 118.482 24.6544 118.482 22.1913V11.3106C118.482 8.82269 117.313 7.68652 114.85 7.68652H108.804C106.316 7.68652 105.172 8.84757 105.172 11.3106V22.1913C105.172 24.6792 106.333 25.8154 108.804 25.8154H114.85ZM107.66 11.3853C107.66 10.3486 108.05 9.96715 109.086 9.96715H114.56C115.605 9.96715 115.994 10.3486 115.994 11.3853V22.1166C115.994 23.1533 115.605 23.5348 114.56 23.5348H109.086C108.05 23.5348 107.66 23.1533 107.66 22.1166V11.3853Z" fill="#D9D9D9"/>
<path d="M138.432 25.8154L143.234 7.68652H140.663L137.122 22.6308L133.099 7.70311H130.927L126.904 22.6308L123.38 7.70311H120.734L125.511 25.8154H128.24L132.03 11.717L135.82 25.8154H138.432Z" fill="#D9D9D9"/>
<path d="M154.731 25.8154C157.219 25.8154 158.363 24.5714 158.363 22.1913V19.8858H155.875V22.1166C155.875 23.1533 155.485 23.5348 154.441 23.5348H149.407C148.37 23.5348 147.98 23.1533 147.98 22.1166V11.3853C147.98 10.3486 148.37 9.96715 149.407 9.96715H154.441C155.485 9.96715 155.875 10.3486 155.875 11.3853V13.6161H158.363V11.3106C158.363 8.82269 157.194 7.68652 154.731 7.68652H149.125C146.637 7.68652 145.492 8.84757 145.492 11.3106V22.1913C145.492 24.5714 146.662 25.8154 149.125 25.8154H154.731Z" fill="#D9D9D9"/>
<path d="M171.809 20.8973L173.468 25.8732H176.163L169.894 7.68628H166.643L160.34 25.8152H162.936L164.594 20.8393L171.809 20.8973ZM171.055 18.6167H165.374L168.202 10.1162L171.055 18.6167Z" fill="#D9D9D9"/>
<path d="M188.331 13.102H190.77V11.3106C190.77 8.82269 189.6 7.68652 187.137 7.68652H181.904C179.416 7.68652 178.272 8.84757 178.272 11.3106V13.5166C178.272 16.1041 179.93 16.751 182.004 17.2154L186.98 18.335C188.05 18.592 188.514 18.9238 188.514 20.0434V22.2162C188.514 23.2279 188.124 23.6177 187.088 23.6177H182.054C181.042 23.6177 180.652 23.2279 180.652 22.2162V20.1926H178.164V22.1913C178.164 24.6792 179.325 25.8154 181.796 25.8154H187.345C189.833 25.8154 190.977 24.6544 190.977 22.1913V19.7033C190.977 17.1159 189.318 16.469 187.245 15.9963L182.269 14.8601C181.208 14.6279 180.735 14.2879 180.735 13.2015V11.2858C180.735 10.274 181.125 9.88421 182.161 9.88421H186.88C187.917 9.88421 188.307 10.274 188.307 11.2858L188.331 13.102Z" fill="#D9D9D9"/>
<path d="M195.055 7.68652V25.8154H206.781V23.5348H197.543V17.6798H205.247V15.4075H197.543V9.96715H206.781V7.68652H195.055Z" fill="#D9D9D9"/>
</g>
<path d="M60.8203 0.164551V33.3372" stroke="#D9D9D9" stroke-width="1.65863"/>
<g clip-path="url(#clip1_36695_3914)">
<path d="M49.5421 0.936035H36.3477V32.5164H49.5421V0.936035Z" fill="#D9D9D9"/>
<path fill-rule="evenodd" clip-rule="evenodd" d="M33.6779 23.5596C33.6779 30.9405 28.4117 33.0055 17.1413 33.0055C5.25715 33.0055 0.28125 30.7581 0.28125 23.203V21.7268H15.1343V24.787C15.1343 25.6826 15.2421 26.4954 16.7183 26.4954C17.9789 26.4954 18.294 26.0475 18.294 24.8782V23.742C18.294 21.76 17.1413 21.6687 13.7659 20.9472C3.12581 18.6998 0.28125 16.1787 0.28125 10.6057V9.43632C0.28125 3.04228 7.33874 0.164551 16.8676 0.164551C29.8879 0.164551 33.1554 3.40718 33.1554 9.51925V11.775H19.1399V8.08453C19.1399 7.36302 18.6175 6.73274 17.5559 6.73274C17.3633 6.71576 17.1691 6.73746 16.985 6.79657C16.8008 6.85568 16.6303 6.951 16.4835 7.07694C16.3367 7.20288 16.2166 7.35689 16.1301 7.52992C16.0437 7.70295 15.9927 7.89152 15.9802 8.08453V9.28704C15.9802 11.1779 17.1413 11.775 20.1932 12.4384C30.4103 14.5034 33.6779 16.668 33.6779 21.8844V23.5596Z" fill="#D9D9D9"/>
</g>
<defs>
<clipPath id="clip0_36695_3914">
<rect width="136.008" height="33.1727" fill="white" transform="translate(70.7734 0.164551)"/>
</clipPath>
<clipPath id="clip1_36695_3914">
<rect width="49.759" height="33.1727" fill="white" transform="translate(0.28125 0.164551)"/>
</clipPath>
</defs>
</svg>
