<svg width="24" height="25" viewBox="0 0 24 25" fill="none" xmlns="http://www.w3.org/2000/svg">
<g id="Frame">
<path id="Vector" d="M16.0191 12.0645L21.4991 15.1945C21.653 15.2817 21.781 15.4082 21.8701 15.561C21.9592 15.7138 22.0061 15.8876 22.0061 16.0645C22.0061 16.2413 21.9592 16.4151 21.8701 16.5679C21.781 16.7208 21.653 16.8472 21.4991 16.9345L12.9991 21.8045C12.6951 21.98 12.3502 22.0724 11.9991 22.0724C11.6481 22.0724 11.3032 21.98 10.9991 21.8045L2.49914 16.9345C2.34524 16.8472 2.21723 16.7208 2.12817 16.5679C2.03911 16.4151 1.99219 16.2413 1.99219 16.0645C1.99219 15.8876 2.03911 15.7138 2.12817 15.561C2.21723 15.4082 2.34524 15.2817 2.49914 15.1945L7.97914 12.0645" stroke="black" stroke-linecap="round" stroke-linejoin="round"/>
<path id="Vector_2" d="M12.9991 13.8043C12.6951 13.9799 12.3502 14.0723 11.9991 14.0723C11.6481 14.0723 11.3032 13.9799 10.9991 13.8043L2.49914 8.93435C2.34524 8.84713 2.21723 8.72065 2.12817 8.56781C2.03911 8.41497 1.99219 8.24124 1.99219 8.06435C1.99219 7.88745 2.03911 7.71372 2.12817 7.56088C2.21723 7.40804 2.34524 7.28156 2.49914 7.19435L10.9991 2.32435C11.3032 2.14881 11.6481 2.0564 11.9991 2.0564C12.3502 2.0564 12.6951 2.14881 12.9991 2.32435L21.4991 7.19435C21.653 7.28156 21.781 7.40804 21.8701 7.56088C21.9592 7.71372 22.0061 7.88745 22.0061 8.06435C22.0061 8.24124 21.9592 8.41497 21.8701 8.56781C21.781 8.72065 21.653 8.84713 21.4991 8.93435L12.9991 13.8043Z" stroke="black" stroke-linecap="round" stroke-linejoin="round"/>
</g>
</svg>
