<svg width="47" height="47" viewBox="0 0 47 47" fill="none" xmlns="http://www.w3.org/2000/svg">
<circle cx="23.4408" cy="23.4994" r="15.64" fill="white" stroke="#212428"/>
<circle cx="23.4404" cy="23.5" r="21.8919" stroke="#B5B6B7" stroke-width="1.21622"/>
<g clip-path="url(#clip0_415_13881)">
<path d="M24.3875 14.8437C24.1337 14.7279 23.8579 14.668 23.579 14.668C23.3 14.668 23.0243 14.7279 22.7705 14.8437L14.4224 18.6427C14.2496 18.7189 14.1026 18.8437 13.9994 19.002C13.8962 19.1602 13.8413 19.345 13.8413 19.534C13.8413 19.7229 13.8962 19.9077 13.9994 20.066C14.1026 20.2242 14.2496 20.349 14.4224 20.4253L22.7802 24.234C23.034 24.3498 23.3097 24.4097 23.5887 24.4097C23.8677 24.4097 24.1434 24.3498 24.3972 24.234L32.755 20.435C32.9279 20.3588 33.0748 20.234 33.178 20.0757C33.2812 19.9175 33.3361 19.7326 33.3361 19.5437C33.3361 19.3548 33.2812 19.17 33.178 19.0117C33.0748 18.8535 32.9279 18.7286 32.755 18.6524L24.3875 14.8437Z" stroke="#212428" stroke-linecap="round" stroke-linejoin="round"/>
<path d="M13.8379 23.5C13.8374 23.6863 13.8904 23.8689 13.9906 24.026C14.0907 24.1831 14.2338 24.3082 14.4029 24.3864L22.7802 28.1952C23.0326 28.3095 23.3066 28.3686 23.5838 28.3686C23.861 28.3686 24.1349 28.3095 24.3874 28.1952L32.7452 24.3962C32.9177 24.3187 33.0638 24.1927 33.1659 24.0335C33.2679 23.8744 33.3214 23.689 33.32 23.5" stroke="#212428" stroke-linecap="round" stroke-linejoin="round"/>
<path d="M13.8379 27.4609C13.8374 27.6473 13.8904 27.8298 13.9906 27.9869C14.0907 28.144 14.2338 28.2691 14.4029 28.3474L22.7802 32.1561C23.0326 32.2704 23.3066 32.3296 23.5838 32.3296C23.861 32.3296 24.1349 32.2704 24.3874 32.1561L32.7452 28.3571C32.9177 28.2796 33.0638 28.1536 33.1659 27.9945C33.2679 27.8354 33.3214 27.65 33.32 27.4609" stroke="#212428" stroke-linecap="round" stroke-linejoin="round"/>
</g>
<defs>
<clipPath id="clip0_415_13881">
<rect width="20.9091" height="20" fill="white" transform="translate(12.9863 13.5)"/>
</clipPath>
</defs>
</svg>
