<svg width="47" height="47" viewBox="0 0 47 47" fill="none" xmlns="http://www.w3.org/2000/svg">
<circle cx="23.4408" cy="23.4994" r="15.64" fill="white" stroke="#212428"/>
<circle cx="23.4404" cy="23.5" r="21.8919" stroke="#B5B6B7" stroke-width="1.21622"/>
<path d="M21.8726 14.2586C23.0536 14.0284 24.268 14.0284 25.449 14.2586" stroke="#212428" stroke-linecap="round" stroke-linejoin="round"/>
<path d="M28.9312 15.6992C29.9309 16.3752 30.7906 17.2381 31.4629 18.2404" stroke="#212428" stroke-linecap="round" stroke-linejoin="round"/>
<path d="M32.9033 21.7109C33.1336 22.892 33.1336 24.1064 32.9033 25.2874" stroke="#212428" stroke-linecap="round" stroke-linejoin="round"/>
<path d="M31.4631 28.7695C30.787 29.7693 29.9242 30.629 28.9219 31.3013" stroke="#212428" stroke-linecap="round" stroke-linejoin="round"/>
<path d="M25.449 32.7422C24.268 32.9722 23.0536 32.9722 21.8726 32.7422" stroke="#212428" stroke-linecap="round" stroke-linejoin="round"/>
<path d="M18.3902 31.3029C17.3904 30.6269 16.5307 29.764 15.8584 28.7617" stroke="#212428" stroke-linecap="round" stroke-linejoin="round"/>
<path d="M14.4183 25.2874C14.188 24.1064 14.188 22.892 14.4183 21.7109" stroke="#212428" stroke-linecap="round" stroke-linejoin="round"/>
<path d="M15.8584 18.231C16.5344 17.2312 17.3973 16.3715 18.3996 15.6992" stroke="#212428" stroke-linecap="round" stroke-linejoin="round"/>
<path d="M23.6606 24.625C24.282 24.625 24.7856 24.1213 24.7856 23.5C24.7856 22.8787 24.282 22.375 23.6606 22.375C23.0393 22.375 22.5356 22.8787 22.5356 23.5C22.5356 24.1213 23.0393 24.625 23.6606 24.625Z" stroke="#212428" stroke-linecap="round" stroke-linejoin="round"/>
</svg>
