<svg width="47" height="47" viewBox="0 0 47 47" fill="none" xmlns="http://www.w3.org/2000/svg">
<circle cx="23.4408" cy="23.4994" r="15.64" fill="white" stroke="#212428"/>
<circle cx="23.4404" cy="23.5" r="21.8919" stroke="#B5B6B7" stroke-width="1.21622"/>
<g clip-path="url(#clip0_415_13844)">
<path d="M15.3037 24.5522C15.747 24.5522 16.1721 24.3761 16.4856 24.0627C16.799 23.7492 16.9751 23.3241 16.9751 22.8808V19.5379C16.9751 19.0947 17.1512 18.6695 17.4647 18.3561C17.7781 18.0426 18.2033 17.8665 18.6466 17.8665C19.0899 17.8665 19.515 18.0426 19.8284 18.3561C20.1419 18.6695 20.318 19.0947 20.318 19.5379V30.4022C20.318 30.8455 20.4941 31.2707 20.8075 31.5841C21.121 31.8976 21.5461 32.0737 21.9894 32.0737C22.4327 32.0737 22.8578 31.8976 23.1713 31.5841C23.4848 31.2707 23.6609 30.8455 23.6609 30.4022V17.0308C23.6609 16.5875 23.8369 16.1624 24.1504 15.8489C24.4639 15.5355 24.889 15.3594 25.3323 15.3594C25.7756 15.3594 26.2007 15.5355 26.5142 15.8489C26.8276 16.1624 27.0037 16.5875 27.0037 17.0308V27.8951C27.0037 28.3384 27.1798 28.7635 27.4933 29.077C27.8067 29.3904 28.2318 29.5665 28.6751 29.5665C29.1184 29.5665 29.5436 29.3904 29.857 29.077C30.1705 28.7635 30.3466 28.3384 30.3466 27.8951V24.5522C30.3466 24.1089 30.5227 23.6838 30.8361 23.3704C31.1496 23.0569 31.5747 22.8808 32.018 22.8808" stroke="#212428" stroke-linecap="round" stroke-linejoin="round"/>
</g>
<defs>
<clipPath id="clip0_415_13844">
<rect width="18" height="18" fill="white" transform="translate(14.6606 14.7148)"/>
</clipPath>
</defs>
</svg>
