<svg width="47" height="47" viewBox="0 0 47 47" fill="none" xmlns="http://www.w3.org/2000/svg">
<circle cx="23.4408" cy="23.4994" r="15.64" fill="white" stroke="#212428"/>
<circle cx="23.4404" cy="23.5" r="21.8919" stroke="#B5B6B7" stroke-width="1.21622"/>
<g clip-path="url(#clip0_415_13866)">
<path d="M29.1598 30.5H20.6598C19.3617 30.4997 18.0892 30.1384 16.9846 29.4565C15.88 28.7746 14.9867 27.7989 14.4047 26.6386C13.8226 25.4783 13.5747 24.179 13.6886 22.8858C13.8025 21.5927 14.2738 20.3567 15.0497 19.316C15.8256 18.2753 16.8756 17.4708 18.0824 16.9925C19.2892 16.5142 20.6053 16.3809 21.8835 16.6075C23.1617 16.8341 24.3517 17.4116 25.3206 18.2756C26.2894 19.1396 26.9989 20.256 27.3698 21.5H29.1598C30.3533 21.5 31.4979 21.9741 32.3418 22.818C33.1857 23.6619 33.6598 24.8065 33.6598 26C33.6598 27.1935 33.1857 28.3381 32.3418 29.182C31.4979 30.0259 30.3533 30.5 29.1598 30.5Z" stroke="#212428" stroke-linecap="round" stroke-linejoin="round"/>
</g>
<defs>
<clipPath id="clip0_415_13866">
<rect width="22" height="16" fill="white" transform="translate(12.6606 15.5)"/>
</clipPath>
</defs>
</svg>
