<svg width="47" height="47" viewBox="0 0 47 47" fill="none" xmlns="http://www.w3.org/2000/svg">
<circle cx="23.4408" cy="23.4994" r="15.64" fill="white" stroke="#212428"/>
<circle cx="23.4404" cy="23.5" r="21.8919" stroke="#B5B6B7" stroke-width="1.21622"/>
<path d="M14.4941 17.9987C15.0441 18.457 15.5941 18.9154 16.7858 18.9154C19.0775 18.9154 19.0775 17.082 21.3691 17.082C23.7525 17.082 23.5691 18.9154 25.9525 18.9154C28.2441 18.9154 28.2441 17.082 30.5358 17.082C31.7275 17.082 32.2775 17.5404 32.8275 17.9987" stroke="#212428" stroke-linecap="round" stroke-linejoin="round"/>
<path d="M14.4941 23.4987C15.0441 23.957 15.5941 24.4154 16.7858 24.4154C19.0775 24.4154 19.0775 22.582 21.3691 22.582C23.7525 22.582 23.5691 24.4154 25.9525 24.4154C28.2441 24.4154 28.2441 22.582 30.5358 22.582C31.7275 22.582 32.2775 23.0404 32.8275 23.4987" stroke="#212428" stroke-linecap="round" stroke-linejoin="round"/>
<path d="M14.4941 28.9987C15.0441 29.457 15.5941 29.9154 16.7858 29.9154C19.0775 29.9154 19.0775 28.082 21.3691 28.082C23.7525 28.082 23.5691 29.9154 25.9525 29.9154C28.2441 29.9154 28.2441 28.082 30.5358 28.082C31.7275 28.082 32.2775 28.5404 32.8275 28.9987" stroke="#212428" stroke-linecap="round" stroke-linejoin="round"/>
</svg>
