<svg width="145" height="25" viewBox="0 0 145 25" fill="none" xmlns="http://www.w3.org/2000/svg">
<rect x="0.438965" y="0.432617" width="144.311" height="24" rx="5" fill="#C7E5DB" fill-opacity="0.3"/>
<g clip-path="url(#clip0_2015_22)">
<path d="M17.439 19.4326C21.305 19.4326 24.439 16.2986 24.439 12.4326C24.439 8.56662 21.305 5.43262 17.439 5.43262C13.573 5.43262 10.439 8.56662 10.439 12.4326C10.439 16.2986 13.573 19.4326 17.439 19.4326Z" fill="#C7E5DB"/>
<path d="M14.6992 12.4323L16.6295 14.3206L20.4901 10.5439" stroke="#212428" stroke-width="0.795062" stroke-linecap="round" stroke-linejoin="round"/>
</g>
<path d="M34.048 16.2006L37.128 7.63262H38.122L34.538 17.4326H33.488L29.918 7.63262H30.968L34.048 16.2006ZM44.7064 13.7226C44.7064 13.9886 44.6924 14.2126 44.6504 14.3806H39.2184C39.3724 15.8226 40.3104 16.7186 41.5984 16.7186C42.4804 16.7186 43.1104 16.3406 43.5444 15.6126H44.4544C44.0344 16.7186 42.9284 17.5726 41.5704 17.5726C39.7224 17.5726 38.2804 16.1026 38.2804 13.9326C38.2804 11.8046 39.7644 10.2926 41.5704 10.2926C43.3764 10.2926 44.7064 11.7906 44.7064 13.7226ZM41.5704 11.1466C40.3944 11.1466 39.3584 12.1126 39.2044 13.5546H43.7824C43.6984 12.1546 42.7884 11.1466 41.5704 11.1466ZM47.1719 17.4326H46.2619V10.4326H46.9339L47.1719 11.3846H47.2419C47.5359 10.9366 48.2779 10.2926 49.1319 10.2926C49.2999 10.2926 49.4959 10.3066 49.6359 10.3486V11.2586C49.4679 11.2166 49.3139 11.2026 49.1599 11.2026C48.0119 11.2026 47.1719 12.0286 47.1719 13.4286V17.4326ZM51.222 9.31262C50.872 9.31262 50.592 9.04662 50.592 8.68262C50.592 8.30462 50.872 8.05262 51.222 8.05262C51.586 8.05262 51.852 8.30462 51.852 8.68262C51.852 9.04662 51.586 9.31262 51.222 9.31262ZM51.67 17.4326H50.76V10.4326H51.67V17.4326ZM54.9877 10.2366V10.4326H58.5577V17.4326H57.6477V11.2866H54.9877V17.4326H54.0777V11.2866H53.0697V10.4326H54.0777V10.2366C54.0777 8.50062 55.2117 7.49262 56.8637 7.49262C57.3397 7.49262 57.7037 7.56262 58.0957 7.74462V8.57062C57.7037 8.41662 57.2277 8.34662 56.8637 8.34662C55.7437 8.34662 54.9877 8.97662 54.9877 10.2366ZM66.472 13.7226C66.472 13.9886 66.458 14.2126 66.416 14.3806H60.984C61.138 15.8226 62.076 16.7186 63.364 16.7186C64.246 16.7186 64.876 16.3406 65.31 15.6126H66.22C65.8 16.7186 64.694 17.5726 63.336 17.5726C61.488 17.5726 60.046 16.1026 60.046 13.9326C60.046 11.8046 61.53 10.2926 63.336 10.2926C65.142 10.2926 66.472 11.7906 66.472 13.7226ZM63.336 11.1466C62.16 11.1466 61.124 12.1126 60.97 13.5546H65.548C65.464 12.1546 64.554 11.1466 63.336 11.1466ZM70.7855 17.5726C69.0215 17.5726 67.5655 16.0886 67.5655 13.9326C67.5655 11.7766 69.0215 10.2926 70.7855 10.2926C71.9475 10.2926 72.8155 11.0766 73.0255 11.3846H73.0955V7.63262H74.0055V17.4326H73.3335L73.0955 16.4806H73.0255C72.8155 16.7746 71.9475 17.5726 70.7855 17.5726ZM70.7855 16.7186C72.0455 16.7186 73.0955 15.5986 73.0955 13.9326C73.0955 12.2666 72.0455 11.1466 70.7855 11.1466C69.5255 11.1466 68.4755 12.2666 68.4755 13.9326C68.4755 15.5986 69.5255 16.7186 70.7855 16.7186ZM81.9844 17.5726C80.1784 17.5726 78.6944 16.0606 78.6944 13.9326C78.6944 11.8046 80.1784 10.2926 81.9844 10.2926C83.5944 10.2926 84.7704 11.5246 85.0364 12.9106H84.1264C83.8184 11.8746 83.1184 11.1466 81.9844 11.1466C80.7104 11.1466 79.6044 12.2666 79.6044 13.9326C79.6044 15.5986 80.7104 16.7186 81.9844 16.7186C83.1184 16.7186 83.8184 16.0046 84.1264 14.9546H85.0364C84.7704 16.3266 83.5944 17.5726 81.9844 17.5726ZM89.2416 17.5726C87.6596 17.5726 86.4556 16.3686 86.4556 14.4926V10.4326H87.3656V14.4926C87.3656 15.8926 88.1916 16.7186 89.3256 16.7186C90.5296 16.7186 91.3696 15.8926 91.3696 14.4926V10.4326H92.2796V17.4326H91.6076L91.3696 16.4806H91.2996C90.9916 16.9566 90.2776 17.5726 89.2416 17.5726ZM96.4052 17.5726C94.9212 17.5726 93.9132 16.5226 93.8292 15.4026H94.7392C94.8232 16.1726 95.4112 16.7186 96.4052 16.7186C97.3852 16.7186 97.8892 16.2146 97.8892 15.5846C97.8892 13.8766 94.0112 14.6746 94.0112 12.2526C94.0112 11.1746 94.9072 10.2926 96.3072 10.2926C97.6792 10.2926 98.6312 11.2446 98.7012 12.3926H97.7912C97.7072 11.6086 97.1892 11.1466 96.3072 11.1466C95.3972 11.1466 94.9212 11.6226 94.9212 12.2106C94.9212 13.8626 98.7992 13.1346 98.7992 15.5846C98.7992 16.6906 97.9172 17.5726 96.4052 17.5726ZM102.618 17.5726C101.526 17.5726 100.686 16.7606 100.686 15.3326V11.2866H99.4405V10.4326H99.9865C100.546 10.4326 100.84 10.1526 100.84 9.59262V8.57062H101.596V10.4326H103.234V11.2866H101.596V15.3466C101.596 16.2986 102.058 16.7186 102.758 16.7186C102.94 16.7186 103.08 16.6906 103.234 16.6346V17.4606C103.08 17.5166 102.912 17.5726 102.618 17.5726ZM107.414 17.5726C105.608 17.5726 104.124 16.0606 104.124 13.9326C104.124 11.8046 105.608 10.2926 107.414 10.2926C109.22 10.2926 110.704 11.8046 110.704 13.9326C110.704 16.0606 109.22 17.5726 107.414 17.5726ZM107.414 16.7186C108.688 16.7186 109.794 15.5986 109.794 13.9326C109.794 12.2666 108.688 11.1466 107.414 11.1466C106.14 11.1466 105.034 12.2666 105.034 13.9326C105.034 15.5986 106.14 16.7186 107.414 16.7186ZM119.088 10.2926C120.348 10.2926 121.398 11.3846 121.398 13.1486V17.4326H120.488V13.1486C120.488 11.8606 119.844 11.1466 118.92 11.1466C118.024 11.1466 117.282 11.9306 117.282 13.1486V17.4326H116.372V13.1486C116.372 11.8606 115.714 11.1466 114.804 11.1466C113.894 11.1466 113.166 11.9306 113.166 13.1486V17.4326H112.256V10.4326H112.928L113.166 11.3846H113.236C113.474 10.9786 114.034 10.2926 114.958 10.2926C116.148 10.2926 116.778 11.1886 116.988 11.6786C117.226 11.1886 117.856 10.2926 119.088 10.2926ZM129.308 13.7226C129.308 13.9886 129.294 14.2126 129.252 14.3806H123.82C123.974 15.8226 124.912 16.7186 126.2 16.7186C127.082 16.7186 127.712 16.3406 128.146 15.6126H129.056C128.636 16.7186 127.53 17.5726 126.172 17.5726C124.324 17.5726 122.882 16.1026 122.882 13.9326C122.882 11.8046 124.366 10.2926 126.172 10.2926C127.978 10.2926 129.308 11.7906 129.308 13.7226ZM126.172 11.1466C124.996 11.1466 123.96 12.1126 123.806 13.5546H128.384C128.3 12.1546 127.39 11.1466 126.172 11.1466ZM131.773 17.4326H130.863V10.4326H131.535L131.773 11.3846H131.843C132.137 10.9366 132.879 10.2926 133.733 10.2926C133.901 10.2926 134.097 10.3066 134.237 10.3486V11.2586C134.069 11.2166 133.915 11.2026 133.761 11.2026C132.613 11.2026 131.773 12.0286 131.773 13.4286V17.4326Z" fill="#212428"/>
<defs>
<clipPath id="clip0_2015_22">
<rect width="14.3111" height="14" fill="white" transform="translate(10.439 5.43262)"/>
</clipPath>
</defs>
</svg>
