<svg xmlns="http://www.w3.org/2000/svg" width="98" height="26" viewBox="0 0 98 26" fill="none">
<path fill-rule="evenodd" clip-rule="evenodd" d="M21.4282 21.4586C23.204 23.6524 25.9466 25.2584 28.814 25.2584C31.8762 25.2584 34.6373 23.5177 36.4654 21.1396C38.3296 18.6986 39.2442 15.6181 39.2442 12.5653C39.2442 9.37788 38.2411 6.14699 36.226 3.65258C34.477 1.48713 31.7521 -0.137745 28.9114 -0.137745C25.822 -0.137745 23.0437 1.57565 21.1972 3.97211C19.3246 6.41308 18.4189 9.49364 18.4189 12.5559C18.4189 15.7428 19.4047 18.9653 21.4282 21.4586ZM8.63718 0.38607H0V0.633834H2.27283L11.1939 25.0268L18.8631 0.633834H20.9227V0.38607H16.2624V0.633834H18.4016L12.9602 18.2806L6.51573 0.633834H8.63718V0.38607ZM58.1518 8.4371V-0.0403167H57.958C57.3635 0.403354 56.671 0.909361 55.8984 0.909361C55.2777 0.909361 54.6475 0.705595 54.0703 0.492402L53.5637 0.297023C52.8713 0.0214959 52.1348 -0.208984 51.3889 -0.208984C49.4806 -0.208984 47.6876 0.633832 46.2052 1.77942C42.9031 4.32673 41.3494 8.68539 41.3494 12.7601C41.3494 18.3341 44.705 25.0536 51.007 25.0536C52.3825 25.0536 53.5726 24.6549 54.8157 24.1044L55.3662 23.8027C55.9775 23.4653 56.6611 23.2165 57.363 23.2165C58.3299 23.2165 59.0847 23.7404 59.5646 24.5392H59.7322V14.7391H61.6321V14.4824H53.5098V14.7391H55.7287V21.291C55.7287 21.7258 55.7109 22.1511 55.4799 22.533C54.5836 23.9981 52.7901 24.8503 51.1039 24.8503C48.9819 24.8503 47.8369 23.8477 47.047 21.8059C45.9197 18.8945 45.6714 15.6904 45.6714 12.5831C45.6714 9.1123 46.1329 0.0136385 51.2102 0.0136385C53.4207 0.0136385 55.1163 1.94808 56.1812 3.67039C57.0775 5.14388 57.5924 6.76823 57.9564 8.4371H58.1518ZM69.2389 0.38607H60.5755L60.576 0.633834H62.9453V18.5823C62.9453 23.039 67.2426 24.9294 71.1393 24.9294C74.5829 24.9294 78.2579 23.216 78.2579 19.3466V0.633834H82.5548V24.2904H80.5219V24.5392H98V15.352H97.8046C97.7606 16.2399 97.6889 17.1361 97.5385 18.0151C97.2635 19.5865 96.4726 21.0422 95.3369 22.1605C94.0049 23.4737 92.1328 24.2904 90.2502 24.2904H86.6201V12.2892C87.0549 12.2536 87.4808 12.2269 87.9155 12.2269C90.6765 12.2269 91.7147 14.748 92.0966 17.1H92.3187V7.2559H92.0966C91.9636 9.84826 91.1736 11.943 88.1292 11.943C87.6227 11.943 87.1162 11.9074 86.6201 11.8545V0.633834H89.0428C91.2884 0.633834 93.4727 0.811405 95.0787 2.63114C96.6674 4.43306 97.1116 6.80332 97.3693 9.11125H97.538V0.385547H75.1774V0.633834H77.8928V19.2759C77.8928 22.1967 75.4875 24.1845 72.629 24.1845C69.9754 24.1845 66.9399 22.391 66.9399 19.4445V0.634358H69.2389V0.38607ZM29.051 0.420898C33.8177 0.420898 35.078 9.22675 35.078 12.751C35.078 16.2752 33.8177 25.0889 29.051 25.0894C24.2754 25.0894 23.0234 16.2836 23.0234 12.751C23.0234 9.21785 24.2665 0.420898 29.051 0.420898Z" fill="#C2BCB1"/>
</svg>