<svg width="100" height="26" viewBox="0 0 100 26" fill="none" xmlns="http://www.w3.org/2000/svg">
<path fill-rule="evenodd" clip-rule="evenodd" d="M22.396 21.8326C24.1853 24.043 26.9489 25.6612 29.8381 25.6612C32.9236 25.6612 35.7056 23.9074 37.5477 21.5111C39.4261 19.0516 40.3477 15.9476 40.3477 12.8715C40.3477 9.65985 39.3369 6.40436 37.3065 3.89096C35.5441 1.70903 32.7985 0.071782 29.9362 0.071782C26.8233 0.071782 24.0238 1.79823 22.1633 4.21292C20.2764 6.67248 19.3638 9.77649 19.3638 12.862C19.3638 16.0732 20.3571 19.3202 22.396 21.8326ZM9.50763 0.599585H0.804688V0.849235H3.09482L12.0838 25.428L19.8114 0.849235H21.8867V0.599585H17.1909V0.849235H19.3464L13.8636 18.6304L7.37003 0.849235H9.50763V0.599585ZM59.3992 8.71191V0.169952H59.204C58.6049 0.617001 57.9071 1.12686 57.1286 1.12686C56.5032 1.12686 55.8682 0.921542 55.2866 0.706726L54.7762 0.509859C54.0785 0.232235 53.3364 0 52.5848 0C50.662 0 48.8553 0.849233 47.3616 2.00354C44.0344 4.57024 42.4689 8.96209 42.4689 13.0679C42.4689 18.6842 45.85 25.4549 52.2 25.4549C53.586 25.4549 54.7852 25.0532 56.0377 24.4985L56.5924 24.1945C57.2083 23.8546 57.8971 23.6039 58.6044 23.6039C59.5787 23.6039 60.3393 24.1317 60.8227 24.9366H60.9916V15.0619H62.906V14.8033H54.7219V15.0619H56.9576V21.6637C56.9576 22.1017 56.9397 22.5303 56.7069 22.9151C55.8038 24.3913 53.9966 25.2501 52.2977 25.2501C50.1595 25.2501 49.0057 24.2399 48.2098 22.1825C47.074 19.249 46.8238 16.0204 46.8238 12.8895C46.8238 9.39225 47.2888 0.224318 52.4048 0.224318C54.6321 0.224318 56.3406 2.17349 57.4136 3.90891C58.3167 5.39362 58.8355 7.03033 59.2024 8.71191H59.3992ZM70.5707 0.599585H61.8414L61.8419 0.849235H64.2292V18.9344C64.2292 23.4249 68.5593 25.3298 72.4856 25.3298C75.9554 25.3298 79.6584 23.6033 79.6584 19.7045V0.849235H83.988V24.6859H81.9396V24.9366H99.5508V15.6794H99.3539C99.3096 16.5741 99.2373 17.4771 99.0858 18.3628C98.8087 19.9462 98.0117 21.413 96.8674 22.5398C95.5252 23.863 93.6389 24.6859 91.7419 24.6859H88.0843V12.5934C88.5223 12.5575 88.9514 12.5306 89.3895 12.5306C92.1716 12.5306 93.2177 15.0709 93.6024 17.4407H93.8262V7.52172H93.6024C93.4684 10.1338 92.6724 12.2445 89.6049 12.2445C89.0945 12.2445 88.5841 12.2086 88.0843 12.1553V0.849235H90.5254C92.788 0.849235 94.989 1.02816 96.6072 2.86175C98.208 4.67739 98.6556 7.0657 98.9153 9.39119H99.0853V0.599057H76.5544V0.849235H79.2905V19.6332C79.2905 22.5762 76.8669 24.5792 73.9867 24.5792C71.3128 24.5792 68.2542 22.772 68.2542 19.8032V0.849763H70.5707V0.599585ZM30.0775 0.633336C34.8805 0.633336 36.1504 9.50623 36.1504 13.0573C36.1504 16.6083 34.8805 25.4892 30.0775 25.4897C25.2655 25.4897 24.0041 16.6168 24.0041 13.0573C24.0041 9.49726 25.2566 0.633336 30.0775 0.633336Z" fill="#BABDBC"/>
</svg>
