<svg width="31" height="53" viewBox="0 0 31 53" fill="none" xmlns="http://www.w3.org/2000/svg">
<g clip-path="url(#clip0_21421_2015)">
<path d="M29.1396 42.5438V30.3662L29.6643 29.8945V43.0155H26.5762V35.9652L27.1008 35.5541V42.5438H29.1396Z" fill="#231F20"/>
<path d="M5.04295 8.40516H1.9668V27.6089C1.9668 35.3968 8.21448 41.7335 15.9049 41.7335C23.5953 41.7335 29.831 35.3968 29.831 27.6089C29.831 19.821 23.5833 13.4842 15.9049 13.4842C12.1729 13.4842 8.87026 15.008 6.10411 17.9828L5.96103 18.14V18.3577L6.06833 20.74L6.11602 21.9735L6.95064 21.0666C8.98949 18.8656 12.9122 16.58 15.9168 16.58C21.9022 16.58 26.7668 21.5261 26.7668 27.5847C26.7668 33.6433 21.8903 38.5893 15.9168 38.5893C9.94333 38.5893 5.05487 33.6433 5.05487 27.5847V8.39307H5.04295V8.40516ZM4.54218 8.92516V27.6089C4.54218 33.9698 9.63333 39.1335 15.9168 39.1335C22.2003 39.1335 27.2795 33.9577 27.2795 27.6089C27.2795 21.26 22.1764 16.0842 15.9168 16.0842C12.7453 16.0842 8.75103 18.394 6.56911 20.7279L6.47372 18.3456C9.03718 15.5884 12.161 14.0042 15.9049 14.0042C23.2972 14.0042 29.3183 20.1112 29.3183 27.6089C29.3183 35.1066 23.2972 41.2135 15.9049 41.2135C8.51256 41.2135 2.47949 35.1066 2.47949 27.6089V8.92516H4.53026H4.54218Z" fill="#231F20"/>
<path d="M29.2837 44.4907H27.0779C26.3864 44.4907 25.8379 45.047 25.8379 45.7484V49.9568C25.8379 50.6582 26.3864 51.2144 27.0779 51.2144H29.2837C29.9633 51.2144 30.5237 50.6582 30.5237 49.9568V45.7484C30.5237 45.047 29.9633 44.4907 29.2837 44.4907ZM29.2837 45.0107C29.6771 45.0107 30.011 45.3493 30.011 45.7484V49.9568C30.011 50.3679 29.6771 50.6944 29.2837 50.6944H27.0779C26.6725 50.6944 26.3506 50.3558 26.3506 49.9568V45.7484C26.3506 45.3372 26.6725 45.0107 27.0779 45.0107H29.2837Z" fill="#231F20"/>
<path d="M30.1301 47.1758H26.3027V47.5023H30.1301V47.1758Z" fill="#231F20"/>
<path d="M2.36109 7.23251H4.56686C5.2584 7.23251 5.80686 6.67623 5.80686 5.97483V1.76646C5.80686 1.06506 5.2584 0.508789 4.56686 0.508789H2.36109C1.68148 0.508789 1.12109 1.06506 1.12109 1.76646V5.97483C1.12109 6.67623 1.68148 7.23251 2.36109 7.23251ZM2.36109 6.71251C1.96763 6.71251 1.63379 6.3739 1.63379 5.97483V1.76646C1.63379 1.35529 1.96763 1.02879 2.36109 1.02879H4.56686C4.97225 1.02879 5.29417 1.36739 5.29417 1.76646V5.97483C5.29417 6.38599 4.97225 6.71251 4.56686 6.71251H2.36109Z" fill="#231F20"/>
<path d="M5.34099 4.20898H1.51367V4.53549H5.34099V4.20898Z" fill="#231F20"/>
</g>
<defs>
<clipPath id="clip0_21421_2015">
<rect width="31" height="52" fill="white" transform="translate(0 0.230469)"/>
</clipPath>
</defs>
</svg>
