<svg width="71" height="57" viewBox="0 0 71 57" fill="none" xmlns="http://www.w3.org/2000/svg">
<g clip-path="url(#clip0_21421_2039)">
<path d="M35.5691 38.2506C35.2591 38.2206 34.9591 38.1506 34.6791 38.0306C34.3291 37.8806 34.0091 37.6706 33.7491 37.4106C33.4791 37.1506 33.2691 36.8406 33.1091 36.4806C32.9491 36.1206 32.8691 35.7406 32.8691 35.3306C32.8691 34.9206 32.9591 34.5406 33.1091 34.1806C33.2691 33.8306 33.4891 33.5106 33.7491 33.2506C34.0191 32.9806 34.3291 32.7706 34.6791 32.6206C35.0391 32.4706 35.4091 32.3906 35.7991 32.3906C36.1891 32.3906 36.5591 32.4706 36.9191 32.6206C37.2691 32.7706 37.5791 32.9806 37.8591 33.2506C38.1291 33.5206 38.3391 33.8306 38.5091 34.1806C38.6691 34.5406 38.7491 34.9206 38.7491 35.3306C38.7491 35.7406 38.6691 36.1206 38.5091 36.4806C38.3391 36.8406 38.1291 37.1506 37.8591 37.4106C37.5791 37.6706 37.2691 37.8806 36.9191 38.0306C36.5891 38.1706 36.2391 38.2406 35.8691 38.2506C35.8691 38.2506 35.6891 38.2506 35.5791 38.2506M35.7991 38.0906C36.0991 38.0906 36.3591 38.0206 36.5791 37.8806C36.7991 37.7406 36.9791 37.5506 37.1191 37.3006C37.2591 37.0606 37.3691 36.7606 37.4391 36.4206C37.5091 36.0806 37.5391 35.7106 37.5391 35.3106C37.5391 34.9106 37.5091 34.5406 37.4391 34.2006C37.3691 33.8606 37.2691 33.5706 37.1191 33.3206C36.9791 33.0706 36.7991 32.8806 36.5791 32.7406C36.3591 32.6006 36.0991 32.5306 35.7991 32.5306C35.4991 32.5306 35.2391 32.6006 35.0091 32.7406C34.7991 32.8806 34.6191 33.0706 34.4791 33.3306C34.3391 33.5806 34.2391 33.8706 34.1791 34.2106C34.1091 34.5506 34.0791 34.9206 34.0791 35.3106C34.0791 35.7006 34.1191 36.0706 34.1791 36.4106C34.2491 36.7506 34.3491 37.0406 34.4791 37.2906C34.6191 37.5406 34.7991 37.7306 35.0091 37.8706C35.2291 38.0106 35.4891 38.0806 35.7991 38.0806" fill="black"/>
<path d="M38.7501 38.8704C38.3501 38.8704 37.9801 38.9004 37.6501 38.9704C37.3101 39.0404 37.0201 39.1404 36.7701 39.2804C36.5201 39.4204 36.3301 39.6004 36.1901 39.8204C36.0601 40.0404 35.9901 40.3004 35.9901 40.6004H35.8301V40.5304C35.8301 40.1704 35.9101 39.8204 36.0501 39.4804C36.2001 39.1304 36.4101 38.8104 36.6701 38.5404C36.9301 38.2704 37.2401 38.0504 37.6001 37.8904C37.9601 37.7304 38.3401 37.6504 38.7501 37.6504V38.8704Z" fill="black"/>
<path d="M28.8809 12.1506L28.2109 12.0806C28.2109 12.0006 28.2309 11.9006 28.2409 11.7906C28.2809 11.2906 28.3409 10.6006 28.5509 10.0306C28.7009 9.64065 28.8809 9.27064 29.1009 8.91064L29.6809 9.26064C29.4809 9.59064 29.3209 9.92065 29.1909 10.2706C29.0109 10.7506 28.9609 11.3906 28.9209 11.8506C28.9209 11.9606 28.9009 12.0706 28.8909 12.1606" fill="black"/>
<path d="M39.8109 15.9903C39.6609 15.5903 39.2909 13.9803 39.2009 13.3803C39.1309 12.8903 38.6609 11.7303 38.4609 11.5403L38.9209 11.0403C39.3109 11.3903 39.8009 12.7803 39.8709 13.2803C39.9609 13.8703 40.3209 15.4103 40.4409 15.7503L39.8109 15.9903ZM30.0209 16.1003L29.3809 15.8903C29.5909 15.0503 29.8709 14.2303 30.2109 13.4503C30.5309 12.7103 31.1409 11.5503 31.4809 11.0103L32.0809 11.3203L30.0309 16.1103L30.0209 16.1003ZM32.6609 16.1003C32.6209 15.3903 32.5809 14.4603 32.5509 13.5103C32.5409 13.1703 32.5509 12.6903 32.5509 12.2303C32.5509 11.8803 32.5609 11.5403 32.5609 11.2803H33.2309L33.3209 16.0703L32.6509 16.0903L32.6609 16.1003ZM36.8109 16.7503L35.7209 14.9503C35.5409 14.6503 35.2309 13.4403 35.1809 13.2203C35.1309 13.0003 35.0909 12.6603 35.0509 12.3303C35.0209 12.1003 34.9909 11.8403 34.9609 11.6603L34.9109 11.4403L35.5609 11.2603C35.5809 11.3303 35.6009 11.4103 35.6209 11.5203L36.8209 16.7503H36.8109Z" fill="black"/>
<path d="M53.1203 44.4506C53.7403 44.4506 54.2603 44.6006 54.6303 44.7506C55.1803 44.8906 55.7603 45.0106 56.3403 45.1106C57.7203 45.3306 58.9903 45.3806 60.2303 45.2506C61.5003 45.1206 61.8003 44.9006 61.9603 44.7806C62.6603 44.2506 62.8203 43.4606 62.8303 43.3706C62.8803 43.0806 62.9003 42.4606 62.4103 41.4506C62.0303 40.6806 61.4803 39.9506 60.8603 39.4006C59.8703 38.5206 58.9003 37.3306 56.9803 34.9506L56.9003 34.8506C54.9003 32.3806 53.8803 29.9906 53.4403 28.9706C52.7003 27.2206 52.3403 25.7606 51.6203 22.8706V22.8106C51.5203 22.4606 51.4403 22.1106 51.3503 21.7506C50.9603 20.1306 50.5203 18.2906 49.7103 15.9606C49.3903 15.0606 49.0803 14.2406 48.4203 13.3106C47.6903 12.2906 46.7303 11.3906 45.6303 10.7306C44.6103 10.1206 43.5103 9.71064 42.3403 9.52064L42.2203 9.50064L42.1803 9.38064C42.1403 9.24064 42.0003 8.98064 41.5603 8.73064C41.0903 8.47064 40.6503 8.41064 40.5803 8.42064H40.5603H40.5403C35.9103 8.35064 32.4303 8.37064 31.5003 8.42064C31.2303 8.43064 30.8003 8.48064 30.3303 8.69064C30.0003 8.84064 29.7003 9.05064 29.4403 9.31064L29.3903 9.36064H29.3303C27.6403 9.60064 26.1103 10.2506 24.9203 11.2606C24.8403 11.3306 24.7503 11.4006 24.6503 11.4806C23.9303 12.0506 22.9503 12.8406 22.4703 14.8006C21.7103 17.9506 20.8603 21.0806 19.9603 24.1006C19.3803 26.0406 18.7703 27.9806 17.6903 30.2806C16.5803 32.6406 15.6903 33.8906 15.0403 34.7106C14.3603 35.5706 13.5903 36.3806 12.7503 37.1206C11.6003 38.0806 10.6403 39.1206 9.90032 40.2206C9.71032 40.5006 9.22032 41.2306 8.92032 42.3006C8.77032 42.8606 8.65032 43.2606 8.79032 43.7006C9.06032 44.5506 10.0903 44.8906 10.2903 44.9506C11.6203 45.1706 13.0003 45.2606 14.3703 45.1906C15.3603 45.1406 16.3603 45.0206 17.3503 44.8206C17.7003 44.7006 18.3003 44.5506 19.0203 44.5706C19.6203 44.5806 20.2303 44.7106 20.7903 44.9506C20.6903 44.1406 20.6203 43.3306 20.5803 42.5206C20.5203 41.4206 20.4703 39.6206 20.7103 36.7206C20.7803 35.9106 21.0903 33.7006 21.7203 29.3006C21.7203 29.2906 21.9103 27.9306 22.5903 23.7706C22.8303 22.3306 22.9503 21.6606 23.2303 20.7306C23.7403 19.0306 24.4003 17.8206 24.8703 16.9306C25.6903 15.4306 26.6603 13.9806 27.7803 12.6306C27.9903 12.3306 28.4903 11.8806 29.2203 11.5606C30.2003 11.1406 30.6603 11.1106 31.3703 11.0606H31.5503C33.2503 10.9206 35.1203 10.9806 36.7203 11.0506C38.2603 11.1106 39.8303 11.2406 41.3803 11.4306C41.9403 11.5006 42.4703 11.6806 42.9603 11.9606C43.5303 12.2806 44.0303 12.7306 44.4103 13.2706C45.0403 14.1106 45.6403 15.0006 46.1803 15.9206C46.7603 16.9206 47.9003 19.1106 48.9603 22.4906C49.7303 24.9706 50.0703 26.8606 50.4503 29.0606L50.4703 29.1806C50.8703 31.4406 51.2703 33.7806 51.3503 36.8706C51.4103 39.0206 51.2803 40.9906 51.2303 41.7306V41.7806C51.1603 42.7206 51.0803 43.6506 50.9703 44.5506V44.5906C50.9003 44.7506 50.8403 44.9006 50.7703 45.0506C51.3203 44.8506 52.0603 44.6206 52.4003 44.5506C52.6503 44.5006 52.8903 44.4806 53.1103 44.4806M21.2103 45.1306C22.1503 45.9206 23.1703 46.5806 24.2503 47.0906C26.7403 48.2406 29.1103 48.3506 31.6303 48.4706L31.9703 48.4906C32.9903 48.5406 34.0003 48.5306 35.0803 48.4506C39.3903 48.1406 43.7703 47.6006 48.1103 46.8206C48.6203 46.6506 49.3903 46.2806 50.0003 45.5106C50.0603 45.4406 50.1103 45.3706 50.1603 45.3006V45.2806C50.1603 45.2806 50.1703 45.2706 50.1803 45.2606C50.3503 45.0106 50.4903 44.7406 50.5903 44.4506C50.6903 43.5606 50.7803 42.6506 50.8403 41.7206V41.6706C50.8903 40.9306 51.0203 38.9706 50.9603 36.8406C50.8903 33.7806 50.4803 31.4606 50.0903 29.2106L50.0703 29.0906C49.6903 26.9106 49.3503 25.0206 48.5903 22.5706C47.5503 19.2306 46.4203 17.0706 45.8503 16.0806C45.3203 15.1706 44.7303 14.2906 44.1003 13.4606C43.7503 12.9606 43.3003 12.5506 42.7803 12.2506C42.3403 12.0006 41.8503 11.8406 41.3403 11.7706C39.8003 11.5806 38.2403 11.4606 36.7103 11.3906C35.1203 11.3206 33.2603 11.2706 31.5803 11.3906H31.4003C30.7103 11.4506 30.2903 11.4806 29.3703 11.8706C28.7103 12.1606 28.2603 12.5606 28.0803 12.8106C26.9703 14.1606 26.0103 15.5806 25.2003 17.0606C24.7003 17.9806 24.0803 19.1306 23.5903 20.7906C23.3203 21.7006 23.2003 22.3606 22.9603 23.7806C22.2803 27.9306 22.0903 29.2906 22.0903 29.3006C21.4803 33.5606 21.1503 35.9006 21.0903 36.7006C20.8503 39.5706 20.9103 41.3506 20.9603 42.4506C21.0103 43.3306 21.0903 44.2206 21.2003 45.1006M33.1903 48.9006C32.7703 48.9006 32.3603 48.9006 31.9403 48.8706L31.6003 48.8506C29.0503 48.7306 26.6303 48.6206 24.0803 47.4306C22.9703 46.9106 21.9303 46.2406 20.9703 45.4406L20.9303 45.4206C20.3303 45.1206 19.6703 44.9506 19.0103 44.9406C18.3403 44.9306 17.7903 45.0606 17.4403 45.1806C16.4103 45.3906 15.3903 45.5206 14.3703 45.5706C12.9703 45.6406 11.5603 45.5506 10.1803 45.3106C9.83032 45.2106 8.72032 44.8106 8.39032 43.8006C8.22032 43.2606 8.36032 42.7606 8.51032 42.1806C8.79032 41.1706 9.23032 40.4406 9.54032 39.9906C10.3103 38.8606 11.2903 37.7906 12.4603 36.8106C13.2703 36.0906 14.0303 35.2906 14.7003 34.4506C15.3403 33.6406 16.2203 32.4206 17.3103 30.0906C18.3803 27.8106 18.9903 25.8906 19.5603 23.9606C20.4603 20.9406 21.3103 17.8206 22.0703 14.6806C22.5803 12.5906 23.6703 11.7206 24.3803 11.1506C24.4703 11.0806 24.5603 11.0106 24.6403 10.9406C25.8703 9.90064 27.4403 9.22064 29.1803 8.97064C29.4703 8.70064 29.7903 8.48064 30.1403 8.32064C30.6803 8.08064 31.1403 8.03064 31.4503 8.01064C32.3803 7.96064 35.8703 7.94064 40.5003 8.01064C40.7103 7.98064 41.2403 8.10064 41.7303 8.37064C42.1903 8.63064 42.3903 8.92064 42.4803 9.13064C43.6503 9.34064 44.7703 9.76064 45.8003 10.3806C46.9403 11.0706 47.9503 12.0006 48.7003 13.0706C49.3903 14.0406 49.7203 14.9206 50.0403 15.8206C50.8603 18.1706 51.3003 20.0206 51.6903 21.6506C51.7703 22.0106 51.8603 22.3606 51.9403 22.7006L51.9603 22.7606C52.6703 25.6406 53.0303 27.0806 53.7603 28.8006C54.2303 29.8906 55.1903 32.1606 57.1603 34.5906L57.2403 34.6906C59.1503 37.0506 60.1103 38.2406 61.0703 39.0906C61.7403 39.6806 62.3203 40.4506 62.7203 41.2706C63.2603 42.3806 63.2403 43.1006 63.1703 43.4406C63.1403 43.6106 62.9503 44.4906 62.1503 45.0906C61.8903 45.2906 61.5003 45.5106 60.2303 45.6406C58.9603 45.7706 57.6603 45.7206 56.2403 45.5006C55.6403 45.4006 55.0503 45.2806 54.4703 45.1306C54.0003 44.9406 53.2803 44.7606 52.4403 44.9106C51.9903 45.0006 50.8003 45.3906 50.4103 45.5706C50.3603 45.6306 50.3203 45.6906 50.2703 45.7506C49.6003 46.6006 48.7603 47.0006 48.1703 47.1906C43.7903 47.9806 39.3903 48.5306 35.0703 48.8306C34.4103 48.8706 33.7803 48.9006 33.1603 48.9006" fill="black"/>
</g>
<defs>
<clipPath id="clip0_21421_2039">
<rect width="56" height="42" fill="white" transform="translate(7.5 7.23047)"/>
</clipPath>
</defs>
</svg>
