<svg width="13" height="57" viewBox="0 0 13 57" fill="none" xmlns="http://www.w3.org/2000/svg">
<path d="M6.56445 1.56462H10.5035C10.5945 1.56462 11.2184 1.52486 11.7384 1.78997C12.1674 2.01532 12.4275 2.3202 12.4405 2.39974C12.5055 20.083 12.3755 37.7795 12.4405 55.4628C12.4405 55.5423 12.3624 55.94 11.8164 56.2316C11.3484 56.4835 10.8154 56.51 10.6724 56.51C9.41145 56.5232 8.13745 56.5497 6.87645 56.563" stroke="#231F20" stroke-width="0.5" stroke-miterlimit="10"/>
<path d="M7.07272 56.5632C5.98072 56.5632 4.27772 56.5632 3.19872 56.5632C3.10772 56.5632 2.48372 56.6163 1.96372 56.3379C1.53472 56.1125 1.45672 55.8077 1.43072 55.7281C1.37872 38.0449 1.31372 20.3484 1.26172 2.6651C1.26172 2.58556 1.32671 2.18789 1.88571 1.89626C2.35371 1.6444 2.88672 1.56486 3.02972 1.56486C4.29072 1.55161 5.56472 1.57812 6.82572 1.56486" stroke="#231F20" stroke-width="0.5" stroke-miterlimit="10"/>
<path d="M6.35786 51.2871C6.00686 51.2606 5.68186 51.1811 5.38286 51.0485C4.99286 50.8762 4.65486 50.6376 4.35586 50.346C4.05686 50.0543 3.82286 49.7097 3.65386 49.312C3.48486 48.9143 3.38086 48.4902 3.38086 48.0262C3.38086 47.5623 3.47186 47.1381 3.65386 46.7404C3.83586 46.3427 4.06986 45.9981 4.35586 45.6932C4.65486 45.4016 4.99286 45.163 5.38286 44.9906C5.77286 44.8183 6.17586 44.7388 6.60486 44.7388C7.03386 44.7388 7.43686 44.8183 7.82686 44.9906C8.21686 45.163 8.55486 45.4016 8.85386 45.6932C9.15286 45.9848 9.38686 46.3427 9.56886 46.7404C9.73786 47.1381 9.82886 47.5623 9.82886 48.0262C9.82886 48.4902 9.73786 48.9143 9.56886 49.312C9.38686 49.7097 9.15286 50.0543 8.85386 50.346C8.55486 50.6376 8.21686 50.8762 7.82686 51.0485C7.46286 51.2076 7.07286 51.2871 6.68286 51.3004C6.68286 51.3004 6.47486 51.3004 6.35786 51.3004M6.60486 51.1148C6.92986 51.1148 7.22886 51.0353 7.46286 50.8762C7.69686 50.7171 7.89186 50.505 8.04786 50.2267C8.20386 49.9483 8.32086 49.6302 8.39886 49.2457C8.47686 48.8613 8.50286 48.4637 8.50286 48.013C8.50286 47.5623 8.46386 47.1513 8.39886 46.7669C8.32086 46.3957 8.21686 46.0643 8.04786 45.786C7.89186 45.5076 7.69686 45.2955 7.46286 45.1364C7.22886 44.9774 6.94286 44.8978 6.60486 44.8978C6.26686 44.8978 5.98086 44.9774 5.74686 45.1364C5.51286 45.2955 5.31786 45.5076 5.16186 45.786C5.00586 46.0643 4.90186 46.3957 4.82386 46.7669C4.74586 47.1381 4.70686 47.549 4.70686 47.9997C4.70686 48.4504 4.74586 48.8481 4.82386 49.2325C4.88886 49.6037 5.00586 49.935 5.16186 50.2134C5.31786 50.4918 5.51286 50.7039 5.74686 50.8629C5.99386 51.022 6.27986 51.1016 6.60486 51.1016" fill="black"/>
<path d="M9.82819 51.9898C9.38619 51.9898 8.98319 52.0296 8.61919 52.0958C8.25519 52.1754 7.93019 52.2814 7.65719 52.4405C7.38419 52.5996 7.17619 52.7984 7.02019 53.0502C6.87719 53.2888 6.7992 53.5805 6.7992 53.9251H6.61719V53.8456C6.61719 53.4347 6.70819 53.0502 6.86419 52.6791C7.03319 52.2814 7.2542 51.9368 7.5402 51.6319C7.8262 51.327 8.16419 51.0884 8.55419 50.9028C8.94419 50.7172 9.3602 50.6377 9.8152 50.6377V52.003L9.82819 51.9898Z" fill="black"/>
<path d="M6.82419 13.1371C9.07861 13.1371 10.9062 11.2736 10.9062 8.97482C10.9062 6.67604 9.07861 4.8125 6.82419 4.8125C4.56976 4.8125 2.74219 6.67604 2.74219 8.97482C2.74219 11.2736 4.56976 13.1371 6.82419 13.1371Z" stroke="#231F20" stroke-width="0.5" stroke-miterlimit="10"/>
</svg>
