<svg width="65" height="30" viewBox="0 0 65 30" fill="none" xmlns="http://www.w3.org/2000/svg">
<g clip-path="url(#clip0_21421_1990)">
<path d="M8.72421 4.22496C6.7005 4.22496 4.85771 4.94867 3.51751 6.27548C1.99637 7.78991 1.18555 10.0415 1.18555 12.7755C1.18555 12.9698 1.33967 13.1239 1.54071 13.1239H2.24431C2.44534 13.1239 2.59277 12.9698 2.59277 12.7755C2.59277 10.4167 3.25617 8.52032 4.51596 7.27393C5.58142 6.22187 7.07575 5.63217 8.73091 5.63217C11.867 5.63217 15.1103 7.70279 15.1103 11.1605C15.1103 12.5945 14.5273 14.1157 13.9644 15.5765C12.9593 18.2033 11.8201 21.1719 14.1051 23.9126C15.5124 25.6012 17.2479 26.4523 19.2649 26.4523C22.2536 26.4523 25.0546 24.5827 26.2541 23.7786C28.8541 22.0497 30.4691 20.6425 30.6433 20.4884C30.7103 20.4281 30.7505 20.3409 30.7639 20.2404C30.7639 20.1466 30.7371 20.0595 30.6768 19.9858L30.2144 19.4564C30.1541 19.3894 30.067 19.3425 29.9665 19.3358H29.9464C29.8593 19.3358 29.7789 19.3693 29.7051 19.4296C29.6917 19.443 28.0902 20.8569 25.4768 22.5992C23.902 23.6445 21.5433 25.0451 19.2649 25.0451C17.6634 25.0451 16.3232 24.375 15.1773 23.0079C13.4216 20.9038 14.2794 18.6657 15.2711 16.0858C15.8809 14.4976 16.5108 12.8492 16.5108 11.1538C16.5108 6.81156 12.5505 4.21826 8.72421 4.21826M8.73761 4.56671C12.3964 4.56671 16.1758 7.02599 16.1758 11.1471C16.1758 12.7755 15.5593 14.3904 14.9629 15.9518C13.9778 18.525 13.0397 20.9574 14.9294 23.2224C16.2495 24.8038 17.7572 25.3868 19.285 25.3868C21.5567 25.3868 23.8685 24.1002 25.6912 22.8806C28.3314 21.125 29.9464 19.6909 29.9598 19.6775L30.4221 20.2069C30.4221 20.2069 28.7603 21.6744 26.0799 23.4703C24.8871 24.2677 22.1531 26.0837 19.285 26.0837C17.6098 26.0837 15.8876 25.4672 14.3866 23.6714C12.2356 21.0915 13.2943 18.344 14.2995 15.6971C14.8758 14.1961 15.4721 12.6415 15.4721 11.1471C15.4721 7.46826 12.0479 5.27032 8.74431 5.27032C7.00205 5.27032 5.4206 5.88682 4.28813 7.01259C2.96132 8.32599 2.25772 10.3162 2.25772 12.7688H1.55411C1.55411 10.1219 2.33143 7.96413 3.78555 6.51671C5.05205 5.26362 6.81442 4.56671 8.73761 4.56671Z" fill="#221F20"/>
<path d="M29.7927 2.90454L25.1556 2.38186L29.7927 2.89114V2.90454ZM56.4025 2.90454L61.0531 2.37517L56.4092 2.91125H56.4025V2.90454ZM23.3866 6.82465H23.3799V2.15403L23.3933 6.82465H23.3866ZM62.601 6.82465H62.5943V2.15403L62.6077 6.82465H62.601ZM63.0567 0.626198C62.9495 0.626198 62.8891 0.639598 62.8891 0.639598C55.4979 1.90609 47.6644 2.04012 44.6489 2.04012C43.6237 2.04012 43.0407 2.02671 43.034 2.02671C43.0139 2.02671 42.4242 2.04012 41.4056 2.04012C38.3768 2.04012 30.5567 1.90609 23.1654 0.639598C23.1654 0.639598 23.0917 0.626198 22.9979 0.626198C22.3211 0.626198 21.584 1.08857 21.584 2.39527V6.30867C21.584 7.33393 22.3211 8.20506 23.3263 8.37929C23.8087 8.4597 25.2025 8.63393 27.052 8.83496C26.7572 8.99579 26.5159 9.26382 26.3953 9.59218L25.6381 11.7097C25.3701 12.4602 25.6783 13.2777 26.3819 13.6597C28.8278 14.9865 30.2953 16.2463 30.2953 17.037C30.2953 18.136 30.034 18.538 29.9201 18.652C29.7056 18.8865 29.7056 19.235 29.9 19.4762L30.2886 19.9386C30.4092 20.0793 30.5835 20.1664 30.7644 20.1664H32.1046C32.4866 20.1664 32.8015 20.4478 32.8417 20.8298C33.0562 22.9674 34.3293 28.087 41.5464 29.5076C42.0087 29.6014 42.5113 29.6484 43.0273 29.6484C43.5433 29.6484 44.0391 29.6014 44.5015 29.5076C50.968 28.2344 52.6701 23.9994 53.1123 21.587C53.1324 21.4999 53.1391 21.4329 53.1525 21.3525C53.1793 21.1582 53.2128 20.9772 53.2262 20.8164C53.2329 20.736 53.2799 20.5618 53.3469 20.4143C53.4206 20.2602 53.4809 20.1061 53.5345 19.952C54.7206 16.454 57.8165 14.7721 57.8433 14.7587H57.8567L57.8768 14.7386C58.5469 14.2829 59.2304 13.8875 59.6994 13.6396C60.3964 13.2576 60.7113 12.4468 60.4366 11.6896L59.6726 9.57207C59.552 9.24372 59.3242 8.97568 59.0293 8.81485C60.8587 8.61382 62.2391 8.4396 62.7149 8.36589H62.7618C63.7603 8.18496 64.4907 7.31382 64.4907 6.28857V2.37517C64.4907 1.07517 63.7603 0.612793 63.0768 0.612793V0.626198H63.0567ZM29.7994 3.2597C29.9804 3.2597 30.1345 3.12568 30.1613 2.94475C30.1814 2.75042 30.0407 2.56949 29.8464 2.54939L25.2025 2.02671H25.1623C24.9814 2.02671 24.8273 2.16073 24.8005 2.34166C24.7804 2.53599 24.9211 2.71692 25.1154 2.73702L29.7592 3.2597H29.7994ZM56.4092 3.2597H56.4495L61.0866 2.73702C61.2876 2.71692 61.4216 2.54269 61.4015 2.34166C61.3814 2.16073 61.2273 2.02671 61.0396 2.02671H60.9994L56.3623 2.54939C56.1613 2.56949 56.0273 2.74372 56.0474 2.94475C56.0675 3.12568 56.2216 3.2597 56.4025 3.2597M23.4 7.17981C23.5943 7.17981 23.7618 7.01898 23.7618 6.81795V2.14733C23.7618 1.953 23.5943 1.78547 23.4 1.78547C23.2056 1.78547 23.0381 1.9463 23.0381 2.14733V6.81795C23.0381 7.01228 23.1989 7.17981 23.4 7.17981ZM62.6077 7.17981C62.802 7.17981 62.9696 7.01898 62.9696 6.81795V2.14733C62.9696 1.953 62.802 1.78547 62.6077 1.78547C62.4134 1.78547 62.2525 1.9463 62.2525 2.14733V6.81795C62.2525 7.01228 62.4134 7.17981 62.6077 7.17981ZM63.0567 0.967947C63.3515 0.967947 64.1221 1.08857 64.1221 2.38186V6.29527C64.1221 7.1396 63.5123 7.87001 62.6814 8.01743H62.6412C61.3278 8.22517 51.0216 9.41795 46.0428 9.47156C45.8216 9.47156 45.6541 9.65919 45.6809 9.88032C45.701 10.0612 45.8685 10.1953 46.0561 10.1953H46.0964C47.7984 10.0478 54.4123 9.47826 58.2051 8.99578C58.2453 8.99578 58.2989 8.98908 58.3391 8.98908C58.7814 8.98908 59.1835 9.26383 59.3376 9.69269L60.0948 11.8102C60.3092 12.3865 60.0613 13.0365 59.5185 13.3314C58.9891 13.6128 58.3123 14.0082 57.669 14.4504C57.669 14.4504 54.4391 16.1592 53.186 19.8381C53.1391 19.9855 53.0788 20.1329 53.0118 20.2803C52.9381 20.4411 52.8778 20.6556 52.8644 20.7896C52.851 20.9437 52.8242 21.1112 52.7974 21.2989C52.784 21.3793 52.7706 21.453 52.7572 21.5334C52.3283 23.8855 50.6732 27.9396 44.4278 29.1726C43.9654 29.2664 43.4964 29.3066 43.034 29.3066H43.0139C42.5448 29.3066 42.0757 29.2664 41.6067 29.1726C34.6443 27.7922 33.3912 22.9071 33.1835 20.803C33.1232 20.2468 32.6541 19.8246 32.0979 19.8246H30.7577C30.6773 19.8246 30.5969 19.7911 30.55 19.7241L30.1613 19.2618C30.0742 19.1545 30.0742 19.0004 30.168 18.8999C30.3556 18.6855 30.6304 18.1896 30.6304 17.0437C30.6304 15.7571 27.9969 14.1489 26.536 13.3582C25.9933 13.0633 25.752 12.4133 25.9598 11.837L26.717 9.7195C26.8711 9.29063 27.2732 9.01589 27.7154 9.01589C27.7556 9.01589 27.8092 9.01589 27.8494 9.02259C31.6489 9.50506 38.2964 10.0814 39.9783 10.2221H40.0051C40.2128 10.2221 40.3804 10.0545 40.3737 9.83341C40.367 9.63908 40.1927 9.49166 39.9917 9.49166C35.0061 9.43805 24.7268 8.24527 23.4067 8.03754H23.3799C22.5422 7.89681 21.9324 7.1664 21.9324 6.31537V2.40197C21.9324 1.11537 22.7031 0.988049 22.9979 0.988049H23.1051C30.4427 2.24784 38.1355 2.39527 41.3989 2.39527C42.4309 2.39527 43.0273 2.38186 43.0273 2.38186C43.0273 2.38186 43.617 2.39527 44.6556 2.39527C47.9257 2.39527 55.6118 2.24784 62.9494 0.988049H63.0567" fill="#221F20"/>
<path d="M2.86091 13.6665H1.06503C0.602658 13.6665 0.220703 14.0485 0.220703 14.5108V28.7907C0.220703 29.2531 0.602658 29.6351 1.06503 29.6351H2.86091C3.32328 29.6351 3.70524 29.2531 3.70524 28.7907V14.5108C3.70524 14.0485 3.32328 13.6665 2.86091 13.6665ZM2.86091 14.0217C3.13565 14.0217 3.35679 14.2428 3.35679 14.5175V28.7974C3.35679 29.0722 3.13565 29.2933 2.86091 29.2933H1.06503C0.790287 29.2933 0.569154 29.0789 0.569154 28.7974V14.5175C0.569154 14.2428 0.790287 14.0217 1.06503 14.0217H2.86091Z" fill="#221F20"/>
<path d="M1.96436 14.7725C1.22725 14.7725 0.630859 15.3689 0.630859 16.106C0.630859 16.8431 1.22725 17.4395 1.96436 17.4395C2.70148 17.4395 3.30457 16.8431 3.30457 16.106C3.30457 15.3689 2.70818 14.7725 1.96436 14.7725ZM1.96436 15.1276C2.51385 15.1276 2.94942 15.5699 2.94942 16.1127C2.94942 16.6555 2.50715 17.0977 1.96436 17.0977C1.42158 17.0977 0.979311 16.6555 0.979311 16.1127C0.979311 15.5699 1.42158 15.1276 1.96436 15.1276Z" fill="#221F20"/>
</g>
<defs>
<clipPath id="clip0_21421_1990">
<rect width="65" height="29.4845" fill="white" transform="translate(0 0.257812)"/>
</clipPath>
</defs>
</svg>
