<svg width="53" height="55" viewBox="0 0 53 55" fill="none" xmlns="http://www.w3.org/2000/svg">
<path d="M3.07303 1.6333H49.8367C50.985 1.6333 51.939 2.5873 51.939 3.7573V51.2413C51.939 52.4113 51.0027 53.3653 49.8367 53.3653H3.07303C1.92469 53.3653 0.970703 52.4113 0.970703 51.2413V3.7573C0.970703 2.5873 1.90703 1.6333 3.07303 1.6333Z" stroke="#231F20" stroke-width="0.5" stroke-miterlimit="2.61"/>
<path d="M32.7725 21.919V24.529C32.7725 24.529 26.8188 24.241 26.8188 28.291H26.5008C26.5008 28.291 26.2358 26.059 28.3911 23.809C28.3911 23.809 30.1578 21.919 32.7901 21.919M26.4301 10.669C26.4301 10.669 29.1685 10.525 29.9635 14.233C29.9635 14.233 30.5818 17.437 29.6985 20.281C29.6985 20.281 28.9741 22.927 26.3241 22.927C23.6741 22.927 23.0205 19.813 22.9321 19.381C22.8438 18.967 22.2431 15.169 23.4091 12.739C23.4091 12.739 24.2218 10.669 26.4301 10.669ZM26.4478 10.381C26.4478 10.381 22.1371 10.165 20.4588 14.755C20.4588 14.755 19.4165 17.437 21.0595 20.173C22.7201 22.909 25.4408 23.197 26.4478 23.215C27.3665 23.215 30.9351 22.783 32.2248 19.417C32.9668 17.437 32.6841 15.817 32.6311 15.565C32.5428 15.169 32.4191 14.701 32.1895 14.215C31.4121 12.505 29.6808 10.507 26.4478 10.381Z" fill="#231F20"/>
<path d="M38.3005 39.2174C38.4241 38.2814 39.0072 37.6334 39.8375 37.6334C40.7385 37.6334 41.2508 38.3174 41.3391 39.2174H38.3005ZM39.9788 42.7634C41.0565 42.7634 41.8338 42.3134 42.3992 41.6474L41.6042 40.9274C41.1272 41.3954 40.6678 41.6474 40.0142 41.6474C39.1485 41.6474 38.4595 41.1074 38.3182 40.1174H42.6642C42.6642 39.9734 42.6818 39.8474 42.6818 39.7394C42.6818 38.0114 41.7278 36.5174 39.8552 36.5174C38.1592 36.5174 36.9755 37.9214 36.9755 39.6314C36.9755 41.5034 38.3005 42.7634 40.0142 42.7634M32.5412 41.5574C31.6225 41.5574 30.8452 40.8014 30.8452 39.6314C30.8452 38.4074 31.6225 37.6874 32.5412 37.6874C33.4598 37.6874 34.2548 38.4434 34.2548 39.6134C34.2548 40.7834 33.4422 41.5574 32.5412 41.5574ZM32.2055 42.7454C33.1595 42.7454 33.7778 42.2414 34.2195 41.6294V42.6374H35.5798V34.3574H34.2195V37.5794C33.7955 37.0034 33.1772 36.5174 32.2055 36.5174C30.7922 36.5174 29.4672 37.6334 29.4672 39.6314C29.4672 41.6474 30.8275 42.7634 32.2055 42.7634M26.6582 42.6194H28.0185V36.6254H26.6582V42.6194ZM26.6052 35.7074H28.0538V34.3934H26.6052V35.7074ZM21.6762 42.7454C22.5948 42.7454 23.1425 42.2594 23.5135 41.6834V42.6194H24.8738V36.6254H23.5135V40.0094C23.5135 40.9454 22.9658 41.4854 22.1885 41.4854C21.4112 41.4854 20.9342 40.9634 20.9342 40.0274V36.6254H19.5738V40.4414C19.5738 41.8454 20.3512 42.7454 21.6762 42.7454ZM14.7508 42.7634C16.1288 42.7634 17.2418 42.2054 18.0192 41.5214V38.1914H14.6802V39.3974H16.6765V40.8914C16.1995 41.2514 15.5282 41.4854 14.7862 41.4854C13.1962 41.4854 12.1185 40.2794 12.1185 38.6414C12.1185 37.0934 13.2138 35.8154 14.6625 35.8154C15.6518 35.8154 16.2525 36.1394 16.8532 36.6614L17.7188 35.5994C16.9062 34.9154 16.0758 34.5194 14.7155 34.5194C12.3482 34.5194 10.6875 36.4094 10.6875 38.6234C10.6875 40.9634 12.2952 42.7274 14.7508 42.7274" fill="#231F20"/>
</svg>
