<svg width="289" height="21" viewBox="0 0 289 21" fill="none" xmlns="http://www.w3.org/2000/svg">
<path d="M29.2508 0.741406L21.2508 20.4414H19.6508L14.6508 10.4414L9.65078 20.4414H8.05078L0.0507812 0.741406H5.75078L9.35078 10.0414L13.8508 0.441406H15.4508L19.9508 10.0414L23.5508 0.741406H29.2508ZM51.5508 20.1414H46.5508V12.3414H39.3508V20.1414H34.3508V0.741406H39.3508V7.84141H46.4508V0.841406H51.4508V20.1414H51.5508ZM62.3508 10.4414C62.3508 13.7414 64.5508 15.8414 67.6508 15.8414C70.6508 15.8414 72.9508 13.7414 72.9508 10.4414C72.9508 7.24141 70.6508 5.04141 67.6508 5.04141C64.6508 5.04141 62.3508 7.24141 62.3508 10.4414ZM78.1508 10.4414C78.1508 16.1414 73.4508 20.4414 67.6508 20.4414C61.8508 20.4414 57.1508 16.1414 57.1508 10.4414C57.1508 4.74141 61.8508 0.441406 67.6508 0.441406C73.4508 0.441406 78.1508 4.74141 78.1508 10.4414ZM119.351 0.741406L111.351 20.4414H109.651L104.651 10.4414L99.7508 20.4414H98.1508L90.0508 0.741406H95.6508L99.3508 10.0414L103.851 0.441406H105.451L109.951 10.0414L113.551 0.741406H119.251H119.351ZM141.651 20.1414H136.551V12.3414H129.451V20.1414H124.451V0.741406H129.451V7.84141H136.551V0.841406H141.551V20.1414H141.651ZM156.051 7.94141L154.351 12.4414H157.751L156.051 7.94141ZM158.651 16.4414H153.351L151.851 20.1414H146.351L155.051 0.441406H157.551L165.751 20.1414H160.351L158.751 16.4414H158.651ZM257.451 7.94141L255.651 12.4414H259.051L257.451 7.94141ZM260.051 16.4414H254.751L253.151 20.1414H247.751L256.251 0.441406H258.751L267.051 20.1414H261.551L260.051 16.4414ZM183.351 5.34141H177.451V20.1414H172.451V5.34141H166.551V0.741406H183.351V5.44141V5.34141ZM224.451 0.741406L216.451 20.4414H214.751L209.851 10.4414L204.851 20.4414H203.251L195.251 0.741406H200.851L204.551 10.0414L209.051 0.441406H210.651L215.151 10.0414L218.751 0.741406H224.451ZM243.051 5.34141H234.551V7.94141H240.551V12.2414H234.551V15.4414H243.351V20.0414H229.451V0.741406H243.051V5.44141V5.34141ZM276.551 9.74141H279.051C280.551 9.74141 281.451 8.74141 281.451 7.44141C281.451 6.04141 280.451 5.14141 279.051 5.14141H276.551V9.74141ZM282.951 20.1414L278.651 14.1414H276.551V20.1414H271.451V0.741406H279.051C283.351 0.741406 286.551 3.34141 286.551 7.44141C286.551 9.84141 285.451 11.8414 283.551 12.9414L288.651 20.1414H282.951Z" fill="#1A1A1A"/>
</svg>
