<svg width="36" height="37" viewBox="0 0 36 37" fill="none" xmlns="http://www.w3.org/2000/svg">
<path d="M25.5 22.772H10.5C8.84315 22.772 7.5 24.1151 7.5 25.772V28.772C7.5 30.4288 8.84315 31.772 10.5 31.772H25.5C27.1569 31.772 28.5 30.4288 28.5 28.772V25.772C28.5 24.1151 27.1569 22.772 25.5 22.772Z" stroke="black" stroke-width="1.8" stroke-linecap="round" stroke-linejoin="round"/>
<path d="M22.5 4.77197H13.5C11.8431 4.77197 10.5 6.11512 10.5 7.77197V10.772C10.5 12.4288 11.8431 13.772 13.5 13.772H22.5C24.1569 13.772 25.5 12.4288 25.5 10.772V7.77197C25.5 6.11512 24.1569 4.77197 22.5 4.77197Z" stroke="black" stroke-width="1.8" stroke-linecap="round" stroke-linejoin="round"/>
<path d="M3 31.772H33" stroke="black" stroke-width="1.8" stroke-linecap="round" stroke-linejoin="round"/>
<path d="M3 4.77197H33" stroke="black" stroke-width="1.8" stroke-linecap="round" stroke-linejoin="round"/>
</svg>
