<svg xmlns="http://www.w3.org/2000/svg" width="131" height="22" viewBox="0 0 131 22" fill="none">
  <g clip-path="url(#clip0_13367_5137)">
    <path fill-rule="evenodd" clip-rule="evenodd" d="M92.7322 0.950477L95.1305 7.92382L102.624 8.00902C103.269 8.0164 103.536 8.82334 103.019 9.201L97.0066 13.5954L99.2398 20.6212C99.4316 21.2258 98.7333 21.7238 98.2069 21.3577L92.0941 17.1001L85.9804 21.3568C85.4547 21.7231 84.7557 21.2242 84.9475 20.6203L87.1807 13.5946L81.1688 9.20019C80.6515 8.82252 80.9185 8.01558 81.5633 8.0082L89.0567 7.92299L91.4551 0.949658C91.662 0.349977 92.5262 0.349977 92.7322 0.950477Z" fill="#008763"/>
    <path fill-rule="evenodd" clip-rule="evenodd" d="M119.268 0.950477L121.666 7.92382L129.16 8.00902C129.805 8.0164 130.072 8.82334 129.554 9.201L123.542 13.5954L125.775 20.6212C125.967 21.2258 125.269 21.7238 124.742 21.3577L118.629 17.1001L112.516 21.3568C111.99 21.7231 111.291 21.2242 111.483 20.6203L113.716 13.5946L107.704 9.20019C107.187 8.82252 107.454 8.01558 108.099 8.0082L115.592 7.92299L117.99 0.949658C118.197 0.349977 119.061 0.349977 119.268 0.950477Z" fill="#D9D9D9"/>
    <path fill-rule="evenodd" clip-rule="evenodd" d="M66.1396 0.950477L68.538 7.92382L76.0315 8.00902C76.6763 8.0164 76.9433 8.82334 76.426 9.201L70.414 13.5954L72.6472 20.6212C72.839 21.2258 72.1408 21.7238 71.6145 21.3577L65.5015 17.1001L59.3878 21.3568C58.8623 21.7231 58.1632 21.2242 58.3551 20.6203L60.5882 13.5946L54.5762 9.20019C54.0589 8.82252 54.3259 8.01558 54.9707 8.0082L62.4643 7.92299L64.8626 0.949658C65.0694 0.349977 65.9336 0.349977 66.1396 0.950477Z" fill="#008763"/>
    <path fill-rule="evenodd" clip-rule="evenodd" d="M39.5483 0.950477L41.9465 7.92382L49.44 8.00902C50.0849 8.0164 50.3518 8.82334 49.8346 9.201L43.8227 13.5954L46.0557 20.6212C46.2477 21.2258 45.5494 21.7238 45.023 21.3577L38.9101 17.1001L32.7963 21.3568C32.2708 21.7231 31.5718 21.2242 31.7636 20.6203L33.9968 13.5946L27.9847 9.20019C27.4676 8.82252 27.7346 8.01558 28.3794 8.0082L35.8728 7.92299L38.2711 0.949658C38.478 0.349977 39.3422 0.349977 39.5483 0.950477Z" fill="#008763"/>
    <path fill-rule="evenodd" clip-rule="evenodd" d="M12.9562 0.950477L15.3546 7.92382L22.8481 8.00902C23.4929 8.0164 23.7599 8.82334 23.2426 9.201L17.2306 13.5954L19.4638 20.6212C19.6556 21.2258 18.9574 21.7238 18.4311 21.3577L12.3181 17.1001L6.20433 21.3568C5.6788 21.7231 4.97975 21.2242 5.17161 20.6203L7.40473 13.5946L1.39274 9.20019C0.875548 8.82252 1.14249 8.01558 1.78732 8.0082L9.28082 7.92299L11.6791 0.949658C11.886 0.349977 12.7502 0.349977 12.9562 0.950477Z" fill="#008763"/>
    <path fill-rule="evenodd" clip-rule="evenodd" d="M121.722 7.92382L119.324 0.950477C119.118 0.349977 118.253 0.349977 118.047 0.949658L115.648 7.92301L108.155 8.0082C107.51 8.01558 107.243 8.82252 107.76 9.20019L113.772 13.5946L111.539 20.6203C111.347 21.2242 112.046 21.7231 112.572 21.3568L118.686 17.1001L122.819 19.9787V7.93629L121.722 7.92382Z" fill="#008763"/>
  </g>
  <defs>
    <clipPath id="clip0_13367_5137">
      <rect width="130.941" height="21" fill="white" transform="translate(0 0.5)"/>
    </clipPath>
  </defs>
</svg>