<svg xmlns="http://www.w3.org/2000/svg" width="166" height="129" viewBox="0 0 166 129" fill="none">
                        <g filter="url(#filter0_d_10448_1669)">
                          <rect x="18.0586" y="29.1179" width="133.501" height="82.25" rx="6.61306" fill="#C7E7DC"/>
                        </g>
                        <path fill-rule="evenodd" clip-rule="evenodd" d="M54.6608 79.696C55.948 80.2502 57.262 80.5827 58.6832 80.6935C59.1659 80.7489 59.9972 80.7212 59.9704 80.7212C61.6062 80.6935 63.1883 80.3333 64.69 79.696C66.299 78.9755 67.6934 78.0057 68.927 76.7865C70.1337 75.5674 71.1259 74.1265 71.8499 72.464C72.574 70.8014 72.9494 69.0281 72.9494 67.1162C72.9494 65.2042 72.574 63.4309 71.8499 61.7683C71.1259 60.1058 70.1605 58.665 68.927 57.4181C67.7202 56.1989 66.299 55.2291 64.69 54.5086C63.1079 53.8159 61.4185 53.4557 59.6754 53.4557C57.9324 53.4557 56.2698 53.8159 54.6876 54.5086C53.1055 55.2013 51.6842 56.1712 50.4775 57.4181C49.244 58.665 48.2786 60.1058 47.5545 61.7683C46.8305 63.4309 46.4551 65.232 46.4551 67.1162C46.4551 69.0281 46.8305 70.8291 47.5277 72.464C48.2786 74.1265 49.244 75.5674 50.4507 76.7865C51.6574 78.0057 53.0787 78.9755 54.6608 79.696ZM63.1883 79.0033C62.2229 79.6406 61.043 79.9731 59.6754 79.9731C58.3346 79.9731 57.1547 79.6683 56.1893 78.9755C55.1971 78.3382 54.3926 77.4239 53.7759 76.2878C53.1323 75.1517 52.6764 73.794 52.3814 72.2146C52.0865 70.6352 51.9256 68.9172 51.9256 67.0884C51.9256 65.2597 52.0865 63.5417 52.3814 61.9623C52.7032 60.3829 53.1591 59.0252 53.7759 57.8614C54.3926 56.6976 55.1971 55.8109 56.1893 55.1459C57.1547 54.4809 58.3346 54.1484 59.7022 54.1484C61.0699 54.1484 62.2229 54.4809 63.2151 55.1459C64.1805 55.8109 64.985 56.7253 65.6286 57.8614C66.2722 58.9975 66.7281 60.3829 66.9962 61.9346C67.2912 63.514 67.4521 65.232 67.4521 67.0884C67.4521 68.9727 67.2912 70.6906 66.9962 72.2423C66.7012 73.8217 66.2454 75.1794 65.6018 76.3155C64.985 77.4516 64.1805 78.366 63.1883 79.0033ZM118.216 75.1523C117.76 75.7342 117.143 76.2053 116.365 76.6209C115.588 77.0365 114.649 77.2305 113.55 77.2305C112.692 77.2305 111.914 77.0919 111.163 76.8149C110.439 76.5378 109.822 76.0944 109.286 75.5125C108.803 74.9584 108.428 74.2379 108.133 73.379L118.216 68.6407C118.216 68.6407 118.189 66.8951 116.634 64.7615C116.071 64.0134 115.266 63.5146 114.381 63.0713C113.496 62.6279 112.504 62.4062 111.405 62.4062C110.332 62.4062 109.313 62.6279 108.321 63.099C107.328 63.5423 106.444 64.2073 105.693 65.0386C104.942 65.8698 104.325 66.8674 103.869 68.0311C103.413 69.1949 103.172 70.4695 103.172 71.9104C103.172 73.1573 103.36 74.3211 103.735 75.374C104.111 76.4546 104.647 77.3967 105.371 78.1726C106.068 78.9761 106.926 79.5857 107.918 80.0568C108.911 80.5001 110.01 80.7495 111.244 80.7495C113.148 80.7495 114.703 80.223 115.91 79.1978C117.116 78.1726 117.948 76.8426 118.43 75.2909L118.216 75.1523ZM107.65 69.0287C107.704 68.2251 107.811 67.477 107.972 66.7565C108.133 66.0361 108.374 65.3988 108.669 64.8723C108.964 64.3182 109.313 63.9025 109.769 63.5977C110.198 63.2929 110.707 63.1267 111.27 63.1267C112.182 63.1267 112.853 63.5146 113.335 64.3182C113.818 65.094 114.032 66.9228 114.032 68.6407V69.7491L107.999 72.7139C107.784 71.8273 107.65 70.9406 107.65 69.7491V69.0287ZM89.6785 80.1949H85.4684V76.3988L85.4415 76.3711C85.2002 76.8698 84.9052 77.3686 84.5566 77.8951C84.208 78.4215 83.8326 78.8649 83.3499 79.2805C82.894 79.6961 82.3577 80.0564 81.7677 80.3057C81.1778 80.5828 80.5074 80.7214 79.7833 80.7214C78.2816 80.7214 77.1554 80.1949 76.3777 79.1143C75.6 78.0336 75.2246 76.6205 75.2246 74.8194V62.9323H79.6224V74.5423C79.6224 75.5675 79.837 76.3711 80.2929 76.953C80.7487 77.5349 81.4191 77.8119 82.2772 77.8119C83.0281 77.8119 83.618 77.618 84.1007 77.2301C84.5834 76.8421 84.9857 76.3434 85.2806 75.7338V62.9323H89.6785V80.1949ZM72.9499 83.6036C71.1532 83.6036 69.4906 83.7698 67.9889 84.0746C66.4872 84.3794 65.1732 84.8782 64.047 85.5155C62.9475 86.1805 62.0626 87.0118 61.4458 88.0093C60.829 89.0068 60.5072 90.226 60.5072 91.6114H59.7832V91.3066C59.8368 89.6164 60.1586 87.9816 60.7754 86.4299C61.4726 84.7951 62.4112 83.3265 63.5911 82.0519C64.771 80.7773 66.1654 79.7797 67.7744 79.0316C69.3834 78.2835 71.0996 77.8955 72.9499 77.8955V83.6036ZM99.6819 63.8746C100.138 63.4313 100.647 63.0711 101.21 62.794C101.774 62.5169 102.229 62.3783 102.846 62.406V67.5599H102.498C102.337 67.3382 102.095 67.1443 101.8 66.9503C101.505 66.784 101.21 66.6178 100.889 66.4792C100.594 66.3407 100.272 66.2299 99.9768 66.1467C99.6819 66.0636 99.4405 66.0082 99.226 66.0082C98.9578 66.0082 98.636 66.119 98.2874 66.3407C97.9656 66.5624 97.617 66.8672 97.2952 67.2828L97.322 80.1951H92.8438V72.8523L92.8706 62.9325H97.2952V66.4792C97.5705 66.1711 97.8655 65.8223 98.18 65.4504C98.2331 65.3876 98.2868 65.3241 98.3411 65.26C98.7701 64.7613 99.1992 64.2902 99.6819 63.8746Z" fill="white"/>
                        <path d="M120.739 62.4927V62.8019H120.23V64.4029H119.847V62.8019H119.338V62.4927H120.739Z" fill="white"/>
                        <path d="M123.183 62.4927V64.4029H122.8V63.1604L122.288 64.4029H121.998L121.484 63.1604V64.4029H121.101V62.4927H121.536L122.143 63.913L122.751 62.4927H123.183Z" fill="white"/>
                        <path d="M78.7016 83.5168C78.6513 83.4246 78.5821 83.3543 78.4941 83.3061C78.406 83.2579 78.3033 83.2338 78.1859 83.2338C78.0559 83.2338 77.9406 83.2631 77.84 83.3218C77.7394 83.3805 77.6607 83.4644 77.6041 83.5734C77.5475 83.6824 77.5192 83.8082 77.5192 83.9508C77.5192 84.0975 77.5475 84.2254 77.6041 84.3344C77.6628 84.4434 77.7435 84.5273 77.8463 84.586C77.949 84.6447 78.0685 84.674 78.2048 84.674C78.3725 84.674 78.5098 84.63 78.6167 84.5419C78.7236 84.4518 78.7938 84.3271 78.8274 84.1677H78.0727V83.8313H79.2613V84.2149C79.232 84.3679 79.1691 84.5094 79.0727 84.6394C78.9762 84.7694 78.8515 84.8742 78.6985 84.9539C78.5475 85.0315 78.3777 85.0702 78.189 85.0702C77.9773 85.0702 77.7855 85.0231 77.6136 84.9287C77.4438 84.8323 77.3096 84.6992 77.2111 84.5294C77.1146 84.3596 77.0664 84.1667 77.0664 83.9508C77.0664 83.7348 77.1146 83.542 77.2111 83.3721C77.3096 83.2002 77.4438 83.0671 77.6136 82.9728C77.7855 82.8763 77.9762 82.8281 78.1859 82.8281C78.4333 82.8281 78.6481 82.8889 78.8305 83.0105C79.0129 83.13 79.1387 83.2988 79.2079 83.5168H78.7016Z" fill="white"/>
                        <path d="M83.1719 82.8564V85.0514H82.7317V82.8564H83.1719Z" fill="white"/>
                        <path d="M88.1068 82.8564V83.2118H87.1918V83.7747H87.893V84.1237H87.1918V85.0514H86.7515V82.8564H88.1068Z" fill="white"/>
                        <path d="M93.0573 82.8564V83.2118H92.4724V85.0514H92.0322V83.2118H91.4473V82.8564H93.0573Z" fill="white"/>
                        <path d="M98.7379 83.9508C98.7379 83.7348 98.7861 83.542 98.8825 83.3721C98.981 83.2002 99.1142 83.0671 99.2819 82.9728C99.4517 82.8763 99.6414 82.8281 99.8511 82.8281C100.096 82.8281 100.311 82.891 100.496 83.0168C100.68 83.1426 100.809 83.3166 100.882 83.5388H100.376C100.326 83.434 100.255 83.3554 100.162 83.303C100.072 83.2506 99.9674 83.2243 99.8479 83.2243C99.72 83.2243 99.6058 83.2547 99.5051 83.3155C99.4066 83.3742 99.329 83.4581 99.2724 83.5671C99.2179 83.6761 99.1907 83.804 99.1907 83.9508C99.1907 84.0954 99.2179 84.2233 99.2724 84.3344C99.329 84.4434 99.4066 84.5283 99.5051 84.5891C99.6058 84.6478 99.72 84.6772 99.8479 84.6772C99.9674 84.6772 100.072 84.651 100.162 84.5985C100.255 84.544 100.326 84.4644 100.376 84.3596H100.882C100.809 84.5839 100.68 84.7589 100.496 84.8847C100.313 85.0084 100.098 85.0702 99.8511 85.0702C99.6414 85.0702 99.4517 85.0231 99.2819 84.9287C99.1142 84.8323 98.981 84.6992 98.8825 84.5294C98.7861 84.3596 98.7379 84.1667 98.7379 83.9508Z" fill="white"/>
                        <path d="M105.749 84.6331H104.875L104.73 85.0514H104.268L105.057 82.8533H105.57L106.359 85.0514H105.894L105.749 84.6331ZM105.63 84.2809L105.312 83.3627L104.994 84.2809H105.63Z" fill="white"/>
                        <path d="M110.931 85.0514L110.447 84.196H110.239V85.0514H109.799V82.8564H110.623C110.792 82.8564 110.937 82.8868 111.057 82.9476C111.176 83.0063 111.265 83.087 111.324 83.1898C111.385 83.2904 111.415 83.4036 111.415 83.5294C111.415 83.674 111.373 83.8051 111.289 83.9225C111.205 84.0378 111.081 84.1174 110.915 84.1614L111.44 85.0514H110.931ZM110.239 83.8658H110.607C110.726 83.8658 110.815 83.8375 110.874 83.7809C110.933 83.7222 110.962 83.6415 110.962 83.5388C110.962 83.4382 110.933 83.3606 110.874 83.3061C110.815 83.2495 110.726 83.2212 110.607 83.2212H110.239V83.8658Z" fill="white"/>
                        <path d="M115.725 82.8564C115.956 82.8564 116.158 82.9015 116.332 82.9916C116.508 83.0818 116.643 83.2107 116.738 83.3784C116.834 83.544 116.882 83.7369 116.882 83.957C116.882 84.1772 116.834 84.37 116.738 84.5357C116.643 84.6992 116.508 84.826 116.332 84.9162C116.158 85.0063 115.956 85.0514 115.725 85.0514H114.958V82.8564H115.725ZM115.709 84.6772C115.94 84.6772 116.118 84.6143 116.244 84.4885C116.37 84.3627 116.433 84.1856 116.433 83.957C116.433 83.7285 116.37 83.5503 116.244 83.4225C116.118 83.2925 115.94 83.2275 115.709 83.2275H115.398V84.6772H115.709Z" fill="white"/>
                        <g filter="url(#filter1_d_10448_1669)">
                          <rect x="7" y="41.5526" width="133.501" height="82.25" rx="6.61306" transform="rotate(-15 7 41.5526)" fill="#C7E7DC"/>
                        </g>
                        <path fill-rule="evenodd" clip-rule="evenodd" d="M55.4461 80.9344C56.8329 81.1366 58.1881 81.1177 59.5897 80.8569C60.0702 80.7855 60.866 80.5435 60.8401 80.5505C62.413 80.1003 63.848 79.3429 65.1336 78.3387C66.5013 77.2263 67.5972 75.9287 68.4732 74.4318C69.3232 72.9418 69.9087 71.2932 70.1778 69.5C70.4468 67.7067 70.3505 65.8966 69.8556 64.0498C69.3608 62.203 68.5392 60.5873 67.4095 59.1688C66.2799 57.7503 64.9745 56.6084 63.4602 55.7232C61.9791 54.8579 60.3552 54.289 58.6146 54.0095C56.9071 53.7499 55.182 53.8392 53.4984 54.2904C51.8147 54.7415 50.302 55.5197 48.9531 56.5984C47.6041 57.677 46.4823 58.9816 45.6394 60.4983C44.7706 62.022 44.2111 63.6636 43.942 65.4569C43.6729 67.2502 43.7764 69.087 44.2641 70.907C44.7589 72.7538 45.5877 74.3963 46.6843 75.795C47.8399 77.2066 49.1453 78.3485 50.6264 79.2138C52.1076 80.0791 53.7314 80.648 55.4461 80.9344ZM63.5038 78.0582C62.7363 78.9237 61.6826 79.5502 60.3616 79.9042C59.0665 80.2512 57.8479 80.2622 56.7361 79.8429C55.6128 79.4841 54.599 78.8091 53.7092 77.8714C52.7936 76.9406 52.0018 75.7471 51.3081 74.2979C50.6144 72.8486 50.0143 71.2309 49.541 69.4644C49.0677 67.6979 48.7785 65.9969 48.6546 64.3949C48.5567 62.7861 48.6456 61.3566 48.9401 60.0729C49.2347 58.7891 49.7823 57.7244 50.5685 56.8253C51.3289 55.9331 52.3826 55.3065 53.7036 54.9525C55.0246 54.5986 56.2245 54.6213 57.355 55.0069C58.4596 55.3994 59.4733 56.0744 60.389 57.0052C61.3047 57.9359 62.1036 59.1562 62.7642 60.5856C63.4579 62.0348 64.058 63.6526 64.5385 65.4458C65.0262 67.2658 65.3154 68.9669 65.4321 70.5421C65.5559 72.144 65.467 73.5735 65.1394 74.8374C64.8376 76.0944 64.2972 77.1858 63.5038 78.0582ZM115.658 60.0965C115.369 60.7766 114.895 61.3912 114.251 61.994C113.608 62.5967 112.751 63.027 111.689 63.3116C110.86 63.5336 110.073 63.6011 109.276 63.5278C108.505 63.4475 107.795 63.1789 107.126 62.7557C106.516 62.3453 105.967 61.7466 105.46 60.9932L113.973 53.8068C113.973 53.8068 113.495 52.1276 111.441 50.4693C110.703 49.8924 109.797 49.6188 108.827 49.4196C107.858 49.2204 106.842 49.2631 105.78 49.5477C104.744 49.8253 103.817 50.3031 102.981 51.0149C102.137 51.7 101.454 52.5714 100.944 53.5686C100.434 54.5659 100.097 55.6891 99.9574 56.9312C99.8183 58.1733 99.9151 59.4669 100.288 60.8587C100.611 62.0631 101.093 63.1387 101.728 64.0585C102.371 65.0052 103.133 65.7764 104.033 66.3384C104.914 66.9341 105.901 67.3009 106.981 67.4991C108.054 67.6705 109.181 67.6268 110.372 67.3076C112.211 66.8148 113.577 65.9037 114.478 64.6011C115.378 63.2985 115.837 61.7986 115.901 60.1748L115.658 60.0965ZM103.868 56.9161C103.712 56.126 103.622 55.3756 103.591 54.6381C103.56 53.9006 103.628 53.2225 103.776 52.6377C103.918 52.026 104.147 51.5343 104.508 51.1219C104.844 50.7165 105.293 50.424 105.837 50.2783C106.718 50.0423 107.466 50.2435 108.14 50.8947C108.807 51.5192 109.488 53.2301 109.932 54.8896L110.219 55.9601L105.158 60.3856C104.722 59.5846 104.363 58.7629 104.054 57.612L103.868 56.9161ZM89.4038 72.3522L85.3371 73.4418L84.3546 69.7751L84.3215 69.7553C84.2175 70.2995 84.0616 70.8576 83.8612 71.4564C83.6607 72.0551 83.4128 72.5805 83.0541 73.1069C82.7214 73.6264 82.2966 74.1131 81.7912 74.5067C81.2931 74.927 80.6814 75.2344 79.982 75.4218C78.5315 75.8104 77.3074 75.5934 76.2765 74.7509C75.2456 73.9083 74.5173 72.6405 74.0511 70.9008L70.9745 59.4187L75.2225 58.2805L78.2274 69.4949C78.4927 70.4852 78.9079 71.2058 79.4989 71.6499C80.0898 72.094 80.8091 72.1881 81.638 71.966C82.3632 71.7717 82.8829 71.4316 83.2487 70.932C83.6145 70.4324 83.874 69.8465 84.0011 69.1813L80.6879 56.816L84.9359 55.6778L89.4038 72.3522ZM74.1231 79.9755C72.3877 80.4405 70.8248 81.0314 69.4531 81.7145C68.0815 82.3976 66.9413 83.2194 66.0184 84.1265C65.1285 85.0535 64.4889 86.0854 64.1513 87.2086C63.8137 88.3318 63.8185 89.5927 64.177 90.9309L63.4777 91.1183L63.3988 90.8239C63.0131 89.1774 62.9008 87.515 63.095 85.8565C63.3453 84.0969 63.8718 82.4355 64.6816 80.8989C65.4914 79.3624 66.5802 78.0379 67.9407 76.8989C69.3012 75.7598 70.8585 74.9409 72.6458 74.462L74.1231 79.9755ZM94.8416 53.999C95.1672 53.4528 95.5661 52.973 96.0383 52.5596C96.5106 52.1462 96.915 51.8944 97.518 51.7615L98.8519 56.7398L98.5152 56.83C98.3024 56.6575 98.019 56.5326 97.6839 56.4216C97.356 56.3374 97.028 56.2531 96.6813 56.2026C96.3605 56.1451 96.021 56.1213 95.7146 56.1174C95.4081 56.1135 95.1607 56.1224 94.9535 56.1779C94.6944 56.2473 94.4123 56.4377 94.1329 56.742C93.8795 57.0394 93.6216 57.424 93.4184 57.9088L96.7862 70.3742L92.4605 71.5333L90.5601 64.4406L88.0185 54.8519L92.2924 53.7067L93.2104 57.1326C93.3966 56.7637 93.5912 56.3505 93.7987 55.9098C93.8338 55.8354 93.8692 55.7602 93.905 55.6843C94.1904 55.0915 94.4829 54.5254 94.8416 53.999Z" fill="white"/>
                        <path d="M114.822 47.215L114.902 47.5137L114.411 47.6454L114.825 49.1918L114.455 49.291L114.04 47.7446L113.549 47.8763L113.469 47.5776L114.822 47.215Z" fill="white"/>
                        <path d="M117.183 46.5824L117.678 48.4275L117.307 48.5266L116.986 47.3265L116.813 48.6591L116.533 48.7342L115.714 47.6672L116.036 48.8673L115.666 48.9665L115.172 47.1214L115.592 47.0088L116.546 48.2235L116.765 46.6943L117.183 46.5824Z" fill="white"/>
                        <path d="M79.6562 78.4026C79.5837 78.3266 79.4987 78.2766 79.4012 78.2528C79.3036 78.229 79.1982 78.2323 79.0848 78.2627C78.9592 78.2964 78.8554 78.3546 78.7734 78.4373C78.6914 78.5201 78.6372 78.6214 78.6107 78.7413C78.5843 78.8613 78.5895 78.9901 78.6264 79.1278C78.6644 79.2696 78.7248 79.3858 78.8077 79.4764C78.8926 79.5665 78.9923 79.6266 79.1067 79.6567C79.2211 79.6869 79.3441 79.6843 79.4758 79.649C79.6378 79.6056 79.759 79.5275 79.8395 79.4148C79.9194 79.3001 79.955 79.1614 79.9461 78.9988L79.2171 79.1942L79.1301 78.8692L80.2782 78.5615L80.3775 78.9321C80.3888 79.0875 80.3646 79.2405 80.3051 79.391C80.2456 79.5415 80.1523 79.675 80.0251 79.7916C79.8993 79.9056 79.7454 79.987 79.5631 80.0358C79.3586 80.0906 79.1611 80.0947 78.9706 80.0481C78.7817 79.9989 78.6176 79.905 78.4785 79.7665C78.3414 79.6274 78.2449 79.4536 78.189 79.245C78.1331 79.0364 78.1298 78.8377 78.179 78.6487C78.2296 78.4571 78.3248 78.2938 78.4644 78.1588C78.6055 78.0211 78.7773 77.9252 78.9798 77.8709C79.2187 77.8069 79.442 77.81 79.6497 77.8802C79.8568 77.9484 80.0219 78.0789 80.1452 78.2716L79.6562 78.4026Z" fill="white"/>
                        <path d="M83.8032 76.6078L84.3713 78.7279L83.9461 78.8419L83.378 76.7217L83.8032 76.6078Z" fill="white"/>
                        <path d="M88.57 75.3305L88.662 75.6737L87.7781 75.9106L87.9238 76.4543L88.6011 76.2728L88.6914 76.61L88.0141 76.7914L88.2542 77.6875L87.8289 77.8014L87.2609 75.6813L88.57 75.3305Z" fill="white"/>
                        <path d="M93.3518 74.0492L93.4438 74.3925L92.8788 74.5438L93.3549 76.3208L92.9297 76.4347L92.4536 74.6578L91.8886 74.8092L91.7966 74.4659L93.3518 74.0492Z" fill="white"/>
                        <path d="M99.122 73.636C99.0661 73.4275 99.0628 73.2287 99.112 73.0397C99.1627 72.8482 99.2568 72.6851 99.3944 72.5506C99.5334 72.4135 99.7042 72.3178 99.9067 72.2635C100.144 72.2001 100.367 72.2052 100.578 72.2789C100.789 72.3527 100.959 72.4874 101.087 72.6831L100.598 72.8141C100.522 72.7259 100.433 72.6684 100.33 72.6416C100.23 72.6143 100.122 72.6162 100.006 72.6471C99.8827 72.6802 99.7802 72.7391 99.6987 72.8239C99.6188 72.9061 99.5655 73.0072 99.5391 73.1271C99.5146 73.2465 99.5214 73.3771 99.5594 73.5188C99.5968 73.6586 99.6563 73.775 99.7377 73.8682C99.8206 73.9589 99.9175 74.0208 100.028 74.0541C100.141 74.0847 100.259 74.0835 100.382 74.0504C100.498 74.0195 100.592 73.967 100.666 73.8931C100.741 73.8165 100.789 73.7211 100.81 73.6069L101.299 73.4758C101.287 73.7115 101.207 73.914 101.062 74.0832C100.918 74.2499 100.726 74.3652 100.487 74.4293C100.285 74.4835 100.089 74.4871 99.9006 74.4399C99.7137 74.3901 99.5506 74.296 99.4115 74.1575C99.2744 74.0184 99.1779 73.8446 99.122 73.636Z" fill="white"/>
                        <path d="M106.071 72.4805L105.226 72.7068L105.195 73.1482L104.748 73.2679L104.942 70.9404L105.437 70.8077L106.768 72.7266L106.319 72.8471L106.071 72.4805ZM105.864 72.1713L105.32 71.3665L105.251 72.3357L105.864 72.1713Z" fill="white"/>
                        <path d="M111.184 71.5434L110.495 70.8425L110.295 70.8963L110.516 71.7224L110.091 71.8364L109.523 69.7162L110.319 69.503C110.483 69.459 110.63 69.451 110.761 69.4788C110.892 69.5045 110.999 69.5594 111.082 69.6435C111.167 69.7249 111.226 69.8264 111.258 69.9479C111.296 70.0876 111.289 70.225 111.238 70.3602C111.187 70.4932 111.087 70.6025 110.939 70.6879L111.676 71.4115L111.184 71.5434ZM110.209 70.5773L110.565 70.4821C110.68 70.4512 110.759 70.4008 110.801 70.3309C110.842 70.259 110.85 70.1734 110.823 70.0742C110.797 69.977 110.749 69.9097 110.678 69.8722C110.607 69.8328 110.513 69.8285 110.398 69.8594L110.042 69.9546L110.209 70.5773Z" fill="white"/>
                        <path d="M115.247 68.1824C115.47 68.1227 115.677 68.1139 115.868 68.1559C116.062 68.1974 116.226 68.2869 116.36 68.4245C116.496 68.5595 116.593 68.7333 116.65 68.946C116.707 69.1586 116.71 69.3574 116.66 69.5423C116.611 69.7247 116.513 69.8822 116.367 70.0148C116.222 70.1469 116.038 70.2428 115.815 70.3025L115.074 70.5011L114.506 68.381L115.247 68.1824ZM115.703 69.9451C115.926 69.8854 116.082 69.7786 116.171 69.6245C116.26 69.4705 116.275 69.2831 116.216 69.0624C116.156 68.8416 116.05 68.6858 115.895 68.5948C115.74 68.5018 115.551 68.4852 115.328 68.5449L115.027 68.6254L115.403 70.0257L115.703 69.9451Z" fill="white"/>
                        <defs>
                          <filter id="filter0_d_10448_1669" x="14.3801" y="25.4394" width="142.512" height="91.2603" filterUnits="userSpaceOnUse" color-interpolation-filters="sRGB">
                            <feFlood flood-opacity="0" result="BackgroundImageFix"/>
                            <feColorMatrix in="SourceAlpha" type="matrix" values="0 0 0 0 0 0 0 0 0 0 0 0 0 0 0 0 0 0 127 0" result="hardAlpha"/>
                            <feOffset dx="0.826633" dy="0.826633"/>
                            <feGaussianBlur stdDeviation="2.25257"/>
                            <feComposite in2="hardAlpha" operator="out"/>
                            <feColorMatrix type="matrix" values="0 0 0 0 0 0 0 0 0 0 0 0 0 0 0 0 0 0 0.18 0"/>
                            <feBlend mode="normal" in2="BackgroundImageFix" result="effect1_dropShadow_10448_1669"/>
                            <feBlend mode="normal" in="SourceGraphic" in2="effect1_dropShadow_10448_1669" result="shape"/>
                          </filter>
                          <filter id="filter1_d_10448_1669" x="0.707235" y="0.707479" width="164.479" height="128.238" filterUnits="userSpaceOnUse" color-interpolation-filters="sRGB">
                            <feFlood flood-opacity="0" result="BackgroundImageFix"/>
                            <feColorMatrix in="SourceAlpha" type="matrix" values="0 0 0 0 0 0 0 0 0 0 0 0 0 0 0 0 0 0 127 0" result="hardAlpha"/>
                            <feOffset dx="0.826633" dy="0.826633"/>
                            <feGaussianBlur stdDeviation="4.30189"/>
                            <feComposite in2="hardAlpha" operator="out"/>
                            <feColorMatrix type="matrix" values="0 0 0 0 0 0 0 0 0 0 0 0 0 0 0 0 0 0 0.25 0"/>
                            <feBlend mode="normal" in2="BackgroundImageFix" result="effect1_dropShadow_10448_1669"/>
                            <feBlend mode="normal" in="SourceGraphic" in2="effect1_dropShadow_10448_1669" result="shape"/>
                          </filter>
                        </defs>
                      </svg>