 <svg xmlns="http://www.w3.org/2000/svg" width="14" height="13" viewBox="0 0 14 13" fill="none">
                      <path fill-rule="evenodd" clip-rule="evenodd"
                        d="M13.0415 5.92931C11.7646 8.64638 8.46505 11.3226 6.66447 12.4999C3.40282 10.3728 1.67542 7.87642 0.867083 6.03615C0.496728 5.47301 0.28125 4.79895 0.28125 4.07455C0.28125 2.10038 1.88163 0.5 3.8558 0.5C5.15664 0.5 6.29519 1.19486 6.92051 2.23367C7.54583 1.19486 8.68438 0.5 9.98521 0.5C11.8198 0.5 13.3316 1.88213 13.5362 3.66195C13.5584 3.78217 13.5665 3.911 13.5597 4.04885C13.5597 4.05741 13.5598 4.06598 13.5598 4.07455C13.5598 4.75369 13.3704 5.38859 13.0415 5.92931Z"
                        fill="#C92127" />
                    </svg>