<svg xmlns="http://www.w3.org/2000/svg" width="92" height="16" viewBox="0 0 92 16" fill="none">
  <path fill-rule="evenodd" clip-rule="evenodd" d="M65.5369 0.914526L67.2395 5.86499L72.5592 5.92547C73.017 5.93071 73.2065 6.50357 72.8393 6.77168L68.5714 9.89131L70.1567 14.879C70.2929 15.3082 69.7972 15.6618 69.4235 15.4018L65.0839 12.3793L60.7437 15.4013C60.3706 15.6612 59.8743 15.307 60.0105 14.8784L61.5958 9.89073L57.3279 6.7711C56.9607 6.50299 57.1502 5.93013 57.608 5.92489L62.9277 5.86441L64.6303 0.913945C64.7771 0.488224 65.3907 0.488224 65.5369 0.914526Z" fill="#008763"/>
  <path fill-rule="evenodd" clip-rule="evenodd" d="M84.3743 0.914526L86.0769 5.86499L91.3966 5.92547C91.8544 5.93071 92.0439 6.50357 91.6768 6.77168L87.4088 9.89131L88.9941 14.879C89.1303 15.3082 88.6346 15.6618 88.2609 15.4018L83.9213 12.3793L79.5811 15.4013C79.208 15.6612 78.7117 15.307 78.8479 14.8784L80.4332 9.89073L76.1653 6.7711C75.7981 6.50299 75.9876 5.93013 76.4454 5.92489L81.7651 5.86441L83.4677 0.913945C83.6145 0.488224 84.2281 0.488224 84.3743 0.914526Z" fill="#D9D9D9"/>
  <path fill-rule="evenodd" clip-rule="evenodd" d="M46.658 0.914526L48.3606 5.86499L53.6803 5.92547C54.1381 5.93071 54.3276 6.50357 53.9604 6.77168L49.6925 9.89131L51.2778 14.879C51.414 15.3082 50.9183 15.6618 50.5446 15.4018L46.205 12.3793L41.8648 15.4013C41.4917 15.6612 40.9954 15.307 41.1316 14.8784L42.7169 9.89073L38.449 6.7711C38.0818 6.50299 38.2713 5.93013 38.7291 5.92489L44.0488 5.86441L45.7514 0.913945C45.8982 0.488224 46.5118 0.488224 46.658 0.914526Z" fill="#008763"/>
  <path fill-rule="evenodd" clip-rule="evenodd" d="M27.7806 0.914526L29.4832 5.86499L34.8029 5.92547C35.2607 5.93071 35.4502 6.50357 35.083 6.77168L30.815 9.89131L32.4003 14.879C32.5365 15.3082 32.0409 15.6618 31.6672 15.4018L27.3276 12.3793L22.9873 15.4013C22.6142 15.6612 22.118 15.307 22.2542 14.8784L23.8395 9.89073L19.5715 6.7711C19.2043 6.50299 19.3939 5.93013 19.8516 5.92489L25.1714 5.86441L26.8739 0.913945C27.0208 0.488224 27.6343 0.488224 27.7806 0.914526Z" fill="#008763"/>
  <path fill-rule="evenodd" clip-rule="evenodd" d="M8.90266 0.914526L10.6052 5.86499L15.925 5.92547C16.3827 5.93071 16.5722 6.50357 16.2051 6.77168L11.9371 9.89131L13.5224 14.879C13.6586 15.3082 13.1629 15.6618 12.7893 15.4018L8.44962 12.3793L4.10939 15.4013C3.73631 15.6612 3.24004 15.307 3.37625 14.8784L4.96157 9.89073L0.693583 6.7711C0.32642 6.50299 0.515923 5.93013 0.973694 5.92489L6.29342 5.86441L7.996 0.913945C8.14286 0.488224 8.75638 0.488224 8.90266 0.914526Z" fill="#008763"/>
  <path fill-rule="evenodd" clip-rule="evenodd" d="M83.8882 0.640137C83.6992 0.642035 83.5112 0.748883 83.4382 0.96061L81.7288 5.93093L76.3877 5.99166C75.9281 5.99691 75.7378 6.57207 76.1065 6.84126L80.3916 9.97341L78.7999 14.9811C78.6631 15.4114 79.1614 15.7671 79.536 15.506L83.8882 12.4758V0.640137Z" fill="#008763"/>
</svg>