<svg width="22" height="20" viewBox="0 0 22 20" fill="none"
                                            xmlns="http://www.w3.org/2000/svg">
                                            <path opacity="0.9"
                                                d="M21.2022 10C21.2022 15.2304 16.8064 19.5 11.3467 19.5C5.88699 19.5 1.49112 15.2304 1.49112 10C1.49112 4.76962 5.88699 0.5 11.3467 0.5C16.8064 0.5 21.2022 4.76962 21.2022 10Z"
                                                stroke="black"></path>
                                            <path
                                                d="M11.1091 5C12.0642 5 12.8273 5.26217 13.3984 5.78652C13.9789 6.31086 14.2692 7.02715 14.2692 7.93539C14.2692 8.88109 13.9696 9.5927 13.3703 10.0702C12.7711 10.5478 11.9752 10.7865 10.9827 10.7865L10.9265 11.8961H9.53606L9.46584 9.69101H9.92932C10.8376 9.69101 11.5304 9.56929 12.008 9.32584C12.4949 9.0824 12.7383 8.61891 12.7383 7.93539C12.7383 7.43914 12.5932 7.05056 12.3029 6.76966C12.022 6.48876 11.6288 6.34831 11.1231 6.34831C10.6175 6.34831 10.2196 6.48408 9.92932 6.75562C9.63906 7.02715 9.49393 7.40637 9.49393 7.89326H7.99112C7.99112 7.33146 8.11752 6.83052 8.37033 6.39045C8.62314 5.95037 8.98363 5.60861 9.45179 5.36517C9.92932 5.12172 10.4818 5 11.1091 5ZM10.2102 15C9.91996 15 9.67651 14.9017 9.47988 14.7051C9.28325 14.5084 9.18494 14.265 9.18494 13.9747C9.18494 13.6845 9.28325 13.441 9.47988 13.2444C9.67651 13.0478 9.91996 12.9494 10.2102 12.9494C10.4911 12.9494 10.7299 13.0478 10.9265 13.2444C11.1231 13.441 11.2215 13.6845 11.2215 13.9747C11.2215 14.265 11.1231 14.5084 10.9265 14.7051C10.7299 14.9017 10.4911 15 10.2102 15Z"
                                                fill="black"></path>
                                        </svg>